%TF.GenerationSoftware,KiCad,Pcbnew,(5.1.6)-1*%
%TF.CreationDate,2023-03-25T10:50:08-05:00*%
%TF.ProjectId,pcb,7063622e-6b69-4636-9164-5f7063625858,rev?*%
%TF.SameCoordinates,Original*%
%TF.FileFunction,Copper,L2,Bot*%
%TF.FilePolarity,Positive*%
%FSLAX46Y46*%
G04 Gerber Fmt 4.6, Leading zero omitted, Abs format (unit mm)*
G04 Created by KiCad (PCBNEW (5.1.6)-1) date 2023-03-25 10:50:08*
%MOMM*%
%LPD*%
G01*
G04 APERTURE LIST*
%TA.AperFunction,ComponentPad*%
%ADD10C,2.200000*%
%TD*%
%TA.AperFunction,ComponentPad*%
%ADD11C,1.900000*%
%TD*%
%TA.AperFunction,ComponentPad*%
%ADD12C,2.000000*%
%TD*%
%TA.AperFunction,ViaPad*%
%ADD13C,2.200000*%
%TD*%
%TA.AperFunction,Conductor*%
%ADD14C,2.200000*%
%TD*%
%TA.AperFunction,Conductor*%
%ADD15C,1.500000*%
%TD*%
%TA.AperFunction,Conductor*%
%ADD16C,0.300000*%
%TD*%
G04 APERTURE END LIST*
D10*
%TO.P,U2,30*%
%TO.N,+3V3*%
X40640000Y6350000D03*
%TO.P,U2,29*%
%TO.N,GND*%
X40640000Y8890000D03*
%TO.P,U2,28*%
%TO.N,Net-(U2-Pad28)*%
X40640000Y11430000D03*
%TO.P,U2,27*%
%TO.N,Net-(U2-Pad27)*%
X40640000Y13970000D03*
%TO.P,U2,26*%
%TO.N,Net-(U2-Pad26)*%
X40640000Y16510000D03*
%TO.P,U2,25*%
%TO.N,SW1*%
X40640000Y19050000D03*
%TO.P,U2,24*%
%TO.N,SW2*%
X40640000Y21590000D03*
%TO.P,U2,23*%
%TO.N,Net-(U2-Pad23)*%
X40640000Y24130000D03*
%TO.P,U2,22*%
%TO.N,Net-(U2-Pad22)*%
X40640000Y26670000D03*
%TO.P,U2,21*%
%TO.N,Net-(U2-Pad21)*%
X40640000Y29210000D03*
%TO.P,U2,20*%
%TO.N,SDA*%
X40640000Y31750000D03*
%TO.P,U2,19*%
%TO.N,Net-(U2-Pad19)*%
X40640000Y34290000D03*
%TO.P,U2,18*%
%TO.N,Net-(U2-Pad18)*%
X40640000Y36830000D03*
%TO.P,U2,17*%
%TO.N,SCL*%
X40640000Y39370000D03*
%TO.P,U2,16*%
%TO.N,LEDS*%
X40640000Y41910000D03*
%TO.P,U2,15*%
%TO.N,Net-(C3-Pad2)*%
X15240000Y41910000D03*
%TO.P,U2,14*%
%TO.N,Net-(U2-Pad14)*%
X15240000Y39370000D03*
%TO.P,U2,13*%
%TO.N,Net-(U2-Pad13)*%
X15240000Y36830000D03*
%TO.P,U2,12*%
%TO.N,Net-(U2-Pad12)*%
X15240000Y34290000D03*
%TO.P,U2,11*%
%TO.N,hall*%
X15240000Y31750000D03*
%TO.P,U2,10*%
%TO.N,SCK*%
X15240000Y29210000D03*
%TO.P,U2,9*%
%TO.N,SDIO*%
X15240000Y26670000D03*
%TO.P,U2,8*%
%TO.N,I2*%
X15240000Y24130000D03*
%TO.P,U2,7*%
%TO.N,EN*%
X15240000Y21590000D03*
%TO.P,U2,6*%
%TO.N,I1*%
X15240000Y19050000D03*
%TO.P,U2,5*%
%TO.N,Net-(U2-Pad5)*%
X15240000Y16510000D03*
%TO.P,U2,4*%
%TO.N,Net-(U2-Pad4)*%
X15240000Y13970000D03*
%TO.P,U2,3*%
%TO.N,Net-(U2-Pad3)*%
X15240000Y11430000D03*
%TO.P,U2,2*%
%TO.N,GND*%
X15240000Y8890000D03*
%TO.P,U2,1*%
%TO.N,+5V*%
X15240000Y6350000D03*
%TD*%
%TO.P,J5,4*%
%TO.N,SDA*%
X55880000Y57404000D03*
%TO.P,J5,3*%
%TO.N,SCL*%
X53340000Y57404000D03*
%TO.P,J5,2*%
%TO.N,GND*%
X50800000Y57404000D03*
%TO.P,J5,1*%
%TO.N,+3V3*%
X48260000Y57404000D03*
%TD*%
%TO.P,J6,1*%
%TO.N,+3V3*%
X48260000Y64770000D03*
%TO.P,J6,2*%
%TO.N,GND*%
X50800000Y64770000D03*
%TO.P,J6,3*%
%TO.N,SCL*%
X53340000Y64770000D03*
%TO.P,J6,4*%
%TO.N,SDA*%
X55880000Y64770000D03*
%TD*%
%TO.P,C1,1*%
%TO.N,+5V*%
X8890000Y13335000D03*
%TO.P,C1,2*%
%TO.N,GND*%
X5090000Y13335000D03*
%TD*%
%TO.P,C2,2*%
%TO.N,GND*%
X36840000Y54610000D03*
%TO.P,C2,1*%
%TO.N,+3V3*%
X40640000Y54610000D03*
%TD*%
D11*
%TO.P,C3,1*%
%TO.N,+3V3*%
X15240000Y54710000D03*
%TO.P,C3,2*%
%TO.N,Net-(C3-Pad2)*%
X15240000Y52410000D03*
%TD*%
D10*
%TO.P,J1,1*%
%TO.N,+5V*%
X7620000Y21590000D03*
%TO.P,J1,2*%
%TO.N,GND*%
X5080000Y21590000D03*
%TD*%
%TO.P,J2,1*%
%TO.N,OA1*%
X36830000Y67310000D03*
%TO.P,J2,2*%
%TO.N,OA2*%
X36830000Y69850000D03*
%TD*%
%TO.P,J3,2*%
%TO.N,OB2*%
X5080000Y66040000D03*
%TO.P,J3,1*%
%TO.N,OB1*%
X5080000Y63500000D03*
%TD*%
%TO.P,J4,1*%
%TO.N,GND*%
X5080000Y50800000D03*
%TO.P,J4,2*%
%TO.N,hall*%
X5080000Y53340000D03*
%TO.P,J4,3*%
%TO.N,+3V3*%
X5080000Y55880000D03*
%TD*%
%TO.P,J8,1*%
%TO.N,GND*%
X49530000Y72390000D03*
%TO.P,J8,2*%
%TO.N,LEDS*%
X46990000Y72390000D03*
%TO.P,J8,3*%
%TO.N,+5V*%
X44450000Y72390000D03*
%TD*%
%TO.P,R1,1*%
%TO.N,Net-(J7-Pad4)*%
X3810000Y26670000D03*
%TO.P,R1,2*%
%TO.N,SDIO*%
X11430000Y26670000D03*
%TD*%
%TO.P,R2,2*%
%TO.N,GND*%
X20320000Y13970000D03*
%TO.P,R2,1*%
%TO.N,EN*%
X20320000Y21590000D03*
%TD*%
D12*
%TO.P,SW1,*%
%TO.N,*%
X54960000Y32340000D03*
D10*
%TO.P,SW1,2*%
%TO.N,SW1*%
X57150000Y33600000D03*
%TO.P,SW1,1*%
%TO.N,GND*%
X57150000Y38100000D03*
D12*
%TO.P,SW1,*%
%TO.N,*%
X54960000Y39350000D03*
X54360000Y32340000D03*
X54360000Y39350000D03*
%TD*%
%TO.P,SW2,*%
%TO.N,*%
X54360000Y51415000D03*
X54360000Y44405000D03*
X54960000Y51415000D03*
D10*
%TO.P,SW2,1*%
%TO.N,GND*%
X57150000Y50165000D03*
%TO.P,SW2,2*%
%TO.N,SW2*%
X57150000Y45665000D03*
D12*
%TO.P,SW2,*%
%TO.N,*%
X54960000Y44405000D03*
%TD*%
D10*
%TO.P,U1,1*%
%TO.N,EN*%
X30480000Y53340000D03*
%TO.P,U1,9*%
X22860000Y71120000D03*
%TO.P,U1,2*%
%TO.N,I1*%
X30480000Y55880000D03*
%TO.P,U1,10*%
%TO.N,I2*%
X22860000Y68580000D03*
%TO.P,U1,3*%
%TO.N,OA1*%
X30480000Y58420000D03*
%TO.P,U1,11*%
%TO.N,OB2*%
X22860000Y66040000D03*
%TO.P,U1,4*%
%TO.N,GND*%
X30480000Y60960000D03*
%TO.P,U1,12*%
X22860000Y63500000D03*
%TO.P,U1,5*%
X30480000Y63500000D03*
%TO.P,U1,13*%
X22860000Y60960000D03*
%TO.P,U1,6*%
%TO.N,OA2*%
X30480000Y66040000D03*
%TO.P,U1,14*%
%TO.N,OB1*%
X22860000Y58420000D03*
%TO.P,U1,7*%
%TO.N,I2*%
X30480000Y68580000D03*
%TO.P,U1,15*%
%TO.N,I1*%
X22860000Y55880000D03*
%TO.P,U1,8*%
%TO.N,+5V*%
X30480000Y71120000D03*
%TO.P,U1,16*%
X22860000Y53340000D03*
%TD*%
%TO.P,J7,1*%
%TO.N,GND*%
X6350000Y41910000D03*
%TO.P,J7,2*%
%TO.N,+3V3*%
X6350000Y39370000D03*
%TO.P,J7,3*%
%TO.N,SCK*%
X6350000Y36830000D03*
%TO.P,J7,4*%
%TO.N,Net-(J7-Pad4)*%
X6350000Y34290000D03*
%TD*%
D13*
%TO.N,+5V*%
X22860000Y49530000D03*
X33020000Y71120000D03*
X33020000Y53340000D03*
X27940000Y6350000D03*
X19050000Y6350000D03*
X33020000Y49530000D03*
%TO.N,+3V3*%
X10299990Y39370000D03*
X10160000Y55880000D03*
X40640000Y49530000D03*
X47498000Y49530000D03*
X22860000Y44450000D03*
X35560000Y44450000D03*
%TO.N,OA1*%
X34290000Y64770000D03*
X34290000Y58420000D03*
%TO.N,OB1*%
X14986000Y58420000D03*
X10160000Y63500000D03*
%TO.N,EN*%
X17780000Y71120000D03*
X17780000Y21590000D03*
X17780000Y26670000D03*
X17780000Y44450000D03*
X17780000Y41910000D03*
X27940000Y41910000D03*
%TO.N,I2*%
X20320000Y68580000D03*
X20320000Y44450000D03*
%TD*%
D14*
%TO.N,+5V*%
X13684366Y6350000D02*
X8890000Y11144366D01*
X15240000Y6350000D02*
X13684366Y6350000D01*
X8890000Y11144366D02*
X8890000Y20320000D01*
X8890000Y20320000D02*
X7620000Y21590000D01*
X30480000Y71120000D02*
X33020000Y71120000D01*
X33020000Y71120000D02*
X33020000Y71120000D01*
X34290000Y72390000D02*
X44450000Y72390000D01*
X33020000Y71120000D02*
X34290000Y72390000D01*
X33020000Y53340000D02*
X33020000Y49530000D01*
X27940000Y6350000D02*
X27940000Y6350000D01*
X15240000Y6350000D02*
X19050000Y6350000D01*
X19050000Y6350000D02*
X19050000Y6350000D01*
X33020000Y49530000D02*
X33020000Y49530000D01*
X22860000Y53340000D02*
X22860000Y49530000D01*
X28194000Y6604000D02*
X27940000Y6350000D01*
X28194000Y35560000D02*
X28194000Y6604000D01*
X30480000Y37846000D02*
X28194000Y35560000D01*
X30480000Y46990000D02*
X30480000Y37846000D01*
X33020000Y49530000D02*
X30480000Y46990000D01*
%TO.N,+3V3*%
X6350000Y39370000D02*
X10299990Y39370000D01*
X5080000Y55880000D02*
X10160000Y55880000D01*
X14020001Y55880000D02*
X15240000Y54660001D01*
X48260000Y64770000D02*
X48260000Y57150000D01*
X10299990Y39370000D02*
X10299990Y39370000D01*
X10160000Y55880000D02*
X14020001Y55880000D01*
X40640000Y54610000D02*
X40640000Y50800000D01*
X40640000Y6350000D02*
X38100000Y6350000D01*
X38100000Y6350000D02*
X38100000Y6350000D01*
X38100000Y6350000D02*
X35560000Y8890000D01*
X38100000Y46990000D02*
X40640000Y49530000D01*
X40640000Y49530000D02*
X40640000Y54610000D01*
X38100000Y46990000D02*
X35560000Y44450000D01*
X35560000Y44450000D02*
X35560000Y8890000D01*
X20459999Y50833503D02*
X20459999Y48120001D01*
X15240000Y54710000D02*
X16583502Y54710000D01*
X16583502Y54710000D02*
X20459999Y50833503D01*
X22860000Y45720000D02*
X22860000Y44450000D01*
X20459999Y48120001D02*
X22860000Y45720000D01*
X48260000Y57404000D02*
X48260000Y54729149D01*
X48260000Y54729149D02*
X47479990Y53949139D01*
X47479990Y53949139D02*
X47479990Y49530000D01*
%TO.N,OA2*%
X32035634Y66040000D02*
X35845634Y69850000D01*
X30480000Y66040000D02*
X32035634Y66040000D01*
X35845634Y69850000D02*
X36830000Y69850000D01*
%TO.N,OA1*%
X34290000Y64770000D02*
X34290000Y64770000D01*
X34290000Y58420000D02*
X34290000Y58420000D01*
X36830000Y67310000D02*
X34290000Y64770000D01*
X30480000Y58420000D02*
X34290000Y58420000D01*
%TO.N,OB1*%
X5080000Y63500000D02*
X10160000Y63500000D01*
X10160000Y63500000D02*
X10160000Y63500000D01*
X22860000Y58420000D02*
X17780000Y58420000D01*
X14986000Y58420000D02*
X17780000Y58420000D01*
%TO.N,OB2*%
X22860000Y66040000D02*
X5080000Y66040000D01*
%TO.N,EN*%
X22860000Y71120000D02*
X17780000Y71120000D01*
X15240000Y21590000D02*
X17780000Y21590000D01*
X27940000Y53340000D02*
X27940000Y44450000D01*
X17780000Y71120000D02*
X17780000Y71120000D01*
X17780000Y21590000D02*
X20320000Y21590000D01*
X30480000Y53340000D02*
X27940000Y53340000D01*
X17780000Y26670000D02*
X17780000Y44450000D01*
X27940000Y44450000D02*
X27940000Y41910000D01*
%TO.N,I1*%
X15240000Y19050000D02*
X22860000Y19050000D01*
X27940000Y55880000D02*
X30480000Y55880000D01*
X22860000Y19050000D02*
X22860000Y41910000D01*
X23854116Y42049990D02*
X25400000Y43595874D01*
X22999990Y42049990D02*
X23854116Y42049990D01*
X22860000Y41910000D02*
X22999990Y42049990D01*
X25400000Y43595874D02*
X25400000Y55880000D01*
X25400000Y55880000D02*
X27940000Y55880000D01*
X22860000Y55880000D02*
X25400000Y55880000D01*
%TO.N,I2*%
X22860000Y68580000D02*
X20320000Y68580000D01*
X22860000Y68580000D02*
X30480000Y68580000D01*
X15240000Y24130000D02*
X20320000Y24130000D01*
X20320000Y68580000D02*
X20320000Y68580000D01*
X20320000Y44450000D02*
X20320000Y24130000D01*
%TO.N,Net-(C3-Pad2)*%
X15240000Y41910000D02*
X15240000Y52070000D01*
%TO.N,hall*%
X13684366Y31750000D02*
X12700000Y32734366D01*
X15240000Y31750000D02*
X13684366Y31750000D01*
X12700000Y32734366D02*
X12700000Y50800000D01*
X12700000Y50800000D02*
X10160000Y53340000D01*
X10160000Y53340000D02*
X5080000Y53340000D01*
%TO.N,SDA*%
X55880000Y64770000D02*
X55880000Y57150000D01*
D15*
X55880000Y55848366D02*
X55131624Y55099990D01*
X55880000Y57404000D02*
X55880000Y55848366D01*
X55131624Y55099990D02*
X53934168Y55099990D01*
X53934168Y55099990D02*
X51230010Y52395832D01*
X51230010Y46421656D02*
X43180000Y38371646D01*
X51230010Y52395832D02*
X51230010Y46421656D01*
X43180000Y33020000D02*
X41910000Y31750000D01*
X43180000Y38371646D02*
X43180000Y33020000D01*
X41910000Y31750000D02*
X40640000Y31750000D01*
D14*
%TO.N,SCL*%
X53340000Y64770000D02*
X53340000Y57150000D01*
D15*
X49530000Y53099998D02*
X53340000Y56909998D01*
X42264176Y39859999D02*
X49530000Y47125823D01*
X49530000Y47125823D02*
X49530000Y53099998D01*
X40640000Y39370000D02*
X41129999Y39859999D01*
X41129999Y39859999D02*
X42264176Y39859999D01*
X53340000Y56909998D02*
X53340000Y57150000D01*
D14*
%TO.N,SCK*%
X7905634Y36830000D02*
X8890000Y35845634D01*
X6350000Y36830000D02*
X7905634Y36830000D01*
X8890000Y35845634D02*
X8890000Y29210000D01*
X8890000Y29210000D02*
X15240000Y29210000D01*
D15*
%TO.N,LEDS*%
X41910000Y41910000D02*
X40640000Y41910000D01*
X44939990Y44939990D02*
X41910000Y41910000D01*
X44939990Y44939990D02*
X45466000Y45465999D01*
X45429980Y45756019D02*
X45593000Y45592999D01*
X46990000Y72136000D02*
X46990000Y66548000D01*
X46209990Y65767990D02*
X46209990Y55578290D01*
X46990000Y66548000D02*
X46209990Y65767990D01*
X45593000Y45592999D02*
X44939990Y44939990D01*
X46209990Y55578290D02*
X45429980Y54798280D01*
X45429980Y54798280D02*
X45429980Y45756019D01*
D14*
%TO.N,SDIO*%
X15240000Y26670000D02*
X11430000Y26670000D01*
D15*
%TO.N,SW1*%
X41129999Y19539999D02*
X40640000Y19050000D01*
X42549810Y19539999D02*
X41129999Y19539999D01*
X44390011Y21380200D02*
X42549810Y19539999D01*
X44390011Y29421657D02*
X44390011Y21380200D01*
X55880000Y35560000D02*
X46736000Y35560000D01*
X46736000Y35560000D02*
X46580020Y35404020D01*
X57150000Y34290000D02*
X55880000Y35560000D01*
X46580020Y31611666D02*
X44390011Y29421657D01*
X46580020Y35404020D02*
X46580020Y31611666D01*
%TO.N,SW2*%
X42690001Y30125824D02*
X42690001Y22084367D01*
X42195634Y21590000D02*
X40640000Y21590000D01*
X44880010Y32315833D02*
X42690001Y30125824D01*
X57150000Y43708998D02*
X55351002Y41910000D01*
X44880010Y37667480D02*
X44880010Y32315833D01*
X57150000Y45720000D02*
X57150000Y43708998D01*
X55351002Y41910000D02*
X49122530Y41910000D01*
X42690001Y22084367D02*
X42195634Y21590000D01*
X49122530Y41910000D02*
X44880010Y37667480D01*
D14*
%TO.N,Net-(J7-Pad4)*%
X3810000Y26670000D02*
X6350000Y29210000D01*
X6350000Y29210000D02*
X6350000Y34290000D01*
%TD*%
D16*
%TO.N,GND*%
G36*
X60485000Y23335000D02*
G01*
X50823332Y23335000D01*
X50800000Y23337298D01*
X50776668Y23335000D01*
X50706884Y23328127D01*
X50617346Y23300966D01*
X50534827Y23256859D01*
X50462499Y23197501D01*
X50403141Y23125173D01*
X50359034Y23042654D01*
X50331873Y22953116D01*
X50322702Y22860000D01*
X50325001Y22836658D01*
X50325000Y475000D01*
X475000Y475000D01*
X475000Y4011907D01*
X1760000Y4011907D01*
X1760000Y3608093D01*
X1838780Y3212037D01*
X1993314Y2838961D01*
X2217661Y2503201D01*
X2503201Y2217661D01*
X2838961Y1993314D01*
X3212037Y1838780D01*
X3608093Y1760000D01*
X4011907Y1760000D01*
X4407963Y1838780D01*
X4781039Y1993314D01*
X5116799Y2217661D01*
X5402339Y2503201D01*
X5626686Y2838961D01*
X5781220Y3212037D01*
X5860000Y3608093D01*
X5860000Y4011907D01*
X44940000Y4011907D01*
X44940000Y3608093D01*
X45018780Y3212037D01*
X45173314Y2838961D01*
X45397661Y2503201D01*
X45683201Y2217661D01*
X46018961Y1993314D01*
X46392037Y1838780D01*
X46788093Y1760000D01*
X47191907Y1760000D01*
X47587963Y1838780D01*
X47961039Y1993314D01*
X48296799Y2217661D01*
X48582339Y2503201D01*
X48806686Y2838961D01*
X48961220Y3212037D01*
X49040000Y3608093D01*
X49040000Y4011907D01*
X48961220Y4407963D01*
X48806686Y4781039D01*
X48582339Y5116799D01*
X48296799Y5402339D01*
X47961039Y5626686D01*
X47587963Y5781220D01*
X47191907Y5860000D01*
X46788093Y5860000D01*
X46392037Y5781220D01*
X46018961Y5626686D01*
X45683201Y5402339D01*
X45397661Y5116799D01*
X45173314Y4781039D01*
X45018780Y4407963D01*
X44940000Y4011907D01*
X5860000Y4011907D01*
X5781220Y4407963D01*
X5626686Y4781039D01*
X5402339Y5116799D01*
X5116799Y5402339D01*
X4781039Y5626686D01*
X4407963Y5781220D01*
X4011907Y5860000D01*
X3608093Y5860000D01*
X3212037Y5781220D01*
X2838961Y5626686D01*
X2503201Y5402339D01*
X2217661Y5116799D01*
X1993314Y4781039D01*
X1838780Y4407963D01*
X1760000Y4011907D01*
X475000Y4011907D01*
X475000Y21590000D01*
X6062502Y21590000D01*
X6070000Y21513872D01*
X6070000Y21437338D01*
X6084931Y21362272D01*
X6092429Y21286148D01*
X6114633Y21212950D01*
X6129565Y21137882D01*
X6158854Y21067173D01*
X6181059Y20993972D01*
X6217121Y20926503D01*
X6246408Y20855800D01*
X6288923Y20792171D01*
X6324987Y20724700D01*
X6373518Y20665565D01*
X6416036Y20601932D01*
X6631932Y20386036D01*
X6631938Y20386032D01*
X7340001Y19677968D01*
X7340000Y11220494D01*
X7332502Y11144366D01*
X7340000Y11068238D01*
X7340000Y11068229D01*
X7362428Y10840514D01*
X7406327Y10695800D01*
X7451059Y10548338D01*
X7594987Y10279066D01*
X7638508Y10226036D01*
X7788682Y10043048D01*
X7847827Y9994509D01*
X12534513Y5307822D01*
X12583048Y5248682D01*
X12819066Y5054987D01*
X13088337Y4911059D01*
X13380513Y4822428D01*
X13608228Y4800000D01*
X13608237Y4800000D01*
X13684365Y4792502D01*
X13760493Y4800000D01*
X19202662Y4800000D01*
X19277717Y4814929D01*
X19353853Y4822428D01*
X19427060Y4844635D01*
X19502118Y4859565D01*
X19572822Y4888852D01*
X19646029Y4911059D01*
X19713500Y4947123D01*
X19784200Y4976408D01*
X19847828Y5018922D01*
X19915300Y5054987D01*
X19974437Y5103519D01*
X20038068Y5146036D01*
X20092184Y5200152D01*
X20151318Y5248682D01*
X20199848Y5307816D01*
X20253964Y5361932D01*
X20296481Y5425563D01*
X20345013Y5484700D01*
X20381078Y5552172D01*
X20423592Y5615800D01*
X20452877Y5686500D01*
X20488941Y5753971D01*
X20511148Y5827178D01*
X20540435Y5897882D01*
X20555365Y5972940D01*
X20577572Y6046147D01*
X20585071Y6122283D01*
X20600000Y6197338D01*
X20600000Y6273862D01*
X20607499Y6350000D01*
X20600000Y6426138D01*
X20600000Y6502662D01*
X20585071Y6577717D01*
X20577572Y6653853D01*
X20555365Y6727060D01*
X20540435Y6802118D01*
X20511148Y6872822D01*
X20488941Y6946029D01*
X20452877Y7013500D01*
X20423592Y7084200D01*
X20381078Y7147828D01*
X20345013Y7215300D01*
X20296481Y7274437D01*
X20253964Y7338068D01*
X20199848Y7392184D01*
X20151318Y7451318D01*
X20092184Y7499848D01*
X20038068Y7553964D01*
X19974437Y7596481D01*
X19915300Y7645013D01*
X19847828Y7681078D01*
X19784200Y7723592D01*
X19713500Y7752877D01*
X19646029Y7788941D01*
X19572822Y7811148D01*
X19502118Y7840435D01*
X19427060Y7855365D01*
X19353853Y7877572D01*
X19277717Y7885071D01*
X19202662Y7900000D01*
X14326397Y7900000D01*
X10440000Y11786396D01*
X10440000Y20243873D01*
X10447498Y20320001D01*
X10440000Y20396129D01*
X10440000Y20396138D01*
X10417572Y20623853D01*
X10328941Y20916029D01*
X10185013Y21185300D01*
X9991318Y21421318D01*
X9932178Y21469853D01*
X8823968Y22578062D01*
X8823964Y22578068D01*
X8608068Y22793964D01*
X8544435Y22836482D01*
X8485300Y22885013D01*
X8417829Y22921077D01*
X8354200Y22963592D01*
X8283497Y22992879D01*
X8216028Y23028941D01*
X8142827Y23051146D01*
X8072118Y23080435D01*
X7997050Y23095367D01*
X7923852Y23117571D01*
X7847728Y23125069D01*
X7772662Y23140000D01*
X7696128Y23140000D01*
X7620000Y23147498D01*
X7543872Y23140000D01*
X7467338Y23140000D01*
X7392272Y23125069D01*
X7316148Y23117571D01*
X7242950Y23095367D01*
X7167882Y23080435D01*
X7097173Y23051146D01*
X7023972Y23028941D01*
X6956503Y22992879D01*
X6885800Y22963592D01*
X6822171Y22921077D01*
X6754700Y22885013D01*
X6695563Y22836481D01*
X6631932Y22793964D01*
X6577816Y22739848D01*
X6518682Y22691318D01*
X6470152Y22632184D01*
X6416036Y22578068D01*
X6373519Y22514437D01*
X6324987Y22455300D01*
X6288923Y22387829D01*
X6246408Y22324200D01*
X6217121Y22253497D01*
X6181059Y22186028D01*
X6158854Y22112827D01*
X6129565Y22042118D01*
X6114633Y21967050D01*
X6092429Y21893852D01*
X6084931Y21817728D01*
X6070000Y21742662D01*
X6070000Y21666128D01*
X6062502Y21590000D01*
X475000Y21590000D01*
X475000Y26670000D01*
X2252502Y26670000D01*
X2260000Y26593872D01*
X2260000Y26517338D01*
X2274931Y26442272D01*
X2282429Y26366148D01*
X2304633Y26292950D01*
X2319565Y26217882D01*
X2348854Y26147173D01*
X2371059Y26073972D01*
X2407121Y26006503D01*
X2436408Y25935800D01*
X2478923Y25872171D01*
X2514987Y25804700D01*
X2563519Y25745563D01*
X2606036Y25681932D01*
X2660152Y25627816D01*
X2708682Y25568682D01*
X2767816Y25520152D01*
X2821932Y25466036D01*
X2885563Y25423519D01*
X2944700Y25374987D01*
X3012171Y25338923D01*
X3075800Y25296408D01*
X3146503Y25267121D01*
X3213972Y25231059D01*
X3287173Y25208854D01*
X3357882Y25179565D01*
X3432950Y25164633D01*
X3506148Y25142429D01*
X3582272Y25134931D01*
X3657338Y25120000D01*
X3733872Y25120000D01*
X3810000Y25112502D01*
X3886128Y25120000D01*
X3962662Y25120000D01*
X4037728Y25134931D01*
X4113852Y25142429D01*
X4187050Y25164633D01*
X4262118Y25179565D01*
X4332827Y25208854D01*
X4406028Y25231059D01*
X4473497Y25267121D01*
X4544200Y25296408D01*
X4607829Y25338923D01*
X4675300Y25374987D01*
X4734435Y25423518D01*
X4798068Y25466036D01*
X5013964Y25681932D01*
X5013968Y25681938D01*
X7392179Y28060148D01*
X7451318Y28108682D01*
X7620000Y28314222D01*
X7788682Y28108682D01*
X8024700Y27914987D01*
X8293971Y27771059D01*
X8586147Y27682428D01*
X8813862Y27660000D01*
X8890000Y27652501D01*
X8966138Y27660000D01*
X10227968Y27660000D01*
X10226036Y27658068D01*
X10183519Y27594437D01*
X10134987Y27535300D01*
X10098922Y27467828D01*
X10056408Y27404200D01*
X10027123Y27333500D01*
X9991059Y27266029D01*
X9968852Y27192822D01*
X9939565Y27122118D01*
X9924635Y27047060D01*
X9902428Y26973853D01*
X9894929Y26897717D01*
X9880000Y26822662D01*
X9880000Y26746138D01*
X9872501Y26670000D01*
X9880000Y26593863D01*
X9880000Y26517338D01*
X9894929Y26442283D01*
X9902428Y26366147D01*
X9924635Y26292940D01*
X9939565Y26217882D01*
X9968852Y26147178D01*
X9991059Y26073971D01*
X10027123Y26006500D01*
X10056408Y25935800D01*
X10098922Y25872172D01*
X10134987Y25804700D01*
X10183519Y25745563D01*
X10226036Y25681932D01*
X10280152Y25627816D01*
X10328682Y25568682D01*
X10387816Y25520152D01*
X10441932Y25466036D01*
X10505563Y25423519D01*
X10564700Y25374987D01*
X10632172Y25338922D01*
X10695800Y25296408D01*
X10766500Y25267123D01*
X10833971Y25231059D01*
X10907178Y25208852D01*
X10977882Y25179565D01*
X11052940Y25164635D01*
X11126147Y25142428D01*
X11202283Y25134929D01*
X11277338Y25120000D01*
X14037968Y25120000D01*
X14036036Y25118068D01*
X13993519Y25054437D01*
X13944987Y24995300D01*
X13908922Y24927828D01*
X13866408Y24864200D01*
X13837123Y24793500D01*
X13801059Y24726029D01*
X13778852Y24652822D01*
X13749565Y24582118D01*
X13734635Y24507060D01*
X13712428Y24433853D01*
X13704929Y24357717D01*
X13690000Y24282662D01*
X13690000Y24206138D01*
X13682501Y24130000D01*
X13690000Y24053862D01*
X13690000Y23977338D01*
X13704929Y23902283D01*
X13712428Y23826147D01*
X13734635Y23752940D01*
X13749565Y23677882D01*
X13778852Y23607178D01*
X13801059Y23533971D01*
X13837123Y23466500D01*
X13866408Y23395800D01*
X13908922Y23332172D01*
X13944987Y23264700D01*
X13993519Y23205563D01*
X14036036Y23141932D01*
X14090152Y23087816D01*
X14138682Y23028682D01*
X14197816Y22980152D01*
X14251932Y22926036D01*
X14315563Y22883519D01*
X14344222Y22860000D01*
X14315563Y22836481D01*
X14251932Y22793964D01*
X14197816Y22739848D01*
X14138682Y22691318D01*
X14090152Y22632184D01*
X14036036Y22578068D01*
X13993519Y22514437D01*
X13944987Y22455300D01*
X13908922Y22387828D01*
X13866408Y22324200D01*
X13837123Y22253500D01*
X13801059Y22186029D01*
X13778852Y22112822D01*
X13749565Y22042118D01*
X13734635Y21967060D01*
X13712428Y21893853D01*
X13704929Y21817717D01*
X13690000Y21742662D01*
X13690000Y21666138D01*
X13682501Y21590000D01*
X13690000Y21513862D01*
X13690000Y21437338D01*
X13704929Y21362283D01*
X13712428Y21286147D01*
X13734635Y21212940D01*
X13749565Y21137882D01*
X13778852Y21067178D01*
X13801059Y20993971D01*
X13837123Y20926500D01*
X13866408Y20855800D01*
X13908922Y20792172D01*
X13944987Y20724700D01*
X13993519Y20665563D01*
X14036036Y20601932D01*
X14090152Y20547816D01*
X14138682Y20488682D01*
X14197816Y20440152D01*
X14251932Y20386036D01*
X14315563Y20343519D01*
X14344222Y20320000D01*
X14315563Y20296481D01*
X14251932Y20253964D01*
X14197816Y20199848D01*
X14138682Y20151318D01*
X14090152Y20092184D01*
X14036036Y20038068D01*
X13993519Y19974437D01*
X13944987Y19915300D01*
X13908922Y19847828D01*
X13866408Y19784200D01*
X13837123Y19713500D01*
X13801059Y19646029D01*
X13778852Y19572822D01*
X13749565Y19502118D01*
X13734635Y19427060D01*
X13712428Y19353853D01*
X13704929Y19277717D01*
X13690000Y19202662D01*
X13690000Y19126138D01*
X13682501Y19050000D01*
X13690000Y18973863D01*
X13690000Y18897338D01*
X13704929Y18822283D01*
X13712428Y18746147D01*
X13734635Y18672940D01*
X13749565Y18597882D01*
X13778852Y18527178D01*
X13801059Y18453971D01*
X13837123Y18386500D01*
X13866408Y18315800D01*
X13908922Y18252172D01*
X13944987Y18184700D01*
X13993519Y18125563D01*
X14036036Y18061932D01*
X14090152Y18007816D01*
X14138682Y17948682D01*
X14197816Y17900152D01*
X14251932Y17846036D01*
X14315563Y17803519D01*
X14347157Y17777591D01*
X14251932Y17713964D01*
X14036036Y17498068D01*
X13866408Y17244200D01*
X13749565Y16962118D01*
X13690000Y16662662D01*
X13690000Y16357338D01*
X13749565Y16057882D01*
X13866408Y15775800D01*
X14036036Y15521932D01*
X14251932Y15306036D01*
X14350763Y15240000D01*
X14251932Y15173964D01*
X14036036Y14958068D01*
X13866408Y14704200D01*
X13749565Y14422118D01*
X13690000Y14122662D01*
X13690000Y13817338D01*
X13749565Y13517882D01*
X13866408Y13235800D01*
X14036036Y12981932D01*
X14251932Y12766036D01*
X14350763Y12700000D01*
X14251932Y12633964D01*
X14036036Y12418068D01*
X13866408Y12164200D01*
X13749565Y11882118D01*
X13690000Y11582662D01*
X13690000Y11277338D01*
X13749565Y10977882D01*
X13866408Y10695800D01*
X14036036Y10441932D01*
X14251932Y10226036D01*
X14505800Y10056408D01*
X14787882Y9939565D01*
X15087338Y9880000D01*
X15392662Y9880000D01*
X15692118Y9939565D01*
X15974200Y10056408D01*
X16228068Y10226036D01*
X16443964Y10441932D01*
X16613592Y10695800D01*
X16730435Y10977882D01*
X16790000Y11277338D01*
X16790000Y11582662D01*
X16730435Y11882118D01*
X16613592Y12164200D01*
X16443964Y12418068D01*
X16228068Y12633964D01*
X16129237Y12700000D01*
X16228068Y12766036D01*
X16443964Y12981932D01*
X16613592Y13235800D01*
X16730435Y13517882D01*
X16790000Y13817338D01*
X16790000Y14122662D01*
X16730435Y14422118D01*
X16613592Y14704200D01*
X16443964Y14958068D01*
X16228068Y15173964D01*
X16129237Y15240000D01*
X16228068Y15306036D01*
X16443964Y15521932D01*
X16613592Y15775800D01*
X16730435Y16057882D01*
X16790000Y16357338D01*
X16790000Y16662662D01*
X16730435Y16962118D01*
X16613592Y17244200D01*
X16443964Y17498068D01*
X16442032Y17500000D01*
X22783862Y17500000D01*
X22860000Y17492501D01*
X22936138Y17500000D01*
X23163853Y17522428D01*
X23456029Y17611059D01*
X23725300Y17754987D01*
X23961318Y17948682D01*
X24155013Y18184700D01*
X24298941Y18453971D01*
X24387572Y18746147D01*
X24417499Y19050000D01*
X24410000Y19126138D01*
X24410000Y40598871D01*
X24450145Y40611049D01*
X24719416Y40754977D01*
X24955434Y40948672D01*
X25003973Y41007817D01*
X26390001Y42393844D01*
X26390001Y42062667D01*
X26390000Y42062662D01*
X26390000Y41757338D01*
X26404931Y41682273D01*
X26412429Y41606147D01*
X26434633Y41532950D01*
X26449565Y41457882D01*
X26478856Y41387169D01*
X26501060Y41313971D01*
X26537119Y41246508D01*
X26566408Y41175800D01*
X26608927Y41112165D01*
X26644988Y41044700D01*
X26693515Y40985570D01*
X26736036Y40921932D01*
X26790157Y40867811D01*
X26838683Y40808682D01*
X26897812Y40760156D01*
X26951932Y40706036D01*
X27015569Y40663516D01*
X27074701Y40614987D01*
X27142168Y40578925D01*
X27205800Y40536408D01*
X27276505Y40507121D01*
X27343972Y40471059D01*
X27417175Y40448853D01*
X27487882Y40419565D01*
X27562943Y40404635D01*
X27636148Y40382428D01*
X27712282Y40374929D01*
X27787338Y40360000D01*
X27863862Y40360000D01*
X27940000Y40352501D01*
X28016138Y40360000D01*
X28092662Y40360000D01*
X28167717Y40374929D01*
X28243853Y40382428D01*
X28317060Y40404635D01*
X28392118Y40419565D01*
X28462822Y40448852D01*
X28536029Y40471059D01*
X28603500Y40507123D01*
X28674200Y40536408D01*
X28737828Y40578922D01*
X28805300Y40614987D01*
X28864437Y40663519D01*
X28928068Y40706036D01*
X28930001Y40707969D01*
X28930001Y38488032D01*
X27151827Y36709857D01*
X27092682Y36661318D01*
X27002136Y36550987D01*
X26898987Y36425300D01*
X26796721Y36233972D01*
X26755059Y36156028D01*
X26666428Y35863852D01*
X26644000Y35636137D01*
X26644000Y35636128D01*
X26636502Y35560000D01*
X26644000Y35483872D01*
X26644001Y7213455D01*
X26608922Y7147828D01*
X26566408Y7084200D01*
X26537123Y7013500D01*
X26501059Y6946029D01*
X26478852Y6872822D01*
X26449565Y6802118D01*
X26434635Y6727060D01*
X26412428Y6653853D01*
X26404929Y6577717D01*
X26390000Y6502662D01*
X26390000Y6426138D01*
X26382501Y6350000D01*
X26390000Y6273862D01*
X26390000Y6197338D01*
X26404929Y6122283D01*
X26412428Y6046147D01*
X26434635Y5972940D01*
X26449565Y5897882D01*
X26478852Y5827178D01*
X26501059Y5753971D01*
X26537123Y5686500D01*
X26566408Y5615800D01*
X26608922Y5552172D01*
X26644987Y5484700D01*
X26693519Y5425563D01*
X26736036Y5361932D01*
X26790152Y5307816D01*
X26838682Y5248682D01*
X26897816Y5200152D01*
X26951932Y5146036D01*
X27015563Y5103519D01*
X27074700Y5054987D01*
X27142172Y5018922D01*
X27205800Y4976408D01*
X27276500Y4947123D01*
X27343971Y4911059D01*
X27417178Y4888852D01*
X27487882Y4859565D01*
X27562940Y4844635D01*
X27636147Y4822428D01*
X27712283Y4814929D01*
X27787338Y4800000D01*
X27863872Y4800000D01*
X27940000Y4792502D01*
X28016128Y4800000D01*
X28092662Y4800000D01*
X28167717Y4814929D01*
X28243853Y4822428D01*
X28317060Y4844635D01*
X28392118Y4859565D01*
X28462822Y4888852D01*
X28536029Y4911059D01*
X28603500Y4947123D01*
X28674200Y4976408D01*
X28737828Y5018922D01*
X28805300Y5054987D01*
X28864437Y5103519D01*
X28928068Y5146036D01*
X28982184Y5200152D01*
X29041318Y5248682D01*
X29089848Y5307816D01*
X29143964Y5361932D01*
X29143968Y5361938D01*
X29236173Y5454143D01*
X29295318Y5502682D01*
X29489013Y5738700D01*
X29632941Y6007971D01*
X29721572Y6300147D01*
X29744000Y6527862D01*
X29744000Y6527871D01*
X29751498Y6603999D01*
X29744000Y6680127D01*
X29744000Y34917970D01*
X31522178Y36696147D01*
X31581318Y36744682D01*
X31775013Y36980700D01*
X31918941Y37249971D01*
X32007572Y37542147D01*
X32030000Y37769862D01*
X32030000Y37769871D01*
X32037498Y37845999D01*
X32030000Y37922127D01*
X32030000Y44450000D01*
X34002502Y44450000D01*
X34010000Y44373872D01*
X34010001Y8966138D01*
X34002502Y8890000D01*
X34032429Y8586148D01*
X34121059Y8293972D01*
X34264987Y8024700D01*
X34410147Y7847823D01*
X34458683Y7788682D01*
X34517823Y7740147D01*
X36950147Y5307822D01*
X36998682Y5248682D01*
X37234700Y5054987D01*
X37503971Y4911059D01*
X37796147Y4822428D01*
X38023862Y4800000D01*
X38023871Y4800000D01*
X38099999Y4792502D01*
X38176127Y4800000D01*
X40792662Y4800000D01*
X40867717Y4814929D01*
X40943853Y4822428D01*
X41017060Y4844635D01*
X41092118Y4859565D01*
X41162822Y4888852D01*
X41236029Y4911059D01*
X41303500Y4947123D01*
X41374200Y4976408D01*
X41437828Y5018922D01*
X41505300Y5054987D01*
X41564437Y5103519D01*
X41628068Y5146036D01*
X41682184Y5200152D01*
X41741318Y5248682D01*
X41789848Y5307816D01*
X41843964Y5361932D01*
X41886481Y5425563D01*
X41935013Y5484700D01*
X41971078Y5552172D01*
X42013592Y5615800D01*
X42042877Y5686500D01*
X42078941Y5753971D01*
X42101148Y5827178D01*
X42130435Y5897882D01*
X42145365Y5972940D01*
X42167572Y6046147D01*
X42175071Y6122283D01*
X42190000Y6197338D01*
X42190000Y6273862D01*
X42197499Y6350000D01*
X42190000Y6426138D01*
X42190000Y6502662D01*
X42175071Y6577717D01*
X42167572Y6653853D01*
X42145365Y6727060D01*
X42130435Y6802118D01*
X42101148Y6872822D01*
X42078941Y6946029D01*
X42042877Y7013500D01*
X42013592Y7084200D01*
X41971078Y7147828D01*
X41935013Y7215300D01*
X41886481Y7274437D01*
X41843964Y7338068D01*
X41789848Y7392184D01*
X41741318Y7451318D01*
X41682184Y7499848D01*
X41628068Y7553964D01*
X41564437Y7596481D01*
X41505300Y7645013D01*
X41437828Y7681078D01*
X41374200Y7723592D01*
X41303500Y7752877D01*
X41236029Y7788941D01*
X41162822Y7811148D01*
X41092118Y7840435D01*
X41017060Y7855365D01*
X40943853Y7877572D01*
X40867717Y7885071D01*
X40792662Y7900000D01*
X38742031Y7900000D01*
X37110000Y9532030D01*
X37110000Y43807970D01*
X39249852Y45947821D01*
X39249856Y45947826D01*
X41628065Y48326034D01*
X41628068Y48326036D01*
X41682185Y48380153D01*
X41741318Y48428682D01*
X41789848Y48487816D01*
X41843964Y48541932D01*
X41886481Y48605563D01*
X41935013Y48664700D01*
X41971078Y48732172D01*
X42013592Y48795800D01*
X42042877Y48866500D01*
X42078941Y48933971D01*
X42101148Y49007178D01*
X42130435Y49077882D01*
X42145365Y49152940D01*
X42167572Y49226147D01*
X42175071Y49302283D01*
X42190000Y49377338D01*
X42190000Y49453871D01*
X42197498Y49529999D01*
X42190000Y49606127D01*
X42190000Y54762662D01*
X42175071Y54837717D01*
X42167572Y54913853D01*
X42145365Y54987060D01*
X42130435Y55062118D01*
X42101148Y55132822D01*
X42078941Y55206029D01*
X42042877Y55273500D01*
X42013592Y55344200D01*
X41971078Y55407828D01*
X41935013Y55475300D01*
X41886481Y55534437D01*
X41843964Y55598068D01*
X41789848Y55652184D01*
X41741318Y55711318D01*
X41682184Y55759848D01*
X41628068Y55813964D01*
X41564437Y55856481D01*
X41505300Y55905013D01*
X41437828Y55941078D01*
X41374200Y55983592D01*
X41303500Y56012877D01*
X41236029Y56048941D01*
X41162822Y56071148D01*
X41092118Y56100435D01*
X41017060Y56115365D01*
X40943853Y56137572D01*
X40867717Y56145071D01*
X40792662Y56160000D01*
X40716138Y56160000D01*
X40640000Y56167499D01*
X40563862Y56160000D01*
X40487338Y56160000D01*
X40412283Y56145071D01*
X40336147Y56137572D01*
X40262940Y56115365D01*
X40187882Y56100435D01*
X40117178Y56071148D01*
X40043971Y56048941D01*
X39976500Y56012877D01*
X39905800Y55983592D01*
X39842172Y55941078D01*
X39774700Y55905013D01*
X39715563Y55856481D01*
X39651932Y55813964D01*
X39597816Y55759848D01*
X39538682Y55711318D01*
X39490153Y55652185D01*
X39436036Y55598068D01*
X39393516Y55534433D01*
X39344987Y55475299D01*
X39308925Y55407832D01*
X39266408Y55344200D01*
X39237121Y55273495D01*
X39201059Y55206028D01*
X39178853Y55132825D01*
X39149565Y55062118D01*
X39134635Y54987057D01*
X39112428Y54913852D01*
X39104929Y54837718D01*
X39090000Y54762662D01*
X39090000Y54686137D01*
X39090001Y52699973D01*
X39090000Y50172031D01*
X37057826Y48139856D01*
X37057821Y48139852D01*
X34571938Y45653968D01*
X34571932Y45653964D01*
X34517816Y45599848D01*
X34458682Y45551318D01*
X34410153Y45492185D01*
X34356036Y45438068D01*
X34313518Y45374435D01*
X34264987Y45315300D01*
X34228923Y45247829D01*
X34186408Y45184200D01*
X34157121Y45113495D01*
X34121059Y45046028D01*
X34098853Y44972825D01*
X34069565Y44902118D01*
X34054635Y44827057D01*
X34032428Y44753852D01*
X34024929Y44677718D01*
X34010000Y44602662D01*
X34010000Y44526128D01*
X34002502Y44450000D01*
X32030000Y44450000D01*
X32030000Y46347970D01*
X34008065Y48326034D01*
X34008068Y48326036D01*
X34062184Y48380152D01*
X34121318Y48428682D01*
X34169848Y48487816D01*
X34223964Y48541932D01*
X34266481Y48605563D01*
X34315013Y48664700D01*
X34351078Y48732172D01*
X34393592Y48795800D01*
X34422877Y48866500D01*
X34458941Y48933971D01*
X34481148Y49007178D01*
X34510435Y49077882D01*
X34525365Y49152940D01*
X34547572Y49226147D01*
X34555071Y49302283D01*
X34570000Y49377338D01*
X34570000Y49453863D01*
X34577499Y49530000D01*
X34570000Y49606138D01*
X34570000Y53492662D01*
X34555071Y53567717D01*
X34547572Y53643853D01*
X34525365Y53717060D01*
X34510435Y53792118D01*
X34481148Y53862822D01*
X34458941Y53936029D01*
X34422877Y54003500D01*
X34393592Y54074200D01*
X34351078Y54137828D01*
X34315013Y54205300D01*
X34266481Y54264437D01*
X34223964Y54328068D01*
X34169848Y54382184D01*
X34121318Y54441318D01*
X34062185Y54489847D01*
X34008068Y54543964D01*
X33944433Y54586484D01*
X33885299Y54635013D01*
X33817832Y54671075D01*
X33754200Y54713592D01*
X33683495Y54742879D01*
X33616028Y54778941D01*
X33542825Y54801147D01*
X33472118Y54830435D01*
X33397057Y54845365D01*
X33323852Y54867572D01*
X33247718Y54875071D01*
X33172662Y54890000D01*
X33096138Y54890000D01*
X33020000Y54897499D01*
X32943862Y54890000D01*
X32867338Y54890000D01*
X32792283Y54875071D01*
X32716147Y54867572D01*
X32642940Y54845365D01*
X32567882Y54830435D01*
X32497178Y54801148D01*
X32423971Y54778941D01*
X32356500Y54742877D01*
X32285800Y54713592D01*
X32222172Y54671078D01*
X32154700Y54635013D01*
X32095563Y54586481D01*
X32031932Y54543964D01*
X31977816Y54489848D01*
X31918682Y54441318D01*
X31870153Y54382185D01*
X31816036Y54328068D01*
X31773516Y54264433D01*
X31750000Y54235778D01*
X31726481Y54264437D01*
X31683964Y54328068D01*
X31629848Y54382184D01*
X31581318Y54441318D01*
X31522184Y54489848D01*
X31468068Y54543964D01*
X31404437Y54586481D01*
X31375778Y54610000D01*
X31404437Y54633519D01*
X31468068Y54676036D01*
X31522184Y54730152D01*
X31581318Y54778682D01*
X31629848Y54837816D01*
X31683964Y54891932D01*
X31726481Y54955563D01*
X31775013Y55014700D01*
X31811078Y55082172D01*
X31853592Y55145800D01*
X31882877Y55216500D01*
X31918941Y55283971D01*
X31941148Y55357178D01*
X31970435Y55427882D01*
X31985365Y55502940D01*
X32007572Y55576147D01*
X32015071Y55652283D01*
X32030000Y55727338D01*
X32030000Y55803862D01*
X32037499Y55880000D01*
X32030000Y55956138D01*
X32030000Y56032662D01*
X32015071Y56107717D01*
X32007572Y56183853D01*
X31985365Y56257060D01*
X31970435Y56332118D01*
X31941148Y56402822D01*
X31918941Y56476029D01*
X31882877Y56543500D01*
X31853592Y56614200D01*
X31811078Y56677828D01*
X31775013Y56745300D01*
X31726481Y56804437D01*
X31683964Y56868068D01*
X31682032Y56870000D01*
X34442662Y56870000D01*
X34517717Y56884929D01*
X34593853Y56892428D01*
X34667060Y56914635D01*
X34742118Y56929565D01*
X34812822Y56958852D01*
X34886029Y56981059D01*
X34953500Y57017123D01*
X35024200Y57046408D01*
X35087828Y57088922D01*
X35155300Y57124987D01*
X35214437Y57173519D01*
X35278068Y57216036D01*
X35332184Y57270152D01*
X35391318Y57318682D01*
X35439848Y57377816D01*
X35493964Y57431932D01*
X35536481Y57495563D01*
X35585013Y57554700D01*
X35621078Y57622172D01*
X35663592Y57685800D01*
X35692877Y57756500D01*
X35728941Y57823971D01*
X35751148Y57897178D01*
X35780435Y57967882D01*
X35795365Y58042940D01*
X35817572Y58116147D01*
X35825071Y58192283D01*
X35840000Y58267338D01*
X35840000Y58343862D01*
X35847499Y58420000D01*
X35840000Y58496138D01*
X35840000Y58572662D01*
X35825071Y58647717D01*
X35817572Y58723853D01*
X35795365Y58797060D01*
X35780435Y58872118D01*
X35751148Y58942822D01*
X35728941Y59016029D01*
X35692877Y59083500D01*
X35663592Y59154200D01*
X35621078Y59217828D01*
X35585013Y59285300D01*
X35536481Y59344437D01*
X35493964Y59408068D01*
X35439848Y59462184D01*
X35391318Y59521318D01*
X35332184Y59569848D01*
X35278068Y59623964D01*
X35214437Y59666481D01*
X35155300Y59715013D01*
X35087828Y59751078D01*
X35024200Y59793592D01*
X34953500Y59822877D01*
X34886029Y59858941D01*
X34812822Y59881148D01*
X34742118Y59910435D01*
X34667060Y59925365D01*
X34593853Y59947572D01*
X34517717Y59955071D01*
X34442662Y59970000D01*
X30327338Y59970000D01*
X30252283Y59955071D01*
X30176147Y59947572D01*
X30102940Y59925365D01*
X30027882Y59910435D01*
X29957178Y59881148D01*
X29883971Y59858941D01*
X29816500Y59822877D01*
X29745800Y59793592D01*
X29682172Y59751078D01*
X29614700Y59715013D01*
X29555563Y59666481D01*
X29491932Y59623964D01*
X29437816Y59569848D01*
X29378682Y59521318D01*
X29330152Y59462184D01*
X29276036Y59408068D01*
X29233519Y59344437D01*
X29184987Y59285300D01*
X29148922Y59217828D01*
X29106408Y59154200D01*
X29077123Y59083500D01*
X29041059Y59016029D01*
X29018852Y58942822D01*
X28989565Y58872118D01*
X28974635Y58797060D01*
X28952428Y58723853D01*
X28944929Y58647717D01*
X28930000Y58572662D01*
X28930000Y58496138D01*
X28922501Y58420000D01*
X28930000Y58343862D01*
X28930000Y58267338D01*
X28944929Y58192283D01*
X28952428Y58116147D01*
X28974635Y58042940D01*
X28989565Y57967882D01*
X29018852Y57897178D01*
X29041059Y57823971D01*
X29077123Y57756500D01*
X29106408Y57685800D01*
X29148922Y57622172D01*
X29184987Y57554700D01*
X29233519Y57495563D01*
X29276036Y57431932D01*
X29277968Y57430000D01*
X25476138Y57430000D01*
X25400000Y57437499D01*
X25323862Y57430000D01*
X24062032Y57430000D01*
X24063964Y57431932D01*
X24106481Y57495563D01*
X24155013Y57554700D01*
X24191078Y57622172D01*
X24233592Y57685800D01*
X24262877Y57756500D01*
X24298941Y57823971D01*
X24321148Y57897178D01*
X24350435Y57967882D01*
X24365365Y58042940D01*
X24387572Y58116147D01*
X24395071Y58192283D01*
X24410000Y58267338D01*
X24410000Y58343862D01*
X24417499Y58420000D01*
X24410000Y58496138D01*
X24410000Y58572662D01*
X24395071Y58647717D01*
X24387572Y58723853D01*
X24365365Y58797060D01*
X24350435Y58872118D01*
X24321148Y58942822D01*
X24298941Y59016029D01*
X24262877Y59083500D01*
X24233592Y59154200D01*
X24191078Y59217828D01*
X24155013Y59285300D01*
X24106481Y59344437D01*
X24063964Y59408068D01*
X24009848Y59462184D01*
X23961318Y59521318D01*
X23902184Y59569848D01*
X23848068Y59623964D01*
X23784437Y59666481D01*
X23725300Y59715013D01*
X23657828Y59751078D01*
X23594200Y59793592D01*
X23523500Y59822877D01*
X23456029Y59858941D01*
X23382822Y59881148D01*
X23312118Y59910435D01*
X23237060Y59925365D01*
X23163853Y59947572D01*
X23087717Y59955071D01*
X23012662Y59970000D01*
X14833338Y59970000D01*
X14758283Y59955071D01*
X14682147Y59947572D01*
X14608940Y59925365D01*
X14533882Y59910435D01*
X14463178Y59881148D01*
X14389971Y59858941D01*
X14322500Y59822877D01*
X14251800Y59793592D01*
X14188172Y59751078D01*
X14120700Y59715013D01*
X14061563Y59666481D01*
X13997932Y59623964D01*
X13943816Y59569848D01*
X13884682Y59521318D01*
X13836152Y59462184D01*
X13782036Y59408068D01*
X13739519Y59344437D01*
X13690987Y59285300D01*
X13654922Y59217828D01*
X13612408Y59154200D01*
X13583123Y59083500D01*
X13547059Y59016029D01*
X13524852Y58942822D01*
X13495565Y58872118D01*
X13480635Y58797060D01*
X13458428Y58723853D01*
X13450929Y58647717D01*
X13436000Y58572662D01*
X13436000Y58496138D01*
X13428501Y58420000D01*
X13436000Y58343862D01*
X13436000Y58267338D01*
X13450929Y58192283D01*
X13458428Y58116147D01*
X13480635Y58042940D01*
X13495565Y57967882D01*
X13524852Y57897178D01*
X13547059Y57823971D01*
X13583123Y57756500D01*
X13612408Y57685800D01*
X13654922Y57622172D01*
X13690987Y57554700D01*
X13739519Y57495563D01*
X13782036Y57431932D01*
X13783968Y57430000D01*
X4927338Y57430000D01*
X4852283Y57415071D01*
X4776147Y57407572D01*
X4702940Y57385365D01*
X4627882Y57370435D01*
X4557178Y57341148D01*
X4483971Y57318941D01*
X4416500Y57282877D01*
X4345800Y57253592D01*
X4282172Y57211078D01*
X4214700Y57175013D01*
X4155563Y57126481D01*
X4091932Y57083964D01*
X4037816Y57029848D01*
X3978682Y56981318D01*
X3930152Y56922184D01*
X3876036Y56868068D01*
X3833519Y56804437D01*
X3784987Y56745300D01*
X3748922Y56677828D01*
X3706408Y56614200D01*
X3677123Y56543500D01*
X3641059Y56476029D01*
X3618852Y56402822D01*
X3589565Y56332118D01*
X3574635Y56257060D01*
X3552428Y56183853D01*
X3544929Y56107717D01*
X3530000Y56032662D01*
X3530000Y55956138D01*
X3522501Y55880000D01*
X3530000Y55803862D01*
X3530000Y55727338D01*
X3544929Y55652283D01*
X3552428Y55576147D01*
X3574635Y55502940D01*
X3589565Y55427882D01*
X3618852Y55357178D01*
X3641059Y55283971D01*
X3677123Y55216500D01*
X3706408Y55145800D01*
X3748922Y55082172D01*
X3784987Y55014700D01*
X3833519Y54955563D01*
X3876036Y54891932D01*
X3930152Y54837816D01*
X3978682Y54778682D01*
X4037816Y54730152D01*
X4091932Y54676036D01*
X4155563Y54633519D01*
X4184222Y54610000D01*
X4155563Y54586481D01*
X4091932Y54543964D01*
X4037816Y54489848D01*
X3978682Y54441318D01*
X3930152Y54382184D01*
X3876036Y54328068D01*
X3833519Y54264437D01*
X3784987Y54205300D01*
X3748922Y54137828D01*
X3706408Y54074200D01*
X3677123Y54003500D01*
X3641059Y53936029D01*
X3618852Y53862822D01*
X3589565Y53792118D01*
X3574635Y53717060D01*
X3552428Y53643853D01*
X3544929Y53567717D01*
X3530000Y53492662D01*
X3530000Y53416138D01*
X3522501Y53340000D01*
X3530000Y53263862D01*
X3530000Y53187338D01*
X3544929Y53112283D01*
X3552428Y53036147D01*
X3574635Y52962940D01*
X3589565Y52887882D01*
X3618852Y52817178D01*
X3641059Y52743971D01*
X3677123Y52676500D01*
X3706408Y52605800D01*
X3748922Y52542172D01*
X3784987Y52474700D01*
X3833519Y52415563D01*
X3876036Y52351932D01*
X3930152Y52297816D01*
X3978682Y52238682D01*
X4037816Y52190152D01*
X4091932Y52136036D01*
X4155563Y52093519D01*
X4214700Y52044987D01*
X4282172Y52008922D01*
X4345800Y51966408D01*
X4416500Y51937123D01*
X4483971Y51901059D01*
X4557178Y51878852D01*
X4627882Y51849565D01*
X4702940Y51834635D01*
X4776147Y51812428D01*
X4852283Y51804929D01*
X4927338Y51790000D01*
X9517970Y51790000D01*
X11150001Y50157968D01*
X11150000Y40673185D01*
X11097818Y40701078D01*
X11034190Y40743592D01*
X10963490Y40772877D01*
X10896019Y40808941D01*
X10822812Y40831148D01*
X10752108Y40860435D01*
X10677050Y40875365D01*
X10603843Y40897572D01*
X10527707Y40905071D01*
X10452652Y40920000D01*
X6197338Y40920000D01*
X6122283Y40905071D01*
X6046147Y40897572D01*
X5972940Y40875365D01*
X5897882Y40860435D01*
X5827178Y40831148D01*
X5753971Y40808941D01*
X5686500Y40772877D01*
X5615800Y40743592D01*
X5552172Y40701078D01*
X5484700Y40665013D01*
X5425563Y40616481D01*
X5361932Y40573964D01*
X5307816Y40519848D01*
X5248682Y40471318D01*
X5200152Y40412184D01*
X5146036Y40358068D01*
X5103519Y40294437D01*
X5054987Y40235300D01*
X5018922Y40167828D01*
X4976408Y40104200D01*
X4947123Y40033500D01*
X4911059Y39966029D01*
X4888852Y39892822D01*
X4859565Y39822118D01*
X4844635Y39747060D01*
X4822428Y39673853D01*
X4814929Y39597717D01*
X4800000Y39522662D01*
X4800000Y39446138D01*
X4792501Y39370000D01*
X4800000Y39293862D01*
X4800000Y39217338D01*
X4814929Y39142283D01*
X4822428Y39066147D01*
X4844635Y38992940D01*
X4859565Y38917882D01*
X4888852Y38847178D01*
X4911059Y38773971D01*
X4947123Y38706500D01*
X4976408Y38635800D01*
X5018922Y38572172D01*
X5054987Y38504700D01*
X5103519Y38445563D01*
X5146036Y38381932D01*
X5200152Y38327816D01*
X5248682Y38268682D01*
X5307816Y38220152D01*
X5361932Y38166036D01*
X5425563Y38123519D01*
X5454222Y38100000D01*
X5425563Y38076481D01*
X5361932Y38033964D01*
X5307816Y37979848D01*
X5248682Y37931318D01*
X5200152Y37872184D01*
X5146036Y37818068D01*
X5103519Y37754437D01*
X5054987Y37695300D01*
X5018922Y37627828D01*
X4976408Y37564200D01*
X4947123Y37493500D01*
X4911059Y37426029D01*
X4888852Y37352822D01*
X4859565Y37282118D01*
X4844635Y37207060D01*
X4822428Y37133853D01*
X4814929Y37057717D01*
X4800000Y36982662D01*
X4800000Y36906138D01*
X4792501Y36830000D01*
X4800000Y36753862D01*
X4800000Y36677338D01*
X4814929Y36602283D01*
X4822428Y36526147D01*
X4844635Y36452940D01*
X4859565Y36377882D01*
X4888852Y36307178D01*
X4911059Y36233971D01*
X4947123Y36166500D01*
X4976408Y36095800D01*
X5018922Y36032172D01*
X5054987Y35964700D01*
X5103519Y35905563D01*
X5146036Y35841932D01*
X5200152Y35787816D01*
X5248682Y35728682D01*
X5307816Y35680152D01*
X5361932Y35626036D01*
X5425563Y35583519D01*
X5454222Y35560000D01*
X5425569Y35536484D01*
X5361932Y35493964D01*
X5307812Y35439844D01*
X5248683Y35391318D01*
X5200157Y35332189D01*
X5146036Y35278068D01*
X5103515Y35214430D01*
X5054988Y35155300D01*
X5018927Y35087835D01*
X4976408Y35024200D01*
X4947119Y34953492D01*
X4911060Y34886029D01*
X4888856Y34812831D01*
X4859565Y34742118D01*
X4844633Y34667050D01*
X4822429Y34593853D01*
X4814931Y34517727D01*
X4800000Y34442662D01*
X4800000Y34137338D01*
X4800001Y34137333D01*
X4800000Y29852031D01*
X2821938Y27873968D01*
X2821932Y27873964D01*
X2606036Y27658068D01*
X2563518Y27594435D01*
X2514987Y27535300D01*
X2478923Y27467829D01*
X2436408Y27404200D01*
X2407121Y27333497D01*
X2371059Y27266028D01*
X2348854Y27192827D01*
X2319565Y27122118D01*
X2304633Y27047050D01*
X2282429Y26973852D01*
X2274931Y26897728D01*
X2260000Y26822662D01*
X2260000Y26746128D01*
X2252502Y26670000D01*
X475000Y26670000D01*
X475000Y66040000D01*
X3522501Y66040000D01*
X3530000Y65963862D01*
X3530000Y65887338D01*
X3544929Y65812283D01*
X3552428Y65736147D01*
X3574635Y65662940D01*
X3589565Y65587882D01*
X3618852Y65517178D01*
X3641059Y65443971D01*
X3677123Y65376500D01*
X3706408Y65305800D01*
X3748922Y65242172D01*
X3784987Y65174700D01*
X3833519Y65115563D01*
X3876036Y65051932D01*
X3930152Y64997816D01*
X3978682Y64938682D01*
X4037816Y64890152D01*
X4091932Y64836036D01*
X4155563Y64793519D01*
X4184222Y64770000D01*
X4155563Y64746481D01*
X4091932Y64703964D01*
X4037816Y64649848D01*
X3978682Y64601318D01*
X3930152Y64542184D01*
X3876036Y64488068D01*
X3833519Y64424437D01*
X3784987Y64365300D01*
X3748922Y64297828D01*
X3706408Y64234200D01*
X3677123Y64163500D01*
X3641059Y64096029D01*
X3618852Y64022822D01*
X3589565Y63952118D01*
X3574635Y63877060D01*
X3552428Y63803853D01*
X3544929Y63727717D01*
X3530000Y63652662D01*
X3530000Y63576138D01*
X3522501Y63500000D01*
X3530000Y63423862D01*
X3530000Y63347338D01*
X3544929Y63272283D01*
X3552428Y63196147D01*
X3574635Y63122940D01*
X3589565Y63047882D01*
X3618852Y62977178D01*
X3641059Y62903971D01*
X3677123Y62836500D01*
X3706408Y62765800D01*
X3748922Y62702172D01*
X3784987Y62634700D01*
X3833519Y62575563D01*
X3876036Y62511932D01*
X3930152Y62457816D01*
X3978682Y62398682D01*
X4037816Y62350152D01*
X4091932Y62296036D01*
X4155563Y62253519D01*
X4214700Y62204987D01*
X4282172Y62168922D01*
X4345800Y62126408D01*
X4416500Y62097123D01*
X4483971Y62061059D01*
X4557178Y62038852D01*
X4627882Y62009565D01*
X4702940Y61994635D01*
X4776147Y61972428D01*
X4852283Y61964929D01*
X4927338Y61950000D01*
X10312662Y61950000D01*
X10387717Y61964929D01*
X10463853Y61972428D01*
X10537060Y61994635D01*
X10612118Y62009565D01*
X10682822Y62038852D01*
X10756029Y62061059D01*
X10823500Y62097123D01*
X10894200Y62126408D01*
X10957828Y62168922D01*
X11025300Y62204987D01*
X11084437Y62253519D01*
X11148068Y62296036D01*
X11202184Y62350152D01*
X11261318Y62398682D01*
X11309848Y62457816D01*
X11363964Y62511932D01*
X11406481Y62575563D01*
X11455013Y62634700D01*
X11491078Y62702172D01*
X11533592Y62765800D01*
X11562877Y62836500D01*
X11598941Y62903971D01*
X11621148Y62977178D01*
X11650435Y63047882D01*
X11665365Y63122940D01*
X11687572Y63196147D01*
X11695071Y63272283D01*
X11710000Y63347338D01*
X11710000Y63423862D01*
X11717499Y63500000D01*
X11710000Y63576138D01*
X11710000Y63652662D01*
X11695071Y63727717D01*
X11687572Y63803853D01*
X11665365Y63877060D01*
X11650435Y63952118D01*
X11621148Y64022822D01*
X11598941Y64096029D01*
X11562877Y64163500D01*
X11533592Y64234200D01*
X11491078Y64297828D01*
X11455013Y64365300D01*
X11406481Y64424437D01*
X11363964Y64488068D01*
X11362032Y64490000D01*
X23012662Y64490000D01*
X23087717Y64504929D01*
X23163853Y64512428D01*
X23237060Y64534635D01*
X23312118Y64549565D01*
X23382822Y64578852D01*
X23456029Y64601059D01*
X23523500Y64637123D01*
X23594200Y64666408D01*
X23657828Y64708922D01*
X23725300Y64744987D01*
X23784437Y64793519D01*
X23848068Y64836036D01*
X23902184Y64890152D01*
X23961318Y64938682D01*
X24009848Y64997816D01*
X24063964Y65051932D01*
X24106481Y65115563D01*
X24155013Y65174700D01*
X24191078Y65242172D01*
X24233592Y65305800D01*
X24262877Y65376500D01*
X24298941Y65443971D01*
X24321148Y65517178D01*
X24350435Y65587882D01*
X24365365Y65662940D01*
X24387572Y65736147D01*
X24395071Y65812283D01*
X24410000Y65887338D01*
X24410000Y65963862D01*
X24417499Y66040000D01*
X24410000Y66116138D01*
X24410000Y66192662D01*
X24395071Y66267717D01*
X24387572Y66343853D01*
X24365365Y66417060D01*
X24350435Y66492118D01*
X24321148Y66562822D01*
X24298941Y66636029D01*
X24262877Y66703500D01*
X24233592Y66774200D01*
X24191078Y66837828D01*
X24155013Y66905300D01*
X24106481Y66964437D01*
X24063964Y67028068D01*
X24062032Y67030000D01*
X29277968Y67030000D01*
X29276036Y67028068D01*
X29233519Y66964437D01*
X29184987Y66905300D01*
X29148922Y66837828D01*
X29106408Y66774200D01*
X29077123Y66703500D01*
X29041059Y66636029D01*
X29018852Y66562822D01*
X28989565Y66492118D01*
X28974635Y66417060D01*
X28952428Y66343853D01*
X28944929Y66267717D01*
X28930000Y66192662D01*
X28930000Y66116138D01*
X28922501Y66040000D01*
X28930000Y65963862D01*
X28930000Y65887338D01*
X28944929Y65812283D01*
X28952428Y65736147D01*
X28974635Y65662940D01*
X28989565Y65587882D01*
X29018852Y65517178D01*
X29041059Y65443971D01*
X29077123Y65376500D01*
X29106408Y65305800D01*
X29148922Y65242172D01*
X29184987Y65174700D01*
X29233519Y65115563D01*
X29276036Y65051932D01*
X29330152Y64997816D01*
X29378682Y64938682D01*
X29437816Y64890152D01*
X29491932Y64836036D01*
X29555563Y64793519D01*
X29614700Y64744987D01*
X29682172Y64708922D01*
X29745800Y64666408D01*
X29816500Y64637123D01*
X29883971Y64601059D01*
X29957178Y64578852D01*
X30027882Y64549565D01*
X30102940Y64534635D01*
X30176147Y64512428D01*
X30252283Y64504929D01*
X30327338Y64490000D01*
X31959506Y64490000D01*
X32035634Y64482502D01*
X32111762Y64490000D01*
X32111772Y64490000D01*
X32339487Y64512428D01*
X32631663Y64601059D01*
X32740000Y64658966D01*
X32740000Y64617338D01*
X32754929Y64542283D01*
X32762428Y64466147D01*
X32784635Y64392940D01*
X32799565Y64317882D01*
X32828852Y64247178D01*
X32851059Y64173971D01*
X32887123Y64106500D01*
X32916408Y64035800D01*
X32958922Y63972172D01*
X32994987Y63904700D01*
X33043519Y63845563D01*
X33086036Y63781932D01*
X33140152Y63727816D01*
X33188682Y63668682D01*
X33247816Y63620152D01*
X33301932Y63566036D01*
X33365563Y63523519D01*
X33424700Y63474987D01*
X33492172Y63438922D01*
X33555800Y63396408D01*
X33626500Y63367123D01*
X33693971Y63331059D01*
X33767178Y63308852D01*
X33837882Y63279565D01*
X33912940Y63264635D01*
X33986147Y63242428D01*
X34062283Y63234929D01*
X34137338Y63220000D01*
X34213872Y63220000D01*
X34290000Y63212502D01*
X34366128Y63220000D01*
X34442662Y63220000D01*
X34517717Y63234929D01*
X34593853Y63242428D01*
X34667060Y63264635D01*
X34742118Y63279565D01*
X34812822Y63308852D01*
X34886029Y63331059D01*
X34953500Y63367123D01*
X35024200Y63396408D01*
X35087828Y63438922D01*
X35155300Y63474987D01*
X35214437Y63523519D01*
X35278068Y63566036D01*
X35332184Y63620152D01*
X35391318Y63668682D01*
X35439848Y63727816D01*
X35493964Y63781932D01*
X35493968Y63781938D01*
X37818065Y66106034D01*
X37818068Y66106036D01*
X38033964Y66321932D01*
X38076482Y66385565D01*
X38125012Y66444699D01*
X38161075Y66512169D01*
X38203592Y66575800D01*
X38232879Y66646504D01*
X38268940Y66713970D01*
X38291145Y66787171D01*
X38320435Y66857882D01*
X38335366Y66932947D01*
X38357571Y67006146D01*
X38365069Y67082274D01*
X38380000Y67157338D01*
X38380000Y67233871D01*
X38387498Y67309999D01*
X38380000Y67386127D01*
X38380000Y67462662D01*
X38365069Y67537728D01*
X38357571Y67613852D01*
X38335367Y67687047D01*
X38320435Y67762118D01*
X38291143Y67832834D01*
X38268940Y67906028D01*
X38232882Y67973487D01*
X38203592Y68044200D01*
X38161070Y68107839D01*
X38125012Y68175299D01*
X38076489Y68234425D01*
X38033964Y68298068D01*
X37979838Y68352194D01*
X37931317Y68411317D01*
X37872194Y68459838D01*
X37818068Y68513964D01*
X37754425Y68556489D01*
X37725777Y68579999D01*
X37754437Y68603519D01*
X37818068Y68646036D01*
X37872184Y68700152D01*
X37931318Y68748682D01*
X37979848Y68807816D01*
X38033964Y68861932D01*
X38076481Y68925563D01*
X38125013Y68984700D01*
X38161078Y69052172D01*
X38203592Y69115800D01*
X38232877Y69186500D01*
X38268941Y69253971D01*
X38291148Y69327178D01*
X38320435Y69397882D01*
X38335365Y69472940D01*
X38357572Y69546147D01*
X38365071Y69622283D01*
X38380000Y69697338D01*
X38380000Y69773862D01*
X38387499Y69850000D01*
X38380000Y69926138D01*
X38380000Y70002662D01*
X38365071Y70077717D01*
X38357572Y70153853D01*
X38335365Y70227060D01*
X38320435Y70302118D01*
X38291148Y70372822D01*
X38268941Y70446029D01*
X38232877Y70513500D01*
X38203592Y70584200D01*
X38161078Y70647828D01*
X38125013Y70715300D01*
X38076481Y70774437D01*
X38033964Y70838068D01*
X38032032Y70840000D01*
X44602662Y70840000D01*
X44677717Y70854929D01*
X44753853Y70862428D01*
X44827060Y70884635D01*
X44902118Y70899565D01*
X44972822Y70928852D01*
X45046029Y70951059D01*
X45113500Y70987123D01*
X45184200Y71016408D01*
X45247828Y71058922D01*
X45315300Y71094987D01*
X45374437Y71143519D01*
X45438068Y71186036D01*
X45492184Y71240152D01*
X45551318Y71288682D01*
X45599848Y71347816D01*
X45653964Y71401932D01*
X45696481Y71465563D01*
X45722409Y71497157D01*
X45786036Y71401932D01*
X45790000Y71397968D01*
X45790001Y67045056D01*
X45403150Y66658206D01*
X45357356Y66620624D01*
X45319778Y66574834D01*
X45207399Y66437900D01*
X45132393Y66297572D01*
X45095971Y66229431D01*
X45027353Y66003230D01*
X45024471Y65973964D01*
X45004184Y65767990D01*
X45009990Y65709043D01*
X45009991Y56075346D01*
X44623140Y55688496D01*
X44577346Y55650914D01*
X44517746Y55578290D01*
X44427389Y55468190D01*
X44328923Y55283972D01*
X44315961Y55259721D01*
X44247343Y55033520D01*
X44233946Y54897498D01*
X44224174Y54798280D01*
X44229980Y54739333D01*
X44229981Y45927037D01*
X44133151Y45830207D01*
X44133145Y45830202D01*
X41501486Y43198543D01*
X41374200Y43283592D01*
X41092118Y43400435D01*
X40792662Y43460000D01*
X40487338Y43460000D01*
X40187882Y43400435D01*
X39905800Y43283592D01*
X39651932Y43113964D01*
X39436036Y42898068D01*
X39266408Y42644200D01*
X39149565Y42362118D01*
X39090000Y42062662D01*
X39090000Y41757338D01*
X39149565Y41457882D01*
X39266408Y41175800D01*
X39436036Y40921932D01*
X39651932Y40706036D01*
X39750763Y40640000D01*
X39651932Y40573964D01*
X39436036Y40358068D01*
X39266408Y40104200D01*
X39149565Y39822118D01*
X39090000Y39522662D01*
X39090000Y39217338D01*
X39149565Y38917882D01*
X39266408Y38635800D01*
X39436036Y38381932D01*
X39651932Y38166036D01*
X39750763Y38100000D01*
X39651932Y38033964D01*
X39436036Y37818068D01*
X39266408Y37564200D01*
X39149565Y37282118D01*
X39090000Y36982662D01*
X39090000Y36677338D01*
X39149565Y36377882D01*
X39266408Y36095800D01*
X39436036Y35841932D01*
X39651932Y35626036D01*
X39750763Y35560000D01*
X39651932Y35493964D01*
X39436036Y35278068D01*
X39266408Y35024200D01*
X39149565Y34742118D01*
X39090000Y34442662D01*
X39090000Y34137338D01*
X39149565Y33837882D01*
X39266408Y33555800D01*
X39436036Y33301932D01*
X39651932Y33086036D01*
X39750763Y33020000D01*
X39651932Y32953964D01*
X39436036Y32738068D01*
X39266408Y32484200D01*
X39149565Y32202118D01*
X39090000Y31902662D01*
X39090000Y31597338D01*
X39149565Y31297882D01*
X39266408Y31015800D01*
X39436036Y30761932D01*
X39651932Y30546036D01*
X39750763Y30480000D01*
X39651932Y30413964D01*
X39436036Y30198068D01*
X39266408Y29944200D01*
X39149565Y29662118D01*
X39090000Y29362662D01*
X39090000Y29057338D01*
X39149565Y28757882D01*
X39266408Y28475800D01*
X39436036Y28221932D01*
X39651932Y28006036D01*
X39750763Y27940000D01*
X39651932Y27873964D01*
X39436036Y27658068D01*
X39266408Y27404200D01*
X39149565Y27122118D01*
X39090000Y26822662D01*
X39090000Y26517338D01*
X39149565Y26217882D01*
X39266408Y25935800D01*
X39436036Y25681932D01*
X39651932Y25466036D01*
X39750763Y25400000D01*
X39651932Y25333964D01*
X39436036Y25118068D01*
X39266408Y24864200D01*
X39149565Y24582118D01*
X39090000Y24282662D01*
X39090000Y23977338D01*
X39149565Y23677882D01*
X39266408Y23395800D01*
X39436036Y23141932D01*
X39651932Y22926036D01*
X39750763Y22860000D01*
X39651932Y22793964D01*
X39436036Y22578068D01*
X39266408Y22324200D01*
X39149565Y22042118D01*
X39090000Y21742662D01*
X39090000Y21437338D01*
X39149565Y21137882D01*
X39266408Y20855800D01*
X39436036Y20601932D01*
X39651932Y20386036D01*
X39750763Y20320000D01*
X39651932Y20253964D01*
X39436036Y20038068D01*
X39266408Y19784200D01*
X39149565Y19502118D01*
X39090000Y19202662D01*
X39090000Y18897338D01*
X39149565Y18597882D01*
X39266408Y18315800D01*
X39436036Y18061932D01*
X39651932Y17846036D01*
X39750763Y17780000D01*
X39651932Y17713964D01*
X39436036Y17498068D01*
X39266408Y17244200D01*
X39149565Y16962118D01*
X39090000Y16662662D01*
X39090000Y16357338D01*
X39149565Y16057882D01*
X39266408Y15775800D01*
X39436036Y15521932D01*
X39651932Y15306036D01*
X39750763Y15240000D01*
X39651932Y15173964D01*
X39436036Y14958068D01*
X39266408Y14704200D01*
X39149565Y14422118D01*
X39090000Y14122662D01*
X39090000Y13817338D01*
X39149565Y13517882D01*
X39266408Y13235800D01*
X39436036Y12981932D01*
X39651932Y12766036D01*
X39750763Y12700000D01*
X39651932Y12633964D01*
X39436036Y12418068D01*
X39266408Y12164200D01*
X39149565Y11882118D01*
X39090000Y11582662D01*
X39090000Y11277338D01*
X39149565Y10977882D01*
X39266408Y10695800D01*
X39436036Y10441932D01*
X39651932Y10226036D01*
X39905800Y10056408D01*
X40187882Y9939565D01*
X40487338Y9880000D01*
X40792662Y9880000D01*
X41092118Y9939565D01*
X41374200Y10056408D01*
X41628068Y10226036D01*
X41843964Y10441932D01*
X42013592Y10695800D01*
X42130435Y10977882D01*
X42190000Y11277338D01*
X42190000Y11582662D01*
X42130435Y11882118D01*
X42013592Y12164200D01*
X41843964Y12418068D01*
X41628068Y12633964D01*
X41529237Y12700000D01*
X41628068Y12766036D01*
X41843964Y12981932D01*
X42013592Y13235800D01*
X42130435Y13517882D01*
X42190000Y13817338D01*
X42190000Y14122662D01*
X42130435Y14422118D01*
X42013592Y14704200D01*
X41843964Y14958068D01*
X41628068Y15173964D01*
X41529237Y15240000D01*
X41628068Y15306036D01*
X41843964Y15521932D01*
X42013592Y15775800D01*
X42130435Y16057882D01*
X42190000Y16357338D01*
X42190000Y16662662D01*
X42130435Y16962118D01*
X42013592Y17244200D01*
X41843964Y17498068D01*
X41628068Y17713964D01*
X41529237Y17780000D01*
X41628068Y17846036D01*
X41843964Y18061932D01*
X42013592Y18315800D01*
X42023616Y18339999D01*
X42490863Y18339999D01*
X42549810Y18334193D01*
X42608757Y18339999D01*
X42608760Y18339999D01*
X42785051Y18357362D01*
X43011252Y18425980D01*
X43219720Y18537408D01*
X43402444Y18687365D01*
X43440026Y18733159D01*
X45196851Y20489984D01*
X45242645Y20527566D01*
X45392602Y20710290D01*
X45504030Y20918758D01*
X45572648Y21144959D01*
X45590011Y21321250D01*
X45590011Y21321252D01*
X45595817Y21380199D01*
X45590011Y21439146D01*
X45590011Y26871907D01*
X55100000Y26871907D01*
X55100000Y26468093D01*
X55178780Y26072037D01*
X55333314Y25698961D01*
X55557661Y25363201D01*
X55843201Y25077661D01*
X56178961Y24853314D01*
X56552037Y24698780D01*
X56948093Y24620000D01*
X57351907Y24620000D01*
X57747963Y24698780D01*
X58121039Y24853314D01*
X58456799Y25077661D01*
X58742339Y25363201D01*
X58966686Y25698961D01*
X59121220Y26072037D01*
X59200000Y26468093D01*
X59200000Y26871907D01*
X59121220Y27267963D01*
X58966686Y27641039D01*
X58742339Y27976799D01*
X58456799Y28262339D01*
X58121039Y28486686D01*
X57747963Y28641220D01*
X57351907Y28720000D01*
X56948093Y28720000D01*
X56552037Y28641220D01*
X56178961Y28486686D01*
X55843201Y28262339D01*
X55557661Y27976799D01*
X55333314Y27641039D01*
X55178780Y27267963D01*
X55100000Y26871907D01*
X45590011Y26871907D01*
X45590011Y28924601D01*
X47386860Y30721450D01*
X47432654Y30759032D01*
X47582611Y30941756D01*
X47694039Y31150224D01*
X47762657Y31376425D01*
X47780020Y31552716D01*
X47780020Y31552718D01*
X47785826Y31611665D01*
X47780020Y31670612D01*
X47780020Y34360000D01*
X55382944Y34360000D01*
X55668721Y34074223D01*
X55659565Y34052118D01*
X55600000Y33752662D01*
X55600000Y33644372D01*
X55382949Y33734277D01*
X55102813Y33790000D01*
X54817187Y33790000D01*
X54660000Y33758733D01*
X54502813Y33790000D01*
X54217187Y33790000D01*
X53937051Y33734277D01*
X53673167Y33624973D01*
X53435679Y33466289D01*
X53233711Y33264321D01*
X53075027Y33026833D01*
X52965723Y32762949D01*
X52910000Y32482813D01*
X52910000Y32197187D01*
X52965723Y31917051D01*
X53075027Y31653167D01*
X53233711Y31415679D01*
X53435679Y31213711D01*
X53673167Y31055027D01*
X53937051Y30945723D01*
X54217187Y30890000D01*
X54502813Y30890000D01*
X54660000Y30921267D01*
X54817187Y30890000D01*
X55102813Y30890000D01*
X55382949Y30945723D01*
X55646833Y31055027D01*
X55884321Y31213711D01*
X56086289Y31415679D01*
X56244973Y31653167D01*
X56354277Y31917051D01*
X56410000Y32197187D01*
X56410000Y32230283D01*
X56415800Y32226408D01*
X56697882Y32109565D01*
X56997338Y32050000D01*
X57302662Y32050000D01*
X57602118Y32109565D01*
X57884200Y32226408D01*
X58138068Y32396036D01*
X58353964Y32611932D01*
X58523592Y32865800D01*
X58640435Y33147882D01*
X58700000Y33447338D01*
X58700000Y33752662D01*
X58640435Y34052118D01*
X58523592Y34334200D01*
X58353964Y34588068D01*
X58295992Y34646040D01*
X58264018Y34751442D01*
X58152590Y34959911D01*
X58040211Y35096845D01*
X56770216Y36366840D01*
X56732634Y36412634D01*
X56549910Y36562591D01*
X56341442Y36674019D01*
X56115241Y36742637D01*
X55938950Y36760000D01*
X55938947Y36760000D01*
X55880000Y36765806D01*
X55821053Y36760000D01*
X46794946Y36760000D01*
X46735999Y36765806D01*
X46677052Y36760000D01*
X46677050Y36760000D01*
X46500759Y36742637D01*
X46274558Y36674019D01*
X46080010Y36570031D01*
X46080010Y37170424D01*
X49619586Y40710000D01*
X53854299Y40710000D01*
X53673167Y40634973D01*
X53435679Y40476289D01*
X53233711Y40274321D01*
X53075027Y40036833D01*
X52965723Y39772949D01*
X52910000Y39492813D01*
X52910000Y39207187D01*
X52965723Y38927051D01*
X53075027Y38663167D01*
X53233711Y38425679D01*
X53435679Y38223711D01*
X53673167Y38065027D01*
X53937051Y37955723D01*
X54217187Y37900000D01*
X54502813Y37900000D01*
X54660000Y37931267D01*
X54817187Y37900000D01*
X55102813Y37900000D01*
X55382949Y37955723D01*
X55646833Y38065027D01*
X55884321Y38223711D01*
X56086289Y38425679D01*
X56244973Y38663167D01*
X56354277Y38927051D01*
X56410000Y39207187D01*
X56410000Y39492813D01*
X56354277Y39772949D01*
X56244973Y40036833D01*
X56086289Y40274321D01*
X55884321Y40476289D01*
X55646833Y40634973D01*
X55454992Y40714436D01*
X55586243Y40727363D01*
X55812444Y40795981D01*
X56020912Y40907409D01*
X56203636Y41057366D01*
X56241218Y41103160D01*
X57956840Y42818782D01*
X58002634Y42856364D01*
X58152591Y43039088D01*
X58264019Y43247556D01*
X58332637Y43473757D01*
X58350000Y43650048D01*
X58350000Y43650050D01*
X58355806Y43708997D01*
X58350000Y43767944D01*
X58350000Y44672968D01*
X58353964Y44676932D01*
X58523592Y44930800D01*
X58640435Y45212882D01*
X58700000Y45512338D01*
X58700000Y45817662D01*
X58640435Y46117118D01*
X58523592Y46399200D01*
X58353964Y46653068D01*
X58138068Y46868964D01*
X57884200Y47038592D01*
X57602118Y47155435D01*
X57302662Y47215000D01*
X56997338Y47215000D01*
X56697882Y47155435D01*
X56415800Y47038592D01*
X56161932Y46868964D01*
X55946036Y46653068D01*
X55776408Y46399200D01*
X55659565Y46117118D01*
X55600000Y45817662D01*
X55600000Y45709372D01*
X55382949Y45799277D01*
X55102813Y45855000D01*
X54817187Y45855000D01*
X54660000Y45823733D01*
X54502813Y45855000D01*
X54217187Y45855000D01*
X53937051Y45799277D01*
X53673167Y45689973D01*
X53435679Y45531289D01*
X53233711Y45329321D01*
X53075027Y45091833D01*
X52965723Y44827949D01*
X52910000Y44547813D01*
X52910000Y44262187D01*
X52965723Y43982051D01*
X53075027Y43718167D01*
X53233711Y43480679D01*
X53435679Y43278711D01*
X53673167Y43120027D01*
X53697374Y43110000D01*
X49615410Y43110000D01*
X52036850Y45531440D01*
X52082644Y45569022D01*
X52232601Y45751746D01*
X52344029Y45960214D01*
X52412647Y46186415D01*
X52430010Y46362706D01*
X52430010Y46362708D01*
X52435816Y46421655D01*
X52430010Y46480602D01*
X52430010Y51557813D01*
X52910000Y51557813D01*
X52910000Y51272187D01*
X52965723Y50992051D01*
X53075027Y50728167D01*
X53233711Y50490679D01*
X53435679Y50288711D01*
X53673167Y50130027D01*
X53937051Y50020723D01*
X54217187Y49965000D01*
X54502813Y49965000D01*
X54660000Y49996267D01*
X54817187Y49965000D01*
X55102813Y49965000D01*
X55382949Y50020723D01*
X55646833Y50130027D01*
X55884321Y50288711D01*
X56086289Y50490679D01*
X56244973Y50728167D01*
X56354277Y50992051D01*
X56410000Y51272187D01*
X56410000Y51557813D01*
X56354277Y51837949D01*
X56244973Y52101833D01*
X56086289Y52339321D01*
X55884321Y52541289D01*
X55646833Y52699973D01*
X55382949Y52809277D01*
X55102813Y52865000D01*
X54817187Y52865000D01*
X54660000Y52833733D01*
X54502813Y52865000D01*
X54217187Y52865000D01*
X53937051Y52809277D01*
X53673167Y52699973D01*
X53435679Y52541289D01*
X53233711Y52339321D01*
X53075027Y52101833D01*
X52965723Y51837949D01*
X52910000Y51557813D01*
X52430010Y51557813D01*
X52430010Y51898776D01*
X54431225Y53899990D01*
X55072677Y53899990D01*
X55131624Y53894184D01*
X55190571Y53899990D01*
X55190574Y53899990D01*
X55366865Y53917353D01*
X55593066Y53985971D01*
X55801534Y54097399D01*
X55984258Y54247356D01*
X56021840Y54293150D01*
X56686835Y54958146D01*
X56732634Y54995732D01*
X56882591Y55178456D01*
X56994019Y55386924D01*
X57062637Y55613125D01*
X57080000Y55789416D01*
X57080000Y55789418D01*
X57085806Y55848365D01*
X57080000Y55907312D01*
X57080000Y56168926D01*
X57175013Y56284700D01*
X57318941Y56553971D01*
X57407572Y56846147D01*
X57430000Y57073862D01*
X57430000Y64922662D01*
X57415071Y64997717D01*
X57407572Y65073853D01*
X57385365Y65147060D01*
X57370435Y65222118D01*
X57341148Y65292822D01*
X57318941Y65366029D01*
X57282877Y65433500D01*
X57253592Y65504200D01*
X57211078Y65567828D01*
X57175013Y65635300D01*
X57126481Y65694437D01*
X57083964Y65758068D01*
X57029848Y65812184D01*
X56981318Y65871318D01*
X56922185Y65919847D01*
X56868068Y65973964D01*
X56804433Y66016484D01*
X56745299Y66065013D01*
X56677832Y66101075D01*
X56614200Y66143592D01*
X56543495Y66172879D01*
X56476028Y66208941D01*
X56402825Y66231147D01*
X56332118Y66260435D01*
X56257057Y66275365D01*
X56183852Y66297572D01*
X56107718Y66305071D01*
X56032662Y66320000D01*
X55956138Y66320000D01*
X55880000Y66327499D01*
X55803862Y66320000D01*
X55727338Y66320000D01*
X55652283Y66305071D01*
X55576147Y66297572D01*
X55502940Y66275365D01*
X55427882Y66260435D01*
X55357178Y66231148D01*
X55283971Y66208941D01*
X55216500Y66172877D01*
X55145800Y66143592D01*
X55082172Y66101078D01*
X55014700Y66065013D01*
X54955563Y66016481D01*
X54891932Y65973964D01*
X54837816Y65919848D01*
X54778682Y65871318D01*
X54730153Y65812185D01*
X54676036Y65758068D01*
X54633516Y65694433D01*
X54610000Y65665778D01*
X54586481Y65694437D01*
X54543964Y65758068D01*
X54489848Y65812184D01*
X54441318Y65871318D01*
X54382185Y65919847D01*
X54328068Y65973964D01*
X54264433Y66016484D01*
X54205299Y66065013D01*
X54137832Y66101075D01*
X54074200Y66143592D01*
X54003495Y66172879D01*
X53936028Y66208941D01*
X53862825Y66231147D01*
X53792118Y66260435D01*
X53717057Y66275365D01*
X53643852Y66297572D01*
X53567718Y66305071D01*
X53492662Y66320000D01*
X53416138Y66320000D01*
X53340000Y66327499D01*
X53263862Y66320000D01*
X53187338Y66320000D01*
X53112283Y66305071D01*
X53036147Y66297572D01*
X52962940Y66275365D01*
X52887882Y66260435D01*
X52817178Y66231148D01*
X52743971Y66208941D01*
X52676500Y66172877D01*
X52605800Y66143592D01*
X52542172Y66101078D01*
X52474700Y66065013D01*
X52415563Y66016481D01*
X52351932Y65973964D01*
X52297816Y65919848D01*
X52238682Y65871318D01*
X52190153Y65812185D01*
X52136036Y65758068D01*
X52093516Y65694433D01*
X52044987Y65635299D01*
X52008925Y65567832D01*
X51966408Y65504200D01*
X51937121Y65433495D01*
X51901059Y65366028D01*
X51878853Y65292825D01*
X51849565Y65222118D01*
X51834635Y65147057D01*
X51812428Y65073852D01*
X51804929Y64997718D01*
X51790000Y64922662D01*
X51790000Y64846137D01*
X51790001Y57556667D01*
X51790000Y57556662D01*
X51790000Y57251338D01*
X51790001Y57251333D01*
X51790001Y57073862D01*
X51791508Y57058562D01*
X49810000Y55077054D01*
X49810000Y64922662D01*
X49795071Y64997717D01*
X49787572Y65073853D01*
X49765365Y65147060D01*
X49750435Y65222118D01*
X49721148Y65292822D01*
X49698941Y65366029D01*
X49662877Y65433500D01*
X49633592Y65504200D01*
X49591078Y65567828D01*
X49555013Y65635300D01*
X49506481Y65694437D01*
X49463964Y65758068D01*
X49409848Y65812184D01*
X49361318Y65871318D01*
X49302185Y65919847D01*
X49248068Y65973964D01*
X49184433Y66016484D01*
X49125299Y66065013D01*
X49057832Y66101075D01*
X48994200Y66143592D01*
X48923495Y66172879D01*
X48856028Y66208941D01*
X48782825Y66231147D01*
X48712118Y66260435D01*
X48637057Y66275365D01*
X48563852Y66297572D01*
X48487718Y66305071D01*
X48412662Y66320000D01*
X48336138Y66320000D01*
X48260000Y66327499D01*
X48183862Y66320000D01*
X48173350Y66320000D01*
X48190000Y66489050D01*
X48190000Y66489053D01*
X48195806Y66548000D01*
X48190000Y66606947D01*
X48190000Y71397968D01*
X48193964Y71401932D01*
X48363592Y71655800D01*
X48480435Y71937882D01*
X48540000Y72237338D01*
X48540000Y72542662D01*
X48530205Y72591907D01*
X55100000Y72591907D01*
X55100000Y72188093D01*
X55178780Y71792037D01*
X55333314Y71418961D01*
X55557661Y71083201D01*
X55843201Y70797661D01*
X56178961Y70573314D01*
X56552037Y70418780D01*
X56948093Y70340000D01*
X57351907Y70340000D01*
X57747963Y70418780D01*
X58121039Y70573314D01*
X58456799Y70797661D01*
X58742339Y71083201D01*
X58966686Y71418961D01*
X59121220Y71792037D01*
X59200000Y72188093D01*
X59200000Y72591907D01*
X59121220Y72987963D01*
X58966686Y73361039D01*
X58742339Y73696799D01*
X58456799Y73982339D01*
X58121039Y74206686D01*
X57747963Y74361220D01*
X57351907Y74440000D01*
X56948093Y74440000D01*
X56552037Y74361220D01*
X56178961Y74206686D01*
X55843201Y73982339D01*
X55557661Y73696799D01*
X55333314Y73361039D01*
X55178780Y72987963D01*
X55100000Y72591907D01*
X48530205Y72591907D01*
X48480435Y72842118D01*
X48363592Y73124200D01*
X48193964Y73378068D01*
X47978068Y73593964D01*
X47724200Y73763592D01*
X47442118Y73880435D01*
X47142662Y73940000D01*
X46837338Y73940000D01*
X46537882Y73880435D01*
X46255800Y73763592D01*
X46001932Y73593964D01*
X45786036Y73378068D01*
X45722409Y73282843D01*
X45696481Y73314437D01*
X45653964Y73378068D01*
X45599848Y73432184D01*
X45551318Y73491318D01*
X45492184Y73539848D01*
X45438068Y73593964D01*
X45374437Y73636481D01*
X45315300Y73685013D01*
X45247828Y73721078D01*
X45184200Y73763592D01*
X45113500Y73792877D01*
X45046029Y73828941D01*
X44972822Y73851148D01*
X44902118Y73880435D01*
X44827060Y73895365D01*
X44753853Y73917572D01*
X44677717Y73925071D01*
X44602662Y73940000D01*
X34366127Y73940000D01*
X34289999Y73947498D01*
X34213871Y73940000D01*
X34213862Y73940000D01*
X33986147Y73917572D01*
X33693971Y73828941D01*
X33424700Y73685013D01*
X33188682Y73491318D01*
X33140147Y73432178D01*
X32377970Y72670000D01*
X30327338Y72670000D01*
X30252283Y72655071D01*
X30176147Y72647572D01*
X30102940Y72625365D01*
X30027882Y72610435D01*
X29957178Y72581148D01*
X29883971Y72558941D01*
X29816500Y72522877D01*
X29745800Y72493592D01*
X29682172Y72451078D01*
X29614700Y72415013D01*
X29555563Y72366481D01*
X29491932Y72323964D01*
X29437816Y72269848D01*
X29378682Y72221318D01*
X29330152Y72162184D01*
X29276036Y72108068D01*
X29233519Y72044437D01*
X29184987Y71985300D01*
X29148922Y71917828D01*
X29106408Y71854200D01*
X29077123Y71783500D01*
X29041059Y71716029D01*
X29018852Y71642822D01*
X28989565Y71572118D01*
X28974635Y71497060D01*
X28952428Y71423853D01*
X28944929Y71347717D01*
X28930000Y71272662D01*
X28930000Y71196138D01*
X28922501Y71120000D01*
X28930000Y71043862D01*
X28930000Y70967338D01*
X28944929Y70892283D01*
X28952428Y70816147D01*
X28974635Y70742940D01*
X28989565Y70667882D01*
X29018852Y70597178D01*
X29041059Y70523971D01*
X29077123Y70456500D01*
X29106408Y70385800D01*
X29148922Y70322172D01*
X29184987Y70254700D01*
X29233519Y70195563D01*
X29276036Y70131932D01*
X29277968Y70130000D01*
X24062032Y70130000D01*
X24063964Y70131932D01*
X24106481Y70195563D01*
X24155013Y70254700D01*
X24191078Y70322172D01*
X24233592Y70385800D01*
X24262877Y70456500D01*
X24298941Y70523971D01*
X24321148Y70597178D01*
X24350435Y70667882D01*
X24365365Y70742940D01*
X24387572Y70816147D01*
X24395071Y70892283D01*
X24410000Y70967338D01*
X24410000Y71043862D01*
X24417499Y71120000D01*
X24410000Y71196138D01*
X24410000Y71272662D01*
X24395071Y71347717D01*
X24387572Y71423853D01*
X24365365Y71497060D01*
X24350435Y71572118D01*
X24321148Y71642822D01*
X24298941Y71716029D01*
X24262877Y71783500D01*
X24233592Y71854200D01*
X24191078Y71917828D01*
X24155013Y71985300D01*
X24106481Y72044437D01*
X24063964Y72108068D01*
X24009848Y72162184D01*
X23961318Y72221318D01*
X23902184Y72269848D01*
X23848068Y72323964D01*
X23784437Y72366481D01*
X23725300Y72415013D01*
X23657828Y72451078D01*
X23594200Y72493592D01*
X23523500Y72522877D01*
X23456029Y72558941D01*
X23382822Y72581148D01*
X23312118Y72610435D01*
X23237060Y72625365D01*
X23163853Y72647572D01*
X23087717Y72655071D01*
X23012662Y72670000D01*
X17627338Y72670000D01*
X17552283Y72655071D01*
X17476147Y72647572D01*
X17402940Y72625365D01*
X17327882Y72610435D01*
X17257178Y72581148D01*
X17183971Y72558941D01*
X17116500Y72522877D01*
X17045800Y72493592D01*
X16982172Y72451078D01*
X16914700Y72415013D01*
X16855563Y72366481D01*
X16791932Y72323964D01*
X16737816Y72269848D01*
X16678682Y72221318D01*
X16630152Y72162184D01*
X16576036Y72108068D01*
X16533519Y72044437D01*
X16484987Y71985300D01*
X16448922Y71917828D01*
X16406408Y71854200D01*
X16377123Y71783500D01*
X16341059Y71716029D01*
X16318852Y71642822D01*
X16289565Y71572118D01*
X16274635Y71497060D01*
X16252428Y71423853D01*
X16244929Y71347717D01*
X16230000Y71272662D01*
X16230000Y71196138D01*
X16222501Y71120000D01*
X16230000Y71043862D01*
X16230000Y70967338D01*
X16244929Y70892283D01*
X16252428Y70816147D01*
X16274635Y70742940D01*
X16289565Y70667882D01*
X16318852Y70597178D01*
X16341059Y70523971D01*
X16377123Y70456500D01*
X16406408Y70385800D01*
X16448922Y70322172D01*
X16484987Y70254700D01*
X16533519Y70195563D01*
X16576036Y70131932D01*
X16630152Y70077816D01*
X16678682Y70018682D01*
X16737816Y69970152D01*
X16791932Y69916036D01*
X16855563Y69873519D01*
X16914700Y69824987D01*
X16982172Y69788922D01*
X17045800Y69746408D01*
X17116500Y69717123D01*
X17183971Y69681059D01*
X17257178Y69658852D01*
X17327882Y69629565D01*
X17402940Y69614635D01*
X17476147Y69592428D01*
X17552283Y69584929D01*
X17627338Y69570000D01*
X19117968Y69570000D01*
X19116036Y69568068D01*
X19073519Y69504437D01*
X19024987Y69445300D01*
X18988922Y69377828D01*
X18946408Y69314200D01*
X18917123Y69243500D01*
X18881059Y69176029D01*
X18858852Y69102822D01*
X18829565Y69032118D01*
X18814635Y68957060D01*
X18792428Y68883853D01*
X18784929Y68807717D01*
X18770000Y68732662D01*
X18770000Y68656138D01*
X18762501Y68580000D01*
X18770000Y68503862D01*
X18770000Y68427338D01*
X18784929Y68352283D01*
X18792428Y68276147D01*
X18814635Y68202940D01*
X18829565Y68127882D01*
X18858852Y68057178D01*
X18881059Y67983971D01*
X18917123Y67916500D01*
X18946408Y67845800D01*
X18988922Y67782172D01*
X19024987Y67714700D01*
X19073519Y67655563D01*
X19116036Y67591932D01*
X19117968Y67590000D01*
X4927338Y67590000D01*
X4852283Y67575071D01*
X4776147Y67567572D01*
X4702940Y67545365D01*
X4627882Y67530435D01*
X4557178Y67501148D01*
X4483971Y67478941D01*
X4416500Y67442877D01*
X4345800Y67413592D01*
X4282172Y67371078D01*
X4214700Y67335013D01*
X4155563Y67286481D01*
X4091932Y67243964D01*
X4037816Y67189848D01*
X3978682Y67141318D01*
X3930152Y67082184D01*
X3876036Y67028068D01*
X3833519Y66964437D01*
X3784987Y66905300D01*
X3748922Y66837828D01*
X3706408Y66774200D01*
X3677123Y66703500D01*
X3641059Y66636029D01*
X3618852Y66562822D01*
X3589565Y66492118D01*
X3574635Y66417060D01*
X3552428Y66343853D01*
X3544929Y66267717D01*
X3530000Y66192662D01*
X3530000Y66116138D01*
X3522501Y66040000D01*
X475000Y66040000D01*
X475000Y72591907D01*
X1760000Y72591907D01*
X1760000Y72188093D01*
X1838780Y71792037D01*
X1993314Y71418961D01*
X2217661Y71083201D01*
X2503201Y70797661D01*
X2838961Y70573314D01*
X3212037Y70418780D01*
X3608093Y70340000D01*
X4011907Y70340000D01*
X4407963Y70418780D01*
X4781039Y70573314D01*
X5116799Y70797661D01*
X5402339Y71083201D01*
X5626686Y71418961D01*
X5781220Y71792037D01*
X5860000Y72188093D01*
X5860000Y72591907D01*
X5781220Y72987963D01*
X5626686Y73361039D01*
X5402339Y73696799D01*
X5116799Y73982339D01*
X4781039Y74206686D01*
X4407963Y74361220D01*
X4011907Y74440000D01*
X3608093Y74440000D01*
X3212037Y74361220D01*
X2838961Y74206686D01*
X2503201Y73982339D01*
X2217661Y73696799D01*
X1993314Y73361039D01*
X1838780Y72987963D01*
X1760000Y72591907D01*
X475000Y72591907D01*
X475000Y75725000D01*
X60485001Y75725000D01*
X60485000Y23335000D01*
G37*
X60485000Y23335000D02*
X50823332Y23335000D01*
X50800000Y23337298D01*
X50776668Y23335000D01*
X50706884Y23328127D01*
X50617346Y23300966D01*
X50534827Y23256859D01*
X50462499Y23197501D01*
X50403141Y23125173D01*
X50359034Y23042654D01*
X50331873Y22953116D01*
X50322702Y22860000D01*
X50325001Y22836658D01*
X50325000Y475000D01*
X475000Y475000D01*
X475000Y4011907D01*
X1760000Y4011907D01*
X1760000Y3608093D01*
X1838780Y3212037D01*
X1993314Y2838961D01*
X2217661Y2503201D01*
X2503201Y2217661D01*
X2838961Y1993314D01*
X3212037Y1838780D01*
X3608093Y1760000D01*
X4011907Y1760000D01*
X4407963Y1838780D01*
X4781039Y1993314D01*
X5116799Y2217661D01*
X5402339Y2503201D01*
X5626686Y2838961D01*
X5781220Y3212037D01*
X5860000Y3608093D01*
X5860000Y4011907D01*
X44940000Y4011907D01*
X44940000Y3608093D01*
X45018780Y3212037D01*
X45173314Y2838961D01*
X45397661Y2503201D01*
X45683201Y2217661D01*
X46018961Y1993314D01*
X46392037Y1838780D01*
X46788093Y1760000D01*
X47191907Y1760000D01*
X47587963Y1838780D01*
X47961039Y1993314D01*
X48296799Y2217661D01*
X48582339Y2503201D01*
X48806686Y2838961D01*
X48961220Y3212037D01*
X49040000Y3608093D01*
X49040000Y4011907D01*
X48961220Y4407963D01*
X48806686Y4781039D01*
X48582339Y5116799D01*
X48296799Y5402339D01*
X47961039Y5626686D01*
X47587963Y5781220D01*
X47191907Y5860000D01*
X46788093Y5860000D01*
X46392037Y5781220D01*
X46018961Y5626686D01*
X45683201Y5402339D01*
X45397661Y5116799D01*
X45173314Y4781039D01*
X45018780Y4407963D01*
X44940000Y4011907D01*
X5860000Y4011907D01*
X5781220Y4407963D01*
X5626686Y4781039D01*
X5402339Y5116799D01*
X5116799Y5402339D01*
X4781039Y5626686D01*
X4407963Y5781220D01*
X4011907Y5860000D01*
X3608093Y5860000D01*
X3212037Y5781220D01*
X2838961Y5626686D01*
X2503201Y5402339D01*
X2217661Y5116799D01*
X1993314Y4781039D01*
X1838780Y4407963D01*
X1760000Y4011907D01*
X475000Y4011907D01*
X475000Y21590000D01*
X6062502Y21590000D01*
X6070000Y21513872D01*
X6070000Y21437338D01*
X6084931Y21362272D01*
X6092429Y21286148D01*
X6114633Y21212950D01*
X6129565Y21137882D01*
X6158854Y21067173D01*
X6181059Y20993972D01*
X6217121Y20926503D01*
X6246408Y20855800D01*
X6288923Y20792171D01*
X6324987Y20724700D01*
X6373518Y20665565D01*
X6416036Y20601932D01*
X6631932Y20386036D01*
X6631938Y20386032D01*
X7340001Y19677968D01*
X7340000Y11220494D01*
X7332502Y11144366D01*
X7340000Y11068238D01*
X7340000Y11068229D01*
X7362428Y10840514D01*
X7406327Y10695800D01*
X7451059Y10548338D01*
X7594987Y10279066D01*
X7638508Y10226036D01*
X7788682Y10043048D01*
X7847827Y9994509D01*
X12534513Y5307822D01*
X12583048Y5248682D01*
X12819066Y5054987D01*
X13088337Y4911059D01*
X13380513Y4822428D01*
X13608228Y4800000D01*
X13608237Y4800000D01*
X13684365Y4792502D01*
X13760493Y4800000D01*
X19202662Y4800000D01*
X19277717Y4814929D01*
X19353853Y4822428D01*
X19427060Y4844635D01*
X19502118Y4859565D01*
X19572822Y4888852D01*
X19646029Y4911059D01*
X19713500Y4947123D01*
X19784200Y4976408D01*
X19847828Y5018922D01*
X19915300Y5054987D01*
X19974437Y5103519D01*
X20038068Y5146036D01*
X20092184Y5200152D01*
X20151318Y5248682D01*
X20199848Y5307816D01*
X20253964Y5361932D01*
X20296481Y5425563D01*
X20345013Y5484700D01*
X20381078Y5552172D01*
X20423592Y5615800D01*
X20452877Y5686500D01*
X20488941Y5753971D01*
X20511148Y5827178D01*
X20540435Y5897882D01*
X20555365Y5972940D01*
X20577572Y6046147D01*
X20585071Y6122283D01*
X20600000Y6197338D01*
X20600000Y6273862D01*
X20607499Y6350000D01*
X20600000Y6426138D01*
X20600000Y6502662D01*
X20585071Y6577717D01*
X20577572Y6653853D01*
X20555365Y6727060D01*
X20540435Y6802118D01*
X20511148Y6872822D01*
X20488941Y6946029D01*
X20452877Y7013500D01*
X20423592Y7084200D01*
X20381078Y7147828D01*
X20345013Y7215300D01*
X20296481Y7274437D01*
X20253964Y7338068D01*
X20199848Y7392184D01*
X20151318Y7451318D01*
X20092184Y7499848D01*
X20038068Y7553964D01*
X19974437Y7596481D01*
X19915300Y7645013D01*
X19847828Y7681078D01*
X19784200Y7723592D01*
X19713500Y7752877D01*
X19646029Y7788941D01*
X19572822Y7811148D01*
X19502118Y7840435D01*
X19427060Y7855365D01*
X19353853Y7877572D01*
X19277717Y7885071D01*
X19202662Y7900000D01*
X14326397Y7900000D01*
X10440000Y11786396D01*
X10440000Y20243873D01*
X10447498Y20320001D01*
X10440000Y20396129D01*
X10440000Y20396138D01*
X10417572Y20623853D01*
X10328941Y20916029D01*
X10185013Y21185300D01*
X9991318Y21421318D01*
X9932178Y21469853D01*
X8823968Y22578062D01*
X8823964Y22578068D01*
X8608068Y22793964D01*
X8544435Y22836482D01*
X8485300Y22885013D01*
X8417829Y22921077D01*
X8354200Y22963592D01*
X8283497Y22992879D01*
X8216028Y23028941D01*
X8142827Y23051146D01*
X8072118Y23080435D01*
X7997050Y23095367D01*
X7923852Y23117571D01*
X7847728Y23125069D01*
X7772662Y23140000D01*
X7696128Y23140000D01*
X7620000Y23147498D01*
X7543872Y23140000D01*
X7467338Y23140000D01*
X7392272Y23125069D01*
X7316148Y23117571D01*
X7242950Y23095367D01*
X7167882Y23080435D01*
X7097173Y23051146D01*
X7023972Y23028941D01*
X6956503Y22992879D01*
X6885800Y22963592D01*
X6822171Y22921077D01*
X6754700Y22885013D01*
X6695563Y22836481D01*
X6631932Y22793964D01*
X6577816Y22739848D01*
X6518682Y22691318D01*
X6470152Y22632184D01*
X6416036Y22578068D01*
X6373519Y22514437D01*
X6324987Y22455300D01*
X6288923Y22387829D01*
X6246408Y22324200D01*
X6217121Y22253497D01*
X6181059Y22186028D01*
X6158854Y22112827D01*
X6129565Y22042118D01*
X6114633Y21967050D01*
X6092429Y21893852D01*
X6084931Y21817728D01*
X6070000Y21742662D01*
X6070000Y21666128D01*
X6062502Y21590000D01*
X475000Y21590000D01*
X475000Y26670000D01*
X2252502Y26670000D01*
X2260000Y26593872D01*
X2260000Y26517338D01*
X2274931Y26442272D01*
X2282429Y26366148D01*
X2304633Y26292950D01*
X2319565Y26217882D01*
X2348854Y26147173D01*
X2371059Y26073972D01*
X2407121Y26006503D01*
X2436408Y25935800D01*
X2478923Y25872171D01*
X2514987Y25804700D01*
X2563519Y25745563D01*
X2606036Y25681932D01*
X2660152Y25627816D01*
X2708682Y25568682D01*
X2767816Y25520152D01*
X2821932Y25466036D01*
X2885563Y25423519D01*
X2944700Y25374987D01*
X3012171Y25338923D01*
X3075800Y25296408D01*
X3146503Y25267121D01*
X3213972Y25231059D01*
X3287173Y25208854D01*
X3357882Y25179565D01*
X3432950Y25164633D01*
X3506148Y25142429D01*
X3582272Y25134931D01*
X3657338Y25120000D01*
X3733872Y25120000D01*
X3810000Y25112502D01*
X3886128Y25120000D01*
X3962662Y25120000D01*
X4037728Y25134931D01*
X4113852Y25142429D01*
X4187050Y25164633D01*
X4262118Y25179565D01*
X4332827Y25208854D01*
X4406028Y25231059D01*
X4473497Y25267121D01*
X4544200Y25296408D01*
X4607829Y25338923D01*
X4675300Y25374987D01*
X4734435Y25423518D01*
X4798068Y25466036D01*
X5013964Y25681932D01*
X5013968Y25681938D01*
X7392179Y28060148D01*
X7451318Y28108682D01*
X7620000Y28314222D01*
X7788682Y28108682D01*
X8024700Y27914987D01*
X8293971Y27771059D01*
X8586147Y27682428D01*
X8813862Y27660000D01*
X8890000Y27652501D01*
X8966138Y27660000D01*
X10227968Y27660000D01*
X10226036Y27658068D01*
X10183519Y27594437D01*
X10134987Y27535300D01*
X10098922Y27467828D01*
X10056408Y27404200D01*
X10027123Y27333500D01*
X9991059Y27266029D01*
X9968852Y27192822D01*
X9939565Y27122118D01*
X9924635Y27047060D01*
X9902428Y26973853D01*
X9894929Y26897717D01*
X9880000Y26822662D01*
X9880000Y26746138D01*
X9872501Y26670000D01*
X9880000Y26593863D01*
X9880000Y26517338D01*
X9894929Y26442283D01*
X9902428Y26366147D01*
X9924635Y26292940D01*
X9939565Y26217882D01*
X9968852Y26147178D01*
X9991059Y26073971D01*
X10027123Y26006500D01*
X10056408Y25935800D01*
X10098922Y25872172D01*
X10134987Y25804700D01*
X10183519Y25745563D01*
X10226036Y25681932D01*
X10280152Y25627816D01*
X10328682Y25568682D01*
X10387816Y25520152D01*
X10441932Y25466036D01*
X10505563Y25423519D01*
X10564700Y25374987D01*
X10632172Y25338922D01*
X10695800Y25296408D01*
X10766500Y25267123D01*
X10833971Y25231059D01*
X10907178Y25208852D01*
X10977882Y25179565D01*
X11052940Y25164635D01*
X11126147Y25142428D01*
X11202283Y25134929D01*
X11277338Y25120000D01*
X14037968Y25120000D01*
X14036036Y25118068D01*
X13993519Y25054437D01*
X13944987Y24995300D01*
X13908922Y24927828D01*
X13866408Y24864200D01*
X13837123Y24793500D01*
X13801059Y24726029D01*
X13778852Y24652822D01*
X13749565Y24582118D01*
X13734635Y24507060D01*
X13712428Y24433853D01*
X13704929Y24357717D01*
X13690000Y24282662D01*
X13690000Y24206138D01*
X13682501Y24130000D01*
X13690000Y24053862D01*
X13690000Y23977338D01*
X13704929Y23902283D01*
X13712428Y23826147D01*
X13734635Y23752940D01*
X13749565Y23677882D01*
X13778852Y23607178D01*
X13801059Y23533971D01*
X13837123Y23466500D01*
X13866408Y23395800D01*
X13908922Y23332172D01*
X13944987Y23264700D01*
X13993519Y23205563D01*
X14036036Y23141932D01*
X14090152Y23087816D01*
X14138682Y23028682D01*
X14197816Y22980152D01*
X14251932Y22926036D01*
X14315563Y22883519D01*
X14344222Y22860000D01*
X14315563Y22836481D01*
X14251932Y22793964D01*
X14197816Y22739848D01*
X14138682Y22691318D01*
X14090152Y22632184D01*
X14036036Y22578068D01*
X13993519Y22514437D01*
X13944987Y22455300D01*
X13908922Y22387828D01*
X13866408Y22324200D01*
X13837123Y22253500D01*
X13801059Y22186029D01*
X13778852Y22112822D01*
X13749565Y22042118D01*
X13734635Y21967060D01*
X13712428Y21893853D01*
X13704929Y21817717D01*
X13690000Y21742662D01*
X13690000Y21666138D01*
X13682501Y21590000D01*
X13690000Y21513862D01*
X13690000Y21437338D01*
X13704929Y21362283D01*
X13712428Y21286147D01*
X13734635Y21212940D01*
X13749565Y21137882D01*
X13778852Y21067178D01*
X13801059Y20993971D01*
X13837123Y20926500D01*
X13866408Y20855800D01*
X13908922Y20792172D01*
X13944987Y20724700D01*
X13993519Y20665563D01*
X14036036Y20601932D01*
X14090152Y20547816D01*
X14138682Y20488682D01*
X14197816Y20440152D01*
X14251932Y20386036D01*
X14315563Y20343519D01*
X14344222Y20320000D01*
X14315563Y20296481D01*
X14251932Y20253964D01*
X14197816Y20199848D01*
X14138682Y20151318D01*
X14090152Y20092184D01*
X14036036Y20038068D01*
X13993519Y19974437D01*
X13944987Y19915300D01*
X13908922Y19847828D01*
X13866408Y19784200D01*
X13837123Y19713500D01*
X13801059Y19646029D01*
X13778852Y19572822D01*
X13749565Y19502118D01*
X13734635Y19427060D01*
X13712428Y19353853D01*
X13704929Y19277717D01*
X13690000Y19202662D01*
X13690000Y19126138D01*
X13682501Y19050000D01*
X13690000Y18973863D01*
X13690000Y18897338D01*
X13704929Y18822283D01*
X13712428Y18746147D01*
X13734635Y18672940D01*
X13749565Y18597882D01*
X13778852Y18527178D01*
X13801059Y18453971D01*
X13837123Y18386500D01*
X13866408Y18315800D01*
X13908922Y18252172D01*
X13944987Y18184700D01*
X13993519Y18125563D01*
X14036036Y18061932D01*
X14090152Y18007816D01*
X14138682Y17948682D01*
X14197816Y17900152D01*
X14251932Y17846036D01*
X14315563Y17803519D01*
X14347157Y17777591D01*
X14251932Y17713964D01*
X14036036Y17498068D01*
X13866408Y17244200D01*
X13749565Y16962118D01*
X13690000Y16662662D01*
X13690000Y16357338D01*
X13749565Y16057882D01*
X13866408Y15775800D01*
X14036036Y15521932D01*
X14251932Y15306036D01*
X14350763Y15240000D01*
X14251932Y15173964D01*
X14036036Y14958068D01*
X13866408Y14704200D01*
X13749565Y14422118D01*
X13690000Y14122662D01*
X13690000Y13817338D01*
X13749565Y13517882D01*
X13866408Y13235800D01*
X14036036Y12981932D01*
X14251932Y12766036D01*
X14350763Y12700000D01*
X14251932Y12633964D01*
X14036036Y12418068D01*
X13866408Y12164200D01*
X13749565Y11882118D01*
X13690000Y11582662D01*
X13690000Y11277338D01*
X13749565Y10977882D01*
X13866408Y10695800D01*
X14036036Y10441932D01*
X14251932Y10226036D01*
X14505800Y10056408D01*
X14787882Y9939565D01*
X15087338Y9880000D01*
X15392662Y9880000D01*
X15692118Y9939565D01*
X15974200Y10056408D01*
X16228068Y10226036D01*
X16443964Y10441932D01*
X16613592Y10695800D01*
X16730435Y10977882D01*
X16790000Y11277338D01*
X16790000Y11582662D01*
X16730435Y11882118D01*
X16613592Y12164200D01*
X16443964Y12418068D01*
X16228068Y12633964D01*
X16129237Y12700000D01*
X16228068Y12766036D01*
X16443964Y12981932D01*
X16613592Y13235800D01*
X16730435Y13517882D01*
X16790000Y13817338D01*
X16790000Y14122662D01*
X16730435Y14422118D01*
X16613592Y14704200D01*
X16443964Y14958068D01*
X16228068Y15173964D01*
X16129237Y15240000D01*
X16228068Y15306036D01*
X16443964Y15521932D01*
X16613592Y15775800D01*
X16730435Y16057882D01*
X16790000Y16357338D01*
X16790000Y16662662D01*
X16730435Y16962118D01*
X16613592Y17244200D01*
X16443964Y17498068D01*
X16442032Y17500000D01*
X22783862Y17500000D01*
X22860000Y17492501D01*
X22936138Y17500000D01*
X23163853Y17522428D01*
X23456029Y17611059D01*
X23725300Y17754987D01*
X23961318Y17948682D01*
X24155013Y18184700D01*
X24298941Y18453971D01*
X24387572Y18746147D01*
X24417499Y19050000D01*
X24410000Y19126138D01*
X24410000Y40598871D01*
X24450145Y40611049D01*
X24719416Y40754977D01*
X24955434Y40948672D01*
X25003973Y41007817D01*
X26390001Y42393844D01*
X26390001Y42062667D01*
X26390000Y42062662D01*
X26390000Y41757338D01*
X26404931Y41682273D01*
X26412429Y41606147D01*
X26434633Y41532950D01*
X26449565Y41457882D01*
X26478856Y41387169D01*
X26501060Y41313971D01*
X26537119Y41246508D01*
X26566408Y41175800D01*
X26608927Y41112165D01*
X26644988Y41044700D01*
X26693515Y40985570D01*
X26736036Y40921932D01*
X26790157Y40867811D01*
X26838683Y40808682D01*
X26897812Y40760156D01*
X26951932Y40706036D01*
X27015569Y40663516D01*
X27074701Y40614987D01*
X27142168Y40578925D01*
X27205800Y40536408D01*
X27276505Y40507121D01*
X27343972Y40471059D01*
X27417175Y40448853D01*
X27487882Y40419565D01*
X27562943Y40404635D01*
X27636148Y40382428D01*
X27712282Y40374929D01*
X27787338Y40360000D01*
X27863862Y40360000D01*
X27940000Y40352501D01*
X28016138Y40360000D01*
X28092662Y40360000D01*
X28167717Y40374929D01*
X28243853Y40382428D01*
X28317060Y40404635D01*
X28392118Y40419565D01*
X28462822Y40448852D01*
X28536029Y40471059D01*
X28603500Y40507123D01*
X28674200Y40536408D01*
X28737828Y40578922D01*
X28805300Y40614987D01*
X28864437Y40663519D01*
X28928068Y40706036D01*
X28930001Y40707969D01*
X28930001Y38488032D01*
X27151827Y36709857D01*
X27092682Y36661318D01*
X27002136Y36550987D01*
X26898987Y36425300D01*
X26796721Y36233972D01*
X26755059Y36156028D01*
X26666428Y35863852D01*
X26644000Y35636137D01*
X26644000Y35636128D01*
X26636502Y35560000D01*
X26644000Y35483872D01*
X26644001Y7213455D01*
X26608922Y7147828D01*
X26566408Y7084200D01*
X26537123Y7013500D01*
X26501059Y6946029D01*
X26478852Y6872822D01*
X26449565Y6802118D01*
X26434635Y6727060D01*
X26412428Y6653853D01*
X26404929Y6577717D01*
X26390000Y6502662D01*
X26390000Y6426138D01*
X26382501Y6350000D01*
X26390000Y6273862D01*
X26390000Y6197338D01*
X26404929Y6122283D01*
X26412428Y6046147D01*
X26434635Y5972940D01*
X26449565Y5897882D01*
X26478852Y5827178D01*
X26501059Y5753971D01*
X26537123Y5686500D01*
X26566408Y5615800D01*
X26608922Y5552172D01*
X26644987Y5484700D01*
X26693519Y5425563D01*
X26736036Y5361932D01*
X26790152Y5307816D01*
X26838682Y5248682D01*
X26897816Y5200152D01*
X26951932Y5146036D01*
X27015563Y5103519D01*
X27074700Y5054987D01*
X27142172Y5018922D01*
X27205800Y4976408D01*
X27276500Y4947123D01*
X27343971Y4911059D01*
X27417178Y4888852D01*
X27487882Y4859565D01*
X27562940Y4844635D01*
X27636147Y4822428D01*
X27712283Y4814929D01*
X27787338Y4800000D01*
X27863872Y4800000D01*
X27940000Y4792502D01*
X28016128Y4800000D01*
X28092662Y4800000D01*
X28167717Y4814929D01*
X28243853Y4822428D01*
X28317060Y4844635D01*
X28392118Y4859565D01*
X28462822Y4888852D01*
X28536029Y4911059D01*
X28603500Y4947123D01*
X28674200Y4976408D01*
X28737828Y5018922D01*
X28805300Y5054987D01*
X28864437Y5103519D01*
X28928068Y5146036D01*
X28982184Y5200152D01*
X29041318Y5248682D01*
X29089848Y5307816D01*
X29143964Y5361932D01*
X29143968Y5361938D01*
X29236173Y5454143D01*
X29295318Y5502682D01*
X29489013Y5738700D01*
X29632941Y6007971D01*
X29721572Y6300147D01*
X29744000Y6527862D01*
X29744000Y6527871D01*
X29751498Y6603999D01*
X29744000Y6680127D01*
X29744000Y34917970D01*
X31522178Y36696147D01*
X31581318Y36744682D01*
X31775013Y36980700D01*
X31918941Y37249971D01*
X32007572Y37542147D01*
X32030000Y37769862D01*
X32030000Y37769871D01*
X32037498Y37845999D01*
X32030000Y37922127D01*
X32030000Y44450000D01*
X34002502Y44450000D01*
X34010000Y44373872D01*
X34010001Y8966138D01*
X34002502Y8890000D01*
X34032429Y8586148D01*
X34121059Y8293972D01*
X34264987Y8024700D01*
X34410147Y7847823D01*
X34458683Y7788682D01*
X34517823Y7740147D01*
X36950147Y5307822D01*
X36998682Y5248682D01*
X37234700Y5054987D01*
X37503971Y4911059D01*
X37796147Y4822428D01*
X38023862Y4800000D01*
X38023871Y4800000D01*
X38099999Y4792502D01*
X38176127Y4800000D01*
X40792662Y4800000D01*
X40867717Y4814929D01*
X40943853Y4822428D01*
X41017060Y4844635D01*
X41092118Y4859565D01*
X41162822Y4888852D01*
X41236029Y4911059D01*
X41303500Y4947123D01*
X41374200Y4976408D01*
X41437828Y5018922D01*
X41505300Y5054987D01*
X41564437Y5103519D01*
X41628068Y5146036D01*
X41682184Y5200152D01*
X41741318Y5248682D01*
X41789848Y5307816D01*
X41843964Y5361932D01*
X41886481Y5425563D01*
X41935013Y5484700D01*
X41971078Y5552172D01*
X42013592Y5615800D01*
X42042877Y5686500D01*
X42078941Y5753971D01*
X42101148Y5827178D01*
X42130435Y5897882D01*
X42145365Y5972940D01*
X42167572Y6046147D01*
X42175071Y6122283D01*
X42190000Y6197338D01*
X42190000Y6273862D01*
X42197499Y6350000D01*
X42190000Y6426138D01*
X42190000Y6502662D01*
X42175071Y6577717D01*
X42167572Y6653853D01*
X42145365Y6727060D01*
X42130435Y6802118D01*
X42101148Y6872822D01*
X42078941Y6946029D01*
X42042877Y7013500D01*
X42013592Y7084200D01*
X41971078Y7147828D01*
X41935013Y7215300D01*
X41886481Y7274437D01*
X41843964Y7338068D01*
X41789848Y7392184D01*
X41741318Y7451318D01*
X41682184Y7499848D01*
X41628068Y7553964D01*
X41564437Y7596481D01*
X41505300Y7645013D01*
X41437828Y7681078D01*
X41374200Y7723592D01*
X41303500Y7752877D01*
X41236029Y7788941D01*
X41162822Y7811148D01*
X41092118Y7840435D01*
X41017060Y7855365D01*
X40943853Y7877572D01*
X40867717Y7885071D01*
X40792662Y7900000D01*
X38742031Y7900000D01*
X37110000Y9532030D01*
X37110000Y43807970D01*
X39249852Y45947821D01*
X39249856Y45947826D01*
X41628065Y48326034D01*
X41628068Y48326036D01*
X41682185Y48380153D01*
X41741318Y48428682D01*
X41789848Y48487816D01*
X41843964Y48541932D01*
X41886481Y48605563D01*
X41935013Y48664700D01*
X41971078Y48732172D01*
X42013592Y48795800D01*
X42042877Y48866500D01*
X42078941Y48933971D01*
X42101148Y49007178D01*
X42130435Y49077882D01*
X42145365Y49152940D01*
X42167572Y49226147D01*
X42175071Y49302283D01*
X42190000Y49377338D01*
X42190000Y49453871D01*
X42197498Y49529999D01*
X42190000Y49606127D01*
X42190000Y54762662D01*
X42175071Y54837717D01*
X42167572Y54913853D01*
X42145365Y54987060D01*
X42130435Y55062118D01*
X42101148Y55132822D01*
X42078941Y55206029D01*
X42042877Y55273500D01*
X42013592Y55344200D01*
X41971078Y55407828D01*
X41935013Y55475300D01*
X41886481Y55534437D01*
X41843964Y55598068D01*
X41789848Y55652184D01*
X41741318Y55711318D01*
X41682184Y55759848D01*
X41628068Y55813964D01*
X41564437Y55856481D01*
X41505300Y55905013D01*
X41437828Y55941078D01*
X41374200Y55983592D01*
X41303500Y56012877D01*
X41236029Y56048941D01*
X41162822Y56071148D01*
X41092118Y56100435D01*
X41017060Y56115365D01*
X40943853Y56137572D01*
X40867717Y56145071D01*
X40792662Y56160000D01*
X40716138Y56160000D01*
X40640000Y56167499D01*
X40563862Y56160000D01*
X40487338Y56160000D01*
X40412283Y56145071D01*
X40336147Y56137572D01*
X40262940Y56115365D01*
X40187882Y56100435D01*
X40117178Y56071148D01*
X40043971Y56048941D01*
X39976500Y56012877D01*
X39905800Y55983592D01*
X39842172Y55941078D01*
X39774700Y55905013D01*
X39715563Y55856481D01*
X39651932Y55813964D01*
X39597816Y55759848D01*
X39538682Y55711318D01*
X39490153Y55652185D01*
X39436036Y55598068D01*
X39393516Y55534433D01*
X39344987Y55475299D01*
X39308925Y55407832D01*
X39266408Y55344200D01*
X39237121Y55273495D01*
X39201059Y55206028D01*
X39178853Y55132825D01*
X39149565Y55062118D01*
X39134635Y54987057D01*
X39112428Y54913852D01*
X39104929Y54837718D01*
X39090000Y54762662D01*
X39090000Y54686137D01*
X39090001Y52699973D01*
X39090000Y50172031D01*
X37057826Y48139856D01*
X37057821Y48139852D01*
X34571938Y45653968D01*
X34571932Y45653964D01*
X34517816Y45599848D01*
X34458682Y45551318D01*
X34410153Y45492185D01*
X34356036Y45438068D01*
X34313518Y45374435D01*
X34264987Y45315300D01*
X34228923Y45247829D01*
X34186408Y45184200D01*
X34157121Y45113495D01*
X34121059Y45046028D01*
X34098853Y44972825D01*
X34069565Y44902118D01*
X34054635Y44827057D01*
X34032428Y44753852D01*
X34024929Y44677718D01*
X34010000Y44602662D01*
X34010000Y44526128D01*
X34002502Y44450000D01*
X32030000Y44450000D01*
X32030000Y46347970D01*
X34008065Y48326034D01*
X34008068Y48326036D01*
X34062184Y48380152D01*
X34121318Y48428682D01*
X34169848Y48487816D01*
X34223964Y48541932D01*
X34266481Y48605563D01*
X34315013Y48664700D01*
X34351078Y48732172D01*
X34393592Y48795800D01*
X34422877Y48866500D01*
X34458941Y48933971D01*
X34481148Y49007178D01*
X34510435Y49077882D01*
X34525365Y49152940D01*
X34547572Y49226147D01*
X34555071Y49302283D01*
X34570000Y49377338D01*
X34570000Y49453863D01*
X34577499Y49530000D01*
X34570000Y49606138D01*
X34570000Y53492662D01*
X34555071Y53567717D01*
X34547572Y53643853D01*
X34525365Y53717060D01*
X34510435Y53792118D01*
X34481148Y53862822D01*
X34458941Y53936029D01*
X34422877Y54003500D01*
X34393592Y54074200D01*
X34351078Y54137828D01*
X34315013Y54205300D01*
X34266481Y54264437D01*
X34223964Y54328068D01*
X34169848Y54382184D01*
X34121318Y54441318D01*
X34062185Y54489847D01*
X34008068Y54543964D01*
X33944433Y54586484D01*
X33885299Y54635013D01*
X33817832Y54671075D01*
X33754200Y54713592D01*
X33683495Y54742879D01*
X33616028Y54778941D01*
X33542825Y54801147D01*
X33472118Y54830435D01*
X33397057Y54845365D01*
X33323852Y54867572D01*
X33247718Y54875071D01*
X33172662Y54890000D01*
X33096138Y54890000D01*
X33020000Y54897499D01*
X32943862Y54890000D01*
X32867338Y54890000D01*
X32792283Y54875071D01*
X32716147Y54867572D01*
X32642940Y54845365D01*
X32567882Y54830435D01*
X32497178Y54801148D01*
X32423971Y54778941D01*
X32356500Y54742877D01*
X32285800Y54713592D01*
X32222172Y54671078D01*
X32154700Y54635013D01*
X32095563Y54586481D01*
X32031932Y54543964D01*
X31977816Y54489848D01*
X31918682Y54441318D01*
X31870153Y54382185D01*
X31816036Y54328068D01*
X31773516Y54264433D01*
X31750000Y54235778D01*
X31726481Y54264437D01*
X31683964Y54328068D01*
X31629848Y54382184D01*
X31581318Y54441318D01*
X31522184Y54489848D01*
X31468068Y54543964D01*
X31404437Y54586481D01*
X31375778Y54610000D01*
X31404437Y54633519D01*
X31468068Y54676036D01*
X31522184Y54730152D01*
X31581318Y54778682D01*
X31629848Y54837816D01*
X31683964Y54891932D01*
X31726481Y54955563D01*
X31775013Y55014700D01*
X31811078Y55082172D01*
X31853592Y55145800D01*
X31882877Y55216500D01*
X31918941Y55283971D01*
X31941148Y55357178D01*
X31970435Y55427882D01*
X31985365Y55502940D01*
X32007572Y55576147D01*
X32015071Y55652283D01*
X32030000Y55727338D01*
X32030000Y55803862D01*
X32037499Y55880000D01*
X32030000Y55956138D01*
X32030000Y56032662D01*
X32015071Y56107717D01*
X32007572Y56183853D01*
X31985365Y56257060D01*
X31970435Y56332118D01*
X31941148Y56402822D01*
X31918941Y56476029D01*
X31882877Y56543500D01*
X31853592Y56614200D01*
X31811078Y56677828D01*
X31775013Y56745300D01*
X31726481Y56804437D01*
X31683964Y56868068D01*
X31682032Y56870000D01*
X34442662Y56870000D01*
X34517717Y56884929D01*
X34593853Y56892428D01*
X34667060Y56914635D01*
X34742118Y56929565D01*
X34812822Y56958852D01*
X34886029Y56981059D01*
X34953500Y57017123D01*
X35024200Y57046408D01*
X35087828Y57088922D01*
X35155300Y57124987D01*
X35214437Y57173519D01*
X35278068Y57216036D01*
X35332184Y57270152D01*
X35391318Y57318682D01*
X35439848Y57377816D01*
X35493964Y57431932D01*
X35536481Y57495563D01*
X35585013Y57554700D01*
X35621078Y57622172D01*
X35663592Y57685800D01*
X35692877Y57756500D01*
X35728941Y57823971D01*
X35751148Y57897178D01*
X35780435Y57967882D01*
X35795365Y58042940D01*
X35817572Y58116147D01*
X35825071Y58192283D01*
X35840000Y58267338D01*
X35840000Y58343862D01*
X35847499Y58420000D01*
X35840000Y58496138D01*
X35840000Y58572662D01*
X35825071Y58647717D01*
X35817572Y58723853D01*
X35795365Y58797060D01*
X35780435Y58872118D01*
X35751148Y58942822D01*
X35728941Y59016029D01*
X35692877Y59083500D01*
X35663592Y59154200D01*
X35621078Y59217828D01*
X35585013Y59285300D01*
X35536481Y59344437D01*
X35493964Y59408068D01*
X35439848Y59462184D01*
X35391318Y59521318D01*
X35332184Y59569848D01*
X35278068Y59623964D01*
X35214437Y59666481D01*
X35155300Y59715013D01*
X35087828Y59751078D01*
X35024200Y59793592D01*
X34953500Y59822877D01*
X34886029Y59858941D01*
X34812822Y59881148D01*
X34742118Y59910435D01*
X34667060Y59925365D01*
X34593853Y59947572D01*
X34517717Y59955071D01*
X34442662Y59970000D01*
X30327338Y59970000D01*
X30252283Y59955071D01*
X30176147Y59947572D01*
X30102940Y59925365D01*
X30027882Y59910435D01*
X29957178Y59881148D01*
X29883971Y59858941D01*
X29816500Y59822877D01*
X29745800Y59793592D01*
X29682172Y59751078D01*
X29614700Y59715013D01*
X29555563Y59666481D01*
X29491932Y59623964D01*
X29437816Y59569848D01*
X29378682Y59521318D01*
X29330152Y59462184D01*
X29276036Y59408068D01*
X29233519Y59344437D01*
X29184987Y59285300D01*
X29148922Y59217828D01*
X29106408Y59154200D01*
X29077123Y59083500D01*
X29041059Y59016029D01*
X29018852Y58942822D01*
X28989565Y58872118D01*
X28974635Y58797060D01*
X28952428Y58723853D01*
X28944929Y58647717D01*
X28930000Y58572662D01*
X28930000Y58496138D01*
X28922501Y58420000D01*
X28930000Y58343862D01*
X28930000Y58267338D01*
X28944929Y58192283D01*
X28952428Y58116147D01*
X28974635Y58042940D01*
X28989565Y57967882D01*
X29018852Y57897178D01*
X29041059Y57823971D01*
X29077123Y57756500D01*
X29106408Y57685800D01*
X29148922Y57622172D01*
X29184987Y57554700D01*
X29233519Y57495563D01*
X29276036Y57431932D01*
X29277968Y57430000D01*
X25476138Y57430000D01*
X25400000Y57437499D01*
X25323862Y57430000D01*
X24062032Y57430000D01*
X24063964Y57431932D01*
X24106481Y57495563D01*
X24155013Y57554700D01*
X24191078Y57622172D01*
X24233592Y57685800D01*
X24262877Y57756500D01*
X24298941Y57823971D01*
X24321148Y57897178D01*
X24350435Y57967882D01*
X24365365Y58042940D01*
X24387572Y58116147D01*
X24395071Y58192283D01*
X24410000Y58267338D01*
X24410000Y58343862D01*
X24417499Y58420000D01*
X24410000Y58496138D01*
X24410000Y58572662D01*
X24395071Y58647717D01*
X24387572Y58723853D01*
X24365365Y58797060D01*
X24350435Y58872118D01*
X24321148Y58942822D01*
X24298941Y59016029D01*
X24262877Y59083500D01*
X24233592Y59154200D01*
X24191078Y59217828D01*
X24155013Y59285300D01*
X24106481Y59344437D01*
X24063964Y59408068D01*
X24009848Y59462184D01*
X23961318Y59521318D01*
X23902184Y59569848D01*
X23848068Y59623964D01*
X23784437Y59666481D01*
X23725300Y59715013D01*
X23657828Y59751078D01*
X23594200Y59793592D01*
X23523500Y59822877D01*
X23456029Y59858941D01*
X23382822Y59881148D01*
X23312118Y59910435D01*
X23237060Y59925365D01*
X23163853Y59947572D01*
X23087717Y59955071D01*
X23012662Y59970000D01*
X14833338Y59970000D01*
X14758283Y59955071D01*
X14682147Y59947572D01*
X14608940Y59925365D01*
X14533882Y59910435D01*
X14463178Y59881148D01*
X14389971Y59858941D01*
X14322500Y59822877D01*
X14251800Y59793592D01*
X14188172Y59751078D01*
X14120700Y59715013D01*
X14061563Y59666481D01*
X13997932Y59623964D01*
X13943816Y59569848D01*
X13884682Y59521318D01*
X13836152Y59462184D01*
X13782036Y59408068D01*
X13739519Y59344437D01*
X13690987Y59285300D01*
X13654922Y59217828D01*
X13612408Y59154200D01*
X13583123Y59083500D01*
X13547059Y59016029D01*
X13524852Y58942822D01*
X13495565Y58872118D01*
X13480635Y58797060D01*
X13458428Y58723853D01*
X13450929Y58647717D01*
X13436000Y58572662D01*
X13436000Y58496138D01*
X13428501Y58420000D01*
X13436000Y58343862D01*
X13436000Y58267338D01*
X13450929Y58192283D01*
X13458428Y58116147D01*
X13480635Y58042940D01*
X13495565Y57967882D01*
X13524852Y57897178D01*
X13547059Y57823971D01*
X13583123Y57756500D01*
X13612408Y57685800D01*
X13654922Y57622172D01*
X13690987Y57554700D01*
X13739519Y57495563D01*
X13782036Y57431932D01*
X13783968Y57430000D01*
X4927338Y57430000D01*
X4852283Y57415071D01*
X4776147Y57407572D01*
X4702940Y57385365D01*
X4627882Y57370435D01*
X4557178Y57341148D01*
X4483971Y57318941D01*
X4416500Y57282877D01*
X4345800Y57253592D01*
X4282172Y57211078D01*
X4214700Y57175013D01*
X4155563Y57126481D01*
X4091932Y57083964D01*
X4037816Y57029848D01*
X3978682Y56981318D01*
X3930152Y56922184D01*
X3876036Y56868068D01*
X3833519Y56804437D01*
X3784987Y56745300D01*
X3748922Y56677828D01*
X3706408Y56614200D01*
X3677123Y56543500D01*
X3641059Y56476029D01*
X3618852Y56402822D01*
X3589565Y56332118D01*
X3574635Y56257060D01*
X3552428Y56183853D01*
X3544929Y56107717D01*
X3530000Y56032662D01*
X3530000Y55956138D01*
X3522501Y55880000D01*
X3530000Y55803862D01*
X3530000Y55727338D01*
X3544929Y55652283D01*
X3552428Y55576147D01*
X3574635Y55502940D01*
X3589565Y55427882D01*
X3618852Y55357178D01*
X3641059Y55283971D01*
X3677123Y55216500D01*
X3706408Y55145800D01*
X3748922Y55082172D01*
X3784987Y55014700D01*
X3833519Y54955563D01*
X3876036Y54891932D01*
X3930152Y54837816D01*
X3978682Y54778682D01*
X4037816Y54730152D01*
X4091932Y54676036D01*
X4155563Y54633519D01*
X4184222Y54610000D01*
X4155563Y54586481D01*
X4091932Y54543964D01*
X4037816Y54489848D01*
X3978682Y54441318D01*
X3930152Y54382184D01*
X3876036Y54328068D01*
X3833519Y54264437D01*
X3784987Y54205300D01*
X3748922Y54137828D01*
X3706408Y54074200D01*
X3677123Y54003500D01*
X3641059Y53936029D01*
X3618852Y53862822D01*
X3589565Y53792118D01*
X3574635Y53717060D01*
X3552428Y53643853D01*
X3544929Y53567717D01*
X3530000Y53492662D01*
X3530000Y53416138D01*
X3522501Y53340000D01*
X3530000Y53263862D01*
X3530000Y53187338D01*
X3544929Y53112283D01*
X3552428Y53036147D01*
X3574635Y52962940D01*
X3589565Y52887882D01*
X3618852Y52817178D01*
X3641059Y52743971D01*
X3677123Y52676500D01*
X3706408Y52605800D01*
X3748922Y52542172D01*
X3784987Y52474700D01*
X3833519Y52415563D01*
X3876036Y52351932D01*
X3930152Y52297816D01*
X3978682Y52238682D01*
X4037816Y52190152D01*
X4091932Y52136036D01*
X4155563Y52093519D01*
X4214700Y52044987D01*
X4282172Y52008922D01*
X4345800Y51966408D01*
X4416500Y51937123D01*
X4483971Y51901059D01*
X4557178Y51878852D01*
X4627882Y51849565D01*
X4702940Y51834635D01*
X4776147Y51812428D01*
X4852283Y51804929D01*
X4927338Y51790000D01*
X9517970Y51790000D01*
X11150001Y50157968D01*
X11150000Y40673185D01*
X11097818Y40701078D01*
X11034190Y40743592D01*
X10963490Y40772877D01*
X10896019Y40808941D01*
X10822812Y40831148D01*
X10752108Y40860435D01*
X10677050Y40875365D01*
X10603843Y40897572D01*
X10527707Y40905071D01*
X10452652Y40920000D01*
X6197338Y40920000D01*
X6122283Y40905071D01*
X6046147Y40897572D01*
X5972940Y40875365D01*
X5897882Y40860435D01*
X5827178Y40831148D01*
X5753971Y40808941D01*
X5686500Y40772877D01*
X5615800Y40743592D01*
X5552172Y40701078D01*
X5484700Y40665013D01*
X5425563Y40616481D01*
X5361932Y40573964D01*
X5307816Y40519848D01*
X5248682Y40471318D01*
X5200152Y40412184D01*
X5146036Y40358068D01*
X5103519Y40294437D01*
X5054987Y40235300D01*
X5018922Y40167828D01*
X4976408Y40104200D01*
X4947123Y40033500D01*
X4911059Y39966029D01*
X4888852Y39892822D01*
X4859565Y39822118D01*
X4844635Y39747060D01*
X4822428Y39673853D01*
X4814929Y39597717D01*
X4800000Y39522662D01*
X4800000Y39446138D01*
X4792501Y39370000D01*
X4800000Y39293862D01*
X4800000Y39217338D01*
X4814929Y39142283D01*
X4822428Y39066147D01*
X4844635Y38992940D01*
X4859565Y38917882D01*
X4888852Y38847178D01*
X4911059Y38773971D01*
X4947123Y38706500D01*
X4976408Y38635800D01*
X5018922Y38572172D01*
X5054987Y38504700D01*
X5103519Y38445563D01*
X5146036Y38381932D01*
X5200152Y38327816D01*
X5248682Y38268682D01*
X5307816Y38220152D01*
X5361932Y38166036D01*
X5425563Y38123519D01*
X5454222Y38100000D01*
X5425563Y38076481D01*
X5361932Y38033964D01*
X5307816Y37979848D01*
X5248682Y37931318D01*
X5200152Y37872184D01*
X5146036Y37818068D01*
X5103519Y37754437D01*
X5054987Y37695300D01*
X5018922Y37627828D01*
X4976408Y37564200D01*
X4947123Y37493500D01*
X4911059Y37426029D01*
X4888852Y37352822D01*
X4859565Y37282118D01*
X4844635Y37207060D01*
X4822428Y37133853D01*
X4814929Y37057717D01*
X4800000Y36982662D01*
X4800000Y36906138D01*
X4792501Y36830000D01*
X4800000Y36753862D01*
X4800000Y36677338D01*
X4814929Y36602283D01*
X4822428Y36526147D01*
X4844635Y36452940D01*
X4859565Y36377882D01*
X4888852Y36307178D01*
X4911059Y36233971D01*
X4947123Y36166500D01*
X4976408Y36095800D01*
X5018922Y36032172D01*
X5054987Y35964700D01*
X5103519Y35905563D01*
X5146036Y35841932D01*
X5200152Y35787816D01*
X5248682Y35728682D01*
X5307816Y35680152D01*
X5361932Y35626036D01*
X5425563Y35583519D01*
X5454222Y35560000D01*
X5425569Y35536484D01*
X5361932Y35493964D01*
X5307812Y35439844D01*
X5248683Y35391318D01*
X5200157Y35332189D01*
X5146036Y35278068D01*
X5103515Y35214430D01*
X5054988Y35155300D01*
X5018927Y35087835D01*
X4976408Y35024200D01*
X4947119Y34953492D01*
X4911060Y34886029D01*
X4888856Y34812831D01*
X4859565Y34742118D01*
X4844633Y34667050D01*
X4822429Y34593853D01*
X4814931Y34517727D01*
X4800000Y34442662D01*
X4800000Y34137338D01*
X4800001Y34137333D01*
X4800000Y29852031D01*
X2821938Y27873968D01*
X2821932Y27873964D01*
X2606036Y27658068D01*
X2563518Y27594435D01*
X2514987Y27535300D01*
X2478923Y27467829D01*
X2436408Y27404200D01*
X2407121Y27333497D01*
X2371059Y27266028D01*
X2348854Y27192827D01*
X2319565Y27122118D01*
X2304633Y27047050D01*
X2282429Y26973852D01*
X2274931Y26897728D01*
X2260000Y26822662D01*
X2260000Y26746128D01*
X2252502Y26670000D01*
X475000Y26670000D01*
X475000Y66040000D01*
X3522501Y66040000D01*
X3530000Y65963862D01*
X3530000Y65887338D01*
X3544929Y65812283D01*
X3552428Y65736147D01*
X3574635Y65662940D01*
X3589565Y65587882D01*
X3618852Y65517178D01*
X3641059Y65443971D01*
X3677123Y65376500D01*
X3706408Y65305800D01*
X3748922Y65242172D01*
X3784987Y65174700D01*
X3833519Y65115563D01*
X3876036Y65051932D01*
X3930152Y64997816D01*
X3978682Y64938682D01*
X4037816Y64890152D01*
X4091932Y64836036D01*
X4155563Y64793519D01*
X4184222Y64770000D01*
X4155563Y64746481D01*
X4091932Y64703964D01*
X4037816Y64649848D01*
X3978682Y64601318D01*
X3930152Y64542184D01*
X3876036Y64488068D01*
X3833519Y64424437D01*
X3784987Y64365300D01*
X3748922Y64297828D01*
X3706408Y64234200D01*
X3677123Y64163500D01*
X3641059Y64096029D01*
X3618852Y64022822D01*
X3589565Y63952118D01*
X3574635Y63877060D01*
X3552428Y63803853D01*
X3544929Y63727717D01*
X3530000Y63652662D01*
X3530000Y63576138D01*
X3522501Y63500000D01*
X3530000Y63423862D01*
X3530000Y63347338D01*
X3544929Y63272283D01*
X3552428Y63196147D01*
X3574635Y63122940D01*
X3589565Y63047882D01*
X3618852Y62977178D01*
X3641059Y62903971D01*
X3677123Y62836500D01*
X3706408Y62765800D01*
X3748922Y62702172D01*
X3784987Y62634700D01*
X3833519Y62575563D01*
X3876036Y62511932D01*
X3930152Y62457816D01*
X3978682Y62398682D01*
X4037816Y62350152D01*
X4091932Y62296036D01*
X4155563Y62253519D01*
X4214700Y62204987D01*
X4282172Y62168922D01*
X4345800Y62126408D01*
X4416500Y62097123D01*
X4483971Y62061059D01*
X4557178Y62038852D01*
X4627882Y62009565D01*
X4702940Y61994635D01*
X4776147Y61972428D01*
X4852283Y61964929D01*
X4927338Y61950000D01*
X10312662Y61950000D01*
X10387717Y61964929D01*
X10463853Y61972428D01*
X10537060Y61994635D01*
X10612118Y62009565D01*
X10682822Y62038852D01*
X10756029Y62061059D01*
X10823500Y62097123D01*
X10894200Y62126408D01*
X10957828Y62168922D01*
X11025300Y62204987D01*
X11084437Y62253519D01*
X11148068Y62296036D01*
X11202184Y62350152D01*
X11261318Y62398682D01*
X11309848Y62457816D01*
X11363964Y62511932D01*
X11406481Y62575563D01*
X11455013Y62634700D01*
X11491078Y62702172D01*
X11533592Y62765800D01*
X11562877Y62836500D01*
X11598941Y62903971D01*
X11621148Y62977178D01*
X11650435Y63047882D01*
X11665365Y63122940D01*
X11687572Y63196147D01*
X11695071Y63272283D01*
X11710000Y63347338D01*
X11710000Y63423862D01*
X11717499Y63500000D01*
X11710000Y63576138D01*
X11710000Y63652662D01*
X11695071Y63727717D01*
X11687572Y63803853D01*
X11665365Y63877060D01*
X11650435Y63952118D01*
X11621148Y64022822D01*
X11598941Y64096029D01*
X11562877Y64163500D01*
X11533592Y64234200D01*
X11491078Y64297828D01*
X11455013Y64365300D01*
X11406481Y64424437D01*
X11363964Y64488068D01*
X11362032Y64490000D01*
X23012662Y64490000D01*
X23087717Y64504929D01*
X23163853Y64512428D01*
X23237060Y64534635D01*
X23312118Y64549565D01*
X23382822Y64578852D01*
X23456029Y64601059D01*
X23523500Y64637123D01*
X23594200Y64666408D01*
X23657828Y64708922D01*
X23725300Y64744987D01*
X23784437Y64793519D01*
X23848068Y64836036D01*
X23902184Y64890152D01*
X23961318Y64938682D01*
X24009848Y64997816D01*
X24063964Y65051932D01*
X24106481Y65115563D01*
X24155013Y65174700D01*
X24191078Y65242172D01*
X24233592Y65305800D01*
X24262877Y65376500D01*
X24298941Y65443971D01*
X24321148Y65517178D01*
X24350435Y65587882D01*
X24365365Y65662940D01*
X24387572Y65736147D01*
X24395071Y65812283D01*
X24410000Y65887338D01*
X24410000Y65963862D01*
X24417499Y66040000D01*
X24410000Y66116138D01*
X24410000Y66192662D01*
X24395071Y66267717D01*
X24387572Y66343853D01*
X24365365Y66417060D01*
X24350435Y66492118D01*
X24321148Y66562822D01*
X24298941Y66636029D01*
X24262877Y66703500D01*
X24233592Y66774200D01*
X24191078Y66837828D01*
X24155013Y66905300D01*
X24106481Y66964437D01*
X24063964Y67028068D01*
X24062032Y67030000D01*
X29277968Y67030000D01*
X29276036Y67028068D01*
X29233519Y66964437D01*
X29184987Y66905300D01*
X29148922Y66837828D01*
X29106408Y66774200D01*
X29077123Y66703500D01*
X29041059Y66636029D01*
X29018852Y66562822D01*
X28989565Y66492118D01*
X28974635Y66417060D01*
X28952428Y66343853D01*
X28944929Y66267717D01*
X28930000Y66192662D01*
X28930000Y66116138D01*
X28922501Y66040000D01*
X28930000Y65963862D01*
X28930000Y65887338D01*
X28944929Y65812283D01*
X28952428Y65736147D01*
X28974635Y65662940D01*
X28989565Y65587882D01*
X29018852Y65517178D01*
X29041059Y65443971D01*
X29077123Y65376500D01*
X29106408Y65305800D01*
X29148922Y65242172D01*
X29184987Y65174700D01*
X29233519Y65115563D01*
X29276036Y65051932D01*
X29330152Y64997816D01*
X29378682Y64938682D01*
X29437816Y64890152D01*
X29491932Y64836036D01*
X29555563Y64793519D01*
X29614700Y64744987D01*
X29682172Y64708922D01*
X29745800Y64666408D01*
X29816500Y64637123D01*
X29883971Y64601059D01*
X29957178Y64578852D01*
X30027882Y64549565D01*
X30102940Y64534635D01*
X30176147Y64512428D01*
X30252283Y64504929D01*
X30327338Y64490000D01*
X31959506Y64490000D01*
X32035634Y64482502D01*
X32111762Y64490000D01*
X32111772Y64490000D01*
X32339487Y64512428D01*
X32631663Y64601059D01*
X32740000Y64658966D01*
X32740000Y64617338D01*
X32754929Y64542283D01*
X32762428Y64466147D01*
X32784635Y64392940D01*
X32799565Y64317882D01*
X32828852Y64247178D01*
X32851059Y64173971D01*
X32887123Y64106500D01*
X32916408Y64035800D01*
X32958922Y63972172D01*
X32994987Y63904700D01*
X33043519Y63845563D01*
X33086036Y63781932D01*
X33140152Y63727816D01*
X33188682Y63668682D01*
X33247816Y63620152D01*
X33301932Y63566036D01*
X33365563Y63523519D01*
X33424700Y63474987D01*
X33492172Y63438922D01*
X33555800Y63396408D01*
X33626500Y63367123D01*
X33693971Y63331059D01*
X33767178Y63308852D01*
X33837882Y63279565D01*
X33912940Y63264635D01*
X33986147Y63242428D01*
X34062283Y63234929D01*
X34137338Y63220000D01*
X34213872Y63220000D01*
X34290000Y63212502D01*
X34366128Y63220000D01*
X34442662Y63220000D01*
X34517717Y63234929D01*
X34593853Y63242428D01*
X34667060Y63264635D01*
X34742118Y63279565D01*
X34812822Y63308852D01*
X34886029Y63331059D01*
X34953500Y63367123D01*
X35024200Y63396408D01*
X35087828Y63438922D01*
X35155300Y63474987D01*
X35214437Y63523519D01*
X35278068Y63566036D01*
X35332184Y63620152D01*
X35391318Y63668682D01*
X35439848Y63727816D01*
X35493964Y63781932D01*
X35493968Y63781938D01*
X37818065Y66106034D01*
X37818068Y66106036D01*
X38033964Y66321932D01*
X38076482Y66385565D01*
X38125012Y66444699D01*
X38161075Y66512169D01*
X38203592Y66575800D01*
X38232879Y66646504D01*
X38268940Y66713970D01*
X38291145Y66787171D01*
X38320435Y66857882D01*
X38335366Y66932947D01*
X38357571Y67006146D01*
X38365069Y67082274D01*
X38380000Y67157338D01*
X38380000Y67233871D01*
X38387498Y67309999D01*
X38380000Y67386127D01*
X38380000Y67462662D01*
X38365069Y67537728D01*
X38357571Y67613852D01*
X38335367Y67687047D01*
X38320435Y67762118D01*
X38291143Y67832834D01*
X38268940Y67906028D01*
X38232882Y67973487D01*
X38203592Y68044200D01*
X38161070Y68107839D01*
X38125012Y68175299D01*
X38076489Y68234425D01*
X38033964Y68298068D01*
X37979838Y68352194D01*
X37931317Y68411317D01*
X37872194Y68459838D01*
X37818068Y68513964D01*
X37754425Y68556489D01*
X37725777Y68579999D01*
X37754437Y68603519D01*
X37818068Y68646036D01*
X37872184Y68700152D01*
X37931318Y68748682D01*
X37979848Y68807816D01*
X38033964Y68861932D01*
X38076481Y68925563D01*
X38125013Y68984700D01*
X38161078Y69052172D01*
X38203592Y69115800D01*
X38232877Y69186500D01*
X38268941Y69253971D01*
X38291148Y69327178D01*
X38320435Y69397882D01*
X38335365Y69472940D01*
X38357572Y69546147D01*
X38365071Y69622283D01*
X38380000Y69697338D01*
X38380000Y69773862D01*
X38387499Y69850000D01*
X38380000Y69926138D01*
X38380000Y70002662D01*
X38365071Y70077717D01*
X38357572Y70153853D01*
X38335365Y70227060D01*
X38320435Y70302118D01*
X38291148Y70372822D01*
X38268941Y70446029D01*
X38232877Y70513500D01*
X38203592Y70584200D01*
X38161078Y70647828D01*
X38125013Y70715300D01*
X38076481Y70774437D01*
X38033964Y70838068D01*
X38032032Y70840000D01*
X44602662Y70840000D01*
X44677717Y70854929D01*
X44753853Y70862428D01*
X44827060Y70884635D01*
X44902118Y70899565D01*
X44972822Y70928852D01*
X45046029Y70951059D01*
X45113500Y70987123D01*
X45184200Y71016408D01*
X45247828Y71058922D01*
X45315300Y71094987D01*
X45374437Y71143519D01*
X45438068Y71186036D01*
X45492184Y71240152D01*
X45551318Y71288682D01*
X45599848Y71347816D01*
X45653964Y71401932D01*
X45696481Y71465563D01*
X45722409Y71497157D01*
X45786036Y71401932D01*
X45790000Y71397968D01*
X45790001Y67045056D01*
X45403150Y66658206D01*
X45357356Y66620624D01*
X45319778Y66574834D01*
X45207399Y66437900D01*
X45132393Y66297572D01*
X45095971Y66229431D01*
X45027353Y66003230D01*
X45024471Y65973964D01*
X45004184Y65767990D01*
X45009990Y65709043D01*
X45009991Y56075346D01*
X44623140Y55688496D01*
X44577346Y55650914D01*
X44517746Y55578290D01*
X44427389Y55468190D01*
X44328923Y55283972D01*
X44315961Y55259721D01*
X44247343Y55033520D01*
X44233946Y54897498D01*
X44224174Y54798280D01*
X44229980Y54739333D01*
X44229981Y45927037D01*
X44133151Y45830207D01*
X44133145Y45830202D01*
X41501486Y43198543D01*
X41374200Y43283592D01*
X41092118Y43400435D01*
X40792662Y43460000D01*
X40487338Y43460000D01*
X40187882Y43400435D01*
X39905800Y43283592D01*
X39651932Y43113964D01*
X39436036Y42898068D01*
X39266408Y42644200D01*
X39149565Y42362118D01*
X39090000Y42062662D01*
X39090000Y41757338D01*
X39149565Y41457882D01*
X39266408Y41175800D01*
X39436036Y40921932D01*
X39651932Y40706036D01*
X39750763Y40640000D01*
X39651932Y40573964D01*
X39436036Y40358068D01*
X39266408Y40104200D01*
X39149565Y39822118D01*
X39090000Y39522662D01*
X39090000Y39217338D01*
X39149565Y38917882D01*
X39266408Y38635800D01*
X39436036Y38381932D01*
X39651932Y38166036D01*
X39750763Y38100000D01*
X39651932Y38033964D01*
X39436036Y37818068D01*
X39266408Y37564200D01*
X39149565Y37282118D01*
X39090000Y36982662D01*
X39090000Y36677338D01*
X39149565Y36377882D01*
X39266408Y36095800D01*
X39436036Y35841932D01*
X39651932Y35626036D01*
X39750763Y35560000D01*
X39651932Y35493964D01*
X39436036Y35278068D01*
X39266408Y35024200D01*
X39149565Y34742118D01*
X39090000Y34442662D01*
X39090000Y34137338D01*
X39149565Y33837882D01*
X39266408Y33555800D01*
X39436036Y33301932D01*
X39651932Y33086036D01*
X39750763Y33020000D01*
X39651932Y32953964D01*
X39436036Y32738068D01*
X39266408Y32484200D01*
X39149565Y32202118D01*
X39090000Y31902662D01*
X39090000Y31597338D01*
X39149565Y31297882D01*
X39266408Y31015800D01*
X39436036Y30761932D01*
X39651932Y30546036D01*
X39750763Y30480000D01*
X39651932Y30413964D01*
X39436036Y30198068D01*
X39266408Y29944200D01*
X39149565Y29662118D01*
X39090000Y29362662D01*
X39090000Y29057338D01*
X39149565Y28757882D01*
X39266408Y28475800D01*
X39436036Y28221932D01*
X39651932Y28006036D01*
X39750763Y27940000D01*
X39651932Y27873964D01*
X39436036Y27658068D01*
X39266408Y27404200D01*
X39149565Y27122118D01*
X39090000Y26822662D01*
X39090000Y26517338D01*
X39149565Y26217882D01*
X39266408Y25935800D01*
X39436036Y25681932D01*
X39651932Y25466036D01*
X39750763Y25400000D01*
X39651932Y25333964D01*
X39436036Y25118068D01*
X39266408Y24864200D01*
X39149565Y24582118D01*
X39090000Y24282662D01*
X39090000Y23977338D01*
X39149565Y23677882D01*
X39266408Y23395800D01*
X39436036Y23141932D01*
X39651932Y22926036D01*
X39750763Y22860000D01*
X39651932Y22793964D01*
X39436036Y22578068D01*
X39266408Y22324200D01*
X39149565Y22042118D01*
X39090000Y21742662D01*
X39090000Y21437338D01*
X39149565Y21137882D01*
X39266408Y20855800D01*
X39436036Y20601932D01*
X39651932Y20386036D01*
X39750763Y20320000D01*
X39651932Y20253964D01*
X39436036Y20038068D01*
X39266408Y19784200D01*
X39149565Y19502118D01*
X39090000Y19202662D01*
X39090000Y18897338D01*
X39149565Y18597882D01*
X39266408Y18315800D01*
X39436036Y18061932D01*
X39651932Y17846036D01*
X39750763Y17780000D01*
X39651932Y17713964D01*
X39436036Y17498068D01*
X39266408Y17244200D01*
X39149565Y16962118D01*
X39090000Y16662662D01*
X39090000Y16357338D01*
X39149565Y16057882D01*
X39266408Y15775800D01*
X39436036Y15521932D01*
X39651932Y15306036D01*
X39750763Y15240000D01*
X39651932Y15173964D01*
X39436036Y14958068D01*
X39266408Y14704200D01*
X39149565Y14422118D01*
X39090000Y14122662D01*
X39090000Y13817338D01*
X39149565Y13517882D01*
X39266408Y13235800D01*
X39436036Y12981932D01*
X39651932Y12766036D01*
X39750763Y12700000D01*
X39651932Y12633964D01*
X39436036Y12418068D01*
X39266408Y12164200D01*
X39149565Y11882118D01*
X39090000Y11582662D01*
X39090000Y11277338D01*
X39149565Y10977882D01*
X39266408Y10695800D01*
X39436036Y10441932D01*
X39651932Y10226036D01*
X39905800Y10056408D01*
X40187882Y9939565D01*
X40487338Y9880000D01*
X40792662Y9880000D01*
X41092118Y9939565D01*
X41374200Y10056408D01*
X41628068Y10226036D01*
X41843964Y10441932D01*
X42013592Y10695800D01*
X42130435Y10977882D01*
X42190000Y11277338D01*
X42190000Y11582662D01*
X42130435Y11882118D01*
X42013592Y12164200D01*
X41843964Y12418068D01*
X41628068Y12633964D01*
X41529237Y12700000D01*
X41628068Y12766036D01*
X41843964Y12981932D01*
X42013592Y13235800D01*
X42130435Y13517882D01*
X42190000Y13817338D01*
X42190000Y14122662D01*
X42130435Y14422118D01*
X42013592Y14704200D01*
X41843964Y14958068D01*
X41628068Y15173964D01*
X41529237Y15240000D01*
X41628068Y15306036D01*
X41843964Y15521932D01*
X42013592Y15775800D01*
X42130435Y16057882D01*
X42190000Y16357338D01*
X42190000Y16662662D01*
X42130435Y16962118D01*
X42013592Y17244200D01*
X41843964Y17498068D01*
X41628068Y17713964D01*
X41529237Y17780000D01*
X41628068Y17846036D01*
X41843964Y18061932D01*
X42013592Y18315800D01*
X42023616Y18339999D01*
X42490863Y18339999D01*
X42549810Y18334193D01*
X42608757Y18339999D01*
X42608760Y18339999D01*
X42785051Y18357362D01*
X43011252Y18425980D01*
X43219720Y18537408D01*
X43402444Y18687365D01*
X43440026Y18733159D01*
X45196851Y20489984D01*
X45242645Y20527566D01*
X45392602Y20710290D01*
X45504030Y20918758D01*
X45572648Y21144959D01*
X45590011Y21321250D01*
X45590011Y21321252D01*
X45595817Y21380199D01*
X45590011Y21439146D01*
X45590011Y26871907D01*
X55100000Y26871907D01*
X55100000Y26468093D01*
X55178780Y26072037D01*
X55333314Y25698961D01*
X55557661Y25363201D01*
X55843201Y25077661D01*
X56178961Y24853314D01*
X56552037Y24698780D01*
X56948093Y24620000D01*
X57351907Y24620000D01*
X57747963Y24698780D01*
X58121039Y24853314D01*
X58456799Y25077661D01*
X58742339Y25363201D01*
X58966686Y25698961D01*
X59121220Y26072037D01*
X59200000Y26468093D01*
X59200000Y26871907D01*
X59121220Y27267963D01*
X58966686Y27641039D01*
X58742339Y27976799D01*
X58456799Y28262339D01*
X58121039Y28486686D01*
X57747963Y28641220D01*
X57351907Y28720000D01*
X56948093Y28720000D01*
X56552037Y28641220D01*
X56178961Y28486686D01*
X55843201Y28262339D01*
X55557661Y27976799D01*
X55333314Y27641039D01*
X55178780Y27267963D01*
X55100000Y26871907D01*
X45590011Y26871907D01*
X45590011Y28924601D01*
X47386860Y30721450D01*
X47432654Y30759032D01*
X47582611Y30941756D01*
X47694039Y31150224D01*
X47762657Y31376425D01*
X47780020Y31552716D01*
X47780020Y31552718D01*
X47785826Y31611665D01*
X47780020Y31670612D01*
X47780020Y34360000D01*
X55382944Y34360000D01*
X55668721Y34074223D01*
X55659565Y34052118D01*
X55600000Y33752662D01*
X55600000Y33644372D01*
X55382949Y33734277D01*
X55102813Y33790000D01*
X54817187Y33790000D01*
X54660000Y33758733D01*
X54502813Y33790000D01*
X54217187Y33790000D01*
X53937051Y33734277D01*
X53673167Y33624973D01*
X53435679Y33466289D01*
X53233711Y33264321D01*
X53075027Y33026833D01*
X52965723Y32762949D01*
X52910000Y32482813D01*
X52910000Y32197187D01*
X52965723Y31917051D01*
X53075027Y31653167D01*
X53233711Y31415679D01*
X53435679Y31213711D01*
X53673167Y31055027D01*
X53937051Y30945723D01*
X54217187Y30890000D01*
X54502813Y30890000D01*
X54660000Y30921267D01*
X54817187Y30890000D01*
X55102813Y30890000D01*
X55382949Y30945723D01*
X55646833Y31055027D01*
X55884321Y31213711D01*
X56086289Y31415679D01*
X56244973Y31653167D01*
X56354277Y31917051D01*
X56410000Y32197187D01*
X56410000Y32230283D01*
X56415800Y32226408D01*
X56697882Y32109565D01*
X56997338Y32050000D01*
X57302662Y32050000D01*
X57602118Y32109565D01*
X57884200Y32226408D01*
X58138068Y32396036D01*
X58353964Y32611932D01*
X58523592Y32865800D01*
X58640435Y33147882D01*
X58700000Y33447338D01*
X58700000Y33752662D01*
X58640435Y34052118D01*
X58523592Y34334200D01*
X58353964Y34588068D01*
X58295992Y34646040D01*
X58264018Y34751442D01*
X58152590Y34959911D01*
X58040211Y35096845D01*
X56770216Y36366840D01*
X56732634Y36412634D01*
X56549910Y36562591D01*
X56341442Y36674019D01*
X56115241Y36742637D01*
X55938950Y36760000D01*
X55938947Y36760000D01*
X55880000Y36765806D01*
X55821053Y36760000D01*
X46794946Y36760000D01*
X46735999Y36765806D01*
X46677052Y36760000D01*
X46677050Y36760000D01*
X46500759Y36742637D01*
X46274558Y36674019D01*
X46080010Y36570031D01*
X46080010Y37170424D01*
X49619586Y40710000D01*
X53854299Y40710000D01*
X53673167Y40634973D01*
X53435679Y40476289D01*
X53233711Y40274321D01*
X53075027Y40036833D01*
X52965723Y39772949D01*
X52910000Y39492813D01*
X52910000Y39207187D01*
X52965723Y38927051D01*
X53075027Y38663167D01*
X53233711Y38425679D01*
X53435679Y38223711D01*
X53673167Y38065027D01*
X53937051Y37955723D01*
X54217187Y37900000D01*
X54502813Y37900000D01*
X54660000Y37931267D01*
X54817187Y37900000D01*
X55102813Y37900000D01*
X55382949Y37955723D01*
X55646833Y38065027D01*
X55884321Y38223711D01*
X56086289Y38425679D01*
X56244973Y38663167D01*
X56354277Y38927051D01*
X56410000Y39207187D01*
X56410000Y39492813D01*
X56354277Y39772949D01*
X56244973Y40036833D01*
X56086289Y40274321D01*
X55884321Y40476289D01*
X55646833Y40634973D01*
X55454992Y40714436D01*
X55586243Y40727363D01*
X55812444Y40795981D01*
X56020912Y40907409D01*
X56203636Y41057366D01*
X56241218Y41103160D01*
X57956840Y42818782D01*
X58002634Y42856364D01*
X58152591Y43039088D01*
X58264019Y43247556D01*
X58332637Y43473757D01*
X58350000Y43650048D01*
X58350000Y43650050D01*
X58355806Y43708997D01*
X58350000Y43767944D01*
X58350000Y44672968D01*
X58353964Y44676932D01*
X58523592Y44930800D01*
X58640435Y45212882D01*
X58700000Y45512338D01*
X58700000Y45817662D01*
X58640435Y46117118D01*
X58523592Y46399200D01*
X58353964Y46653068D01*
X58138068Y46868964D01*
X57884200Y47038592D01*
X57602118Y47155435D01*
X57302662Y47215000D01*
X56997338Y47215000D01*
X56697882Y47155435D01*
X56415800Y47038592D01*
X56161932Y46868964D01*
X55946036Y46653068D01*
X55776408Y46399200D01*
X55659565Y46117118D01*
X55600000Y45817662D01*
X55600000Y45709372D01*
X55382949Y45799277D01*
X55102813Y45855000D01*
X54817187Y45855000D01*
X54660000Y45823733D01*
X54502813Y45855000D01*
X54217187Y45855000D01*
X53937051Y45799277D01*
X53673167Y45689973D01*
X53435679Y45531289D01*
X53233711Y45329321D01*
X53075027Y45091833D01*
X52965723Y44827949D01*
X52910000Y44547813D01*
X52910000Y44262187D01*
X52965723Y43982051D01*
X53075027Y43718167D01*
X53233711Y43480679D01*
X53435679Y43278711D01*
X53673167Y43120027D01*
X53697374Y43110000D01*
X49615410Y43110000D01*
X52036850Y45531440D01*
X52082644Y45569022D01*
X52232601Y45751746D01*
X52344029Y45960214D01*
X52412647Y46186415D01*
X52430010Y46362706D01*
X52430010Y46362708D01*
X52435816Y46421655D01*
X52430010Y46480602D01*
X52430010Y51557813D01*
X52910000Y51557813D01*
X52910000Y51272187D01*
X52965723Y50992051D01*
X53075027Y50728167D01*
X53233711Y50490679D01*
X53435679Y50288711D01*
X53673167Y50130027D01*
X53937051Y50020723D01*
X54217187Y49965000D01*
X54502813Y49965000D01*
X54660000Y49996267D01*
X54817187Y49965000D01*
X55102813Y49965000D01*
X55382949Y50020723D01*
X55646833Y50130027D01*
X55884321Y50288711D01*
X56086289Y50490679D01*
X56244973Y50728167D01*
X56354277Y50992051D01*
X56410000Y51272187D01*
X56410000Y51557813D01*
X56354277Y51837949D01*
X56244973Y52101833D01*
X56086289Y52339321D01*
X55884321Y52541289D01*
X55646833Y52699973D01*
X55382949Y52809277D01*
X55102813Y52865000D01*
X54817187Y52865000D01*
X54660000Y52833733D01*
X54502813Y52865000D01*
X54217187Y52865000D01*
X53937051Y52809277D01*
X53673167Y52699973D01*
X53435679Y52541289D01*
X53233711Y52339321D01*
X53075027Y52101833D01*
X52965723Y51837949D01*
X52910000Y51557813D01*
X52430010Y51557813D01*
X52430010Y51898776D01*
X54431225Y53899990D01*
X55072677Y53899990D01*
X55131624Y53894184D01*
X55190571Y53899990D01*
X55190574Y53899990D01*
X55366865Y53917353D01*
X55593066Y53985971D01*
X55801534Y54097399D01*
X55984258Y54247356D01*
X56021840Y54293150D01*
X56686835Y54958146D01*
X56732634Y54995732D01*
X56882591Y55178456D01*
X56994019Y55386924D01*
X57062637Y55613125D01*
X57080000Y55789416D01*
X57080000Y55789418D01*
X57085806Y55848365D01*
X57080000Y55907312D01*
X57080000Y56168926D01*
X57175013Y56284700D01*
X57318941Y56553971D01*
X57407572Y56846147D01*
X57430000Y57073862D01*
X57430000Y64922662D01*
X57415071Y64997717D01*
X57407572Y65073853D01*
X57385365Y65147060D01*
X57370435Y65222118D01*
X57341148Y65292822D01*
X57318941Y65366029D01*
X57282877Y65433500D01*
X57253592Y65504200D01*
X57211078Y65567828D01*
X57175013Y65635300D01*
X57126481Y65694437D01*
X57083964Y65758068D01*
X57029848Y65812184D01*
X56981318Y65871318D01*
X56922185Y65919847D01*
X56868068Y65973964D01*
X56804433Y66016484D01*
X56745299Y66065013D01*
X56677832Y66101075D01*
X56614200Y66143592D01*
X56543495Y66172879D01*
X56476028Y66208941D01*
X56402825Y66231147D01*
X56332118Y66260435D01*
X56257057Y66275365D01*
X56183852Y66297572D01*
X56107718Y66305071D01*
X56032662Y66320000D01*
X55956138Y66320000D01*
X55880000Y66327499D01*
X55803862Y66320000D01*
X55727338Y66320000D01*
X55652283Y66305071D01*
X55576147Y66297572D01*
X55502940Y66275365D01*
X55427882Y66260435D01*
X55357178Y66231148D01*
X55283971Y66208941D01*
X55216500Y66172877D01*
X55145800Y66143592D01*
X55082172Y66101078D01*
X55014700Y66065013D01*
X54955563Y66016481D01*
X54891932Y65973964D01*
X54837816Y65919848D01*
X54778682Y65871318D01*
X54730153Y65812185D01*
X54676036Y65758068D01*
X54633516Y65694433D01*
X54610000Y65665778D01*
X54586481Y65694437D01*
X54543964Y65758068D01*
X54489848Y65812184D01*
X54441318Y65871318D01*
X54382185Y65919847D01*
X54328068Y65973964D01*
X54264433Y66016484D01*
X54205299Y66065013D01*
X54137832Y66101075D01*
X54074200Y66143592D01*
X54003495Y66172879D01*
X53936028Y66208941D01*
X53862825Y66231147D01*
X53792118Y66260435D01*
X53717057Y66275365D01*
X53643852Y66297572D01*
X53567718Y66305071D01*
X53492662Y66320000D01*
X53416138Y66320000D01*
X53340000Y66327499D01*
X53263862Y66320000D01*
X53187338Y66320000D01*
X53112283Y66305071D01*
X53036147Y66297572D01*
X52962940Y66275365D01*
X52887882Y66260435D01*
X52817178Y66231148D01*
X52743971Y66208941D01*
X52676500Y66172877D01*
X52605800Y66143592D01*
X52542172Y66101078D01*
X52474700Y66065013D01*
X52415563Y66016481D01*
X52351932Y65973964D01*
X52297816Y65919848D01*
X52238682Y65871318D01*
X52190153Y65812185D01*
X52136036Y65758068D01*
X52093516Y65694433D01*
X52044987Y65635299D01*
X52008925Y65567832D01*
X51966408Y65504200D01*
X51937121Y65433495D01*
X51901059Y65366028D01*
X51878853Y65292825D01*
X51849565Y65222118D01*
X51834635Y65147057D01*
X51812428Y65073852D01*
X51804929Y64997718D01*
X51790000Y64922662D01*
X51790000Y64846137D01*
X51790001Y57556667D01*
X51790000Y57556662D01*
X51790000Y57251338D01*
X51790001Y57251333D01*
X51790001Y57073862D01*
X51791508Y57058562D01*
X49810000Y55077054D01*
X49810000Y64922662D01*
X49795071Y64997717D01*
X49787572Y65073853D01*
X49765365Y65147060D01*
X49750435Y65222118D01*
X49721148Y65292822D01*
X49698941Y65366029D01*
X49662877Y65433500D01*
X49633592Y65504200D01*
X49591078Y65567828D01*
X49555013Y65635300D01*
X49506481Y65694437D01*
X49463964Y65758068D01*
X49409848Y65812184D01*
X49361318Y65871318D01*
X49302185Y65919847D01*
X49248068Y65973964D01*
X49184433Y66016484D01*
X49125299Y66065013D01*
X49057832Y66101075D01*
X48994200Y66143592D01*
X48923495Y66172879D01*
X48856028Y66208941D01*
X48782825Y66231147D01*
X48712118Y66260435D01*
X48637057Y66275365D01*
X48563852Y66297572D01*
X48487718Y66305071D01*
X48412662Y66320000D01*
X48336138Y66320000D01*
X48260000Y66327499D01*
X48183862Y66320000D01*
X48173350Y66320000D01*
X48190000Y66489050D01*
X48190000Y66489053D01*
X48195806Y66548000D01*
X48190000Y66606947D01*
X48190000Y71397968D01*
X48193964Y71401932D01*
X48363592Y71655800D01*
X48480435Y71937882D01*
X48540000Y72237338D01*
X48540000Y72542662D01*
X48530205Y72591907D01*
X55100000Y72591907D01*
X55100000Y72188093D01*
X55178780Y71792037D01*
X55333314Y71418961D01*
X55557661Y71083201D01*
X55843201Y70797661D01*
X56178961Y70573314D01*
X56552037Y70418780D01*
X56948093Y70340000D01*
X57351907Y70340000D01*
X57747963Y70418780D01*
X58121039Y70573314D01*
X58456799Y70797661D01*
X58742339Y71083201D01*
X58966686Y71418961D01*
X59121220Y71792037D01*
X59200000Y72188093D01*
X59200000Y72591907D01*
X59121220Y72987963D01*
X58966686Y73361039D01*
X58742339Y73696799D01*
X58456799Y73982339D01*
X58121039Y74206686D01*
X57747963Y74361220D01*
X57351907Y74440000D01*
X56948093Y74440000D01*
X56552037Y74361220D01*
X56178961Y74206686D01*
X55843201Y73982339D01*
X55557661Y73696799D01*
X55333314Y73361039D01*
X55178780Y72987963D01*
X55100000Y72591907D01*
X48530205Y72591907D01*
X48480435Y72842118D01*
X48363592Y73124200D01*
X48193964Y73378068D01*
X47978068Y73593964D01*
X47724200Y73763592D01*
X47442118Y73880435D01*
X47142662Y73940000D01*
X46837338Y73940000D01*
X46537882Y73880435D01*
X46255800Y73763592D01*
X46001932Y73593964D01*
X45786036Y73378068D01*
X45722409Y73282843D01*
X45696481Y73314437D01*
X45653964Y73378068D01*
X45599848Y73432184D01*
X45551318Y73491318D01*
X45492184Y73539848D01*
X45438068Y73593964D01*
X45374437Y73636481D01*
X45315300Y73685013D01*
X45247828Y73721078D01*
X45184200Y73763592D01*
X45113500Y73792877D01*
X45046029Y73828941D01*
X44972822Y73851148D01*
X44902118Y73880435D01*
X44827060Y73895365D01*
X44753853Y73917572D01*
X44677717Y73925071D01*
X44602662Y73940000D01*
X34366127Y73940000D01*
X34289999Y73947498D01*
X34213871Y73940000D01*
X34213862Y73940000D01*
X33986147Y73917572D01*
X33693971Y73828941D01*
X33424700Y73685013D01*
X33188682Y73491318D01*
X33140147Y73432178D01*
X32377970Y72670000D01*
X30327338Y72670000D01*
X30252283Y72655071D01*
X30176147Y72647572D01*
X30102940Y72625365D01*
X30027882Y72610435D01*
X29957178Y72581148D01*
X29883971Y72558941D01*
X29816500Y72522877D01*
X29745800Y72493592D01*
X29682172Y72451078D01*
X29614700Y72415013D01*
X29555563Y72366481D01*
X29491932Y72323964D01*
X29437816Y72269848D01*
X29378682Y72221318D01*
X29330152Y72162184D01*
X29276036Y72108068D01*
X29233519Y72044437D01*
X29184987Y71985300D01*
X29148922Y71917828D01*
X29106408Y71854200D01*
X29077123Y71783500D01*
X29041059Y71716029D01*
X29018852Y71642822D01*
X28989565Y71572118D01*
X28974635Y71497060D01*
X28952428Y71423853D01*
X28944929Y71347717D01*
X28930000Y71272662D01*
X28930000Y71196138D01*
X28922501Y71120000D01*
X28930000Y71043862D01*
X28930000Y70967338D01*
X28944929Y70892283D01*
X28952428Y70816147D01*
X28974635Y70742940D01*
X28989565Y70667882D01*
X29018852Y70597178D01*
X29041059Y70523971D01*
X29077123Y70456500D01*
X29106408Y70385800D01*
X29148922Y70322172D01*
X29184987Y70254700D01*
X29233519Y70195563D01*
X29276036Y70131932D01*
X29277968Y70130000D01*
X24062032Y70130000D01*
X24063964Y70131932D01*
X24106481Y70195563D01*
X24155013Y70254700D01*
X24191078Y70322172D01*
X24233592Y70385800D01*
X24262877Y70456500D01*
X24298941Y70523971D01*
X24321148Y70597178D01*
X24350435Y70667882D01*
X24365365Y70742940D01*
X24387572Y70816147D01*
X24395071Y70892283D01*
X24410000Y70967338D01*
X24410000Y71043862D01*
X24417499Y71120000D01*
X24410000Y71196138D01*
X24410000Y71272662D01*
X24395071Y71347717D01*
X24387572Y71423853D01*
X24365365Y71497060D01*
X24350435Y71572118D01*
X24321148Y71642822D01*
X24298941Y71716029D01*
X24262877Y71783500D01*
X24233592Y71854200D01*
X24191078Y71917828D01*
X24155013Y71985300D01*
X24106481Y72044437D01*
X24063964Y72108068D01*
X24009848Y72162184D01*
X23961318Y72221318D01*
X23902184Y72269848D01*
X23848068Y72323964D01*
X23784437Y72366481D01*
X23725300Y72415013D01*
X23657828Y72451078D01*
X23594200Y72493592D01*
X23523500Y72522877D01*
X23456029Y72558941D01*
X23382822Y72581148D01*
X23312118Y72610435D01*
X23237060Y72625365D01*
X23163853Y72647572D01*
X23087717Y72655071D01*
X23012662Y72670000D01*
X17627338Y72670000D01*
X17552283Y72655071D01*
X17476147Y72647572D01*
X17402940Y72625365D01*
X17327882Y72610435D01*
X17257178Y72581148D01*
X17183971Y72558941D01*
X17116500Y72522877D01*
X17045800Y72493592D01*
X16982172Y72451078D01*
X16914700Y72415013D01*
X16855563Y72366481D01*
X16791932Y72323964D01*
X16737816Y72269848D01*
X16678682Y72221318D01*
X16630152Y72162184D01*
X16576036Y72108068D01*
X16533519Y72044437D01*
X16484987Y71985300D01*
X16448922Y71917828D01*
X16406408Y71854200D01*
X16377123Y71783500D01*
X16341059Y71716029D01*
X16318852Y71642822D01*
X16289565Y71572118D01*
X16274635Y71497060D01*
X16252428Y71423853D01*
X16244929Y71347717D01*
X16230000Y71272662D01*
X16230000Y71196138D01*
X16222501Y71120000D01*
X16230000Y71043862D01*
X16230000Y70967338D01*
X16244929Y70892283D01*
X16252428Y70816147D01*
X16274635Y70742940D01*
X16289565Y70667882D01*
X16318852Y70597178D01*
X16341059Y70523971D01*
X16377123Y70456500D01*
X16406408Y70385800D01*
X16448922Y70322172D01*
X16484987Y70254700D01*
X16533519Y70195563D01*
X16576036Y70131932D01*
X16630152Y70077816D01*
X16678682Y70018682D01*
X16737816Y69970152D01*
X16791932Y69916036D01*
X16855563Y69873519D01*
X16914700Y69824987D01*
X16982172Y69788922D01*
X17045800Y69746408D01*
X17116500Y69717123D01*
X17183971Y69681059D01*
X17257178Y69658852D01*
X17327882Y69629565D01*
X17402940Y69614635D01*
X17476147Y69592428D01*
X17552283Y69584929D01*
X17627338Y69570000D01*
X19117968Y69570000D01*
X19116036Y69568068D01*
X19073519Y69504437D01*
X19024987Y69445300D01*
X18988922Y69377828D01*
X18946408Y69314200D01*
X18917123Y69243500D01*
X18881059Y69176029D01*
X18858852Y69102822D01*
X18829565Y69032118D01*
X18814635Y68957060D01*
X18792428Y68883853D01*
X18784929Y68807717D01*
X18770000Y68732662D01*
X18770000Y68656138D01*
X18762501Y68580000D01*
X18770000Y68503862D01*
X18770000Y68427338D01*
X18784929Y68352283D01*
X18792428Y68276147D01*
X18814635Y68202940D01*
X18829565Y68127882D01*
X18858852Y68057178D01*
X18881059Y67983971D01*
X18917123Y67916500D01*
X18946408Y67845800D01*
X18988922Y67782172D01*
X19024987Y67714700D01*
X19073519Y67655563D01*
X19116036Y67591932D01*
X19117968Y67590000D01*
X4927338Y67590000D01*
X4852283Y67575071D01*
X4776147Y67567572D01*
X4702940Y67545365D01*
X4627882Y67530435D01*
X4557178Y67501148D01*
X4483971Y67478941D01*
X4416500Y67442877D01*
X4345800Y67413592D01*
X4282172Y67371078D01*
X4214700Y67335013D01*
X4155563Y67286481D01*
X4091932Y67243964D01*
X4037816Y67189848D01*
X3978682Y67141318D01*
X3930152Y67082184D01*
X3876036Y67028068D01*
X3833519Y66964437D01*
X3784987Y66905300D01*
X3748922Y66837828D01*
X3706408Y66774200D01*
X3677123Y66703500D01*
X3641059Y66636029D01*
X3618852Y66562822D01*
X3589565Y66492118D01*
X3574635Y66417060D01*
X3552428Y66343853D01*
X3544929Y66267717D01*
X3530000Y66192662D01*
X3530000Y66116138D01*
X3522501Y66040000D01*
X475000Y66040000D01*
X475000Y72591907D01*
X1760000Y72591907D01*
X1760000Y72188093D01*
X1838780Y71792037D01*
X1993314Y71418961D01*
X2217661Y71083201D01*
X2503201Y70797661D01*
X2838961Y70573314D01*
X3212037Y70418780D01*
X3608093Y70340000D01*
X4011907Y70340000D01*
X4407963Y70418780D01*
X4781039Y70573314D01*
X5116799Y70797661D01*
X5402339Y71083201D01*
X5626686Y71418961D01*
X5781220Y71792037D01*
X5860000Y72188093D01*
X5860000Y72591907D01*
X5781220Y72987963D01*
X5626686Y73361039D01*
X5402339Y73696799D01*
X5116799Y73982339D01*
X4781039Y74206686D01*
X4407963Y74361220D01*
X4011907Y74440000D01*
X3608093Y74440000D01*
X3212037Y74361220D01*
X2838961Y74206686D01*
X2503201Y73982339D01*
X2217661Y73696799D01*
X1993314Y73361039D01*
X1838780Y72987963D01*
X1760000Y72591907D01*
X475000Y72591907D01*
X475000Y75725000D01*
X60485001Y75725000D01*
X60485000Y23335000D01*
%TD*%
M02*
