%TF.GenerationSoftware,KiCad,Pcbnew,(5.1.6)-1*%
%TF.CreationDate,2023-04-27T15:29:03-05:00*%
%TF.ProjectId,pcb,7063622e-6b69-4636-9164-5f7063625858,rev?*%
%TF.SameCoordinates,Original*%
%TF.FileFunction,Soldermask,Bot*%
%TF.FilePolarity,Negative*%
%FSLAX46Y46*%
G04 Gerber Fmt 4.6, Leading zero omitted, Abs format (unit mm)*
G04 Created by KiCad (PCBNEW (5.1.6)-1) date 2023-04-27 15:29:03*
%MOMM*%
%LPD*%
G01*
G04 APERTURE LIST*
%ADD10C,2.300000*%
%ADD11C,3.300000*%
%ADD12C,2.000000*%
%ADD13C,2.100000*%
G04 APERTURE END LIST*
D10*
%TO.C,R1*%
X19304000Y29718000D03*
X19304000Y37338000D03*
%TD*%
%TO.C,R4*%
X24384000Y29718000D03*
X24384000Y37338000D03*
%TD*%
%TO.C,R6*%
X21844000Y29718000D03*
X21844000Y37338000D03*
%TD*%
%TO.C,U2*%
X40894000Y6858000D03*
X40894000Y9398000D03*
X40894000Y11938000D03*
X40894000Y14478000D03*
X40894000Y17018000D03*
X40894000Y19558000D03*
X40894000Y22098000D03*
X40894000Y24638000D03*
X40894000Y27178000D03*
X40894000Y29718000D03*
X40894000Y32258000D03*
X40894000Y34798000D03*
X40894000Y37338000D03*
X40894000Y39878000D03*
X40894000Y42418000D03*
X15494000Y42418000D03*
X15494000Y39878000D03*
X15494000Y37338000D03*
X15494000Y34798000D03*
X15494000Y32258000D03*
X15494000Y29718000D03*
X15494000Y27178000D03*
X15494000Y24638000D03*
X15494000Y22098000D03*
X15494000Y19558000D03*
X15494000Y17018000D03*
X15494000Y14478000D03*
X15494000Y11938000D03*
X15494000Y9398000D03*
X15494000Y6858000D03*
%TD*%
D11*
%TO.C,REF\u002A\u002A*%
X47244000Y4318000D03*
%TD*%
%TO.C,REF\u002A\u002A*%
X4064000Y4318000D03*
%TD*%
%TO.C,REF\u002A\u002A*%
X57404000Y27178000D03*
%TD*%
%TO.C,REF\u002A\u002A*%
X57404000Y72898000D03*
%TD*%
%TO.C,REF\u002A\u002A*%
X4064000Y72898000D03*
%TD*%
D10*
%TO.C,J5*%
X56134000Y64008000D03*
X53594000Y64008000D03*
X51054000Y64008000D03*
X48514000Y64008000D03*
%TD*%
%TO.C,C1*%
X9144000Y48133000D03*
X5344000Y48133000D03*
%TD*%
D12*
%TO.C,C3*%
X7874000Y38608000D03*
X7874000Y36308000D03*
%TD*%
D10*
%TO.C,J8*%
X49784000Y72898000D03*
X47244000Y72898000D03*
X44704000Y72898000D03*
%TD*%
%TO.C,R2*%
X8509000Y14478000D03*
X8509000Y22098000D03*
%TD*%
%TO.C,U1*%
X30734000Y52578000D03*
X23114000Y70358000D03*
X30734000Y55118000D03*
X23114000Y67818000D03*
X30734000Y57658000D03*
X23114000Y65278000D03*
X30734000Y60198000D03*
X23114000Y62738000D03*
X30734000Y62738000D03*
X23114000Y60198000D03*
X30734000Y65278000D03*
X23114000Y57658000D03*
X30734000Y67818000D03*
X23114000Y55118000D03*
X30734000Y70358000D03*
X23114000Y52578000D03*
%TD*%
%TO.C,R3*%
X19304000Y18288000D03*
X19304000Y25908000D03*
%TD*%
%TO.C,R5*%
X24384000Y18288000D03*
X24384000Y25908000D03*
%TD*%
%TO.C,R7*%
X21844000Y18288000D03*
X21844000Y25908000D03*
%TD*%
%TO.C,J1*%
X6604000Y58928000D03*
X9144000Y58928000D03*
X11684000Y58928000D03*
X14224000Y58928000D03*
%TD*%
%TO.C,J2*%
X42164000Y65786000D03*
X42164000Y63246000D03*
%TD*%
%TO.C,J3*%
X12954000Y65278000D03*
X12954000Y67818000D03*
%TD*%
%TO.C,C2*%
X42418000Y52324000D03*
X42418000Y57324000D03*
%TD*%
D13*
%TO.C,SW1*%
X54614000Y39858000D03*
X54614000Y32848000D03*
X55214000Y39858000D03*
D10*
X57404000Y38608000D03*
X57404000Y34108000D03*
D13*
X55214000Y32848000D03*
%TD*%
%TO.C,SW2*%
X55214000Y44913000D03*
D10*
X57404000Y46173000D03*
X57404000Y50673000D03*
D13*
X55214000Y51923000D03*
X54614000Y44913000D03*
X54614000Y51923000D03*
%TD*%
D10*
X9144000Y53848000D03*
X33274000Y72898000D03*
X34544000Y70358000D03*
X40386000Y72898000D03*
X20574000Y53848000D03*
X9144000Y64262000D03*
X38354000Y41148000D03*
X38354000Y6858000D03*
X38354000Y43688000D03*
X38354000Y46228000D03*
X18034000Y43688000D03*
X43180000Y45720000D03*
X34544000Y65278000D03*
X42164000Y68326000D03*
X39116000Y63246000D03*
X34544000Y57658000D03*
X12954000Y11938000D03*
X12954000Y14478000D03*
X12954000Y17018000D03*
X38354000Y29718000D03*
X38354000Y24638000D03*
X43434000Y14478000D03*
X12954000Y62738000D03*
X20574000Y57658000D03*
X20574000Y65278000D03*
X12954000Y70358000D03*
X25654000Y47244000D03*
X31496000Y47244000D03*
X33274000Y67818000D03*
X27432000Y49403000D03*
X12954000Y37338000D03*
X38354000Y27178000D03*
X43434000Y17018000D03*
X43434000Y11938000D03*
X11684000Y51308000D03*
X11684000Y6858000D03*
X12954000Y29718000D03*
X12954000Y27178000D03*
M02*
