M48
; DRILL file {KiCad (5.1.6)-1} date 03/25/23 10:50:20
; FORMAT={-:-/ absolute / metric / decimal}
; #@! TF.CreationDate,2023-03-25T10:50:20-05:00
; #@! TF.GenerationSoftware,Kicad,Pcbnew,(5.1.6)-1
FMAT,2
METRIC
T1C0.900
T2C1.000
T3C3.200
%
G90
G05
T1
X10.16Y63.5
X10.16Y55.88
X10.3Y39.37
X14.986Y58.42
X17.78Y71.12
X17.78Y44.45
X17.78Y41.91
X17.78Y26.67
X17.78Y21.59
X19.05Y6.35
X20.32Y68.58
X20.32Y44.45
X22.86Y49.53
X22.86Y44.45
X27.94Y41.91
X27.94Y6.35
X33.02Y71.12
X33.02Y53.34
X33.02Y49.53
X34.29Y64.77
X34.29Y58.42
X35.56Y44.45
X40.64Y49.53
X47.498Y49.53
X20.32Y21.59
X20.32Y13.97
X15.24Y54.71
X15.24Y52.41
X5.09Y13.335
X8.89Y13.335
X15.24Y41.91
X15.24Y39.37
X15.24Y36.83
X15.24Y34.29
X15.24Y31.75
X15.24Y29.21
X15.24Y26.67
X15.24Y24.13
X15.24Y21.59
X15.24Y19.05
X15.24Y16.51
X15.24Y13.97
X15.24Y11.43
X15.24Y8.89
X15.24Y6.35
X40.64Y41.91
X40.64Y39.37
X40.64Y36.83
X40.64Y34.29
X40.64Y31.75
X40.64Y29.21
X40.64Y26.67
X40.64Y24.13
X40.64Y21.59
X40.64Y19.05
X40.64Y16.51
X40.64Y13.97
X40.64Y11.43
X40.64Y8.89
X40.64Y6.35
X36.84Y54.61
X40.64Y54.61
X3.81Y26.67
X11.43Y26.67
X22.86Y71.12
X22.86Y68.58
X22.86Y66.04
X22.86Y63.5
X22.86Y60.96
X22.86Y58.42
X22.86Y55.88
X22.86Y53.34
X30.48Y71.12
X30.48Y68.58
X30.48Y66.04
X30.48Y63.5
X30.48Y60.96
X30.48Y58.42
X30.48Y55.88
X30.48Y53.34
X54.36Y51.415
X54.36Y44.405
X54.96Y51.415
X54.96Y44.405
X57.15Y50.165
X57.15Y45.665
X54.36Y39.35
X54.36Y32.34
X54.96Y39.35
X54.96Y32.34
X57.15Y38.1
X57.15Y33.6
T2
X5.08Y55.88
X5.08Y53.34
X5.08Y50.8
X5.08Y66.04
X5.08Y63.5
X48.26Y64.77
X50.8Y64.77
X53.34Y64.77
X55.88Y64.77
X5.08Y21.59
X7.62Y21.59
X48.26Y57.404
X50.8Y57.404
X53.34Y57.404
X55.88Y57.404
X6.35Y41.91
X6.35Y39.37
X6.35Y36.83
X6.35Y34.29
X44.45Y72.39
X46.99Y72.39
X49.53Y72.39
X36.83Y69.85
X36.83Y67.31
T3
X57.15Y72.39
X3.81Y3.81
X57.15Y26.67
X46.99Y3.81
X3.81Y72.39
T0
M30
