M48
; DRILL file {KiCad (5.1.6)-1} date 05/06/23 10:29:26
; FORMAT={-:-/ absolute / metric / decimal}
; #@! TF.CreationDate,2023-05-06T10:29:26-05:00
; #@! TF.GenerationSoftware,Kicad,Pcbnew,(5.1.6)-1
FMAT,2
METRIC
T1C0.900
T2C1.000
T3C3.200
%
G90
G05
T1
X9.144Y64.262
X9.144Y53.848
X11.684Y51.308
X11.684Y6.858
X12.954Y70.358
X12.954Y62.738
X12.954Y37.338
X12.954Y29.718
X12.954Y27.178
X12.954Y17.018
X12.954Y14.478
X12.954Y11.938
X18.034Y43.688
X20.574Y65.278
X20.574Y57.658
X20.574Y53.848
X25.654Y47.244
X27.432Y49.403
X31.496Y47.244
X33.274Y72.898
X33.274Y67.818
X34.544Y70.358
X34.544Y65.278
X34.544Y57.658
X38.354Y46.228
X38.354Y43.688
X38.354Y41.148
X38.354Y29.718
X38.354Y27.178
X38.354Y24.638
X38.354Y6.858
X39.116Y63.246
X40.386Y72.898
X42.164Y68.326
X43.18Y45.72
X43.434Y17.018
X43.434Y14.478
X43.434Y11.938
X24.384Y37.338
X24.384Y29.718
X54.614Y51.923
X54.614Y44.913
X55.214Y51.923
X55.214Y44.913
X57.404Y50.673
X57.404Y46.173
X40.64Y56.896
X40.64Y53.096
X19.304Y37.338
X19.304Y29.718
X15.494Y42.418
X15.494Y39.878
X15.494Y37.338
X15.494Y34.798
X15.494Y32.258
X15.494Y29.718
X15.494Y27.178
X15.494Y24.638
X15.494Y22.098
X15.494Y19.558
X15.494Y17.018
X15.494Y14.478
X15.494Y11.938
X15.494Y9.398
X15.494Y6.858
X40.894Y42.418
X40.894Y39.878
X40.894Y37.338
X40.894Y34.798
X40.894Y32.258
X40.894Y29.718
X40.894Y27.178
X40.894Y24.638
X40.894Y22.098
X40.894Y19.558
X40.894Y17.018
X40.894Y14.478
X40.894Y11.938
X40.894Y9.398
X40.894Y6.858
X21.844Y25.908
X21.844Y18.288
X23.114Y70.358
X23.114Y67.818
X23.114Y65.278
X23.114Y62.738
X23.114Y60.198
X23.114Y57.658
X23.114Y55.118
X23.114Y52.578
X30.734Y70.358
X30.734Y67.818
X30.734Y65.278
X30.734Y62.738
X30.734Y60.198
X30.734Y57.658
X30.734Y55.118
X30.734Y52.578
X7.874Y38.608
X7.874Y36.308
X19.304Y25.908
X19.304Y18.288
X21.844Y37.338
X21.844Y29.718
X5.344Y48.133
X9.144Y48.133
X54.614Y39.858
X54.614Y32.848
X55.214Y39.858
X55.214Y32.848
X57.404Y38.608
X57.404Y34.108
X8.509Y22.098
X8.509Y14.478
X24.384Y25.908
X24.384Y18.288
T2
X42.164Y65.786
X42.164Y63.246
X6.604Y58.928
X9.144Y58.928
X11.684Y58.928
X14.224Y58.928
X44.704Y72.898
X47.244Y72.898
X49.784Y72.898
X48.514Y64.008
X51.054Y64.008
X53.594Y64.008
X56.134Y64.008
X12.954Y67.818
X12.954Y65.278
T3
X47.244Y4.318
X4.064Y72.898
X4.064Y4.318
X57.404Y27.178
X57.404Y72.898
T0
M30
