%TF.GenerationSoftware,KiCad,Pcbnew,(5.1.6)-1*%
%TF.CreationDate,2023-06-23T05:36:35-05:00*%
%TF.ProjectId,pcb,7063622e-6b69-4636-9164-5f7063625858,rev?*%
%TF.SameCoordinates,Original*%
%TF.FileFunction,Soldermask,Bot*%
%TF.FilePolarity,Negative*%
%FSLAX46Y46*%
G04 Gerber Fmt 4.6, Leading zero omitted, Abs format (unit mm)*
G04 Created by KiCad (PCBNEW (5.1.6)-1) date 2023-06-23 05:36:35*
%MOMM*%
%LPD*%
G01*
G04 APERTURE LIST*
%ADD10C,2.300000*%
%ADD11C,3.300000*%
%ADD12C,2.100000*%
G04 APERTURE END LIST*
D10*
%TO.C,U2*%
X40624000Y6318000D03*
X40624000Y8858000D03*
X40624000Y11398000D03*
X40624000Y13938000D03*
X40624000Y16478000D03*
X40624000Y19018000D03*
X40624000Y21558000D03*
X40624000Y24098000D03*
X40624000Y26638000D03*
X40624000Y29178000D03*
X40624000Y31718000D03*
X40624000Y34258000D03*
X40624000Y36798000D03*
X40624000Y39338000D03*
X40624000Y41878000D03*
X15224000Y41878000D03*
X15224000Y39338000D03*
X15224000Y36798000D03*
X15224000Y34258000D03*
X15224000Y31718000D03*
X15224000Y29178000D03*
X15224000Y26638000D03*
X15224000Y24098000D03*
X15224000Y21558000D03*
X15224000Y19018000D03*
X15224000Y16478000D03*
X15224000Y13938000D03*
X15224000Y11398000D03*
X15224000Y8858000D03*
X15224000Y6318000D03*
%TD*%
%TO.C,R1*%
X19034000Y31718000D03*
X19034000Y39338000D03*
%TD*%
%TO.C,R4*%
X24114000Y31718000D03*
X24114000Y39338000D03*
%TD*%
%TO.C,R6*%
X21574000Y31718000D03*
X21574000Y39338000D03*
%TD*%
D11*
%TO.C,REF\u002A\u002A*%
X46974000Y3778000D03*
%TD*%
%TO.C,REF\u002A\u002A*%
X3794000Y3778000D03*
%TD*%
%TO.C,REF\u002A\u002A*%
X57134000Y26638000D03*
%TD*%
%TO.C,REF\u002A\u002A*%
X57134000Y72358000D03*
%TD*%
%TO.C,REF\u002A\u002A*%
X3794000Y72358000D03*
%TD*%
D10*
%TO.C,J5*%
X55864000Y63468000D03*
X53324000Y63468000D03*
X50784000Y63468000D03*
X48244000Y63468000D03*
%TD*%
%TO.C,C1*%
X8890000Y40640000D03*
X5090000Y40640000D03*
%TD*%
%TO.C,J8*%
X43180000Y71120000D03*
X45720000Y71120000D03*
X48260000Y71120000D03*
%TD*%
%TO.C,R3*%
X19034000Y20288000D03*
X19034000Y27908000D03*
%TD*%
%TO.C,R5*%
X24114000Y20288000D03*
X24114000Y27908000D03*
%TD*%
%TO.C,R7*%
X21574000Y20288000D03*
X21574000Y27908000D03*
%TD*%
%TO.C,J1*%
X13970000Y54610000D03*
X11430000Y54610000D03*
X8890000Y54610000D03*
X6350000Y54610000D03*
%TD*%
D12*
%TO.C,SW1*%
X54344000Y39318000D03*
X54344000Y32308000D03*
X54944000Y39318000D03*
D10*
X57134000Y38068000D03*
X57134000Y33568000D03*
D12*
X54944000Y32308000D03*
%TD*%
%TO.C,SW2*%
X54944000Y44373000D03*
D10*
X57134000Y45633000D03*
X57134000Y50133000D03*
D12*
X54944000Y51383000D03*
X54344000Y44373000D03*
X54344000Y51383000D03*
%TD*%
D10*
%TO.C,D1*%
X22860000Y55880000D03*
X30480000Y55880000D03*
%TD*%
%TO.C,J2*%
X20320000Y67310000D03*
X22860000Y67310000D03*
%TD*%
%TO.C,J3*%
X22860000Y64770000D03*
X20320000Y64770000D03*
%TD*%
%TO.C,Q1*%
X6350000Y13970000D03*
X6350000Y11430000D03*
X6350000Y16510000D03*
%TD*%
%TO.C,Q2*%
X5080000Y26670000D03*
X5080000Y29210000D03*
X5080000Y31750000D03*
%TD*%
%TO.C,R2*%
X43180000Y57150000D03*
X50800000Y57150000D03*
%TD*%
%TO.C,R8*%
X11430000Y13970000D03*
X11430000Y21590000D03*
%TD*%
%TO.C,R9*%
X8890000Y25400000D03*
X8890000Y33020000D03*
%TD*%
%TO.C,C2*%
X36830000Y6350000D03*
X33030000Y6350000D03*
%TD*%
%TO.C,J4*%
X27940000Y64770000D03*
X27940000Y67310000D03*
%TD*%
%TO.C,J6*%
X25400000Y64770000D03*
X25400000Y67310000D03*
%TD*%
X8890000Y48260000D03*
X43180000Y50800000D03*
X26670000Y50800000D03*
X26670000Y48260000D03*
X44450000Y8890000D03*
X44450000Y48260000D03*
X22860000Y45720000D03*
X11430000Y45720000D03*
M02*
