%TF.GenerationSoftware,KiCad,Pcbnew,(5.1.6)-1*%
%TF.CreationDate,2023-06-23T05:36:35-05:00*%
%TF.ProjectId,pcb,7063622e-6b69-4636-9164-5f7063625858,rev?*%
%TF.SameCoordinates,Original*%
%TF.FileFunction,Copper,L2,Bot*%
%TF.FilePolarity,Positive*%
%FSLAX46Y46*%
G04 Gerber Fmt 4.6, Leading zero omitted, Abs format (unit mm)*
G04 Created by KiCad (PCBNEW (5.1.6)-1) date 2023-06-23 05:36:35*
%MOMM*%
%LPD*%
G01*
G04 APERTURE LIST*
%TA.AperFunction,ComponentPad*%
%ADD10C,2.200000*%
%TD*%
%TA.AperFunction,ComponentPad*%
%ADD11C,2.000000*%
%TD*%
%TA.AperFunction,ViaPad*%
%ADD12C,2.200000*%
%TD*%
%TA.AperFunction,Conductor*%
%ADD13C,1.500000*%
%TD*%
%TA.AperFunction,Conductor*%
%ADD14C,2.200000*%
%TD*%
%TA.AperFunction,Conductor*%
%ADD15C,2.400000*%
%TD*%
%TA.AperFunction,Conductor*%
%ADD16C,0.300000*%
%TD*%
G04 APERTURE END LIST*
D10*
%TO.P,U2,30*%
%TO.N,+3V3*%
X40624000Y6318000D03*
%TO.P,U2,29*%
%TO.N,GND*%
X40624000Y8858000D03*
%TO.P,U2,28*%
%TO.N,Net-(U2-Pad28)*%
X40624000Y11398000D03*
%TO.P,U2,27*%
%TO.N,Net-(U2-Pad27)*%
X40624000Y13938000D03*
%TO.P,U2,26*%
%TO.N,Net-(U2-Pad26)*%
X40624000Y16478000D03*
%TO.P,U2,25*%
%TO.N,SW1*%
X40624000Y19018000D03*
%TO.P,U2,24*%
%TO.N,SW2*%
X40624000Y21558000D03*
%TO.P,U2,23*%
%TO.N,Net-(U2-Pad23)*%
X40624000Y24098000D03*
%TO.P,U2,22*%
%TO.N,Net-(U2-Pad22)*%
X40624000Y26638000D03*
%TO.P,U2,21*%
%TO.N,Net-(U2-Pad21)*%
X40624000Y29178000D03*
%TO.P,U2,20*%
%TO.N,SDA*%
X40624000Y31718000D03*
%TO.P,U2,19*%
%TO.N,Net-(U2-Pad19)*%
X40624000Y34258000D03*
%TO.P,U2,18*%
%TO.N,Net-(U2-Pad18)*%
X40624000Y36798000D03*
%TO.P,U2,17*%
%TO.N,SCL*%
X40624000Y39338000D03*
%TO.P,U2,16*%
%TO.N,LEDS*%
X40624000Y41878000D03*
%TO.P,U2,15*%
%TO.N,Net-(U2-Pad15)*%
X15224000Y41878000D03*
%TO.P,U2,14*%
%TO.N,Net-(U2-Pad14)*%
X15224000Y39338000D03*
%TO.P,U2,13*%
%TO.N,S5V*%
X15224000Y36798000D03*
%TO.P,U2,12*%
%TO.N,SBUS*%
X15224000Y34258000D03*
%TO.P,U2,11*%
%TO.N,SBAT*%
X15224000Y31718000D03*
%TO.P,U2,10*%
%TO.N,Net-(U2-Pad10)*%
X15224000Y29178000D03*
%TO.P,U2,9*%
%TO.N,Net-(U2-Pad9)*%
X15224000Y26638000D03*
%TO.P,U2,8*%
%TO.N,Net-(U2-Pad8)*%
X15224000Y24098000D03*
%TO.P,U2,7*%
%TO.N,PWM*%
X15224000Y21558000D03*
%TO.P,U2,6*%
%TO.N,Net-(U2-Pad6)*%
X15224000Y19018000D03*
%TO.P,U2,5*%
%TO.N,Net-(U2-Pad5)*%
X15224000Y16478000D03*
%TO.P,U2,4*%
%TO.N,Net-(U2-Pad4)*%
X15224000Y13938000D03*
%TO.P,U2,3*%
%TO.N,Net-(U2-Pad3)*%
X15224000Y11398000D03*
%TO.P,U2,2*%
%TO.N,GND*%
X15224000Y8858000D03*
%TO.P,U2,1*%
%TO.N,+5V*%
X15224000Y6318000D03*
%TD*%
%TO.P,R1,1*%
%TO.N,SBAT*%
X19034000Y31718000D03*
%TO.P,R1,2*%
%TO.N,VBAT*%
X19034000Y39338000D03*
%TD*%
%TO.P,R4,1*%
%TO.N,S5V*%
X24114000Y31718000D03*
%TO.P,R4,2*%
%TO.N,+5V*%
X24114000Y39338000D03*
%TD*%
%TO.P,R6,1*%
%TO.N,SBUS*%
X21574000Y31718000D03*
%TO.P,R6,2*%
%TO.N,VBUS*%
X21574000Y39338000D03*
%TD*%
%TO.P,J5,4*%
%TO.N,SDA*%
X55864000Y63468000D03*
%TO.P,J5,3*%
%TO.N,SCL*%
X53324000Y63468000D03*
%TO.P,J5,2*%
%TO.N,GND*%
X50784000Y63468000D03*
%TO.P,J5,1*%
%TO.N,+3V3*%
X48244000Y63468000D03*
%TD*%
%TO.P,C1,1*%
%TO.N,+5V*%
X8890000Y40640000D03*
%TO.P,C1,2*%
%TO.N,GND*%
X5090000Y40640000D03*
%TD*%
%TO.P,J8,1*%
%TO.N,GND*%
X43180000Y71120000D03*
%TO.P,J8,2*%
%TO.N,LEDS*%
X45720000Y71120000D03*
%TO.P,J8,3*%
%TO.N,+5V*%
X48260000Y71120000D03*
%TD*%
%TO.P,R3,2*%
%TO.N,GND*%
X19034000Y20288000D03*
%TO.P,R3,1*%
%TO.N,SBAT*%
X19034000Y27908000D03*
%TD*%
%TO.P,R5,2*%
%TO.N,GND*%
X24114000Y20288000D03*
%TO.P,R5,1*%
%TO.N,S5V*%
X24114000Y27908000D03*
%TD*%
%TO.P,R7,2*%
%TO.N,GND*%
X21574000Y20288000D03*
%TO.P,R7,1*%
%TO.N,SBUS*%
X21574000Y27908000D03*
%TD*%
%TO.P,J1,1*%
%TO.N,GND*%
X13970000Y54610000D03*
%TO.P,J1,2*%
%TO.N,VBUS*%
X11430000Y54610000D03*
%TO.P,J1,3*%
%TO.N,VBAT*%
X8890000Y54610000D03*
%TO.P,J1,4*%
%TO.N,+5V*%
X6350000Y54610000D03*
%TD*%
D11*
%TO.P,SW1,*%
%TO.N,*%
X54344000Y39318000D03*
X54344000Y32308000D03*
X54944000Y39318000D03*
D10*
%TO.P,SW1,1*%
%TO.N,SW1*%
X57134000Y38068000D03*
%TO.P,SW1,2*%
%TO.N,GND*%
X57134000Y33568000D03*
D11*
%TO.P,SW1,*%
%TO.N,*%
X54944000Y32308000D03*
%TD*%
%TO.P,SW2,*%
%TO.N,*%
X54944000Y44373000D03*
D10*
%TO.P,SW2,2*%
%TO.N,SW2*%
X57134000Y45633000D03*
%TO.P,SW2,1*%
%TO.N,GND*%
X57134000Y50133000D03*
D11*
%TO.P,SW2,*%
%TO.N,*%
X54944000Y51383000D03*
X54344000Y44373000D03*
X54344000Y51383000D03*
%TD*%
D10*
%TO.P,D1,1*%
%TO.N,COIL+*%
X22860000Y55880000D03*
%TO.P,D1,2*%
%TO.N,GND*%
X30480000Y55880000D03*
%TD*%
%TO.P,J2,1*%
%TO.N,GND*%
X20320000Y67310000D03*
%TO.P,J2,2*%
%TO.N,COIL+*%
X22860000Y67310000D03*
%TD*%
%TO.P,J3,2*%
%TO.N,COIL+*%
X22860000Y64770000D03*
%TO.P,J3,1*%
%TO.N,GND*%
X20320000Y64770000D03*
%TD*%
%TO.P,Q1,2*%
%TO.N,Net-(Q1-Pad2)*%
X6350000Y13970000D03*
%TO.P,Q1,3*%
%TO.N,GND*%
X6350000Y11430000D03*
%TO.P,Q1,1*%
%TO.N,Net-(Q1-Pad1)*%
X6350000Y16510000D03*
%TD*%
%TO.P,Q2,1*%
%TO.N,Net-(Q1-Pad1)*%
X5080000Y26670000D03*
%TO.P,Q2,2*%
%TO.N,COIL+*%
X5080000Y29210000D03*
%TO.P,Q2,3*%
%TO.N,+5V*%
X5080000Y31750000D03*
%TD*%
%TO.P,R2,1*%
%TO.N,+5V*%
X43180000Y57150000D03*
%TO.P,R2,2*%
%TO.N,SCL*%
X50800000Y57150000D03*
%TD*%
%TO.P,R8,2*%
%TO.N,Net-(Q1-Pad2)*%
X11430000Y13970000D03*
%TO.P,R8,1*%
%TO.N,PWM*%
X11430000Y21590000D03*
%TD*%
%TO.P,R9,1*%
%TO.N,Net-(Q1-Pad1)*%
X8890000Y25400000D03*
%TO.P,R9,2*%
%TO.N,+5V*%
X8890000Y33020000D03*
%TD*%
%TO.P,C2,1*%
%TO.N,+3V3*%
X36830000Y6350000D03*
%TO.P,C2,2*%
%TO.N,GND*%
X33030000Y6350000D03*
%TD*%
%TO.P,J4,1*%
%TO.N,GND*%
X27940000Y64770000D03*
%TO.P,J4,2*%
%TO.N,Net-(J4-Pad2)*%
X27940000Y67310000D03*
%TD*%
%TO.P,J6,2*%
%TO.N,COIL+*%
X25400000Y64770000D03*
%TO.P,J6,1*%
%TO.N,Net-(J4-Pad2)*%
X25400000Y67310000D03*
%TD*%
D12*
%TO.N,+5V*%
X8890000Y48260000D03*
X43180000Y50800000D03*
X26670000Y50800000D03*
X26670000Y48260000D03*
%TO.N,+3V3*%
X44450000Y8890000D03*
X44450000Y48260000D03*
%TO.N,COIL+*%
X22860000Y45720000D03*
X11430000Y45720000D03*
%TD*%
D13*
%TO.N,GND*%
X57134000Y33568000D02*
X56443999Y34258001D01*
D14*
%TO.N,+5V*%
X8890000Y33020000D02*
X7620000Y31750000D01*
X7620000Y31750000D02*
X5080000Y31750000D01*
X16779634Y6318000D02*
X26670000Y16208366D01*
X15224000Y6318000D02*
X16779634Y6318000D01*
D15*
X8890000Y48260000D02*
X8890000Y33020000D01*
D14*
X6350000Y54610000D02*
X6350000Y50800000D01*
X6350000Y50800000D02*
X8890000Y48260000D01*
X26670000Y50800000D02*
X26670000Y50800000D01*
X43180000Y50800000D02*
X43180000Y57150000D01*
X43180000Y57150000D02*
X43180000Y62230000D01*
X43180000Y62230000D02*
X48260000Y67310000D01*
X48260000Y67310000D02*
X48260000Y71120000D01*
X26638000Y39338000D02*
X26670000Y39370000D01*
X24114000Y39338000D02*
X26638000Y39338000D01*
D15*
X26670000Y50800000D02*
X26670000Y16208366D01*
D14*
%TO.N,+3V3*%
X41878000Y6318000D02*
X44450000Y8890000D01*
X40624000Y6318000D02*
X41878000Y6318000D01*
D13*
X47894009Y63134009D02*
X48260000Y63500000D01*
D14*
X40624000Y6318000D02*
X36862000Y6318000D01*
X45580010Y61235884D02*
X48052063Y63707937D01*
X45580010Y49390010D02*
X44450000Y48260000D01*
X45580010Y61235884D02*
X45580010Y49390010D01*
D13*
%TO.N,SDA*%
X46113980Y35652346D02*
X46113980Y41017980D01*
X40624000Y31718000D02*
X42179634Y31718000D01*
X42179634Y31718000D02*
X46113980Y35652346D01*
X46113980Y41017980D02*
X50784000Y45688000D01*
X50784000Y45688000D02*
X50784000Y52038000D01*
X50784000Y52038000D02*
X55024010Y56278009D01*
X55024010Y56278009D02*
X55024010Y62198000D01*
X55024010Y62198000D02*
X55864000Y62198000D01*
X55864000Y62198000D02*
X55864000Y63468000D01*
D14*
X40624000Y31718000D02*
X41679850Y31718000D01*
D13*
%TO.N,SCL*%
X42519823Y39827999D02*
X49083990Y46392166D01*
X49083990Y46392166D02*
X49083990Y52742167D01*
X49083991Y52742167D02*
X53324000Y56982176D01*
X53324000Y56982176D02*
X53324000Y63468000D01*
X53324000Y56982176D02*
X51602824Y56982176D01*
X51602824Y56982176D02*
X51435000Y57150000D01*
X41113999Y39827999D02*
X42519823Y39827999D01*
X40624000Y39338000D02*
X41113999Y39827999D01*
D14*
X40624000Y39338000D02*
X41878000Y39338000D01*
X41878000Y39338000D02*
X41846000Y39370000D01*
%TO.N,LEDS*%
X45720000Y71120000D02*
X45720000Y68164126D01*
X45720000Y68164126D02*
X40640000Y63084126D01*
D15*
X40640000Y63084126D02*
X40640000Y41910000D01*
D13*
%TO.N,SW1*%
X40624000Y19018000D02*
X41259000Y19018000D01*
X41259000Y19018000D02*
X43799000Y21558000D01*
X43799000Y21698997D02*
X44374011Y22274008D01*
X43799000Y21558000D02*
X43799000Y21698997D01*
X44374011Y22274008D02*
X44374011Y29104023D01*
X49527989Y34258001D02*
X49012994Y33743006D01*
X44374011Y29104023D02*
X49012994Y33743006D01*
X49514000Y34244012D02*
X49514000Y34274000D01*
X49012994Y33743006D02*
X49514000Y34244012D01*
X49514000Y34274000D02*
X52070000Y36830000D01*
X52070000Y36830000D02*
X55880000Y36830000D01*
X55880000Y36830000D02*
X57150000Y38100000D01*
%TO.N,SW2*%
X57134000Y43676998D02*
X57134000Y45688000D01*
X47813990Y40313814D02*
X49954088Y42453912D01*
X47813990Y34948179D02*
X47813990Y40313814D01*
X40624000Y21558000D02*
X41253826Y21558000D01*
X41253826Y21558000D02*
X42674001Y22978175D01*
X55880001Y42422999D02*
X57134000Y43676998D01*
X49985001Y42422999D02*
X55880001Y42422999D01*
X42674001Y22978175D02*
X42674001Y29813000D01*
X49954088Y42453912D02*
X49985001Y42422999D01*
X42674001Y29813000D02*
X42678811Y29813000D01*
X42678811Y29813000D02*
X47813990Y34948179D01*
D14*
%TO.N,VBUS*%
X21574000Y39338000D02*
X21574000Y42364252D01*
X21574000Y42364252D02*
X11430000Y52508252D01*
X11430000Y52508252D02*
X11430000Y54610000D01*
%TO.N,VBAT*%
X19034000Y41510126D02*
X8890000Y51654126D01*
X19034000Y39338000D02*
X19034000Y41510126D01*
X8890000Y51654126D02*
X8890000Y52070000D01*
X8890000Y52070000D02*
X8890000Y54610000D01*
D13*
%TO.N,SBUS*%
X21574000Y31718000D02*
X21574000Y32093151D01*
X15686002Y34290000D02*
X15240000Y34290000D01*
D14*
X21574000Y27908000D02*
X21574000Y31734000D01*
D13*
X15272000Y34258000D02*
X15761990Y33768010D01*
X15224000Y34258000D02*
X15272000Y34258000D01*
X19899142Y33800008D02*
X21590000Y32109150D01*
X15761990Y33768010D02*
X15793988Y33800008D01*
X15793988Y33800008D02*
X19899142Y33800008D01*
X21590000Y32109150D02*
X21590000Y31750000D01*
D14*
%TO.N,S5V*%
X24114000Y27908000D02*
X24114000Y31734000D01*
D13*
X15224000Y36798000D02*
X15718002Y36798000D01*
X15718002Y36798000D02*
X16956002Y35560000D01*
X20647151Y35560000D02*
X24130000Y32077151D01*
X16956002Y35560000D02*
X20647151Y35560000D01*
X24130000Y32077151D02*
X24130000Y31750000D01*
D14*
%TO.N,SBAT*%
X19034000Y27908000D02*
X19034000Y31734000D01*
X15224000Y31718000D02*
X19018000Y31718000D01*
X19018000Y31718000D02*
X19050000Y31750000D01*
%TO.N,COIL+*%
X5080000Y29210000D02*
X8474126Y29210000D01*
X8474126Y29210000D02*
X11430000Y32165874D01*
X11430000Y32165874D02*
X11430000Y43180000D01*
X11430000Y43180000D02*
X11430000Y45720000D01*
X11430000Y45720000D02*
X11430000Y45720000D01*
X22860000Y45720000D02*
X22860000Y67310000D01*
X22860000Y64770000D02*
X25400000Y64770000D01*
%TO.N,Net-(Q1-Pad2)*%
X11430000Y13970000D02*
X6350000Y13970000D01*
%TO.N,Net-(Q1-Pad1)*%
X6350000Y16510000D02*
X8890000Y16510000D01*
X8890000Y25400000D02*
X7620000Y26670000D01*
X7620000Y26670000D02*
X5080000Y26670000D01*
D15*
X8890000Y25400000D02*
X8890000Y16510000D01*
D14*
%TO.N,PWM*%
X15224000Y21558000D02*
X11462000Y21558000D01*
X11462000Y21558000D02*
X11430000Y21590000D01*
D13*
%TO.N,Net-(U2-Pad15)*%
X15166165Y41820165D02*
X15224000Y41878000D01*
%TO.N,Net-(U2-Pad6)*%
X15732000Y19018000D02*
X15224000Y19018000D01*
D14*
%TO.N,Net-(J4-Pad2)*%
X25400000Y67310000D02*
X27940000Y67310000D01*
%TD*%
D16*
%TO.N,GND*%
G36*
X61789000Y23253000D02*
G01*
X50804874Y23253000D01*
X50784000Y23255056D01*
X50763126Y23253000D01*
X50700686Y23246850D01*
X50620573Y23222548D01*
X50546740Y23183084D01*
X50482026Y23129974D01*
X50428916Y23065260D01*
X50389452Y22991427D01*
X50365150Y22911314D01*
X50356944Y22828000D01*
X50359001Y22807116D01*
X50359000Y393000D01*
X409000Y393000D01*
X409000Y3974983D01*
X1794000Y3974983D01*
X1794000Y3581017D01*
X1870859Y3194622D01*
X2021623Y2830645D01*
X2240499Y2503074D01*
X2519074Y2224499D01*
X2846645Y2005623D01*
X3210622Y1854859D01*
X3597017Y1778000D01*
X3990983Y1778000D01*
X4377378Y1854859D01*
X4741355Y2005623D01*
X5068926Y2224499D01*
X5347501Y2503074D01*
X5566377Y2830645D01*
X5717141Y3194622D01*
X5794000Y3581017D01*
X5794000Y3974983D01*
X44974000Y3974983D01*
X44974000Y3581017D01*
X45050859Y3194622D01*
X45201623Y2830645D01*
X45420499Y2503074D01*
X45699074Y2224499D01*
X46026645Y2005623D01*
X46390622Y1854859D01*
X46777017Y1778000D01*
X47170983Y1778000D01*
X47557378Y1854859D01*
X47921355Y2005623D01*
X48248926Y2224499D01*
X48527501Y2503074D01*
X48746377Y2830645D01*
X48897141Y3194622D01*
X48974000Y3581017D01*
X48974000Y3974983D01*
X48897141Y4361378D01*
X48746377Y4725355D01*
X48527501Y5052926D01*
X48248926Y5331501D01*
X47921355Y5550377D01*
X47557378Y5701141D01*
X47170983Y5778000D01*
X46777017Y5778000D01*
X46390622Y5701141D01*
X46026645Y5550377D01*
X45699074Y5331501D01*
X45420499Y5052926D01*
X45201623Y4725355D01*
X45050859Y4361378D01*
X44974000Y3974983D01*
X5794000Y3974983D01*
X5717141Y4361378D01*
X5566377Y4725355D01*
X5347501Y5052926D01*
X5068926Y5331501D01*
X4741355Y5550377D01*
X4377378Y5701141D01*
X3990983Y5778000D01*
X3597017Y5778000D01*
X3210622Y5701141D01*
X2846645Y5550377D01*
X2519074Y5331501D01*
X2240499Y5052926D01*
X2021623Y4725355D01*
X1870859Y4361378D01*
X1794000Y3974983D01*
X409000Y3974983D01*
X409000Y31750000D01*
X3572743Y31750000D01*
X3580000Y31676320D01*
X3580000Y31602263D01*
X3594448Y31529626D01*
X3601705Y31455949D01*
X3623195Y31385104D01*
X3637644Y31312466D01*
X3665985Y31244044D01*
X3687476Y31173198D01*
X3722375Y31107907D01*
X3750717Y31039483D01*
X3791864Y30977903D01*
X3826762Y30912613D01*
X3873730Y30855382D01*
X3914874Y30793806D01*
X3967236Y30741444D01*
X4014208Y30684208D01*
X4071444Y30637236D01*
X4123806Y30584874D01*
X4185382Y30543730D01*
X4242613Y30496762D01*
X4273972Y30480000D01*
X4242613Y30463238D01*
X4185382Y30416270D01*
X4123806Y30375126D01*
X4071444Y30322764D01*
X4014208Y30275792D01*
X3967236Y30218556D01*
X3914874Y30166194D01*
X3873730Y30104618D01*
X3826762Y30047387D01*
X3791864Y29982097D01*
X3750717Y29920517D01*
X3722375Y29852093D01*
X3687476Y29786802D01*
X3665985Y29715956D01*
X3637644Y29647534D01*
X3623195Y29574896D01*
X3601705Y29504051D01*
X3594448Y29430374D01*
X3580000Y29357737D01*
X3580000Y29283680D01*
X3572743Y29210000D01*
X3580000Y29136320D01*
X3580000Y29062263D01*
X3594448Y28989626D01*
X3601705Y28915949D01*
X3623195Y28845104D01*
X3637644Y28772466D01*
X3665985Y28704044D01*
X3687476Y28633198D01*
X3722375Y28567907D01*
X3750717Y28499483D01*
X3791864Y28437903D01*
X3826762Y28372613D01*
X3873730Y28315382D01*
X3914874Y28253806D01*
X3967236Y28201444D01*
X4014208Y28144208D01*
X4071444Y28097236D01*
X4123806Y28044874D01*
X4185382Y28003730D01*
X4242613Y27956762D01*
X4273972Y27940000D01*
X4242613Y27923238D01*
X4185382Y27876270D01*
X4123806Y27835126D01*
X4071444Y27782764D01*
X4014208Y27735792D01*
X3967236Y27678556D01*
X3914874Y27626194D01*
X3873730Y27564618D01*
X3826762Y27507387D01*
X3791864Y27442097D01*
X3750717Y27380517D01*
X3722375Y27312093D01*
X3687476Y27246802D01*
X3665985Y27175956D01*
X3637644Y27107534D01*
X3623195Y27034896D01*
X3601705Y26964051D01*
X3594448Y26890374D01*
X3580000Y26817737D01*
X3580000Y26743680D01*
X3572743Y26670000D01*
X3580000Y26596320D01*
X3580000Y26522263D01*
X3594448Y26449626D01*
X3601705Y26375949D01*
X3623195Y26305104D01*
X3637644Y26232466D01*
X3665985Y26164044D01*
X3687476Y26093198D01*
X3722375Y26027907D01*
X3750717Y25959483D01*
X3791864Y25897903D01*
X3826762Y25832613D01*
X3873730Y25775382D01*
X3914874Y25713806D01*
X3967236Y25661444D01*
X4014208Y25604208D01*
X4071444Y25557236D01*
X4123806Y25504874D01*
X4185382Y25463730D01*
X4242613Y25416762D01*
X4307903Y25381864D01*
X4369483Y25340717D01*
X4437907Y25312375D01*
X4503198Y25277476D01*
X4574044Y25255985D01*
X4642466Y25227644D01*
X4715104Y25213195D01*
X4785949Y25191705D01*
X4859626Y25184448D01*
X4932263Y25170000D01*
X6998681Y25170000D01*
X7290000Y24878680D01*
X7290001Y18010000D01*
X6202263Y18010000D01*
X6129626Y17995552D01*
X6055949Y17988295D01*
X5985104Y17966805D01*
X5912466Y17952356D01*
X5844044Y17924015D01*
X5773198Y17902524D01*
X5707907Y17867625D01*
X5639483Y17839283D01*
X5577903Y17798136D01*
X5512613Y17763238D01*
X5455382Y17716270D01*
X5393806Y17675126D01*
X5341444Y17622764D01*
X5284208Y17575792D01*
X5237236Y17518556D01*
X5184874Y17466194D01*
X5143730Y17404618D01*
X5096762Y17347387D01*
X5061864Y17282097D01*
X5020717Y17220517D01*
X4992375Y17152093D01*
X4957476Y17086802D01*
X4935985Y17015956D01*
X4907644Y16947534D01*
X4893195Y16874896D01*
X4871705Y16804051D01*
X4864448Y16730374D01*
X4850000Y16657737D01*
X4850000Y16583680D01*
X4842743Y16510000D01*
X4850000Y16436320D01*
X4850000Y16362263D01*
X4864448Y16289626D01*
X4871705Y16215949D01*
X4893195Y16145104D01*
X4907644Y16072466D01*
X4935985Y16004044D01*
X4957476Y15933198D01*
X4992375Y15867907D01*
X5020717Y15799483D01*
X5061864Y15737903D01*
X5096762Y15672613D01*
X5143730Y15615382D01*
X5184874Y15553806D01*
X5237236Y15501444D01*
X5284208Y15444208D01*
X5341444Y15397236D01*
X5393806Y15344874D01*
X5455382Y15303730D01*
X5512613Y15256762D01*
X5543972Y15240000D01*
X5512613Y15223238D01*
X5455382Y15176270D01*
X5393806Y15135126D01*
X5341444Y15082764D01*
X5284208Y15035792D01*
X5237236Y14978556D01*
X5184874Y14926194D01*
X5143730Y14864618D01*
X5096762Y14807387D01*
X5061864Y14742097D01*
X5020717Y14680517D01*
X4992375Y14612093D01*
X4957476Y14546802D01*
X4935985Y14475956D01*
X4907644Y14407534D01*
X4893195Y14334896D01*
X4871705Y14264051D01*
X4864448Y14190374D01*
X4850000Y14117737D01*
X4850000Y14043680D01*
X4842743Y13970000D01*
X4850000Y13896320D01*
X4850000Y13822263D01*
X4864448Y13749626D01*
X4871705Y13675949D01*
X4893195Y13605104D01*
X4907644Y13532466D01*
X4935985Y13464044D01*
X4957476Y13393198D01*
X4992375Y13327907D01*
X5020717Y13259483D01*
X5061864Y13197903D01*
X5096762Y13132613D01*
X5143730Y13075382D01*
X5184874Y13013806D01*
X5237236Y12961444D01*
X5284208Y12904208D01*
X5341444Y12857236D01*
X5393806Y12804874D01*
X5455382Y12763730D01*
X5512613Y12716762D01*
X5577903Y12681864D01*
X5639483Y12640717D01*
X5707907Y12612375D01*
X5773198Y12577476D01*
X5844044Y12555985D01*
X5912466Y12527644D01*
X5985104Y12513195D01*
X6055949Y12491705D01*
X6129626Y12484448D01*
X6202263Y12470000D01*
X11577737Y12470000D01*
X11650374Y12484448D01*
X11724051Y12491705D01*
X11794896Y12513195D01*
X11867534Y12527644D01*
X11935956Y12555985D01*
X12006802Y12577476D01*
X12072093Y12612375D01*
X12140517Y12640717D01*
X12202097Y12681864D01*
X12267387Y12716762D01*
X12324618Y12763730D01*
X12386194Y12804874D01*
X12438556Y12857236D01*
X12495792Y12904208D01*
X12542764Y12961444D01*
X12595126Y13013806D01*
X12636270Y13075382D01*
X12683238Y13132613D01*
X12718136Y13197903D01*
X12759283Y13259483D01*
X12787625Y13327907D01*
X12822524Y13393198D01*
X12844015Y13464044D01*
X12872356Y13532466D01*
X12886805Y13605104D01*
X12908295Y13675949D01*
X12915552Y13749626D01*
X12930000Y13822263D01*
X12930000Y13896320D01*
X12937257Y13970000D01*
X12930000Y14043680D01*
X12930000Y14117737D01*
X12915552Y14190374D01*
X12908295Y14264051D01*
X12886805Y14334896D01*
X12872356Y14407534D01*
X12844015Y14475956D01*
X12822524Y14546802D01*
X12787625Y14612093D01*
X12759283Y14680517D01*
X12718136Y14742097D01*
X12683238Y14807387D01*
X12636270Y14864618D01*
X12595126Y14926194D01*
X12542764Y14978556D01*
X12495792Y15035792D01*
X12438556Y15082764D01*
X12386194Y15135126D01*
X12324618Y15176270D01*
X12267387Y15223238D01*
X12202097Y15258136D01*
X12140517Y15299283D01*
X12072093Y15327625D01*
X12006802Y15362524D01*
X11935956Y15384015D01*
X11867534Y15412356D01*
X11794896Y15426805D01*
X11724051Y15448295D01*
X11650374Y15455552D01*
X11577737Y15470000D01*
X10106323Y15470000D01*
X10226788Y15616787D01*
X10375359Y15894744D01*
X10466849Y16196345D01*
X10490000Y16431403D01*
X10490000Y20414053D01*
X10497751Y20408875D01*
X10624613Y20304762D01*
X10885198Y20165476D01*
X11167949Y20079705D01*
X11388320Y20058000D01*
X11462000Y20050743D01*
X11535680Y20058000D01*
X14142680Y20058000D01*
X14058874Y19974194D01*
X13894717Y19728517D01*
X13781644Y19455534D01*
X13724000Y19165737D01*
X13724000Y18870263D01*
X13781644Y18580466D01*
X13894717Y18307483D01*
X14058874Y18061806D01*
X14267806Y17852874D01*
X14424760Y17748000D01*
X14267806Y17643126D01*
X14058874Y17434194D01*
X13894717Y17188517D01*
X13781644Y16915534D01*
X13724000Y16625737D01*
X13724000Y16330263D01*
X13781644Y16040466D01*
X13894717Y15767483D01*
X14058874Y15521806D01*
X14267806Y15312874D01*
X14424760Y15208000D01*
X14267806Y15103126D01*
X14058874Y14894194D01*
X13894717Y14648517D01*
X13781644Y14375534D01*
X13724000Y14085737D01*
X13724000Y13790263D01*
X13781644Y13500466D01*
X13894717Y13227483D01*
X14058874Y12981806D01*
X14267806Y12772874D01*
X14424760Y12668000D01*
X14267806Y12563126D01*
X14058874Y12354194D01*
X13894717Y12108517D01*
X13781644Y11835534D01*
X13724000Y11545737D01*
X13724000Y11250263D01*
X13781644Y10960466D01*
X13894717Y10687483D01*
X14058874Y10441806D01*
X14267806Y10232874D01*
X14513483Y10068717D01*
X14786466Y9955644D01*
X15076263Y9898000D01*
X15371737Y9898000D01*
X15661534Y9955644D01*
X15934517Y10068717D01*
X16180194Y10232874D01*
X16389126Y10441806D01*
X16553283Y10687483D01*
X16666356Y10960466D01*
X16724000Y11250263D01*
X16724000Y11545737D01*
X16666356Y11835534D01*
X16553283Y12108517D01*
X16389126Y12354194D01*
X16180194Y12563126D01*
X16023240Y12668000D01*
X16180194Y12772874D01*
X16389126Y12981806D01*
X16553283Y13227483D01*
X16666356Y13500466D01*
X16724000Y13790263D01*
X16724000Y14085737D01*
X16666356Y14375534D01*
X16553283Y14648517D01*
X16389126Y14894194D01*
X16180194Y15103126D01*
X16023240Y15208000D01*
X16180194Y15312874D01*
X16389126Y15521806D01*
X16553283Y15767483D01*
X16666356Y16040466D01*
X16724000Y16330263D01*
X16724000Y16625737D01*
X16666356Y16915534D01*
X16553283Y17188517D01*
X16389126Y17434194D01*
X16180194Y17643126D01*
X16023240Y17748000D01*
X16180194Y17852874D01*
X16389126Y18061806D01*
X16400657Y18079063D01*
X16549107Y18200893D01*
X16692816Y18376003D01*
X16799602Y18575785D01*
X16865360Y18792561D01*
X16887564Y19018000D01*
X16865360Y19243439D01*
X16799602Y19460215D01*
X16692816Y19659997D01*
X16549107Y19835107D01*
X16400657Y19956937D01*
X16389126Y19974194D01*
X16180194Y20183126D01*
X16026256Y20285984D01*
X16061387Y20304762D01*
X16118618Y20351730D01*
X16180194Y20392874D01*
X16232556Y20445236D01*
X16289792Y20492208D01*
X16336764Y20549444D01*
X16389126Y20601806D01*
X16430270Y20663382D01*
X16477238Y20720613D01*
X16512136Y20785903D01*
X16553283Y20847483D01*
X16581625Y20915907D01*
X16616524Y20981198D01*
X16638015Y21052044D01*
X16666356Y21120466D01*
X16680805Y21193104D01*
X16702295Y21263949D01*
X16709552Y21337626D01*
X16724000Y21410263D01*
X16724000Y21484320D01*
X16731257Y21558000D01*
X16724000Y21631680D01*
X16724000Y21705737D01*
X16709552Y21778374D01*
X16702295Y21852051D01*
X16680805Y21922896D01*
X16666356Y21995534D01*
X16638015Y22063956D01*
X16616524Y22134802D01*
X16581625Y22200093D01*
X16553283Y22268517D01*
X16512136Y22330097D01*
X16477238Y22395387D01*
X16430270Y22452618D01*
X16389126Y22514194D01*
X16336764Y22566556D01*
X16289792Y22623792D01*
X16232556Y22670764D01*
X16180194Y22723126D01*
X16118618Y22764270D01*
X16061387Y22811238D01*
X16026256Y22830016D01*
X16180194Y22932874D01*
X16389126Y23141806D01*
X16553283Y23387483D01*
X16666356Y23660466D01*
X16724000Y23950263D01*
X16724000Y24245737D01*
X16666356Y24535534D01*
X16553283Y24808517D01*
X16389126Y25054194D01*
X16180194Y25263126D01*
X16023240Y25368000D01*
X16180194Y25472874D01*
X16389126Y25681806D01*
X16553283Y25927483D01*
X16666356Y26200466D01*
X16724000Y26490263D01*
X16724000Y26785737D01*
X16666356Y27075534D01*
X16553283Y27348517D01*
X16389126Y27594194D01*
X16180194Y27803126D01*
X16023240Y27908000D01*
X16180194Y28012874D01*
X16389126Y28221806D01*
X16553283Y28467483D01*
X16666356Y28740466D01*
X16724000Y29030263D01*
X16724000Y29325737D01*
X16666356Y29615534D01*
X16553283Y29888517D01*
X16389126Y30134194D01*
X16305320Y30218000D01*
X17534001Y30218000D01*
X17534000Y28055737D01*
X17534000Y27760263D01*
X17548449Y27687625D01*
X17555705Y27613950D01*
X17577195Y27543107D01*
X17591644Y27470466D01*
X17619986Y27402041D01*
X17641476Y27331199D01*
X17676373Y27265911D01*
X17704717Y27197483D01*
X17745866Y27135899D01*
X17780762Y27070614D01*
X17827727Y27013386D01*
X17868874Y26951806D01*
X17921237Y26899443D01*
X17968208Y26842208D01*
X18025444Y26795236D01*
X18077806Y26742874D01*
X18139382Y26701730D01*
X18196613Y26654762D01*
X18261903Y26619864D01*
X18323483Y26578717D01*
X18391907Y26550375D01*
X18457198Y26515476D01*
X18528044Y26493985D01*
X18596466Y26465644D01*
X18669104Y26451195D01*
X18739949Y26429705D01*
X18813626Y26422448D01*
X18886263Y26408000D01*
X18960320Y26408000D01*
X19034000Y26400743D01*
X19107680Y26408000D01*
X19181737Y26408000D01*
X19254375Y26422448D01*
X19328050Y26429705D01*
X19398893Y26451195D01*
X19471534Y26465644D01*
X19539959Y26493986D01*
X19610801Y26515476D01*
X19676089Y26550373D01*
X19744517Y26578717D01*
X19806101Y26619866D01*
X19871386Y26654762D01*
X19928614Y26701727D01*
X19990194Y26742874D01*
X20042557Y26795237D01*
X20099792Y26842208D01*
X20146764Y26899444D01*
X20199126Y26951806D01*
X20240270Y27013382D01*
X20287238Y27070613D01*
X20304000Y27101973D01*
X20320762Y27070614D01*
X20367727Y27013386D01*
X20408874Y26951806D01*
X20461237Y26899443D01*
X20508208Y26842208D01*
X20565444Y26795236D01*
X20617806Y26742874D01*
X20679382Y26701730D01*
X20736613Y26654762D01*
X20801903Y26619864D01*
X20863483Y26578717D01*
X20931907Y26550375D01*
X20997198Y26515476D01*
X21068044Y26493985D01*
X21136466Y26465644D01*
X21209104Y26451195D01*
X21279949Y26429705D01*
X21353626Y26422448D01*
X21426263Y26408000D01*
X21500320Y26408000D01*
X21574000Y26400743D01*
X21647680Y26408000D01*
X21721737Y26408000D01*
X21794375Y26422448D01*
X21868050Y26429705D01*
X21938893Y26451195D01*
X22011534Y26465644D01*
X22079959Y26493986D01*
X22150801Y26515476D01*
X22216089Y26550373D01*
X22284517Y26578717D01*
X22346101Y26619866D01*
X22411386Y26654762D01*
X22468614Y26701727D01*
X22530194Y26742874D01*
X22582557Y26795237D01*
X22639792Y26842208D01*
X22686764Y26899444D01*
X22739126Y26951806D01*
X22780270Y27013382D01*
X22827238Y27070613D01*
X22844000Y27101973D01*
X22860762Y27070614D01*
X22907727Y27013386D01*
X22948874Y26951806D01*
X23001237Y26899443D01*
X23048208Y26842208D01*
X23105444Y26795236D01*
X23157806Y26742874D01*
X23219382Y26701730D01*
X23276613Y26654762D01*
X23341903Y26619864D01*
X23403483Y26578717D01*
X23471907Y26550375D01*
X23537198Y26515476D01*
X23608044Y26493985D01*
X23676466Y26465644D01*
X23749104Y26451195D01*
X23819949Y26429705D01*
X23893626Y26422448D01*
X23966263Y26408000D01*
X24040320Y26408000D01*
X24114000Y26400743D01*
X24187680Y26408000D01*
X24261737Y26408000D01*
X24334375Y26422448D01*
X24408050Y26429705D01*
X24478893Y26451195D01*
X24551534Y26465644D01*
X24619959Y26493986D01*
X24690801Y26515476D01*
X24756089Y26550373D01*
X24824517Y26578717D01*
X24886101Y26619866D01*
X24951386Y26654762D01*
X25008614Y26701727D01*
X25070001Y26742745D01*
X25070001Y16729687D01*
X16158315Y7818000D01*
X15076263Y7818000D01*
X15003626Y7803552D01*
X14929949Y7796295D01*
X14859104Y7774805D01*
X14786466Y7760356D01*
X14718044Y7732015D01*
X14647198Y7710524D01*
X14581907Y7675625D01*
X14513483Y7647283D01*
X14451903Y7606136D01*
X14386613Y7571238D01*
X14329382Y7524270D01*
X14267806Y7483126D01*
X14215444Y7430764D01*
X14158208Y7383792D01*
X14111236Y7326556D01*
X14058874Y7274194D01*
X14017730Y7212618D01*
X13970762Y7155387D01*
X13935864Y7090097D01*
X13894717Y7028517D01*
X13866375Y6960093D01*
X13831476Y6894802D01*
X13809985Y6823956D01*
X13781644Y6755534D01*
X13767195Y6682896D01*
X13745705Y6612051D01*
X13738448Y6538374D01*
X13724000Y6465737D01*
X13724000Y6391680D01*
X13716743Y6318000D01*
X13724000Y6244320D01*
X13724000Y6170263D01*
X13738448Y6097626D01*
X13745705Y6023949D01*
X13767195Y5953104D01*
X13781644Y5880466D01*
X13809985Y5812044D01*
X13831476Y5741198D01*
X13866375Y5675907D01*
X13894717Y5607483D01*
X13935864Y5545903D01*
X13970762Y5480613D01*
X14017730Y5423382D01*
X14058874Y5361806D01*
X14111236Y5309444D01*
X14158208Y5252208D01*
X14215444Y5205236D01*
X14267806Y5152874D01*
X14329382Y5111730D01*
X14386613Y5064762D01*
X14451903Y5029864D01*
X14513483Y4988717D01*
X14581907Y4960375D01*
X14647198Y4925476D01*
X14718044Y4903985D01*
X14786466Y4875644D01*
X14859104Y4861195D01*
X14929949Y4839705D01*
X15003626Y4832448D01*
X15076263Y4818000D01*
X16705954Y4818000D01*
X16779634Y4810743D01*
X16853314Y4818000D01*
X17073685Y4839705D01*
X17356436Y4925476D01*
X17617021Y5064762D01*
X17845426Y5252208D01*
X17892403Y5309450D01*
X19080690Y6497737D01*
X35330000Y6497737D01*
X35330000Y6202263D01*
X35387644Y5912466D01*
X35500717Y5639483D01*
X35664874Y5393806D01*
X35749236Y5309444D01*
X35796208Y5252208D01*
X35853444Y5205236D01*
X35873806Y5184874D01*
X35897751Y5168875D01*
X36024613Y5064762D01*
X36285198Y4925476D01*
X36567949Y4839705D01*
X36788320Y4818000D01*
X41804320Y4818000D01*
X41878000Y4810743D01*
X41951680Y4818000D01*
X42172051Y4839705D01*
X42454802Y4925476D01*
X42715387Y5064762D01*
X42943792Y5252208D01*
X42990769Y5309450D01*
X45562759Y7881439D01*
X45615126Y7933806D01*
X45656272Y7995385D01*
X45703237Y8052612D01*
X45738134Y8117899D01*
X45779283Y8179483D01*
X45807627Y8247910D01*
X45842523Y8313197D01*
X45864012Y8384038D01*
X45892356Y8452466D01*
X45906806Y8525111D01*
X45928294Y8595948D01*
X45935550Y8669620D01*
X45950000Y8742263D01*
X45950000Y8816321D01*
X45957257Y8889999D01*
X45950000Y8963677D01*
X45950000Y9037737D01*
X45935550Y9110382D01*
X45928294Y9184050D01*
X45906807Y9254884D01*
X45892356Y9327534D01*
X45864011Y9395966D01*
X45842523Y9466802D01*
X45807629Y9532084D01*
X45779283Y9600517D01*
X45738129Y9662108D01*
X45703237Y9727386D01*
X45656278Y9784606D01*
X45615126Y9846194D01*
X45562754Y9898566D01*
X45515791Y9955791D01*
X45458566Y10002754D01*
X45406194Y10055126D01*
X45344606Y10096278D01*
X45287386Y10143237D01*
X45222108Y10178129D01*
X45160517Y10219283D01*
X45092084Y10247629D01*
X45026802Y10282523D01*
X44955966Y10304011D01*
X44887534Y10332356D01*
X44814884Y10346807D01*
X44744050Y10368294D01*
X44670382Y10375550D01*
X44597737Y10390000D01*
X44523677Y10390000D01*
X44449999Y10397257D01*
X44376321Y10390000D01*
X44302263Y10390000D01*
X44229620Y10375550D01*
X44155948Y10368294D01*
X44085111Y10346806D01*
X44012466Y10332356D01*
X43944038Y10304012D01*
X43873197Y10282523D01*
X43807910Y10247627D01*
X43739483Y10219283D01*
X43677899Y10178134D01*
X43612612Y10143237D01*
X43555385Y10096272D01*
X43493806Y10055126D01*
X43441439Y10002759D01*
X41256681Y7818000D01*
X37138612Y7818000D01*
X36977737Y7850000D01*
X36682263Y7850000D01*
X36392466Y7792356D01*
X36119483Y7679283D01*
X35873806Y7515126D01*
X35664874Y7306194D01*
X35500717Y7060517D01*
X35387644Y6787534D01*
X35330000Y6497737D01*
X19080690Y6497737D01*
X27329736Y14746782D01*
X27563213Y14871578D01*
X27806845Y15071521D01*
X28006788Y15315153D01*
X28155359Y15593110D01*
X28246849Y15894711D01*
X28270000Y16129769D01*
X28270000Y50878597D01*
X28246849Y51113655D01*
X28155359Y51415256D01*
X28006788Y51693213D01*
X27806845Y51936845D01*
X27563212Y52136788D01*
X27285255Y52285359D01*
X26983654Y52376849D01*
X26670000Y52407741D01*
X26356345Y52376849D01*
X26054744Y52285359D01*
X25776787Y52136788D01*
X25533155Y51936845D01*
X25333212Y51693212D01*
X25184641Y51415255D01*
X25093151Y51113654D01*
X25070000Y50878596D01*
X25070000Y40838000D01*
X23966263Y40838000D01*
X23893626Y40823552D01*
X23819949Y40816295D01*
X23749104Y40794805D01*
X23676466Y40780356D01*
X23608044Y40752015D01*
X23537198Y40730524D01*
X23471907Y40695625D01*
X23403483Y40667283D01*
X23341903Y40626136D01*
X23276613Y40591238D01*
X23219382Y40544270D01*
X23157806Y40503126D01*
X23105444Y40450764D01*
X23074000Y40424959D01*
X23074000Y42290575D01*
X23081257Y42364253D01*
X23072426Y42453912D01*
X23052295Y42658303D01*
X22966524Y42941054D01*
X22827238Y43201639D01*
X22639792Y43430044D01*
X22582555Y43477017D01*
X12930000Y53129571D01*
X12930000Y54757737D01*
X12915552Y54830374D01*
X12908295Y54904051D01*
X12886805Y54974896D01*
X12872356Y55047534D01*
X12844015Y55115956D01*
X12822524Y55186802D01*
X12787625Y55252093D01*
X12759283Y55320517D01*
X12718136Y55382097D01*
X12683238Y55447387D01*
X12636270Y55504618D01*
X12595126Y55566194D01*
X12542764Y55618556D01*
X12495792Y55675792D01*
X12438556Y55722764D01*
X12386194Y55775126D01*
X12324618Y55816270D01*
X12267387Y55863238D01*
X12202097Y55898136D01*
X12140517Y55939283D01*
X12072093Y55967625D01*
X12006802Y56002524D01*
X11935956Y56024015D01*
X11867534Y56052356D01*
X11794896Y56066805D01*
X11724051Y56088295D01*
X11650374Y56095552D01*
X11577737Y56110000D01*
X11503680Y56110000D01*
X11430000Y56117257D01*
X11356320Y56110000D01*
X11282263Y56110000D01*
X11209625Y56095552D01*
X11135950Y56088295D01*
X11065107Y56066805D01*
X10992466Y56052356D01*
X10924041Y56024014D01*
X10853199Y56002524D01*
X10787911Y55967627D01*
X10719483Y55939283D01*
X10657899Y55898134D01*
X10592614Y55863238D01*
X10535387Y55816273D01*
X10473806Y55775126D01*
X10421440Y55722760D01*
X10364209Y55675792D01*
X10317241Y55618561D01*
X10264874Y55566194D01*
X10223726Y55504612D01*
X10176763Y55447387D01*
X10160001Y55416027D01*
X10143238Y55447387D01*
X10096270Y55504618D01*
X10055126Y55566194D01*
X10002764Y55618556D01*
X9955792Y55675792D01*
X9898556Y55722764D01*
X9846194Y55775126D01*
X9784618Y55816270D01*
X9727387Y55863238D01*
X9662097Y55898136D01*
X9600517Y55939283D01*
X9532093Y55967625D01*
X9466802Y56002524D01*
X9395956Y56024015D01*
X9327534Y56052356D01*
X9254896Y56066805D01*
X9184051Y56088295D01*
X9110374Y56095552D01*
X9037737Y56110000D01*
X8963680Y56110000D01*
X8890000Y56117257D01*
X8816320Y56110000D01*
X8742263Y56110000D01*
X8669625Y56095552D01*
X8595950Y56088295D01*
X8525107Y56066805D01*
X8452466Y56052356D01*
X8384041Y56024014D01*
X8313199Y56002524D01*
X8247911Y55967627D01*
X8179483Y55939283D01*
X8117899Y55898134D01*
X8052614Y55863238D01*
X7995387Y55816273D01*
X7933806Y55775126D01*
X7881440Y55722760D01*
X7824209Y55675792D01*
X7777241Y55618561D01*
X7724874Y55566194D01*
X7683726Y55504612D01*
X7636763Y55447387D01*
X7620001Y55416027D01*
X7603238Y55447387D01*
X7556270Y55504618D01*
X7515126Y55566194D01*
X7462764Y55618556D01*
X7415792Y55675792D01*
X7358557Y55722763D01*
X7306194Y55775126D01*
X7244614Y55816273D01*
X7187386Y55863238D01*
X7122101Y55898134D01*
X7060517Y55939283D01*
X6992089Y55967627D01*
X6926801Y56002524D01*
X6855959Y56024014D01*
X6787534Y56052356D01*
X6714893Y56066805D01*
X6644050Y56088295D01*
X6570375Y56095552D01*
X6497737Y56110000D01*
X6423680Y56110000D01*
X6350000Y56117257D01*
X6276320Y56110000D01*
X6202263Y56110000D01*
X6129626Y56095552D01*
X6055949Y56088295D01*
X5985104Y56066805D01*
X5912466Y56052356D01*
X5844044Y56024015D01*
X5773198Y56002524D01*
X5707907Y55967625D01*
X5639483Y55939283D01*
X5577903Y55898136D01*
X5512613Y55863238D01*
X5455382Y55816270D01*
X5393806Y55775126D01*
X5341444Y55722764D01*
X5284208Y55675792D01*
X5237237Y55618557D01*
X5184874Y55566194D01*
X5143727Y55504614D01*
X5096762Y55447386D01*
X5061866Y55382101D01*
X5020717Y55320517D01*
X4992373Y55252089D01*
X4957476Y55186801D01*
X4935986Y55115959D01*
X4907644Y55047534D01*
X4893195Y54974893D01*
X4871705Y54904050D01*
X4864449Y54830375D01*
X4850000Y54757737D01*
X4850000Y54683679D01*
X4850001Y50873690D01*
X4842743Y50800000D01*
X4871705Y50505949D01*
X4945827Y50261602D01*
X4957477Y50223198D01*
X5096763Y49962613D01*
X5284209Y49734208D01*
X5341445Y49687236D01*
X7290000Y47738680D01*
X7290001Y33541321D01*
X6998681Y33250000D01*
X4932263Y33250000D01*
X4859626Y33235552D01*
X4785949Y33228295D01*
X4715104Y33206805D01*
X4642466Y33192356D01*
X4574044Y33164015D01*
X4503198Y33142524D01*
X4437907Y33107625D01*
X4369483Y33079283D01*
X4307903Y33038136D01*
X4242613Y33003238D01*
X4185382Y32956270D01*
X4123806Y32915126D01*
X4071444Y32862764D01*
X4014208Y32815792D01*
X3967236Y32758556D01*
X3914874Y32706194D01*
X3873730Y32644618D01*
X3826762Y32587387D01*
X3791864Y32522097D01*
X3750717Y32460517D01*
X3722375Y32392093D01*
X3687476Y32326802D01*
X3665985Y32255956D01*
X3637644Y32187534D01*
X3623195Y32114896D01*
X3601705Y32044051D01*
X3594448Y31970374D01*
X3580000Y31897737D01*
X3580000Y31823680D01*
X3572743Y31750000D01*
X409000Y31750000D01*
X409000Y64770000D01*
X21352743Y64770000D01*
X21360000Y64696320D01*
X21360000Y64622263D01*
X21360001Y64622259D01*
X21360000Y45867737D01*
X21360000Y45572263D01*
X21374449Y45499625D01*
X21381705Y45425950D01*
X21403195Y45355107D01*
X21417644Y45282466D01*
X21445986Y45214041D01*
X21467476Y45143199D01*
X21502373Y45077911D01*
X21530717Y45009483D01*
X21571866Y44947899D01*
X21606762Y44882614D01*
X21653727Y44825386D01*
X21694874Y44763806D01*
X21747237Y44711443D01*
X21794208Y44654208D01*
X21851444Y44607236D01*
X21903806Y44554874D01*
X21965382Y44513730D01*
X22022613Y44466762D01*
X22087903Y44431864D01*
X22149483Y44390717D01*
X22217907Y44362375D01*
X22283198Y44327476D01*
X22354044Y44305985D01*
X22422466Y44277644D01*
X22495104Y44263195D01*
X22565949Y44241705D01*
X22639626Y44234448D01*
X22712263Y44220000D01*
X22786320Y44220000D01*
X22860000Y44212743D01*
X22933680Y44220000D01*
X23007737Y44220000D01*
X23080375Y44234448D01*
X23154050Y44241705D01*
X23224893Y44263195D01*
X23297534Y44277644D01*
X23365959Y44305986D01*
X23436801Y44327476D01*
X23502089Y44362373D01*
X23570517Y44390717D01*
X23632101Y44431866D01*
X23697386Y44466762D01*
X23754614Y44513727D01*
X23816194Y44554874D01*
X23868557Y44607237D01*
X23925792Y44654208D01*
X23972764Y44711444D01*
X24025126Y44763806D01*
X24066270Y44825382D01*
X24113238Y44882613D01*
X24148136Y44947903D01*
X24189283Y45009483D01*
X24217625Y45077907D01*
X24252524Y45143198D01*
X24274015Y45214044D01*
X24302356Y45282466D01*
X24316805Y45355104D01*
X24338295Y45425949D01*
X24345552Y45499626D01*
X24360000Y45572263D01*
X24360000Y63162722D01*
X39040000Y63162722D01*
X39040001Y41831403D01*
X39063152Y41596345D01*
X39154642Y41294744D01*
X39303213Y41016787D01*
X39503156Y40773155D01*
X39746788Y40573212D01*
X39757604Y40567431D01*
X39729382Y40544270D01*
X39667806Y40503126D01*
X39615444Y40450764D01*
X39558208Y40403792D01*
X39511236Y40346556D01*
X39458874Y40294194D01*
X39417730Y40232618D01*
X39370762Y40175387D01*
X39335864Y40110097D01*
X39294717Y40048517D01*
X39266375Y39980093D01*
X39231476Y39914802D01*
X39209985Y39843956D01*
X39181644Y39775534D01*
X39167195Y39702896D01*
X39145705Y39632051D01*
X39138448Y39558374D01*
X39124000Y39485737D01*
X39124000Y39411680D01*
X39116743Y39338000D01*
X39124000Y39264321D01*
X39124000Y39190263D01*
X39138448Y39117626D01*
X39145705Y39043949D01*
X39167195Y38973104D01*
X39181644Y38900466D01*
X39209985Y38832044D01*
X39231476Y38761198D01*
X39266375Y38695907D01*
X39294717Y38627483D01*
X39335864Y38565903D01*
X39370762Y38500613D01*
X39417730Y38443382D01*
X39458874Y38381806D01*
X39511236Y38329444D01*
X39558208Y38272208D01*
X39615444Y38225236D01*
X39667806Y38172874D01*
X39729382Y38131730D01*
X39786613Y38084762D01*
X39821744Y38065984D01*
X39667806Y37963126D01*
X39458874Y37754194D01*
X39294717Y37508517D01*
X39181644Y37235534D01*
X39124000Y36945737D01*
X39124000Y36650263D01*
X39181644Y36360466D01*
X39294717Y36087483D01*
X39458874Y35841806D01*
X39667806Y35632874D01*
X39824760Y35528000D01*
X39667806Y35423126D01*
X39458874Y35214194D01*
X39294717Y34968517D01*
X39181644Y34695534D01*
X39124000Y34405737D01*
X39124000Y34110263D01*
X39181644Y33820466D01*
X39294717Y33547483D01*
X39458874Y33301806D01*
X39667806Y33092874D01*
X39821744Y32990016D01*
X39786613Y32971238D01*
X39729382Y32924270D01*
X39667806Y32883126D01*
X39615444Y32830764D01*
X39558208Y32783792D01*
X39511236Y32726556D01*
X39458874Y32674194D01*
X39417730Y32612618D01*
X39370762Y32555387D01*
X39335864Y32490097D01*
X39294717Y32428517D01*
X39266375Y32360093D01*
X39231476Y32294802D01*
X39209985Y32223956D01*
X39181644Y32155534D01*
X39167195Y32082896D01*
X39145705Y32012051D01*
X39138448Y31938374D01*
X39124000Y31865737D01*
X39124000Y31791680D01*
X39116743Y31718000D01*
X39124000Y31644320D01*
X39124000Y31570263D01*
X39138448Y31497626D01*
X39145705Y31423949D01*
X39167195Y31353104D01*
X39181644Y31280466D01*
X39209985Y31212044D01*
X39231476Y31141198D01*
X39266375Y31075907D01*
X39294717Y31007483D01*
X39335864Y30945903D01*
X39370762Y30880613D01*
X39417730Y30823382D01*
X39458874Y30761806D01*
X39511236Y30709444D01*
X39558208Y30652208D01*
X39615444Y30605236D01*
X39667806Y30552874D01*
X39729382Y30511730D01*
X39786613Y30464762D01*
X39821744Y30445984D01*
X39667806Y30343126D01*
X39458874Y30134194D01*
X39294717Y29888517D01*
X39181644Y29615534D01*
X39124000Y29325737D01*
X39124000Y29030263D01*
X39181644Y28740466D01*
X39294717Y28467483D01*
X39458874Y28221806D01*
X39667806Y28012874D01*
X39824760Y27908000D01*
X39667806Y27803126D01*
X39458874Y27594194D01*
X39294717Y27348517D01*
X39181644Y27075534D01*
X39124000Y26785737D01*
X39124000Y26490263D01*
X39181644Y26200466D01*
X39294717Y25927483D01*
X39458874Y25681806D01*
X39667806Y25472874D01*
X39824760Y25368000D01*
X39667806Y25263126D01*
X39458874Y25054194D01*
X39294717Y24808517D01*
X39181644Y24535534D01*
X39124000Y24245737D01*
X39124000Y23950263D01*
X39181644Y23660466D01*
X39294717Y23387483D01*
X39458874Y23141806D01*
X39667806Y22932874D01*
X39824760Y22828000D01*
X39667806Y22723126D01*
X39458874Y22514194D01*
X39294717Y22268517D01*
X39181644Y21995534D01*
X39124000Y21705737D01*
X39124000Y21410263D01*
X39181644Y21120466D01*
X39294717Y20847483D01*
X39458874Y20601806D01*
X39667806Y20392874D01*
X39824760Y20288000D01*
X39667806Y20183126D01*
X39458874Y19974194D01*
X39294717Y19728517D01*
X39181644Y19455534D01*
X39124000Y19165737D01*
X39124000Y18870263D01*
X39181644Y18580466D01*
X39294717Y18307483D01*
X39458874Y18061806D01*
X39667806Y17852874D01*
X39824760Y17748000D01*
X39667806Y17643126D01*
X39458874Y17434194D01*
X39294717Y17188517D01*
X39181644Y16915534D01*
X39124000Y16625737D01*
X39124000Y16330263D01*
X39181644Y16040466D01*
X39294717Y15767483D01*
X39458874Y15521806D01*
X39667806Y15312874D01*
X39824760Y15208000D01*
X39667806Y15103126D01*
X39458874Y14894194D01*
X39294717Y14648517D01*
X39181644Y14375534D01*
X39124000Y14085737D01*
X39124000Y13790263D01*
X39181644Y13500466D01*
X39294717Y13227483D01*
X39458874Y12981806D01*
X39667806Y12772874D01*
X39824760Y12668000D01*
X39667806Y12563126D01*
X39458874Y12354194D01*
X39294717Y12108517D01*
X39181644Y11835534D01*
X39124000Y11545737D01*
X39124000Y11250263D01*
X39181644Y10960466D01*
X39294717Y10687483D01*
X39458874Y10441806D01*
X39667806Y10232874D01*
X39913483Y10068717D01*
X40186466Y9955644D01*
X40476263Y9898000D01*
X40771737Y9898000D01*
X41061534Y9955644D01*
X41334517Y10068717D01*
X41580194Y10232874D01*
X41789126Y10441806D01*
X41953283Y10687483D01*
X42066356Y10960466D01*
X42124000Y11250263D01*
X42124000Y11545737D01*
X42066356Y11835534D01*
X41953283Y12108517D01*
X41789126Y12354194D01*
X41580194Y12563126D01*
X41423240Y12668000D01*
X41580194Y12772874D01*
X41789126Y12981806D01*
X41953283Y13227483D01*
X42066356Y13500466D01*
X42124000Y13790263D01*
X42124000Y14085737D01*
X42066356Y14375534D01*
X41953283Y14648517D01*
X41789126Y14894194D01*
X41580194Y15103126D01*
X41423240Y15208000D01*
X41580194Y15312874D01*
X41789126Y15521806D01*
X41953283Y15767483D01*
X42066356Y16040466D01*
X42124000Y16330263D01*
X42124000Y16625737D01*
X42066356Y16915534D01*
X41953283Y17188517D01*
X41789126Y17434194D01*
X41580194Y17643126D01*
X41423240Y17748000D01*
X41580194Y17852874D01*
X41667487Y17940167D01*
X41701215Y17950398D01*
X41900997Y18057184D01*
X42076107Y18200893D01*
X42112124Y18244780D01*
X44572231Y20704885D01*
X44616107Y20740893D01*
X44759816Y20916003D01*
X44866602Y21115785D01*
X44877257Y21150909D01*
X45147236Y21420889D01*
X45191118Y21456901D01*
X45334827Y21632011D01*
X45441613Y21831793D01*
X45507371Y22048569D01*
X45524011Y22217516D01*
X45524011Y22217525D01*
X45529574Y22274007D01*
X45524011Y22330489D01*
X45524011Y26834983D01*
X55134000Y26834983D01*
X55134000Y26441017D01*
X55210859Y26054622D01*
X55361623Y25690645D01*
X55580499Y25363074D01*
X55859074Y25084499D01*
X56186645Y24865623D01*
X56550622Y24714859D01*
X56937017Y24638000D01*
X57330983Y24638000D01*
X57717378Y24714859D01*
X58081355Y24865623D01*
X58408926Y25084499D01*
X58687501Y25363074D01*
X58906377Y25690645D01*
X59057141Y26054622D01*
X59134000Y26441017D01*
X59134000Y26834983D01*
X59057141Y27221378D01*
X58906377Y27585355D01*
X58687501Y27912926D01*
X58408926Y28191501D01*
X58081355Y28410377D01*
X57717378Y28561141D01*
X57330983Y28638000D01*
X56937017Y28638000D01*
X56550622Y28561141D01*
X56186645Y28410377D01*
X55859074Y28191501D01*
X55580499Y27912926D01*
X55361623Y27585355D01*
X55210859Y27221378D01*
X55134000Y26834983D01*
X45524011Y26834983D01*
X45524011Y28627679D01*
X49342220Y32445888D01*
X52944000Y32445888D01*
X52944000Y32170112D01*
X52997801Y31899635D01*
X53103336Y31644851D01*
X53256549Y31415552D01*
X53451552Y31220549D01*
X53680851Y31067336D01*
X53935635Y30961801D01*
X54206112Y30908000D01*
X54481888Y30908000D01*
X54644000Y30940246D01*
X54806112Y30908000D01*
X55081888Y30908000D01*
X55352365Y30961801D01*
X55607149Y31067336D01*
X55836448Y31220549D01*
X56031451Y31415552D01*
X56184664Y31644851D01*
X56290199Y31899635D01*
X56344000Y32170112D01*
X56344000Y32445888D01*
X56290199Y32716365D01*
X56184664Y32971149D01*
X56031451Y33200448D01*
X55836448Y33395451D01*
X55607149Y33548664D01*
X55352365Y33654199D01*
X55081888Y33708000D01*
X54806112Y33708000D01*
X54644000Y33675754D01*
X54481888Y33708000D01*
X54206112Y33708000D01*
X53935635Y33654199D01*
X53680851Y33548664D01*
X53451552Y33395451D01*
X53256549Y33200448D01*
X53103336Y32971149D01*
X52997801Y32716365D01*
X52944000Y32445888D01*
X49342220Y32445888D01*
X49866112Y32969779D01*
X49866116Y32969784D01*
X50287225Y33390892D01*
X50331107Y33426905D01*
X50367125Y33470793D01*
X50381107Y33484775D01*
X50488805Y33616004D01*
X50496219Y33629875D01*
X52546345Y35680000D01*
X55823518Y35680000D01*
X55880000Y35674437D01*
X55936482Y35680000D01*
X55936492Y35680000D01*
X56105439Y35696640D01*
X56322215Y35762398D01*
X56521997Y35869184D01*
X56697107Y36012893D01*
X56733124Y36056780D01*
X57244345Y36568000D01*
X57281737Y36568000D01*
X57571534Y36625644D01*
X57844517Y36738717D01*
X58090194Y36902874D01*
X58299126Y37111806D01*
X58463283Y37357483D01*
X58576356Y37630466D01*
X58634000Y37920263D01*
X58634000Y38215737D01*
X58576356Y38505534D01*
X58463283Y38778517D01*
X58299126Y39024194D01*
X58090194Y39233126D01*
X57844517Y39397283D01*
X57571534Y39510356D01*
X57281737Y39568000D01*
X56986263Y39568000D01*
X56696466Y39510356D01*
X56423483Y39397283D01*
X56344000Y39344174D01*
X56344000Y39455888D01*
X56290199Y39726365D01*
X56184664Y39981149D01*
X56031451Y40210448D01*
X55836448Y40405451D01*
X55607149Y40558664D01*
X55352365Y40664199D01*
X55081888Y40718000D01*
X54806112Y40718000D01*
X54644000Y40685754D01*
X54481888Y40718000D01*
X54206112Y40718000D01*
X53935635Y40664199D01*
X53680851Y40558664D01*
X53451552Y40405451D01*
X53256549Y40210448D01*
X53103336Y39981149D01*
X52997801Y39726365D01*
X52944000Y39455888D01*
X52944000Y39180112D01*
X52997801Y38909635D01*
X53103336Y38654851D01*
X53256549Y38425552D01*
X53451552Y38230549D01*
X53680851Y38077336D01*
X53915841Y37980000D01*
X52126484Y37980000D01*
X52070000Y37985563D01*
X52013516Y37980000D01*
X52013508Y37980000D01*
X51844561Y37963360D01*
X51627785Y37897602D01*
X51567916Y37865601D01*
X51428002Y37790816D01*
X51337517Y37716556D01*
X51252893Y37647107D01*
X51216881Y37603226D01*
X48963990Y35350334D01*
X48963990Y39837470D01*
X50399520Y41272999D01*
X55823519Y41272999D01*
X55880001Y41267436D01*
X55936483Y41272999D01*
X55936493Y41272999D01*
X56105440Y41289639D01*
X56322216Y41355397D01*
X56521998Y41462183D01*
X56697108Y41605892D01*
X56733125Y41649779D01*
X57907231Y42823883D01*
X57951107Y42859891D01*
X58021448Y42945601D01*
X58064183Y42997674D01*
X58094816Y43035001D01*
X58201602Y43234783D01*
X58267360Y43451559D01*
X58284000Y43620506D01*
X58284000Y43620515D01*
X58289563Y43676997D01*
X58284000Y43733479D01*
X58284000Y44661680D01*
X58299126Y44676806D01*
X58463283Y44922483D01*
X58576356Y45195466D01*
X58634000Y45485263D01*
X58634000Y45780737D01*
X58576356Y46070534D01*
X58463283Y46343517D01*
X58299126Y46589194D01*
X58090194Y46798126D01*
X57844517Y46962283D01*
X57571534Y47075356D01*
X57281737Y47133000D01*
X56986263Y47133000D01*
X56696466Y47075356D01*
X56423483Y46962283D01*
X56177806Y46798126D01*
X55968874Y46589194D01*
X55804717Y46343517D01*
X55691644Y46070534D01*
X55634000Y45780737D01*
X55634000Y45595723D01*
X55607149Y45613664D01*
X55352365Y45719199D01*
X55081888Y45773000D01*
X54806112Y45773000D01*
X54644000Y45740754D01*
X54481888Y45773000D01*
X54206112Y45773000D01*
X53935635Y45719199D01*
X53680851Y45613664D01*
X53451552Y45460451D01*
X53256549Y45265448D01*
X53103336Y45036149D01*
X52997801Y44781365D01*
X52944000Y44510888D01*
X52944000Y44235112D01*
X52997801Y43964635D01*
X53103336Y43709851D01*
X53194778Y43572999D01*
X50295344Y43572999D01*
X51557226Y44834881D01*
X51601107Y44870893D01*
X51744816Y45046003D01*
X51796768Y45143198D01*
X51851602Y45245784D01*
X51917360Y45462561D01*
X51928440Y45575059D01*
X51934000Y45631508D01*
X51934000Y45631509D01*
X51939564Y45688000D01*
X51934000Y45744492D01*
X51934000Y51520888D01*
X52944000Y51520888D01*
X52944000Y51245112D01*
X52997801Y50974635D01*
X53103336Y50719851D01*
X53256549Y50490552D01*
X53451552Y50295549D01*
X53680851Y50142336D01*
X53935635Y50036801D01*
X54206112Y49983000D01*
X54481888Y49983000D01*
X54644000Y50015246D01*
X54806112Y49983000D01*
X55081888Y49983000D01*
X55352365Y50036801D01*
X55607149Y50142336D01*
X55836448Y50295549D01*
X56031451Y50490552D01*
X56184664Y50719851D01*
X56290199Y50974635D01*
X56344000Y51245112D01*
X56344000Y51520888D01*
X56290199Y51791365D01*
X56184664Y52046149D01*
X56031451Y52275448D01*
X55836448Y52470451D01*
X55607149Y52623664D01*
X55352365Y52729199D01*
X55081888Y52783000D01*
X54806112Y52783000D01*
X54644000Y52750754D01*
X54481888Y52783000D01*
X54206112Y52783000D01*
X53935635Y52729199D01*
X53680851Y52623664D01*
X53451552Y52470451D01*
X53256549Y52275448D01*
X53103336Y52046149D01*
X52997801Y51791365D01*
X52944000Y51520888D01*
X51934000Y51520888D01*
X51934000Y51561656D01*
X55797236Y55424890D01*
X55841117Y55460902D01*
X55984826Y55636012D01*
X56091612Y55835794D01*
X56157370Y56052570D01*
X56174010Y56221517D01*
X56174010Y56221526D01*
X56179573Y56278008D01*
X56174010Y56334492D01*
X56174010Y61090294D01*
X56306215Y61130398D01*
X56505997Y61237184D01*
X56681107Y61380893D01*
X56824816Y61556003D01*
X56931602Y61755785D01*
X56997360Y61972561D01*
X57019564Y62198000D01*
X57014000Y62254492D01*
X57014000Y62496680D01*
X57029126Y62511806D01*
X57193283Y62757483D01*
X57306356Y63030466D01*
X57364000Y63320263D01*
X57364000Y63615737D01*
X57306356Y63905534D01*
X57193283Y64178517D01*
X57029126Y64424194D01*
X56820194Y64633126D01*
X56574517Y64797283D01*
X56301534Y64910356D01*
X56011737Y64968000D01*
X55716263Y64968000D01*
X55426466Y64910356D01*
X55153483Y64797283D01*
X54907806Y64633126D01*
X54698874Y64424194D01*
X54594000Y64267240D01*
X54489126Y64424194D01*
X54280194Y64633126D01*
X54034517Y64797283D01*
X53761534Y64910356D01*
X53471737Y64968000D01*
X53176263Y64968000D01*
X52886466Y64910356D01*
X52613483Y64797283D01*
X52367806Y64633126D01*
X52158874Y64424194D01*
X51994717Y64178517D01*
X51881644Y63905534D01*
X51824000Y63615737D01*
X51824000Y63320263D01*
X51881644Y63030466D01*
X51994717Y62757483D01*
X52158874Y62511806D01*
X52174001Y62496679D01*
X52174000Y58132176D01*
X52037033Y58132176D01*
X51877215Y58217601D01*
X51843488Y58227832D01*
X51756194Y58315126D01*
X51510517Y58479283D01*
X51237534Y58592356D01*
X50947737Y58650000D01*
X50652263Y58650000D01*
X50362466Y58592356D01*
X50089483Y58479283D01*
X49843806Y58315126D01*
X49634874Y58106194D01*
X49470717Y57860517D01*
X49357644Y57587534D01*
X49300000Y57297737D01*
X49300000Y57002263D01*
X49357644Y56712466D01*
X49470717Y56439483D01*
X49634874Y56193806D01*
X49843806Y55984874D01*
X50089483Y55820717D01*
X50362466Y55707644D01*
X50413059Y55697580D01*
X48310771Y53595291D01*
X48266884Y53559274D01*
X48123175Y53384164D01*
X48016389Y53184382D01*
X47950631Y52967606D01*
X47933991Y52798659D01*
X47933991Y52798649D01*
X47928428Y52742167D01*
X47933991Y52685686D01*
X47933990Y46868511D01*
X42043479Y40977999D01*
X41944956Y40977999D01*
X41976788Y41016787D01*
X42125359Y41294744D01*
X42216849Y41596345D01*
X42240000Y41831403D01*
X42240000Y49624053D01*
X42285382Y49593730D01*
X42342613Y49546762D01*
X42407903Y49511864D01*
X42469483Y49470717D01*
X42537907Y49442375D01*
X42603198Y49407476D01*
X42674044Y49385985D01*
X42742466Y49357644D01*
X42815104Y49343195D01*
X42885949Y49321705D01*
X42959626Y49314448D01*
X43032263Y49300000D01*
X43106320Y49300000D01*
X43180000Y49292743D01*
X43253680Y49300000D01*
X43327737Y49300000D01*
X43378846Y49310166D01*
X43284874Y49216194D01*
X43243722Y49154606D01*
X43196763Y49097386D01*
X43161871Y49032108D01*
X43120717Y48970517D01*
X43092371Y48902084D01*
X43057477Y48836802D01*
X43035988Y48765963D01*
X43007644Y48697534D01*
X42993195Y48624894D01*
X42971705Y48554051D01*
X42964448Y48480374D01*
X42950000Y48407737D01*
X42950000Y48333680D01*
X42942743Y48260000D01*
X42950000Y48186320D01*
X42950000Y48112263D01*
X42964448Y48039626D01*
X42971705Y47965949D01*
X42993195Y47895106D01*
X43007644Y47822466D01*
X43035988Y47754037D01*
X43057477Y47683198D01*
X43092371Y47617916D01*
X43120717Y47549483D01*
X43161871Y47487892D01*
X43196763Y47422614D01*
X43243722Y47365394D01*
X43284874Y47303806D01*
X43337246Y47251434D01*
X43384209Y47194209D01*
X43441434Y47147246D01*
X43493806Y47094874D01*
X43555394Y47053722D01*
X43612614Y47006763D01*
X43677892Y46971871D01*
X43739483Y46930717D01*
X43807916Y46902371D01*
X43873198Y46867477D01*
X43944037Y46845988D01*
X44012466Y46817644D01*
X44085106Y46803195D01*
X44155949Y46781705D01*
X44229626Y46774448D01*
X44302263Y46760000D01*
X44376320Y46760000D01*
X44450000Y46752743D01*
X44523680Y46760000D01*
X44597737Y46760000D01*
X44670374Y46774448D01*
X44744051Y46781705D01*
X44814894Y46803195D01*
X44887534Y46817644D01*
X44955963Y46845988D01*
X45026802Y46867477D01*
X45092084Y46902371D01*
X45160517Y46930717D01*
X45222108Y46971871D01*
X45287386Y47006763D01*
X45344606Y47053722D01*
X45406194Y47094874D01*
X45615126Y47303806D01*
X45615128Y47303809D01*
X46588565Y48277245D01*
X46645802Y48324218D01*
X46833248Y48552623D01*
X46972534Y48813208D01*
X47058305Y49095959D01*
X47080010Y49316330D01*
X47080010Y49316331D01*
X47087267Y49390009D01*
X47080010Y49463687D01*
X47080010Y60614565D01*
X48443802Y61978356D01*
X48681534Y62025644D01*
X48954517Y62138717D01*
X49200194Y62302874D01*
X49409126Y62511806D01*
X49573283Y62757483D01*
X49686356Y63030466D01*
X49744000Y63320263D01*
X49744000Y63615737D01*
X49686356Y63905534D01*
X49573283Y64178517D01*
X49409126Y64424194D01*
X49325170Y64508150D01*
X49305300Y64545324D01*
X49117854Y64773728D01*
X48889450Y64961174D01*
X48628865Y65100460D01*
X48346114Y65186232D01*
X48265492Y65194173D01*
X49268557Y66197237D01*
X49325792Y66244208D01*
X49513238Y66472613D01*
X49652524Y66733198D01*
X49738295Y67015949D01*
X49760000Y67236320D01*
X49760000Y67236321D01*
X49767257Y67310000D01*
X49760000Y67383680D01*
X49760000Y71267737D01*
X49745552Y71340374D01*
X49738295Y71414051D01*
X49716805Y71484896D01*
X49702356Y71557534D01*
X49674015Y71625956D01*
X49652524Y71696802D01*
X49617625Y71762093D01*
X49589283Y71830517D01*
X49548136Y71892097D01*
X49513238Y71957387D01*
X49466270Y72014618D01*
X49425126Y72076194D01*
X49372764Y72128556D01*
X49325792Y72185792D01*
X49268556Y72232764D01*
X49216194Y72285126D01*
X49154618Y72326270D01*
X49097387Y72373238D01*
X49032097Y72408136D01*
X48970517Y72449283D01*
X48902093Y72477625D01*
X48836802Y72512524D01*
X48765956Y72534015D01*
X48715335Y72554983D01*
X55134000Y72554983D01*
X55134000Y72161017D01*
X55210859Y71774622D01*
X55361623Y71410645D01*
X55580499Y71083074D01*
X55859074Y70804499D01*
X56186645Y70585623D01*
X56550622Y70434859D01*
X56937017Y70358000D01*
X57330983Y70358000D01*
X57717378Y70434859D01*
X58081355Y70585623D01*
X58408926Y70804499D01*
X58687501Y71083074D01*
X58906377Y71410645D01*
X59057141Y71774622D01*
X59134000Y72161017D01*
X59134000Y72554983D01*
X59057141Y72941378D01*
X58906377Y73305355D01*
X58687501Y73632926D01*
X58408926Y73911501D01*
X58081355Y74130377D01*
X57717378Y74281141D01*
X57330983Y74358000D01*
X56937017Y74358000D01*
X56550622Y74281141D01*
X56186645Y74130377D01*
X55859074Y73911501D01*
X55580499Y73632926D01*
X55361623Y73305355D01*
X55210859Y72941378D01*
X55134000Y72554983D01*
X48715335Y72554983D01*
X48697534Y72562356D01*
X48624896Y72576805D01*
X48554051Y72598295D01*
X48480374Y72605552D01*
X48407737Y72620000D01*
X48333680Y72620000D01*
X48260000Y72627257D01*
X48186320Y72620000D01*
X48112263Y72620000D01*
X48039625Y72605552D01*
X47965950Y72598295D01*
X47895107Y72576805D01*
X47822466Y72562356D01*
X47754041Y72534014D01*
X47683199Y72512524D01*
X47617911Y72477627D01*
X47549483Y72449283D01*
X47487899Y72408134D01*
X47422614Y72373238D01*
X47365387Y72326273D01*
X47303806Y72285126D01*
X47251440Y72232760D01*
X47194209Y72185792D01*
X47147241Y72128561D01*
X47094874Y72076194D01*
X47053726Y72014612D01*
X47006763Y71957387D01*
X46990001Y71926027D01*
X46973238Y71957387D01*
X46926270Y72014618D01*
X46885126Y72076194D01*
X46832764Y72128556D01*
X46785792Y72185792D01*
X46728557Y72232763D01*
X46676194Y72285126D01*
X46614614Y72326273D01*
X46557386Y72373238D01*
X46492101Y72408134D01*
X46430517Y72449283D01*
X46362089Y72477627D01*
X46296801Y72512524D01*
X46225959Y72534014D01*
X46157534Y72562356D01*
X46084893Y72576805D01*
X46014050Y72598295D01*
X45940375Y72605552D01*
X45867737Y72620000D01*
X45793680Y72620000D01*
X45720000Y72627257D01*
X45646320Y72620000D01*
X45572263Y72620000D01*
X45499626Y72605552D01*
X45425949Y72598295D01*
X45355104Y72576805D01*
X45282466Y72562356D01*
X45214044Y72534015D01*
X45143198Y72512524D01*
X45077907Y72477625D01*
X45009483Y72449283D01*
X44947903Y72408136D01*
X44882613Y72373238D01*
X44825382Y72326270D01*
X44763806Y72285126D01*
X44711444Y72232764D01*
X44654208Y72185792D01*
X44607237Y72128557D01*
X44554874Y72076194D01*
X44513727Y72014614D01*
X44466762Y71957386D01*
X44431866Y71892101D01*
X44390717Y71830517D01*
X44362373Y71762089D01*
X44327476Y71696801D01*
X44305986Y71625959D01*
X44277644Y71557534D01*
X44263195Y71484893D01*
X44241705Y71414050D01*
X44234449Y71340375D01*
X44220000Y71267737D01*
X44220000Y71193679D01*
X44220001Y68785447D01*
X39980266Y64545711D01*
X39746787Y64420914D01*
X39503155Y64220971D01*
X39303212Y63977338D01*
X39154641Y63699381D01*
X39063151Y63397780D01*
X39040000Y63162722D01*
X24360000Y63162722D01*
X24360000Y63270000D01*
X25547737Y63270000D01*
X25620374Y63284448D01*
X25694051Y63291705D01*
X25764896Y63313195D01*
X25837534Y63327644D01*
X25905956Y63355985D01*
X25976802Y63377476D01*
X26042093Y63412375D01*
X26110517Y63440717D01*
X26172097Y63481864D01*
X26237387Y63516762D01*
X26294618Y63563730D01*
X26356194Y63604874D01*
X26408556Y63657236D01*
X26465792Y63704208D01*
X26512764Y63761444D01*
X26565126Y63813806D01*
X26606270Y63875382D01*
X26653238Y63932613D01*
X26688136Y63997903D01*
X26729283Y64059483D01*
X26757625Y64127907D01*
X26792524Y64193198D01*
X26814015Y64264044D01*
X26842356Y64332466D01*
X26856805Y64405104D01*
X26878295Y64475949D01*
X26885552Y64549626D01*
X26900000Y64622263D01*
X26900000Y64696320D01*
X26907257Y64770000D01*
X26900000Y64843680D01*
X26900000Y64917737D01*
X26885552Y64990374D01*
X26878295Y65064051D01*
X26856805Y65134896D01*
X26842356Y65207534D01*
X26814015Y65275956D01*
X26792524Y65346802D01*
X26757625Y65412093D01*
X26729283Y65480517D01*
X26688136Y65542097D01*
X26653238Y65607387D01*
X26606270Y65664618D01*
X26565126Y65726194D01*
X26512764Y65778556D01*
X26486959Y65810000D01*
X28087737Y65810000D01*
X28160374Y65824448D01*
X28234051Y65831705D01*
X28304896Y65853195D01*
X28377534Y65867644D01*
X28445956Y65895985D01*
X28516802Y65917476D01*
X28582093Y65952375D01*
X28650517Y65980717D01*
X28712097Y66021864D01*
X28777387Y66056762D01*
X28834618Y66103730D01*
X28896194Y66144874D01*
X28948556Y66197236D01*
X29005792Y66244208D01*
X29052764Y66301444D01*
X29105126Y66353806D01*
X29146270Y66415382D01*
X29193238Y66472613D01*
X29228136Y66537903D01*
X29269283Y66599483D01*
X29297625Y66667907D01*
X29332524Y66733198D01*
X29354015Y66804044D01*
X29382356Y66872466D01*
X29396805Y66945104D01*
X29418295Y67015949D01*
X29425552Y67089626D01*
X29440000Y67162263D01*
X29440000Y67236321D01*
X29447257Y67310000D01*
X29440000Y67383680D01*
X29440000Y67457737D01*
X29425552Y67530374D01*
X29418295Y67604051D01*
X29396805Y67674896D01*
X29382356Y67747534D01*
X29354015Y67815956D01*
X29332524Y67886802D01*
X29297625Y67952093D01*
X29269283Y68020517D01*
X29228136Y68082097D01*
X29193238Y68147387D01*
X29146270Y68204618D01*
X29105126Y68266194D01*
X29052764Y68318556D01*
X29005792Y68375792D01*
X28948556Y68422764D01*
X28896194Y68475126D01*
X28834618Y68516270D01*
X28777387Y68563238D01*
X28712097Y68598136D01*
X28650517Y68639283D01*
X28582093Y68667625D01*
X28516802Y68702524D01*
X28445956Y68724015D01*
X28377534Y68752356D01*
X28304896Y68766805D01*
X28234051Y68788295D01*
X28160374Y68795552D01*
X28087737Y68810000D01*
X25252263Y68810000D01*
X25179626Y68795552D01*
X25105949Y68788295D01*
X25035104Y68766805D01*
X24962466Y68752356D01*
X24894044Y68724015D01*
X24823198Y68702524D01*
X24757907Y68667625D01*
X24689483Y68639283D01*
X24627903Y68598136D01*
X24562613Y68563238D01*
X24505382Y68516270D01*
X24443806Y68475126D01*
X24391444Y68422764D01*
X24334208Y68375792D01*
X24287236Y68318556D01*
X24234874Y68266194D01*
X24193730Y68204618D01*
X24146762Y68147387D01*
X24130000Y68116028D01*
X24113238Y68147387D01*
X24066270Y68204618D01*
X24025126Y68266194D01*
X23972764Y68318556D01*
X23925792Y68375792D01*
X23868556Y68422764D01*
X23816194Y68475126D01*
X23754618Y68516270D01*
X23697387Y68563238D01*
X23632097Y68598136D01*
X23570517Y68639283D01*
X23502093Y68667625D01*
X23436802Y68702524D01*
X23365956Y68724015D01*
X23297534Y68752356D01*
X23224896Y68766805D01*
X23154051Y68788295D01*
X23080374Y68795552D01*
X23007737Y68810000D01*
X22933680Y68810000D01*
X22860000Y68817257D01*
X22786320Y68810000D01*
X22712263Y68810000D01*
X22639625Y68795552D01*
X22565950Y68788295D01*
X22495107Y68766805D01*
X22422466Y68752356D01*
X22354041Y68724014D01*
X22283199Y68702524D01*
X22217911Y68667627D01*
X22149483Y68639283D01*
X22087899Y68598134D01*
X22022614Y68563238D01*
X21965387Y68516273D01*
X21903806Y68475126D01*
X21851440Y68422760D01*
X21794209Y68375792D01*
X21747241Y68318561D01*
X21694874Y68266194D01*
X21653726Y68204612D01*
X21606763Y68147387D01*
X21571869Y68082105D01*
X21530717Y68020517D01*
X21502372Y67952085D01*
X21467477Y67886802D01*
X21445989Y67815965D01*
X21417644Y67747534D01*
X21403194Y67674886D01*
X21381706Y67604051D01*
X21374450Y67530384D01*
X21360000Y67457737D01*
X21360000Y67162263D01*
X21360001Y67162258D01*
X21360001Y64917741D01*
X21360000Y64917737D01*
X21360000Y64843680D01*
X21352743Y64770000D01*
X409000Y64770000D01*
X409000Y72554983D01*
X1794000Y72554983D01*
X1794000Y72161017D01*
X1870859Y71774622D01*
X2021623Y71410645D01*
X2240499Y71083074D01*
X2519074Y70804499D01*
X2846645Y70585623D01*
X3210622Y70434859D01*
X3597017Y70358000D01*
X3990983Y70358000D01*
X4377378Y70434859D01*
X4741355Y70585623D01*
X5068926Y70804499D01*
X5347501Y71083074D01*
X5566377Y71410645D01*
X5717141Y71774622D01*
X5794000Y72161017D01*
X5794000Y72554983D01*
X5717141Y72941378D01*
X5566377Y73305355D01*
X5347501Y73632926D01*
X5068926Y73911501D01*
X4741355Y74130377D01*
X4377378Y74281141D01*
X3990983Y74358000D01*
X3597017Y74358000D01*
X3210622Y74281141D01*
X2846645Y74130377D01*
X2519074Y73911501D01*
X2240499Y73632926D01*
X2021623Y73305355D01*
X1870859Y72941378D01*
X1794000Y72554983D01*
X409000Y72554983D01*
X409000Y75743000D01*
X61789001Y75743000D01*
X61789000Y23253000D01*
G37*
X61789000Y23253000D02*
X50804874Y23253000D01*
X50784000Y23255056D01*
X50763126Y23253000D01*
X50700686Y23246850D01*
X50620573Y23222548D01*
X50546740Y23183084D01*
X50482026Y23129974D01*
X50428916Y23065260D01*
X50389452Y22991427D01*
X50365150Y22911314D01*
X50356944Y22828000D01*
X50359001Y22807116D01*
X50359000Y393000D01*
X409000Y393000D01*
X409000Y3974983D01*
X1794000Y3974983D01*
X1794000Y3581017D01*
X1870859Y3194622D01*
X2021623Y2830645D01*
X2240499Y2503074D01*
X2519074Y2224499D01*
X2846645Y2005623D01*
X3210622Y1854859D01*
X3597017Y1778000D01*
X3990983Y1778000D01*
X4377378Y1854859D01*
X4741355Y2005623D01*
X5068926Y2224499D01*
X5347501Y2503074D01*
X5566377Y2830645D01*
X5717141Y3194622D01*
X5794000Y3581017D01*
X5794000Y3974983D01*
X44974000Y3974983D01*
X44974000Y3581017D01*
X45050859Y3194622D01*
X45201623Y2830645D01*
X45420499Y2503074D01*
X45699074Y2224499D01*
X46026645Y2005623D01*
X46390622Y1854859D01*
X46777017Y1778000D01*
X47170983Y1778000D01*
X47557378Y1854859D01*
X47921355Y2005623D01*
X48248926Y2224499D01*
X48527501Y2503074D01*
X48746377Y2830645D01*
X48897141Y3194622D01*
X48974000Y3581017D01*
X48974000Y3974983D01*
X48897141Y4361378D01*
X48746377Y4725355D01*
X48527501Y5052926D01*
X48248926Y5331501D01*
X47921355Y5550377D01*
X47557378Y5701141D01*
X47170983Y5778000D01*
X46777017Y5778000D01*
X46390622Y5701141D01*
X46026645Y5550377D01*
X45699074Y5331501D01*
X45420499Y5052926D01*
X45201623Y4725355D01*
X45050859Y4361378D01*
X44974000Y3974983D01*
X5794000Y3974983D01*
X5717141Y4361378D01*
X5566377Y4725355D01*
X5347501Y5052926D01*
X5068926Y5331501D01*
X4741355Y5550377D01*
X4377378Y5701141D01*
X3990983Y5778000D01*
X3597017Y5778000D01*
X3210622Y5701141D01*
X2846645Y5550377D01*
X2519074Y5331501D01*
X2240499Y5052926D01*
X2021623Y4725355D01*
X1870859Y4361378D01*
X1794000Y3974983D01*
X409000Y3974983D01*
X409000Y31750000D01*
X3572743Y31750000D01*
X3580000Y31676320D01*
X3580000Y31602263D01*
X3594448Y31529626D01*
X3601705Y31455949D01*
X3623195Y31385104D01*
X3637644Y31312466D01*
X3665985Y31244044D01*
X3687476Y31173198D01*
X3722375Y31107907D01*
X3750717Y31039483D01*
X3791864Y30977903D01*
X3826762Y30912613D01*
X3873730Y30855382D01*
X3914874Y30793806D01*
X3967236Y30741444D01*
X4014208Y30684208D01*
X4071444Y30637236D01*
X4123806Y30584874D01*
X4185382Y30543730D01*
X4242613Y30496762D01*
X4273972Y30480000D01*
X4242613Y30463238D01*
X4185382Y30416270D01*
X4123806Y30375126D01*
X4071444Y30322764D01*
X4014208Y30275792D01*
X3967236Y30218556D01*
X3914874Y30166194D01*
X3873730Y30104618D01*
X3826762Y30047387D01*
X3791864Y29982097D01*
X3750717Y29920517D01*
X3722375Y29852093D01*
X3687476Y29786802D01*
X3665985Y29715956D01*
X3637644Y29647534D01*
X3623195Y29574896D01*
X3601705Y29504051D01*
X3594448Y29430374D01*
X3580000Y29357737D01*
X3580000Y29283680D01*
X3572743Y29210000D01*
X3580000Y29136320D01*
X3580000Y29062263D01*
X3594448Y28989626D01*
X3601705Y28915949D01*
X3623195Y28845104D01*
X3637644Y28772466D01*
X3665985Y28704044D01*
X3687476Y28633198D01*
X3722375Y28567907D01*
X3750717Y28499483D01*
X3791864Y28437903D01*
X3826762Y28372613D01*
X3873730Y28315382D01*
X3914874Y28253806D01*
X3967236Y28201444D01*
X4014208Y28144208D01*
X4071444Y28097236D01*
X4123806Y28044874D01*
X4185382Y28003730D01*
X4242613Y27956762D01*
X4273972Y27940000D01*
X4242613Y27923238D01*
X4185382Y27876270D01*
X4123806Y27835126D01*
X4071444Y27782764D01*
X4014208Y27735792D01*
X3967236Y27678556D01*
X3914874Y27626194D01*
X3873730Y27564618D01*
X3826762Y27507387D01*
X3791864Y27442097D01*
X3750717Y27380517D01*
X3722375Y27312093D01*
X3687476Y27246802D01*
X3665985Y27175956D01*
X3637644Y27107534D01*
X3623195Y27034896D01*
X3601705Y26964051D01*
X3594448Y26890374D01*
X3580000Y26817737D01*
X3580000Y26743680D01*
X3572743Y26670000D01*
X3580000Y26596320D01*
X3580000Y26522263D01*
X3594448Y26449626D01*
X3601705Y26375949D01*
X3623195Y26305104D01*
X3637644Y26232466D01*
X3665985Y26164044D01*
X3687476Y26093198D01*
X3722375Y26027907D01*
X3750717Y25959483D01*
X3791864Y25897903D01*
X3826762Y25832613D01*
X3873730Y25775382D01*
X3914874Y25713806D01*
X3967236Y25661444D01*
X4014208Y25604208D01*
X4071444Y25557236D01*
X4123806Y25504874D01*
X4185382Y25463730D01*
X4242613Y25416762D01*
X4307903Y25381864D01*
X4369483Y25340717D01*
X4437907Y25312375D01*
X4503198Y25277476D01*
X4574044Y25255985D01*
X4642466Y25227644D01*
X4715104Y25213195D01*
X4785949Y25191705D01*
X4859626Y25184448D01*
X4932263Y25170000D01*
X6998681Y25170000D01*
X7290000Y24878680D01*
X7290001Y18010000D01*
X6202263Y18010000D01*
X6129626Y17995552D01*
X6055949Y17988295D01*
X5985104Y17966805D01*
X5912466Y17952356D01*
X5844044Y17924015D01*
X5773198Y17902524D01*
X5707907Y17867625D01*
X5639483Y17839283D01*
X5577903Y17798136D01*
X5512613Y17763238D01*
X5455382Y17716270D01*
X5393806Y17675126D01*
X5341444Y17622764D01*
X5284208Y17575792D01*
X5237236Y17518556D01*
X5184874Y17466194D01*
X5143730Y17404618D01*
X5096762Y17347387D01*
X5061864Y17282097D01*
X5020717Y17220517D01*
X4992375Y17152093D01*
X4957476Y17086802D01*
X4935985Y17015956D01*
X4907644Y16947534D01*
X4893195Y16874896D01*
X4871705Y16804051D01*
X4864448Y16730374D01*
X4850000Y16657737D01*
X4850000Y16583680D01*
X4842743Y16510000D01*
X4850000Y16436320D01*
X4850000Y16362263D01*
X4864448Y16289626D01*
X4871705Y16215949D01*
X4893195Y16145104D01*
X4907644Y16072466D01*
X4935985Y16004044D01*
X4957476Y15933198D01*
X4992375Y15867907D01*
X5020717Y15799483D01*
X5061864Y15737903D01*
X5096762Y15672613D01*
X5143730Y15615382D01*
X5184874Y15553806D01*
X5237236Y15501444D01*
X5284208Y15444208D01*
X5341444Y15397236D01*
X5393806Y15344874D01*
X5455382Y15303730D01*
X5512613Y15256762D01*
X5543972Y15240000D01*
X5512613Y15223238D01*
X5455382Y15176270D01*
X5393806Y15135126D01*
X5341444Y15082764D01*
X5284208Y15035792D01*
X5237236Y14978556D01*
X5184874Y14926194D01*
X5143730Y14864618D01*
X5096762Y14807387D01*
X5061864Y14742097D01*
X5020717Y14680517D01*
X4992375Y14612093D01*
X4957476Y14546802D01*
X4935985Y14475956D01*
X4907644Y14407534D01*
X4893195Y14334896D01*
X4871705Y14264051D01*
X4864448Y14190374D01*
X4850000Y14117737D01*
X4850000Y14043680D01*
X4842743Y13970000D01*
X4850000Y13896320D01*
X4850000Y13822263D01*
X4864448Y13749626D01*
X4871705Y13675949D01*
X4893195Y13605104D01*
X4907644Y13532466D01*
X4935985Y13464044D01*
X4957476Y13393198D01*
X4992375Y13327907D01*
X5020717Y13259483D01*
X5061864Y13197903D01*
X5096762Y13132613D01*
X5143730Y13075382D01*
X5184874Y13013806D01*
X5237236Y12961444D01*
X5284208Y12904208D01*
X5341444Y12857236D01*
X5393806Y12804874D01*
X5455382Y12763730D01*
X5512613Y12716762D01*
X5577903Y12681864D01*
X5639483Y12640717D01*
X5707907Y12612375D01*
X5773198Y12577476D01*
X5844044Y12555985D01*
X5912466Y12527644D01*
X5985104Y12513195D01*
X6055949Y12491705D01*
X6129626Y12484448D01*
X6202263Y12470000D01*
X11577737Y12470000D01*
X11650374Y12484448D01*
X11724051Y12491705D01*
X11794896Y12513195D01*
X11867534Y12527644D01*
X11935956Y12555985D01*
X12006802Y12577476D01*
X12072093Y12612375D01*
X12140517Y12640717D01*
X12202097Y12681864D01*
X12267387Y12716762D01*
X12324618Y12763730D01*
X12386194Y12804874D01*
X12438556Y12857236D01*
X12495792Y12904208D01*
X12542764Y12961444D01*
X12595126Y13013806D01*
X12636270Y13075382D01*
X12683238Y13132613D01*
X12718136Y13197903D01*
X12759283Y13259483D01*
X12787625Y13327907D01*
X12822524Y13393198D01*
X12844015Y13464044D01*
X12872356Y13532466D01*
X12886805Y13605104D01*
X12908295Y13675949D01*
X12915552Y13749626D01*
X12930000Y13822263D01*
X12930000Y13896320D01*
X12937257Y13970000D01*
X12930000Y14043680D01*
X12930000Y14117737D01*
X12915552Y14190374D01*
X12908295Y14264051D01*
X12886805Y14334896D01*
X12872356Y14407534D01*
X12844015Y14475956D01*
X12822524Y14546802D01*
X12787625Y14612093D01*
X12759283Y14680517D01*
X12718136Y14742097D01*
X12683238Y14807387D01*
X12636270Y14864618D01*
X12595126Y14926194D01*
X12542764Y14978556D01*
X12495792Y15035792D01*
X12438556Y15082764D01*
X12386194Y15135126D01*
X12324618Y15176270D01*
X12267387Y15223238D01*
X12202097Y15258136D01*
X12140517Y15299283D01*
X12072093Y15327625D01*
X12006802Y15362524D01*
X11935956Y15384015D01*
X11867534Y15412356D01*
X11794896Y15426805D01*
X11724051Y15448295D01*
X11650374Y15455552D01*
X11577737Y15470000D01*
X10106323Y15470000D01*
X10226788Y15616787D01*
X10375359Y15894744D01*
X10466849Y16196345D01*
X10490000Y16431403D01*
X10490000Y20414053D01*
X10497751Y20408875D01*
X10624613Y20304762D01*
X10885198Y20165476D01*
X11167949Y20079705D01*
X11388320Y20058000D01*
X11462000Y20050743D01*
X11535680Y20058000D01*
X14142680Y20058000D01*
X14058874Y19974194D01*
X13894717Y19728517D01*
X13781644Y19455534D01*
X13724000Y19165737D01*
X13724000Y18870263D01*
X13781644Y18580466D01*
X13894717Y18307483D01*
X14058874Y18061806D01*
X14267806Y17852874D01*
X14424760Y17748000D01*
X14267806Y17643126D01*
X14058874Y17434194D01*
X13894717Y17188517D01*
X13781644Y16915534D01*
X13724000Y16625737D01*
X13724000Y16330263D01*
X13781644Y16040466D01*
X13894717Y15767483D01*
X14058874Y15521806D01*
X14267806Y15312874D01*
X14424760Y15208000D01*
X14267806Y15103126D01*
X14058874Y14894194D01*
X13894717Y14648517D01*
X13781644Y14375534D01*
X13724000Y14085737D01*
X13724000Y13790263D01*
X13781644Y13500466D01*
X13894717Y13227483D01*
X14058874Y12981806D01*
X14267806Y12772874D01*
X14424760Y12668000D01*
X14267806Y12563126D01*
X14058874Y12354194D01*
X13894717Y12108517D01*
X13781644Y11835534D01*
X13724000Y11545737D01*
X13724000Y11250263D01*
X13781644Y10960466D01*
X13894717Y10687483D01*
X14058874Y10441806D01*
X14267806Y10232874D01*
X14513483Y10068717D01*
X14786466Y9955644D01*
X15076263Y9898000D01*
X15371737Y9898000D01*
X15661534Y9955644D01*
X15934517Y10068717D01*
X16180194Y10232874D01*
X16389126Y10441806D01*
X16553283Y10687483D01*
X16666356Y10960466D01*
X16724000Y11250263D01*
X16724000Y11545737D01*
X16666356Y11835534D01*
X16553283Y12108517D01*
X16389126Y12354194D01*
X16180194Y12563126D01*
X16023240Y12668000D01*
X16180194Y12772874D01*
X16389126Y12981806D01*
X16553283Y13227483D01*
X16666356Y13500466D01*
X16724000Y13790263D01*
X16724000Y14085737D01*
X16666356Y14375534D01*
X16553283Y14648517D01*
X16389126Y14894194D01*
X16180194Y15103126D01*
X16023240Y15208000D01*
X16180194Y15312874D01*
X16389126Y15521806D01*
X16553283Y15767483D01*
X16666356Y16040466D01*
X16724000Y16330263D01*
X16724000Y16625737D01*
X16666356Y16915534D01*
X16553283Y17188517D01*
X16389126Y17434194D01*
X16180194Y17643126D01*
X16023240Y17748000D01*
X16180194Y17852874D01*
X16389126Y18061806D01*
X16400657Y18079063D01*
X16549107Y18200893D01*
X16692816Y18376003D01*
X16799602Y18575785D01*
X16865360Y18792561D01*
X16887564Y19018000D01*
X16865360Y19243439D01*
X16799602Y19460215D01*
X16692816Y19659997D01*
X16549107Y19835107D01*
X16400657Y19956937D01*
X16389126Y19974194D01*
X16180194Y20183126D01*
X16026256Y20285984D01*
X16061387Y20304762D01*
X16118618Y20351730D01*
X16180194Y20392874D01*
X16232556Y20445236D01*
X16289792Y20492208D01*
X16336764Y20549444D01*
X16389126Y20601806D01*
X16430270Y20663382D01*
X16477238Y20720613D01*
X16512136Y20785903D01*
X16553283Y20847483D01*
X16581625Y20915907D01*
X16616524Y20981198D01*
X16638015Y21052044D01*
X16666356Y21120466D01*
X16680805Y21193104D01*
X16702295Y21263949D01*
X16709552Y21337626D01*
X16724000Y21410263D01*
X16724000Y21484320D01*
X16731257Y21558000D01*
X16724000Y21631680D01*
X16724000Y21705737D01*
X16709552Y21778374D01*
X16702295Y21852051D01*
X16680805Y21922896D01*
X16666356Y21995534D01*
X16638015Y22063956D01*
X16616524Y22134802D01*
X16581625Y22200093D01*
X16553283Y22268517D01*
X16512136Y22330097D01*
X16477238Y22395387D01*
X16430270Y22452618D01*
X16389126Y22514194D01*
X16336764Y22566556D01*
X16289792Y22623792D01*
X16232556Y22670764D01*
X16180194Y22723126D01*
X16118618Y22764270D01*
X16061387Y22811238D01*
X16026256Y22830016D01*
X16180194Y22932874D01*
X16389126Y23141806D01*
X16553283Y23387483D01*
X16666356Y23660466D01*
X16724000Y23950263D01*
X16724000Y24245737D01*
X16666356Y24535534D01*
X16553283Y24808517D01*
X16389126Y25054194D01*
X16180194Y25263126D01*
X16023240Y25368000D01*
X16180194Y25472874D01*
X16389126Y25681806D01*
X16553283Y25927483D01*
X16666356Y26200466D01*
X16724000Y26490263D01*
X16724000Y26785737D01*
X16666356Y27075534D01*
X16553283Y27348517D01*
X16389126Y27594194D01*
X16180194Y27803126D01*
X16023240Y27908000D01*
X16180194Y28012874D01*
X16389126Y28221806D01*
X16553283Y28467483D01*
X16666356Y28740466D01*
X16724000Y29030263D01*
X16724000Y29325737D01*
X16666356Y29615534D01*
X16553283Y29888517D01*
X16389126Y30134194D01*
X16305320Y30218000D01*
X17534001Y30218000D01*
X17534000Y28055737D01*
X17534000Y27760263D01*
X17548449Y27687625D01*
X17555705Y27613950D01*
X17577195Y27543107D01*
X17591644Y27470466D01*
X17619986Y27402041D01*
X17641476Y27331199D01*
X17676373Y27265911D01*
X17704717Y27197483D01*
X17745866Y27135899D01*
X17780762Y27070614D01*
X17827727Y27013386D01*
X17868874Y26951806D01*
X17921237Y26899443D01*
X17968208Y26842208D01*
X18025444Y26795236D01*
X18077806Y26742874D01*
X18139382Y26701730D01*
X18196613Y26654762D01*
X18261903Y26619864D01*
X18323483Y26578717D01*
X18391907Y26550375D01*
X18457198Y26515476D01*
X18528044Y26493985D01*
X18596466Y26465644D01*
X18669104Y26451195D01*
X18739949Y26429705D01*
X18813626Y26422448D01*
X18886263Y26408000D01*
X18960320Y26408000D01*
X19034000Y26400743D01*
X19107680Y26408000D01*
X19181737Y26408000D01*
X19254375Y26422448D01*
X19328050Y26429705D01*
X19398893Y26451195D01*
X19471534Y26465644D01*
X19539959Y26493986D01*
X19610801Y26515476D01*
X19676089Y26550373D01*
X19744517Y26578717D01*
X19806101Y26619866D01*
X19871386Y26654762D01*
X19928614Y26701727D01*
X19990194Y26742874D01*
X20042557Y26795237D01*
X20099792Y26842208D01*
X20146764Y26899444D01*
X20199126Y26951806D01*
X20240270Y27013382D01*
X20287238Y27070613D01*
X20304000Y27101973D01*
X20320762Y27070614D01*
X20367727Y27013386D01*
X20408874Y26951806D01*
X20461237Y26899443D01*
X20508208Y26842208D01*
X20565444Y26795236D01*
X20617806Y26742874D01*
X20679382Y26701730D01*
X20736613Y26654762D01*
X20801903Y26619864D01*
X20863483Y26578717D01*
X20931907Y26550375D01*
X20997198Y26515476D01*
X21068044Y26493985D01*
X21136466Y26465644D01*
X21209104Y26451195D01*
X21279949Y26429705D01*
X21353626Y26422448D01*
X21426263Y26408000D01*
X21500320Y26408000D01*
X21574000Y26400743D01*
X21647680Y26408000D01*
X21721737Y26408000D01*
X21794375Y26422448D01*
X21868050Y26429705D01*
X21938893Y26451195D01*
X22011534Y26465644D01*
X22079959Y26493986D01*
X22150801Y26515476D01*
X22216089Y26550373D01*
X22284517Y26578717D01*
X22346101Y26619866D01*
X22411386Y26654762D01*
X22468614Y26701727D01*
X22530194Y26742874D01*
X22582557Y26795237D01*
X22639792Y26842208D01*
X22686764Y26899444D01*
X22739126Y26951806D01*
X22780270Y27013382D01*
X22827238Y27070613D01*
X22844000Y27101973D01*
X22860762Y27070614D01*
X22907727Y27013386D01*
X22948874Y26951806D01*
X23001237Y26899443D01*
X23048208Y26842208D01*
X23105444Y26795236D01*
X23157806Y26742874D01*
X23219382Y26701730D01*
X23276613Y26654762D01*
X23341903Y26619864D01*
X23403483Y26578717D01*
X23471907Y26550375D01*
X23537198Y26515476D01*
X23608044Y26493985D01*
X23676466Y26465644D01*
X23749104Y26451195D01*
X23819949Y26429705D01*
X23893626Y26422448D01*
X23966263Y26408000D01*
X24040320Y26408000D01*
X24114000Y26400743D01*
X24187680Y26408000D01*
X24261737Y26408000D01*
X24334375Y26422448D01*
X24408050Y26429705D01*
X24478893Y26451195D01*
X24551534Y26465644D01*
X24619959Y26493986D01*
X24690801Y26515476D01*
X24756089Y26550373D01*
X24824517Y26578717D01*
X24886101Y26619866D01*
X24951386Y26654762D01*
X25008614Y26701727D01*
X25070001Y26742745D01*
X25070001Y16729687D01*
X16158315Y7818000D01*
X15076263Y7818000D01*
X15003626Y7803552D01*
X14929949Y7796295D01*
X14859104Y7774805D01*
X14786466Y7760356D01*
X14718044Y7732015D01*
X14647198Y7710524D01*
X14581907Y7675625D01*
X14513483Y7647283D01*
X14451903Y7606136D01*
X14386613Y7571238D01*
X14329382Y7524270D01*
X14267806Y7483126D01*
X14215444Y7430764D01*
X14158208Y7383792D01*
X14111236Y7326556D01*
X14058874Y7274194D01*
X14017730Y7212618D01*
X13970762Y7155387D01*
X13935864Y7090097D01*
X13894717Y7028517D01*
X13866375Y6960093D01*
X13831476Y6894802D01*
X13809985Y6823956D01*
X13781644Y6755534D01*
X13767195Y6682896D01*
X13745705Y6612051D01*
X13738448Y6538374D01*
X13724000Y6465737D01*
X13724000Y6391680D01*
X13716743Y6318000D01*
X13724000Y6244320D01*
X13724000Y6170263D01*
X13738448Y6097626D01*
X13745705Y6023949D01*
X13767195Y5953104D01*
X13781644Y5880466D01*
X13809985Y5812044D01*
X13831476Y5741198D01*
X13866375Y5675907D01*
X13894717Y5607483D01*
X13935864Y5545903D01*
X13970762Y5480613D01*
X14017730Y5423382D01*
X14058874Y5361806D01*
X14111236Y5309444D01*
X14158208Y5252208D01*
X14215444Y5205236D01*
X14267806Y5152874D01*
X14329382Y5111730D01*
X14386613Y5064762D01*
X14451903Y5029864D01*
X14513483Y4988717D01*
X14581907Y4960375D01*
X14647198Y4925476D01*
X14718044Y4903985D01*
X14786466Y4875644D01*
X14859104Y4861195D01*
X14929949Y4839705D01*
X15003626Y4832448D01*
X15076263Y4818000D01*
X16705954Y4818000D01*
X16779634Y4810743D01*
X16853314Y4818000D01*
X17073685Y4839705D01*
X17356436Y4925476D01*
X17617021Y5064762D01*
X17845426Y5252208D01*
X17892403Y5309450D01*
X19080690Y6497737D01*
X35330000Y6497737D01*
X35330000Y6202263D01*
X35387644Y5912466D01*
X35500717Y5639483D01*
X35664874Y5393806D01*
X35749236Y5309444D01*
X35796208Y5252208D01*
X35853444Y5205236D01*
X35873806Y5184874D01*
X35897751Y5168875D01*
X36024613Y5064762D01*
X36285198Y4925476D01*
X36567949Y4839705D01*
X36788320Y4818000D01*
X41804320Y4818000D01*
X41878000Y4810743D01*
X41951680Y4818000D01*
X42172051Y4839705D01*
X42454802Y4925476D01*
X42715387Y5064762D01*
X42943792Y5252208D01*
X42990769Y5309450D01*
X45562759Y7881439D01*
X45615126Y7933806D01*
X45656272Y7995385D01*
X45703237Y8052612D01*
X45738134Y8117899D01*
X45779283Y8179483D01*
X45807627Y8247910D01*
X45842523Y8313197D01*
X45864012Y8384038D01*
X45892356Y8452466D01*
X45906806Y8525111D01*
X45928294Y8595948D01*
X45935550Y8669620D01*
X45950000Y8742263D01*
X45950000Y8816321D01*
X45957257Y8889999D01*
X45950000Y8963677D01*
X45950000Y9037737D01*
X45935550Y9110382D01*
X45928294Y9184050D01*
X45906807Y9254884D01*
X45892356Y9327534D01*
X45864011Y9395966D01*
X45842523Y9466802D01*
X45807629Y9532084D01*
X45779283Y9600517D01*
X45738129Y9662108D01*
X45703237Y9727386D01*
X45656278Y9784606D01*
X45615126Y9846194D01*
X45562754Y9898566D01*
X45515791Y9955791D01*
X45458566Y10002754D01*
X45406194Y10055126D01*
X45344606Y10096278D01*
X45287386Y10143237D01*
X45222108Y10178129D01*
X45160517Y10219283D01*
X45092084Y10247629D01*
X45026802Y10282523D01*
X44955966Y10304011D01*
X44887534Y10332356D01*
X44814884Y10346807D01*
X44744050Y10368294D01*
X44670382Y10375550D01*
X44597737Y10390000D01*
X44523677Y10390000D01*
X44449999Y10397257D01*
X44376321Y10390000D01*
X44302263Y10390000D01*
X44229620Y10375550D01*
X44155948Y10368294D01*
X44085111Y10346806D01*
X44012466Y10332356D01*
X43944038Y10304012D01*
X43873197Y10282523D01*
X43807910Y10247627D01*
X43739483Y10219283D01*
X43677899Y10178134D01*
X43612612Y10143237D01*
X43555385Y10096272D01*
X43493806Y10055126D01*
X43441439Y10002759D01*
X41256681Y7818000D01*
X37138612Y7818000D01*
X36977737Y7850000D01*
X36682263Y7850000D01*
X36392466Y7792356D01*
X36119483Y7679283D01*
X35873806Y7515126D01*
X35664874Y7306194D01*
X35500717Y7060517D01*
X35387644Y6787534D01*
X35330000Y6497737D01*
X19080690Y6497737D01*
X27329736Y14746782D01*
X27563213Y14871578D01*
X27806845Y15071521D01*
X28006788Y15315153D01*
X28155359Y15593110D01*
X28246849Y15894711D01*
X28270000Y16129769D01*
X28270000Y50878597D01*
X28246849Y51113655D01*
X28155359Y51415256D01*
X28006788Y51693213D01*
X27806845Y51936845D01*
X27563212Y52136788D01*
X27285255Y52285359D01*
X26983654Y52376849D01*
X26670000Y52407741D01*
X26356345Y52376849D01*
X26054744Y52285359D01*
X25776787Y52136788D01*
X25533155Y51936845D01*
X25333212Y51693212D01*
X25184641Y51415255D01*
X25093151Y51113654D01*
X25070000Y50878596D01*
X25070000Y40838000D01*
X23966263Y40838000D01*
X23893626Y40823552D01*
X23819949Y40816295D01*
X23749104Y40794805D01*
X23676466Y40780356D01*
X23608044Y40752015D01*
X23537198Y40730524D01*
X23471907Y40695625D01*
X23403483Y40667283D01*
X23341903Y40626136D01*
X23276613Y40591238D01*
X23219382Y40544270D01*
X23157806Y40503126D01*
X23105444Y40450764D01*
X23074000Y40424959D01*
X23074000Y42290575D01*
X23081257Y42364253D01*
X23072426Y42453912D01*
X23052295Y42658303D01*
X22966524Y42941054D01*
X22827238Y43201639D01*
X22639792Y43430044D01*
X22582555Y43477017D01*
X12930000Y53129571D01*
X12930000Y54757737D01*
X12915552Y54830374D01*
X12908295Y54904051D01*
X12886805Y54974896D01*
X12872356Y55047534D01*
X12844015Y55115956D01*
X12822524Y55186802D01*
X12787625Y55252093D01*
X12759283Y55320517D01*
X12718136Y55382097D01*
X12683238Y55447387D01*
X12636270Y55504618D01*
X12595126Y55566194D01*
X12542764Y55618556D01*
X12495792Y55675792D01*
X12438556Y55722764D01*
X12386194Y55775126D01*
X12324618Y55816270D01*
X12267387Y55863238D01*
X12202097Y55898136D01*
X12140517Y55939283D01*
X12072093Y55967625D01*
X12006802Y56002524D01*
X11935956Y56024015D01*
X11867534Y56052356D01*
X11794896Y56066805D01*
X11724051Y56088295D01*
X11650374Y56095552D01*
X11577737Y56110000D01*
X11503680Y56110000D01*
X11430000Y56117257D01*
X11356320Y56110000D01*
X11282263Y56110000D01*
X11209625Y56095552D01*
X11135950Y56088295D01*
X11065107Y56066805D01*
X10992466Y56052356D01*
X10924041Y56024014D01*
X10853199Y56002524D01*
X10787911Y55967627D01*
X10719483Y55939283D01*
X10657899Y55898134D01*
X10592614Y55863238D01*
X10535387Y55816273D01*
X10473806Y55775126D01*
X10421440Y55722760D01*
X10364209Y55675792D01*
X10317241Y55618561D01*
X10264874Y55566194D01*
X10223726Y55504612D01*
X10176763Y55447387D01*
X10160001Y55416027D01*
X10143238Y55447387D01*
X10096270Y55504618D01*
X10055126Y55566194D01*
X10002764Y55618556D01*
X9955792Y55675792D01*
X9898556Y55722764D01*
X9846194Y55775126D01*
X9784618Y55816270D01*
X9727387Y55863238D01*
X9662097Y55898136D01*
X9600517Y55939283D01*
X9532093Y55967625D01*
X9466802Y56002524D01*
X9395956Y56024015D01*
X9327534Y56052356D01*
X9254896Y56066805D01*
X9184051Y56088295D01*
X9110374Y56095552D01*
X9037737Y56110000D01*
X8963680Y56110000D01*
X8890000Y56117257D01*
X8816320Y56110000D01*
X8742263Y56110000D01*
X8669625Y56095552D01*
X8595950Y56088295D01*
X8525107Y56066805D01*
X8452466Y56052356D01*
X8384041Y56024014D01*
X8313199Y56002524D01*
X8247911Y55967627D01*
X8179483Y55939283D01*
X8117899Y55898134D01*
X8052614Y55863238D01*
X7995387Y55816273D01*
X7933806Y55775126D01*
X7881440Y55722760D01*
X7824209Y55675792D01*
X7777241Y55618561D01*
X7724874Y55566194D01*
X7683726Y55504612D01*
X7636763Y55447387D01*
X7620001Y55416027D01*
X7603238Y55447387D01*
X7556270Y55504618D01*
X7515126Y55566194D01*
X7462764Y55618556D01*
X7415792Y55675792D01*
X7358557Y55722763D01*
X7306194Y55775126D01*
X7244614Y55816273D01*
X7187386Y55863238D01*
X7122101Y55898134D01*
X7060517Y55939283D01*
X6992089Y55967627D01*
X6926801Y56002524D01*
X6855959Y56024014D01*
X6787534Y56052356D01*
X6714893Y56066805D01*
X6644050Y56088295D01*
X6570375Y56095552D01*
X6497737Y56110000D01*
X6423680Y56110000D01*
X6350000Y56117257D01*
X6276320Y56110000D01*
X6202263Y56110000D01*
X6129626Y56095552D01*
X6055949Y56088295D01*
X5985104Y56066805D01*
X5912466Y56052356D01*
X5844044Y56024015D01*
X5773198Y56002524D01*
X5707907Y55967625D01*
X5639483Y55939283D01*
X5577903Y55898136D01*
X5512613Y55863238D01*
X5455382Y55816270D01*
X5393806Y55775126D01*
X5341444Y55722764D01*
X5284208Y55675792D01*
X5237237Y55618557D01*
X5184874Y55566194D01*
X5143727Y55504614D01*
X5096762Y55447386D01*
X5061866Y55382101D01*
X5020717Y55320517D01*
X4992373Y55252089D01*
X4957476Y55186801D01*
X4935986Y55115959D01*
X4907644Y55047534D01*
X4893195Y54974893D01*
X4871705Y54904050D01*
X4864449Y54830375D01*
X4850000Y54757737D01*
X4850000Y54683679D01*
X4850001Y50873690D01*
X4842743Y50800000D01*
X4871705Y50505949D01*
X4945827Y50261602D01*
X4957477Y50223198D01*
X5096763Y49962613D01*
X5284209Y49734208D01*
X5341445Y49687236D01*
X7290000Y47738680D01*
X7290001Y33541321D01*
X6998681Y33250000D01*
X4932263Y33250000D01*
X4859626Y33235552D01*
X4785949Y33228295D01*
X4715104Y33206805D01*
X4642466Y33192356D01*
X4574044Y33164015D01*
X4503198Y33142524D01*
X4437907Y33107625D01*
X4369483Y33079283D01*
X4307903Y33038136D01*
X4242613Y33003238D01*
X4185382Y32956270D01*
X4123806Y32915126D01*
X4071444Y32862764D01*
X4014208Y32815792D01*
X3967236Y32758556D01*
X3914874Y32706194D01*
X3873730Y32644618D01*
X3826762Y32587387D01*
X3791864Y32522097D01*
X3750717Y32460517D01*
X3722375Y32392093D01*
X3687476Y32326802D01*
X3665985Y32255956D01*
X3637644Y32187534D01*
X3623195Y32114896D01*
X3601705Y32044051D01*
X3594448Y31970374D01*
X3580000Y31897737D01*
X3580000Y31823680D01*
X3572743Y31750000D01*
X409000Y31750000D01*
X409000Y64770000D01*
X21352743Y64770000D01*
X21360000Y64696320D01*
X21360000Y64622263D01*
X21360001Y64622259D01*
X21360000Y45867737D01*
X21360000Y45572263D01*
X21374449Y45499625D01*
X21381705Y45425950D01*
X21403195Y45355107D01*
X21417644Y45282466D01*
X21445986Y45214041D01*
X21467476Y45143199D01*
X21502373Y45077911D01*
X21530717Y45009483D01*
X21571866Y44947899D01*
X21606762Y44882614D01*
X21653727Y44825386D01*
X21694874Y44763806D01*
X21747237Y44711443D01*
X21794208Y44654208D01*
X21851444Y44607236D01*
X21903806Y44554874D01*
X21965382Y44513730D01*
X22022613Y44466762D01*
X22087903Y44431864D01*
X22149483Y44390717D01*
X22217907Y44362375D01*
X22283198Y44327476D01*
X22354044Y44305985D01*
X22422466Y44277644D01*
X22495104Y44263195D01*
X22565949Y44241705D01*
X22639626Y44234448D01*
X22712263Y44220000D01*
X22786320Y44220000D01*
X22860000Y44212743D01*
X22933680Y44220000D01*
X23007737Y44220000D01*
X23080375Y44234448D01*
X23154050Y44241705D01*
X23224893Y44263195D01*
X23297534Y44277644D01*
X23365959Y44305986D01*
X23436801Y44327476D01*
X23502089Y44362373D01*
X23570517Y44390717D01*
X23632101Y44431866D01*
X23697386Y44466762D01*
X23754614Y44513727D01*
X23816194Y44554874D01*
X23868557Y44607237D01*
X23925792Y44654208D01*
X23972764Y44711444D01*
X24025126Y44763806D01*
X24066270Y44825382D01*
X24113238Y44882613D01*
X24148136Y44947903D01*
X24189283Y45009483D01*
X24217625Y45077907D01*
X24252524Y45143198D01*
X24274015Y45214044D01*
X24302356Y45282466D01*
X24316805Y45355104D01*
X24338295Y45425949D01*
X24345552Y45499626D01*
X24360000Y45572263D01*
X24360000Y63162722D01*
X39040000Y63162722D01*
X39040001Y41831403D01*
X39063152Y41596345D01*
X39154642Y41294744D01*
X39303213Y41016787D01*
X39503156Y40773155D01*
X39746788Y40573212D01*
X39757604Y40567431D01*
X39729382Y40544270D01*
X39667806Y40503126D01*
X39615444Y40450764D01*
X39558208Y40403792D01*
X39511236Y40346556D01*
X39458874Y40294194D01*
X39417730Y40232618D01*
X39370762Y40175387D01*
X39335864Y40110097D01*
X39294717Y40048517D01*
X39266375Y39980093D01*
X39231476Y39914802D01*
X39209985Y39843956D01*
X39181644Y39775534D01*
X39167195Y39702896D01*
X39145705Y39632051D01*
X39138448Y39558374D01*
X39124000Y39485737D01*
X39124000Y39411680D01*
X39116743Y39338000D01*
X39124000Y39264321D01*
X39124000Y39190263D01*
X39138448Y39117626D01*
X39145705Y39043949D01*
X39167195Y38973104D01*
X39181644Y38900466D01*
X39209985Y38832044D01*
X39231476Y38761198D01*
X39266375Y38695907D01*
X39294717Y38627483D01*
X39335864Y38565903D01*
X39370762Y38500613D01*
X39417730Y38443382D01*
X39458874Y38381806D01*
X39511236Y38329444D01*
X39558208Y38272208D01*
X39615444Y38225236D01*
X39667806Y38172874D01*
X39729382Y38131730D01*
X39786613Y38084762D01*
X39821744Y38065984D01*
X39667806Y37963126D01*
X39458874Y37754194D01*
X39294717Y37508517D01*
X39181644Y37235534D01*
X39124000Y36945737D01*
X39124000Y36650263D01*
X39181644Y36360466D01*
X39294717Y36087483D01*
X39458874Y35841806D01*
X39667806Y35632874D01*
X39824760Y35528000D01*
X39667806Y35423126D01*
X39458874Y35214194D01*
X39294717Y34968517D01*
X39181644Y34695534D01*
X39124000Y34405737D01*
X39124000Y34110263D01*
X39181644Y33820466D01*
X39294717Y33547483D01*
X39458874Y33301806D01*
X39667806Y33092874D01*
X39821744Y32990016D01*
X39786613Y32971238D01*
X39729382Y32924270D01*
X39667806Y32883126D01*
X39615444Y32830764D01*
X39558208Y32783792D01*
X39511236Y32726556D01*
X39458874Y32674194D01*
X39417730Y32612618D01*
X39370762Y32555387D01*
X39335864Y32490097D01*
X39294717Y32428517D01*
X39266375Y32360093D01*
X39231476Y32294802D01*
X39209985Y32223956D01*
X39181644Y32155534D01*
X39167195Y32082896D01*
X39145705Y32012051D01*
X39138448Y31938374D01*
X39124000Y31865737D01*
X39124000Y31791680D01*
X39116743Y31718000D01*
X39124000Y31644320D01*
X39124000Y31570263D01*
X39138448Y31497626D01*
X39145705Y31423949D01*
X39167195Y31353104D01*
X39181644Y31280466D01*
X39209985Y31212044D01*
X39231476Y31141198D01*
X39266375Y31075907D01*
X39294717Y31007483D01*
X39335864Y30945903D01*
X39370762Y30880613D01*
X39417730Y30823382D01*
X39458874Y30761806D01*
X39511236Y30709444D01*
X39558208Y30652208D01*
X39615444Y30605236D01*
X39667806Y30552874D01*
X39729382Y30511730D01*
X39786613Y30464762D01*
X39821744Y30445984D01*
X39667806Y30343126D01*
X39458874Y30134194D01*
X39294717Y29888517D01*
X39181644Y29615534D01*
X39124000Y29325737D01*
X39124000Y29030263D01*
X39181644Y28740466D01*
X39294717Y28467483D01*
X39458874Y28221806D01*
X39667806Y28012874D01*
X39824760Y27908000D01*
X39667806Y27803126D01*
X39458874Y27594194D01*
X39294717Y27348517D01*
X39181644Y27075534D01*
X39124000Y26785737D01*
X39124000Y26490263D01*
X39181644Y26200466D01*
X39294717Y25927483D01*
X39458874Y25681806D01*
X39667806Y25472874D01*
X39824760Y25368000D01*
X39667806Y25263126D01*
X39458874Y25054194D01*
X39294717Y24808517D01*
X39181644Y24535534D01*
X39124000Y24245737D01*
X39124000Y23950263D01*
X39181644Y23660466D01*
X39294717Y23387483D01*
X39458874Y23141806D01*
X39667806Y22932874D01*
X39824760Y22828000D01*
X39667806Y22723126D01*
X39458874Y22514194D01*
X39294717Y22268517D01*
X39181644Y21995534D01*
X39124000Y21705737D01*
X39124000Y21410263D01*
X39181644Y21120466D01*
X39294717Y20847483D01*
X39458874Y20601806D01*
X39667806Y20392874D01*
X39824760Y20288000D01*
X39667806Y20183126D01*
X39458874Y19974194D01*
X39294717Y19728517D01*
X39181644Y19455534D01*
X39124000Y19165737D01*
X39124000Y18870263D01*
X39181644Y18580466D01*
X39294717Y18307483D01*
X39458874Y18061806D01*
X39667806Y17852874D01*
X39824760Y17748000D01*
X39667806Y17643126D01*
X39458874Y17434194D01*
X39294717Y17188517D01*
X39181644Y16915534D01*
X39124000Y16625737D01*
X39124000Y16330263D01*
X39181644Y16040466D01*
X39294717Y15767483D01*
X39458874Y15521806D01*
X39667806Y15312874D01*
X39824760Y15208000D01*
X39667806Y15103126D01*
X39458874Y14894194D01*
X39294717Y14648517D01*
X39181644Y14375534D01*
X39124000Y14085737D01*
X39124000Y13790263D01*
X39181644Y13500466D01*
X39294717Y13227483D01*
X39458874Y12981806D01*
X39667806Y12772874D01*
X39824760Y12668000D01*
X39667806Y12563126D01*
X39458874Y12354194D01*
X39294717Y12108517D01*
X39181644Y11835534D01*
X39124000Y11545737D01*
X39124000Y11250263D01*
X39181644Y10960466D01*
X39294717Y10687483D01*
X39458874Y10441806D01*
X39667806Y10232874D01*
X39913483Y10068717D01*
X40186466Y9955644D01*
X40476263Y9898000D01*
X40771737Y9898000D01*
X41061534Y9955644D01*
X41334517Y10068717D01*
X41580194Y10232874D01*
X41789126Y10441806D01*
X41953283Y10687483D01*
X42066356Y10960466D01*
X42124000Y11250263D01*
X42124000Y11545737D01*
X42066356Y11835534D01*
X41953283Y12108517D01*
X41789126Y12354194D01*
X41580194Y12563126D01*
X41423240Y12668000D01*
X41580194Y12772874D01*
X41789126Y12981806D01*
X41953283Y13227483D01*
X42066356Y13500466D01*
X42124000Y13790263D01*
X42124000Y14085737D01*
X42066356Y14375534D01*
X41953283Y14648517D01*
X41789126Y14894194D01*
X41580194Y15103126D01*
X41423240Y15208000D01*
X41580194Y15312874D01*
X41789126Y15521806D01*
X41953283Y15767483D01*
X42066356Y16040466D01*
X42124000Y16330263D01*
X42124000Y16625737D01*
X42066356Y16915534D01*
X41953283Y17188517D01*
X41789126Y17434194D01*
X41580194Y17643126D01*
X41423240Y17748000D01*
X41580194Y17852874D01*
X41667487Y17940167D01*
X41701215Y17950398D01*
X41900997Y18057184D01*
X42076107Y18200893D01*
X42112124Y18244780D01*
X44572231Y20704885D01*
X44616107Y20740893D01*
X44759816Y20916003D01*
X44866602Y21115785D01*
X44877257Y21150909D01*
X45147236Y21420889D01*
X45191118Y21456901D01*
X45334827Y21632011D01*
X45441613Y21831793D01*
X45507371Y22048569D01*
X45524011Y22217516D01*
X45524011Y22217525D01*
X45529574Y22274007D01*
X45524011Y22330489D01*
X45524011Y26834983D01*
X55134000Y26834983D01*
X55134000Y26441017D01*
X55210859Y26054622D01*
X55361623Y25690645D01*
X55580499Y25363074D01*
X55859074Y25084499D01*
X56186645Y24865623D01*
X56550622Y24714859D01*
X56937017Y24638000D01*
X57330983Y24638000D01*
X57717378Y24714859D01*
X58081355Y24865623D01*
X58408926Y25084499D01*
X58687501Y25363074D01*
X58906377Y25690645D01*
X59057141Y26054622D01*
X59134000Y26441017D01*
X59134000Y26834983D01*
X59057141Y27221378D01*
X58906377Y27585355D01*
X58687501Y27912926D01*
X58408926Y28191501D01*
X58081355Y28410377D01*
X57717378Y28561141D01*
X57330983Y28638000D01*
X56937017Y28638000D01*
X56550622Y28561141D01*
X56186645Y28410377D01*
X55859074Y28191501D01*
X55580499Y27912926D01*
X55361623Y27585355D01*
X55210859Y27221378D01*
X55134000Y26834983D01*
X45524011Y26834983D01*
X45524011Y28627679D01*
X49342220Y32445888D01*
X52944000Y32445888D01*
X52944000Y32170112D01*
X52997801Y31899635D01*
X53103336Y31644851D01*
X53256549Y31415552D01*
X53451552Y31220549D01*
X53680851Y31067336D01*
X53935635Y30961801D01*
X54206112Y30908000D01*
X54481888Y30908000D01*
X54644000Y30940246D01*
X54806112Y30908000D01*
X55081888Y30908000D01*
X55352365Y30961801D01*
X55607149Y31067336D01*
X55836448Y31220549D01*
X56031451Y31415552D01*
X56184664Y31644851D01*
X56290199Y31899635D01*
X56344000Y32170112D01*
X56344000Y32445888D01*
X56290199Y32716365D01*
X56184664Y32971149D01*
X56031451Y33200448D01*
X55836448Y33395451D01*
X55607149Y33548664D01*
X55352365Y33654199D01*
X55081888Y33708000D01*
X54806112Y33708000D01*
X54644000Y33675754D01*
X54481888Y33708000D01*
X54206112Y33708000D01*
X53935635Y33654199D01*
X53680851Y33548664D01*
X53451552Y33395451D01*
X53256549Y33200448D01*
X53103336Y32971149D01*
X52997801Y32716365D01*
X52944000Y32445888D01*
X49342220Y32445888D01*
X49866112Y32969779D01*
X49866116Y32969784D01*
X50287225Y33390892D01*
X50331107Y33426905D01*
X50367125Y33470793D01*
X50381107Y33484775D01*
X50488805Y33616004D01*
X50496219Y33629875D01*
X52546345Y35680000D01*
X55823518Y35680000D01*
X55880000Y35674437D01*
X55936482Y35680000D01*
X55936492Y35680000D01*
X56105439Y35696640D01*
X56322215Y35762398D01*
X56521997Y35869184D01*
X56697107Y36012893D01*
X56733124Y36056780D01*
X57244345Y36568000D01*
X57281737Y36568000D01*
X57571534Y36625644D01*
X57844517Y36738717D01*
X58090194Y36902874D01*
X58299126Y37111806D01*
X58463283Y37357483D01*
X58576356Y37630466D01*
X58634000Y37920263D01*
X58634000Y38215737D01*
X58576356Y38505534D01*
X58463283Y38778517D01*
X58299126Y39024194D01*
X58090194Y39233126D01*
X57844517Y39397283D01*
X57571534Y39510356D01*
X57281737Y39568000D01*
X56986263Y39568000D01*
X56696466Y39510356D01*
X56423483Y39397283D01*
X56344000Y39344174D01*
X56344000Y39455888D01*
X56290199Y39726365D01*
X56184664Y39981149D01*
X56031451Y40210448D01*
X55836448Y40405451D01*
X55607149Y40558664D01*
X55352365Y40664199D01*
X55081888Y40718000D01*
X54806112Y40718000D01*
X54644000Y40685754D01*
X54481888Y40718000D01*
X54206112Y40718000D01*
X53935635Y40664199D01*
X53680851Y40558664D01*
X53451552Y40405451D01*
X53256549Y40210448D01*
X53103336Y39981149D01*
X52997801Y39726365D01*
X52944000Y39455888D01*
X52944000Y39180112D01*
X52997801Y38909635D01*
X53103336Y38654851D01*
X53256549Y38425552D01*
X53451552Y38230549D01*
X53680851Y38077336D01*
X53915841Y37980000D01*
X52126484Y37980000D01*
X52070000Y37985563D01*
X52013516Y37980000D01*
X52013508Y37980000D01*
X51844561Y37963360D01*
X51627785Y37897602D01*
X51567916Y37865601D01*
X51428002Y37790816D01*
X51337517Y37716556D01*
X51252893Y37647107D01*
X51216881Y37603226D01*
X48963990Y35350334D01*
X48963990Y39837470D01*
X50399520Y41272999D01*
X55823519Y41272999D01*
X55880001Y41267436D01*
X55936483Y41272999D01*
X55936493Y41272999D01*
X56105440Y41289639D01*
X56322216Y41355397D01*
X56521998Y41462183D01*
X56697108Y41605892D01*
X56733125Y41649779D01*
X57907231Y42823883D01*
X57951107Y42859891D01*
X58021448Y42945601D01*
X58064183Y42997674D01*
X58094816Y43035001D01*
X58201602Y43234783D01*
X58267360Y43451559D01*
X58284000Y43620506D01*
X58284000Y43620515D01*
X58289563Y43676997D01*
X58284000Y43733479D01*
X58284000Y44661680D01*
X58299126Y44676806D01*
X58463283Y44922483D01*
X58576356Y45195466D01*
X58634000Y45485263D01*
X58634000Y45780737D01*
X58576356Y46070534D01*
X58463283Y46343517D01*
X58299126Y46589194D01*
X58090194Y46798126D01*
X57844517Y46962283D01*
X57571534Y47075356D01*
X57281737Y47133000D01*
X56986263Y47133000D01*
X56696466Y47075356D01*
X56423483Y46962283D01*
X56177806Y46798126D01*
X55968874Y46589194D01*
X55804717Y46343517D01*
X55691644Y46070534D01*
X55634000Y45780737D01*
X55634000Y45595723D01*
X55607149Y45613664D01*
X55352365Y45719199D01*
X55081888Y45773000D01*
X54806112Y45773000D01*
X54644000Y45740754D01*
X54481888Y45773000D01*
X54206112Y45773000D01*
X53935635Y45719199D01*
X53680851Y45613664D01*
X53451552Y45460451D01*
X53256549Y45265448D01*
X53103336Y45036149D01*
X52997801Y44781365D01*
X52944000Y44510888D01*
X52944000Y44235112D01*
X52997801Y43964635D01*
X53103336Y43709851D01*
X53194778Y43572999D01*
X50295344Y43572999D01*
X51557226Y44834881D01*
X51601107Y44870893D01*
X51744816Y45046003D01*
X51796768Y45143198D01*
X51851602Y45245784D01*
X51917360Y45462561D01*
X51928440Y45575059D01*
X51934000Y45631508D01*
X51934000Y45631509D01*
X51939564Y45688000D01*
X51934000Y45744492D01*
X51934000Y51520888D01*
X52944000Y51520888D01*
X52944000Y51245112D01*
X52997801Y50974635D01*
X53103336Y50719851D01*
X53256549Y50490552D01*
X53451552Y50295549D01*
X53680851Y50142336D01*
X53935635Y50036801D01*
X54206112Y49983000D01*
X54481888Y49983000D01*
X54644000Y50015246D01*
X54806112Y49983000D01*
X55081888Y49983000D01*
X55352365Y50036801D01*
X55607149Y50142336D01*
X55836448Y50295549D01*
X56031451Y50490552D01*
X56184664Y50719851D01*
X56290199Y50974635D01*
X56344000Y51245112D01*
X56344000Y51520888D01*
X56290199Y51791365D01*
X56184664Y52046149D01*
X56031451Y52275448D01*
X55836448Y52470451D01*
X55607149Y52623664D01*
X55352365Y52729199D01*
X55081888Y52783000D01*
X54806112Y52783000D01*
X54644000Y52750754D01*
X54481888Y52783000D01*
X54206112Y52783000D01*
X53935635Y52729199D01*
X53680851Y52623664D01*
X53451552Y52470451D01*
X53256549Y52275448D01*
X53103336Y52046149D01*
X52997801Y51791365D01*
X52944000Y51520888D01*
X51934000Y51520888D01*
X51934000Y51561656D01*
X55797236Y55424890D01*
X55841117Y55460902D01*
X55984826Y55636012D01*
X56091612Y55835794D01*
X56157370Y56052570D01*
X56174010Y56221517D01*
X56174010Y56221526D01*
X56179573Y56278008D01*
X56174010Y56334492D01*
X56174010Y61090294D01*
X56306215Y61130398D01*
X56505997Y61237184D01*
X56681107Y61380893D01*
X56824816Y61556003D01*
X56931602Y61755785D01*
X56997360Y61972561D01*
X57019564Y62198000D01*
X57014000Y62254492D01*
X57014000Y62496680D01*
X57029126Y62511806D01*
X57193283Y62757483D01*
X57306356Y63030466D01*
X57364000Y63320263D01*
X57364000Y63615737D01*
X57306356Y63905534D01*
X57193283Y64178517D01*
X57029126Y64424194D01*
X56820194Y64633126D01*
X56574517Y64797283D01*
X56301534Y64910356D01*
X56011737Y64968000D01*
X55716263Y64968000D01*
X55426466Y64910356D01*
X55153483Y64797283D01*
X54907806Y64633126D01*
X54698874Y64424194D01*
X54594000Y64267240D01*
X54489126Y64424194D01*
X54280194Y64633126D01*
X54034517Y64797283D01*
X53761534Y64910356D01*
X53471737Y64968000D01*
X53176263Y64968000D01*
X52886466Y64910356D01*
X52613483Y64797283D01*
X52367806Y64633126D01*
X52158874Y64424194D01*
X51994717Y64178517D01*
X51881644Y63905534D01*
X51824000Y63615737D01*
X51824000Y63320263D01*
X51881644Y63030466D01*
X51994717Y62757483D01*
X52158874Y62511806D01*
X52174001Y62496679D01*
X52174000Y58132176D01*
X52037033Y58132176D01*
X51877215Y58217601D01*
X51843488Y58227832D01*
X51756194Y58315126D01*
X51510517Y58479283D01*
X51237534Y58592356D01*
X50947737Y58650000D01*
X50652263Y58650000D01*
X50362466Y58592356D01*
X50089483Y58479283D01*
X49843806Y58315126D01*
X49634874Y58106194D01*
X49470717Y57860517D01*
X49357644Y57587534D01*
X49300000Y57297737D01*
X49300000Y57002263D01*
X49357644Y56712466D01*
X49470717Y56439483D01*
X49634874Y56193806D01*
X49843806Y55984874D01*
X50089483Y55820717D01*
X50362466Y55707644D01*
X50413059Y55697580D01*
X48310771Y53595291D01*
X48266884Y53559274D01*
X48123175Y53384164D01*
X48016389Y53184382D01*
X47950631Y52967606D01*
X47933991Y52798659D01*
X47933991Y52798649D01*
X47928428Y52742167D01*
X47933991Y52685686D01*
X47933990Y46868511D01*
X42043479Y40977999D01*
X41944956Y40977999D01*
X41976788Y41016787D01*
X42125359Y41294744D01*
X42216849Y41596345D01*
X42240000Y41831403D01*
X42240000Y49624053D01*
X42285382Y49593730D01*
X42342613Y49546762D01*
X42407903Y49511864D01*
X42469483Y49470717D01*
X42537907Y49442375D01*
X42603198Y49407476D01*
X42674044Y49385985D01*
X42742466Y49357644D01*
X42815104Y49343195D01*
X42885949Y49321705D01*
X42959626Y49314448D01*
X43032263Y49300000D01*
X43106320Y49300000D01*
X43180000Y49292743D01*
X43253680Y49300000D01*
X43327737Y49300000D01*
X43378846Y49310166D01*
X43284874Y49216194D01*
X43243722Y49154606D01*
X43196763Y49097386D01*
X43161871Y49032108D01*
X43120717Y48970517D01*
X43092371Y48902084D01*
X43057477Y48836802D01*
X43035988Y48765963D01*
X43007644Y48697534D01*
X42993195Y48624894D01*
X42971705Y48554051D01*
X42964448Y48480374D01*
X42950000Y48407737D01*
X42950000Y48333680D01*
X42942743Y48260000D01*
X42950000Y48186320D01*
X42950000Y48112263D01*
X42964448Y48039626D01*
X42971705Y47965949D01*
X42993195Y47895106D01*
X43007644Y47822466D01*
X43035988Y47754037D01*
X43057477Y47683198D01*
X43092371Y47617916D01*
X43120717Y47549483D01*
X43161871Y47487892D01*
X43196763Y47422614D01*
X43243722Y47365394D01*
X43284874Y47303806D01*
X43337246Y47251434D01*
X43384209Y47194209D01*
X43441434Y47147246D01*
X43493806Y47094874D01*
X43555394Y47053722D01*
X43612614Y47006763D01*
X43677892Y46971871D01*
X43739483Y46930717D01*
X43807916Y46902371D01*
X43873198Y46867477D01*
X43944037Y46845988D01*
X44012466Y46817644D01*
X44085106Y46803195D01*
X44155949Y46781705D01*
X44229626Y46774448D01*
X44302263Y46760000D01*
X44376320Y46760000D01*
X44450000Y46752743D01*
X44523680Y46760000D01*
X44597737Y46760000D01*
X44670374Y46774448D01*
X44744051Y46781705D01*
X44814894Y46803195D01*
X44887534Y46817644D01*
X44955963Y46845988D01*
X45026802Y46867477D01*
X45092084Y46902371D01*
X45160517Y46930717D01*
X45222108Y46971871D01*
X45287386Y47006763D01*
X45344606Y47053722D01*
X45406194Y47094874D01*
X45615126Y47303806D01*
X45615128Y47303809D01*
X46588565Y48277245D01*
X46645802Y48324218D01*
X46833248Y48552623D01*
X46972534Y48813208D01*
X47058305Y49095959D01*
X47080010Y49316330D01*
X47080010Y49316331D01*
X47087267Y49390009D01*
X47080010Y49463687D01*
X47080010Y60614565D01*
X48443802Y61978356D01*
X48681534Y62025644D01*
X48954517Y62138717D01*
X49200194Y62302874D01*
X49409126Y62511806D01*
X49573283Y62757483D01*
X49686356Y63030466D01*
X49744000Y63320263D01*
X49744000Y63615737D01*
X49686356Y63905534D01*
X49573283Y64178517D01*
X49409126Y64424194D01*
X49325170Y64508150D01*
X49305300Y64545324D01*
X49117854Y64773728D01*
X48889450Y64961174D01*
X48628865Y65100460D01*
X48346114Y65186232D01*
X48265492Y65194173D01*
X49268557Y66197237D01*
X49325792Y66244208D01*
X49513238Y66472613D01*
X49652524Y66733198D01*
X49738295Y67015949D01*
X49760000Y67236320D01*
X49760000Y67236321D01*
X49767257Y67310000D01*
X49760000Y67383680D01*
X49760000Y71267737D01*
X49745552Y71340374D01*
X49738295Y71414051D01*
X49716805Y71484896D01*
X49702356Y71557534D01*
X49674015Y71625956D01*
X49652524Y71696802D01*
X49617625Y71762093D01*
X49589283Y71830517D01*
X49548136Y71892097D01*
X49513238Y71957387D01*
X49466270Y72014618D01*
X49425126Y72076194D01*
X49372764Y72128556D01*
X49325792Y72185792D01*
X49268556Y72232764D01*
X49216194Y72285126D01*
X49154618Y72326270D01*
X49097387Y72373238D01*
X49032097Y72408136D01*
X48970517Y72449283D01*
X48902093Y72477625D01*
X48836802Y72512524D01*
X48765956Y72534015D01*
X48715335Y72554983D01*
X55134000Y72554983D01*
X55134000Y72161017D01*
X55210859Y71774622D01*
X55361623Y71410645D01*
X55580499Y71083074D01*
X55859074Y70804499D01*
X56186645Y70585623D01*
X56550622Y70434859D01*
X56937017Y70358000D01*
X57330983Y70358000D01*
X57717378Y70434859D01*
X58081355Y70585623D01*
X58408926Y70804499D01*
X58687501Y71083074D01*
X58906377Y71410645D01*
X59057141Y71774622D01*
X59134000Y72161017D01*
X59134000Y72554983D01*
X59057141Y72941378D01*
X58906377Y73305355D01*
X58687501Y73632926D01*
X58408926Y73911501D01*
X58081355Y74130377D01*
X57717378Y74281141D01*
X57330983Y74358000D01*
X56937017Y74358000D01*
X56550622Y74281141D01*
X56186645Y74130377D01*
X55859074Y73911501D01*
X55580499Y73632926D01*
X55361623Y73305355D01*
X55210859Y72941378D01*
X55134000Y72554983D01*
X48715335Y72554983D01*
X48697534Y72562356D01*
X48624896Y72576805D01*
X48554051Y72598295D01*
X48480374Y72605552D01*
X48407737Y72620000D01*
X48333680Y72620000D01*
X48260000Y72627257D01*
X48186320Y72620000D01*
X48112263Y72620000D01*
X48039625Y72605552D01*
X47965950Y72598295D01*
X47895107Y72576805D01*
X47822466Y72562356D01*
X47754041Y72534014D01*
X47683199Y72512524D01*
X47617911Y72477627D01*
X47549483Y72449283D01*
X47487899Y72408134D01*
X47422614Y72373238D01*
X47365387Y72326273D01*
X47303806Y72285126D01*
X47251440Y72232760D01*
X47194209Y72185792D01*
X47147241Y72128561D01*
X47094874Y72076194D01*
X47053726Y72014612D01*
X47006763Y71957387D01*
X46990001Y71926027D01*
X46973238Y71957387D01*
X46926270Y72014618D01*
X46885126Y72076194D01*
X46832764Y72128556D01*
X46785792Y72185792D01*
X46728557Y72232763D01*
X46676194Y72285126D01*
X46614614Y72326273D01*
X46557386Y72373238D01*
X46492101Y72408134D01*
X46430517Y72449283D01*
X46362089Y72477627D01*
X46296801Y72512524D01*
X46225959Y72534014D01*
X46157534Y72562356D01*
X46084893Y72576805D01*
X46014050Y72598295D01*
X45940375Y72605552D01*
X45867737Y72620000D01*
X45793680Y72620000D01*
X45720000Y72627257D01*
X45646320Y72620000D01*
X45572263Y72620000D01*
X45499626Y72605552D01*
X45425949Y72598295D01*
X45355104Y72576805D01*
X45282466Y72562356D01*
X45214044Y72534015D01*
X45143198Y72512524D01*
X45077907Y72477625D01*
X45009483Y72449283D01*
X44947903Y72408136D01*
X44882613Y72373238D01*
X44825382Y72326270D01*
X44763806Y72285126D01*
X44711444Y72232764D01*
X44654208Y72185792D01*
X44607237Y72128557D01*
X44554874Y72076194D01*
X44513727Y72014614D01*
X44466762Y71957386D01*
X44431866Y71892101D01*
X44390717Y71830517D01*
X44362373Y71762089D01*
X44327476Y71696801D01*
X44305986Y71625959D01*
X44277644Y71557534D01*
X44263195Y71484893D01*
X44241705Y71414050D01*
X44234449Y71340375D01*
X44220000Y71267737D01*
X44220000Y71193679D01*
X44220001Y68785447D01*
X39980266Y64545711D01*
X39746787Y64420914D01*
X39503155Y64220971D01*
X39303212Y63977338D01*
X39154641Y63699381D01*
X39063151Y63397780D01*
X39040000Y63162722D01*
X24360000Y63162722D01*
X24360000Y63270000D01*
X25547737Y63270000D01*
X25620374Y63284448D01*
X25694051Y63291705D01*
X25764896Y63313195D01*
X25837534Y63327644D01*
X25905956Y63355985D01*
X25976802Y63377476D01*
X26042093Y63412375D01*
X26110517Y63440717D01*
X26172097Y63481864D01*
X26237387Y63516762D01*
X26294618Y63563730D01*
X26356194Y63604874D01*
X26408556Y63657236D01*
X26465792Y63704208D01*
X26512764Y63761444D01*
X26565126Y63813806D01*
X26606270Y63875382D01*
X26653238Y63932613D01*
X26688136Y63997903D01*
X26729283Y64059483D01*
X26757625Y64127907D01*
X26792524Y64193198D01*
X26814015Y64264044D01*
X26842356Y64332466D01*
X26856805Y64405104D01*
X26878295Y64475949D01*
X26885552Y64549626D01*
X26900000Y64622263D01*
X26900000Y64696320D01*
X26907257Y64770000D01*
X26900000Y64843680D01*
X26900000Y64917737D01*
X26885552Y64990374D01*
X26878295Y65064051D01*
X26856805Y65134896D01*
X26842356Y65207534D01*
X26814015Y65275956D01*
X26792524Y65346802D01*
X26757625Y65412093D01*
X26729283Y65480517D01*
X26688136Y65542097D01*
X26653238Y65607387D01*
X26606270Y65664618D01*
X26565126Y65726194D01*
X26512764Y65778556D01*
X26486959Y65810000D01*
X28087737Y65810000D01*
X28160374Y65824448D01*
X28234051Y65831705D01*
X28304896Y65853195D01*
X28377534Y65867644D01*
X28445956Y65895985D01*
X28516802Y65917476D01*
X28582093Y65952375D01*
X28650517Y65980717D01*
X28712097Y66021864D01*
X28777387Y66056762D01*
X28834618Y66103730D01*
X28896194Y66144874D01*
X28948556Y66197236D01*
X29005792Y66244208D01*
X29052764Y66301444D01*
X29105126Y66353806D01*
X29146270Y66415382D01*
X29193238Y66472613D01*
X29228136Y66537903D01*
X29269283Y66599483D01*
X29297625Y66667907D01*
X29332524Y66733198D01*
X29354015Y66804044D01*
X29382356Y66872466D01*
X29396805Y66945104D01*
X29418295Y67015949D01*
X29425552Y67089626D01*
X29440000Y67162263D01*
X29440000Y67236321D01*
X29447257Y67310000D01*
X29440000Y67383680D01*
X29440000Y67457737D01*
X29425552Y67530374D01*
X29418295Y67604051D01*
X29396805Y67674896D01*
X29382356Y67747534D01*
X29354015Y67815956D01*
X29332524Y67886802D01*
X29297625Y67952093D01*
X29269283Y68020517D01*
X29228136Y68082097D01*
X29193238Y68147387D01*
X29146270Y68204618D01*
X29105126Y68266194D01*
X29052764Y68318556D01*
X29005792Y68375792D01*
X28948556Y68422764D01*
X28896194Y68475126D01*
X28834618Y68516270D01*
X28777387Y68563238D01*
X28712097Y68598136D01*
X28650517Y68639283D01*
X28582093Y68667625D01*
X28516802Y68702524D01*
X28445956Y68724015D01*
X28377534Y68752356D01*
X28304896Y68766805D01*
X28234051Y68788295D01*
X28160374Y68795552D01*
X28087737Y68810000D01*
X25252263Y68810000D01*
X25179626Y68795552D01*
X25105949Y68788295D01*
X25035104Y68766805D01*
X24962466Y68752356D01*
X24894044Y68724015D01*
X24823198Y68702524D01*
X24757907Y68667625D01*
X24689483Y68639283D01*
X24627903Y68598136D01*
X24562613Y68563238D01*
X24505382Y68516270D01*
X24443806Y68475126D01*
X24391444Y68422764D01*
X24334208Y68375792D01*
X24287236Y68318556D01*
X24234874Y68266194D01*
X24193730Y68204618D01*
X24146762Y68147387D01*
X24130000Y68116028D01*
X24113238Y68147387D01*
X24066270Y68204618D01*
X24025126Y68266194D01*
X23972764Y68318556D01*
X23925792Y68375792D01*
X23868556Y68422764D01*
X23816194Y68475126D01*
X23754618Y68516270D01*
X23697387Y68563238D01*
X23632097Y68598136D01*
X23570517Y68639283D01*
X23502093Y68667625D01*
X23436802Y68702524D01*
X23365956Y68724015D01*
X23297534Y68752356D01*
X23224896Y68766805D01*
X23154051Y68788295D01*
X23080374Y68795552D01*
X23007737Y68810000D01*
X22933680Y68810000D01*
X22860000Y68817257D01*
X22786320Y68810000D01*
X22712263Y68810000D01*
X22639625Y68795552D01*
X22565950Y68788295D01*
X22495107Y68766805D01*
X22422466Y68752356D01*
X22354041Y68724014D01*
X22283199Y68702524D01*
X22217911Y68667627D01*
X22149483Y68639283D01*
X22087899Y68598134D01*
X22022614Y68563238D01*
X21965387Y68516273D01*
X21903806Y68475126D01*
X21851440Y68422760D01*
X21794209Y68375792D01*
X21747241Y68318561D01*
X21694874Y68266194D01*
X21653726Y68204612D01*
X21606763Y68147387D01*
X21571869Y68082105D01*
X21530717Y68020517D01*
X21502372Y67952085D01*
X21467477Y67886802D01*
X21445989Y67815965D01*
X21417644Y67747534D01*
X21403194Y67674886D01*
X21381706Y67604051D01*
X21374450Y67530384D01*
X21360000Y67457737D01*
X21360000Y67162263D01*
X21360001Y67162258D01*
X21360001Y64917741D01*
X21360000Y64917737D01*
X21360000Y64843680D01*
X21352743Y64770000D01*
X409000Y64770000D01*
X409000Y72554983D01*
X1794000Y72554983D01*
X1794000Y72161017D01*
X1870859Y71774622D01*
X2021623Y71410645D01*
X2240499Y71083074D01*
X2519074Y70804499D01*
X2846645Y70585623D01*
X3210622Y70434859D01*
X3597017Y70358000D01*
X3990983Y70358000D01*
X4377378Y70434859D01*
X4741355Y70585623D01*
X5068926Y70804499D01*
X5347501Y71083074D01*
X5566377Y71410645D01*
X5717141Y71774622D01*
X5794000Y72161017D01*
X5794000Y72554983D01*
X5717141Y72941378D01*
X5566377Y73305355D01*
X5347501Y73632926D01*
X5068926Y73911501D01*
X4741355Y74130377D01*
X4377378Y74281141D01*
X3990983Y74358000D01*
X3597017Y74358000D01*
X3210622Y74281141D01*
X2846645Y74130377D01*
X2519074Y73911501D01*
X2240499Y73632926D01*
X2021623Y73305355D01*
X1870859Y72941378D01*
X1794000Y72554983D01*
X409000Y72554983D01*
X409000Y75743000D01*
X61789001Y75743000D01*
X61789000Y23253000D01*
%TD*%
M02*
