%TF.GenerationSoftware,KiCad,Pcbnew,(5.1.6)-1*%
%TF.CreationDate,2023-06-20T16:25:09-05:00*%
%TF.ProjectId,pcb,7063622e-6b69-4636-9164-5f7063625858,rev?*%
%TF.SameCoordinates,Original*%
%TF.FileFunction,Soldermask,Bot*%
%TF.FilePolarity,Negative*%
%FSLAX46Y46*%
G04 Gerber Fmt 4.6, Leading zero omitted, Abs format (unit mm)*
G04 Created by KiCad (PCBNEW (5.1.6)-1) date 2023-06-20 16:25:09*
%MOMM*%
%LPD*%
G01*
G04 APERTURE LIST*
%ADD10C,2.300000*%
%ADD11C,3.300000*%
%ADD12C,2.100000*%
G04 APERTURE END LIST*
D10*
%TO.C,U2*%
X40624000Y6318000D03*
X40624000Y8858000D03*
X40624000Y11398000D03*
X40624000Y13938000D03*
X40624000Y16478000D03*
X40624000Y19018000D03*
X40624000Y21558000D03*
X40624000Y24098000D03*
X40624000Y26638000D03*
X40624000Y29178000D03*
X40624000Y31718000D03*
X40624000Y34258000D03*
X40624000Y36798000D03*
X40624000Y39338000D03*
X40624000Y41878000D03*
X15224000Y41878000D03*
X15224000Y39338000D03*
X15224000Y36798000D03*
X15224000Y34258000D03*
X15224000Y31718000D03*
X15224000Y29178000D03*
X15224000Y26638000D03*
X15224000Y24098000D03*
X15224000Y21558000D03*
X15224000Y19018000D03*
X15224000Y16478000D03*
X15224000Y13938000D03*
X15224000Y11398000D03*
X15224000Y8858000D03*
X15224000Y6318000D03*
%TD*%
%TO.C,R1*%
X19034000Y31718000D03*
X19034000Y39338000D03*
%TD*%
%TO.C,R4*%
X24114000Y31718000D03*
X24114000Y39338000D03*
%TD*%
%TO.C,R6*%
X21574000Y31718000D03*
X21574000Y39338000D03*
%TD*%
D11*
%TO.C,REF\u002A\u002A*%
X46974000Y3778000D03*
%TD*%
%TO.C,REF\u002A\u002A*%
X3794000Y3778000D03*
%TD*%
%TO.C,REF\u002A\u002A*%
X57134000Y26638000D03*
%TD*%
%TO.C,REF\u002A\u002A*%
X57134000Y72358000D03*
%TD*%
%TO.C,REF\u002A\u002A*%
X3794000Y72358000D03*
%TD*%
D10*
%TO.C,J5*%
X55864000Y63468000D03*
X53324000Y63468000D03*
X50784000Y63468000D03*
X48244000Y63468000D03*
%TD*%
%TO.C,C1*%
X36830000Y62230000D03*
X33030000Y62230000D03*
%TD*%
%TO.C,J8*%
X49514000Y72358000D03*
X46974000Y72358000D03*
X44434000Y72358000D03*
%TD*%
%TO.C,R3*%
X19034000Y20288000D03*
X19034000Y27908000D03*
%TD*%
%TO.C,R5*%
X24114000Y20288000D03*
X24114000Y27908000D03*
%TD*%
%TO.C,R7*%
X21574000Y20288000D03*
X21574000Y27908000D03*
%TD*%
%TO.C,J1*%
X6350000Y55880000D03*
X8890000Y55880000D03*
X11430000Y55880000D03*
X13970000Y55880000D03*
%TD*%
D12*
%TO.C,SW1*%
X54344000Y39318000D03*
X54344000Y32308000D03*
X54944000Y39318000D03*
D10*
X57134000Y38068000D03*
X57134000Y33568000D03*
D12*
X54944000Y32308000D03*
%TD*%
%TO.C,SW2*%
X54944000Y44373000D03*
D10*
X57134000Y45633000D03*
X57134000Y50133000D03*
D12*
X54944000Y51383000D03*
X54344000Y44373000D03*
X54344000Y51383000D03*
%TD*%
D10*
%TO.C,D1*%
X27940000Y68580000D03*
X27940000Y60960000D03*
%TD*%
%TO.C,J2*%
X24130000Y71120000D03*
X24130000Y68580000D03*
%TD*%
%TO.C,J3*%
X21590000Y68580000D03*
X21590000Y71120000D03*
%TD*%
%TO.C,Q1*%
X22860000Y53340000D03*
X20320000Y53340000D03*
X25400000Y53340000D03*
%TD*%
%TO.C,Q2*%
X31750000Y53340000D03*
X34290000Y53340000D03*
X36830000Y53340000D03*
%TD*%
%TO.C,R2*%
X26670000Y31750000D03*
X26670000Y39370000D03*
%TD*%
%TO.C,R8*%
X29210000Y39370000D03*
X29210000Y31750000D03*
%TD*%
%TO.C,R9*%
X31750000Y39370000D03*
X31750000Y31750000D03*
%TD*%
X30480000Y49530000D03*
X19050000Y49530000D03*
X36830000Y67310000D03*
X43653990Y67310000D03*
X44450000Y8890000D03*
X44450000Y45720000D03*
X38132000Y41878000D03*
X26670000Y41910000D03*
X11462000Y6318000D03*
X11430000Y48260000D03*
M02*
