M48
; DRILL file {KiCad (5.1.6)-1} date 06/23/23 05:36:43
; FORMAT={-:-/ absolute / metric / decimal}
; #@! TF.CreationDate,2023-06-23T05:36:43-05:00
; #@! TF.GenerationSoftware,Kicad,Pcbnew,(5.1.6)-1
FMAT,2
METRIC
T1C0.900
T2C1.000
T3C3.200
%
G90
G05
T1
X8.89Y48.26
X11.43Y45.72
X22.86Y45.72
X26.67Y50.8
X26.67Y48.26
X43.18Y50.8
X44.45Y48.26
X44.45Y8.89
X21.574Y27.908
X21.574Y20.288
X5.09Y40.64
X8.89Y40.64
X21.574Y39.338
X21.574Y31.718
X8.89Y33.02
X8.89Y25.4
X22.86Y55.88
X30.48Y55.88
X19.034Y39.338
X19.034Y31.718
X43.18Y57.15
X50.8Y57.15
X15.224Y41.878
X15.224Y39.338
X15.224Y36.798
X15.224Y34.258
X15.224Y31.718
X15.224Y29.178
X15.224Y26.638
X15.224Y24.098
X15.224Y21.558
X15.224Y19.018
X15.224Y16.478
X15.224Y13.938
X15.224Y11.398
X15.224Y8.858
X15.224Y6.318
X40.624Y41.878
X40.624Y39.338
X40.624Y36.798
X40.624Y34.258
X40.624Y31.718
X40.624Y29.178
X40.624Y26.638
X40.624Y24.098
X40.624Y21.558
X40.624Y19.018
X40.624Y16.478
X40.624Y13.938
X40.624Y11.398
X40.624Y8.858
X40.624Y6.318
X24.114Y39.338
X24.114Y31.718
X54.344Y39.318
X54.344Y32.308
X54.944Y39.318
X54.944Y32.308
X57.134Y38.068
X57.134Y33.568
X54.344Y51.383
X54.344Y44.373
X54.944Y51.383
X54.944Y44.373
X57.134Y50.133
X57.134Y45.633
X24.114Y27.908
X24.114Y20.288
X6.35Y16.51
X6.35Y13.97
X6.35Y11.43
X11.43Y21.59
X11.43Y13.97
X19.034Y27.908
X19.034Y20.288
X33.03Y6.35
X36.83Y6.35
T2
X27.94Y67.31
X27.94Y64.77
X5.08Y31.75
X5.08Y29.21
X5.08Y26.67
X48.244Y63.468
X50.784Y63.468
X53.324Y63.468
X55.864Y63.468
X43.18Y71.12
X45.72Y71.12
X48.26Y71.12
X6.35Y54.61
X8.89Y54.61
X11.43Y54.61
X13.97Y54.61
X20.32Y64.77
X22.86Y64.77
X20.32Y67.31
X22.86Y67.31
X25.4Y67.31
X25.4Y64.77
T3
X3.794Y72.358
X57.134Y26.638
X57.134Y72.358
X46.974Y3.778
X3.794Y3.778
T0
M30
