M48
; DRILL file {KiCad (5.1.6)-1} date 06/20/23 16:25:14
; FORMAT={-:-/ absolute / metric / decimal}
; #@! TF.CreationDate,2023-06-20T16:25:14-05:00
; #@! TF.GenerationSoftware,Kicad,Pcbnew,(5.1.6)-1
FMAT,2
METRIC
T1C0.900
T2C1.000
T3C3.200
%
G90
G05
T1
X11.43Y48.26
X11.462Y6.318
X19.05Y49.53
X26.67Y41.91
X30.48Y49.53
X36.83Y67.31
X38.132Y41.878
X43.654Y67.31
X44.45Y45.72
X44.45Y8.89
X54.344Y51.383
X54.344Y44.373
X54.944Y51.383
X54.944Y44.373
X57.134Y50.133
X57.134Y45.633
X26.67Y39.37
X26.67Y31.75
X15.224Y41.878
X15.224Y39.338
X15.224Y36.798
X15.224Y34.258
X15.224Y31.718
X15.224Y29.178
X15.224Y26.638
X15.224Y24.098
X15.224Y21.558
X15.224Y19.018
X15.224Y16.478
X15.224Y13.938
X15.224Y11.398
X15.224Y8.858
X15.224Y6.318
X40.624Y41.878
X40.624Y39.338
X40.624Y36.798
X40.624Y34.258
X40.624Y31.718
X40.624Y29.178
X40.624Y26.638
X40.624Y24.098
X40.624Y21.558
X40.624Y19.018
X40.624Y16.478
X40.624Y13.938
X40.624Y11.398
X40.624Y8.858
X40.624Y6.318
X21.574Y27.908
X21.574Y20.288
X24.114Y39.338
X24.114Y31.718
X27.94Y68.58
X27.94Y60.96
X29.21Y39.37
X29.21Y31.75
X31.75Y39.37
X31.75Y31.75
X19.034Y39.338
X19.034Y31.718
X24.114Y27.908
X24.114Y20.288
X33.03Y62.23
X36.83Y62.23
X19.034Y27.908
X19.034Y20.288
X20.32Y53.34
X22.86Y53.34
X25.4Y53.34
X54.344Y39.318
X54.344Y32.308
X54.944Y39.318
X54.944Y32.308
X57.134Y38.068
X57.134Y33.568
X21.574Y39.338
X21.574Y31.718
T2
X6.35Y55.88
X8.89Y55.88
X11.43Y55.88
X13.97Y55.88
X44.434Y72.358
X46.974Y72.358
X49.514Y72.358
X31.75Y53.34
X34.29Y53.34
X36.83Y53.34
X48.244Y63.468
X50.784Y63.468
X53.324Y63.468
X55.864Y63.468
X21.59Y71.12
X21.59Y68.58
X24.13Y71.12
X24.13Y68.58
T3
X46.974Y3.778
X3.794Y3.778
X57.134Y72.358
X3.794Y72.358
X57.134Y26.638
T0
M30
