0
SECTION
2
HEADER
9
$INSUNITS
70
4
9
$ACADVER
1
AC1014
9
$HANDSEED
5
FFFF
0
ENDSEC
0
SECTION
2
TABLES
0
TABLE
2
VPORT
5
8
100
AcDbSymbolTable
0
ENDTAB
0
TABLE
2
LTYPE
5
5
100
AcDbSymbolTable
0
LTYPE
5
14
100
AcDbSymbolTableRecord
100
AcDbLinetypeTableRecord
2
BYBLOCK
70
0
0
LTYPE
5
15
100
AcDbSymbolTableRecord
100
AcDbLinetypeTableRecord
2
BYLAYER
70
0
0
ENDTAB
0
TABLE
2
LAYER
5
2
100
AcDbSymbolTable
70
2
0
LAYER
5
50
100
AcDbSymbolTableRecord
100
AcDbLayerTableRecord
2
0
70
0
6
CONTINUOUS
0
ENDTAB
0
TABLE
2
STYLE
5
3
100
AcDbSymbolTable
70
1
0
STYLE
5
11
100
AcDbSymbolTableRecord
100
AcDbTextStyleTableRecord
2
STANDARD
70
0
0
ENDTAB
0
TABLE
2
VIEW
5
6
100
AcDbSymbolTable
70
0
0
ENDTAB
0
TABLE
2
UCS
5
7
100
AcDbSymbolTable
70
0
0
ENDTAB
0
TABLE
2
APPID
5
9
100
AcDbSymbolTable
70
2
0
APPID
5
12
100
AcDbSymbolTableRecord
100
AcDbRegAppTableRecord
2
ACAD
70
0
0
ENDTAB
0
TABLE
2
DIMSTYLE
5
A
100
AcDbSymbolTable
70
1
0
ENDTAB
0
TABLE
2
BLOCK_RECORD
5
1
100
AcDbSymbolTable
70
1
0
BLOCK_RECORD
5
1F
100
AcDbSymbolTableRecord
100
AcDbBlockTableRecord
2
*MODEL_SPACE
0
BLOCK_RECORD
5
1B
100
AcDbSymbolTableRecord
100
AcDbBlockTableRecord
2
*PAPER_SPACE
0
ENDTAB
0
ENDSEC
0
SECTION
2
BLOCKS
0
BLOCK
5
20
100
AcDbEntity
100
AcDbBlockBegin
2
*MODEL_SPACE
0
ENDBLK
5
21
100
AcDbEntity
100
AcDbBlockEnd
0
BLOCK
5
1C
100
AcDbEntity
100
AcDbBlockBegin
2
*PAPER_SPACE
0
ENDBLK
5
1D
100
AcDbEntity
100
AcDbBlockEnd
0
ENDSEC
0
SECTION
2
ENTITIES
0
LINE
5
100
100
AcDbEntity
8
0
100
AcDbLine
10
-36.965978552319882
20
-34.148452848400062
30
0
11
-39.439631013569809
21
-36.381611316576219
31
0
0
LINE
5
101
100
AcDbEntity
8
0
100
AcDbLine
10
-39.439631013569809
20
-36.381611316576219
30
0
11
-40.899999085813761
21
-37.699999157339334
31
0
0
LINE
5
102
100
AcDbEntity
8
0
100
AcDbLine
10
-37.09999917075038
20
-33.799999240042389
30
0
11
-44.705484347996489
21
-33.799999240046446
31
0
0
LINE
5
103
100
AcDbEntity
8
0
100
AcDbLine
10
-45.666868782038762
20
-34.524790282531221
30
0
11
-45.719769160075245
21
-34.709586592788042
31
0
0
CIRCLE
5
104
100
AcDbEntity
8
0
100
AcDbCircle
10
-19.167191313709043
20
-56.59905605358535
30
0
40
1.4999999999999987
210
0
220
0
230
1
0
ARC
5
105
100
AcDbEntity
8
0
100
AcDbCircle
10
-19.167191313709043
20
-56.59905605358535
30
0
40
4.5000000000141105
210
0
220
0
230
1
100
AcDbArc
50
-117.06202767044377
51
91.576927654989902
0
ARC
5
106
100
AcDbEntity
8
0
100
AcDbCircle
10
-37.09999917075038
20
-33.999999240040779
30
0
40
0.19999999999846341
210
-0
220
0
230
1
100
AcDbArc
50
-47.924977997466662
51
90
0
ARC
5
107
100
AcDbEntity
8
0
100
AcDbCircle
10
-42.835615858819878
20
-35.5352134667204
30
0
40
3.0000000000169202
210
0
220
0
230
1
100
AcDbArc
50
164.02553292305055
51
203.33289770122093
0
ARC
5
108
100
AcDbEntity
8
0
100
AcDbCircle
10
-44.705484348018203
20
-34.799999240058028
30
0
40
1.0000000000115783
210
0
220
-0
230
1
100
AcDbArc
50
89.999999998755868
51
164.02553295211158
0
LWPOLYLINE
5
109
100
AcDbEntity
8
0
100
AcDbPolyline
90
12
70
1
43
0.0
10
55.312641400898819
20
-60.657770324480502
42
1.6149844779861884
10
56.000000834465041
20
-57.000000849366195
42
-0.11647531414911765
10
37.262123638533687
20
-51.036590619421432
42
0.45976544771576977
10
30.430453222364836
20
-51.036590619421446
42
-0.17771503507686306
10
-3.1737798476044627
20
-55.896203160269032
10
-3.2059479368514716
20
-53.892466993627075
10
-3.2620928136898462
20
-50.395227246844229
42
0.67725345271720183
10
-3.6091720019742421
20
-50.262938080360144
10
-7.5302032469185072
20
-54.519801463606285
10
-7.4787072500625342
20
-57.727464515736486
10
-5.7593034185967333
20
-59.719982643268764
42
0.11202893295635442
10
34.000000506639481
20
-58.000000864267363
42
0.092635311167155676
0
CIRCLE
5
110
100
AcDbEntity
8
0
100
AcDbCircle
10
33.846288430449256
20
-53.966107615653215
30
0
40
1.5000000000000011
210
0
220
-0
230
1
0
ARC
5
111
100
AcDbEntity
8
0
100
AcDbCircle
10
4.8130617164687131
20
-9.660849748301807
30
0
40
57.20908599616461
210
0
220
0
230
1
100
AcDbArc
50
208.23226134480123
51
242.93797232956558
0
ARC
5
112
100
AcDbEntity
8
0
100
AcDbCircle
10
-4.9787537867434297
20
-7.2115839769348078
30
0
40
47.115595337942018
210
0
220
0
230
1
100
AcDbArc
50
220.32317139550898
51
252.3158599728074
0
ARC
5
113
100
AcDbEntity
8
0
100
AcDbCircle
10
-167.63642230577727
20
-33.725245988182053
30
0
40
0.20000000000001364
210
-0
220
0
230
1
100
AcDbArc
50
-48.220018329440968
51
89.999999999983714
0
LINE
5
114
100
AcDbEntity
8
0
100
AcDbLine
10
-167.63642230577722
20
-33.52524598818205
30
0
11
-173.74608923465374
21
-33.52524598818205
31
0
0
ARC
5
115
100
AcDbEntity
8
0
100
AcDbCircle
10
-125.68884849710193
20
-10.216254399576989
30
0
40
56.88809840197294
210
0
220
0
230
1
100
AcDbArc
50
209.62731529478771
51
243.02749126235682
0
ARC
5
116
100
AcDbEntity
8
0
100
AcDbCircle
10
-134.52444532023242
20
-7.264006521484685
30
0
40
47.572330116178073
210
0
220
0
230
1
100
AcDbArc
50
219.21472857338668
51
251.60886603025477
0
CIRCLE
5
117
100
AcDbEntity
8
0
100
AcDbCircle
10
-149.45014795491963
20
-56.905798220979982
30
0
40
1.4999999999999987
210
0
220
0
230
1
0
ARC
5
118
100
AcDbEntity
8
0
100
AcDbCircle
10
-149.45014795491963
20
-56.905798220979982
30
0
40
4.5000000000000027
210
0
220
0
230
1
100
AcDbArc
50
-116.97250873764341
51
91.062863376783824
0
LINE
5
119
100
AcDbEntity
8
0
100
AcDbLine
10
-174.70584048605417
20
-34.244394540909198
30
0
11
-175.29164066199633
21
-36.246244477558925
31
0
0
LINE
5
120
100
AcDbEntity
8
0
100
AcDbLine
10
-167.50316791160236
20
-33.874387754408311
30
0
11
-169.89121236477354
21
-36.008045045198465
31
0
0
LINE
5
121
100
AcDbEntity
8
0
100
AcDbLine
10
-169.89121236477354
20
-36.008045045198465
30
0
11
-171.3826300270361
21
-37.340588986947175
31
0
0
ARC
5
122
100
AcDbEntity
8
0
100
AcDbCircle
10
-173.74608923465374
20
-34.525245988182036
30
0
40
0.99999999999998757
210
0
220
-0
230
1
100
AcDbArc
50
90
51
163.68897169464378
0
ARC
5
123
100
AcDbEntity
8
0
100
AcDbCircle
10
-172.41238690779488
20
-37.088798819377431
30
0
40
3.0000000000000542
210
0
220
0
230
1
100
AcDbArc
50
163.68897169464472
51
204.63371849965498
0
ENDSEC
0
SECTION
2
OBJECTS
0
DICTIONARY
5
C
100
AcDbDictionary
3
ACAD_GROUP
350
D
3
ACAD_MLINESTYLE
350
17
0
DICTIONARY
5
D
100
AcDbDictionary
0
DICTIONARY
5
1A
330
C
100
AcDbDictionary
0
DICTIONARY
5
17
100
AcDbDictionary
0
ENDSEC
0
EOF
