%TF.GenerationSoftware,KiCad,Pcbnew,(5.1.6)-1*%
%TF.CreationDate,2023-03-19T14:48:43-05:00*%
%TF.ProjectId,pcb,7063622e-6b69-4636-9164-5f7063625858,rev?*%
%TF.SameCoordinates,Original*%
%TF.FileFunction,Copper,L2,Bot*%
%TF.FilePolarity,Positive*%
%FSLAX46Y46*%
G04 Gerber Fmt 4.6, Leading zero omitted, Abs format (unit mm)*
G04 Created by KiCad (PCBNEW (5.1.6)-1) date 2023-03-19 14:48:43*
%MOMM*%
%LPD*%
G01*
G04 APERTURE LIST*
%TA.AperFunction,ComponentPad*%
%ADD10C,2.200000*%
%TD*%
%TA.AperFunction,ComponentPad*%
%ADD11C,1.900000*%
%TD*%
%TA.AperFunction,ComponentPad*%
%ADD12C,2.000000*%
%TD*%
%TA.AperFunction,ViaPad*%
%ADD13C,2.200000*%
%TD*%
%TA.AperFunction,Conductor*%
%ADD14C,2.200000*%
%TD*%
%TA.AperFunction,Conductor*%
%ADD15C,1.500000*%
%TD*%
%TA.AperFunction,Conductor*%
%ADD16C,0.300000*%
%TD*%
G04 APERTURE END LIST*
D10*
%TO.P,U2,30*%
%TO.N,+3V3*%
X39370000Y6350000D03*
%TO.P,U2,29*%
%TO.N,GND*%
X39370000Y8890000D03*
%TO.P,U2,28*%
%TO.N,SW1*%
X39370000Y11430000D03*
%TO.P,U2,27*%
%TO.N,Net-(U2-Pad27)*%
X39370000Y13970000D03*
%TO.P,U2,26*%
%TO.N,Net-(U2-Pad26)*%
X39370000Y16510000D03*
%TO.P,U2,25*%
%TO.N,SW2*%
X39370000Y19050000D03*
%TO.P,U2,24*%
%TO.N,LEDS*%
X39370000Y21590000D03*
%TO.P,U2,23*%
%TO.N,Net-(U2-Pad23)*%
X39370000Y24130000D03*
%TO.P,U2,22*%
%TO.N,Net-(U2-Pad22)*%
X39370000Y26670000D03*
%TO.P,U2,21*%
%TO.N,Net-(U2-Pad21)*%
X39370000Y29210000D03*
%TO.P,U2,20*%
%TO.N,SDA*%
X39370000Y31750000D03*
%TO.P,U2,19*%
%TO.N,Net-(U2-Pad19)*%
X39370000Y34290000D03*
%TO.P,U2,18*%
%TO.N,Net-(U2-Pad18)*%
X39370000Y36830000D03*
%TO.P,U2,17*%
%TO.N,SCL*%
X39370000Y39370000D03*
%TO.P,U2,16*%
%TO.N,Net-(U2-Pad16)*%
X39370000Y41910000D03*
%TO.P,U2,15*%
%TO.N,Net-(C3-Pad2)*%
X13970000Y41910000D03*
%TO.P,U2,14*%
%TO.N,Net-(U2-Pad14)*%
X13970000Y39370000D03*
%TO.P,U2,13*%
%TO.N,Net-(U2-Pad13)*%
X13970000Y36830000D03*
%TO.P,U2,12*%
%TO.N,Net-(U2-Pad12)*%
X13970000Y34290000D03*
%TO.P,U2,11*%
%TO.N,hall*%
X13970000Y31750000D03*
%TO.P,U2,10*%
%TO.N,SCK*%
X13970000Y29210000D03*
%TO.P,U2,9*%
%TO.N,SDIO*%
X13970000Y26670000D03*
%TO.P,U2,8*%
%TO.N,I2*%
X13970000Y24130000D03*
%TO.P,U2,7*%
%TO.N,EN*%
X13970000Y21590000D03*
%TO.P,U2,6*%
%TO.N,I1*%
X13970000Y19050000D03*
%TO.P,U2,5*%
%TO.N,Net-(U2-Pad5)*%
X13970000Y16510000D03*
%TO.P,U2,4*%
%TO.N,Net-(U2-Pad4)*%
X13970000Y13970000D03*
%TO.P,U2,3*%
%TO.N,Net-(U2-Pad3)*%
X13970000Y11430000D03*
%TO.P,U2,2*%
%TO.N,GND*%
X13970000Y8890000D03*
%TO.P,U2,1*%
%TO.N,+5V*%
X13970000Y6350000D03*
%TD*%
%TO.P,C1,1*%
%TO.N,+5V*%
X8890000Y13335000D03*
%TO.P,C1,2*%
%TO.N,GND*%
X5090000Y13335000D03*
%TD*%
%TO.P,C2,2*%
%TO.N,GND*%
X52060000Y8890000D03*
%TO.P,C2,1*%
%TO.N,+3V3*%
X48260000Y8890000D03*
%TD*%
D11*
%TO.P,C3,1*%
%TO.N,+3V3*%
X13335000Y52170000D03*
%TO.P,C3,2*%
%TO.N,Net-(C3-Pad2)*%
X13335000Y49870000D03*
%TD*%
D10*
%TO.P,J1,1*%
%TO.N,+5V*%
X8255000Y20955000D03*
%TO.P,J1,2*%
%TO.N,GND*%
X5715000Y20955000D03*
%TD*%
%TO.P,J2,1*%
%TO.N,OA1*%
X43180000Y63500000D03*
%TO.P,J2,2*%
%TO.N,OA2*%
X43180000Y66040000D03*
%TD*%
%TO.P,J3,2*%
%TO.N,OB2*%
X10160000Y66040000D03*
%TO.P,J3,1*%
%TO.N,OB1*%
X10160000Y63500000D03*
%TD*%
%TO.P,J4,1*%
%TO.N,GND*%
X5080000Y49530000D03*
%TO.P,J4,2*%
%TO.N,hall*%
X5080000Y52070000D03*
%TO.P,J4,3*%
%TO.N,+3V3*%
X5080000Y54610000D03*
%TD*%
%TO.P,J5,4*%
%TO.N,SDA*%
X48260000Y33020000D03*
%TO.P,J5,3*%
%TO.N,SCL*%
X48260000Y35560000D03*
%TO.P,J5,2*%
%TO.N,GND*%
X48260000Y38100000D03*
%TO.P,J5,1*%
%TO.N,+3V3*%
X48260000Y40640000D03*
%TD*%
%TO.P,J6,1*%
%TO.N,+3V3*%
X57150000Y40640000D03*
%TO.P,J6,2*%
%TO.N,GND*%
X57150000Y38100000D03*
%TO.P,J6,3*%
%TO.N,SCL*%
X57150000Y35560000D03*
%TO.P,J6,4*%
%TO.N,SDA*%
X57150000Y33020000D03*
%TD*%
%TO.P,J8,1*%
%TO.N,GND*%
X62230000Y60960000D03*
%TO.P,J8,2*%
%TO.N,LEDS*%
X62230000Y63500000D03*
%TO.P,J8,3*%
%TO.N,+5V*%
X62230000Y66040000D03*
%TD*%
%TO.P,R1,1*%
%TO.N,Net-(J7-Pad4)*%
X3810000Y26670000D03*
%TO.P,R1,2*%
%TO.N,SDIO*%
X11430000Y26670000D03*
%TD*%
%TO.P,R2,2*%
%TO.N,GND*%
X45720000Y53340000D03*
%TO.P,R2,1*%
%TO.N,EN*%
X38100000Y53340000D03*
%TD*%
D12*
%TO.P,SW1,*%
%TO.N,*%
X63850000Y32340000D03*
D10*
%TO.P,SW1,2*%
%TO.N,SW1*%
X66040000Y33600000D03*
%TO.P,SW1,1*%
%TO.N,GND*%
X66040000Y38100000D03*
D12*
%TO.P,SW1,*%
%TO.N,*%
X63850000Y39350000D03*
X63250000Y32340000D03*
X63250000Y39350000D03*
%TD*%
%TO.P,SW2,*%
%TO.N,*%
X63250000Y50780000D03*
X63250000Y43770000D03*
X63850000Y50780000D03*
D10*
%TO.P,SW2,1*%
%TO.N,GND*%
X66040000Y49530000D03*
%TO.P,SW2,2*%
%TO.N,SW2*%
X66040000Y45030000D03*
D12*
%TO.P,SW2,*%
%TO.N,*%
X63850000Y43770000D03*
%TD*%
D10*
%TO.P,U1,1*%
%TO.N,EN*%
X30480000Y53340000D03*
%TO.P,U1,9*%
X22860000Y71120000D03*
%TO.P,U1,2*%
%TO.N,I1*%
X30480000Y55880000D03*
%TO.P,U1,10*%
%TO.N,I2*%
X22860000Y68580000D03*
%TO.P,U1,3*%
%TO.N,OA1*%
X30480000Y58420000D03*
%TO.P,U1,11*%
%TO.N,OB2*%
X22860000Y66040000D03*
%TO.P,U1,4*%
%TO.N,GND*%
X30480000Y60960000D03*
%TO.P,U1,12*%
X22860000Y63500000D03*
%TO.P,U1,5*%
X30480000Y63500000D03*
%TO.P,U1,13*%
X22860000Y60960000D03*
%TO.P,U1,6*%
%TO.N,OA2*%
X30480000Y66040000D03*
%TO.P,U1,14*%
%TO.N,OB1*%
X22860000Y58420000D03*
%TO.P,U1,7*%
%TO.N,I2*%
X30480000Y68580000D03*
%TO.P,U1,15*%
%TO.N,I1*%
X22860000Y55880000D03*
%TO.P,U1,8*%
%TO.N,+5V*%
X30480000Y71120000D03*
%TO.P,U1,16*%
X22860000Y53340000D03*
%TD*%
%TO.P,J7,1*%
%TO.N,GND*%
X5080000Y40640000D03*
%TO.P,J7,2*%
%TO.N,+3V3*%
X5080000Y38100000D03*
%TO.P,J7,3*%
%TO.N,SCK*%
X5080000Y35560000D03*
%TO.P,J7,4*%
%TO.N,Net-(J7-Pad4)*%
X5080000Y33020000D03*
%TD*%
D13*
%TO.N,+5V*%
X34290000Y71120000D03*
X29210000Y46990000D03*
X34290000Y46990000D03*
X22860000Y46990000D03*
%TO.N,+3V3*%
X7759990Y45720000D03*
X7620000Y54610000D03*
X43180000Y44450000D03*
X24130000Y44450000D03*
X52070000Y17780000D03*
X52070000Y40640000D03*
%TO.N,OA1*%
X36830000Y58420000D03*
X43180000Y58420000D03*
%TO.N,EN*%
X20320000Y41275000D03*
X20320000Y71120000D03*
X30480000Y50165000D03*
X20320000Y46990000D03*
X20320000Y50165000D03*
X20320000Y53340000D03*
%TO.N,I2*%
X17780000Y41275000D03*
X17780000Y68580000D03*
%TD*%
D14*
%TO.N,+5V*%
X62230000Y67945000D02*
X62230000Y66040000D01*
X59055000Y71120000D02*
X62230000Y67945000D01*
X30480000Y71120000D02*
X59055000Y71120000D01*
X22860000Y46990000D02*
X22860000Y53479990D01*
X29210000Y46990000D02*
X29210000Y39045407D01*
X23710030Y33545437D02*
X23710030Y11645030D01*
X29210000Y39045407D02*
X23710030Y33545437D01*
X23710030Y11645030D02*
X18415000Y6350000D01*
X18415000Y6350000D02*
X13970000Y6350000D01*
X29210000Y46990000D02*
X34290000Y46990000D01*
X13970000Y6350000D02*
X12065000Y6350000D01*
X12065000Y6350000D02*
X8255000Y10160000D01*
X8255000Y10160000D02*
X8255000Y20955000D01*
%TO.N,+3V3*%
X57010001Y40640000D02*
X57150000Y40500001D01*
X39370000Y6350000D02*
X45720000Y6350000D01*
X45720000Y6350000D02*
X48260000Y8890000D01*
X7759990Y45720000D02*
X7759990Y45720000D01*
X14678502Y52170000D02*
X15875000Y50973502D01*
X13335000Y52170000D02*
X14678502Y52170000D01*
X15875000Y50973502D02*
X15875000Y44450000D01*
X21590000Y44450000D02*
X24130000Y44450000D01*
X15875000Y44450000D02*
X21590000Y44450000D01*
X48260000Y40640000D02*
X48260000Y43180000D01*
X48260000Y43180000D02*
X46990000Y44450000D01*
X46990000Y44450000D02*
X43180000Y44450000D01*
X52070000Y40640000D02*
X57010001Y40640000D01*
X48260000Y40640000D02*
X52070000Y40640000D01*
X52070000Y40640000D02*
X52070000Y40640000D01*
X52070000Y17780000D02*
X52070000Y17780000D01*
X48260000Y8890000D02*
X48260000Y13970000D01*
X48260000Y13970000D02*
X52070000Y17780000D01*
X7759990Y39224356D02*
X7759990Y45720000D01*
X6635634Y38100000D02*
X7759990Y39224356D01*
X5080000Y38100000D02*
X6635634Y38100000D01*
X11891498Y52070000D02*
X11014126Y52070000D01*
X13335000Y52170000D02*
X11991498Y52170000D01*
X11991498Y52170000D02*
X11891498Y52070000D01*
X8474126Y54610000D02*
X7620000Y54610000D01*
X11014126Y52070000D02*
X8474126Y54610000D01*
X7620000Y54610000D02*
X5080000Y54610000D01*
%TO.N,OA2*%
X30480000Y66040000D02*
X43180000Y66040000D01*
%TO.N,OA1*%
X43180000Y63500000D02*
X43180000Y58420000D01*
X30480000Y58420000D02*
X36830000Y58420000D01*
X36830000Y58420000D02*
X36830000Y58420000D01*
X43180000Y58420000D02*
X43180000Y58420000D01*
%TO.N,OB1*%
X22860000Y58420000D02*
X19050000Y58420000D01*
X19050000Y58420000D02*
X13970000Y63500000D01*
X13970000Y63500000D02*
X10160000Y63500000D01*
%TO.N,OB2*%
X10160000Y66040000D02*
X22860000Y66040000D01*
%TO.N,EN*%
X33020000Y53340000D02*
X38100000Y53340000D01*
X30480000Y53340000D02*
X33020000Y53340000D01*
X30480000Y53340000D02*
X30480000Y50165000D01*
X30480000Y50165000D02*
X30480000Y50165000D01*
X13970000Y21590000D02*
X15836128Y21590000D01*
X15836128Y21590000D02*
X18910010Y24663882D01*
X18910010Y24663882D02*
X18910010Y35639136D01*
X18910010Y35639136D02*
X20320000Y37049126D01*
X20320000Y37049126D02*
X20320000Y41275000D01*
X20320000Y71120000D02*
X22860000Y71120000D01*
X20320000Y46990000D02*
X20320000Y53340000D01*
%TO.N,I1*%
X22860000Y55880000D02*
X26670000Y55880000D01*
X26670000Y55880000D02*
X30480000Y55880000D01*
X16690254Y19050000D02*
X21310020Y23669766D01*
X13970000Y19050000D02*
X16690254Y19050000D01*
X21310020Y23669766D02*
X21310020Y34645020D01*
X26670000Y40005000D02*
X26670000Y55880000D01*
X21310020Y34645020D02*
X26670000Y40005000D01*
%TO.N,I2*%
X22860000Y68580000D02*
X30480000Y68580000D01*
X14842012Y23990010D02*
X13970000Y23990010D01*
X16370001Y25517999D02*
X14842012Y23990010D01*
X16370001Y36493253D02*
X16370001Y25517999D01*
X17780000Y37903252D02*
X16370001Y36493253D01*
X17780000Y41275000D02*
X17780000Y37903252D01*
X17780000Y68580000D02*
X22860000Y68580000D01*
%TO.N,Net-(C3-Pad2)*%
X13970000Y41910000D02*
X13335000Y42545000D01*
X13335000Y42545000D02*
X13335000Y49769990D01*
%TO.N,hall*%
X8255000Y51435000D02*
X10160000Y49530000D01*
X10160000Y49530000D02*
X10160000Y31750000D01*
X10160000Y31750000D02*
X13970000Y31750000D01*
X8255000Y51435000D02*
X7620000Y52070000D01*
X7620000Y52070000D02*
X5080000Y52070000D01*
%TO.N,SDA*%
X48260000Y33020000D02*
X57150000Y33020000D01*
X48260000Y33020000D02*
X41652002Y33020000D01*
X41652002Y33020000D02*
X40382002Y31750000D01*
X40382002Y31750000D02*
X39370000Y31750000D01*
%TO.N,SCL*%
X57150000Y35560000D02*
X48260000Y35560000D01*
X48260000Y35560000D02*
X44450000Y35560000D01*
X44450000Y35560000D02*
X41652002Y35560000D01*
X41652002Y35560000D02*
X41770001Y35677999D01*
X41770001Y38525633D02*
X41770001Y35677999D01*
X40925634Y39370000D02*
X41770001Y38525633D01*
X39370000Y39370000D02*
X40925634Y39370000D01*
%TO.N,SCK*%
X13970000Y29210000D02*
X9525000Y29210000D01*
X9525000Y29210000D02*
X7620000Y29210000D01*
X7620000Y29210000D02*
X7620000Y34925000D01*
X7620000Y34925000D02*
X6985000Y35560000D01*
X6985000Y35560000D02*
X5080000Y35560000D01*
D15*
%TO.N,LEDS*%
X44450000Y21590000D02*
X50800000Y27940000D01*
X53829990Y30969990D02*
X57999141Y30969990D01*
X50800000Y27940000D02*
X53829990Y30969990D01*
X59200001Y32170850D02*
X59200001Y41624001D01*
X57999141Y30969990D02*
X59200001Y32170850D01*
X59200001Y41624001D02*
X59200001Y61740001D01*
X59200001Y61740001D02*
X60960000Y63500000D01*
X60960000Y63500000D02*
X62230000Y63500000D01*
D14*
X39370000Y21590000D02*
X43815000Y21590000D01*
%TO.N,SDIO*%
X13970000Y26670000D02*
X11430000Y26670000D01*
%TO.N,SW1*%
X39370000Y11430000D02*
X40925634Y11430000D01*
X40925634Y11430000D02*
X41770001Y12274367D01*
X41770001Y12274367D02*
X41770001Y16370001D01*
X41770001Y16370001D02*
X42049990Y16649990D01*
X42049990Y16649990D02*
X43815000Y16649990D01*
D15*
X55238322Y27569970D02*
X44450000Y16781648D01*
X59407475Y27569970D02*
X55238322Y27569970D01*
X66040000Y33600000D02*
X66040000Y31643998D01*
X66040000Y31643998D02*
X64786001Y30389999D01*
X64786001Y30389999D02*
X62320001Y30389999D01*
X62320001Y30389999D02*
X62273752Y30436248D01*
X62273752Y30436248D02*
X59407475Y27569970D01*
%TO.N,SW2*%
X44314176Y19050000D02*
X54534156Y29269980D01*
X54534156Y29269980D02*
X58703308Y29269980D01*
X58703308Y29269980D02*
X60960000Y31526672D01*
X60960000Y44366002D02*
X62313998Y45720000D01*
X60960000Y31526672D02*
X60960000Y44366002D01*
X62313998Y45720000D02*
X66040000Y45720000D01*
D14*
X39370000Y19050000D02*
X43815000Y19050000D01*
%TO.N,Net-(J7-Pad4)*%
X3810000Y26670000D02*
X5080000Y27940000D01*
X5287937Y28147937D02*
X5219990Y28215884D01*
X5080000Y27940000D02*
X5287937Y28147937D01*
X5219990Y28215884D02*
X5219990Y33020000D01*
%TD*%
D16*
%TO.N,GND*%
G36*
X69375000Y23335000D02*
G01*
X59713332Y23335000D01*
X59690000Y23337298D01*
X59666668Y23335000D01*
X59596884Y23328127D01*
X59507346Y23300966D01*
X59424827Y23256859D01*
X59352499Y23197501D01*
X59293141Y23125173D01*
X59249034Y23042654D01*
X59221873Y22953116D01*
X59212702Y22860000D01*
X59215001Y22836658D01*
X59215000Y475000D01*
X4285000Y475000D01*
X4285000Y3786669D01*
X4287298Y3810000D01*
X4278127Y3903116D01*
X4250966Y3992654D01*
X4240676Y4011907D01*
X5570000Y4011907D01*
X5570000Y3608093D01*
X5648780Y3212037D01*
X5803314Y2838961D01*
X6027661Y2503201D01*
X6313201Y2217661D01*
X6648961Y1993314D01*
X7022037Y1838780D01*
X7418093Y1760000D01*
X7821907Y1760000D01*
X8217963Y1838780D01*
X8591039Y1993314D01*
X8926799Y2217661D01*
X9212339Y2503201D01*
X9436686Y2838961D01*
X9591220Y3212037D01*
X9670000Y3608093D01*
X9670000Y4011907D01*
X53830000Y4011907D01*
X53830000Y3608093D01*
X53908780Y3212037D01*
X54063314Y2838961D01*
X54287661Y2503201D01*
X54573201Y2217661D01*
X54908961Y1993314D01*
X55282037Y1838780D01*
X55678093Y1760000D01*
X56081907Y1760000D01*
X56477963Y1838780D01*
X56851039Y1993314D01*
X57186799Y2217661D01*
X57472339Y2503201D01*
X57696686Y2838961D01*
X57851220Y3212037D01*
X57930000Y3608093D01*
X57930000Y4011907D01*
X57851220Y4407963D01*
X57696686Y4781039D01*
X57472339Y5116799D01*
X57186799Y5402339D01*
X56851039Y5626686D01*
X56477963Y5781220D01*
X56081907Y5860000D01*
X55678093Y5860000D01*
X55282037Y5781220D01*
X54908961Y5626686D01*
X54573201Y5402339D01*
X54287661Y5116799D01*
X54063314Y4781039D01*
X53908780Y4407963D01*
X53830000Y4011907D01*
X9670000Y4011907D01*
X9591220Y4407963D01*
X9436686Y4781039D01*
X9212339Y5116799D01*
X8926799Y5402339D01*
X8591039Y5626686D01*
X8217963Y5781220D01*
X7821907Y5860000D01*
X7418093Y5860000D01*
X7022037Y5781220D01*
X6648961Y5626686D01*
X6313201Y5402339D01*
X6027661Y5116799D01*
X5803314Y4781039D01*
X5648780Y4407963D01*
X5570000Y4011907D01*
X4240676Y4011907D01*
X4206859Y4075173D01*
X4147501Y4147501D01*
X4075173Y4206859D01*
X3992654Y4250966D01*
X3903116Y4278127D01*
X3833332Y4285000D01*
X3810000Y4287298D01*
X3786668Y4285000D01*
X475000Y4285000D01*
X475000Y26670000D01*
X2252502Y26670000D01*
X2260000Y26593872D01*
X2260000Y26517338D01*
X2274931Y26442272D01*
X2282429Y26366148D01*
X2304633Y26292950D01*
X2319565Y26217882D01*
X2348854Y26147173D01*
X2371059Y26073972D01*
X2407121Y26006503D01*
X2436408Y25935800D01*
X2478923Y25872171D01*
X2514987Y25804700D01*
X2563519Y25745563D01*
X2606036Y25681932D01*
X2660152Y25627816D01*
X2708682Y25568682D01*
X2767816Y25520152D01*
X2821932Y25466036D01*
X2885563Y25423519D01*
X2944700Y25374987D01*
X3012171Y25338923D01*
X3075800Y25296408D01*
X3146503Y25267121D01*
X3213972Y25231059D01*
X3287173Y25208854D01*
X3357882Y25179565D01*
X3432950Y25164633D01*
X3506148Y25142429D01*
X3582272Y25134931D01*
X3657338Y25120000D01*
X3733872Y25120000D01*
X3810000Y25112502D01*
X3886128Y25120000D01*
X3962662Y25120000D01*
X4037728Y25134931D01*
X4113852Y25142429D01*
X4187050Y25164633D01*
X4262118Y25179565D01*
X4332827Y25208854D01*
X4406028Y25231059D01*
X4473497Y25267121D01*
X4544200Y25296408D01*
X4607829Y25338923D01*
X4675300Y25374987D01*
X4734435Y25423518D01*
X4798068Y25466036D01*
X5013964Y25681932D01*
X5013968Y25681938D01*
X6229853Y26897822D01*
X6229858Y26897828D01*
X6330110Y26998080D01*
X6389255Y27046619D01*
X6582950Y27282637D01*
X6726878Y27551908D01*
X6815509Y27844084D01*
X6819102Y27880564D01*
X7023971Y27771059D01*
X7316147Y27682428D01*
X7620000Y27652501D01*
X7696138Y27660000D01*
X10227968Y27660000D01*
X10226036Y27658068D01*
X10183519Y27594437D01*
X10134987Y27535300D01*
X10098922Y27467828D01*
X10056408Y27404200D01*
X10027123Y27333500D01*
X9991059Y27266029D01*
X9968852Y27192822D01*
X9939565Y27122118D01*
X9924635Y27047060D01*
X9902428Y26973853D01*
X9894929Y26897717D01*
X9880000Y26822662D01*
X9880000Y26746138D01*
X9872501Y26670000D01*
X9880000Y26593862D01*
X9880000Y26517338D01*
X9894929Y26442283D01*
X9902428Y26366147D01*
X9924635Y26292940D01*
X9939565Y26217882D01*
X9968852Y26147178D01*
X9991059Y26073971D01*
X10027123Y26006500D01*
X10056408Y25935800D01*
X10098922Y25872172D01*
X10134987Y25804700D01*
X10183519Y25745563D01*
X10226036Y25681932D01*
X10280152Y25627816D01*
X10328682Y25568682D01*
X10387816Y25520152D01*
X10441932Y25466036D01*
X10505563Y25423519D01*
X10564700Y25374987D01*
X10632172Y25338922D01*
X10695800Y25296408D01*
X10766500Y25267123D01*
X10833971Y25231059D01*
X10907178Y25208852D01*
X10977882Y25179565D01*
X11052940Y25164635D01*
X11126147Y25142428D01*
X11202283Y25134929D01*
X11277338Y25120000D01*
X12767968Y25120000D01*
X12766036Y25118068D01*
X12596408Y24864200D01*
X12479565Y24582118D01*
X12420000Y24282662D01*
X12420000Y24066148D01*
X12412501Y23990010D01*
X12442428Y23686157D01*
X12531059Y23393981D01*
X12674987Y23124710D01*
X12868682Y22888692D01*
X12983132Y22794766D01*
X12981932Y22793964D01*
X12927816Y22739848D01*
X12868682Y22691318D01*
X12820152Y22632184D01*
X12766036Y22578068D01*
X12723519Y22514437D01*
X12674987Y22455300D01*
X12638922Y22387828D01*
X12596408Y22324200D01*
X12567123Y22253500D01*
X12531059Y22186029D01*
X12508852Y22112822D01*
X12479565Y22042118D01*
X12464635Y21967060D01*
X12442428Y21893853D01*
X12434929Y21817717D01*
X12420000Y21742662D01*
X12420000Y21666138D01*
X12412501Y21590000D01*
X12420000Y21513862D01*
X12420000Y21437338D01*
X12434929Y21362283D01*
X12442428Y21286147D01*
X12464635Y21212940D01*
X12479565Y21137882D01*
X12508852Y21067178D01*
X12531059Y20993971D01*
X12567123Y20926500D01*
X12596408Y20855800D01*
X12638922Y20792172D01*
X12674987Y20724700D01*
X12723519Y20665563D01*
X12766036Y20601932D01*
X12820152Y20547816D01*
X12868682Y20488682D01*
X12927816Y20440152D01*
X12981932Y20386036D01*
X13045563Y20343519D01*
X13074222Y20320000D01*
X13045563Y20296481D01*
X12981932Y20253964D01*
X12927816Y20199848D01*
X12868682Y20151318D01*
X12820152Y20092184D01*
X12766036Y20038068D01*
X12723519Y19974437D01*
X12674987Y19915300D01*
X12638922Y19847828D01*
X12596408Y19784200D01*
X12567123Y19713500D01*
X12531059Y19646029D01*
X12508852Y19572822D01*
X12479565Y19502118D01*
X12464635Y19427060D01*
X12442428Y19353853D01*
X12434929Y19277717D01*
X12420000Y19202662D01*
X12420000Y19126138D01*
X12412501Y19050000D01*
X12420000Y18973862D01*
X12420000Y18897338D01*
X12434929Y18822283D01*
X12442428Y18746147D01*
X12464635Y18672940D01*
X12479565Y18597882D01*
X12508852Y18527178D01*
X12531059Y18453971D01*
X12567123Y18386500D01*
X12596408Y18315800D01*
X12638922Y18252172D01*
X12674987Y18184700D01*
X12723519Y18125563D01*
X12766036Y18061932D01*
X12820152Y18007816D01*
X12868682Y17948682D01*
X12927816Y17900152D01*
X12981932Y17846036D01*
X13045563Y17803519D01*
X13077157Y17777591D01*
X12981932Y17713964D01*
X12766036Y17498068D01*
X12596408Y17244200D01*
X12479565Y16962118D01*
X12420000Y16662662D01*
X12420000Y16357338D01*
X12479565Y16057882D01*
X12596408Y15775800D01*
X12766036Y15521932D01*
X12981932Y15306036D01*
X13080763Y15240000D01*
X12981932Y15173964D01*
X12766036Y14958068D01*
X12596408Y14704200D01*
X12479565Y14422118D01*
X12420000Y14122662D01*
X12420000Y13817338D01*
X12479565Y13517882D01*
X12596408Y13235800D01*
X12766036Y12981932D01*
X12981932Y12766036D01*
X13080763Y12700000D01*
X12981932Y12633964D01*
X12766036Y12418068D01*
X12596408Y12164200D01*
X12479565Y11882118D01*
X12420000Y11582662D01*
X12420000Y11277338D01*
X12479565Y10977882D01*
X12596408Y10695800D01*
X12766036Y10441932D01*
X12981932Y10226036D01*
X13235800Y10056408D01*
X13517882Y9939565D01*
X13817338Y9880000D01*
X14122662Y9880000D01*
X14422118Y9939565D01*
X14704200Y10056408D01*
X14958068Y10226036D01*
X15173964Y10441932D01*
X15343592Y10695800D01*
X15460435Y10977882D01*
X15520000Y11277338D01*
X15520000Y11582662D01*
X15460435Y11882118D01*
X15343592Y12164200D01*
X15173964Y12418068D01*
X14958068Y12633964D01*
X14859237Y12700000D01*
X14958068Y12766036D01*
X15173964Y12981932D01*
X15343592Y13235800D01*
X15460435Y13517882D01*
X15520000Y13817338D01*
X15520000Y14122662D01*
X15460435Y14422118D01*
X15343592Y14704200D01*
X15173964Y14958068D01*
X14958068Y15173964D01*
X14859237Y15240000D01*
X14958068Y15306036D01*
X15173964Y15521932D01*
X15343592Y15775800D01*
X15460435Y16057882D01*
X15520000Y16357338D01*
X15520000Y16662662D01*
X15460435Y16962118D01*
X15343592Y17244200D01*
X15173964Y17498068D01*
X15172032Y17500000D01*
X16614126Y17500000D01*
X16690254Y17492502D01*
X16766382Y17500000D01*
X16766392Y17500000D01*
X16994107Y17522428D01*
X17286283Y17611059D01*
X17555554Y17754987D01*
X17791572Y17948682D01*
X17840111Y18007827D01*
X22160031Y22327746D01*
X22160031Y12287062D01*
X17772970Y7900000D01*
X12707031Y7900000D01*
X9805000Y10802030D01*
X9805000Y12082214D01*
X9878068Y12131036D01*
X10093964Y12346932D01*
X10263592Y12600800D01*
X10380435Y12882882D01*
X10440000Y13182338D01*
X10440000Y13487662D01*
X10380435Y13787118D01*
X10263592Y14069200D01*
X10093964Y14323068D01*
X9878068Y14538964D01*
X9805000Y14587786D01*
X9805000Y21107662D01*
X9790071Y21182717D01*
X9782572Y21258853D01*
X9760365Y21332060D01*
X9745435Y21407118D01*
X9716148Y21477822D01*
X9693941Y21551029D01*
X9657877Y21618500D01*
X9628592Y21689200D01*
X9586078Y21752828D01*
X9550013Y21820300D01*
X9501481Y21879437D01*
X9458964Y21943068D01*
X9404848Y21997184D01*
X9356318Y22056318D01*
X9297184Y22104848D01*
X9243068Y22158964D01*
X9179437Y22201481D01*
X9120300Y22250013D01*
X9052828Y22286078D01*
X8989200Y22328592D01*
X8918500Y22357877D01*
X8851029Y22393941D01*
X8777822Y22416148D01*
X8707118Y22445435D01*
X8632060Y22460365D01*
X8558853Y22482572D01*
X8482717Y22490071D01*
X8407662Y22505000D01*
X8331138Y22505000D01*
X8255000Y22512499D01*
X8178862Y22505000D01*
X8102338Y22505000D01*
X8027282Y22490071D01*
X7951148Y22482572D01*
X7877943Y22460365D01*
X7802882Y22445435D01*
X7732175Y22416147D01*
X7658972Y22393941D01*
X7591505Y22357879D01*
X7520800Y22328592D01*
X7457168Y22286075D01*
X7389701Y22250013D01*
X7330569Y22201484D01*
X7266932Y22158964D01*
X7212812Y22104844D01*
X7153683Y22056318D01*
X7105157Y21997189D01*
X7051036Y21943068D01*
X7008515Y21879430D01*
X6959988Y21820300D01*
X6923927Y21752835D01*
X6881408Y21689200D01*
X6852119Y21618492D01*
X6816060Y21551029D01*
X6793856Y21477831D01*
X6764565Y21407118D01*
X6749633Y21332050D01*
X6727429Y21258853D01*
X6719931Y21182727D01*
X6705000Y21107662D01*
X6705000Y20802338D01*
X6705001Y20802333D01*
X6705000Y10236128D01*
X6697502Y10160000D01*
X6705000Y10083872D01*
X6705000Y10083863D01*
X6727428Y9856148D01*
X6797789Y9624200D01*
X6816059Y9563972D01*
X6959987Y9294700D01*
X7042751Y9193852D01*
X7153682Y9058682D01*
X7212827Y9010143D01*
X10915147Y5307822D01*
X10963682Y5248682D01*
X11022822Y5200147D01*
X11199700Y5054987D01*
X11468971Y4911059D01*
X11761147Y4822428D01*
X12065000Y4792501D01*
X12141138Y4800000D01*
X18338872Y4800000D01*
X18415000Y4792502D01*
X18491128Y4800000D01*
X18491138Y4800000D01*
X18718853Y4822428D01*
X19011029Y4911059D01*
X19280300Y5054987D01*
X19516318Y5248682D01*
X19564857Y5307827D01*
X20607030Y6350000D01*
X37812501Y6350000D01*
X37820000Y6273862D01*
X37820000Y6197338D01*
X37834929Y6122283D01*
X37842428Y6046147D01*
X37864635Y5972940D01*
X37879565Y5897882D01*
X37908852Y5827178D01*
X37931059Y5753971D01*
X37967123Y5686500D01*
X37996408Y5615800D01*
X38038922Y5552172D01*
X38074987Y5484700D01*
X38123519Y5425563D01*
X38166036Y5361932D01*
X38220152Y5307816D01*
X38268682Y5248682D01*
X38327816Y5200152D01*
X38381932Y5146036D01*
X38445563Y5103519D01*
X38504700Y5054987D01*
X38572172Y5018922D01*
X38635800Y4976408D01*
X38706500Y4947123D01*
X38773971Y4911059D01*
X38847178Y4888852D01*
X38917882Y4859565D01*
X38992940Y4844635D01*
X39066147Y4822428D01*
X39142283Y4814929D01*
X39217338Y4800000D01*
X45643872Y4800000D01*
X45720000Y4792502D01*
X45796128Y4800000D01*
X45796138Y4800000D01*
X46023853Y4822428D01*
X46316029Y4911059D01*
X46585300Y5054987D01*
X46821318Y5248682D01*
X46869857Y5307827D01*
X49248065Y7686034D01*
X49248068Y7686036D01*
X49302185Y7740153D01*
X49361318Y7788682D01*
X49409848Y7847816D01*
X49463964Y7901932D01*
X49506481Y7965563D01*
X49555013Y8024700D01*
X49591078Y8092172D01*
X49633592Y8155800D01*
X49662877Y8226500D01*
X49698941Y8293971D01*
X49721148Y8367178D01*
X49750435Y8437882D01*
X49765365Y8512940D01*
X49787572Y8586147D01*
X49795071Y8662283D01*
X49810000Y8737338D01*
X49810000Y8813871D01*
X49817498Y8889999D01*
X49810000Y8966127D01*
X49810000Y13327970D01*
X53058065Y16576034D01*
X53058068Y16576036D01*
X53112184Y16630152D01*
X53171318Y16678682D01*
X53219848Y16737816D01*
X53273964Y16791932D01*
X53316481Y16855563D01*
X53365013Y16914700D01*
X53401078Y16982172D01*
X53443592Y17045800D01*
X53472877Y17116500D01*
X53508941Y17183971D01*
X53531148Y17257178D01*
X53560435Y17327882D01*
X53575365Y17402940D01*
X53597572Y17476147D01*
X53605071Y17552283D01*
X53620000Y17627338D01*
X53620000Y17703862D01*
X53627499Y17780000D01*
X53620000Y17856138D01*
X53620000Y17932662D01*
X53605071Y18007717D01*
X53597572Y18083853D01*
X53575365Y18157060D01*
X53560435Y18232118D01*
X53531148Y18302822D01*
X53508941Y18376029D01*
X53472877Y18443500D01*
X53443592Y18514200D01*
X53401078Y18577828D01*
X53365013Y18645300D01*
X53316481Y18704437D01*
X53273964Y18768068D01*
X53219848Y18822184D01*
X53171318Y18881318D01*
X53112184Y18929848D01*
X53058068Y18983964D01*
X52994437Y19026481D01*
X52935300Y19075013D01*
X52867828Y19111078D01*
X52804200Y19153592D01*
X52733500Y19182877D01*
X52666029Y19218941D01*
X52592822Y19241148D01*
X52522118Y19270435D01*
X52447060Y19285365D01*
X52373853Y19307572D01*
X52297717Y19315071D01*
X52222662Y19330000D01*
X52146138Y19330000D01*
X52070000Y19337499D01*
X51993862Y19330000D01*
X51917338Y19330000D01*
X51842283Y19315071D01*
X51766147Y19307572D01*
X51692940Y19285365D01*
X51617882Y19270435D01*
X51547178Y19241148D01*
X51473971Y19218941D01*
X51406500Y19182877D01*
X51335800Y19153592D01*
X51272172Y19111078D01*
X51204700Y19075013D01*
X51145563Y19026481D01*
X51081932Y18983964D01*
X51027816Y18929848D01*
X50968682Y18881318D01*
X50920152Y18822184D01*
X50866036Y18768068D01*
X50866034Y18768065D01*
X47217823Y15119853D01*
X47158683Y15071318D01*
X47110148Y15012178D01*
X47110147Y15012177D01*
X46964987Y14835300D01*
X46821059Y14566028D01*
X46732429Y14273852D01*
X46702502Y13970000D01*
X46710001Y13893862D01*
X46710000Y9532031D01*
X45077970Y7900000D01*
X39217338Y7900000D01*
X39142283Y7885071D01*
X39066147Y7877572D01*
X38992940Y7855365D01*
X38917882Y7840435D01*
X38847178Y7811148D01*
X38773971Y7788941D01*
X38706500Y7752877D01*
X38635800Y7723592D01*
X38572172Y7681078D01*
X38504700Y7645013D01*
X38445563Y7596481D01*
X38381932Y7553964D01*
X38327816Y7499848D01*
X38268682Y7451318D01*
X38220152Y7392184D01*
X38166036Y7338068D01*
X38123519Y7274437D01*
X38074987Y7215300D01*
X38038922Y7147828D01*
X37996408Y7084200D01*
X37967123Y7013500D01*
X37931059Y6946029D01*
X37908852Y6872822D01*
X37879565Y6802118D01*
X37864635Y6727060D01*
X37842428Y6653853D01*
X37834929Y6577717D01*
X37820000Y6502662D01*
X37820000Y6426138D01*
X37812501Y6350000D01*
X20607030Y6350000D01*
X24752208Y10495177D01*
X24811348Y10543712D01*
X25005043Y10779730D01*
X25148971Y11049001D01*
X25237602Y11341177D01*
X25260030Y11568892D01*
X25260030Y11568901D01*
X25267528Y11645029D01*
X25260030Y11721157D01*
X25260030Y32903407D01*
X30252178Y37895554D01*
X30311318Y37944089D01*
X30505013Y38180107D01*
X30648941Y38449378D01*
X30737572Y38741554D01*
X30760000Y38969269D01*
X30760000Y38969278D01*
X30767498Y39045406D01*
X30760000Y39121534D01*
X30760000Y45440000D01*
X34442662Y45440000D01*
X34517717Y45454929D01*
X34593853Y45462428D01*
X34667060Y45484635D01*
X34742118Y45499565D01*
X34812822Y45528852D01*
X34886029Y45551059D01*
X34953500Y45587123D01*
X35024200Y45616408D01*
X35087828Y45658922D01*
X35155300Y45694987D01*
X35214437Y45743519D01*
X35278068Y45786036D01*
X35332184Y45840152D01*
X35391318Y45888682D01*
X35439848Y45947816D01*
X35493964Y46001932D01*
X35536481Y46065563D01*
X35585013Y46124700D01*
X35621078Y46192172D01*
X35663592Y46255800D01*
X35692877Y46326500D01*
X35728941Y46393971D01*
X35751148Y46467178D01*
X35780435Y46537882D01*
X35795365Y46612940D01*
X35817572Y46686147D01*
X35825071Y46762283D01*
X35840000Y46837338D01*
X35840000Y46913863D01*
X35847499Y46990000D01*
X35840000Y47066138D01*
X35840000Y47142662D01*
X35825071Y47217717D01*
X35817572Y47293853D01*
X35795365Y47367060D01*
X35780435Y47442118D01*
X35751148Y47512822D01*
X35728941Y47586029D01*
X35692877Y47653500D01*
X35663592Y47724200D01*
X35621078Y47787828D01*
X35585013Y47855300D01*
X35536481Y47914437D01*
X35493964Y47978068D01*
X35439848Y48032184D01*
X35391318Y48091318D01*
X35332184Y48139848D01*
X35278068Y48193964D01*
X35214437Y48236481D01*
X35155300Y48285013D01*
X35087828Y48321078D01*
X35024200Y48363592D01*
X34953500Y48392877D01*
X34886029Y48428941D01*
X34812822Y48451148D01*
X34742118Y48480435D01*
X34667060Y48495365D01*
X34593853Y48517572D01*
X34517717Y48525071D01*
X34442662Y48540000D01*
X29286138Y48540000D01*
X29210000Y48547499D01*
X29133862Y48540000D01*
X29057338Y48540000D01*
X28982283Y48525071D01*
X28906147Y48517572D01*
X28832940Y48495365D01*
X28757882Y48480435D01*
X28687178Y48451148D01*
X28613971Y48428941D01*
X28546500Y48392877D01*
X28475800Y48363592D01*
X28412172Y48321078D01*
X28344700Y48285013D01*
X28285563Y48236481D01*
X28221932Y48193964D01*
X28220000Y48192032D01*
X28220000Y54330000D01*
X29277968Y54330000D01*
X29276036Y54328068D01*
X29233519Y54264437D01*
X29184987Y54205300D01*
X29148922Y54137828D01*
X29106408Y54074200D01*
X29077123Y54003500D01*
X29041059Y53936029D01*
X29018852Y53862822D01*
X28989565Y53792118D01*
X28974635Y53717060D01*
X28952428Y53643853D01*
X28944929Y53567717D01*
X28930000Y53492662D01*
X28930000Y53416138D01*
X28922501Y53340000D01*
X28930000Y53263861D01*
X28930001Y50317667D01*
X28930000Y50317662D01*
X28930000Y50241138D01*
X28922501Y50165000D01*
X28930000Y50088862D01*
X28930000Y50012338D01*
X28944929Y49937283D01*
X28952428Y49861147D01*
X28974635Y49787940D01*
X28989565Y49712882D01*
X29018852Y49642178D01*
X29041059Y49568971D01*
X29077123Y49501500D01*
X29106408Y49430800D01*
X29148922Y49367172D01*
X29184987Y49299700D01*
X29233519Y49240563D01*
X29276036Y49176932D01*
X29330152Y49122816D01*
X29378682Y49063682D01*
X29437816Y49015152D01*
X29491932Y48961036D01*
X29555563Y48918519D01*
X29614700Y48869987D01*
X29682172Y48833922D01*
X29745800Y48791408D01*
X29816500Y48762123D01*
X29883971Y48726059D01*
X29957178Y48703852D01*
X30027882Y48674565D01*
X30102940Y48659635D01*
X30176147Y48637428D01*
X30252283Y48629929D01*
X30327338Y48615000D01*
X30403862Y48615000D01*
X30480000Y48607501D01*
X30556138Y48615000D01*
X30632662Y48615000D01*
X30707717Y48629929D01*
X30783853Y48637428D01*
X30857060Y48659635D01*
X30932118Y48674565D01*
X31002822Y48703852D01*
X31076029Y48726059D01*
X31143500Y48762123D01*
X31214200Y48791408D01*
X31277828Y48833922D01*
X31345300Y48869987D01*
X31404437Y48918519D01*
X31468068Y48961036D01*
X31522184Y49015152D01*
X31581318Y49063682D01*
X31629848Y49122816D01*
X31683964Y49176932D01*
X31726481Y49240563D01*
X31775013Y49299700D01*
X31811078Y49367172D01*
X31853592Y49430800D01*
X31882877Y49501500D01*
X31918941Y49568971D01*
X31941148Y49642178D01*
X31970435Y49712882D01*
X31985365Y49787940D01*
X32007572Y49861147D01*
X32015071Y49937283D01*
X32030000Y50012338D01*
X32030000Y50088862D01*
X32037499Y50165000D01*
X32030000Y50241138D01*
X32030000Y51790000D01*
X38252662Y51790000D01*
X38327717Y51804929D01*
X38403853Y51812428D01*
X38477060Y51834635D01*
X38552118Y51849565D01*
X38622822Y51878852D01*
X38696029Y51901059D01*
X38763500Y51937123D01*
X38834200Y51966408D01*
X38897828Y52008922D01*
X38965300Y52044987D01*
X39024437Y52093519D01*
X39088068Y52136036D01*
X39142184Y52190152D01*
X39201318Y52238682D01*
X39249848Y52297816D01*
X39303964Y52351932D01*
X39346481Y52415563D01*
X39395013Y52474700D01*
X39431078Y52542172D01*
X39473592Y52605800D01*
X39502877Y52676500D01*
X39538941Y52743971D01*
X39561148Y52817178D01*
X39590435Y52887882D01*
X39605365Y52962940D01*
X39627572Y53036147D01*
X39635071Y53112283D01*
X39650000Y53187338D01*
X39650000Y53263862D01*
X39657499Y53340000D01*
X39650000Y53416138D01*
X39650000Y53492662D01*
X39635071Y53567717D01*
X39627572Y53643853D01*
X39605365Y53717060D01*
X39590435Y53792118D01*
X39561148Y53862822D01*
X39538941Y53936029D01*
X39502877Y54003500D01*
X39473592Y54074200D01*
X39431078Y54137828D01*
X39395013Y54205300D01*
X39346481Y54264437D01*
X39303964Y54328068D01*
X39249848Y54382184D01*
X39201318Y54441318D01*
X39142184Y54489848D01*
X39088068Y54543964D01*
X39024437Y54586481D01*
X38965300Y54635013D01*
X38897828Y54671078D01*
X38834200Y54713592D01*
X38763500Y54742877D01*
X38696029Y54778941D01*
X38622822Y54801148D01*
X38552118Y54830435D01*
X38477060Y54845365D01*
X38403853Y54867572D01*
X38327717Y54875071D01*
X38252662Y54890000D01*
X31682032Y54890000D01*
X31683964Y54891932D01*
X31726481Y54955563D01*
X31775013Y55014700D01*
X31811078Y55082172D01*
X31853592Y55145800D01*
X31882877Y55216500D01*
X31918941Y55283971D01*
X31941148Y55357178D01*
X31970435Y55427882D01*
X31985365Y55502940D01*
X32007572Y55576147D01*
X32015071Y55652283D01*
X32030000Y55727338D01*
X32030000Y55803862D01*
X32037499Y55880000D01*
X32030000Y55956138D01*
X32030000Y56032662D01*
X32015071Y56107717D01*
X32007572Y56183853D01*
X31985365Y56257060D01*
X31970435Y56332118D01*
X31941148Y56402822D01*
X31918941Y56476029D01*
X31882877Y56543500D01*
X31853592Y56614200D01*
X31811078Y56677828D01*
X31775013Y56745300D01*
X31726481Y56804437D01*
X31683964Y56868068D01*
X31682032Y56870000D01*
X36982662Y56870000D01*
X37057717Y56884929D01*
X37133853Y56892428D01*
X37207060Y56914635D01*
X37282118Y56929565D01*
X37352822Y56958852D01*
X37426029Y56981059D01*
X37493500Y57017123D01*
X37564200Y57046408D01*
X37627828Y57088922D01*
X37695300Y57124987D01*
X37754437Y57173519D01*
X37818068Y57216036D01*
X37872184Y57270152D01*
X37931318Y57318682D01*
X37979848Y57377816D01*
X38033964Y57431932D01*
X38076481Y57495563D01*
X38125013Y57554700D01*
X38161078Y57622172D01*
X38203592Y57685800D01*
X38232877Y57756500D01*
X38268941Y57823971D01*
X38291148Y57897178D01*
X38320435Y57967882D01*
X38335365Y58042940D01*
X38357572Y58116147D01*
X38365071Y58192283D01*
X38380000Y58267338D01*
X38380000Y58343862D01*
X38387499Y58420000D01*
X38380000Y58496138D01*
X38380000Y58572662D01*
X38365071Y58647717D01*
X38357572Y58723853D01*
X38335365Y58797060D01*
X38320435Y58872118D01*
X38291148Y58942822D01*
X38268941Y59016029D01*
X38232877Y59083500D01*
X38203592Y59154200D01*
X38161078Y59217828D01*
X38125013Y59285300D01*
X38076481Y59344437D01*
X38033964Y59408068D01*
X37979848Y59462184D01*
X37931318Y59521318D01*
X37872184Y59569848D01*
X37818068Y59623964D01*
X37754437Y59666481D01*
X37695300Y59715013D01*
X37627828Y59751078D01*
X37564200Y59793592D01*
X37493500Y59822877D01*
X37426029Y59858941D01*
X37352822Y59881148D01*
X37282118Y59910435D01*
X37207060Y59925365D01*
X37133853Y59947572D01*
X37057717Y59955071D01*
X36982662Y59970000D01*
X30327338Y59970000D01*
X30252283Y59955071D01*
X30176147Y59947572D01*
X30102940Y59925365D01*
X30027882Y59910435D01*
X29957178Y59881148D01*
X29883971Y59858941D01*
X29816500Y59822877D01*
X29745800Y59793592D01*
X29682172Y59751078D01*
X29614700Y59715013D01*
X29555563Y59666481D01*
X29491932Y59623964D01*
X29437816Y59569848D01*
X29378682Y59521318D01*
X29330152Y59462184D01*
X29276036Y59408068D01*
X29233519Y59344437D01*
X29184987Y59285300D01*
X29148922Y59217828D01*
X29106408Y59154200D01*
X29077123Y59083500D01*
X29041059Y59016029D01*
X29018852Y58942822D01*
X28989565Y58872118D01*
X28974635Y58797060D01*
X28952428Y58723853D01*
X28944929Y58647717D01*
X28930000Y58572662D01*
X28930000Y58496138D01*
X28922501Y58420000D01*
X28930000Y58343862D01*
X28930000Y58267338D01*
X28944929Y58192283D01*
X28952428Y58116147D01*
X28974635Y58042940D01*
X28989565Y57967882D01*
X29018852Y57897178D01*
X29041059Y57823971D01*
X29077123Y57756500D01*
X29106408Y57685800D01*
X29148922Y57622172D01*
X29184987Y57554700D01*
X29233519Y57495563D01*
X29276036Y57431932D01*
X29277968Y57430000D01*
X26746138Y57430000D01*
X26670000Y57437499D01*
X26593862Y57430000D01*
X24062032Y57430000D01*
X24063964Y57431932D01*
X24106481Y57495563D01*
X24155013Y57554700D01*
X24191078Y57622172D01*
X24233592Y57685800D01*
X24262877Y57756500D01*
X24298941Y57823971D01*
X24321148Y57897178D01*
X24350435Y57967882D01*
X24365365Y58042940D01*
X24387572Y58116147D01*
X24395071Y58192283D01*
X24410000Y58267338D01*
X24410000Y58343862D01*
X24417499Y58420000D01*
X24410000Y58496138D01*
X24410000Y58572662D01*
X24395071Y58647717D01*
X24387572Y58723853D01*
X24365365Y58797060D01*
X24350435Y58872118D01*
X24321148Y58942822D01*
X24298941Y59016029D01*
X24262877Y59083500D01*
X24233592Y59154200D01*
X24191078Y59217828D01*
X24155013Y59285300D01*
X24106481Y59344437D01*
X24063964Y59408068D01*
X24009848Y59462184D01*
X23961318Y59521318D01*
X23902184Y59569848D01*
X23848068Y59623964D01*
X23784437Y59666481D01*
X23725300Y59715013D01*
X23657828Y59751078D01*
X23594200Y59793592D01*
X23523500Y59822877D01*
X23456029Y59858941D01*
X23382822Y59881148D01*
X23312118Y59910435D01*
X23237060Y59925365D01*
X23163853Y59947572D01*
X23087717Y59955071D01*
X23012662Y59970000D01*
X19692031Y59970000D01*
X15172030Y64490000D01*
X23012662Y64490000D01*
X23087717Y64504929D01*
X23163853Y64512428D01*
X23237060Y64534635D01*
X23312118Y64549565D01*
X23382822Y64578852D01*
X23456029Y64601059D01*
X23523500Y64637123D01*
X23594200Y64666408D01*
X23657828Y64708922D01*
X23725300Y64744987D01*
X23784437Y64793519D01*
X23848068Y64836036D01*
X23902184Y64890152D01*
X23961318Y64938682D01*
X24009848Y64997816D01*
X24063964Y65051932D01*
X24106481Y65115563D01*
X24155013Y65174700D01*
X24191078Y65242172D01*
X24233592Y65305800D01*
X24262877Y65376500D01*
X24298941Y65443971D01*
X24321148Y65517178D01*
X24350435Y65587882D01*
X24365365Y65662940D01*
X24387572Y65736147D01*
X24395071Y65812283D01*
X24410000Y65887338D01*
X24410000Y65963862D01*
X24417499Y66040000D01*
X24410000Y66116138D01*
X24410000Y66192662D01*
X24395071Y66267717D01*
X24387572Y66343853D01*
X24365365Y66417060D01*
X24350435Y66492118D01*
X24321148Y66562822D01*
X24298941Y66636029D01*
X24262877Y66703500D01*
X24233592Y66774200D01*
X24191078Y66837828D01*
X24155013Y66905300D01*
X24106481Y66964437D01*
X24063964Y67028068D01*
X24062032Y67030000D01*
X29277968Y67030000D01*
X29276036Y67028068D01*
X29233519Y66964437D01*
X29184987Y66905300D01*
X29148922Y66837828D01*
X29106408Y66774200D01*
X29077123Y66703500D01*
X29041059Y66636029D01*
X29018852Y66562822D01*
X28989565Y66492118D01*
X28974635Y66417060D01*
X28952428Y66343853D01*
X28944929Y66267717D01*
X28930000Y66192662D01*
X28930000Y66116138D01*
X28922501Y66040000D01*
X28930000Y65963862D01*
X28930000Y65887338D01*
X28944929Y65812283D01*
X28952428Y65736147D01*
X28974635Y65662940D01*
X28989565Y65587882D01*
X29018852Y65517178D01*
X29041059Y65443971D01*
X29077123Y65376500D01*
X29106408Y65305800D01*
X29148922Y65242172D01*
X29184987Y65174700D01*
X29233519Y65115563D01*
X29276036Y65051932D01*
X29330152Y64997816D01*
X29378682Y64938682D01*
X29437816Y64890152D01*
X29491932Y64836036D01*
X29555563Y64793519D01*
X29614700Y64744987D01*
X29682172Y64708922D01*
X29745800Y64666408D01*
X29816500Y64637123D01*
X29883971Y64601059D01*
X29957178Y64578852D01*
X30027882Y64549565D01*
X30102940Y64534635D01*
X30176147Y64512428D01*
X30252283Y64504929D01*
X30327338Y64490000D01*
X41977968Y64490000D01*
X41976036Y64488068D01*
X41933516Y64424433D01*
X41884987Y64365299D01*
X41848925Y64297832D01*
X41806408Y64234200D01*
X41777121Y64163495D01*
X41741059Y64096028D01*
X41718853Y64022825D01*
X41689565Y63952118D01*
X41674635Y63877057D01*
X41652428Y63803852D01*
X41644929Y63727718D01*
X41630000Y63652662D01*
X41630000Y63576137D01*
X41630001Y58572667D01*
X41630000Y58572662D01*
X41630000Y58496138D01*
X41622501Y58420000D01*
X41630000Y58343862D01*
X41630000Y58267338D01*
X41644929Y58192283D01*
X41652428Y58116147D01*
X41674635Y58042940D01*
X41689565Y57967882D01*
X41718852Y57897178D01*
X41741059Y57823971D01*
X41777123Y57756500D01*
X41806408Y57685800D01*
X41848922Y57622172D01*
X41884987Y57554700D01*
X41933519Y57495563D01*
X41976036Y57431932D01*
X42030152Y57377816D01*
X42078682Y57318682D01*
X42137816Y57270152D01*
X42191932Y57216036D01*
X42255563Y57173519D01*
X42314700Y57124987D01*
X42382172Y57088922D01*
X42445800Y57046408D01*
X42516500Y57017123D01*
X42583971Y56981059D01*
X42657178Y56958852D01*
X42727882Y56929565D01*
X42802940Y56914635D01*
X42876147Y56892428D01*
X42952283Y56884929D01*
X43027338Y56870000D01*
X43103862Y56870000D01*
X43180000Y56862501D01*
X43256138Y56870000D01*
X43332662Y56870000D01*
X43407717Y56884929D01*
X43483853Y56892428D01*
X43557060Y56914635D01*
X43632118Y56929565D01*
X43702822Y56958852D01*
X43776029Y56981059D01*
X43843500Y57017123D01*
X43914200Y57046408D01*
X43977828Y57088922D01*
X44045300Y57124987D01*
X44104437Y57173519D01*
X44168068Y57216036D01*
X44222184Y57270152D01*
X44281318Y57318682D01*
X44329848Y57377816D01*
X44383964Y57431932D01*
X44426481Y57495563D01*
X44475013Y57554700D01*
X44511078Y57622172D01*
X44553592Y57685800D01*
X44582877Y57756500D01*
X44618941Y57823971D01*
X44641148Y57897178D01*
X44670435Y57967882D01*
X44685365Y58042940D01*
X44707572Y58116147D01*
X44715071Y58192283D01*
X44730000Y58267338D01*
X44730000Y58343862D01*
X44737499Y58420000D01*
X44730000Y58496138D01*
X44730000Y63652662D01*
X44715071Y63727717D01*
X44707572Y63803853D01*
X44685365Y63877060D01*
X44670435Y63952118D01*
X44641148Y64022822D01*
X44618941Y64096029D01*
X44582877Y64163500D01*
X44553592Y64234200D01*
X44511078Y64297828D01*
X44475013Y64365300D01*
X44426481Y64424437D01*
X44383964Y64488068D01*
X44329848Y64542184D01*
X44281318Y64601318D01*
X44222185Y64649847D01*
X44168068Y64703964D01*
X44104433Y64746484D01*
X44075778Y64770000D01*
X44104437Y64793519D01*
X44168068Y64836036D01*
X44222184Y64890152D01*
X44281318Y64938682D01*
X44329848Y64997816D01*
X44383964Y65051932D01*
X44426481Y65115563D01*
X44475013Y65174700D01*
X44511078Y65242172D01*
X44553592Y65305800D01*
X44582877Y65376500D01*
X44618941Y65443971D01*
X44641148Y65517178D01*
X44670435Y65587882D01*
X44685365Y65662940D01*
X44707572Y65736147D01*
X44715071Y65812283D01*
X44730000Y65887338D01*
X44730000Y65963862D01*
X44737499Y66040000D01*
X44730000Y66116138D01*
X44730000Y66192662D01*
X44715071Y66267717D01*
X44707572Y66343853D01*
X44685365Y66417060D01*
X44670435Y66492118D01*
X44641148Y66562822D01*
X44618941Y66636029D01*
X44582877Y66703500D01*
X44553592Y66774200D01*
X44511078Y66837828D01*
X44475013Y66905300D01*
X44426481Y66964437D01*
X44383964Y67028068D01*
X44329848Y67082184D01*
X44281318Y67141318D01*
X44222184Y67189848D01*
X44168068Y67243964D01*
X44104437Y67286481D01*
X44045300Y67335013D01*
X43977828Y67371078D01*
X43914200Y67413592D01*
X43843500Y67442877D01*
X43776029Y67478941D01*
X43702822Y67501148D01*
X43632118Y67530435D01*
X43557060Y67545365D01*
X43483853Y67567572D01*
X43407717Y67575071D01*
X43332662Y67590000D01*
X31682032Y67590000D01*
X31683964Y67591932D01*
X31726481Y67655563D01*
X31775013Y67714700D01*
X31811078Y67782172D01*
X31853592Y67845800D01*
X31882877Y67916500D01*
X31918941Y67983971D01*
X31941148Y68057178D01*
X31970435Y68127882D01*
X31985365Y68202940D01*
X32007572Y68276147D01*
X32015071Y68352283D01*
X32030000Y68427338D01*
X32030000Y68503862D01*
X32037499Y68580000D01*
X32030000Y68656138D01*
X32030000Y68732662D01*
X32015071Y68807717D01*
X32007572Y68883853D01*
X31985365Y68957060D01*
X31970435Y69032118D01*
X31941148Y69102822D01*
X31918941Y69176029D01*
X31882877Y69243500D01*
X31853592Y69314200D01*
X31811078Y69377828D01*
X31775013Y69445300D01*
X31726481Y69504437D01*
X31683964Y69568068D01*
X31682032Y69570000D01*
X58412970Y69570000D01*
X60680000Y67302969D01*
X60680001Y66192666D01*
X60680000Y66192662D01*
X60680000Y65887338D01*
X60694931Y65812273D01*
X60702429Y65736147D01*
X60724633Y65662950D01*
X60739565Y65587882D01*
X60768856Y65517169D01*
X60791060Y65443971D01*
X60827119Y65376508D01*
X60856408Y65305800D01*
X60898927Y65242165D01*
X60934988Y65174700D01*
X60983515Y65115570D01*
X61026036Y65051932D01*
X61080157Y64997811D01*
X61128683Y64938682D01*
X61187812Y64890156D01*
X61241932Y64836036D01*
X61305569Y64793516D01*
X61337158Y64767591D01*
X61241932Y64703964D01*
X61237968Y64700000D01*
X61018946Y64700000D01*
X60959999Y64705806D01*
X60901052Y64700000D01*
X60901050Y64700000D01*
X60724759Y64682637D01*
X60498558Y64614019D01*
X60290090Y64502591D01*
X60107366Y64352634D01*
X60069784Y64306840D01*
X58393156Y62630212D01*
X58347368Y62592635D01*
X58309791Y62546847D01*
X58309789Y62546845D01*
X58197410Y62409911D01*
X58085982Y62201442D01*
X58017365Y61975241D01*
X57994195Y61740001D01*
X58000002Y61681044D01*
X58000001Y41936217D01*
X57884200Y42013592D01*
X57602118Y42130435D01*
X57302662Y42190000D01*
X57086129Y42190000D01*
X57010001Y42197498D01*
X56933873Y42190000D01*
X49810000Y42190000D01*
X49810000Y43103873D01*
X49817498Y43180001D01*
X49810000Y43256129D01*
X49810000Y43256138D01*
X49787572Y43483853D01*
X49698941Y43776029D01*
X49555013Y44045300D01*
X49361318Y44281318D01*
X49302178Y44329853D01*
X48139857Y45492173D01*
X48091318Y45551318D01*
X47855300Y45745013D01*
X47586029Y45888941D01*
X47293853Y45977572D01*
X47066138Y46000000D01*
X47066128Y46000000D01*
X46990000Y46007498D01*
X46913872Y46000000D01*
X43027338Y46000000D01*
X42952283Y45985071D01*
X42876147Y45977572D01*
X42802940Y45955365D01*
X42727882Y45940435D01*
X42657178Y45911148D01*
X42583971Y45888941D01*
X42516500Y45852877D01*
X42445800Y45823592D01*
X42382172Y45781078D01*
X42314700Y45745013D01*
X42255563Y45696481D01*
X42191932Y45653964D01*
X42137816Y45599848D01*
X42078682Y45551318D01*
X42030152Y45492184D01*
X41976036Y45438068D01*
X41933519Y45374437D01*
X41884987Y45315300D01*
X41848922Y45247828D01*
X41806408Y45184200D01*
X41777123Y45113500D01*
X41741059Y45046029D01*
X41718852Y44972822D01*
X41689565Y44902118D01*
X41674635Y44827060D01*
X41652428Y44753853D01*
X41644929Y44677717D01*
X41630000Y44602662D01*
X41630000Y44526138D01*
X41622501Y44450000D01*
X41630000Y44373862D01*
X41630000Y44297338D01*
X41644929Y44222283D01*
X41652428Y44146147D01*
X41674635Y44072940D01*
X41689565Y43997882D01*
X41718852Y43927178D01*
X41741059Y43853971D01*
X41777123Y43786500D01*
X41806408Y43715800D01*
X41848922Y43652172D01*
X41884987Y43584700D01*
X41933519Y43525563D01*
X41976036Y43461932D01*
X42030152Y43407816D01*
X42078682Y43348682D01*
X42137816Y43300152D01*
X42191932Y43246036D01*
X42255563Y43203519D01*
X42314700Y43154987D01*
X42382172Y43118922D01*
X42445800Y43076408D01*
X42516500Y43047123D01*
X42583971Y43011059D01*
X42657178Y42988852D01*
X42727882Y42959565D01*
X42802940Y42944635D01*
X42876147Y42922428D01*
X42952283Y42914929D01*
X43027338Y42900000D01*
X46347970Y42900000D01*
X46710001Y42537969D01*
X46710000Y40792662D01*
X46710000Y40716138D01*
X46702501Y40640000D01*
X46710000Y40563863D01*
X46710000Y40487338D01*
X46724929Y40412283D01*
X46732428Y40336147D01*
X46754635Y40262940D01*
X46769565Y40187882D01*
X46798852Y40117178D01*
X46821059Y40043971D01*
X46857123Y39976500D01*
X46886408Y39905800D01*
X46928922Y39842172D01*
X46964987Y39774700D01*
X47013519Y39715563D01*
X47056036Y39651932D01*
X47110152Y39597816D01*
X47158469Y39538941D01*
X47158682Y39538682D01*
X47217816Y39490152D01*
X47271932Y39436036D01*
X47335563Y39393519D01*
X47394700Y39344987D01*
X47462172Y39308922D01*
X47525800Y39266408D01*
X47596500Y39237123D01*
X47663971Y39201059D01*
X47737178Y39178852D01*
X47807882Y39149565D01*
X47882940Y39134635D01*
X47956147Y39112428D01*
X48032283Y39104929D01*
X48107338Y39090000D01*
X48183862Y39090000D01*
X48260000Y39082501D01*
X48336138Y39090000D01*
X56499830Y39090000D01*
X56553971Y39061061D01*
X56846147Y38972430D01*
X57149999Y38942503D01*
X57453852Y38972430D01*
X57746028Y39061061D01*
X58000002Y39196812D01*
X58000001Y36863190D01*
X57947828Y36891078D01*
X57884200Y36933592D01*
X57813500Y36962877D01*
X57746029Y36998941D01*
X57672822Y37021148D01*
X57602118Y37050435D01*
X57527060Y37065365D01*
X57453853Y37087572D01*
X57377717Y37095071D01*
X57302662Y37110000D01*
X43320001Y37110000D01*
X43320001Y38449506D01*
X43327499Y38525634D01*
X43320001Y38601762D01*
X43320001Y38601771D01*
X43297573Y38829486D01*
X43208942Y39121662D01*
X43065014Y39390933D01*
X42871319Y39626951D01*
X42812180Y39675485D01*
X42075491Y40412173D01*
X42026952Y40471318D01*
X41790934Y40665013D01*
X41521663Y40808941D01*
X41229487Y40897572D01*
X41001772Y40920000D01*
X41001762Y40920000D01*
X40925634Y40927498D01*
X40849506Y40920000D01*
X40572032Y40920000D01*
X40573964Y40921932D01*
X40743592Y41175800D01*
X40860435Y41457882D01*
X40920000Y41757338D01*
X40920000Y42062662D01*
X40860435Y42362118D01*
X40743592Y42644200D01*
X40573964Y42898068D01*
X40358068Y43113964D01*
X40104200Y43283592D01*
X39822118Y43400435D01*
X39522662Y43460000D01*
X39217338Y43460000D01*
X38917882Y43400435D01*
X38635800Y43283592D01*
X38381932Y43113964D01*
X38166036Y42898068D01*
X37996408Y42644200D01*
X37879565Y42362118D01*
X37820000Y42062662D01*
X37820000Y41757338D01*
X37879565Y41457882D01*
X37996408Y41175800D01*
X38166036Y40921932D01*
X38381932Y40706036D01*
X38477157Y40642409D01*
X38445563Y40616481D01*
X38381932Y40573964D01*
X38327816Y40519848D01*
X38268682Y40471318D01*
X38220152Y40412184D01*
X38166036Y40358068D01*
X38123519Y40294437D01*
X38074987Y40235300D01*
X38038922Y40167828D01*
X37996408Y40104200D01*
X37967123Y40033500D01*
X37931059Y39966029D01*
X37908852Y39892822D01*
X37879565Y39822118D01*
X37864635Y39747060D01*
X37842428Y39673853D01*
X37834929Y39597717D01*
X37820000Y39522662D01*
X37820000Y39446138D01*
X37812501Y39370000D01*
X37820000Y39293862D01*
X37820000Y39217338D01*
X37834929Y39142283D01*
X37842428Y39066147D01*
X37864635Y38992940D01*
X37879565Y38917882D01*
X37908852Y38847178D01*
X37931059Y38773971D01*
X37967123Y38706500D01*
X37996408Y38635800D01*
X38038922Y38572172D01*
X38074987Y38504700D01*
X38123519Y38445563D01*
X38166036Y38381932D01*
X38220152Y38327816D01*
X38268682Y38268682D01*
X38327816Y38220152D01*
X38381932Y38166036D01*
X38445563Y38123519D01*
X38477157Y38097591D01*
X38381932Y38033964D01*
X38166036Y37818068D01*
X37996408Y37564200D01*
X37879565Y37282118D01*
X37820000Y36982662D01*
X37820000Y36677338D01*
X37879565Y36377882D01*
X37996408Y36095800D01*
X38166036Y35841932D01*
X38381932Y35626036D01*
X38480763Y35560000D01*
X38381932Y35493964D01*
X38166036Y35278068D01*
X37996408Y35024200D01*
X37879565Y34742118D01*
X37820000Y34442662D01*
X37820000Y34137338D01*
X37879565Y33837882D01*
X37996408Y33555800D01*
X38166036Y33301932D01*
X38381932Y33086036D01*
X38477157Y33022409D01*
X38445563Y32996481D01*
X38381932Y32953964D01*
X38327816Y32899848D01*
X38268682Y32851318D01*
X38220152Y32792184D01*
X38166036Y32738068D01*
X38123519Y32674437D01*
X38074987Y32615300D01*
X38038922Y32547828D01*
X37996408Y32484200D01*
X37967123Y32413500D01*
X37931059Y32346029D01*
X37908852Y32272822D01*
X37879565Y32202118D01*
X37864635Y32127060D01*
X37842428Y32053853D01*
X37834929Y31977717D01*
X37820000Y31902662D01*
X37820000Y31826138D01*
X37812501Y31750000D01*
X37820000Y31673862D01*
X37820000Y31597338D01*
X37834929Y31522283D01*
X37842428Y31446147D01*
X37864635Y31372940D01*
X37879565Y31297882D01*
X37908852Y31227178D01*
X37931059Y31153971D01*
X37967123Y31086500D01*
X37996408Y31015800D01*
X38038922Y30952172D01*
X38074987Y30884700D01*
X38123519Y30825563D01*
X38166036Y30761932D01*
X38220152Y30707816D01*
X38268682Y30648682D01*
X38327816Y30600152D01*
X38381932Y30546036D01*
X38445563Y30503519D01*
X38477157Y30477591D01*
X38381932Y30413964D01*
X38166036Y30198068D01*
X37996408Y29944200D01*
X37879565Y29662118D01*
X37820000Y29362662D01*
X37820000Y29057338D01*
X37879565Y28757882D01*
X37996408Y28475800D01*
X38166036Y28221932D01*
X38381932Y28006036D01*
X38480763Y27940000D01*
X38381932Y27873964D01*
X38166036Y27658068D01*
X37996408Y27404200D01*
X37879565Y27122118D01*
X37820000Y26822662D01*
X37820000Y26517338D01*
X37879565Y26217882D01*
X37996408Y25935800D01*
X38166036Y25681932D01*
X38381932Y25466036D01*
X38480763Y25400000D01*
X38381932Y25333964D01*
X38166036Y25118068D01*
X37996408Y24864200D01*
X37879565Y24582118D01*
X37820000Y24282662D01*
X37820000Y23977338D01*
X37879565Y23677882D01*
X37996408Y23395800D01*
X38166036Y23141932D01*
X38381932Y22926036D01*
X38477157Y22862409D01*
X38445563Y22836481D01*
X38381932Y22793964D01*
X38327816Y22739848D01*
X38268682Y22691318D01*
X38220152Y22632184D01*
X38166036Y22578068D01*
X38123519Y22514437D01*
X38074987Y22455300D01*
X38038922Y22387828D01*
X37996408Y22324200D01*
X37967123Y22253500D01*
X37931059Y22186029D01*
X37908852Y22112822D01*
X37879565Y22042118D01*
X37864635Y21967060D01*
X37842428Y21893853D01*
X37834929Y21817717D01*
X37820000Y21742662D01*
X37820000Y21666138D01*
X37812501Y21590000D01*
X37820000Y21513862D01*
X37820000Y21437338D01*
X37834929Y21362283D01*
X37842428Y21286147D01*
X37864635Y21212940D01*
X37879565Y21137882D01*
X37908852Y21067178D01*
X37931059Y20993971D01*
X37967123Y20926500D01*
X37996408Y20855800D01*
X38038922Y20792172D01*
X38074987Y20724700D01*
X38123519Y20665563D01*
X38166036Y20601932D01*
X38220152Y20547816D01*
X38268682Y20488682D01*
X38327816Y20440152D01*
X38381932Y20386036D01*
X38445563Y20343519D01*
X38474222Y20320000D01*
X38445563Y20296481D01*
X38381932Y20253964D01*
X38327816Y20199848D01*
X38268682Y20151318D01*
X38220152Y20092184D01*
X38166036Y20038068D01*
X38123519Y19974437D01*
X38074987Y19915300D01*
X38038922Y19847828D01*
X37996408Y19784200D01*
X37967123Y19713500D01*
X37931059Y19646029D01*
X37908852Y19572822D01*
X37879565Y19502118D01*
X37864635Y19427060D01*
X37842428Y19353853D01*
X37834929Y19277717D01*
X37820000Y19202662D01*
X37820000Y19126138D01*
X37812501Y19050000D01*
X37820000Y18973862D01*
X37820000Y18897338D01*
X37834929Y18822283D01*
X37842428Y18746147D01*
X37864635Y18672940D01*
X37879565Y18597882D01*
X37908852Y18527178D01*
X37931059Y18453971D01*
X37967123Y18386500D01*
X37996408Y18315800D01*
X38038922Y18252172D01*
X38074987Y18184700D01*
X38123519Y18125563D01*
X38166036Y18061932D01*
X38220152Y18007816D01*
X38268682Y17948682D01*
X38327816Y17900152D01*
X38381932Y17846036D01*
X38445563Y17803519D01*
X38477157Y17777591D01*
X38381932Y17713964D01*
X38166036Y17498068D01*
X37996408Y17244200D01*
X37879565Y16962118D01*
X37820000Y16662662D01*
X37820000Y16357338D01*
X37879565Y16057882D01*
X37996408Y15775800D01*
X38166036Y15521932D01*
X38381932Y15306036D01*
X38480763Y15240000D01*
X38381932Y15173964D01*
X38166036Y14958068D01*
X37996408Y14704200D01*
X37879565Y14422118D01*
X37820000Y14122662D01*
X37820000Y13817338D01*
X37879565Y13517882D01*
X37996408Y13235800D01*
X38166036Y12981932D01*
X38381932Y12766036D01*
X38477157Y12702409D01*
X38445563Y12676481D01*
X38381932Y12633964D01*
X38327816Y12579848D01*
X38268682Y12531318D01*
X38220152Y12472184D01*
X38166036Y12418068D01*
X38123519Y12354437D01*
X38074987Y12295300D01*
X38038922Y12227828D01*
X37996408Y12164200D01*
X37967123Y12093500D01*
X37931059Y12026029D01*
X37908852Y11952822D01*
X37879565Y11882118D01*
X37864635Y11807060D01*
X37842428Y11733853D01*
X37834929Y11657717D01*
X37820000Y11582662D01*
X37820000Y11506138D01*
X37812501Y11430000D01*
X37820000Y11353862D01*
X37820000Y11277338D01*
X37834929Y11202283D01*
X37842428Y11126147D01*
X37864635Y11052940D01*
X37879565Y10977882D01*
X37908852Y10907178D01*
X37931059Y10833971D01*
X37967123Y10766500D01*
X37996408Y10695800D01*
X38038922Y10632172D01*
X38074987Y10564700D01*
X38123519Y10505563D01*
X38166036Y10441932D01*
X38220152Y10387816D01*
X38268682Y10328682D01*
X38327816Y10280152D01*
X38381932Y10226036D01*
X38445563Y10183519D01*
X38504700Y10134987D01*
X38572172Y10098922D01*
X38635800Y10056408D01*
X38706500Y10027123D01*
X38773971Y9991059D01*
X38847178Y9968852D01*
X38917882Y9939565D01*
X38992940Y9924635D01*
X39066147Y9902428D01*
X39142283Y9894929D01*
X39217338Y9880000D01*
X40849506Y9880000D01*
X40925634Y9872502D01*
X41001762Y9880000D01*
X41001772Y9880000D01*
X41229487Y9902428D01*
X41521663Y9991059D01*
X41790934Y10134987D01*
X42026952Y10328682D01*
X42075491Y10387827D01*
X42812180Y11124515D01*
X42871319Y11173049D01*
X43065014Y11409067D01*
X43208942Y11678338D01*
X43297573Y11970514D01*
X43320001Y12198229D01*
X43320001Y12198238D01*
X43327499Y12274366D01*
X43320001Y12350494D01*
X43320001Y15099990D01*
X43891138Y15099990D01*
X44118853Y15122418D01*
X44411029Y15211049D01*
X44680300Y15354977D01*
X44916318Y15548672D01*
X45094044Y15765231D01*
X45119910Y15779057D01*
X45256844Y15891436D01*
X55735378Y26369970D01*
X59348528Y26369970D01*
X59407475Y26364164D01*
X59466422Y26369970D01*
X59466425Y26369970D01*
X59642716Y26387333D01*
X59868917Y26455951D01*
X60077385Y26567379D01*
X60260109Y26717336D01*
X60297695Y26763135D01*
X60406467Y26871907D01*
X63990000Y26871907D01*
X63990000Y26468093D01*
X64068780Y26072037D01*
X64223314Y25698961D01*
X64447661Y25363201D01*
X64733201Y25077661D01*
X65068961Y24853314D01*
X65442037Y24698780D01*
X65838093Y24620000D01*
X66241907Y24620000D01*
X66637963Y24698780D01*
X67011039Y24853314D01*
X67346799Y25077661D01*
X67632339Y25363201D01*
X67856686Y25698961D01*
X68011220Y26072037D01*
X68090000Y26468093D01*
X68090000Y26871907D01*
X68011220Y27267963D01*
X67856686Y27641039D01*
X67632339Y27976799D01*
X67346799Y28262339D01*
X67011039Y28486686D01*
X66637963Y28641220D01*
X66241907Y28720000D01*
X65838093Y28720000D01*
X65442037Y28641220D01*
X65068961Y28486686D01*
X64733201Y28262339D01*
X64447661Y27976799D01*
X64223314Y27641039D01*
X64068780Y27267963D01*
X63990000Y26871907D01*
X60406467Y26871907D01*
X62724559Y29189999D01*
X64727054Y29189999D01*
X64786001Y29184193D01*
X64844948Y29189999D01*
X64844951Y29189999D01*
X65021242Y29207362D01*
X65247443Y29275980D01*
X65455911Y29387408D01*
X65638635Y29537365D01*
X65676217Y29583159D01*
X66846840Y30753782D01*
X66892634Y30791364D01*
X67042591Y30974088D01*
X67154019Y31182556D01*
X67222637Y31408757D01*
X67240000Y31585048D01*
X67240000Y31585050D01*
X67245806Y31643997D01*
X67240000Y31702944D01*
X67240000Y32607968D01*
X67243964Y32611932D01*
X67413592Y32865800D01*
X67530435Y33147882D01*
X67590000Y33447338D01*
X67590000Y33752662D01*
X67530435Y34052118D01*
X67413592Y34334200D01*
X67243964Y34588068D01*
X67028068Y34803964D01*
X66774200Y34973592D01*
X66492118Y35090435D01*
X66192662Y35150000D01*
X65887338Y35150000D01*
X65587882Y35090435D01*
X65305800Y34973592D01*
X65051932Y34803964D01*
X64836036Y34588068D01*
X64666408Y34334200D01*
X64549565Y34052118D01*
X64490000Y33752662D01*
X64490000Y33644372D01*
X64272949Y33734277D01*
X63992813Y33790000D01*
X63707187Y33790000D01*
X63550000Y33758733D01*
X63392813Y33790000D01*
X63107187Y33790000D01*
X62827051Y33734277D01*
X62563167Y33624973D01*
X62325679Y33466289D01*
X62160000Y33300610D01*
X62160000Y38389390D01*
X62325679Y38223711D01*
X62563167Y38065027D01*
X62827051Y37955723D01*
X63107187Y37900000D01*
X63392813Y37900000D01*
X63550000Y37931267D01*
X63707187Y37900000D01*
X63992813Y37900000D01*
X64272949Y37955723D01*
X64536833Y38065027D01*
X64774321Y38223711D01*
X64976289Y38425679D01*
X65134973Y38663167D01*
X65244277Y38927051D01*
X65300000Y39207187D01*
X65300000Y39492813D01*
X65244277Y39772949D01*
X65134973Y40036833D01*
X64976289Y40274321D01*
X64774321Y40476289D01*
X64536833Y40634973D01*
X64272949Y40744277D01*
X63992813Y40800000D01*
X63707187Y40800000D01*
X63550000Y40768733D01*
X63392813Y40800000D01*
X63107187Y40800000D01*
X62827051Y40744277D01*
X62563167Y40634973D01*
X62325679Y40476289D01*
X62160000Y40310610D01*
X62160000Y42809390D01*
X62325679Y42643711D01*
X62563167Y42485027D01*
X62827051Y42375723D01*
X63107187Y42320000D01*
X63392813Y42320000D01*
X63550000Y42351267D01*
X63707187Y42320000D01*
X63992813Y42320000D01*
X64272949Y42375723D01*
X64536833Y42485027D01*
X64774321Y42643711D01*
X64976289Y42845679D01*
X65134973Y43083167D01*
X65244277Y43347051D01*
X65300000Y43627187D01*
X65300000Y43660283D01*
X65305800Y43656408D01*
X65587882Y43539565D01*
X65887338Y43480000D01*
X66192662Y43480000D01*
X66492118Y43539565D01*
X66774200Y43656408D01*
X67028068Y43826036D01*
X67243964Y44041932D01*
X67413592Y44295800D01*
X67530435Y44577882D01*
X67590000Y44877338D01*
X67590000Y45182662D01*
X67530435Y45482118D01*
X67413592Y45764200D01*
X67243964Y46018068D01*
X67185993Y46076039D01*
X67154019Y46181442D01*
X67042591Y46389910D01*
X66892634Y46572634D01*
X66709910Y46722591D01*
X66501442Y46834019D01*
X66275241Y46902637D01*
X66098950Y46920000D01*
X62372944Y46920000D01*
X62313997Y46925806D01*
X62255050Y46920000D01*
X62255048Y46920000D01*
X62078757Y46902637D01*
X61852556Y46834019D01*
X61644088Y46722591D01*
X61461364Y46572634D01*
X61423782Y46526840D01*
X60400001Y45503059D01*
X60400001Y50922813D01*
X61800000Y50922813D01*
X61800000Y50637187D01*
X61855723Y50357051D01*
X61965027Y50093167D01*
X62123711Y49855679D01*
X62325679Y49653711D01*
X62563167Y49495027D01*
X62827051Y49385723D01*
X63107187Y49330000D01*
X63392813Y49330000D01*
X63550000Y49361267D01*
X63707187Y49330000D01*
X63992813Y49330000D01*
X64272949Y49385723D01*
X64536833Y49495027D01*
X64774321Y49653711D01*
X64976289Y49855679D01*
X65134973Y50093167D01*
X65244277Y50357051D01*
X65300000Y50637187D01*
X65300000Y50922813D01*
X65244277Y51202949D01*
X65134973Y51466833D01*
X64976289Y51704321D01*
X64774321Y51906289D01*
X64536833Y52064973D01*
X64272949Y52174277D01*
X63992813Y52230000D01*
X63707187Y52230000D01*
X63550000Y52198733D01*
X63392813Y52230000D01*
X63107187Y52230000D01*
X62827051Y52174277D01*
X62563167Y52064973D01*
X62325679Y51906289D01*
X62123711Y51704321D01*
X61965027Y51466833D01*
X61855723Y51202949D01*
X61800000Y50922813D01*
X60400001Y50922813D01*
X60400001Y61242945D01*
X61368514Y62211458D01*
X61495800Y62126408D01*
X61777882Y62009565D01*
X62077338Y61950000D01*
X62382662Y61950000D01*
X62682118Y62009565D01*
X62964200Y62126408D01*
X63218068Y62296036D01*
X63433964Y62511932D01*
X63603592Y62765800D01*
X63720435Y63047882D01*
X63780000Y63347338D01*
X63780000Y63652662D01*
X63720435Y63952118D01*
X63603592Y64234200D01*
X63433964Y64488068D01*
X63218068Y64703964D01*
X63122843Y64767591D01*
X63154437Y64793519D01*
X63218068Y64836036D01*
X63272184Y64890152D01*
X63331318Y64938682D01*
X63379848Y64997816D01*
X63433964Y65051932D01*
X63476481Y65115563D01*
X63525013Y65174700D01*
X63561078Y65242172D01*
X63603592Y65305800D01*
X63632877Y65376500D01*
X63668941Y65443971D01*
X63691148Y65517178D01*
X63720435Y65587882D01*
X63735365Y65662940D01*
X63757572Y65736147D01*
X63765071Y65812283D01*
X63780000Y65887338D01*
X63780000Y67868873D01*
X63787498Y67945001D01*
X63780000Y68021129D01*
X63780000Y68021138D01*
X63757572Y68248853D01*
X63668941Y68541029D01*
X63525013Y68810300D01*
X63331318Y69046318D01*
X63272179Y69094852D01*
X60204857Y72162173D01*
X60156318Y72221318D01*
X59920300Y72415013D01*
X59651029Y72558941D01*
X59542356Y72591907D01*
X63990000Y72591907D01*
X63990000Y72188093D01*
X64068780Y71792037D01*
X64223314Y71418961D01*
X64447661Y71083201D01*
X64733201Y70797661D01*
X65068961Y70573314D01*
X65442037Y70418780D01*
X65838093Y70340000D01*
X66241907Y70340000D01*
X66637963Y70418780D01*
X67011039Y70573314D01*
X67346799Y70797661D01*
X67632339Y71083201D01*
X67856686Y71418961D01*
X68011220Y71792037D01*
X68090000Y72188093D01*
X68090000Y72591907D01*
X68011220Y72987963D01*
X67856686Y73361039D01*
X67632339Y73696799D01*
X67346799Y73982339D01*
X67011039Y74206686D01*
X66637963Y74361220D01*
X66241907Y74440000D01*
X65838093Y74440000D01*
X65442037Y74361220D01*
X65068961Y74206686D01*
X64733201Y73982339D01*
X64447661Y73696799D01*
X64223314Y73361039D01*
X64068780Y72987963D01*
X63990000Y72591907D01*
X59542356Y72591907D01*
X59358853Y72647572D01*
X59131138Y72670000D01*
X59131128Y72670000D01*
X59055000Y72677498D01*
X58978872Y72670000D01*
X30327338Y72670000D01*
X30252283Y72655071D01*
X30176147Y72647572D01*
X30102940Y72625365D01*
X30027882Y72610435D01*
X29957178Y72581148D01*
X29883971Y72558941D01*
X29816500Y72522877D01*
X29745800Y72493592D01*
X29682172Y72451078D01*
X29614700Y72415013D01*
X29555563Y72366481D01*
X29491932Y72323964D01*
X29437816Y72269848D01*
X29378682Y72221318D01*
X29330152Y72162184D01*
X29276036Y72108068D01*
X29233519Y72044437D01*
X29184987Y71985300D01*
X29148922Y71917828D01*
X29106408Y71854200D01*
X29077123Y71783500D01*
X29041059Y71716029D01*
X29018852Y71642822D01*
X28989565Y71572118D01*
X28974635Y71497060D01*
X28952428Y71423853D01*
X28944929Y71347717D01*
X28930000Y71272662D01*
X28930000Y71196138D01*
X28922501Y71120000D01*
X28930000Y71043862D01*
X28930000Y70967338D01*
X28944929Y70892283D01*
X28952428Y70816147D01*
X28974635Y70742940D01*
X28989565Y70667882D01*
X29018852Y70597178D01*
X29041059Y70523971D01*
X29077123Y70456500D01*
X29106408Y70385800D01*
X29148922Y70322172D01*
X29184987Y70254700D01*
X29233519Y70195563D01*
X29276036Y70131932D01*
X29277968Y70130000D01*
X24062032Y70130000D01*
X24063964Y70131932D01*
X24106481Y70195563D01*
X24155013Y70254700D01*
X24191078Y70322172D01*
X24233592Y70385800D01*
X24262877Y70456500D01*
X24298941Y70523971D01*
X24321148Y70597178D01*
X24350435Y70667882D01*
X24365365Y70742940D01*
X24387572Y70816147D01*
X24395071Y70892283D01*
X24410000Y70967338D01*
X24410000Y71043862D01*
X24417499Y71120000D01*
X24410000Y71196138D01*
X24410000Y71272662D01*
X24395071Y71347717D01*
X24387572Y71423853D01*
X24365365Y71497060D01*
X24350435Y71572118D01*
X24321148Y71642822D01*
X24298941Y71716029D01*
X24262877Y71783500D01*
X24233592Y71854200D01*
X24191078Y71917828D01*
X24155013Y71985300D01*
X24106481Y72044437D01*
X24063964Y72108068D01*
X24009848Y72162184D01*
X23961318Y72221318D01*
X23902184Y72269848D01*
X23848068Y72323964D01*
X23784437Y72366481D01*
X23725300Y72415013D01*
X23657828Y72451078D01*
X23594200Y72493592D01*
X23523500Y72522877D01*
X23456029Y72558941D01*
X23382822Y72581148D01*
X23312118Y72610435D01*
X23237060Y72625365D01*
X23163853Y72647572D01*
X23087717Y72655071D01*
X23012662Y72670000D01*
X20167338Y72670000D01*
X20092283Y72655071D01*
X20016147Y72647572D01*
X19942940Y72625365D01*
X19867882Y72610435D01*
X19797178Y72581148D01*
X19723971Y72558941D01*
X19656500Y72522877D01*
X19585800Y72493592D01*
X19522172Y72451078D01*
X19454700Y72415013D01*
X19395563Y72366481D01*
X19331932Y72323964D01*
X19277816Y72269848D01*
X19218682Y72221318D01*
X19170152Y72162184D01*
X19116036Y72108068D01*
X19073519Y72044437D01*
X19024987Y71985300D01*
X18988922Y71917828D01*
X18946408Y71854200D01*
X18917123Y71783500D01*
X18881059Y71716029D01*
X18858852Y71642822D01*
X18829565Y71572118D01*
X18814635Y71497060D01*
X18792428Y71423853D01*
X18784929Y71347717D01*
X18770000Y71272662D01*
X18770000Y71196138D01*
X18762501Y71120000D01*
X18770000Y71043862D01*
X18770000Y70967338D01*
X18784929Y70892283D01*
X18792428Y70816147D01*
X18814635Y70742940D01*
X18829565Y70667882D01*
X18858852Y70597178D01*
X18881059Y70523971D01*
X18917123Y70456500D01*
X18946408Y70385800D01*
X18988922Y70322172D01*
X19024987Y70254700D01*
X19073519Y70195563D01*
X19116036Y70131932D01*
X19117968Y70130000D01*
X17627338Y70130000D01*
X17552283Y70115071D01*
X17476147Y70107572D01*
X17402940Y70085365D01*
X17327882Y70070435D01*
X17257178Y70041148D01*
X17183971Y70018941D01*
X17116500Y69982877D01*
X17045800Y69953592D01*
X16982172Y69911078D01*
X16914700Y69875013D01*
X16855563Y69826481D01*
X16791932Y69783964D01*
X16737816Y69729848D01*
X16678682Y69681318D01*
X16630152Y69622184D01*
X16576036Y69568068D01*
X16533519Y69504437D01*
X16484987Y69445300D01*
X16448922Y69377828D01*
X16406408Y69314200D01*
X16377123Y69243500D01*
X16341059Y69176029D01*
X16318852Y69102822D01*
X16289565Y69032118D01*
X16274635Y68957060D01*
X16252428Y68883853D01*
X16244929Y68807717D01*
X16230000Y68732662D01*
X16230000Y68656138D01*
X16222501Y68580000D01*
X16230000Y68503862D01*
X16230000Y68427338D01*
X16244929Y68352283D01*
X16252428Y68276147D01*
X16274635Y68202940D01*
X16289565Y68127882D01*
X16318852Y68057178D01*
X16341059Y67983971D01*
X16377123Y67916500D01*
X16406408Y67845800D01*
X16448922Y67782172D01*
X16484987Y67714700D01*
X16533519Y67655563D01*
X16576036Y67591932D01*
X16577968Y67590000D01*
X10007338Y67590000D01*
X9932283Y67575071D01*
X9856147Y67567572D01*
X9782940Y67545365D01*
X9707882Y67530435D01*
X9637178Y67501148D01*
X9563971Y67478941D01*
X9496500Y67442877D01*
X9425800Y67413592D01*
X9362172Y67371078D01*
X9294700Y67335013D01*
X9235563Y67286481D01*
X9171932Y67243964D01*
X9117816Y67189848D01*
X9058682Y67141318D01*
X9010152Y67082184D01*
X8956036Y67028068D01*
X8913519Y66964437D01*
X8864987Y66905300D01*
X8828922Y66837828D01*
X8786408Y66774200D01*
X8757123Y66703500D01*
X8721059Y66636029D01*
X8698852Y66562822D01*
X8669565Y66492118D01*
X8654635Y66417060D01*
X8632428Y66343853D01*
X8624929Y66267717D01*
X8610000Y66192662D01*
X8610000Y66116138D01*
X8602501Y66040000D01*
X8610000Y65963862D01*
X8610000Y65887338D01*
X8624929Y65812283D01*
X8632428Y65736147D01*
X8654635Y65662940D01*
X8669565Y65587882D01*
X8698852Y65517178D01*
X8721059Y65443971D01*
X8757123Y65376500D01*
X8786408Y65305800D01*
X8828922Y65242172D01*
X8864987Y65174700D01*
X8913519Y65115563D01*
X8956036Y65051932D01*
X9010152Y64997816D01*
X9058682Y64938682D01*
X9117816Y64890152D01*
X9171932Y64836036D01*
X9235563Y64793519D01*
X9264222Y64770000D01*
X9235563Y64746481D01*
X9171932Y64703964D01*
X9117816Y64649848D01*
X9058682Y64601318D01*
X9010152Y64542184D01*
X8956036Y64488068D01*
X8913519Y64424437D01*
X8864987Y64365300D01*
X8828922Y64297828D01*
X8786408Y64234200D01*
X8757123Y64163500D01*
X8721059Y64096029D01*
X8698852Y64022822D01*
X8669565Y63952118D01*
X8654635Y63877060D01*
X8632428Y63803853D01*
X8624929Y63727717D01*
X8610000Y63652662D01*
X8610000Y63576138D01*
X8602501Y63500000D01*
X8610000Y63423862D01*
X8610000Y63347338D01*
X8624929Y63272283D01*
X8632428Y63196147D01*
X8654635Y63122940D01*
X8669565Y63047882D01*
X8698852Y62977178D01*
X8721059Y62903971D01*
X8757123Y62836500D01*
X8786408Y62765800D01*
X8828922Y62702172D01*
X8864987Y62634700D01*
X8913519Y62575563D01*
X8956036Y62511932D01*
X9010152Y62457816D01*
X9058682Y62398682D01*
X9117816Y62350152D01*
X9171932Y62296036D01*
X9235563Y62253519D01*
X9294700Y62204987D01*
X9362172Y62168922D01*
X9425800Y62126408D01*
X9496500Y62097123D01*
X9563971Y62061059D01*
X9637178Y62038852D01*
X9707882Y62009565D01*
X9782940Y61994635D01*
X9856147Y61972428D01*
X9932283Y61964929D01*
X10007338Y61950000D01*
X13327970Y61950000D01*
X17900147Y57377822D01*
X17948682Y57318682D01*
X18184700Y57124987D01*
X18453971Y56981059D01*
X18746147Y56892428D01*
X18973862Y56870000D01*
X18973869Y56870000D01*
X19050000Y56862502D01*
X19126131Y56870000D01*
X21657968Y56870000D01*
X21656036Y56868068D01*
X21613519Y56804437D01*
X21564987Y56745300D01*
X21528922Y56677828D01*
X21486408Y56614200D01*
X21457123Y56543500D01*
X21421059Y56476029D01*
X21398852Y56402822D01*
X21369565Y56332118D01*
X21354635Y56257060D01*
X21332428Y56183853D01*
X21324929Y56107717D01*
X21310000Y56032662D01*
X21310000Y55956138D01*
X21302501Y55880000D01*
X21310000Y55803862D01*
X21310000Y55727338D01*
X21324929Y55652283D01*
X21332428Y55576147D01*
X21354635Y55502940D01*
X21369565Y55427882D01*
X21398852Y55357178D01*
X21421059Y55283971D01*
X21457123Y55216500D01*
X21486408Y55145800D01*
X21528922Y55082172D01*
X21564987Y55014700D01*
X21613519Y54955563D01*
X21656036Y54891932D01*
X21710152Y54837816D01*
X21758682Y54778682D01*
X21817816Y54730152D01*
X21871932Y54676036D01*
X21873132Y54675234D01*
X21758683Y54581308D01*
X21564988Y54345290D01*
X21541641Y54301612D01*
X21523964Y54328068D01*
X21469848Y54382184D01*
X21421318Y54441318D01*
X21362184Y54489848D01*
X21308068Y54543964D01*
X21244437Y54586481D01*
X21185300Y54635013D01*
X21117828Y54671078D01*
X21054200Y54713592D01*
X20983500Y54742877D01*
X20916029Y54778941D01*
X20842822Y54801148D01*
X20772118Y54830435D01*
X20697060Y54845365D01*
X20623853Y54867572D01*
X20547717Y54875071D01*
X20472662Y54890000D01*
X20396138Y54890000D01*
X20320000Y54897499D01*
X20243862Y54890000D01*
X20167338Y54890000D01*
X20092282Y54875071D01*
X20016148Y54867572D01*
X19942943Y54845365D01*
X19867882Y54830435D01*
X19797175Y54801147D01*
X19723972Y54778941D01*
X19656505Y54742879D01*
X19585800Y54713592D01*
X19522168Y54671075D01*
X19454701Y54635013D01*
X19395569Y54586484D01*
X19331932Y54543964D01*
X19277812Y54489844D01*
X19218683Y54441318D01*
X19170157Y54382189D01*
X19116036Y54328068D01*
X19073515Y54264430D01*
X19024988Y54205300D01*
X18988927Y54137835D01*
X18946408Y54074200D01*
X18917119Y54003492D01*
X18881060Y53936029D01*
X18858856Y53862831D01*
X18829565Y53792118D01*
X18814633Y53717050D01*
X18792429Y53643853D01*
X18784931Y53567727D01*
X18770000Y53492662D01*
X18770000Y53187338D01*
X18770001Y53187333D01*
X18770001Y50317665D01*
X18770000Y50317662D01*
X18770000Y46837338D01*
X18784929Y46762282D01*
X18792428Y46686148D01*
X18814635Y46612943D01*
X18829565Y46537882D01*
X18858853Y46467175D01*
X18881059Y46393972D01*
X18917121Y46326505D01*
X18946408Y46255800D01*
X18988925Y46192168D01*
X19024987Y46124701D01*
X19073516Y46065567D01*
X19116036Y46001932D01*
X19117968Y46000000D01*
X17425000Y46000000D01*
X17425000Y50897364D01*
X17432499Y50973502D01*
X17402572Y51277355D01*
X17313941Y51569531D01*
X17170013Y51838802D01*
X17024853Y52015680D01*
X16976318Y52074820D01*
X16917179Y52123354D01*
X15828359Y53212173D01*
X15779820Y53271318D01*
X15543802Y53465013D01*
X15274531Y53608941D01*
X14982355Y53697572D01*
X14754640Y53720000D01*
X14754630Y53720000D01*
X14678502Y53727498D01*
X14602374Y53720000D01*
X12067625Y53720000D01*
X11991497Y53727498D01*
X11915369Y53720000D01*
X11915360Y53720000D01*
X11687645Y53697572D01*
X11603968Y53672189D01*
X9623983Y55652173D01*
X9575444Y55711318D01*
X9339426Y55905013D01*
X9070155Y56048941D01*
X8777979Y56137572D01*
X8550264Y56160000D01*
X8550254Y56160000D01*
X8474126Y56167498D01*
X8397998Y56160000D01*
X4927338Y56160000D01*
X4852283Y56145071D01*
X4776147Y56137572D01*
X4702940Y56115365D01*
X4627882Y56100435D01*
X4557178Y56071148D01*
X4483971Y56048941D01*
X4416500Y56012877D01*
X4345800Y55983592D01*
X4282172Y55941078D01*
X4214700Y55905013D01*
X4155563Y55856481D01*
X4091932Y55813964D01*
X4037816Y55759848D01*
X3978682Y55711318D01*
X3930152Y55652184D01*
X3876036Y55598068D01*
X3833519Y55534437D01*
X3784987Y55475300D01*
X3748922Y55407828D01*
X3706408Y55344200D01*
X3677123Y55273500D01*
X3641059Y55206029D01*
X3618852Y55132822D01*
X3589565Y55062118D01*
X3574635Y54987060D01*
X3552428Y54913853D01*
X3544929Y54837717D01*
X3530000Y54762662D01*
X3530000Y54686138D01*
X3522501Y54610000D01*
X3530000Y54533862D01*
X3530000Y54457338D01*
X3544929Y54382283D01*
X3552428Y54306147D01*
X3574635Y54232940D01*
X3589565Y54157882D01*
X3618852Y54087178D01*
X3641059Y54013971D01*
X3677123Y53946500D01*
X3706408Y53875800D01*
X3748922Y53812172D01*
X3784987Y53744700D01*
X3833519Y53685563D01*
X3876036Y53621932D01*
X3930152Y53567816D01*
X3978682Y53508682D01*
X4037816Y53460152D01*
X4091932Y53406036D01*
X4155563Y53363519D01*
X4184222Y53340000D01*
X4155563Y53316481D01*
X4091932Y53273964D01*
X4037816Y53219848D01*
X3978682Y53171318D01*
X3930152Y53112184D01*
X3876036Y53058068D01*
X3833519Y52994437D01*
X3784987Y52935300D01*
X3748922Y52867828D01*
X3706408Y52804200D01*
X3677123Y52733500D01*
X3641059Y52666029D01*
X3618852Y52592822D01*
X3589565Y52522118D01*
X3574635Y52447060D01*
X3552428Y52373853D01*
X3544929Y52297717D01*
X3530000Y52222662D01*
X3530000Y52146138D01*
X3522501Y52070000D01*
X3530000Y51993862D01*
X3530000Y51917338D01*
X3544929Y51842283D01*
X3552428Y51766147D01*
X3574635Y51692940D01*
X3589565Y51617882D01*
X3618852Y51547178D01*
X3641059Y51473971D01*
X3677123Y51406500D01*
X3706408Y51335800D01*
X3748922Y51272172D01*
X3784987Y51204700D01*
X3833519Y51145563D01*
X3876036Y51081932D01*
X3930152Y51027816D01*
X3978682Y50968682D01*
X4037816Y50920152D01*
X4091932Y50866036D01*
X4155563Y50823519D01*
X4214700Y50774987D01*
X4282172Y50738922D01*
X4345800Y50696408D01*
X4416500Y50667123D01*
X4483971Y50631059D01*
X4557178Y50608852D01*
X4627882Y50579565D01*
X4702940Y50564635D01*
X4776147Y50542428D01*
X4852283Y50534929D01*
X4927338Y50520000D01*
X6977970Y50520000D01*
X7105147Y50392823D01*
X8610000Y48887969D01*
X8610000Y47023186D01*
X8557818Y47051078D01*
X8494190Y47093592D01*
X8423490Y47122877D01*
X8356019Y47158941D01*
X8282812Y47181148D01*
X8212108Y47210435D01*
X8137050Y47225365D01*
X8063843Y47247572D01*
X7987707Y47255071D01*
X7912652Y47270000D01*
X7836128Y47270000D01*
X7759990Y47277499D01*
X7683852Y47270000D01*
X7607328Y47270000D01*
X7532273Y47255071D01*
X7456137Y47247572D01*
X7382930Y47225365D01*
X7307872Y47210435D01*
X7237168Y47181148D01*
X7163961Y47158941D01*
X7096490Y47122877D01*
X7025790Y47093592D01*
X6962162Y47051078D01*
X6894690Y47015013D01*
X6835553Y46966481D01*
X6771922Y46923964D01*
X6717806Y46869848D01*
X6658672Y46821318D01*
X6610142Y46762184D01*
X6556026Y46708068D01*
X6513509Y46644437D01*
X6464977Y46585300D01*
X6428912Y46517828D01*
X6386398Y46454200D01*
X6357113Y46383500D01*
X6321049Y46316029D01*
X6298842Y46242822D01*
X6269555Y46172118D01*
X6254625Y46097060D01*
X6232418Y46023853D01*
X6224919Y45947717D01*
X6209990Y45872662D01*
X6209990Y45796138D01*
X6202491Y45720000D01*
X6209990Y45643862D01*
X6209990Y45567338D01*
X6209991Y45567333D01*
X6209990Y39866387D01*
X5993604Y39650000D01*
X4927338Y39650000D01*
X4852283Y39635071D01*
X4776147Y39627572D01*
X4702940Y39605365D01*
X4627882Y39590435D01*
X4557178Y39561148D01*
X4483971Y39538941D01*
X4416500Y39502877D01*
X4345800Y39473592D01*
X4282172Y39431078D01*
X4214700Y39395013D01*
X4155563Y39346481D01*
X4091932Y39303964D01*
X4037816Y39249848D01*
X3978682Y39201318D01*
X3930152Y39142184D01*
X3876036Y39088068D01*
X3833519Y39024437D01*
X3784987Y38965300D01*
X3748922Y38897828D01*
X3706408Y38834200D01*
X3677123Y38763500D01*
X3641059Y38696029D01*
X3618852Y38622822D01*
X3589565Y38552118D01*
X3574635Y38477060D01*
X3552428Y38403853D01*
X3544929Y38327717D01*
X3530000Y38252662D01*
X3530000Y38176138D01*
X3522501Y38100000D01*
X3530000Y38023862D01*
X3530000Y37947338D01*
X3544929Y37872283D01*
X3552428Y37796147D01*
X3574635Y37722940D01*
X3589565Y37647882D01*
X3618852Y37577178D01*
X3641059Y37503971D01*
X3677123Y37436500D01*
X3706408Y37365800D01*
X3748922Y37302172D01*
X3784987Y37234700D01*
X3833519Y37175563D01*
X3876036Y37111932D01*
X3930152Y37057816D01*
X3978682Y36998682D01*
X4037816Y36950152D01*
X4091932Y36896036D01*
X4155563Y36853519D01*
X4184222Y36830000D01*
X4155563Y36806481D01*
X4091932Y36763964D01*
X4037816Y36709848D01*
X3978682Y36661318D01*
X3930152Y36602184D01*
X3876036Y36548068D01*
X3833519Y36484437D01*
X3784987Y36425300D01*
X3748922Y36357828D01*
X3706408Y36294200D01*
X3677123Y36223500D01*
X3641059Y36156029D01*
X3618852Y36082822D01*
X3589565Y36012118D01*
X3574635Y35937060D01*
X3552428Y35863853D01*
X3544929Y35787717D01*
X3530000Y35712662D01*
X3530000Y35636138D01*
X3522501Y35560000D01*
X3530000Y35483862D01*
X3530000Y35407338D01*
X3544929Y35332283D01*
X3552428Y35256147D01*
X3574635Y35182940D01*
X3589565Y35107882D01*
X3618852Y35037178D01*
X3641059Y34963971D01*
X3677123Y34896500D01*
X3706408Y34825800D01*
X3748922Y34762172D01*
X3784987Y34694700D01*
X3833519Y34635563D01*
X3876036Y34571932D01*
X3930152Y34517816D01*
X3978682Y34458682D01*
X4037816Y34410152D01*
X4091932Y34356036D01*
X4155563Y34313519D01*
X4187157Y34287591D01*
X4091932Y34223964D01*
X3876036Y34008068D01*
X3706408Y33754200D01*
X3589565Y33472118D01*
X3530000Y33172662D01*
X3530000Y32867338D01*
X3589565Y32567882D01*
X3669991Y32373718D01*
X3669990Y28722021D01*
X2821938Y27873968D01*
X2821932Y27873964D01*
X2606036Y27658068D01*
X2563518Y27594435D01*
X2514987Y27535300D01*
X2478923Y27467829D01*
X2436408Y27404200D01*
X2407121Y27333497D01*
X2371059Y27266028D01*
X2348854Y27192827D01*
X2319565Y27122118D01*
X2304633Y27047050D01*
X2282429Y26973852D01*
X2274931Y26897728D01*
X2260000Y26822662D01*
X2260000Y26746128D01*
X2252502Y26670000D01*
X475000Y26670000D01*
X475000Y72591907D01*
X1760000Y72591907D01*
X1760000Y72188093D01*
X1838780Y71792037D01*
X1993314Y71418961D01*
X2217661Y71083201D01*
X2503201Y70797661D01*
X2838961Y70573314D01*
X3212037Y70418780D01*
X3608093Y70340000D01*
X4011907Y70340000D01*
X4407963Y70418780D01*
X4781039Y70573314D01*
X5116799Y70797661D01*
X5402339Y71083201D01*
X5626686Y71418961D01*
X5781220Y71792037D01*
X5860000Y72188093D01*
X5860000Y72591907D01*
X5781220Y72987963D01*
X5626686Y73361039D01*
X5402339Y73696799D01*
X5116799Y73982339D01*
X4781039Y74206686D01*
X4407963Y74361220D01*
X4011907Y74440000D01*
X3608093Y74440000D01*
X3212037Y74361220D01*
X2838961Y74206686D01*
X2503201Y73982339D01*
X2217661Y73696799D01*
X1993314Y73361039D01*
X1838780Y72987963D01*
X1760000Y72591907D01*
X475000Y72591907D01*
X475000Y75725000D01*
X69375001Y75725000D01*
X69375000Y23335000D01*
G37*
X69375000Y23335000D02*
X59713332Y23335000D01*
X59690000Y23337298D01*
X59666668Y23335000D01*
X59596884Y23328127D01*
X59507346Y23300966D01*
X59424827Y23256859D01*
X59352499Y23197501D01*
X59293141Y23125173D01*
X59249034Y23042654D01*
X59221873Y22953116D01*
X59212702Y22860000D01*
X59215001Y22836658D01*
X59215000Y475000D01*
X4285000Y475000D01*
X4285000Y3786669D01*
X4287298Y3810000D01*
X4278127Y3903116D01*
X4250966Y3992654D01*
X4240676Y4011907D01*
X5570000Y4011907D01*
X5570000Y3608093D01*
X5648780Y3212037D01*
X5803314Y2838961D01*
X6027661Y2503201D01*
X6313201Y2217661D01*
X6648961Y1993314D01*
X7022037Y1838780D01*
X7418093Y1760000D01*
X7821907Y1760000D01*
X8217963Y1838780D01*
X8591039Y1993314D01*
X8926799Y2217661D01*
X9212339Y2503201D01*
X9436686Y2838961D01*
X9591220Y3212037D01*
X9670000Y3608093D01*
X9670000Y4011907D01*
X53830000Y4011907D01*
X53830000Y3608093D01*
X53908780Y3212037D01*
X54063314Y2838961D01*
X54287661Y2503201D01*
X54573201Y2217661D01*
X54908961Y1993314D01*
X55282037Y1838780D01*
X55678093Y1760000D01*
X56081907Y1760000D01*
X56477963Y1838780D01*
X56851039Y1993314D01*
X57186799Y2217661D01*
X57472339Y2503201D01*
X57696686Y2838961D01*
X57851220Y3212037D01*
X57930000Y3608093D01*
X57930000Y4011907D01*
X57851220Y4407963D01*
X57696686Y4781039D01*
X57472339Y5116799D01*
X57186799Y5402339D01*
X56851039Y5626686D01*
X56477963Y5781220D01*
X56081907Y5860000D01*
X55678093Y5860000D01*
X55282037Y5781220D01*
X54908961Y5626686D01*
X54573201Y5402339D01*
X54287661Y5116799D01*
X54063314Y4781039D01*
X53908780Y4407963D01*
X53830000Y4011907D01*
X9670000Y4011907D01*
X9591220Y4407963D01*
X9436686Y4781039D01*
X9212339Y5116799D01*
X8926799Y5402339D01*
X8591039Y5626686D01*
X8217963Y5781220D01*
X7821907Y5860000D01*
X7418093Y5860000D01*
X7022037Y5781220D01*
X6648961Y5626686D01*
X6313201Y5402339D01*
X6027661Y5116799D01*
X5803314Y4781039D01*
X5648780Y4407963D01*
X5570000Y4011907D01*
X4240676Y4011907D01*
X4206859Y4075173D01*
X4147501Y4147501D01*
X4075173Y4206859D01*
X3992654Y4250966D01*
X3903116Y4278127D01*
X3833332Y4285000D01*
X3810000Y4287298D01*
X3786668Y4285000D01*
X475000Y4285000D01*
X475000Y26670000D01*
X2252502Y26670000D01*
X2260000Y26593872D01*
X2260000Y26517338D01*
X2274931Y26442272D01*
X2282429Y26366148D01*
X2304633Y26292950D01*
X2319565Y26217882D01*
X2348854Y26147173D01*
X2371059Y26073972D01*
X2407121Y26006503D01*
X2436408Y25935800D01*
X2478923Y25872171D01*
X2514987Y25804700D01*
X2563519Y25745563D01*
X2606036Y25681932D01*
X2660152Y25627816D01*
X2708682Y25568682D01*
X2767816Y25520152D01*
X2821932Y25466036D01*
X2885563Y25423519D01*
X2944700Y25374987D01*
X3012171Y25338923D01*
X3075800Y25296408D01*
X3146503Y25267121D01*
X3213972Y25231059D01*
X3287173Y25208854D01*
X3357882Y25179565D01*
X3432950Y25164633D01*
X3506148Y25142429D01*
X3582272Y25134931D01*
X3657338Y25120000D01*
X3733872Y25120000D01*
X3810000Y25112502D01*
X3886128Y25120000D01*
X3962662Y25120000D01*
X4037728Y25134931D01*
X4113852Y25142429D01*
X4187050Y25164633D01*
X4262118Y25179565D01*
X4332827Y25208854D01*
X4406028Y25231059D01*
X4473497Y25267121D01*
X4544200Y25296408D01*
X4607829Y25338923D01*
X4675300Y25374987D01*
X4734435Y25423518D01*
X4798068Y25466036D01*
X5013964Y25681932D01*
X5013968Y25681938D01*
X6229853Y26897822D01*
X6229858Y26897828D01*
X6330110Y26998080D01*
X6389255Y27046619D01*
X6582950Y27282637D01*
X6726878Y27551908D01*
X6815509Y27844084D01*
X6819102Y27880564D01*
X7023971Y27771059D01*
X7316147Y27682428D01*
X7620000Y27652501D01*
X7696138Y27660000D01*
X10227968Y27660000D01*
X10226036Y27658068D01*
X10183519Y27594437D01*
X10134987Y27535300D01*
X10098922Y27467828D01*
X10056408Y27404200D01*
X10027123Y27333500D01*
X9991059Y27266029D01*
X9968852Y27192822D01*
X9939565Y27122118D01*
X9924635Y27047060D01*
X9902428Y26973853D01*
X9894929Y26897717D01*
X9880000Y26822662D01*
X9880000Y26746138D01*
X9872501Y26670000D01*
X9880000Y26593862D01*
X9880000Y26517338D01*
X9894929Y26442283D01*
X9902428Y26366147D01*
X9924635Y26292940D01*
X9939565Y26217882D01*
X9968852Y26147178D01*
X9991059Y26073971D01*
X10027123Y26006500D01*
X10056408Y25935800D01*
X10098922Y25872172D01*
X10134987Y25804700D01*
X10183519Y25745563D01*
X10226036Y25681932D01*
X10280152Y25627816D01*
X10328682Y25568682D01*
X10387816Y25520152D01*
X10441932Y25466036D01*
X10505563Y25423519D01*
X10564700Y25374987D01*
X10632172Y25338922D01*
X10695800Y25296408D01*
X10766500Y25267123D01*
X10833971Y25231059D01*
X10907178Y25208852D01*
X10977882Y25179565D01*
X11052940Y25164635D01*
X11126147Y25142428D01*
X11202283Y25134929D01*
X11277338Y25120000D01*
X12767968Y25120000D01*
X12766036Y25118068D01*
X12596408Y24864200D01*
X12479565Y24582118D01*
X12420000Y24282662D01*
X12420000Y24066148D01*
X12412501Y23990010D01*
X12442428Y23686157D01*
X12531059Y23393981D01*
X12674987Y23124710D01*
X12868682Y22888692D01*
X12983132Y22794766D01*
X12981932Y22793964D01*
X12927816Y22739848D01*
X12868682Y22691318D01*
X12820152Y22632184D01*
X12766036Y22578068D01*
X12723519Y22514437D01*
X12674987Y22455300D01*
X12638922Y22387828D01*
X12596408Y22324200D01*
X12567123Y22253500D01*
X12531059Y22186029D01*
X12508852Y22112822D01*
X12479565Y22042118D01*
X12464635Y21967060D01*
X12442428Y21893853D01*
X12434929Y21817717D01*
X12420000Y21742662D01*
X12420000Y21666138D01*
X12412501Y21590000D01*
X12420000Y21513862D01*
X12420000Y21437338D01*
X12434929Y21362283D01*
X12442428Y21286147D01*
X12464635Y21212940D01*
X12479565Y21137882D01*
X12508852Y21067178D01*
X12531059Y20993971D01*
X12567123Y20926500D01*
X12596408Y20855800D01*
X12638922Y20792172D01*
X12674987Y20724700D01*
X12723519Y20665563D01*
X12766036Y20601932D01*
X12820152Y20547816D01*
X12868682Y20488682D01*
X12927816Y20440152D01*
X12981932Y20386036D01*
X13045563Y20343519D01*
X13074222Y20320000D01*
X13045563Y20296481D01*
X12981932Y20253964D01*
X12927816Y20199848D01*
X12868682Y20151318D01*
X12820152Y20092184D01*
X12766036Y20038068D01*
X12723519Y19974437D01*
X12674987Y19915300D01*
X12638922Y19847828D01*
X12596408Y19784200D01*
X12567123Y19713500D01*
X12531059Y19646029D01*
X12508852Y19572822D01*
X12479565Y19502118D01*
X12464635Y19427060D01*
X12442428Y19353853D01*
X12434929Y19277717D01*
X12420000Y19202662D01*
X12420000Y19126138D01*
X12412501Y19050000D01*
X12420000Y18973862D01*
X12420000Y18897338D01*
X12434929Y18822283D01*
X12442428Y18746147D01*
X12464635Y18672940D01*
X12479565Y18597882D01*
X12508852Y18527178D01*
X12531059Y18453971D01*
X12567123Y18386500D01*
X12596408Y18315800D01*
X12638922Y18252172D01*
X12674987Y18184700D01*
X12723519Y18125563D01*
X12766036Y18061932D01*
X12820152Y18007816D01*
X12868682Y17948682D01*
X12927816Y17900152D01*
X12981932Y17846036D01*
X13045563Y17803519D01*
X13077157Y17777591D01*
X12981932Y17713964D01*
X12766036Y17498068D01*
X12596408Y17244200D01*
X12479565Y16962118D01*
X12420000Y16662662D01*
X12420000Y16357338D01*
X12479565Y16057882D01*
X12596408Y15775800D01*
X12766036Y15521932D01*
X12981932Y15306036D01*
X13080763Y15240000D01*
X12981932Y15173964D01*
X12766036Y14958068D01*
X12596408Y14704200D01*
X12479565Y14422118D01*
X12420000Y14122662D01*
X12420000Y13817338D01*
X12479565Y13517882D01*
X12596408Y13235800D01*
X12766036Y12981932D01*
X12981932Y12766036D01*
X13080763Y12700000D01*
X12981932Y12633964D01*
X12766036Y12418068D01*
X12596408Y12164200D01*
X12479565Y11882118D01*
X12420000Y11582662D01*
X12420000Y11277338D01*
X12479565Y10977882D01*
X12596408Y10695800D01*
X12766036Y10441932D01*
X12981932Y10226036D01*
X13235800Y10056408D01*
X13517882Y9939565D01*
X13817338Y9880000D01*
X14122662Y9880000D01*
X14422118Y9939565D01*
X14704200Y10056408D01*
X14958068Y10226036D01*
X15173964Y10441932D01*
X15343592Y10695800D01*
X15460435Y10977882D01*
X15520000Y11277338D01*
X15520000Y11582662D01*
X15460435Y11882118D01*
X15343592Y12164200D01*
X15173964Y12418068D01*
X14958068Y12633964D01*
X14859237Y12700000D01*
X14958068Y12766036D01*
X15173964Y12981932D01*
X15343592Y13235800D01*
X15460435Y13517882D01*
X15520000Y13817338D01*
X15520000Y14122662D01*
X15460435Y14422118D01*
X15343592Y14704200D01*
X15173964Y14958068D01*
X14958068Y15173964D01*
X14859237Y15240000D01*
X14958068Y15306036D01*
X15173964Y15521932D01*
X15343592Y15775800D01*
X15460435Y16057882D01*
X15520000Y16357338D01*
X15520000Y16662662D01*
X15460435Y16962118D01*
X15343592Y17244200D01*
X15173964Y17498068D01*
X15172032Y17500000D01*
X16614126Y17500000D01*
X16690254Y17492502D01*
X16766382Y17500000D01*
X16766392Y17500000D01*
X16994107Y17522428D01*
X17286283Y17611059D01*
X17555554Y17754987D01*
X17791572Y17948682D01*
X17840111Y18007827D01*
X22160031Y22327746D01*
X22160031Y12287062D01*
X17772970Y7900000D01*
X12707031Y7900000D01*
X9805000Y10802030D01*
X9805000Y12082214D01*
X9878068Y12131036D01*
X10093964Y12346932D01*
X10263592Y12600800D01*
X10380435Y12882882D01*
X10440000Y13182338D01*
X10440000Y13487662D01*
X10380435Y13787118D01*
X10263592Y14069200D01*
X10093964Y14323068D01*
X9878068Y14538964D01*
X9805000Y14587786D01*
X9805000Y21107662D01*
X9790071Y21182717D01*
X9782572Y21258853D01*
X9760365Y21332060D01*
X9745435Y21407118D01*
X9716148Y21477822D01*
X9693941Y21551029D01*
X9657877Y21618500D01*
X9628592Y21689200D01*
X9586078Y21752828D01*
X9550013Y21820300D01*
X9501481Y21879437D01*
X9458964Y21943068D01*
X9404848Y21997184D01*
X9356318Y22056318D01*
X9297184Y22104848D01*
X9243068Y22158964D01*
X9179437Y22201481D01*
X9120300Y22250013D01*
X9052828Y22286078D01*
X8989200Y22328592D01*
X8918500Y22357877D01*
X8851029Y22393941D01*
X8777822Y22416148D01*
X8707118Y22445435D01*
X8632060Y22460365D01*
X8558853Y22482572D01*
X8482717Y22490071D01*
X8407662Y22505000D01*
X8331138Y22505000D01*
X8255000Y22512499D01*
X8178862Y22505000D01*
X8102338Y22505000D01*
X8027282Y22490071D01*
X7951148Y22482572D01*
X7877943Y22460365D01*
X7802882Y22445435D01*
X7732175Y22416147D01*
X7658972Y22393941D01*
X7591505Y22357879D01*
X7520800Y22328592D01*
X7457168Y22286075D01*
X7389701Y22250013D01*
X7330569Y22201484D01*
X7266932Y22158964D01*
X7212812Y22104844D01*
X7153683Y22056318D01*
X7105157Y21997189D01*
X7051036Y21943068D01*
X7008515Y21879430D01*
X6959988Y21820300D01*
X6923927Y21752835D01*
X6881408Y21689200D01*
X6852119Y21618492D01*
X6816060Y21551029D01*
X6793856Y21477831D01*
X6764565Y21407118D01*
X6749633Y21332050D01*
X6727429Y21258853D01*
X6719931Y21182727D01*
X6705000Y21107662D01*
X6705000Y20802338D01*
X6705001Y20802333D01*
X6705000Y10236128D01*
X6697502Y10160000D01*
X6705000Y10083872D01*
X6705000Y10083863D01*
X6727428Y9856148D01*
X6797789Y9624200D01*
X6816059Y9563972D01*
X6959987Y9294700D01*
X7042751Y9193852D01*
X7153682Y9058682D01*
X7212827Y9010143D01*
X10915147Y5307822D01*
X10963682Y5248682D01*
X11022822Y5200147D01*
X11199700Y5054987D01*
X11468971Y4911059D01*
X11761147Y4822428D01*
X12065000Y4792501D01*
X12141138Y4800000D01*
X18338872Y4800000D01*
X18415000Y4792502D01*
X18491128Y4800000D01*
X18491138Y4800000D01*
X18718853Y4822428D01*
X19011029Y4911059D01*
X19280300Y5054987D01*
X19516318Y5248682D01*
X19564857Y5307827D01*
X20607030Y6350000D01*
X37812501Y6350000D01*
X37820000Y6273862D01*
X37820000Y6197338D01*
X37834929Y6122283D01*
X37842428Y6046147D01*
X37864635Y5972940D01*
X37879565Y5897882D01*
X37908852Y5827178D01*
X37931059Y5753971D01*
X37967123Y5686500D01*
X37996408Y5615800D01*
X38038922Y5552172D01*
X38074987Y5484700D01*
X38123519Y5425563D01*
X38166036Y5361932D01*
X38220152Y5307816D01*
X38268682Y5248682D01*
X38327816Y5200152D01*
X38381932Y5146036D01*
X38445563Y5103519D01*
X38504700Y5054987D01*
X38572172Y5018922D01*
X38635800Y4976408D01*
X38706500Y4947123D01*
X38773971Y4911059D01*
X38847178Y4888852D01*
X38917882Y4859565D01*
X38992940Y4844635D01*
X39066147Y4822428D01*
X39142283Y4814929D01*
X39217338Y4800000D01*
X45643872Y4800000D01*
X45720000Y4792502D01*
X45796128Y4800000D01*
X45796138Y4800000D01*
X46023853Y4822428D01*
X46316029Y4911059D01*
X46585300Y5054987D01*
X46821318Y5248682D01*
X46869857Y5307827D01*
X49248065Y7686034D01*
X49248068Y7686036D01*
X49302185Y7740153D01*
X49361318Y7788682D01*
X49409848Y7847816D01*
X49463964Y7901932D01*
X49506481Y7965563D01*
X49555013Y8024700D01*
X49591078Y8092172D01*
X49633592Y8155800D01*
X49662877Y8226500D01*
X49698941Y8293971D01*
X49721148Y8367178D01*
X49750435Y8437882D01*
X49765365Y8512940D01*
X49787572Y8586147D01*
X49795071Y8662283D01*
X49810000Y8737338D01*
X49810000Y8813871D01*
X49817498Y8889999D01*
X49810000Y8966127D01*
X49810000Y13327970D01*
X53058065Y16576034D01*
X53058068Y16576036D01*
X53112184Y16630152D01*
X53171318Y16678682D01*
X53219848Y16737816D01*
X53273964Y16791932D01*
X53316481Y16855563D01*
X53365013Y16914700D01*
X53401078Y16982172D01*
X53443592Y17045800D01*
X53472877Y17116500D01*
X53508941Y17183971D01*
X53531148Y17257178D01*
X53560435Y17327882D01*
X53575365Y17402940D01*
X53597572Y17476147D01*
X53605071Y17552283D01*
X53620000Y17627338D01*
X53620000Y17703862D01*
X53627499Y17780000D01*
X53620000Y17856138D01*
X53620000Y17932662D01*
X53605071Y18007717D01*
X53597572Y18083853D01*
X53575365Y18157060D01*
X53560435Y18232118D01*
X53531148Y18302822D01*
X53508941Y18376029D01*
X53472877Y18443500D01*
X53443592Y18514200D01*
X53401078Y18577828D01*
X53365013Y18645300D01*
X53316481Y18704437D01*
X53273964Y18768068D01*
X53219848Y18822184D01*
X53171318Y18881318D01*
X53112184Y18929848D01*
X53058068Y18983964D01*
X52994437Y19026481D01*
X52935300Y19075013D01*
X52867828Y19111078D01*
X52804200Y19153592D01*
X52733500Y19182877D01*
X52666029Y19218941D01*
X52592822Y19241148D01*
X52522118Y19270435D01*
X52447060Y19285365D01*
X52373853Y19307572D01*
X52297717Y19315071D01*
X52222662Y19330000D01*
X52146138Y19330000D01*
X52070000Y19337499D01*
X51993862Y19330000D01*
X51917338Y19330000D01*
X51842283Y19315071D01*
X51766147Y19307572D01*
X51692940Y19285365D01*
X51617882Y19270435D01*
X51547178Y19241148D01*
X51473971Y19218941D01*
X51406500Y19182877D01*
X51335800Y19153592D01*
X51272172Y19111078D01*
X51204700Y19075013D01*
X51145563Y19026481D01*
X51081932Y18983964D01*
X51027816Y18929848D01*
X50968682Y18881318D01*
X50920152Y18822184D01*
X50866036Y18768068D01*
X50866034Y18768065D01*
X47217823Y15119853D01*
X47158683Y15071318D01*
X47110148Y15012178D01*
X47110147Y15012177D01*
X46964987Y14835300D01*
X46821059Y14566028D01*
X46732429Y14273852D01*
X46702502Y13970000D01*
X46710001Y13893862D01*
X46710000Y9532031D01*
X45077970Y7900000D01*
X39217338Y7900000D01*
X39142283Y7885071D01*
X39066147Y7877572D01*
X38992940Y7855365D01*
X38917882Y7840435D01*
X38847178Y7811148D01*
X38773971Y7788941D01*
X38706500Y7752877D01*
X38635800Y7723592D01*
X38572172Y7681078D01*
X38504700Y7645013D01*
X38445563Y7596481D01*
X38381932Y7553964D01*
X38327816Y7499848D01*
X38268682Y7451318D01*
X38220152Y7392184D01*
X38166036Y7338068D01*
X38123519Y7274437D01*
X38074987Y7215300D01*
X38038922Y7147828D01*
X37996408Y7084200D01*
X37967123Y7013500D01*
X37931059Y6946029D01*
X37908852Y6872822D01*
X37879565Y6802118D01*
X37864635Y6727060D01*
X37842428Y6653853D01*
X37834929Y6577717D01*
X37820000Y6502662D01*
X37820000Y6426138D01*
X37812501Y6350000D01*
X20607030Y6350000D01*
X24752208Y10495177D01*
X24811348Y10543712D01*
X25005043Y10779730D01*
X25148971Y11049001D01*
X25237602Y11341177D01*
X25260030Y11568892D01*
X25260030Y11568901D01*
X25267528Y11645029D01*
X25260030Y11721157D01*
X25260030Y32903407D01*
X30252178Y37895554D01*
X30311318Y37944089D01*
X30505013Y38180107D01*
X30648941Y38449378D01*
X30737572Y38741554D01*
X30760000Y38969269D01*
X30760000Y38969278D01*
X30767498Y39045406D01*
X30760000Y39121534D01*
X30760000Y45440000D01*
X34442662Y45440000D01*
X34517717Y45454929D01*
X34593853Y45462428D01*
X34667060Y45484635D01*
X34742118Y45499565D01*
X34812822Y45528852D01*
X34886029Y45551059D01*
X34953500Y45587123D01*
X35024200Y45616408D01*
X35087828Y45658922D01*
X35155300Y45694987D01*
X35214437Y45743519D01*
X35278068Y45786036D01*
X35332184Y45840152D01*
X35391318Y45888682D01*
X35439848Y45947816D01*
X35493964Y46001932D01*
X35536481Y46065563D01*
X35585013Y46124700D01*
X35621078Y46192172D01*
X35663592Y46255800D01*
X35692877Y46326500D01*
X35728941Y46393971D01*
X35751148Y46467178D01*
X35780435Y46537882D01*
X35795365Y46612940D01*
X35817572Y46686147D01*
X35825071Y46762283D01*
X35840000Y46837338D01*
X35840000Y46913863D01*
X35847499Y46990000D01*
X35840000Y47066138D01*
X35840000Y47142662D01*
X35825071Y47217717D01*
X35817572Y47293853D01*
X35795365Y47367060D01*
X35780435Y47442118D01*
X35751148Y47512822D01*
X35728941Y47586029D01*
X35692877Y47653500D01*
X35663592Y47724200D01*
X35621078Y47787828D01*
X35585013Y47855300D01*
X35536481Y47914437D01*
X35493964Y47978068D01*
X35439848Y48032184D01*
X35391318Y48091318D01*
X35332184Y48139848D01*
X35278068Y48193964D01*
X35214437Y48236481D01*
X35155300Y48285013D01*
X35087828Y48321078D01*
X35024200Y48363592D01*
X34953500Y48392877D01*
X34886029Y48428941D01*
X34812822Y48451148D01*
X34742118Y48480435D01*
X34667060Y48495365D01*
X34593853Y48517572D01*
X34517717Y48525071D01*
X34442662Y48540000D01*
X29286138Y48540000D01*
X29210000Y48547499D01*
X29133862Y48540000D01*
X29057338Y48540000D01*
X28982283Y48525071D01*
X28906147Y48517572D01*
X28832940Y48495365D01*
X28757882Y48480435D01*
X28687178Y48451148D01*
X28613971Y48428941D01*
X28546500Y48392877D01*
X28475800Y48363592D01*
X28412172Y48321078D01*
X28344700Y48285013D01*
X28285563Y48236481D01*
X28221932Y48193964D01*
X28220000Y48192032D01*
X28220000Y54330000D01*
X29277968Y54330000D01*
X29276036Y54328068D01*
X29233519Y54264437D01*
X29184987Y54205300D01*
X29148922Y54137828D01*
X29106408Y54074200D01*
X29077123Y54003500D01*
X29041059Y53936029D01*
X29018852Y53862822D01*
X28989565Y53792118D01*
X28974635Y53717060D01*
X28952428Y53643853D01*
X28944929Y53567717D01*
X28930000Y53492662D01*
X28930000Y53416138D01*
X28922501Y53340000D01*
X28930000Y53263861D01*
X28930001Y50317667D01*
X28930000Y50317662D01*
X28930000Y50241138D01*
X28922501Y50165000D01*
X28930000Y50088862D01*
X28930000Y50012338D01*
X28944929Y49937283D01*
X28952428Y49861147D01*
X28974635Y49787940D01*
X28989565Y49712882D01*
X29018852Y49642178D01*
X29041059Y49568971D01*
X29077123Y49501500D01*
X29106408Y49430800D01*
X29148922Y49367172D01*
X29184987Y49299700D01*
X29233519Y49240563D01*
X29276036Y49176932D01*
X29330152Y49122816D01*
X29378682Y49063682D01*
X29437816Y49015152D01*
X29491932Y48961036D01*
X29555563Y48918519D01*
X29614700Y48869987D01*
X29682172Y48833922D01*
X29745800Y48791408D01*
X29816500Y48762123D01*
X29883971Y48726059D01*
X29957178Y48703852D01*
X30027882Y48674565D01*
X30102940Y48659635D01*
X30176147Y48637428D01*
X30252283Y48629929D01*
X30327338Y48615000D01*
X30403862Y48615000D01*
X30480000Y48607501D01*
X30556138Y48615000D01*
X30632662Y48615000D01*
X30707717Y48629929D01*
X30783853Y48637428D01*
X30857060Y48659635D01*
X30932118Y48674565D01*
X31002822Y48703852D01*
X31076029Y48726059D01*
X31143500Y48762123D01*
X31214200Y48791408D01*
X31277828Y48833922D01*
X31345300Y48869987D01*
X31404437Y48918519D01*
X31468068Y48961036D01*
X31522184Y49015152D01*
X31581318Y49063682D01*
X31629848Y49122816D01*
X31683964Y49176932D01*
X31726481Y49240563D01*
X31775013Y49299700D01*
X31811078Y49367172D01*
X31853592Y49430800D01*
X31882877Y49501500D01*
X31918941Y49568971D01*
X31941148Y49642178D01*
X31970435Y49712882D01*
X31985365Y49787940D01*
X32007572Y49861147D01*
X32015071Y49937283D01*
X32030000Y50012338D01*
X32030000Y50088862D01*
X32037499Y50165000D01*
X32030000Y50241138D01*
X32030000Y51790000D01*
X38252662Y51790000D01*
X38327717Y51804929D01*
X38403853Y51812428D01*
X38477060Y51834635D01*
X38552118Y51849565D01*
X38622822Y51878852D01*
X38696029Y51901059D01*
X38763500Y51937123D01*
X38834200Y51966408D01*
X38897828Y52008922D01*
X38965300Y52044987D01*
X39024437Y52093519D01*
X39088068Y52136036D01*
X39142184Y52190152D01*
X39201318Y52238682D01*
X39249848Y52297816D01*
X39303964Y52351932D01*
X39346481Y52415563D01*
X39395013Y52474700D01*
X39431078Y52542172D01*
X39473592Y52605800D01*
X39502877Y52676500D01*
X39538941Y52743971D01*
X39561148Y52817178D01*
X39590435Y52887882D01*
X39605365Y52962940D01*
X39627572Y53036147D01*
X39635071Y53112283D01*
X39650000Y53187338D01*
X39650000Y53263862D01*
X39657499Y53340000D01*
X39650000Y53416138D01*
X39650000Y53492662D01*
X39635071Y53567717D01*
X39627572Y53643853D01*
X39605365Y53717060D01*
X39590435Y53792118D01*
X39561148Y53862822D01*
X39538941Y53936029D01*
X39502877Y54003500D01*
X39473592Y54074200D01*
X39431078Y54137828D01*
X39395013Y54205300D01*
X39346481Y54264437D01*
X39303964Y54328068D01*
X39249848Y54382184D01*
X39201318Y54441318D01*
X39142184Y54489848D01*
X39088068Y54543964D01*
X39024437Y54586481D01*
X38965300Y54635013D01*
X38897828Y54671078D01*
X38834200Y54713592D01*
X38763500Y54742877D01*
X38696029Y54778941D01*
X38622822Y54801148D01*
X38552118Y54830435D01*
X38477060Y54845365D01*
X38403853Y54867572D01*
X38327717Y54875071D01*
X38252662Y54890000D01*
X31682032Y54890000D01*
X31683964Y54891932D01*
X31726481Y54955563D01*
X31775013Y55014700D01*
X31811078Y55082172D01*
X31853592Y55145800D01*
X31882877Y55216500D01*
X31918941Y55283971D01*
X31941148Y55357178D01*
X31970435Y55427882D01*
X31985365Y55502940D01*
X32007572Y55576147D01*
X32015071Y55652283D01*
X32030000Y55727338D01*
X32030000Y55803862D01*
X32037499Y55880000D01*
X32030000Y55956138D01*
X32030000Y56032662D01*
X32015071Y56107717D01*
X32007572Y56183853D01*
X31985365Y56257060D01*
X31970435Y56332118D01*
X31941148Y56402822D01*
X31918941Y56476029D01*
X31882877Y56543500D01*
X31853592Y56614200D01*
X31811078Y56677828D01*
X31775013Y56745300D01*
X31726481Y56804437D01*
X31683964Y56868068D01*
X31682032Y56870000D01*
X36982662Y56870000D01*
X37057717Y56884929D01*
X37133853Y56892428D01*
X37207060Y56914635D01*
X37282118Y56929565D01*
X37352822Y56958852D01*
X37426029Y56981059D01*
X37493500Y57017123D01*
X37564200Y57046408D01*
X37627828Y57088922D01*
X37695300Y57124987D01*
X37754437Y57173519D01*
X37818068Y57216036D01*
X37872184Y57270152D01*
X37931318Y57318682D01*
X37979848Y57377816D01*
X38033964Y57431932D01*
X38076481Y57495563D01*
X38125013Y57554700D01*
X38161078Y57622172D01*
X38203592Y57685800D01*
X38232877Y57756500D01*
X38268941Y57823971D01*
X38291148Y57897178D01*
X38320435Y57967882D01*
X38335365Y58042940D01*
X38357572Y58116147D01*
X38365071Y58192283D01*
X38380000Y58267338D01*
X38380000Y58343862D01*
X38387499Y58420000D01*
X38380000Y58496138D01*
X38380000Y58572662D01*
X38365071Y58647717D01*
X38357572Y58723853D01*
X38335365Y58797060D01*
X38320435Y58872118D01*
X38291148Y58942822D01*
X38268941Y59016029D01*
X38232877Y59083500D01*
X38203592Y59154200D01*
X38161078Y59217828D01*
X38125013Y59285300D01*
X38076481Y59344437D01*
X38033964Y59408068D01*
X37979848Y59462184D01*
X37931318Y59521318D01*
X37872184Y59569848D01*
X37818068Y59623964D01*
X37754437Y59666481D01*
X37695300Y59715013D01*
X37627828Y59751078D01*
X37564200Y59793592D01*
X37493500Y59822877D01*
X37426029Y59858941D01*
X37352822Y59881148D01*
X37282118Y59910435D01*
X37207060Y59925365D01*
X37133853Y59947572D01*
X37057717Y59955071D01*
X36982662Y59970000D01*
X30327338Y59970000D01*
X30252283Y59955071D01*
X30176147Y59947572D01*
X30102940Y59925365D01*
X30027882Y59910435D01*
X29957178Y59881148D01*
X29883971Y59858941D01*
X29816500Y59822877D01*
X29745800Y59793592D01*
X29682172Y59751078D01*
X29614700Y59715013D01*
X29555563Y59666481D01*
X29491932Y59623964D01*
X29437816Y59569848D01*
X29378682Y59521318D01*
X29330152Y59462184D01*
X29276036Y59408068D01*
X29233519Y59344437D01*
X29184987Y59285300D01*
X29148922Y59217828D01*
X29106408Y59154200D01*
X29077123Y59083500D01*
X29041059Y59016029D01*
X29018852Y58942822D01*
X28989565Y58872118D01*
X28974635Y58797060D01*
X28952428Y58723853D01*
X28944929Y58647717D01*
X28930000Y58572662D01*
X28930000Y58496138D01*
X28922501Y58420000D01*
X28930000Y58343862D01*
X28930000Y58267338D01*
X28944929Y58192283D01*
X28952428Y58116147D01*
X28974635Y58042940D01*
X28989565Y57967882D01*
X29018852Y57897178D01*
X29041059Y57823971D01*
X29077123Y57756500D01*
X29106408Y57685800D01*
X29148922Y57622172D01*
X29184987Y57554700D01*
X29233519Y57495563D01*
X29276036Y57431932D01*
X29277968Y57430000D01*
X26746138Y57430000D01*
X26670000Y57437499D01*
X26593862Y57430000D01*
X24062032Y57430000D01*
X24063964Y57431932D01*
X24106481Y57495563D01*
X24155013Y57554700D01*
X24191078Y57622172D01*
X24233592Y57685800D01*
X24262877Y57756500D01*
X24298941Y57823971D01*
X24321148Y57897178D01*
X24350435Y57967882D01*
X24365365Y58042940D01*
X24387572Y58116147D01*
X24395071Y58192283D01*
X24410000Y58267338D01*
X24410000Y58343862D01*
X24417499Y58420000D01*
X24410000Y58496138D01*
X24410000Y58572662D01*
X24395071Y58647717D01*
X24387572Y58723853D01*
X24365365Y58797060D01*
X24350435Y58872118D01*
X24321148Y58942822D01*
X24298941Y59016029D01*
X24262877Y59083500D01*
X24233592Y59154200D01*
X24191078Y59217828D01*
X24155013Y59285300D01*
X24106481Y59344437D01*
X24063964Y59408068D01*
X24009848Y59462184D01*
X23961318Y59521318D01*
X23902184Y59569848D01*
X23848068Y59623964D01*
X23784437Y59666481D01*
X23725300Y59715013D01*
X23657828Y59751078D01*
X23594200Y59793592D01*
X23523500Y59822877D01*
X23456029Y59858941D01*
X23382822Y59881148D01*
X23312118Y59910435D01*
X23237060Y59925365D01*
X23163853Y59947572D01*
X23087717Y59955071D01*
X23012662Y59970000D01*
X19692031Y59970000D01*
X15172030Y64490000D01*
X23012662Y64490000D01*
X23087717Y64504929D01*
X23163853Y64512428D01*
X23237060Y64534635D01*
X23312118Y64549565D01*
X23382822Y64578852D01*
X23456029Y64601059D01*
X23523500Y64637123D01*
X23594200Y64666408D01*
X23657828Y64708922D01*
X23725300Y64744987D01*
X23784437Y64793519D01*
X23848068Y64836036D01*
X23902184Y64890152D01*
X23961318Y64938682D01*
X24009848Y64997816D01*
X24063964Y65051932D01*
X24106481Y65115563D01*
X24155013Y65174700D01*
X24191078Y65242172D01*
X24233592Y65305800D01*
X24262877Y65376500D01*
X24298941Y65443971D01*
X24321148Y65517178D01*
X24350435Y65587882D01*
X24365365Y65662940D01*
X24387572Y65736147D01*
X24395071Y65812283D01*
X24410000Y65887338D01*
X24410000Y65963862D01*
X24417499Y66040000D01*
X24410000Y66116138D01*
X24410000Y66192662D01*
X24395071Y66267717D01*
X24387572Y66343853D01*
X24365365Y66417060D01*
X24350435Y66492118D01*
X24321148Y66562822D01*
X24298941Y66636029D01*
X24262877Y66703500D01*
X24233592Y66774200D01*
X24191078Y66837828D01*
X24155013Y66905300D01*
X24106481Y66964437D01*
X24063964Y67028068D01*
X24062032Y67030000D01*
X29277968Y67030000D01*
X29276036Y67028068D01*
X29233519Y66964437D01*
X29184987Y66905300D01*
X29148922Y66837828D01*
X29106408Y66774200D01*
X29077123Y66703500D01*
X29041059Y66636029D01*
X29018852Y66562822D01*
X28989565Y66492118D01*
X28974635Y66417060D01*
X28952428Y66343853D01*
X28944929Y66267717D01*
X28930000Y66192662D01*
X28930000Y66116138D01*
X28922501Y66040000D01*
X28930000Y65963862D01*
X28930000Y65887338D01*
X28944929Y65812283D01*
X28952428Y65736147D01*
X28974635Y65662940D01*
X28989565Y65587882D01*
X29018852Y65517178D01*
X29041059Y65443971D01*
X29077123Y65376500D01*
X29106408Y65305800D01*
X29148922Y65242172D01*
X29184987Y65174700D01*
X29233519Y65115563D01*
X29276036Y65051932D01*
X29330152Y64997816D01*
X29378682Y64938682D01*
X29437816Y64890152D01*
X29491932Y64836036D01*
X29555563Y64793519D01*
X29614700Y64744987D01*
X29682172Y64708922D01*
X29745800Y64666408D01*
X29816500Y64637123D01*
X29883971Y64601059D01*
X29957178Y64578852D01*
X30027882Y64549565D01*
X30102940Y64534635D01*
X30176147Y64512428D01*
X30252283Y64504929D01*
X30327338Y64490000D01*
X41977968Y64490000D01*
X41976036Y64488068D01*
X41933516Y64424433D01*
X41884987Y64365299D01*
X41848925Y64297832D01*
X41806408Y64234200D01*
X41777121Y64163495D01*
X41741059Y64096028D01*
X41718853Y64022825D01*
X41689565Y63952118D01*
X41674635Y63877057D01*
X41652428Y63803852D01*
X41644929Y63727718D01*
X41630000Y63652662D01*
X41630000Y63576137D01*
X41630001Y58572667D01*
X41630000Y58572662D01*
X41630000Y58496138D01*
X41622501Y58420000D01*
X41630000Y58343862D01*
X41630000Y58267338D01*
X41644929Y58192283D01*
X41652428Y58116147D01*
X41674635Y58042940D01*
X41689565Y57967882D01*
X41718852Y57897178D01*
X41741059Y57823971D01*
X41777123Y57756500D01*
X41806408Y57685800D01*
X41848922Y57622172D01*
X41884987Y57554700D01*
X41933519Y57495563D01*
X41976036Y57431932D01*
X42030152Y57377816D01*
X42078682Y57318682D01*
X42137816Y57270152D01*
X42191932Y57216036D01*
X42255563Y57173519D01*
X42314700Y57124987D01*
X42382172Y57088922D01*
X42445800Y57046408D01*
X42516500Y57017123D01*
X42583971Y56981059D01*
X42657178Y56958852D01*
X42727882Y56929565D01*
X42802940Y56914635D01*
X42876147Y56892428D01*
X42952283Y56884929D01*
X43027338Y56870000D01*
X43103862Y56870000D01*
X43180000Y56862501D01*
X43256138Y56870000D01*
X43332662Y56870000D01*
X43407717Y56884929D01*
X43483853Y56892428D01*
X43557060Y56914635D01*
X43632118Y56929565D01*
X43702822Y56958852D01*
X43776029Y56981059D01*
X43843500Y57017123D01*
X43914200Y57046408D01*
X43977828Y57088922D01*
X44045300Y57124987D01*
X44104437Y57173519D01*
X44168068Y57216036D01*
X44222184Y57270152D01*
X44281318Y57318682D01*
X44329848Y57377816D01*
X44383964Y57431932D01*
X44426481Y57495563D01*
X44475013Y57554700D01*
X44511078Y57622172D01*
X44553592Y57685800D01*
X44582877Y57756500D01*
X44618941Y57823971D01*
X44641148Y57897178D01*
X44670435Y57967882D01*
X44685365Y58042940D01*
X44707572Y58116147D01*
X44715071Y58192283D01*
X44730000Y58267338D01*
X44730000Y58343862D01*
X44737499Y58420000D01*
X44730000Y58496138D01*
X44730000Y63652662D01*
X44715071Y63727717D01*
X44707572Y63803853D01*
X44685365Y63877060D01*
X44670435Y63952118D01*
X44641148Y64022822D01*
X44618941Y64096029D01*
X44582877Y64163500D01*
X44553592Y64234200D01*
X44511078Y64297828D01*
X44475013Y64365300D01*
X44426481Y64424437D01*
X44383964Y64488068D01*
X44329848Y64542184D01*
X44281318Y64601318D01*
X44222185Y64649847D01*
X44168068Y64703964D01*
X44104433Y64746484D01*
X44075778Y64770000D01*
X44104437Y64793519D01*
X44168068Y64836036D01*
X44222184Y64890152D01*
X44281318Y64938682D01*
X44329848Y64997816D01*
X44383964Y65051932D01*
X44426481Y65115563D01*
X44475013Y65174700D01*
X44511078Y65242172D01*
X44553592Y65305800D01*
X44582877Y65376500D01*
X44618941Y65443971D01*
X44641148Y65517178D01*
X44670435Y65587882D01*
X44685365Y65662940D01*
X44707572Y65736147D01*
X44715071Y65812283D01*
X44730000Y65887338D01*
X44730000Y65963862D01*
X44737499Y66040000D01*
X44730000Y66116138D01*
X44730000Y66192662D01*
X44715071Y66267717D01*
X44707572Y66343853D01*
X44685365Y66417060D01*
X44670435Y66492118D01*
X44641148Y66562822D01*
X44618941Y66636029D01*
X44582877Y66703500D01*
X44553592Y66774200D01*
X44511078Y66837828D01*
X44475013Y66905300D01*
X44426481Y66964437D01*
X44383964Y67028068D01*
X44329848Y67082184D01*
X44281318Y67141318D01*
X44222184Y67189848D01*
X44168068Y67243964D01*
X44104437Y67286481D01*
X44045300Y67335013D01*
X43977828Y67371078D01*
X43914200Y67413592D01*
X43843500Y67442877D01*
X43776029Y67478941D01*
X43702822Y67501148D01*
X43632118Y67530435D01*
X43557060Y67545365D01*
X43483853Y67567572D01*
X43407717Y67575071D01*
X43332662Y67590000D01*
X31682032Y67590000D01*
X31683964Y67591932D01*
X31726481Y67655563D01*
X31775013Y67714700D01*
X31811078Y67782172D01*
X31853592Y67845800D01*
X31882877Y67916500D01*
X31918941Y67983971D01*
X31941148Y68057178D01*
X31970435Y68127882D01*
X31985365Y68202940D01*
X32007572Y68276147D01*
X32015071Y68352283D01*
X32030000Y68427338D01*
X32030000Y68503862D01*
X32037499Y68580000D01*
X32030000Y68656138D01*
X32030000Y68732662D01*
X32015071Y68807717D01*
X32007572Y68883853D01*
X31985365Y68957060D01*
X31970435Y69032118D01*
X31941148Y69102822D01*
X31918941Y69176029D01*
X31882877Y69243500D01*
X31853592Y69314200D01*
X31811078Y69377828D01*
X31775013Y69445300D01*
X31726481Y69504437D01*
X31683964Y69568068D01*
X31682032Y69570000D01*
X58412970Y69570000D01*
X60680000Y67302969D01*
X60680001Y66192666D01*
X60680000Y66192662D01*
X60680000Y65887338D01*
X60694931Y65812273D01*
X60702429Y65736147D01*
X60724633Y65662950D01*
X60739565Y65587882D01*
X60768856Y65517169D01*
X60791060Y65443971D01*
X60827119Y65376508D01*
X60856408Y65305800D01*
X60898927Y65242165D01*
X60934988Y65174700D01*
X60983515Y65115570D01*
X61026036Y65051932D01*
X61080157Y64997811D01*
X61128683Y64938682D01*
X61187812Y64890156D01*
X61241932Y64836036D01*
X61305569Y64793516D01*
X61337158Y64767591D01*
X61241932Y64703964D01*
X61237968Y64700000D01*
X61018946Y64700000D01*
X60959999Y64705806D01*
X60901052Y64700000D01*
X60901050Y64700000D01*
X60724759Y64682637D01*
X60498558Y64614019D01*
X60290090Y64502591D01*
X60107366Y64352634D01*
X60069784Y64306840D01*
X58393156Y62630212D01*
X58347368Y62592635D01*
X58309791Y62546847D01*
X58309789Y62546845D01*
X58197410Y62409911D01*
X58085982Y62201442D01*
X58017365Y61975241D01*
X57994195Y61740001D01*
X58000002Y61681044D01*
X58000001Y41936217D01*
X57884200Y42013592D01*
X57602118Y42130435D01*
X57302662Y42190000D01*
X57086129Y42190000D01*
X57010001Y42197498D01*
X56933873Y42190000D01*
X49810000Y42190000D01*
X49810000Y43103873D01*
X49817498Y43180001D01*
X49810000Y43256129D01*
X49810000Y43256138D01*
X49787572Y43483853D01*
X49698941Y43776029D01*
X49555013Y44045300D01*
X49361318Y44281318D01*
X49302178Y44329853D01*
X48139857Y45492173D01*
X48091318Y45551318D01*
X47855300Y45745013D01*
X47586029Y45888941D01*
X47293853Y45977572D01*
X47066138Y46000000D01*
X47066128Y46000000D01*
X46990000Y46007498D01*
X46913872Y46000000D01*
X43027338Y46000000D01*
X42952283Y45985071D01*
X42876147Y45977572D01*
X42802940Y45955365D01*
X42727882Y45940435D01*
X42657178Y45911148D01*
X42583971Y45888941D01*
X42516500Y45852877D01*
X42445800Y45823592D01*
X42382172Y45781078D01*
X42314700Y45745013D01*
X42255563Y45696481D01*
X42191932Y45653964D01*
X42137816Y45599848D01*
X42078682Y45551318D01*
X42030152Y45492184D01*
X41976036Y45438068D01*
X41933519Y45374437D01*
X41884987Y45315300D01*
X41848922Y45247828D01*
X41806408Y45184200D01*
X41777123Y45113500D01*
X41741059Y45046029D01*
X41718852Y44972822D01*
X41689565Y44902118D01*
X41674635Y44827060D01*
X41652428Y44753853D01*
X41644929Y44677717D01*
X41630000Y44602662D01*
X41630000Y44526138D01*
X41622501Y44450000D01*
X41630000Y44373862D01*
X41630000Y44297338D01*
X41644929Y44222283D01*
X41652428Y44146147D01*
X41674635Y44072940D01*
X41689565Y43997882D01*
X41718852Y43927178D01*
X41741059Y43853971D01*
X41777123Y43786500D01*
X41806408Y43715800D01*
X41848922Y43652172D01*
X41884987Y43584700D01*
X41933519Y43525563D01*
X41976036Y43461932D01*
X42030152Y43407816D01*
X42078682Y43348682D01*
X42137816Y43300152D01*
X42191932Y43246036D01*
X42255563Y43203519D01*
X42314700Y43154987D01*
X42382172Y43118922D01*
X42445800Y43076408D01*
X42516500Y43047123D01*
X42583971Y43011059D01*
X42657178Y42988852D01*
X42727882Y42959565D01*
X42802940Y42944635D01*
X42876147Y42922428D01*
X42952283Y42914929D01*
X43027338Y42900000D01*
X46347970Y42900000D01*
X46710001Y42537969D01*
X46710000Y40792662D01*
X46710000Y40716138D01*
X46702501Y40640000D01*
X46710000Y40563863D01*
X46710000Y40487338D01*
X46724929Y40412283D01*
X46732428Y40336147D01*
X46754635Y40262940D01*
X46769565Y40187882D01*
X46798852Y40117178D01*
X46821059Y40043971D01*
X46857123Y39976500D01*
X46886408Y39905800D01*
X46928922Y39842172D01*
X46964987Y39774700D01*
X47013519Y39715563D01*
X47056036Y39651932D01*
X47110152Y39597816D01*
X47158469Y39538941D01*
X47158682Y39538682D01*
X47217816Y39490152D01*
X47271932Y39436036D01*
X47335563Y39393519D01*
X47394700Y39344987D01*
X47462172Y39308922D01*
X47525800Y39266408D01*
X47596500Y39237123D01*
X47663971Y39201059D01*
X47737178Y39178852D01*
X47807882Y39149565D01*
X47882940Y39134635D01*
X47956147Y39112428D01*
X48032283Y39104929D01*
X48107338Y39090000D01*
X48183862Y39090000D01*
X48260000Y39082501D01*
X48336138Y39090000D01*
X56499830Y39090000D01*
X56553971Y39061061D01*
X56846147Y38972430D01*
X57149999Y38942503D01*
X57453852Y38972430D01*
X57746028Y39061061D01*
X58000002Y39196812D01*
X58000001Y36863190D01*
X57947828Y36891078D01*
X57884200Y36933592D01*
X57813500Y36962877D01*
X57746029Y36998941D01*
X57672822Y37021148D01*
X57602118Y37050435D01*
X57527060Y37065365D01*
X57453853Y37087572D01*
X57377717Y37095071D01*
X57302662Y37110000D01*
X43320001Y37110000D01*
X43320001Y38449506D01*
X43327499Y38525634D01*
X43320001Y38601762D01*
X43320001Y38601771D01*
X43297573Y38829486D01*
X43208942Y39121662D01*
X43065014Y39390933D01*
X42871319Y39626951D01*
X42812180Y39675485D01*
X42075491Y40412173D01*
X42026952Y40471318D01*
X41790934Y40665013D01*
X41521663Y40808941D01*
X41229487Y40897572D01*
X41001772Y40920000D01*
X41001762Y40920000D01*
X40925634Y40927498D01*
X40849506Y40920000D01*
X40572032Y40920000D01*
X40573964Y40921932D01*
X40743592Y41175800D01*
X40860435Y41457882D01*
X40920000Y41757338D01*
X40920000Y42062662D01*
X40860435Y42362118D01*
X40743592Y42644200D01*
X40573964Y42898068D01*
X40358068Y43113964D01*
X40104200Y43283592D01*
X39822118Y43400435D01*
X39522662Y43460000D01*
X39217338Y43460000D01*
X38917882Y43400435D01*
X38635800Y43283592D01*
X38381932Y43113964D01*
X38166036Y42898068D01*
X37996408Y42644200D01*
X37879565Y42362118D01*
X37820000Y42062662D01*
X37820000Y41757338D01*
X37879565Y41457882D01*
X37996408Y41175800D01*
X38166036Y40921932D01*
X38381932Y40706036D01*
X38477157Y40642409D01*
X38445563Y40616481D01*
X38381932Y40573964D01*
X38327816Y40519848D01*
X38268682Y40471318D01*
X38220152Y40412184D01*
X38166036Y40358068D01*
X38123519Y40294437D01*
X38074987Y40235300D01*
X38038922Y40167828D01*
X37996408Y40104200D01*
X37967123Y40033500D01*
X37931059Y39966029D01*
X37908852Y39892822D01*
X37879565Y39822118D01*
X37864635Y39747060D01*
X37842428Y39673853D01*
X37834929Y39597717D01*
X37820000Y39522662D01*
X37820000Y39446138D01*
X37812501Y39370000D01*
X37820000Y39293862D01*
X37820000Y39217338D01*
X37834929Y39142283D01*
X37842428Y39066147D01*
X37864635Y38992940D01*
X37879565Y38917882D01*
X37908852Y38847178D01*
X37931059Y38773971D01*
X37967123Y38706500D01*
X37996408Y38635800D01*
X38038922Y38572172D01*
X38074987Y38504700D01*
X38123519Y38445563D01*
X38166036Y38381932D01*
X38220152Y38327816D01*
X38268682Y38268682D01*
X38327816Y38220152D01*
X38381932Y38166036D01*
X38445563Y38123519D01*
X38477157Y38097591D01*
X38381932Y38033964D01*
X38166036Y37818068D01*
X37996408Y37564200D01*
X37879565Y37282118D01*
X37820000Y36982662D01*
X37820000Y36677338D01*
X37879565Y36377882D01*
X37996408Y36095800D01*
X38166036Y35841932D01*
X38381932Y35626036D01*
X38480763Y35560000D01*
X38381932Y35493964D01*
X38166036Y35278068D01*
X37996408Y35024200D01*
X37879565Y34742118D01*
X37820000Y34442662D01*
X37820000Y34137338D01*
X37879565Y33837882D01*
X37996408Y33555800D01*
X38166036Y33301932D01*
X38381932Y33086036D01*
X38477157Y33022409D01*
X38445563Y32996481D01*
X38381932Y32953964D01*
X38327816Y32899848D01*
X38268682Y32851318D01*
X38220152Y32792184D01*
X38166036Y32738068D01*
X38123519Y32674437D01*
X38074987Y32615300D01*
X38038922Y32547828D01*
X37996408Y32484200D01*
X37967123Y32413500D01*
X37931059Y32346029D01*
X37908852Y32272822D01*
X37879565Y32202118D01*
X37864635Y32127060D01*
X37842428Y32053853D01*
X37834929Y31977717D01*
X37820000Y31902662D01*
X37820000Y31826138D01*
X37812501Y31750000D01*
X37820000Y31673862D01*
X37820000Y31597338D01*
X37834929Y31522283D01*
X37842428Y31446147D01*
X37864635Y31372940D01*
X37879565Y31297882D01*
X37908852Y31227178D01*
X37931059Y31153971D01*
X37967123Y31086500D01*
X37996408Y31015800D01*
X38038922Y30952172D01*
X38074987Y30884700D01*
X38123519Y30825563D01*
X38166036Y30761932D01*
X38220152Y30707816D01*
X38268682Y30648682D01*
X38327816Y30600152D01*
X38381932Y30546036D01*
X38445563Y30503519D01*
X38477157Y30477591D01*
X38381932Y30413964D01*
X38166036Y30198068D01*
X37996408Y29944200D01*
X37879565Y29662118D01*
X37820000Y29362662D01*
X37820000Y29057338D01*
X37879565Y28757882D01*
X37996408Y28475800D01*
X38166036Y28221932D01*
X38381932Y28006036D01*
X38480763Y27940000D01*
X38381932Y27873964D01*
X38166036Y27658068D01*
X37996408Y27404200D01*
X37879565Y27122118D01*
X37820000Y26822662D01*
X37820000Y26517338D01*
X37879565Y26217882D01*
X37996408Y25935800D01*
X38166036Y25681932D01*
X38381932Y25466036D01*
X38480763Y25400000D01*
X38381932Y25333964D01*
X38166036Y25118068D01*
X37996408Y24864200D01*
X37879565Y24582118D01*
X37820000Y24282662D01*
X37820000Y23977338D01*
X37879565Y23677882D01*
X37996408Y23395800D01*
X38166036Y23141932D01*
X38381932Y22926036D01*
X38477157Y22862409D01*
X38445563Y22836481D01*
X38381932Y22793964D01*
X38327816Y22739848D01*
X38268682Y22691318D01*
X38220152Y22632184D01*
X38166036Y22578068D01*
X38123519Y22514437D01*
X38074987Y22455300D01*
X38038922Y22387828D01*
X37996408Y22324200D01*
X37967123Y22253500D01*
X37931059Y22186029D01*
X37908852Y22112822D01*
X37879565Y22042118D01*
X37864635Y21967060D01*
X37842428Y21893853D01*
X37834929Y21817717D01*
X37820000Y21742662D01*
X37820000Y21666138D01*
X37812501Y21590000D01*
X37820000Y21513862D01*
X37820000Y21437338D01*
X37834929Y21362283D01*
X37842428Y21286147D01*
X37864635Y21212940D01*
X37879565Y21137882D01*
X37908852Y21067178D01*
X37931059Y20993971D01*
X37967123Y20926500D01*
X37996408Y20855800D01*
X38038922Y20792172D01*
X38074987Y20724700D01*
X38123519Y20665563D01*
X38166036Y20601932D01*
X38220152Y20547816D01*
X38268682Y20488682D01*
X38327816Y20440152D01*
X38381932Y20386036D01*
X38445563Y20343519D01*
X38474222Y20320000D01*
X38445563Y20296481D01*
X38381932Y20253964D01*
X38327816Y20199848D01*
X38268682Y20151318D01*
X38220152Y20092184D01*
X38166036Y20038068D01*
X38123519Y19974437D01*
X38074987Y19915300D01*
X38038922Y19847828D01*
X37996408Y19784200D01*
X37967123Y19713500D01*
X37931059Y19646029D01*
X37908852Y19572822D01*
X37879565Y19502118D01*
X37864635Y19427060D01*
X37842428Y19353853D01*
X37834929Y19277717D01*
X37820000Y19202662D01*
X37820000Y19126138D01*
X37812501Y19050000D01*
X37820000Y18973862D01*
X37820000Y18897338D01*
X37834929Y18822283D01*
X37842428Y18746147D01*
X37864635Y18672940D01*
X37879565Y18597882D01*
X37908852Y18527178D01*
X37931059Y18453971D01*
X37967123Y18386500D01*
X37996408Y18315800D01*
X38038922Y18252172D01*
X38074987Y18184700D01*
X38123519Y18125563D01*
X38166036Y18061932D01*
X38220152Y18007816D01*
X38268682Y17948682D01*
X38327816Y17900152D01*
X38381932Y17846036D01*
X38445563Y17803519D01*
X38477157Y17777591D01*
X38381932Y17713964D01*
X38166036Y17498068D01*
X37996408Y17244200D01*
X37879565Y16962118D01*
X37820000Y16662662D01*
X37820000Y16357338D01*
X37879565Y16057882D01*
X37996408Y15775800D01*
X38166036Y15521932D01*
X38381932Y15306036D01*
X38480763Y15240000D01*
X38381932Y15173964D01*
X38166036Y14958068D01*
X37996408Y14704200D01*
X37879565Y14422118D01*
X37820000Y14122662D01*
X37820000Y13817338D01*
X37879565Y13517882D01*
X37996408Y13235800D01*
X38166036Y12981932D01*
X38381932Y12766036D01*
X38477157Y12702409D01*
X38445563Y12676481D01*
X38381932Y12633964D01*
X38327816Y12579848D01*
X38268682Y12531318D01*
X38220152Y12472184D01*
X38166036Y12418068D01*
X38123519Y12354437D01*
X38074987Y12295300D01*
X38038922Y12227828D01*
X37996408Y12164200D01*
X37967123Y12093500D01*
X37931059Y12026029D01*
X37908852Y11952822D01*
X37879565Y11882118D01*
X37864635Y11807060D01*
X37842428Y11733853D01*
X37834929Y11657717D01*
X37820000Y11582662D01*
X37820000Y11506138D01*
X37812501Y11430000D01*
X37820000Y11353862D01*
X37820000Y11277338D01*
X37834929Y11202283D01*
X37842428Y11126147D01*
X37864635Y11052940D01*
X37879565Y10977882D01*
X37908852Y10907178D01*
X37931059Y10833971D01*
X37967123Y10766500D01*
X37996408Y10695800D01*
X38038922Y10632172D01*
X38074987Y10564700D01*
X38123519Y10505563D01*
X38166036Y10441932D01*
X38220152Y10387816D01*
X38268682Y10328682D01*
X38327816Y10280152D01*
X38381932Y10226036D01*
X38445563Y10183519D01*
X38504700Y10134987D01*
X38572172Y10098922D01*
X38635800Y10056408D01*
X38706500Y10027123D01*
X38773971Y9991059D01*
X38847178Y9968852D01*
X38917882Y9939565D01*
X38992940Y9924635D01*
X39066147Y9902428D01*
X39142283Y9894929D01*
X39217338Y9880000D01*
X40849506Y9880000D01*
X40925634Y9872502D01*
X41001762Y9880000D01*
X41001772Y9880000D01*
X41229487Y9902428D01*
X41521663Y9991059D01*
X41790934Y10134987D01*
X42026952Y10328682D01*
X42075491Y10387827D01*
X42812180Y11124515D01*
X42871319Y11173049D01*
X43065014Y11409067D01*
X43208942Y11678338D01*
X43297573Y11970514D01*
X43320001Y12198229D01*
X43320001Y12198238D01*
X43327499Y12274366D01*
X43320001Y12350494D01*
X43320001Y15099990D01*
X43891138Y15099990D01*
X44118853Y15122418D01*
X44411029Y15211049D01*
X44680300Y15354977D01*
X44916318Y15548672D01*
X45094044Y15765231D01*
X45119910Y15779057D01*
X45256844Y15891436D01*
X55735378Y26369970D01*
X59348528Y26369970D01*
X59407475Y26364164D01*
X59466422Y26369970D01*
X59466425Y26369970D01*
X59642716Y26387333D01*
X59868917Y26455951D01*
X60077385Y26567379D01*
X60260109Y26717336D01*
X60297695Y26763135D01*
X60406467Y26871907D01*
X63990000Y26871907D01*
X63990000Y26468093D01*
X64068780Y26072037D01*
X64223314Y25698961D01*
X64447661Y25363201D01*
X64733201Y25077661D01*
X65068961Y24853314D01*
X65442037Y24698780D01*
X65838093Y24620000D01*
X66241907Y24620000D01*
X66637963Y24698780D01*
X67011039Y24853314D01*
X67346799Y25077661D01*
X67632339Y25363201D01*
X67856686Y25698961D01*
X68011220Y26072037D01*
X68090000Y26468093D01*
X68090000Y26871907D01*
X68011220Y27267963D01*
X67856686Y27641039D01*
X67632339Y27976799D01*
X67346799Y28262339D01*
X67011039Y28486686D01*
X66637963Y28641220D01*
X66241907Y28720000D01*
X65838093Y28720000D01*
X65442037Y28641220D01*
X65068961Y28486686D01*
X64733201Y28262339D01*
X64447661Y27976799D01*
X64223314Y27641039D01*
X64068780Y27267963D01*
X63990000Y26871907D01*
X60406467Y26871907D01*
X62724559Y29189999D01*
X64727054Y29189999D01*
X64786001Y29184193D01*
X64844948Y29189999D01*
X64844951Y29189999D01*
X65021242Y29207362D01*
X65247443Y29275980D01*
X65455911Y29387408D01*
X65638635Y29537365D01*
X65676217Y29583159D01*
X66846840Y30753782D01*
X66892634Y30791364D01*
X67042591Y30974088D01*
X67154019Y31182556D01*
X67222637Y31408757D01*
X67240000Y31585048D01*
X67240000Y31585050D01*
X67245806Y31643997D01*
X67240000Y31702944D01*
X67240000Y32607968D01*
X67243964Y32611932D01*
X67413592Y32865800D01*
X67530435Y33147882D01*
X67590000Y33447338D01*
X67590000Y33752662D01*
X67530435Y34052118D01*
X67413592Y34334200D01*
X67243964Y34588068D01*
X67028068Y34803964D01*
X66774200Y34973592D01*
X66492118Y35090435D01*
X66192662Y35150000D01*
X65887338Y35150000D01*
X65587882Y35090435D01*
X65305800Y34973592D01*
X65051932Y34803964D01*
X64836036Y34588068D01*
X64666408Y34334200D01*
X64549565Y34052118D01*
X64490000Y33752662D01*
X64490000Y33644372D01*
X64272949Y33734277D01*
X63992813Y33790000D01*
X63707187Y33790000D01*
X63550000Y33758733D01*
X63392813Y33790000D01*
X63107187Y33790000D01*
X62827051Y33734277D01*
X62563167Y33624973D01*
X62325679Y33466289D01*
X62160000Y33300610D01*
X62160000Y38389390D01*
X62325679Y38223711D01*
X62563167Y38065027D01*
X62827051Y37955723D01*
X63107187Y37900000D01*
X63392813Y37900000D01*
X63550000Y37931267D01*
X63707187Y37900000D01*
X63992813Y37900000D01*
X64272949Y37955723D01*
X64536833Y38065027D01*
X64774321Y38223711D01*
X64976289Y38425679D01*
X65134973Y38663167D01*
X65244277Y38927051D01*
X65300000Y39207187D01*
X65300000Y39492813D01*
X65244277Y39772949D01*
X65134973Y40036833D01*
X64976289Y40274321D01*
X64774321Y40476289D01*
X64536833Y40634973D01*
X64272949Y40744277D01*
X63992813Y40800000D01*
X63707187Y40800000D01*
X63550000Y40768733D01*
X63392813Y40800000D01*
X63107187Y40800000D01*
X62827051Y40744277D01*
X62563167Y40634973D01*
X62325679Y40476289D01*
X62160000Y40310610D01*
X62160000Y42809390D01*
X62325679Y42643711D01*
X62563167Y42485027D01*
X62827051Y42375723D01*
X63107187Y42320000D01*
X63392813Y42320000D01*
X63550000Y42351267D01*
X63707187Y42320000D01*
X63992813Y42320000D01*
X64272949Y42375723D01*
X64536833Y42485027D01*
X64774321Y42643711D01*
X64976289Y42845679D01*
X65134973Y43083167D01*
X65244277Y43347051D01*
X65300000Y43627187D01*
X65300000Y43660283D01*
X65305800Y43656408D01*
X65587882Y43539565D01*
X65887338Y43480000D01*
X66192662Y43480000D01*
X66492118Y43539565D01*
X66774200Y43656408D01*
X67028068Y43826036D01*
X67243964Y44041932D01*
X67413592Y44295800D01*
X67530435Y44577882D01*
X67590000Y44877338D01*
X67590000Y45182662D01*
X67530435Y45482118D01*
X67413592Y45764200D01*
X67243964Y46018068D01*
X67185993Y46076039D01*
X67154019Y46181442D01*
X67042591Y46389910D01*
X66892634Y46572634D01*
X66709910Y46722591D01*
X66501442Y46834019D01*
X66275241Y46902637D01*
X66098950Y46920000D01*
X62372944Y46920000D01*
X62313997Y46925806D01*
X62255050Y46920000D01*
X62255048Y46920000D01*
X62078757Y46902637D01*
X61852556Y46834019D01*
X61644088Y46722591D01*
X61461364Y46572634D01*
X61423782Y46526840D01*
X60400001Y45503059D01*
X60400001Y50922813D01*
X61800000Y50922813D01*
X61800000Y50637187D01*
X61855723Y50357051D01*
X61965027Y50093167D01*
X62123711Y49855679D01*
X62325679Y49653711D01*
X62563167Y49495027D01*
X62827051Y49385723D01*
X63107187Y49330000D01*
X63392813Y49330000D01*
X63550000Y49361267D01*
X63707187Y49330000D01*
X63992813Y49330000D01*
X64272949Y49385723D01*
X64536833Y49495027D01*
X64774321Y49653711D01*
X64976289Y49855679D01*
X65134973Y50093167D01*
X65244277Y50357051D01*
X65300000Y50637187D01*
X65300000Y50922813D01*
X65244277Y51202949D01*
X65134973Y51466833D01*
X64976289Y51704321D01*
X64774321Y51906289D01*
X64536833Y52064973D01*
X64272949Y52174277D01*
X63992813Y52230000D01*
X63707187Y52230000D01*
X63550000Y52198733D01*
X63392813Y52230000D01*
X63107187Y52230000D01*
X62827051Y52174277D01*
X62563167Y52064973D01*
X62325679Y51906289D01*
X62123711Y51704321D01*
X61965027Y51466833D01*
X61855723Y51202949D01*
X61800000Y50922813D01*
X60400001Y50922813D01*
X60400001Y61242945D01*
X61368514Y62211458D01*
X61495800Y62126408D01*
X61777882Y62009565D01*
X62077338Y61950000D01*
X62382662Y61950000D01*
X62682118Y62009565D01*
X62964200Y62126408D01*
X63218068Y62296036D01*
X63433964Y62511932D01*
X63603592Y62765800D01*
X63720435Y63047882D01*
X63780000Y63347338D01*
X63780000Y63652662D01*
X63720435Y63952118D01*
X63603592Y64234200D01*
X63433964Y64488068D01*
X63218068Y64703964D01*
X63122843Y64767591D01*
X63154437Y64793519D01*
X63218068Y64836036D01*
X63272184Y64890152D01*
X63331318Y64938682D01*
X63379848Y64997816D01*
X63433964Y65051932D01*
X63476481Y65115563D01*
X63525013Y65174700D01*
X63561078Y65242172D01*
X63603592Y65305800D01*
X63632877Y65376500D01*
X63668941Y65443971D01*
X63691148Y65517178D01*
X63720435Y65587882D01*
X63735365Y65662940D01*
X63757572Y65736147D01*
X63765071Y65812283D01*
X63780000Y65887338D01*
X63780000Y67868873D01*
X63787498Y67945001D01*
X63780000Y68021129D01*
X63780000Y68021138D01*
X63757572Y68248853D01*
X63668941Y68541029D01*
X63525013Y68810300D01*
X63331318Y69046318D01*
X63272179Y69094852D01*
X60204857Y72162173D01*
X60156318Y72221318D01*
X59920300Y72415013D01*
X59651029Y72558941D01*
X59542356Y72591907D01*
X63990000Y72591907D01*
X63990000Y72188093D01*
X64068780Y71792037D01*
X64223314Y71418961D01*
X64447661Y71083201D01*
X64733201Y70797661D01*
X65068961Y70573314D01*
X65442037Y70418780D01*
X65838093Y70340000D01*
X66241907Y70340000D01*
X66637963Y70418780D01*
X67011039Y70573314D01*
X67346799Y70797661D01*
X67632339Y71083201D01*
X67856686Y71418961D01*
X68011220Y71792037D01*
X68090000Y72188093D01*
X68090000Y72591907D01*
X68011220Y72987963D01*
X67856686Y73361039D01*
X67632339Y73696799D01*
X67346799Y73982339D01*
X67011039Y74206686D01*
X66637963Y74361220D01*
X66241907Y74440000D01*
X65838093Y74440000D01*
X65442037Y74361220D01*
X65068961Y74206686D01*
X64733201Y73982339D01*
X64447661Y73696799D01*
X64223314Y73361039D01*
X64068780Y72987963D01*
X63990000Y72591907D01*
X59542356Y72591907D01*
X59358853Y72647572D01*
X59131138Y72670000D01*
X59131128Y72670000D01*
X59055000Y72677498D01*
X58978872Y72670000D01*
X30327338Y72670000D01*
X30252283Y72655071D01*
X30176147Y72647572D01*
X30102940Y72625365D01*
X30027882Y72610435D01*
X29957178Y72581148D01*
X29883971Y72558941D01*
X29816500Y72522877D01*
X29745800Y72493592D01*
X29682172Y72451078D01*
X29614700Y72415013D01*
X29555563Y72366481D01*
X29491932Y72323964D01*
X29437816Y72269848D01*
X29378682Y72221318D01*
X29330152Y72162184D01*
X29276036Y72108068D01*
X29233519Y72044437D01*
X29184987Y71985300D01*
X29148922Y71917828D01*
X29106408Y71854200D01*
X29077123Y71783500D01*
X29041059Y71716029D01*
X29018852Y71642822D01*
X28989565Y71572118D01*
X28974635Y71497060D01*
X28952428Y71423853D01*
X28944929Y71347717D01*
X28930000Y71272662D01*
X28930000Y71196138D01*
X28922501Y71120000D01*
X28930000Y71043862D01*
X28930000Y70967338D01*
X28944929Y70892283D01*
X28952428Y70816147D01*
X28974635Y70742940D01*
X28989565Y70667882D01*
X29018852Y70597178D01*
X29041059Y70523971D01*
X29077123Y70456500D01*
X29106408Y70385800D01*
X29148922Y70322172D01*
X29184987Y70254700D01*
X29233519Y70195563D01*
X29276036Y70131932D01*
X29277968Y70130000D01*
X24062032Y70130000D01*
X24063964Y70131932D01*
X24106481Y70195563D01*
X24155013Y70254700D01*
X24191078Y70322172D01*
X24233592Y70385800D01*
X24262877Y70456500D01*
X24298941Y70523971D01*
X24321148Y70597178D01*
X24350435Y70667882D01*
X24365365Y70742940D01*
X24387572Y70816147D01*
X24395071Y70892283D01*
X24410000Y70967338D01*
X24410000Y71043862D01*
X24417499Y71120000D01*
X24410000Y71196138D01*
X24410000Y71272662D01*
X24395071Y71347717D01*
X24387572Y71423853D01*
X24365365Y71497060D01*
X24350435Y71572118D01*
X24321148Y71642822D01*
X24298941Y71716029D01*
X24262877Y71783500D01*
X24233592Y71854200D01*
X24191078Y71917828D01*
X24155013Y71985300D01*
X24106481Y72044437D01*
X24063964Y72108068D01*
X24009848Y72162184D01*
X23961318Y72221318D01*
X23902184Y72269848D01*
X23848068Y72323964D01*
X23784437Y72366481D01*
X23725300Y72415013D01*
X23657828Y72451078D01*
X23594200Y72493592D01*
X23523500Y72522877D01*
X23456029Y72558941D01*
X23382822Y72581148D01*
X23312118Y72610435D01*
X23237060Y72625365D01*
X23163853Y72647572D01*
X23087717Y72655071D01*
X23012662Y72670000D01*
X20167338Y72670000D01*
X20092283Y72655071D01*
X20016147Y72647572D01*
X19942940Y72625365D01*
X19867882Y72610435D01*
X19797178Y72581148D01*
X19723971Y72558941D01*
X19656500Y72522877D01*
X19585800Y72493592D01*
X19522172Y72451078D01*
X19454700Y72415013D01*
X19395563Y72366481D01*
X19331932Y72323964D01*
X19277816Y72269848D01*
X19218682Y72221318D01*
X19170152Y72162184D01*
X19116036Y72108068D01*
X19073519Y72044437D01*
X19024987Y71985300D01*
X18988922Y71917828D01*
X18946408Y71854200D01*
X18917123Y71783500D01*
X18881059Y71716029D01*
X18858852Y71642822D01*
X18829565Y71572118D01*
X18814635Y71497060D01*
X18792428Y71423853D01*
X18784929Y71347717D01*
X18770000Y71272662D01*
X18770000Y71196138D01*
X18762501Y71120000D01*
X18770000Y71043862D01*
X18770000Y70967338D01*
X18784929Y70892283D01*
X18792428Y70816147D01*
X18814635Y70742940D01*
X18829565Y70667882D01*
X18858852Y70597178D01*
X18881059Y70523971D01*
X18917123Y70456500D01*
X18946408Y70385800D01*
X18988922Y70322172D01*
X19024987Y70254700D01*
X19073519Y70195563D01*
X19116036Y70131932D01*
X19117968Y70130000D01*
X17627338Y70130000D01*
X17552283Y70115071D01*
X17476147Y70107572D01*
X17402940Y70085365D01*
X17327882Y70070435D01*
X17257178Y70041148D01*
X17183971Y70018941D01*
X17116500Y69982877D01*
X17045800Y69953592D01*
X16982172Y69911078D01*
X16914700Y69875013D01*
X16855563Y69826481D01*
X16791932Y69783964D01*
X16737816Y69729848D01*
X16678682Y69681318D01*
X16630152Y69622184D01*
X16576036Y69568068D01*
X16533519Y69504437D01*
X16484987Y69445300D01*
X16448922Y69377828D01*
X16406408Y69314200D01*
X16377123Y69243500D01*
X16341059Y69176029D01*
X16318852Y69102822D01*
X16289565Y69032118D01*
X16274635Y68957060D01*
X16252428Y68883853D01*
X16244929Y68807717D01*
X16230000Y68732662D01*
X16230000Y68656138D01*
X16222501Y68580000D01*
X16230000Y68503862D01*
X16230000Y68427338D01*
X16244929Y68352283D01*
X16252428Y68276147D01*
X16274635Y68202940D01*
X16289565Y68127882D01*
X16318852Y68057178D01*
X16341059Y67983971D01*
X16377123Y67916500D01*
X16406408Y67845800D01*
X16448922Y67782172D01*
X16484987Y67714700D01*
X16533519Y67655563D01*
X16576036Y67591932D01*
X16577968Y67590000D01*
X10007338Y67590000D01*
X9932283Y67575071D01*
X9856147Y67567572D01*
X9782940Y67545365D01*
X9707882Y67530435D01*
X9637178Y67501148D01*
X9563971Y67478941D01*
X9496500Y67442877D01*
X9425800Y67413592D01*
X9362172Y67371078D01*
X9294700Y67335013D01*
X9235563Y67286481D01*
X9171932Y67243964D01*
X9117816Y67189848D01*
X9058682Y67141318D01*
X9010152Y67082184D01*
X8956036Y67028068D01*
X8913519Y66964437D01*
X8864987Y66905300D01*
X8828922Y66837828D01*
X8786408Y66774200D01*
X8757123Y66703500D01*
X8721059Y66636029D01*
X8698852Y66562822D01*
X8669565Y66492118D01*
X8654635Y66417060D01*
X8632428Y66343853D01*
X8624929Y66267717D01*
X8610000Y66192662D01*
X8610000Y66116138D01*
X8602501Y66040000D01*
X8610000Y65963862D01*
X8610000Y65887338D01*
X8624929Y65812283D01*
X8632428Y65736147D01*
X8654635Y65662940D01*
X8669565Y65587882D01*
X8698852Y65517178D01*
X8721059Y65443971D01*
X8757123Y65376500D01*
X8786408Y65305800D01*
X8828922Y65242172D01*
X8864987Y65174700D01*
X8913519Y65115563D01*
X8956036Y65051932D01*
X9010152Y64997816D01*
X9058682Y64938682D01*
X9117816Y64890152D01*
X9171932Y64836036D01*
X9235563Y64793519D01*
X9264222Y64770000D01*
X9235563Y64746481D01*
X9171932Y64703964D01*
X9117816Y64649848D01*
X9058682Y64601318D01*
X9010152Y64542184D01*
X8956036Y64488068D01*
X8913519Y64424437D01*
X8864987Y64365300D01*
X8828922Y64297828D01*
X8786408Y64234200D01*
X8757123Y64163500D01*
X8721059Y64096029D01*
X8698852Y64022822D01*
X8669565Y63952118D01*
X8654635Y63877060D01*
X8632428Y63803853D01*
X8624929Y63727717D01*
X8610000Y63652662D01*
X8610000Y63576138D01*
X8602501Y63500000D01*
X8610000Y63423862D01*
X8610000Y63347338D01*
X8624929Y63272283D01*
X8632428Y63196147D01*
X8654635Y63122940D01*
X8669565Y63047882D01*
X8698852Y62977178D01*
X8721059Y62903971D01*
X8757123Y62836500D01*
X8786408Y62765800D01*
X8828922Y62702172D01*
X8864987Y62634700D01*
X8913519Y62575563D01*
X8956036Y62511932D01*
X9010152Y62457816D01*
X9058682Y62398682D01*
X9117816Y62350152D01*
X9171932Y62296036D01*
X9235563Y62253519D01*
X9294700Y62204987D01*
X9362172Y62168922D01*
X9425800Y62126408D01*
X9496500Y62097123D01*
X9563971Y62061059D01*
X9637178Y62038852D01*
X9707882Y62009565D01*
X9782940Y61994635D01*
X9856147Y61972428D01*
X9932283Y61964929D01*
X10007338Y61950000D01*
X13327970Y61950000D01*
X17900147Y57377822D01*
X17948682Y57318682D01*
X18184700Y57124987D01*
X18453971Y56981059D01*
X18746147Y56892428D01*
X18973862Y56870000D01*
X18973869Y56870000D01*
X19050000Y56862502D01*
X19126131Y56870000D01*
X21657968Y56870000D01*
X21656036Y56868068D01*
X21613519Y56804437D01*
X21564987Y56745300D01*
X21528922Y56677828D01*
X21486408Y56614200D01*
X21457123Y56543500D01*
X21421059Y56476029D01*
X21398852Y56402822D01*
X21369565Y56332118D01*
X21354635Y56257060D01*
X21332428Y56183853D01*
X21324929Y56107717D01*
X21310000Y56032662D01*
X21310000Y55956138D01*
X21302501Y55880000D01*
X21310000Y55803862D01*
X21310000Y55727338D01*
X21324929Y55652283D01*
X21332428Y55576147D01*
X21354635Y55502940D01*
X21369565Y55427882D01*
X21398852Y55357178D01*
X21421059Y55283971D01*
X21457123Y55216500D01*
X21486408Y55145800D01*
X21528922Y55082172D01*
X21564987Y55014700D01*
X21613519Y54955563D01*
X21656036Y54891932D01*
X21710152Y54837816D01*
X21758682Y54778682D01*
X21817816Y54730152D01*
X21871932Y54676036D01*
X21873132Y54675234D01*
X21758683Y54581308D01*
X21564988Y54345290D01*
X21541641Y54301612D01*
X21523964Y54328068D01*
X21469848Y54382184D01*
X21421318Y54441318D01*
X21362184Y54489848D01*
X21308068Y54543964D01*
X21244437Y54586481D01*
X21185300Y54635013D01*
X21117828Y54671078D01*
X21054200Y54713592D01*
X20983500Y54742877D01*
X20916029Y54778941D01*
X20842822Y54801148D01*
X20772118Y54830435D01*
X20697060Y54845365D01*
X20623853Y54867572D01*
X20547717Y54875071D01*
X20472662Y54890000D01*
X20396138Y54890000D01*
X20320000Y54897499D01*
X20243862Y54890000D01*
X20167338Y54890000D01*
X20092282Y54875071D01*
X20016148Y54867572D01*
X19942943Y54845365D01*
X19867882Y54830435D01*
X19797175Y54801147D01*
X19723972Y54778941D01*
X19656505Y54742879D01*
X19585800Y54713592D01*
X19522168Y54671075D01*
X19454701Y54635013D01*
X19395569Y54586484D01*
X19331932Y54543964D01*
X19277812Y54489844D01*
X19218683Y54441318D01*
X19170157Y54382189D01*
X19116036Y54328068D01*
X19073515Y54264430D01*
X19024988Y54205300D01*
X18988927Y54137835D01*
X18946408Y54074200D01*
X18917119Y54003492D01*
X18881060Y53936029D01*
X18858856Y53862831D01*
X18829565Y53792118D01*
X18814633Y53717050D01*
X18792429Y53643853D01*
X18784931Y53567727D01*
X18770000Y53492662D01*
X18770000Y53187338D01*
X18770001Y53187333D01*
X18770001Y50317665D01*
X18770000Y50317662D01*
X18770000Y46837338D01*
X18784929Y46762282D01*
X18792428Y46686148D01*
X18814635Y46612943D01*
X18829565Y46537882D01*
X18858853Y46467175D01*
X18881059Y46393972D01*
X18917121Y46326505D01*
X18946408Y46255800D01*
X18988925Y46192168D01*
X19024987Y46124701D01*
X19073516Y46065567D01*
X19116036Y46001932D01*
X19117968Y46000000D01*
X17425000Y46000000D01*
X17425000Y50897364D01*
X17432499Y50973502D01*
X17402572Y51277355D01*
X17313941Y51569531D01*
X17170013Y51838802D01*
X17024853Y52015680D01*
X16976318Y52074820D01*
X16917179Y52123354D01*
X15828359Y53212173D01*
X15779820Y53271318D01*
X15543802Y53465013D01*
X15274531Y53608941D01*
X14982355Y53697572D01*
X14754640Y53720000D01*
X14754630Y53720000D01*
X14678502Y53727498D01*
X14602374Y53720000D01*
X12067625Y53720000D01*
X11991497Y53727498D01*
X11915369Y53720000D01*
X11915360Y53720000D01*
X11687645Y53697572D01*
X11603968Y53672189D01*
X9623983Y55652173D01*
X9575444Y55711318D01*
X9339426Y55905013D01*
X9070155Y56048941D01*
X8777979Y56137572D01*
X8550264Y56160000D01*
X8550254Y56160000D01*
X8474126Y56167498D01*
X8397998Y56160000D01*
X4927338Y56160000D01*
X4852283Y56145071D01*
X4776147Y56137572D01*
X4702940Y56115365D01*
X4627882Y56100435D01*
X4557178Y56071148D01*
X4483971Y56048941D01*
X4416500Y56012877D01*
X4345800Y55983592D01*
X4282172Y55941078D01*
X4214700Y55905013D01*
X4155563Y55856481D01*
X4091932Y55813964D01*
X4037816Y55759848D01*
X3978682Y55711318D01*
X3930152Y55652184D01*
X3876036Y55598068D01*
X3833519Y55534437D01*
X3784987Y55475300D01*
X3748922Y55407828D01*
X3706408Y55344200D01*
X3677123Y55273500D01*
X3641059Y55206029D01*
X3618852Y55132822D01*
X3589565Y55062118D01*
X3574635Y54987060D01*
X3552428Y54913853D01*
X3544929Y54837717D01*
X3530000Y54762662D01*
X3530000Y54686138D01*
X3522501Y54610000D01*
X3530000Y54533862D01*
X3530000Y54457338D01*
X3544929Y54382283D01*
X3552428Y54306147D01*
X3574635Y54232940D01*
X3589565Y54157882D01*
X3618852Y54087178D01*
X3641059Y54013971D01*
X3677123Y53946500D01*
X3706408Y53875800D01*
X3748922Y53812172D01*
X3784987Y53744700D01*
X3833519Y53685563D01*
X3876036Y53621932D01*
X3930152Y53567816D01*
X3978682Y53508682D01*
X4037816Y53460152D01*
X4091932Y53406036D01*
X4155563Y53363519D01*
X4184222Y53340000D01*
X4155563Y53316481D01*
X4091932Y53273964D01*
X4037816Y53219848D01*
X3978682Y53171318D01*
X3930152Y53112184D01*
X3876036Y53058068D01*
X3833519Y52994437D01*
X3784987Y52935300D01*
X3748922Y52867828D01*
X3706408Y52804200D01*
X3677123Y52733500D01*
X3641059Y52666029D01*
X3618852Y52592822D01*
X3589565Y52522118D01*
X3574635Y52447060D01*
X3552428Y52373853D01*
X3544929Y52297717D01*
X3530000Y52222662D01*
X3530000Y52146138D01*
X3522501Y52070000D01*
X3530000Y51993862D01*
X3530000Y51917338D01*
X3544929Y51842283D01*
X3552428Y51766147D01*
X3574635Y51692940D01*
X3589565Y51617882D01*
X3618852Y51547178D01*
X3641059Y51473971D01*
X3677123Y51406500D01*
X3706408Y51335800D01*
X3748922Y51272172D01*
X3784987Y51204700D01*
X3833519Y51145563D01*
X3876036Y51081932D01*
X3930152Y51027816D01*
X3978682Y50968682D01*
X4037816Y50920152D01*
X4091932Y50866036D01*
X4155563Y50823519D01*
X4214700Y50774987D01*
X4282172Y50738922D01*
X4345800Y50696408D01*
X4416500Y50667123D01*
X4483971Y50631059D01*
X4557178Y50608852D01*
X4627882Y50579565D01*
X4702940Y50564635D01*
X4776147Y50542428D01*
X4852283Y50534929D01*
X4927338Y50520000D01*
X6977970Y50520000D01*
X7105147Y50392823D01*
X8610000Y48887969D01*
X8610000Y47023186D01*
X8557818Y47051078D01*
X8494190Y47093592D01*
X8423490Y47122877D01*
X8356019Y47158941D01*
X8282812Y47181148D01*
X8212108Y47210435D01*
X8137050Y47225365D01*
X8063843Y47247572D01*
X7987707Y47255071D01*
X7912652Y47270000D01*
X7836128Y47270000D01*
X7759990Y47277499D01*
X7683852Y47270000D01*
X7607328Y47270000D01*
X7532273Y47255071D01*
X7456137Y47247572D01*
X7382930Y47225365D01*
X7307872Y47210435D01*
X7237168Y47181148D01*
X7163961Y47158941D01*
X7096490Y47122877D01*
X7025790Y47093592D01*
X6962162Y47051078D01*
X6894690Y47015013D01*
X6835553Y46966481D01*
X6771922Y46923964D01*
X6717806Y46869848D01*
X6658672Y46821318D01*
X6610142Y46762184D01*
X6556026Y46708068D01*
X6513509Y46644437D01*
X6464977Y46585300D01*
X6428912Y46517828D01*
X6386398Y46454200D01*
X6357113Y46383500D01*
X6321049Y46316029D01*
X6298842Y46242822D01*
X6269555Y46172118D01*
X6254625Y46097060D01*
X6232418Y46023853D01*
X6224919Y45947717D01*
X6209990Y45872662D01*
X6209990Y45796138D01*
X6202491Y45720000D01*
X6209990Y45643862D01*
X6209990Y45567338D01*
X6209991Y45567333D01*
X6209990Y39866387D01*
X5993604Y39650000D01*
X4927338Y39650000D01*
X4852283Y39635071D01*
X4776147Y39627572D01*
X4702940Y39605365D01*
X4627882Y39590435D01*
X4557178Y39561148D01*
X4483971Y39538941D01*
X4416500Y39502877D01*
X4345800Y39473592D01*
X4282172Y39431078D01*
X4214700Y39395013D01*
X4155563Y39346481D01*
X4091932Y39303964D01*
X4037816Y39249848D01*
X3978682Y39201318D01*
X3930152Y39142184D01*
X3876036Y39088068D01*
X3833519Y39024437D01*
X3784987Y38965300D01*
X3748922Y38897828D01*
X3706408Y38834200D01*
X3677123Y38763500D01*
X3641059Y38696029D01*
X3618852Y38622822D01*
X3589565Y38552118D01*
X3574635Y38477060D01*
X3552428Y38403853D01*
X3544929Y38327717D01*
X3530000Y38252662D01*
X3530000Y38176138D01*
X3522501Y38100000D01*
X3530000Y38023862D01*
X3530000Y37947338D01*
X3544929Y37872283D01*
X3552428Y37796147D01*
X3574635Y37722940D01*
X3589565Y37647882D01*
X3618852Y37577178D01*
X3641059Y37503971D01*
X3677123Y37436500D01*
X3706408Y37365800D01*
X3748922Y37302172D01*
X3784987Y37234700D01*
X3833519Y37175563D01*
X3876036Y37111932D01*
X3930152Y37057816D01*
X3978682Y36998682D01*
X4037816Y36950152D01*
X4091932Y36896036D01*
X4155563Y36853519D01*
X4184222Y36830000D01*
X4155563Y36806481D01*
X4091932Y36763964D01*
X4037816Y36709848D01*
X3978682Y36661318D01*
X3930152Y36602184D01*
X3876036Y36548068D01*
X3833519Y36484437D01*
X3784987Y36425300D01*
X3748922Y36357828D01*
X3706408Y36294200D01*
X3677123Y36223500D01*
X3641059Y36156029D01*
X3618852Y36082822D01*
X3589565Y36012118D01*
X3574635Y35937060D01*
X3552428Y35863853D01*
X3544929Y35787717D01*
X3530000Y35712662D01*
X3530000Y35636138D01*
X3522501Y35560000D01*
X3530000Y35483862D01*
X3530000Y35407338D01*
X3544929Y35332283D01*
X3552428Y35256147D01*
X3574635Y35182940D01*
X3589565Y35107882D01*
X3618852Y35037178D01*
X3641059Y34963971D01*
X3677123Y34896500D01*
X3706408Y34825800D01*
X3748922Y34762172D01*
X3784987Y34694700D01*
X3833519Y34635563D01*
X3876036Y34571932D01*
X3930152Y34517816D01*
X3978682Y34458682D01*
X4037816Y34410152D01*
X4091932Y34356036D01*
X4155563Y34313519D01*
X4187157Y34287591D01*
X4091932Y34223964D01*
X3876036Y34008068D01*
X3706408Y33754200D01*
X3589565Y33472118D01*
X3530000Y33172662D01*
X3530000Y32867338D01*
X3589565Y32567882D01*
X3669991Y32373718D01*
X3669990Y28722021D01*
X2821938Y27873968D01*
X2821932Y27873964D01*
X2606036Y27658068D01*
X2563518Y27594435D01*
X2514987Y27535300D01*
X2478923Y27467829D01*
X2436408Y27404200D01*
X2407121Y27333497D01*
X2371059Y27266028D01*
X2348854Y27192827D01*
X2319565Y27122118D01*
X2304633Y27047050D01*
X2282429Y26973852D01*
X2274931Y26897728D01*
X2260000Y26822662D01*
X2260000Y26746128D01*
X2252502Y26670000D01*
X475000Y26670000D01*
X475000Y72591907D01*
X1760000Y72591907D01*
X1760000Y72188093D01*
X1838780Y71792037D01*
X1993314Y71418961D01*
X2217661Y71083201D01*
X2503201Y70797661D01*
X2838961Y70573314D01*
X3212037Y70418780D01*
X3608093Y70340000D01*
X4011907Y70340000D01*
X4407963Y70418780D01*
X4781039Y70573314D01*
X5116799Y70797661D01*
X5402339Y71083201D01*
X5626686Y71418961D01*
X5781220Y71792037D01*
X5860000Y72188093D01*
X5860000Y72591907D01*
X5781220Y72987963D01*
X5626686Y73361039D01*
X5402339Y73696799D01*
X5116799Y73982339D01*
X4781039Y74206686D01*
X4407963Y74361220D01*
X4011907Y74440000D01*
X3608093Y74440000D01*
X3212037Y74361220D01*
X2838961Y74206686D01*
X2503201Y73982339D01*
X2217661Y73696799D01*
X1993314Y73361039D01*
X1838780Y72987963D01*
X1760000Y72591907D01*
X475000Y72591907D01*
X475000Y75725000D01*
X69375001Y75725000D01*
X69375000Y23335000D01*
%TD*%
M02*
