%TF.GenerationSoftware,KiCad,Pcbnew,(5.1.6)-1*%
%TF.CreationDate,2023-03-25T10:50:08-05:00*%
%TF.ProjectId,pcb,7063622e-6b69-4636-9164-5f7063625858,rev?*%
%TF.SameCoordinates,Original*%
%TF.FileFunction,Soldermask,Bot*%
%TF.FilePolarity,Negative*%
%FSLAX46Y46*%
G04 Gerber Fmt 4.6, Leading zero omitted, Abs format (unit mm)*
G04 Created by KiCad (PCBNEW (5.1.6)-1) date 2023-03-25 10:50:08*
%MOMM*%
%LPD*%
G01*
G04 APERTURE LIST*
%ADD10C,2.300000*%
%ADD11C,3.300000*%
%ADD12C,2.000000*%
%ADD13C,2.100000*%
G04 APERTURE END LIST*
D10*
%TO.C,U2*%
X40640000Y6350000D03*
X40640000Y8890000D03*
X40640000Y11430000D03*
X40640000Y13970000D03*
X40640000Y16510000D03*
X40640000Y19050000D03*
X40640000Y21590000D03*
X40640000Y24130000D03*
X40640000Y26670000D03*
X40640000Y29210000D03*
X40640000Y31750000D03*
X40640000Y34290000D03*
X40640000Y36830000D03*
X40640000Y39370000D03*
X40640000Y41910000D03*
X15240000Y41910000D03*
X15240000Y39370000D03*
X15240000Y36830000D03*
X15240000Y34290000D03*
X15240000Y31750000D03*
X15240000Y29210000D03*
X15240000Y26670000D03*
X15240000Y24130000D03*
X15240000Y21590000D03*
X15240000Y19050000D03*
X15240000Y16510000D03*
X15240000Y13970000D03*
X15240000Y11430000D03*
X15240000Y8890000D03*
X15240000Y6350000D03*
%TD*%
%TO.C,J5*%
X55880000Y57404000D03*
X53340000Y57404000D03*
X50800000Y57404000D03*
X48260000Y57404000D03*
%TD*%
%TO.C,J6*%
X48260000Y64770000D03*
X50800000Y64770000D03*
X53340000Y64770000D03*
X55880000Y64770000D03*
%TD*%
D11*
%TO.C,REF\u002A\u002A*%
X46990000Y3810000D03*
%TD*%
%TO.C,REF\u002A\u002A*%
X3810000Y3810000D03*
%TD*%
%TO.C,REF\u002A\u002A*%
X57150000Y26670000D03*
%TD*%
%TO.C,REF\u002A\u002A*%
X57150000Y72390000D03*
%TD*%
%TO.C,REF\u002A\u002A*%
X3810000Y72390000D03*
%TD*%
D10*
%TO.C,C1*%
X8890000Y13335000D03*
X5090000Y13335000D03*
%TD*%
%TO.C,C2*%
X36840000Y54610000D03*
X40640000Y54610000D03*
%TD*%
D12*
%TO.C,C3*%
X15240000Y54710000D03*
X15240000Y52410000D03*
%TD*%
D10*
%TO.C,J1*%
X7620000Y21590000D03*
X5080000Y21590000D03*
%TD*%
%TO.C,J2*%
X36830000Y67310000D03*
X36830000Y69850000D03*
%TD*%
%TO.C,J3*%
X5080000Y66040000D03*
X5080000Y63500000D03*
%TD*%
%TO.C,J4*%
X5080000Y50800000D03*
X5080000Y53340000D03*
X5080000Y55880000D03*
%TD*%
%TO.C,J8*%
X49530000Y72390000D03*
X46990000Y72390000D03*
X44450000Y72390000D03*
%TD*%
%TO.C,R1*%
X3810000Y26670000D03*
X11430000Y26670000D03*
%TD*%
%TO.C,R2*%
X20320000Y13970000D03*
X20320000Y21590000D03*
%TD*%
D13*
%TO.C,SW1*%
X54960000Y32340000D03*
D10*
X57150000Y33600000D03*
X57150000Y38100000D03*
D13*
X54960000Y39350000D03*
X54360000Y32340000D03*
X54360000Y39350000D03*
%TD*%
%TO.C,SW2*%
X54360000Y51415000D03*
X54360000Y44405000D03*
X54960000Y51415000D03*
D10*
X57150000Y50165000D03*
X57150000Y45665000D03*
D13*
X54960000Y44405000D03*
%TD*%
D10*
%TO.C,U1*%
X30480000Y53340000D03*
X22860000Y71120000D03*
X30480000Y55880000D03*
X22860000Y68580000D03*
X30480000Y58420000D03*
X22860000Y66040000D03*
X30480000Y60960000D03*
X22860000Y63500000D03*
X30480000Y63500000D03*
X22860000Y60960000D03*
X30480000Y66040000D03*
X22860000Y58420000D03*
X30480000Y68580000D03*
X22860000Y55880000D03*
X30480000Y71120000D03*
X22860000Y53340000D03*
%TD*%
%TO.C,J7*%
X6350000Y41910000D03*
X6350000Y39370000D03*
X6350000Y36830000D03*
X6350000Y34290000D03*
%TD*%
X22860000Y49530000D03*
X33020000Y71120000D03*
X33020000Y53340000D03*
X27940000Y6350000D03*
X19050000Y6350000D03*
X33020000Y49530000D03*
X10299990Y39370000D03*
X10160000Y55880000D03*
X40640000Y49530000D03*
X47498000Y49530000D03*
X22860000Y44450000D03*
X35560000Y44450000D03*
X34290000Y64770000D03*
X34290000Y58420000D03*
X14986000Y58420000D03*
X10160000Y63500000D03*
X17780000Y71120000D03*
X17780000Y21590000D03*
X17780000Y26670000D03*
X17780000Y44450000D03*
X17780000Y41910000D03*
X27940000Y41910000D03*
X20320000Y68580000D03*
X20320000Y44450000D03*
M02*
