M48
; DRILL file {KiCad (5.1.6)-1} date 03/19/23 14:46:00
; FORMAT={-:-/ absolute / metric / decimal}
; #@! TF.CreationDate,2023-03-19T14:46:00-05:00
; #@! TF.GenerationSoftware,Kicad,Pcbnew,(5.1.6)-1
FMAT,2
METRIC
T1C0.900
T2C1.000
T3C3.200
%
G90
G05
T1
X3.81Y26.67
X5.09Y13.335
X7.62Y54.61
X7.76Y45.72
X8.89Y13.335
X11.43Y26.67
X13.335Y52.17
X13.335Y49.87
X13.97Y6.35
X13.97Y8.89
X13.97Y11.43
X13.97Y13.97
X13.97Y16.51
X13.97Y19.05
X13.97Y21.59
X13.97Y24.13
X13.97Y26.67
X13.97Y29.21
X13.97Y31.75
X13.97Y34.29
X13.97Y36.83
X13.97Y39.37
X13.97Y41.91
X17.78Y68.58
X17.78Y41.275
X20.32Y41.275
X20.32Y46.99
X20.32Y50.165
X20.32Y53.34
X20.32Y71.12
X22.86Y71.12
X22.86Y68.58
X22.86Y66.04
X22.86Y63.5
X22.86Y60.96
X22.86Y58.42
X22.86Y55.88
X22.86Y53.34
X22.86Y46.99
X24.13Y44.45
X29.21Y46.99
X30.48Y50.165
X30.48Y53.34
X30.48Y55.88
X30.48Y58.42
X30.48Y60.96
X30.48Y63.5
X30.48Y66.04
X30.48Y68.58
X30.48Y71.12
X34.29Y71.12
X34.29Y46.99
X36.83Y58.42
X38.1Y53.34
X39.37Y6.35
X39.37Y8.89
X39.37Y11.43
X39.37Y13.97
X39.37Y16.51
X39.37Y19.05
X39.37Y21.59
X39.37Y24.13
X39.37Y26.67
X39.37Y29.21
X39.37Y31.75
X39.37Y34.29
X39.37Y36.83
X39.37Y39.37
X39.37Y41.91
X43.18Y58.42
X43.18Y44.45
X45.72Y53.34
X48.26Y8.89
X52.06Y8.89
X52.07Y40.64
X52.07Y17.78
X63.25Y32.34
X63.25Y39.35
X63.25Y43.77
X63.25Y50.78
X63.85Y50.78
X63.85Y43.77
X63.85Y39.35
X63.85Y32.34
X66.04Y33.6
X66.04Y38.1
X66.04Y45.03
X66.04Y49.53
T2
X5.08Y54.61
X5.08Y52.07
X5.08Y49.53
X5.08Y40.64
X5.08Y38.1
X5.08Y35.56
X5.08Y33.02
X5.715Y20.955
X8.255Y20.955
X10.16Y63.5
X10.16Y66.04
X43.18Y66.04
X43.18Y63.5
X48.26Y33.02
X48.26Y35.56
X48.26Y38.1
X48.26Y40.64
X57.15Y40.64
X57.15Y38.1
X57.15Y35.56
X57.15Y33.02
X62.23Y60.96
X62.23Y63.5
X62.23Y66.04
T3
X3.81Y72.39
X7.62Y3.81
X55.88Y3.81
X66.04Y26.67
X66.04Y72.39
T0
M30
