0
SECTION
2
HEADER
9
$INSUNITS
70
4
9
$ACADVER
1
AC1014
9
$HANDSEED
5
FFFF
0
ENDSEC
0
SECTION
2
TABLES
0
TABLE
2
VPORT
5
8
100
AcDbSymbolTable
0
ENDTAB
0
TABLE
2
LTYPE
5
5
100
AcDbSymbolTable
0
LTYPE
5
14
100
AcDbSymbolTableRecord
100
AcDbLinetypeTableRecord
2
BYBLOCK
70
0
0
LTYPE
5
15
100
AcDbSymbolTableRecord
100
AcDbLinetypeTableRecord
2
BYLAYER
70
0
0
ENDTAB
0
TABLE
2
LAYER
5
2
100
AcDbSymbolTable
70
2
0
LAYER
5
50
100
AcDbSymbolTableRecord
100
AcDbLayerTableRecord
2
0
70
0
6
CONTINUOUS
0
ENDTAB
0
TABLE
2
STYLE
5
3
100
AcDbSymbolTable
70
1
0
STYLE
5
11
100
AcDbSymbolTableRecord
100
AcDbTextStyleTableRecord
2
STANDARD
70
0
0
ENDTAB
0
TABLE
2
VIEW
5
6
100
AcDbSymbolTable
70
0
0
ENDTAB
0
TABLE
2
UCS
5
7
100
AcDbSymbolTable
70
0
0
ENDTAB
0
TABLE
2
APPID
5
9
100
AcDbSymbolTable
70
2
0
APPID
5
12
100
AcDbSymbolTableRecord
100
AcDbRegAppTableRecord
2
ACAD
70
0
0
ENDTAB
0
TABLE
2
DIMSTYLE
5
A
100
AcDbSymbolTable
70
1
0
ENDTAB
0
TABLE
2
BLOCK_RECORD
5
1
100
AcDbSymbolTable
70
1
0
BLOCK_RECORD
5
1F
100
AcDbSymbolTableRecord
100
AcDbBlockTableRecord
2
*MODEL_SPACE
0
BLOCK_RECORD
5
1B
100
AcDbSymbolTableRecord
100
AcDbBlockTableRecord
2
*PAPER_SPACE
0
ENDTAB
0
ENDSEC
0
SECTION
2
BLOCKS
0
BLOCK
5
20
100
AcDbEntity
100
AcDbBlockBegin
2
*MODEL_SPACE
0
ENDBLK
5
21
100
AcDbEntity
100
AcDbBlockEnd
0
BLOCK
5
1C
100
AcDbEntity
100
AcDbBlockBegin
2
*PAPER_SPACE
0
ENDBLK
5
1D
100
AcDbEntity
100
AcDbBlockEnd
0
ENDSEC
0
SECTION
2
ENTITIES
0
CIRCLE
5
100
100
AcDbEntity
8
0
100
AcDbCircle
10
13
20
-130.50290362564908
30
0
40
4.4500000000000011
210
0
220
0
230
1
0
CIRCLE
5
101
100
AcDbEntity
8
0
100
AcDbCircle
10
33.846288430449256
20
-53.966107615653215
30
0
40
1.3
210
0
220
0
230
1
0
CIRCLE
5
102
100
AcDbEntity
8
0
100
AcDbCircle
10
29.005145002090739
20
-101.12690054085056
30
0
40
1.3
210
0
220
0
230
1
0
CIRCLE
5
103
100
AcDbEntity
8
0
100
AcDbCircle
10
-41.844134052582319
20
-99.335856034915793
30
0
40
4.4500000000000011
210
0
220
0
230
1
0
CIRCLE
5
104
100
AcDbEntity
8
0
100
AcDbCircle
10
-19.450147954919625
20
-56.905798220979982
30
0
40
1.3
210
0
220
0
230
1
0
LWPOLYLINE
5
105
100
AcDbEntity
8
0
100
AcDbPolyline
90
12
70
1
43
0.0
10
-46.11143832413822
20
-93.168189194532843
42
0.097367309528782114
10
-23.690138467167998
20
-55.39832336014689
42
-1.184709691982041
10
-15.948195385135806
20
-59.731807456453993
42
0.13030678577653246
10
-34.666181888760867
20
-97.16168889923118
42
-0.047168385210473444
10
-34.385894627620644
20
-98.545498723348857
42
0.25122046997636871
10
-26.148941880990687
20
-105.78338182259691
42
-0.36535274384733479
10
-22.676859744325402
20
-110.43167761297441
42
0.34972583247661138
10
-9.7778764876049173
20
-125.17683156340333
42
-1.3041750128321319
10
-13.493565815487617
20
-133.03425823497952
42
-0.084343832641009558
10
-29.414769972029681
20
-114.06580585559297
42
-0.13032788548845772
10
-31.051885478738264
20
-112.44074688294018
42
0.028071634355589365
10
-44.54881865559792
20
-106.33118885031556
42
-0.60194633787414231
0
LWPOLYLINE
5
106
100
AcDbEntity
8
0
100
AcDbPolyline
90
10
70
1
43
0.0
10
25.685567735561996
20
-97.0441492455477
42
0.10318394867446665
10
29.3819588076692
20
-55.124362767701889
42
-1.3898751394451372
10
37.889267669245186
20
-55.790859056659926
42
0.054851277317071769
10
33.389251652340015
20
-97.939552775187593
42
0.1638845953259403
10
55.341816929751374
20
-97.277329500742894
42
-1.3737936545232896
10
55.707147951166256
20
-105.8340090673375
42
0.12142254691294574
10
32.7159693080241
20
-105.18923585362869
42
0.040994867120343309
10
20.058944829397191
20
-133.03693162382248
42
-1.5338688750436045
10
10.11034605397521
20
-123.58192825564353
42
0.30937270772165321
10
24.724486934068771
20
-101.04123566993434
42
-0.24173541971638937
0
CIRCLE
5
107
100
AcDbEntity
8
0
100
AcDbCircle
10
-27.169024259836391
20
-110.16623841851336
30
0
40
1.3
210
0
220
0
230
1
0
CIRCLE
5
108
100
AcDbEntity
8
0
100
AcDbCircle
10
56.906134410011184
20
-101.49667907395369
30
0
40
1.3
210
0
220
0
230
1
0
CIRCLE
5
109
100
AcDbEntity
8
0
100
AcDbCircle
10
-10.580062605235849
20
-129.60475403705621
30
0
40
1.3
210
0
220
0
230
1
0
ENDSEC
0
SECTION
2
OBJECTS
0
DICTIONARY
5
C
100
AcDbDictionary
3
ACAD_GROUP
350
D
3
ACAD_MLINESTYLE
350
17
0
DICTIONARY
5
D
100
AcDbDictionary
0
DICTIONARY
5
1A
330
C
100
AcDbDictionary
0
DICTIONARY
5
17
100
AcDbDictionary
0
ENDSEC
0
EOF
