0
SECTION
2
HEADER
9
$INSUNITS
70
4
9
$ACADVER
1
AC1014
9
$HANDSEED
5
FFFF
0
ENDSEC
0
SECTION
2
TABLES
0
TABLE
2
VPORT
5
8
100
AcDbSymbolTable
0
ENDTAB
0
TABLE
2
LTYPE
5
5
100
AcDbSymbolTable
0
LTYPE
5
14
100
AcDbSymbolTableRecord
100
AcDbLinetypeTableRecord
2
BYBLOCK
70
0
0
LTYPE
5
15
100
AcDbSymbolTableRecord
100
AcDbLinetypeTableRecord
2
BYLAYER
70
0
0
ENDTAB
0
TABLE
2
LAYER
5
2
100
AcDbSymbolTable
70
2
0
LAYER
5
50
100
AcDbSymbolTableRecord
100
AcDbLayerTableRecord
2
0
70
0
6
CONTINUOUS
0
ENDTAB
0
TABLE
2
STYLE
5
3
100
AcDbSymbolTable
70
1
0
STYLE
5
11
100
AcDbSymbolTableRecord
100
AcDbTextStyleTableRecord
2
STANDARD
70
0
0
ENDTAB
0
TABLE
2
VIEW
5
6
100
AcDbSymbolTable
70
0
0
ENDTAB
0
TABLE
2
UCS
5
7
100
AcDbSymbolTable
70
0
0
ENDTAB
0
TABLE
2
APPID
5
9
100
AcDbSymbolTable
70
2
0
APPID
5
12
100
AcDbSymbolTableRecord
100
AcDbRegAppTableRecord
2
ACAD
70
0
0
ENDTAB
0
TABLE
2
DIMSTYLE
5
A
100
AcDbSymbolTable
70
1
0
ENDTAB
0
TABLE
2
BLOCK_RECORD
5
1
100
AcDbSymbolTable
70
1
0
BLOCK_RECORD
5
1F
100
AcDbSymbolTableRecord
100
AcDbBlockTableRecord
2
*MODEL_SPACE
0
BLOCK_RECORD
5
1B
100
AcDbSymbolTableRecord
100
AcDbBlockTableRecord
2
*PAPER_SPACE
0
ENDTAB
0
ENDSEC
0
SECTION
2
BLOCKS
0
BLOCK
5
20
100
AcDbEntity
100
AcDbBlockBegin
2
*MODEL_SPACE
0
ENDBLK
5
21
100
AcDbEntity
100
AcDbBlockEnd
0
BLOCK
5
1C
100
AcDbEntity
100
AcDbBlockBegin
2
*PAPER_SPACE
0
ENDBLK
5
1D
100
AcDbEntity
100
AcDbBlockEnd
0
ENDSEC
0
SECTION
2
ENTITIES
0
CIRCLE
5
100
100
AcDbEntity
8
0
100
AcDbCircle
10
13
20
-130.50290362564908
30
0
40
1.5000000000000002
210
0
220
0
230
1
0
CIRCLE
5
101
100
AcDbEntity
8
0
100
AcDbCircle
10
33.846288430449256
20
-53.966107615653215
30
0
40
1.3
210
0
220
0
230
1
0
CIRCLE
5
102
100
AcDbEntity
8
0
100
AcDbCircle
10
29.005145002090739
20
-101.12690054085056
30
0
40
1.3
210
0
220
0
230
1
0
CIRCLE
5
103
100
AcDbEntity
8
0
100
AcDbCircle
10
-41.825860060448633
20
-99.371402040665444
30
0
40
1.5000000000000002
210
0
220
0
230
1
0
CIRCLE
5
104
100
AcDbEntity
8
0
100
AcDbCircle
10
-19.450147954919625
20
-56.905798220979982
30
0
40
1.3
210
0
220
0
230
1
0
LWPOLYLINE
5
105
100
AcDbEntity
8
0
100
AcDbPolyline
90
11
70
1
43
0.0
10
-31.05024512774591
20
-112.4435480236186
42
0.219010053254136
10
-42.714823318669119
20
-104.29174189940832
42
-0.57636475200772985
10
-45.652054874372006
20
-96.152670419994678
42
0.10247517736189278
10
-23.761073925126706
20
-55.615094041319104
42
-1.2156346375269751
10
-15.948195385135815
20
-59.731807456453978
42
0.097802728165682681
10
-36.427382640616834
20
-98.687628022274438
42
0.19010836052180871
10
-26.146815795850618
20
-105.78719885215352
42
-0.36657404885944117
10
-22.675784307346216
20
-110.45474526637091
42
0.34931364718281516
10
-9.7778764876049173
20
-125.17683156340333
42
-1.3041750128321319
10
-13.493565815507688
20
-133.03425823500316
42
-0.084328644601860472
10
-29.412515495345882
20
-114.06965344983816
42
-0.13039645637574182
0
LWPOLYLINE
5
106
100
AcDbEntity
8
0
100
AcDbPolyline
90
10
70
1
43
0.0
10
25.583053625810209
20
-98.204694077852679
42
0.10626880485897758
10
29.483224369301738
20
-55.06777544141692
42
-1.3904533148280644
10
37.990525854862405
20
-55.719759853154514
42
0.054921093682088876
10
33.469382793750384
20
-97.920128602856394
42
0.16236549022742058
10
55.228934924269851
20
-97.262762866261184
42
-1.3752161580621411
10
55.560787870402805
20
-105.81807653501659
42
0.12295834524913572
10
32.288669081196787
20
-105.12214606703722
42
-0.066748336590738186
10
17.497841083136962
20
-132.686805086649
42
-1.4197081704721377
10
10.907473586572323
20
-125.96183181278158
42
0.31713163277662093
10
24.643854863958836
20
-102.23557016298037
42
-0.2435781269878422
0
CIRCLE
5
107
100
AcDbEntity
8
0
100
AcDbCircle
10
-27.166771777326247
20
-110.17008486434366
30
0
40
1.3
210
0
220
0
230
1
0
CIRCLE
5
108
100
AcDbEntity
8
0
100
AcDbCircle
10
56.780945716943506
20
-101.48665473270671
30
0
40
1.3
210
0
220
0
230
1
0
CIRCLE
5
109
100
AcDbEntity
8
0
100
AcDbCircle
10
-10.580062605235849
20
-129.60475403705621
30
0
40
1.3
210
0
220
0
230
1
0
ENDSEC
0
SECTION
2
OBJECTS
0
DICTIONARY
5
C
100
AcDbDictionary
3
ACAD_GROUP
350
D
3
ACAD_MLINESTYLE
350
17
0
DICTIONARY
5
D
100
AcDbDictionary
0
DICTIONARY
5
1A
330
C
100
AcDbDictionary
0
DICTIONARY
5
17
100
AcDbDictionary
0
ENDSEC
0
EOF
