0
SECTION
2
HEADER
9
$INSUNITS
70
4
9
$ACADVER
1
AC1014
9
$HANDSEED
5
FFFF
0
ENDSEC
0
SECTION
2
TABLES
0
TABLE
2
VPORT
5
8
100
AcDbSymbolTable
0
ENDTAB
0
TABLE
2
LTYPE
5
5
100
AcDbSymbolTable
0
LTYPE
5
14
100
AcDbSymbolTableRecord
100
AcDbLinetypeTableRecord
2
BYBLOCK
70
0
0
LTYPE
5
15
100
AcDbSymbolTableRecord
100
AcDbLinetypeTableRecord
2
BYLAYER
70
0
0
ENDTAB
0
TABLE
2
LAYER
5
2
100
AcDbSymbolTable
70
2
0
LAYER
5
50
100
AcDbSymbolTableRecord
100
AcDbLayerTableRecord
2
0
70
0
6
CONTINUOUS
0
ENDTAB
0
TABLE
2
STYLE
5
3
100
AcDbSymbolTable
70
1
0
STYLE
5
11
100
AcDbSymbolTableRecord
100
AcDbTextStyleTableRecord
2
STANDARD
70
0
0
ENDTAB
0
TABLE
2
VIEW
5
6
100
AcDbSymbolTable
70
0
0
ENDTAB
0
TABLE
2
UCS
5
7
100
AcDbSymbolTable
70
0
0
ENDTAB
0
TABLE
2
APPID
5
9
100
AcDbSymbolTable
70
2
0
APPID
5
12
100
AcDbSymbolTableRecord
100
AcDbRegAppTableRecord
2
ACAD
70
0
0
ENDTAB
0
TABLE
2
DIMSTYLE
5
A
100
AcDbSymbolTable
70
1
0
ENDTAB
0
TABLE
2
BLOCK_RECORD
5
1
100
AcDbSymbolTable
70
1
0
BLOCK_RECORD
5
1F
100
AcDbSymbolTableRecord
100
AcDbBlockTableRecord
2
*MODEL_SPACE
0
BLOCK_RECORD
5
1B
100
AcDbSymbolTableRecord
100
AcDbBlockTableRecord
2
*PAPER_SPACE
0
ENDTAB
0
ENDSEC
0
SECTION
2
BLOCKS
0
BLOCK
5
20
100
AcDbEntity
100
AcDbBlockBegin
2
*MODEL_SPACE
0
ENDBLK
5
21
100
AcDbEntity
100
AcDbBlockEnd
0
BLOCK
5
1C
100
AcDbEntity
100
AcDbBlockBegin
2
*PAPER_SPACE
0
ENDBLK
5
1D
100
AcDbEntity
100
AcDbBlockEnd
0
ENDSEC
0
SECTION
2
ENTITIES
0
CIRCLE
5
100
100
AcDbEntity
8
0
100
AcDbCircle
10
0
20
-100.00000149011612
30
0
40
2.4249999999999998
210
0
220
0
230
1
0
LINE
5
101
100
AcDbEntity
8
0
100
AcDbLine
10
22.99060235413603
20
-106.88710413700817
30
0
11
25.144832240140627
21
-104.24115687226779
31
0
0
LINE
5
102
100
AcDbEntity
8
0
100
AcDbLine
10
-22.17292266016517
20
-109.1848516975689
30
0
11
-24.428846236334799
21
-107.3131027315026
31
0
0
ARC
5
103
100
AcDbEntity
8
0
100
AcDbCircle
10
0
20
-100.00000149011612
30
0
40
23.999999429729396
210
0
220
0
230
1
100
AcDbArc
50
202.50115777271677
51
343.32380067899703
0
ARC
5
104
100
AcDbEntity
8
0
100
AcDbCircle
10
0
20
-100.00000149011612
30
0
40
25.499999752164108
210
-0
220
0
230
1
100
AcDbArc
50
-9.5739141074558507
51
196.6657728969048
0
CIRCLE
5
105
100
AcDbEntity
8
0
100
AcDbCircle
10
0
20
-80.000001192092896
30
0
40
1.2999999999999989
210
0
220
0
230
1
0
LWPOLYLINE
5
106
100
AcDbEntity
8
0
100
AcDbPolyline
90
9
70
1
43
0.0
10
-11.455837674620282
20
-114.66446261805622
42
0.16732851526531894
10
1.6144516080168443e-15
20
-118.60867250661045
42
0.16780017300312722
10
11.482729198802254
20
-114.64341527062138
42
0.45000743287660816
10
11.662460561336371
20
-111.65501940324889
10
7.3083175768804596
20
-107.37495008233751
42
0.35595132161225879
10
4.7918253585369186
20
-107.14052938976724
42
-0.30511098031552536
10
-4.8093822063762017
20
-107.1287160829025
42
0.3589232856012769
10
-7.3414367242790171
20
-107.37176455609635
10
-11.639639509662288
20
-111.67498529972829
42
0.45030821306518581
0
LWPOLYLINE
5
107
100
AcDbEntity
8
0
100
AcDbPolyline
90
9
70
1
43
0.0
10
2.7327340440278007
20
-89.983338513502602
10
4.2623113136674853
20
-84.072505416798322
42
-0.45000743287661049
10
6.9402037326435515
20
-82.733959408923411
42
-0.16780017300312702
10
16.115581830951264
20
-90.695665981868956
42
-0.16732851526531911
10
18.427714706915673
20
-102.5888173739981
42
-0.45030821306518465
10
15.930652322727305
20
-104.24273309157064
10
10.054852447958229
20
-102.67199066062767
42
-0.3589232856012784
10
8.5783390368699592
20
-100.60069136095356
42
0.30511098031552436
10
3.787965878260962
20
-92.279895049299142
42
-0.35595132161226417
0
LWPOLYLINE
5
108
100
AcDbEntity
8
0
100
AcDbPolyline
90
9
70
1
43
0.0
10
-10.041051620908261
20
-102.64171587450824
10
-15.924771875003847
20
-104.27247965030114
42
-0.45000743287661116
10
-18.4229329314458
20
-102.62262979080356
42
-0.16780017300312702
10
-16.11558183095126
20
-90.69566598186897
42
-0.167328515265319
10
-6.9718770322953851
20
-82.746724478294027
42
-0.4503082130651882
10
-4.2910128130650094
20
-84.082286079049439
10
-2.7134157236792253
20
-89.956249253624364
42
-0.3589232856012759
10
-3.7689568304937531
20
-92.270597026492268
42
0.30511098031552497
10
-8.5797912367978739
20
-100.57958003128199
42
-0.35595132161226312
0
ENDSEC
0
SECTION
2
OBJECTS
0
DICTIONARY
5
C
100
AcDbDictionary
3
ACAD_GROUP
350
D
3
ACAD_MLINESTYLE
350
17
0
DICTIONARY
5
D
100
AcDbDictionary
0
DICTIONARY
5
1A
330
C
100
AcDbDictionary
0
DICTIONARY
5
17
100
AcDbDictionary
0
ENDSEC
0
EOF
