0
SECTION
2
HEADER
9
$INSUNITS
70
4
9
$ACADVER
1
AC1014
9
$HANDSEED
5
FFFF
0
ENDSEC
0
SECTION
2
TABLES
0
TABLE
2
VPORT
5
8
100
AcDbSymbolTable
0
ENDTAB
0
TABLE
2
LTYPE
5
5
100
AcDbSymbolTable
0
LTYPE
5
14
100
AcDbSymbolTableRecord
100
AcDbLinetypeTableRecord
2
BYBLOCK
70
0
0
LTYPE
5
15
100
AcDbSymbolTableRecord
100
AcDbLinetypeTableRecord
2
BYLAYER
70
0
0
ENDTAB
0
TABLE
2
LAYER
5
2
100
AcDbSymbolTable
70
2
0
LAYER
5
50
100
AcDbSymbolTableRecord
100
AcDbLayerTableRecord
2
0
70
0
6
CONTINUOUS
0
ENDTAB
0
TABLE
2
STYLE
5
3
100
AcDbSymbolTable
70
1
0
STYLE
5
11
100
AcDbSymbolTableRecord
100
AcDbTextStyleTableRecord
2
STANDARD
70
0
0
ENDTAB
0
TABLE
2
VIEW
5
6
100
AcDbSymbolTable
70
0
0
ENDTAB
0
TABLE
2
UCS
5
7
100
AcDbSymbolTable
70
0
0
ENDTAB
0
TABLE
2
APPID
5
9
100
AcDbSymbolTable
70
2
0
APPID
5
12
100
AcDbSymbolTableRecord
100
AcDbRegAppTableRecord
2
ACAD
70
0
0
ENDTAB
0
TABLE
2
DIMSTYLE
5
A
100
AcDbSymbolTable
70
1
0
ENDTAB
0
TABLE
2
BLOCK_RECORD
5
1
100
AcDbSymbolTable
70
1
0
BLOCK_RECORD
5
1F
100
AcDbSymbolTableRecord
100
AcDbBlockTableRecord
2
*MODEL_SPACE
0
BLOCK_RECORD
5
1B
100
AcDbSymbolTableRecord
100
AcDbBlockTableRecord
2
*PAPER_SPACE
0
ENDTAB
0
ENDSEC
0
SECTION
2
BLOCKS
0
BLOCK
5
20
100
AcDbEntity
100
AcDbBlockBegin
2
*MODEL_SPACE
0
ENDBLK
5
21
100
AcDbEntity
100
AcDbBlockEnd
0
BLOCK
5
1C
100
AcDbEntity
100
AcDbBlockBegin
2
*PAPER_SPACE
0
ENDBLK
5
1D
100
AcDbEntity
100
AcDbBlockEnd
0
ENDSEC
0
SECTION
2
ENTITIES
0
LINE
5
100
100
AcDbEntity
8
0
100
AcDbLine
10
100
20
241
30
0
11
75
21
241.0006428284656
31
0
0
LINE
5
101
100
AcDbEntity
8
0
100
AcDbLine
10
75.000000960181865
20
155.00000216066837
30
0
11
75
21
241.0006428284656
31
0
0
LINE
5
102
100
AcDbEntity
8
0
100
AcDbLine
10
65.000001117587104
20
145.00000200326315
30
0
11
-65.055879990125845
21
144.9999999561158
31
0
0
LINE
5
103
100
AcDbEntity
8
0
100
AcDbLine
10
-75.05588014753107
20
154.9999999561158
30
0
11
-75.05588014753107
21
241.01360785007063
31
0
0
LINE
5
104
100
AcDbEntity
8
0
100
AcDbLine
10
-100
20
241
30
0
11
-75.05588014753107
21
241.01360785007063
31
0
0
CIRCLE
5
105
100
AcDbEntity
8
0
100
AcDbCircle
10
-87.500001080334172
20
225.00000350177285
30
0
40
1.4999999999999858
210
0
220
-0
230
1
0
CIRCLE
5
106
100
AcDbEntity
8
0
100
AcDbCircle
10
87.500001080334187
20
225.00000350177288
30
0
40
1.5000000000000036
210
0
220
-0
230
1
0
LINE
5
107
100
AcDbEntity
8
0
100
AcDbLine
10
-95
20
-65
30
0
11
-95
21
-80
31
0
0
LINE
5
108
100
AcDbEntity
8
0
100
AcDbLine
10
-95
20
-80
30
0
11
-90.199999999999989
21
-80
31
0
0
LINE
5
109
100
AcDbEntity
8
0
100
AcDbLine
10
-90.199999999999989
20
-65
30
0
11
-95
21
-65
31
0
0
LINE
5
110
100
AcDbEntity
8
0
100
AcDbLine
10
-90.199999999999989
20
-80
30
0
11
-90.199999999999989
21
-65
31
0
0
LINE
5
111
100
AcDbEntity
8
0
100
AcDbLine
10
-95
20
-25
30
0
11
-95
21
-40
31
0
0
LINE
5
112
100
AcDbEntity
8
0
100
AcDbLine
10
-95
20
-40
30
0
11
-90.199999999999989
21
-40
31
0
0
LINE
5
113
100
AcDbEntity
8
0
100
AcDbLine
10
-90.199999999999989
20
-25
30
0
11
-95
21
-25
31
0
0
LINE
5
114
100
AcDbEntity
8
0
100
AcDbLine
10
-90.199999999999989
20
-40
30
0
11
-90.199999999999989
21
-25
31
0
0
LINE
5
115
100
AcDbEntity
8
0
100
AcDbLine
10
-95
20
15
30
0
11
-95
21
0
31
0
0
LINE
5
116
100
AcDbEntity
8
0
100
AcDbLine
10
-95
20
0
30
0
11
-90.199999999999989
21
0
31
0
0
LINE
5
117
100
AcDbEntity
8
0
100
AcDbLine
10
-90.199999999999989
20
15
30
0
11
-95
21
15
31
0
0
LINE
5
118
100
AcDbEntity
8
0
100
AcDbLine
10
-90.199999999999989
20
0
30
0
11
-90.199999999999989
21
15
31
0
0
LINE
5
119
100
AcDbEntity
8
0
100
AcDbLine
10
-95
20
55
30
0
11
-95
21
40
31
0
0
LINE
5
120
100
AcDbEntity
8
0
100
AcDbLine
10
-95
20
40
30
0
11
-90.199999999999989
21
40
31
0
0
LINE
5
121
100
AcDbEntity
8
0
100
AcDbLine
10
-90.199999999999989
20
55
30
0
11
-95
21
55
31
0
0
LINE
5
122
100
AcDbEntity
8
0
100
AcDbLine
10
-90.199999999999989
20
40
30
0
11
-90.199999999999989
21
55
31
0
0
LINE
5
123
100
AcDbEntity
8
0
100
AcDbLine
10
-95
20
95
30
0
11
-95
21
80
31
0
0
LINE
5
124
100
AcDbEntity
8
0
100
AcDbLine
10
-95
20
80
30
0
11
-90.199999999999989
21
80
31
0
0
LINE
5
125
100
AcDbEntity
8
0
100
AcDbLine
10
-90.199999999999989
20
95
30
0
11
-95
21
95
31
0
0
LINE
5
126
100
AcDbEntity
8
0
100
AcDbLine
10
-90.199999999999989
20
80
30
0
11
-90.199999999999989
21
95
31
0
0
LINE
5
127
100
AcDbEntity
8
0
100
AcDbLine
10
-95
20
135
30
0
11
-95
21
120
31
0
0
LINE
5
128
100
AcDbEntity
8
0
100
AcDbLine
10
-95
20
120
30
0
11
-90.199999999999989
21
120
31
0
0
LINE
5
129
100
AcDbEntity
8
0
100
AcDbLine
10
-90.199999999999989
20
135
30
0
11
-95
21
135
31
0
0
LINE
5
130
100
AcDbEntity
8
0
100
AcDbLine
10
-90.199999999999989
20
120
30
0
11
-90.199999999999989
21
135
31
0
0
LINE
5
131
100
AcDbEntity
8
0
100
AcDbLine
10
-95
20
175
30
0
11
-95
21
160
31
0
0
LINE
5
132
100
AcDbEntity
8
0
100
AcDbLine
10
-95
20
160
30
0
11
-90.199999999999989
21
160
31
0
0
LINE
5
133
100
AcDbEntity
8
0
100
AcDbLine
10
-90.199999999999989
20
175
30
0
11
-95
21
175
31
0
0
LINE
5
134
100
AcDbEntity
8
0
100
AcDbLine
10
-90.199999999999989
20
160
30
0
11
-90.199999999999989
21
175
31
0
0
LINE
5
135
100
AcDbEntity
8
0
100
AcDbLine
10
90.199999999999989
20
160
30
0
11
90.199999999999989
21
175
31
0
0
LINE
5
136
100
AcDbEntity
8
0
100
AcDbLine
10
90.199999999999989
20
175
30
0
11
95
21
175
31
0
0
LINE
5
137
100
AcDbEntity
8
0
100
AcDbLine
10
95
20
160
30
0
11
90.199999999999989
21
160
31
0
0
LINE
5
138
100
AcDbEntity
8
0
100
AcDbLine
10
95
20
175
30
0
11
95
21
160
31
0
0
LINE
5
139
100
AcDbEntity
8
0
100
AcDbLine
10
90.199999999999989
20
120
30
0
11
90.199999999999989
21
135
31
0
0
LINE
5
140
100
AcDbEntity
8
0
100
AcDbLine
10
90.199999999999989
20
135
30
0
11
95
21
135
31
0
0
LINE
5
141
100
AcDbEntity
8
0
100
AcDbLine
10
95
20
120
30
0
11
90.199999999999989
21
120
31
0
0
LINE
5
142
100
AcDbEntity
8
0
100
AcDbLine
10
95
20
135
30
0
11
95
21
120
31
0
0
LINE
5
143
100
AcDbEntity
8
0
100
AcDbLine
10
90.199999999999989
20
80
30
0
11
90.199999999999989
21
95
31
0
0
LINE
5
144
100
AcDbEntity
8
0
100
AcDbLine
10
90.199999999999989
20
95
30
0
11
95
21
95
31
0
0
LINE
5
145
100
AcDbEntity
8
0
100
AcDbLine
10
95
20
80
30
0
11
90.199999999999989
21
80
31
0
0
LINE
5
146
100
AcDbEntity
8
0
100
AcDbLine
10
95
20
95
30
0
11
95
21
80
31
0
0
LINE
5
147
100
AcDbEntity
8
0
100
AcDbLine
10
90.199999999999989
20
40
30
0
11
90.199999999999989
21
55
31
0
0
LINE
5
148
100
AcDbEntity
8
0
100
AcDbLine
10
90.199999999999989
20
55
30
0
11
95
21
55
31
0
0
LINE
5
149
100
AcDbEntity
8
0
100
AcDbLine
10
95
20
40
30
0
11
90.199999999999989
21
40
31
0
0
LINE
5
150
100
AcDbEntity
8
0
100
AcDbLine
10
95
20
55
30
0
11
95
21
40
31
0
0
LINE
5
151
100
AcDbEntity
8
0
100
AcDbLine
10
90.199999999999989
20
0
30
0
11
90.199999999999989
21
15
31
0
0
LINE
5
152
100
AcDbEntity
8
0
100
AcDbLine
10
90.199999999999989
20
15
30
0
11
95
21
15
31
0
0
LINE
5
153
100
AcDbEntity
8
0
100
AcDbLine
10
95
20
0
30
0
11
90.199999999999989
21
0
31
0
0
LINE
5
154
100
AcDbEntity
8
0
100
AcDbLine
10
95
20
15
30
0
11
95
21
0
31
0
0
LINE
5
155
100
AcDbEntity
8
0
100
AcDbLine
10
90.199999999999989
20
-40
30
0
11
90.199999999999989
21
-25
31
0
0
LINE
5
156
100
AcDbEntity
8
0
100
AcDbLine
10
90.199999999999989
20
-25
30
0
11
95
21
-25
31
0
0
LINE
5
157
100
AcDbEntity
8
0
100
AcDbLine
10
95
20
-40
30
0
11
90.199999999999989
21
-40
31
0
0
LINE
5
158
100
AcDbEntity
8
0
100
AcDbLine
10
95
20
-25
30
0
11
95
21
-40
31
0
0
LINE
5
159
100
AcDbEntity
8
0
100
AcDbLine
10
90.199999999999989
20
-80
30
0
11
90.199999999999989
21
-65
31
0
0
LINE
5
160
100
AcDbEntity
8
0
100
AcDbLine
10
90.199999999999989
20
-65
30
0
11
95
21
-65
31
0
0
LINE
5
161
100
AcDbEntity
8
0
100
AcDbLine
10
95
20
-80
30
0
11
90.199999999999989
21
-80
31
0
0
LINE
5
162
100
AcDbEntity
8
0
100
AcDbLine
10
95
20
-65
30
0
11
95
21
-80
31
0
0
LWPOLYLINE
5
163
100
AcDbEntity
8
0
100
AcDbPolyline
90
16
70
1
43
0.0
10
-75.031803164636031
20
39.940311889910383
10
-75.052871847049175
20
109.99608811483624
42
-0.4142997586351071
10
-65.052936879861093
20
119.99909552994671
10
64.999935419415465
20
119.99993541899835
42
-0.41421545389588454
10
75
20
109.99993541920688
10
74.999999999999986
20
40.000000000000043
42
-0.25000000000000006
10
75.000000000000028
20
-39.999999999999993
42
-0.14880436576323064
10
40.000000000000064
20
-74.999999999999972
42
-0.10819418777647247
10
4.9999999254942029
20
-84.852813746775993
10
4.999999925494194
20
-85.200001341104496
10
4.999999925494194
20
-90.000001341104507
10
-5.000000074505806
20
-90.000001341104507
10
-5.000000074505806
20
-85.200001341104496
10
-5.0000000745058415
20
-84.852813737995405
42
-0.10819418733230338
10
-40.000000000000078
20
-74.999999999999972
42
-0.14885398850786535
10
-75.007766171984485
20
-39.985435021878935
42
-0.24973708406558834
0
LINE
5
164
100
AcDbEntity
8
0
100
AcDbLine
10
-80
20
-90
30
0
11
-65
21
-90
31
0
0
LINE
5
165
100
AcDbEntity
8
0
100
AcDbLine
10
-65
20
-90
30
0
11
-65
21
-85.199999999999989
31
0
0
LINE
5
166
100
AcDbEntity
8
0
100
AcDbLine
10
-80
20
-85.199999999999989
30
0
11
-80
21
-90
31
0
0
LINE
5
167
100
AcDbEntity
8
0
100
AcDbLine
10
-65
20
-85.199999999999989
30
0
11
-80
21
-85.199999999999989
31
0
0
LINE
5
168
100
AcDbEntity
8
0
100
AcDbLine
10
65
20
-90
30
0
11
80
21
-90
31
0
0
LINE
5
169
100
AcDbEntity
8
0
100
AcDbLine
10
80
20
-90
30
0
11
80
21
-85.199999999999989
31
0
0
LINE
5
170
100
AcDbEntity
8
0
100
AcDbLine
10
65
20
-85.199999999999989
30
0
11
65
21
-90
31
0
0
LINE
5
171
100
AcDbEntity
8
0
100
AcDbLine
10
80
20
-85.199999999999989
30
0
11
65
21
-85.199999999999989
31
0
0
LINE
5
172
100
AcDbEntity
8
0
100
AcDbLine
10
40
20
-85.199999999999989
30
0
11
25
21
-85.199999999999989
31
0
0
LINE
5
173
100
AcDbEntity
8
0
100
AcDbLine
10
25
20
-90
30
0
11
40
21
-90
31
0
0
LINE
5
174
100
AcDbEntity
8
0
100
AcDbLine
10
40
20
-90
30
0
11
40
21
-85.199999999999989
31
0
0
LINE
5
175
100
AcDbEntity
8
0
100
AcDbLine
10
25
20
-85.199999999999989
30
0
11
25
21
-90
31
0
0
LINE
5
176
100
AcDbEntity
8
0
100
AcDbLine
10
-40
20
-90
30
0
11
-25
21
-90
31
0
0
LINE
5
177
100
AcDbEntity
8
0
100
AcDbLine
10
-40
20
-85.199999999999989
30
0
11
-40
21
-90
31
0
0
LINE
5
178
100
AcDbEntity
8
0
100
AcDbLine
10
-25
20
-85.199999999999989
30
0
11
-40
21
-85.199999999999989
31
0
0
LINE
5
179
100
AcDbEntity
8
0
100
AcDbLine
10
-25
20
-90
30
0
11
-25
21
-85.199999999999989
31
0
0
LINE
5
180
100
AcDbEntity
8
0
100
AcDbLine
10
100
20
-90
30
0
11
100
21
241
31
0
0
LINE
5
181
100
AcDbEntity
8
0
100
AcDbLine
10
-100
20
-90
30
0
11
-100
21
241
31
0
0
LINE
5
182
100
AcDbEntity
8
0
100
AcDbLine
10
-65
20
134.80000000000001
30
0
11
-80
21
134.80000000000001
31
0
0
LINE
5
183
100
AcDbEntity
8
0
100
AcDbLine
10
-80
20
134.80000000000001
30
0
11
-80
21
130
31
0
0
LINE
5
184
100
AcDbEntity
8
0
100
AcDbLine
10
-80
20
130
30
0
11
-65
21
130
31
0
0
LINE
5
185
100
AcDbEntity
8
0
100
AcDbLine
10
-65
20
130
30
0
11
-65
21
134.80000000000001
31
0
0
LINE
5
186
100
AcDbEntity
8
0
100
AcDbLine
10
-40
20
134.80000000000001
30
0
11
-40
21
130
31
0
0
LINE
5
187
100
AcDbEntity
8
0
100
AcDbLine
10
-40
20
130
30
0
11
-25
21
130
31
0
0
LINE
5
188
100
AcDbEntity
8
0
100
AcDbLine
10
-25
20
134.80000000000001
30
0
11
-40
21
134.80000000000001
31
0
0
LINE
5
189
100
AcDbEntity
8
0
100
AcDbLine
10
-25
20
130
30
0
11
-25
21
134.80000000000001
31
0
0
LINE
5
190
100
AcDbEntity
8
0
100
AcDbLine
10
4.999999925494194
20
134.7999986588955
30
0
11
-5.000000074505806
21
134.7999986588955
31
0
0
LINE
5
191
100
AcDbEntity
8
0
100
AcDbLine
10
-5.000000074505806
20
134.7999986588955
30
0
11
-5.000000074505806
21
129.99999865889549
31
0
0
LINE
5
192
100
AcDbEntity
8
0
100
AcDbLine
10
-5.000000074505806
20
129.99999865889549
30
0
11
4.999999925494194
21
129.99999865889549
31
0
0
LINE
5
193
100
AcDbEntity
8
0
100
AcDbLine
10
4.999999925494194
20
129.99999865889549
30
0
11
4.999999925494194
21
134.7999986588955
31
0
0
LINE
5
194
100
AcDbEntity
8
0
100
AcDbLine
10
40
20
134.80000000000001
30
0
11
25
21
134.80000000000001
31
0
0
LINE
5
195
100
AcDbEntity
8
0
100
AcDbLine
10
25
20
134.80000000000001
30
0
11
25
21
130
31
0
0
LINE
5
196
100
AcDbEntity
8
0
100
AcDbLine
10
25
20
130
30
0
11
40
21
130
31
0
0
LINE
5
197
100
AcDbEntity
8
0
100
AcDbLine
10
40
20
130
30
0
11
40
21
134.80000000000001
31
0
0
LINE
5
198
100
AcDbEntity
8
0
100
AcDbLine
10
65
20
134.80000000000001
30
0
11
65
21
130
31
0
0
LINE
5
199
100
AcDbEntity
8
0
100
AcDbLine
10
80
20
134.80000000000001
30
0
11
65
21
134.80000000000001
31
0
0
LINE
5
200
100
AcDbEntity
8
0
100
AcDbLine
10
65
20
130
30
0
11
80
21
130
31
0
0
LINE
5
201
100
AcDbEntity
8
0
100
AcDbLine
10
80
20
130
30
0
11
80
21
134.80000000000001
31
0
0
ARC
5
202
100
AcDbEntity
8
0
100
AcDbCircle
10
-90
20
-90
30
0
40
10
210
0
220
0
230
1
100
AcDbArc
50
180
51
269.99999893278294
0
ARC
5
203
100
AcDbEntity
8
0
100
AcDbCircle
10
90
20
-90
30
0
40
10
210
0
220
0
230
1
100
AcDbArc
50
-90
51
0
0
ARC
5
204
100
AcDbEntity
8
0
100
AcDbCircle
10
65.000000960181865
20
155.00000200326315
30
0
40
10
210
0
220
0
230
1
100
AcDbArc
50
-89.999999098134438
51
8.5377364625159387e-07
0
ARC
5
205
100
AcDbEntity
8
0
100
AcDbCircle
10
-65.05588014753107
20
154.9999999561158
30
0
40
10
210
0
220
0
230
1
100
AcDbArc
50
180
51
270.00000090186552
0
CIRCLE
5
206
100
AcDbEntity
8
0
100
AcDbCircle
10
-87.00000119209291
20
-83.00000111758709
30
0
40
1.3499999999999979
210
0
220
0
230
1
0
CIRCLE
5
207
100
AcDbEntity
8
0
100
AcDbCircle
10
87.000000000000014
20
-83
30
0
40
1.3499999999999979
210
0
220
0
230
1
0
CIRCLE
5
208
100
AcDbEntity
8
0
100
AcDbCircle
10
-85.000000447034836
20
125.00000186264515
30
0
40
1.3499999999999979
210
0
220
0
230
1
0
CIRCLE
5
209
100
AcDbEntity
8
0
100
AcDbCircle
10
84.999999552965164
20
125.00000186264515
30
0
40
1.3499999999999979
210
0
220
0
230
1
0
CIRCLE
5
210
100
AcDbEntity
8
0
100
AcDbCircle
10
0
20
125.00000186264515
30
0
40
1.3499999999999974
210
0
220
0
230
1
0
ARC
5
211
100
AcDbEntity
8
0
100
AcDbCircle
10
0
20
-100
30
0
40
24.000000000000007
210
0
220
0
230
1
100
AcDbArc
50
180.00000283164684
51
359.99999680547148
0
LINE
5
212
100
AcDbEntity
8
0
100
AcDbLine
10
-90.000000186264515
20
-100
30
0
11
-23.999999999999979
21
-100.0000012293458
31
0
0
LINE
5
213
100
AcDbEntity
8
0
100
AcDbLine
10
23.999999999999968
20
-100.00000135090193
30
0
11
90
21
-100
31
0
0
CIRCLE
5
214
100
AcDbEntity
8
0
100
AcDbCircle
10
0
20
-119.00000156462193
30
0
40
1.3500000000000001
210
0
220
0
230
1
0
ENDSEC
0
SECTION
2
OBJECTS
0
DICTIONARY
5
C
100
AcDbDictionary
3
ACAD_GROUP
350
D
3
ACAD_MLINESTYLE
350
17
0
DICTIONARY
5
D
100
AcDbDictionary
0
DICTIONARY
5
1A
330
C
100
AcDbDictionary
0
DICTIONARY
5
17
100
AcDbDictionary
0
ENDSEC
0
EOF
