0
SECTION
2
HEADER
9
$INSUNITS
70
4
9
$ACADVER
1
AC1014
9
$HANDSEED
5
FFFF
0
ENDSEC
0
SECTION
2
TABLES
0
TABLE
2
VPORT
5
8
100
AcDbSymbolTable
0
ENDTAB
0
TABLE
2
LTYPE
5
5
100
AcDbSymbolTable
0
LTYPE
5
14
100
AcDbSymbolTableRecord
100
AcDbLinetypeTableRecord
2
BYBLOCK
70
0
0
LTYPE
5
15
100
AcDbSymbolTableRecord
100
AcDbLinetypeTableRecord
2
BYLAYER
70
0
0
ENDTAB
0
TABLE
2
LAYER
5
2
100
AcDbSymbolTable
70
2
0
LAYER
5
50
100
AcDbSymbolTableRecord
100
AcDbLayerTableRecord
2
0
70
0
6
CONTINUOUS
0
ENDTAB
0
TABLE
2
STYLE
5
3
100
AcDbSymbolTable
70
1
0
STYLE
5
11
100
AcDbSymbolTableRecord
100
AcDbTextStyleTableRecord
2
STANDARD
70
0
0
ENDTAB
0
TABLE
2
VIEW
5
6
100
AcDbSymbolTable
70
0
0
ENDTAB
0
TABLE
2
UCS
5
7
100
AcDbSymbolTable
70
0
0
ENDTAB
0
TABLE
2
APPID
5
9
100
AcDbSymbolTable
70
2
0
APPID
5
12
100
AcDbSymbolTableRecord
100
AcDbRegAppTableRecord
2
ACAD
70
0
0
ENDTAB
0
TABLE
2
DIMSTYLE
5
A
100
AcDbSymbolTable
70
1
0
ENDTAB
0
TABLE
2
BLOCK_RECORD
5
1
100
AcDbSymbolTable
70
1
0
BLOCK_RECORD
5
1F
100
AcDbSymbolTableRecord
100
AcDbBlockTableRecord
2
*MODEL_SPACE
0
BLOCK_RECORD
5
1B
100
AcDbSymbolTableRecord
100
AcDbBlockTableRecord
2
*PAPER_SPACE
0
ENDTAB
0
ENDSEC
0
SECTION
2
BLOCKS
0
BLOCK
5
20
100
AcDbEntity
100
AcDbBlockBegin
2
*MODEL_SPACE
0
ENDBLK
5
21
100
AcDbEntity
100
AcDbBlockEnd
0
BLOCK
5
1C
100
AcDbEntity
100
AcDbBlockBegin
2
*PAPER_SPACE
0
ENDBLK
5
1D
100
AcDbEntity
100
AcDbBlockEnd
0
ENDSEC
0
SECTION
2
ENTITIES
0
LINE
5
100
100
AcDbEntity
8
0
100
AcDbLine
10
-80.000001266598701
20
-38.324999999999996
30
0
11
-65.000001266598701
21
-38.324999999999996
31
0
0
LINE
5
101
100
AcDbEntity
8
0
100
AcDbLine
10
-40.000001266598701
20
-38.324999999999996
30
0
11
-25.000001266598701
21
-38.324999999999996
31
0
0
LINE
5
102
100
AcDbEntity
8
0
100
AcDbLine
10
24.999998733401299
20
-38.324999999999996
30
0
11
39.999998733401299
21
-38.324999999999996
31
0
0
LINE
5
103
100
AcDbEntity
8
0
100
AcDbLine
10
64.999998733401299
20
-38.324999999999996
30
0
11
79.999998733401299
21
-38.324999999999996
31
0
0
LINE
5
104
100
AcDbEntity
8
0
100
AcDbLine
10
-80.000001266598701
20
-4.7999999999999998
30
0
11
-80.000001266598701
21
0
31
0
0
LINE
5
105
100
AcDbEntity
8
0
100
AcDbLine
10
-65.000001266598701
20
-4.7999999999999998
30
0
11
-65.000001266598701
21
0
31
0
0
LINE
5
106
100
AcDbEntity
8
0
100
AcDbLine
10
-65.000001266598701
20
0
30
0
11
-80.000001266598701
21
0
31
0
0
LINE
5
107
100
AcDbEntity
8
0
100
AcDbLine
10
-40.000001266598701
20
-4.7999999999999998
30
0
11
-40.000001266598701
21
0
31
0
0
LINE
5
108
100
AcDbEntity
8
0
100
AcDbLine
10
-40.000001266598701
20
0
30
0
11
-25.000001266598701
21
0
31
0
0
LINE
5
109
100
AcDbEntity
8
0
100
AcDbLine
10
-25.000001266598701
20
0
30
0
11
-25.000001266598701
21
-4.7999999999999998
31
0
0
LINE
5
110
100
AcDbEntity
8
0
100
AcDbLine
10
24.999998733401299
20
-4.7999999999999998
30
0
11
24.999998733401299
21
0
31
0
0
LINE
5
111
100
AcDbEntity
8
0
100
AcDbLine
10
24.999998733401299
20
0
30
0
11
39.999998733401299
21
0
31
0
0
LINE
5
112
100
AcDbEntity
8
0
100
AcDbLine
10
39.999998733401299
20
0
30
0
11
39.999998733401299
21
-4.7999999999999998
31
0
0
LINE
5
113
100
AcDbEntity
8
0
100
AcDbLine
10
39.999998733401299
20
-4.7999999999999998
30
0
11
64.999998733401299
21
-4.7999999999999998
31
0
0
LINE
5
114
100
AcDbEntity
8
0
100
AcDbLine
10
64.999998733401299
20
-4.7999999999999998
30
0
11
64.999998733401299
21
0
31
0
0
LINE
5
115
100
AcDbEntity
8
0
100
AcDbLine
10
64.999998733401299
20
0
30
0
11
79.999998733401299
21
0
31
0
0
LINE
5
116
100
AcDbEntity
8
0
100
AcDbLine
10
79.999998733401299
20
0
30
0
11
79.999998733401299
21
-4.7999999999999998
31
0
0
LINE
5
117
100
AcDbEntity
8
0
100
AcDbLine
10
79.999998733401299
20
-4.7999999999999998
30
0
11
95
21
-4.7999999999999998
31
0
0
LINE
5
118
100
AcDbEntity
8
0
100
AcDbLine
10
-25.000001266598701
20
-4.7999999999999998
30
0
11
24.999998733401299
21
-4.7999999999999998
31
0
0
LINE
5
119
100
AcDbEntity
8
0
100
AcDbLine
10
-65.000001266598701
20
-4.7999999999999998
30
0
11
-40.000001266598701
21
-4.7999999999999998
31
0
0
LINE
5
120
100
AcDbEntity
8
0
100
AcDbLine
10
-95
20
-4.7999999999999998
30
0
11
-80.000001266598701
21
-4.7999999999999998
31
0
0
LINE
5
121
100
AcDbEntity
8
0
100
AcDbLine
10
-80.000001266598701
20
-38.324999999999996
30
0
11
-80.000001266598701
21
-33.524999999999999
31
0
0
LINE
5
122
100
AcDbEntity
8
0
100
AcDbLine
10
-80.000001266598701
20
-33.524999999999999
30
0
11
-95
21
-33.524999999999999
31
0
0
LINE
5
123
100
AcDbEntity
8
0
100
AcDbLine
10
-65.000001266598701
20
-38.324999999999996
30
0
11
-65.000001266598701
21
-33.524999999999999
31
0
0
LINE
5
124
100
AcDbEntity
8
0
100
AcDbLine
10
-65.000001266598701
20
-33.524999999999999
30
0
11
-40.000001266598701
21
-33.524999999999999
31
0
0
LINE
5
125
100
AcDbEntity
8
0
100
AcDbLine
10
-40.000001266598701
20
-33.524999999999999
30
0
11
-40.000001266598701
21
-38.324999999999996
31
0
0
LINE
5
126
100
AcDbEntity
8
0
100
AcDbLine
10
-25.000001266598701
20
-38.324999999999996
30
0
11
-25.000001266598701
21
-33.524999999999999
31
0
0
LINE
5
127
100
AcDbEntity
8
0
100
AcDbLine
10
-25.000001266598701
20
-33.524999999999999
30
0
11
24.999998733401299
21
-33.524999999999999
31
0
0
LINE
5
128
100
AcDbEntity
8
0
100
AcDbLine
10
24.999998733401299
20
-33.524999999999999
30
0
11
24.999998733401299
21
-38.324999999999996
31
0
0
LINE
5
129
100
AcDbEntity
8
0
100
AcDbLine
10
39.999998733401299
20
-38.324999999999996
30
0
11
39.999998733401299
21
-33.524999999999999
31
0
0
LINE
5
130
100
AcDbEntity
8
0
100
AcDbLine
10
39.999998733401299
20
-33.524999999999999
30
0
11
65
21
-33.524999999999999
31
0
0
LINE
5
131
100
AcDbEntity
8
0
100
AcDbLine
10
65
20
-33.524999999999999
30
0
11
64.999998733401299
21
-38.324999999999996
31
0
0
LINE
5
132
100
AcDbEntity
8
0
100
AcDbLine
10
-90.199999999999989
20
-14.162499999999998
30
0
11
-95
21
-14.162499999999998
31
0
0
LINE
5
133
100
AcDbEntity
8
0
100
AcDbLine
10
-95
20
-24.162499999999998
30
0
11
-90.199999999999989
21
-24.162499999999998
31
0
0
LINE
5
134
100
AcDbEntity
8
0
100
AcDbLine
10
-90.199999999999989
20
-24.162499999999998
30
0
11
-90.199999999999989
21
-14.162499999999998
31
0
0
LINE
5
135
100
AcDbEntity
8
0
100
AcDbLine
10
-95
20
-4.7999999999999998
30
0
11
-95
21
-14.162499999999998
31
0
0
LINE
5
136
100
AcDbEntity
8
0
100
AcDbLine
10
-95
20
-24.162499999999998
30
0
11
-95
21
-33.524999999999999
31
0
0
LINE
5
137
100
AcDbEntity
8
0
100
AcDbLine
10
95
20
-14.162499999999998
30
0
11
90.199999999999989
21
-14.162499999999998
31
0
0
LINE
5
138
100
AcDbEntity
8
0
100
AcDbLine
10
90.199999999999989
20
-14.162499999999998
30
0
11
90.199999999999989
21
-24.162499999999998
31
0
0
LINE
5
139
100
AcDbEntity
8
0
100
AcDbLine
10
90.199999999999989
20
-24.162499999999998
30
0
11
95
21
-24.162499999999998
31
0
0
LINE
5
140
100
AcDbEntity
8
0
100
AcDbLine
10
95
20
-4.7999999999999998
30
0
11
95
21
-14.162499999999998
31
0
0
LINE
5
141
100
AcDbEntity
8
0
100
AcDbLine
10
95
20
-24.162499999999998
30
0
11
95
21
-33.524999999999999
31
0
0
LINE
5
142
100
AcDbEntity
8
0
100
AcDbLine
10
95
20
-33.524999999999999
30
0
11
79.999998733401299
21
-33.524999999999999
31
0
0
LINE
5
143
100
AcDbEntity
8
0
100
AcDbLine
10
79.999998733401299
20
-33.524999999999999
30
0
11
79.999998733401299
21
-38.324999999999996
31
0
0
LWPOLYLINE
5
144
100
AcDbEntity
8
0
100
AcDbPolyline
90
8
70
1
43
0.0
10
20
20
-10
10
-20.000000345593083
20
-9.9999999999999982
42
0.4142135421287203
10
-25.000000345593072
20
-14.999999654406903
10
-25.000000921005579
20
-23.324999654406898
42
0.41421358261747004
10
-20.000000921005594
20
-28.324999999999996
10
20
20
-28.324999999999996
42
0.41421356237309609
10
25
20
-23.324999999999996
10
25
20
-14.999999999999998
42
0.41421356237309542
0
ENDSEC
0
SECTION
2
OBJECTS
0
DICTIONARY
5
C
100
AcDbDictionary
3
ACAD_GROUP
350
D
3
ACAD_MLINESTYLE
350
17
0
DICTIONARY
5
D
100
AcDbDictionary
0
DICTIONARY
5
1A
330
C
100
AcDbDictionary
0
DICTIONARY
5
17
100
AcDbDictionary
0
ENDSEC
0
EOF
