0
SECTION
2
HEADER
9
$INSUNITS
70
4
9
$ACADVER
1
AC1014
9
$HANDSEED
5
FFFF
0
ENDSEC
0
SECTION
2
TABLES
0
TABLE
2
VPORT
5
8
100
AcDbSymbolTable
0
ENDTAB
0
TABLE
2
LTYPE
5
5
100
AcDbSymbolTable
0
LTYPE
5
14
100
AcDbSymbolTableRecord
100
AcDbLinetypeTableRecord
2
BYBLOCK
70
0
0
LTYPE
5
15
100
AcDbSymbolTableRecord
100
AcDbLinetypeTableRecord
2
BYLAYER
70
0
0
ENDTAB
0
TABLE
2
LAYER
5
2
100
AcDbSymbolTable
70
2
0
LAYER
5
50
100
AcDbSymbolTableRecord
100
AcDbLayerTableRecord
2
0
70
0
6
CONTINUOUS
0
ENDTAB
0
TABLE
2
STYLE
5
3
100
AcDbSymbolTable
70
1
0
STYLE
5
11
100
AcDbSymbolTableRecord
100
AcDbTextStyleTableRecord
2
STANDARD
70
0
0
ENDTAB
0
TABLE
2
VIEW
5
6
100
AcDbSymbolTable
70
0
0
ENDTAB
0
TABLE
2
UCS
5
7
100
AcDbSymbolTable
70
0
0
ENDTAB
0
TABLE
2
APPID
5
9
100
AcDbSymbolTable
70
2
0
APPID
5
12
100
AcDbSymbolTableRecord
100
AcDbRegAppTableRecord
2
ACAD
70
0
0
ENDTAB
0
TABLE
2
DIMSTYLE
5
A
100
AcDbSymbolTable
70
1
0
ENDTAB
0
TABLE
2
BLOCK_RECORD
5
1
100
AcDbSymbolTable
70
1
0
BLOCK_RECORD
5
1F
100
AcDbSymbolTableRecord
100
AcDbBlockTableRecord
2
*MODEL_SPACE
0
BLOCK_RECORD
5
1B
100
AcDbSymbolTableRecord
100
AcDbBlockTableRecord
2
*PAPER_SPACE
0
ENDTAB
0
ENDSEC
0
SECTION
2
BLOCKS
0
BLOCK
5
20
100
AcDbEntity
100
AcDbBlockBegin
2
*MODEL_SPACE
0
ENDBLK
5
21
100
AcDbEntity
100
AcDbBlockEnd
0
BLOCK
5
1C
100
AcDbEntity
100
AcDbBlockBegin
2
*PAPER_SPACE
0
ENDBLK
5
1D
100
AcDbEntity
100
AcDbBlockEnd
0
ENDSEC
0
SECTION
2
ENTITIES
0
LINE
5
100
100
AcDbEntity
8
0
100
AcDbLine
10
-38.324999999999996
20
105
30
0
11
-38.324999999999996
21
120
31
0
0
LINE
5
101
100
AcDbEntity
8
0
100
AcDbLine
10
-38.324999999999996
20
65
30
0
11
-38.324999999999996
21
80
31
0
0
LINE
5
102
100
AcDbEntity
8
0
100
AcDbLine
10
-38.324999999999996
20
25
30
0
11
-38.324999999999996
21
40
31
0
0
LINE
5
103
100
AcDbEntity
8
0
100
AcDbLine
10
-38.324999999999996
20
-55
30
0
11
-38.324999999999996
21
-40
31
0
0
LINE
5
104
100
AcDbEntity
8
0
100
AcDbLine
10
-38.324999999999996
20
-95
30
0
11
-38.324999999999996
21
-80
31
0
0
LINE
5
105
100
AcDbEntity
8
0
100
AcDbLine
10
-38.324999999999996
20
-135
30
0
11
-38.324999999999996
21
-120
31
0
0
LINE
5
106
100
AcDbEntity
8
0
100
AcDbLine
10
-38.324999999999996
20
120
30
0
11
-33.524999999999999
21
120
31
0
0
LINE
5
107
100
AcDbEntity
8
0
100
AcDbLine
10
-4.7999999999999998
20
120
30
0
11
0
21
120
31
0
0
LINE
5
108
100
AcDbEntity
8
0
100
AcDbLine
10
-24.162499999999998
20
135
30
0
11
-14.162499999999998
21
135
31
0
0
LINE
5
109
100
AcDbEntity
8
0
100
AcDbLine
10
-14.162499999999998
20
135
30
0
11
-14.162499999999998
21
130.19999999999999
31
0
0
LINE
5
110
100
AcDbEntity
8
0
100
AcDbLine
10
0
20
120
30
0
11
0
21
105
31
0
0
LINE
5
111
100
AcDbEntity
8
0
100
AcDbLine
10
0
20
105
30
0
11
-4.7999999999999998
21
105
31
0
0
LINE
5
112
100
AcDbEntity
8
0
100
AcDbLine
10
-4.7999999999999998
20
105
30
0
11
-4.7999999999999998
21
80
31
0
0
LINE
5
113
100
AcDbEntity
8
0
100
AcDbLine
10
-4.7999999999999998
20
80
30
0
11
0
21
80
31
0
0
LINE
5
114
100
AcDbEntity
8
0
100
AcDbLine
10
0
20
80
30
0
11
0
21
65
31
0
0
LINE
5
115
100
AcDbEntity
8
0
100
AcDbLine
10
0
20
65
30
0
11
-4.7999999999999998
21
65
31
0
0
LINE
5
116
100
AcDbEntity
8
0
100
AcDbLine
10
-4.7999999999999998
20
65
30
0
11
-4.7999999999999998
21
40
31
0
0
LINE
5
117
100
AcDbEntity
8
0
100
AcDbLine
10
-4.7999999999999998
20
40
30
0
11
0
21
40
31
0
0
LINE
5
118
100
AcDbEntity
8
0
100
AcDbLine
10
0
20
40
30
0
11
0
21
25
31
0
0
LINE
5
119
100
AcDbEntity
8
0
100
AcDbLine
10
0
20
25
30
0
11
-4.7999999999999998
21
25
31
0
0
LINE
5
120
100
AcDbEntity
8
0
100
AcDbLine
10
-4.7999999999999998
20
25
30
0
11
-4.7999999999999998
21
0
31
0
0
LINE
5
121
100
AcDbEntity
8
0
100
AcDbLine
10
-4.7999999999999998
20
0
30
0
11
0
21
0
31
0
0
LINE
5
122
100
AcDbEntity
8
0
100
AcDbLine
10
0
20
0
30
0
11
0
21
-15
31
0
0
LINE
5
123
100
AcDbEntity
8
0
100
AcDbLine
10
0
20
-15
30
0
11
-4.7999999999999998
21
-15
31
0
0
LINE
5
124
100
AcDbEntity
8
0
100
AcDbLine
10
-4.7999999999999998
20
-15
30
0
11
-4.7999999999999998
21
-40
31
0
0
LINE
5
125
100
AcDbEntity
8
0
100
AcDbLine
10
-4.7999999999999998
20
-40
30
0
11
0
21
-40
31
0
0
LINE
5
126
100
AcDbEntity
8
0
100
AcDbLine
10
0
20
-40
30
0
11
0
21
-55
31
0
0
LINE
5
127
100
AcDbEntity
8
0
100
AcDbLine
10
0
20
-55
30
0
11
-4.7999999999999998
21
-55
31
0
0
LINE
5
128
100
AcDbEntity
8
0
100
AcDbLine
10
-4.7999999999999998
20
-55
30
0
11
-4.7999999999999998
21
-80
31
0
0
LINE
5
129
100
AcDbEntity
8
0
100
AcDbLine
10
-4.7999999999999998
20
-80
30
0
11
0
21
-80
31
0
0
LINE
5
130
100
AcDbEntity
8
0
100
AcDbLine
10
0
20
-80
30
0
11
0
21
-95
31
0
0
LINE
5
131
100
AcDbEntity
8
0
100
AcDbLine
10
0
20
-95
30
0
11
-4.7999999999999998
21
-95
31
0
0
LINE
5
132
100
AcDbEntity
8
0
100
AcDbLine
10
-4.7999999999999998
20
-95
30
0
11
-4.7999999999999998
21
-120
31
0
0
LINE
5
133
100
AcDbEntity
8
0
100
AcDbLine
10
-4.7999999999999998
20
-120
30
0
11
0
21
-120
31
0
0
LINE
5
134
100
AcDbEntity
8
0
100
AcDbLine
10
0
20
-120
30
0
11
0
21
-135
31
0
0
LINE
5
135
100
AcDbEntity
8
0
100
AcDbLine
10
0
20
-135
30
0
11
-4.7999999999999998
21
-135
31
0
0
LINE
5
136
100
AcDbEntity
8
0
100
AcDbLine
10
-33.524999999999999
20
120
30
0
11
-33.524999999999999
21
105
31
0
0
LINE
5
137
100
AcDbEntity
8
0
100
AcDbLine
10
-33.524999999999999
20
105
30
0
11
-38.324999999999996
21
105
31
0
0
LINE
5
138
100
AcDbEntity
8
0
100
AcDbLine
10
-38.324999999999996
20
80
30
0
11
-33.524999999999999
21
80
31
0
0
LINE
5
139
100
AcDbEntity
8
0
100
AcDbLine
10
-33.524999999999999
20
80
30
0
11
-33.524999999999999
21
65
31
0
0
LINE
5
140
100
AcDbEntity
8
0
100
AcDbLine
10
-33.524999999999999
20
65
30
0
11
-38.324999999999996
21
65
31
0
0
LINE
5
141
100
AcDbEntity
8
0
100
AcDbLine
10
-38.324999999999996
20
40
30
0
11
-33.524999999999999
21
40
31
0
0
LINE
5
142
100
AcDbEntity
8
0
100
AcDbLine
10
-33.524999999999999
20
40
30
0
11
-33.524999999999999
21
25
31
0
0
LINE
5
143
100
AcDbEntity
8
0
100
AcDbLine
10
-33.524999999999999
20
25
30
0
11
-38.324999999999996
21
25
31
0
0
LWPOLYLINE
5
144
100
AcDbEntity
8
0
100
AcDbPolyline
90
4
70
1
43
0.0
10
-38.324999999999996
20
0
10
-33.524999999999999
20
0
10
-33.524999999999999
20
-15
10
-38.324999999999996
20
-15
0
LINE
5
145
100
AcDbEntity
8
0
100
AcDbLine
10
-38.324999999999996
20
-40
30
0
11
-33.524999999999999
21
-40
31
0
0
LINE
5
146
100
AcDbEntity
8
0
100
AcDbLine
10
-33.524999999999999
20
-40
30
0
11
-33.524999999999999
21
-55
31
0
0
LINE
5
147
100
AcDbEntity
8
0
100
AcDbLine
10
-33.524999999999999
20
-55
30
0
11
-38.324999999999996
21
-55
31
0
0
LINE
5
148
100
AcDbEntity
8
0
100
AcDbLine
10
-38.324999999999996
20
-80
30
0
11
-33.524999999999999
21
-80
31
0
0
LINE
5
149
100
AcDbEntity
8
0
100
AcDbLine
10
-33.524999999999999
20
-80
30
0
11
-33.524999999999999
21
-95
31
0
0
LINE
5
150
100
AcDbEntity
8
0
100
AcDbLine
10
-33.524999999999999
20
-95
30
0
11
-38.324999999999996
21
-95
31
0
0
LINE
5
151
100
AcDbEntity
8
0
100
AcDbLine
10
-38.324999999999996
20
-120
30
0
11
-33.524999999999999
21
-120
31
0
0
LINE
5
152
100
AcDbEntity
8
0
100
AcDbLine
10
-33.524999999999999
20
-120
30
0
11
-33.524999999999999
21
-135
31
0
0
LINE
5
153
100
AcDbEntity
8
0
100
AcDbLine
10
-33.524999999999999
20
-135
30
0
11
-38.324999999999996
21
-135
31
0
0
LINE
5
154
100
AcDbEntity
8
0
100
AcDbLine
10
-24.162499999999998
20
135
30
0
11
-24.162499999999998
21
130.19999999999999
31
0
0
LINE
5
155
100
AcDbEntity
8
0
100
AcDbLine
10
-4.7999999999999998
20
120
30
0
11
-4.7999999999999998
21
130.19999999999999
31
0
0
LINE
5
156
100
AcDbEntity
8
0
100
AcDbLine
10
-4.7999999999999998
20
130.19999999999999
30
0
11
-14.162499999999998
21
130.19999999999999
31
0
0
LINE
5
157
100
AcDbEntity
8
0
100
AcDbLine
10
-88.799999999999983
20
40
30
0
11
-98.400000000000006
21
40
31
0
0
LINE
5
158
100
AcDbEntity
8
0
100
AcDbLine
10
-98.400000000000006
20
40
30
0
11
-98.400000000000006
21
25
31
0
0
LINE
5
159
100
AcDbEntity
8
0
100
AcDbLine
10
-98.400000000000006
20
25
30
0
11
-88.799999999999983
21
25
31
0
0
LINE
5
160
100
AcDbEntity
8
0
100
AcDbLine
10
-88.799999999999983
20
0
30
0
11
-93.599999999999994
21
0
31
0
0
LINE
5
161
100
AcDbEntity
8
0
100
AcDbLine
10
-93.599999999999994
20
0
30
0
11
-93.599999999999994
21
-15
31
0
0
LINE
5
162
100
AcDbEntity
8
0
100
AcDbLine
10
-93.599999999999994
20
-15
30
0
11
-88.799999999999983
21
-15
31
0
0
LINE
5
163
100
AcDbEntity
8
0
100
AcDbLine
10
-88.799999999999983
20
-15
30
0
11
-88.799999999999983
21
-40
31
0
0
LINE
5
164
100
AcDbEntity
8
0
100
AcDbLine
10
-88.799999999999983
20
-40
30
0
11
-98.400000000000006
21
-40
31
0
0
LINE
5
165
100
AcDbEntity
8
0
100
AcDbLine
10
-98.400000000000006
20
-40
30
0
11
-98.400000000000006
21
-55
31
0
0
LINE
5
166
100
AcDbEntity
8
0
100
AcDbLine
10
-98.400000000000006
20
-55
30
0
11
-88.799999999999983
21
-55
31
0
0
LINE
5
167
100
AcDbEntity
8
0
100
AcDbLine
10
-88.799999999999983
20
-55
30
0
11
-88.799999999999983
21
-80
31
0
0
LINE
5
168
100
AcDbEntity
8
0
100
AcDbLine
10
-88.799999999999983
20
-80
30
0
11
-93.599999999999994
21
-80
31
0
0
LINE
5
169
100
AcDbEntity
8
0
100
AcDbLine
10
-93.599999999999994
20
-80
30
0
11
-93.599999999999994
21
-95
31
0
0
LINE
5
170
100
AcDbEntity
8
0
100
AcDbLine
10
-93.599999999999994
20
-95
30
0
11
-88.799999999999983
21
-95
31
0
0
LINE
5
171
100
AcDbEntity
8
0
100
AcDbLine
10
-88.799999999999983
20
-95
30
0
11
-88.799999999999983
21
-120
31
0
0
LINE
5
172
100
AcDbEntity
8
0
100
AcDbLine
10
-88.799999999999983
20
65
30
0
11
-88.799999999999983
21
40
31
0
0
LINE
5
173
100
AcDbEntity
8
0
100
AcDbLine
10
-24.162499999999998
20
130.19999999999999
30
0
11
-38.324999999999996
21
130.19999999999999
31
0
0
LINE
5
174
100
AcDbEntity
8
0
100
AcDbLine
10
-43.324999999999974
20
125.19999999999999
30
0
11
-43.324999999999996
21
95
31
0
0
LINE
5
175
100
AcDbEntity
8
0
100
AcDbLine
10
-43.324999999999996
20
95
30
0
11
-88.799999999999983
21
95
31
0
0
LWPOLYLINE
5
176
100
AcDbEntity
8
0
100
AcDbPolyline
90
4
70
1
43
0.0
10
-56.162499999999973
20
90
10
-71.162499999999966
20
90
10
-71.162499999999966
20
85.199999999999989
10
-56.162499999999973
20
85.199999999999989
0
ARC
5
177
100
AcDbEntity
8
0
100
AcDbCircle
10
-38.324999999999982
20
125.19999999999999
30
0
40
5
210
0
220
0
230
1
100
AcDbArc
50
90.000000000000171
51
180
0
LWPOLYLINE
5
178
100
AcDbEntity
8
0
100
AcDbPolyline
90
8
70
1
43
0.0
10
-77.799999999999983
20
78
10
-48.324999999999996
20
77.999999999999986
42
-0.41421356237309503
10
-43.325000000000003
20
73
10
-43.324999999999996
20
55
42
-0.41421356237309503
10
-48.324999999999996
20
50
10
-77.799999999999997
20
50
42
-0.41421356237309503
10
-82.799999999999983
20
54.999999999999986
10
-82.799999999999983
20
72.999999999999986
42
-0.41421356237309503
0
LINE
5
179
100
AcDbEntity
8
0
100
AcDbLine
10
-88.799999999999983
20
65
30
0
11
-93.599999999999994
21
65
31
0
0
LINE
5
180
100
AcDbEntity
8
0
100
AcDbLine
10
-93.599999999999994
20
65
30
0
11
-93.599999999999994
21
80
31
0
0
LINE
5
181
100
AcDbEntity
8
0
100
AcDbLine
10
-93.599999999999994
20
80
30
0
11
-88.799999999999983
21
80
31
0
0
LINE
5
182
100
AcDbEntity
8
0
100
AcDbLine
10
-88.799999999999983
20
-120
30
0
11
-93.599999999999994
21
-120
31
0
0
LINE
5
183
100
AcDbEntity
8
0
100
AcDbLine
10
-93.599999999999994
20
-120
30
0
11
-93.599999999999994
21
-135
31
0
0
LINE
5
184
100
AcDbEntity
8
0
100
AcDbLine
10
-93.599999999999994
20
-135
30
0
11
-88.799999999999983
21
-135
31
0
0
LINE
5
185
100
AcDbEntity
8
0
100
AcDbLine
10
-88.799999999999983
20
95
30
0
11
-88.799999999999983
21
80
31
0
0
LINE
5
186
100
AcDbEntity
8
0
100
AcDbLine
10
-88.799999999999983
20
25
30
0
11
-88.799999999999983
21
0
31
0
0
LWPOLYLINE
5
187
100
AcDbEntity
8
0
100
AcDbPolyline
90
4
70
1
43
0.0
10
-56.162499999999973
20
-130
10
-71.162499999999966
20
-130
10
-71.162499999999966
20
-134.80000000000001
10
-56.162499999999973
20
-134.80000000000001
0
LWPOLYLINE
5
188
100
AcDbEntity
8
0
100
AcDbPolyline
90
8
70
1
43
0.0
10
-43.325000000000003
20
38.600000000000001
42
0.41421356237309503
10
-48.324999999999996
20
43.600000000000001
10
-77.799999999999983
20
43.600000000000001
42
0.41421356237309453
10
-82.799999999999983
20
38.599999999999994
10
-82.799999999999983
20
20.599999999999984
42
0.41421356237309503
10
-77.799999999999997
20
15.600000000000001
10
-48.324999999999996
20
15.600000000000001
42
0.41421356237309503
10
-43.324999999999996
20
20.600000000000001
0
LWPOLYLINE
5
189
100
AcDbEntity
8
0
100
AcDbPolyline
90
8
70
1
43
0.0
10
-43.325000000000003
20
4.1999999999999993
42
0.41421356237309503
10
-48.324999999999996
20
9.1999999999999993
10
-77.799999999999983
20
9.1999999999999993
42
0.41421356237309503
10
-82.799999999999983
20
4.1999999999999904
10
-82.799999999999983
20
-13.800000000000017
42
0.41421356237309503
10
-77.799999999999997
20
-18.799999999999997
10
-48.324999999999996
20
-18.799999999999997
42
0.41421356237309503
10
-43.324999999999996
20
-13.799999999999999
0
LWPOLYLINE
5
190
100
AcDbEntity
8
0
100
AcDbPolyline
90
8
70
1
43
0.0
10
-43.325000000000003
20
-30.200000000000003
42
0.41421356237309503
10
-48.324999999999996
20
-25.200000000000003
10
-77.799999999999983
20
-25.200000000000003
42
0.41421356237309503
10
-82.799999999999983
20
-30.200000000000014
10
-82.799999999999983
20
-48.200000000000017
42
0.41421356237309503
10
-77.799999999999997
20
-53.200000000000003
10
-48.324999999999996
20
-53.200000000000003
42
0.41421356237309503
10
-43.324999999999996
20
-48.200000000000003
0
LWPOLYLINE
5
191
100
AcDbEntity
8
0
100
AcDbPolyline
90
8
70
1
43
0.0
10
-43.325000000000003
20
-64.599999999999994
42
0.41421356237309503
10
-48.324999999999996
20
-59.600000000000001
10
-77.799999999999983
20
-59.600000000000001
42
0.41421356237309503
10
-82.799999999999983
20
-64.600000000000009
10
-82.799999999999983
20
-82.600000000000023
42
0.41421356237309503
10
-77.799999999999997
20
-87.59999999999998
10
-48.324999999999996
20
-87.59999999999998
42
0.41421356237309503
10
-43.324999999999996
20
-82.59999999999998
0
LWPOLYLINE
5
192
100
AcDbEntity
8
0
100
AcDbPolyline
90
8
70
1
43
0.0
10
-43.325000000000003
20
-98.999999999999986
42
0.41421356237309503
10
-48.324999999999996
20
-93.999999999999986
10
-77.799999999999983
20
-93.999999999999986
42
0.41421356237309609
10
-82.799999999999983
20
-99
10
-82.799999999999983
20
-117
42
0.41421356237309503
10
-77.799999999999997
20
-122
10
-48.324999999999996
20
-122
42
0.41421356237309503
10
-43.324999999999996
20
-117
0
LINE
5
193
100
AcDbEntity
8
0
100
AcDbLine
10
-11.799999999999997
20
-147.5
30
0
11
-81.799999999999997
21
-147.5
31
0
0
LINE
5
194
100
AcDbEntity
8
0
100
AcDbLine
10
-88.799999999999983
20
-135
30
0
11
-88.799999999999983
21
-147.5
31
0
0
LINE
5
195
100
AcDbEntity
8
0
100
AcDbLine
10
-4.7999999999999998
20
-135
30
0
11
-4.7999999999999998
21
-147.5
31
0
0
LINE
5
196
100
AcDbEntity
8
0
100
AcDbLine
10
-4.7999999999999998
20
-147.5
30
0
11
-4.7999999999999998
21
-152.5
31
0
0
LINE
5
197
100
AcDbEntity
8
0
100
AcDbLine
10
-88.799999999999983
20
-147.5
30
0
11
-88.799999999999983
21
-152.5
31
0
0
LINE
5
198
100
AcDbEntity
8
0
100
AcDbLine
10
-88.799999999999983
20
-152.5
30
0
11
-86.799999999999997
21
-152.5
31
0
0
LINE
5
199
100
AcDbEntity
8
0
100
AcDbLine
10
-4.7999999999999998
20
-152.5
30
0
11
-6.7999999999999989
21
-152.5
31
0
0
LINE
5
200
100
AcDbEntity
8
0
100
AcDbLine
10
-6.7999999999999989
20
-152.5
30
0
11
-6.800000000000006
21
-152.5
31
0
0
LINE
5
201
100
AcDbEntity
8
0
100
AcDbLine
10
-86.799999999999997
20
-152.5
30
0
11
-86.799999999999997
21
-152.5
31
0
0
ARC
5
202
100
AcDbEntity
8
0
100
AcDbCircle
10
-81.799999999999983
20
-152.50000000000003
30
0
40
5.0000000000000178
210
0
220
0
230
1
100
AcDbArc
50
90.000000000000171
51
180
0
ARC
5
203
100
AcDbEntity
8
0
100
AcDbCircle
10
-11.800000000000006
20
-152.5
30
0
40
5
210
0
220
-0
230
1
100
AcDbArc
50
0
51
89.999999999999901
0
ENDSEC
0
SECTION
2
OBJECTS
0
DICTIONARY
5
C
100
AcDbDictionary
3
ACAD_GROUP
350
D
3
ACAD_MLINESTYLE
350
17
0
DICTIONARY
5
D
100
AcDbDictionary
0
DICTIONARY
5
1A
330
C
100
AcDbDictionary
0
DICTIONARY
5
17
100
AcDbDictionary
0
ENDSEC
0
EOF
