0
SECTION
2
HEADER
9
$INSUNITS
70
4
9
$ACADVER
1
AC1014
9
$HANDSEED
5
FFFF
0
ENDSEC
0
SECTION
2
TABLES
0
TABLE
2
VPORT
5
8
100
AcDbSymbolTable
0
ENDTAB
0
TABLE
2
LTYPE
5
5
100
AcDbSymbolTable
0
LTYPE
5
14
100
AcDbSymbolTableRecord
100
AcDbLinetypeTableRecord
2
BYBLOCK
70
0
0
LTYPE
5
15
100
AcDbSymbolTableRecord
100
AcDbLinetypeTableRecord
2
BYLAYER
70
0
0
ENDTAB
0
TABLE
2
LAYER
5
2
100
AcDbSymbolTable
70
2
0
LAYER
5
50
100
AcDbSymbolTableRecord
100
AcDbLayerTableRecord
2
0
70
0
6
CONTINUOUS
0
ENDTAB
0
TABLE
2
STYLE
5
3
100
AcDbSymbolTable
70
1
0
STYLE
5
11
100
AcDbSymbolTableRecord
100
AcDbTextStyleTableRecord
2
STANDARD
70
0
0
ENDTAB
0
TABLE
2
VIEW
5
6
100
AcDbSymbolTable
70
0
0
ENDTAB
0
TABLE
2
UCS
5
7
100
AcDbSymbolTable
70
0
0
ENDTAB
0
TABLE
2
APPID
5
9
100
AcDbSymbolTable
70
2
0
APPID
5
12
100
AcDbSymbolTableRecord
100
AcDbRegAppTableRecord
2
ACAD
70
0
0
ENDTAB
0
TABLE
2
DIMSTYLE
5
A
100
AcDbSymbolTable
70
1
0
ENDTAB
0
TABLE
2
BLOCK_RECORD
5
1
100
AcDbSymbolTable
70
1
0
BLOCK_RECORD
5
1F
100
AcDbSymbolTableRecord
100
AcDbBlockTableRecord
2
*MODEL_SPACE
0
BLOCK_RECORD
5
1B
100
AcDbSymbolTableRecord
100
AcDbBlockTableRecord
2
*PAPER_SPACE
0
ENDTAB
0
ENDSEC
0
SECTION
2
BLOCKS
0
BLOCK
5
20
100
AcDbEntity
100
AcDbBlockBegin
2
*MODEL_SPACE
0
ENDBLK
5
21
100
AcDbEntity
100
AcDbBlockEnd
0
BLOCK
5
1C
100
AcDbEntity
100
AcDbBlockBegin
2
*PAPER_SPACE
0
ENDBLK
5
1D
100
AcDbEntity
100
AcDbBlockEnd
0
ENDSEC
0
SECTION
2
ENTITIES
0
CIRCLE
5
100
100
AcDbEntity
8
0
100
AcDbCircle
10
0
20
0
30
0
40
5.4500000000000002
210
0
220
0
230
1
0
CIRCLE
5
101
100
AcDbEntity
8
0
100
AcDbCircle
10
0
20
60
30
0
40
1.3999999999999999
210
0
220
0
230
1
0
CIRCLE
5
102
100
AcDbEntity
8
0
100
AcDbCircle
10
13
20
-130.50290362564908
30
0
40
1.3
210
0
220
0
230
1
0
CIRCLE
5
103
100
AcDbEntity
8
0
100
AcDbCircle
10
-41.825860060448633
20
-99.371402040665444
30
0
40
1.3
210
0
220
0
230
1
0
ARC
5
104
100
AcDbEntity
8
0
100
AcDbCircle
10
0
20
-100.00000149011612
30
0
40
17.000000298023217
210
0
220
-0
230
1
100
AcDbArc
50
90
51
110
0
ARC
5
105
100
AcDbEntity
8
0
100
AcDbCircle
10
0
20
-100.00000149011612
30
0
40
23.000000342726707
210
0
220
-0
230
1
100
AcDbArc
50
90
51
109.98310652189998
0
ARC
5
106
100
AcDbEntity
8
0
100
AcDbCircle
10
-6.8404041158700934
20
-81.206145641823255
30
0
40
3.0000033548470477
210
0
220
0
230
1
100
AcDbArc
50
109.87048336901753
51
290.00000000003058
0
ARC
5
107
100
AcDbEntity
8
0
100
AcDbCircle
10
6.8404041158700934
20
-81.206145641823255
30
0
40
3.000003354847057
210
0
220
0
230
1
100
AcDbArc
50
-110.00000000003061
51
70.129516630982479
0
ARC
5
108
100
AcDbEntity
8
0
100
AcDbCircle
10
0
20
-100.00000149011612
30
0
40
23.000000342726707
210
0
220
-0
230
1
100
AcDbArc
50
70.016893478100016
51
90
0
ARC
5
109
100
AcDbEntity
8
0
100
AcDbCircle
10
0
20
-100.00000149011612
30
0
40
17.00000029802322
210
0
220
-0
230
1
100
AcDbArc
50
70
51
90
0
CIRCLE
5
110
100
AcDbEntity
8
0
100
AcDbCircle
10
0
20
-100
30
0
40
7.9999999999999982
210
0
220
-0
230
1
0
LWPOLYLINE
5
111
100
AcDbEntity
8
0
100
AcDbPolyline
90
8
70
1
43
0.0
10
-12.5
20
-22.5
10
-12.500000000000004
20
-65
42
-0.41421356237309542
10
-22.5
20
-75
10
-64.997235837597913
20
-75
42
-0.41421356237309609
10
-74.997235837597913
20
-65
10
-74.997235837597913
20
-22.5
42
-0.41421356237309542
10
-64.997235837597913
20
-12.500000000000004
10
-22.5
20
-12.5
42
-0.41421356237309503
0
LWPOLYLINE
5
112
100
AcDbEntity
8
0
100
AcDbPolyline
90
8
70
1
43
0.0
10
75.000000000000071
20
-22.500000000000014
10
75.000000000000014
20
-64.999999999999972
42
-0.41421356237309453
10
65
20
-74.999999999999972
10
22.5
20
-74.999999999999972
42
-0.41421356237309515
10
12.5
20
-64.999999999999972
10
12.5
20
-22.5
42
-0.41421356237309503
10
22.5
20
-12.5
10
65.000000000000071
20
-12.5
42
-0.41421356237309542
0
LWPOLYLINE
5
113
100
AcDbEntity
8
0
100
AcDbPolyline
90
8
70
1
43
0.0
10
22.500000000000146
20
120
10
64.999742865307908
20
120
42
-0.41422109359708442
10
74.999742862002108
20
109.99974286861385
10
74.99749296237249
20
22.499742868613847
42
-0.41420603118921184
10
64.997492965678319
20
12.499999999999996
10
22.500000000000007
20
12.5
42
-0.41421356237309609
10
12.500000000000018
20
22.500000000000007
10
12.500000000000146
20
110.00000000000001
42
-0.41421356237309453
0
LWPOLYLINE
5
114
100
AcDbEntity
8
0
100
AcDbPolyline
90
8
70
1
43
0.0
10
-22.499999999999936
20
119.999030930354
10
-65.050423325675155
20
119.99903093035429
42
0.41437335441348178
10
-75.05042183764219
20
109.99357559734347
10
-75.002688195354253
20
22.49454466698916
42
0.4140537883855791
10
-65.002689683387274
20
12.499999999999991
10
-22.499999999999993
20
12.499999999999998
42
0.41421356237309531
10
-12.500000000000002
20
22.499999999999996
10
-12.500000000000021
20
109.999030930354
42
0.41421356237309254
0
LINE
5
115
100
AcDbEntity
8
0
100
AcDbLine
10
75.00000111758709
20
145.00000216066837
30
0
11
-75.05588014753107
21
144.9999997987106
31
0
0
LINE
5
116
100
AcDbEntity
8
0
100
AcDbLine
10
-95
20
-105
30
0
11
-95
21
-120
31
0
0
LINE
5
117
100
AcDbEntity
8
0
100
AcDbLine
10
-95
20
-120
30
0
11
-90.199999999999989
21
-120
31
0
0
LINE
5
118
100
AcDbEntity
8
0
100
AcDbLine
10
-90.199999999999989
20
-105
30
0
11
-95
21
-105
31
0
0
LINE
5
119
100
AcDbEntity
8
0
100
AcDbLine
10
-80.000001266598701
20
-135.00000201165676
30
0
11
-65.000001266598701
21
-135.00000201165676
31
0
0
LINE
5
120
100
AcDbEntity
8
0
100
AcDbLine
10
-80.000001266598701
20
-130.20000201165675
30
0
11
-80.000001266598701
21
-135.00000201165676
31
0
0
LINE
5
121
100
AcDbEntity
8
0
100
AcDbLine
10
-65.000001266598701
20
-135.00000201165676
30
0
11
-65.000001266598701
21
-130.20000201165675
31
0
0
LINE
5
122
100
AcDbEntity
8
0
100
AcDbLine
10
-40.000001266598701
20
-135.00000201165676
30
0
11
-25.000001266598701
21
-135.00000201165676
31
0
0
LINE
5
123
100
AcDbEntity
8
0
100
AcDbLine
10
-40.000001266598701
20
-130.20000201165675
30
0
11
-40.000001266598701
21
-135.00000201165676
31
0
0
LINE
5
124
100
AcDbEntity
8
0
100
AcDbLine
10
-25.000001266598701
20
-135.00000201165676
30
0
11
-25.000001266598701
21
-130.20000201165675
31
0
0
LINE
5
125
100
AcDbEntity
8
0
100
AcDbLine
10
24.999998733401299
20
-130.20000201165675
30
0
11
24.999998733401299
21
-135.00000201165676
31
0
0
LINE
5
126
100
AcDbEntity
8
0
100
AcDbLine
10
24.999998733401299
20
-135.00000201165676
30
0
11
39.999998733401299
21
-135.00000201165676
31
0
0
LINE
5
127
100
AcDbEntity
8
0
100
AcDbLine
10
39.999998733401299
20
-135.00000201165676
30
0
11
39.999998733401299
21
-130.20000201165675
31
0
0
LINE
5
128
100
AcDbEntity
8
0
100
AcDbLine
10
64.999998733401299
20
-130.20000201165675
30
0
11
64.999998733401299
21
-135.00000201165676
31
0
0
LINE
5
129
100
AcDbEntity
8
0
100
AcDbLine
10
64.999998733401299
20
-135.00000201165676
30
0
11
79.999998733401299
21
-135.00000201165676
31
0
0
LINE
5
130
100
AcDbEntity
8
0
100
AcDbLine
10
79.999998733401299
20
-135.00000201165676
30
0
11
79.999998733401299
21
-130.20000201165675
31
0
0
LINE
5
131
100
AcDbEntity
8
0
100
AcDbLine
10
95
20
-120
30
0
11
90.199999999999989
21
-120
31
0
0
LINE
5
132
100
AcDbEntity
8
0
100
AcDbLine
10
95
20
-105
30
0
11
95
21
-120
31
0
0
LINE
5
133
100
AcDbEntity
8
0
100
AcDbLine
10
90.199999999999989
20
-105
30
0
11
95
21
-105
31
0
0
LINE
5
134
100
AcDbEntity
8
0
100
AcDbLine
10
95
20
-80
30
0
11
90.199999999999989
21
-80
31
0
0
LINE
5
135
100
AcDbEntity
8
0
100
AcDbLine
10
95
20
-65
30
0
11
95
21
-80
31
0
0
LINE
5
136
100
AcDbEntity
8
0
100
AcDbLine
10
90.199999999999989
20
-65
30
0
11
95
21
-65
31
0
0
LINE
5
137
100
AcDbEntity
8
0
100
AcDbLine
10
95
20
-40
30
0
11
90.199999999999989
21
-40
31
0
0
LINE
5
138
100
AcDbEntity
8
0
100
AcDbLine
10
95
20
-25
30
0
11
95
21
-40
31
0
0
LINE
5
139
100
AcDbEntity
8
0
100
AcDbLine
10
90.199999999999989
20
-25
30
0
11
95
21
-25
31
0
0
LINE
5
140
100
AcDbEntity
8
0
100
AcDbLine
10
95
20
15
30
0
11
95
21
0
31
0
0
LINE
5
141
100
AcDbEntity
8
0
100
AcDbLine
10
90.199999999999989
20
15
30
0
11
95
21
15
31
0
0
LINE
5
142
100
AcDbEntity
8
0
100
AcDbLine
10
95
20
40
30
0
11
90.199999999999989
21
40
31
0
0
LINE
5
143
100
AcDbEntity
8
0
100
AcDbLine
10
95
20
55
30
0
11
95
21
40
31
0
0
LINE
5
144
100
AcDbEntity
8
0
100
AcDbLine
10
90.199999999999989
20
55
30
0
11
95
21
55
31
0
0
LINE
5
145
100
AcDbEntity
8
0
100
AcDbLine
10
95
20
80
30
0
11
90.199999999999989
21
80
31
0
0
LINE
5
146
100
AcDbEntity
8
0
100
AcDbLine
10
95
20
95
30
0
11
95
21
80
31
0
0
LINE
5
147
100
AcDbEntity
8
0
100
AcDbLine
10
90.199999999999989
20
95
30
0
11
95
21
95
31
0
0
LINE
5
148
100
AcDbEntity
8
0
100
AcDbLine
10
95
20
120
30
0
11
90.199999999999989
21
120
31
0
0
LINE
5
149
100
AcDbEntity
8
0
100
AcDbLine
10
95
20
135
30
0
11
95
21
120
31
0
0
LINE
5
150
100
AcDbEntity
8
0
100
AcDbLine
10
90.199999999999989
20
135
30
0
11
95
21
135
31
0
0
LINE
5
151
100
AcDbEntity
8
0
100
AcDbLine
10
-90.199999999999989
20
135
30
0
11
-95
21
135
31
0
0
LINE
5
152
100
AcDbEntity
8
0
100
AcDbLine
10
-95
20
135
30
0
11
-95
21
120
31
0
0
LINE
5
153
100
AcDbEntity
8
0
100
AcDbLine
10
-95
20
120
30
0
11
-90.199999999999989
21
120
31
0
0
LINE
5
154
100
AcDbEntity
8
0
100
AcDbLine
10
-90.199999999999989
20
95
30
0
11
-95
21
95
31
0
0
LINE
5
155
100
AcDbEntity
8
0
100
AcDbLine
10
-95
20
95
30
0
11
-95
21
80
31
0
0
LINE
5
156
100
AcDbEntity
8
0
100
AcDbLine
10
-95
20
80
30
0
11
-90.199999999999989
21
80
31
0
0
LINE
5
157
100
AcDbEntity
8
0
100
AcDbLine
10
-90.199999999999989
20
55
30
0
11
-95
21
55
31
0
0
LINE
5
158
100
AcDbEntity
8
0
100
AcDbLine
10
-95
20
55
30
0
11
-95
21
40
31
0
0
LINE
5
159
100
AcDbEntity
8
0
100
AcDbLine
10
-95
20
40
30
0
11
-90.199999999999989
21
40
31
0
0
LINE
5
160
100
AcDbEntity
8
0
100
AcDbLine
10
-90.199999999999989
20
15
30
0
11
-95
21
15
31
0
0
LINE
5
161
100
AcDbEntity
8
0
100
AcDbLine
10
-95
20
15
30
0
11
-95
21
0
31
0
0
LINE
5
162
100
AcDbEntity
8
0
100
AcDbLine
10
-95
20
0
30
0
11
-90.199999999999989
21
0
31
0
0
LINE
5
163
100
AcDbEntity
8
0
100
AcDbLine
10
-90.199999999999989
20
-25
30
0
11
-95
21
-25
31
0
0
LINE
5
164
100
AcDbEntity
8
0
100
AcDbLine
10
-95
20
-25
30
0
11
-95
21
-40
31
0
0
LINE
5
165
100
AcDbEntity
8
0
100
AcDbLine
10
-95
20
-40
30
0
11
-90.199999999999989
21
-40
31
0
0
LINE
5
166
100
AcDbEntity
8
0
100
AcDbLine
10
-90.199999999999989
20
-65
30
0
11
-95
21
-65
31
0
0
LINE
5
167
100
AcDbEntity
8
0
100
AcDbLine
10
-95
20
-65
30
0
11
-95
21
-80
31
0
0
LINE
5
168
100
AcDbEntity
8
0
100
AcDbLine
10
-95
20
-80
30
0
11
-90.199999999999989
21
-80
31
0
0
LINE
5
169
100
AcDbEntity
8
0
100
AcDbLine
10
-65.000001266598701
20
-130.20000201165675
30
0
11
-80.000001266598701
21
-130.20000201165675
31
0
0
LINE
5
170
100
AcDbEntity
8
0
100
AcDbLine
10
-25.000001266598701
20
-130.20000201165675
30
0
11
-40.000001266598701
21
-130.20000201165675
31
0
0
LINE
5
171
100
AcDbEntity
8
0
100
AcDbLine
10
39.999998733401299
20
-130.20000201165675
30
0
11
24.999998733401299
21
-130.20000201165675
31
0
0
LINE
5
172
100
AcDbEntity
8
0
100
AcDbLine
10
79.999998733401299
20
-130.20000201165675
30
0
11
64.999998733401299
21
-130.20000201165675
31
0
0
LINE
5
173
100
AcDbEntity
8
0
100
AcDbLine
10
90.199999999999989
20
-105
30
0
11
90.199999999999989
21
-80
31
0
0
LINE
5
174
100
AcDbEntity
8
0
100
AcDbLine
10
90.199999999999989
20
-65
30
0
11
90.199999999999989
21
-40
31
0
0
LINE
5
175
100
AcDbEntity
8
0
100
AcDbLine
10
90.199999999999989
20
15
30
0
11
90.199999999999989
21
40
31
0
0
LINE
5
176
100
AcDbEntity
8
0
100
AcDbLine
10
90.199999999999989
20
55
30
0
11
90.199999999999989
21
80
31
0
0
LINE
5
177
100
AcDbEntity
8
0
100
AcDbLine
10
90.199999999999989
20
95
30
0
11
90.199999999999989
21
120
31
0
0
LINE
5
178
100
AcDbEntity
8
0
100
AcDbLine
10
-90.199999999999989
20
-105
30
0
11
-90.199999999999989
21
-80
31
0
0
LINE
5
179
100
AcDbEntity
8
0
100
AcDbLine
10
-90.199999999999989
20
-65
30
0
11
-90.199999999999989
21
-40
31
0
0
LINE
5
180
100
AcDbEntity
8
0
100
AcDbLine
10
-90.199999999999989
20
-25
30
0
11
-90.199999999999989
21
0
31
0
0
LINE
5
181
100
AcDbEntity
8
0
100
AcDbLine
10
-90.199999999999989
20
15
30
0
11
-90.199999999999989
21
40
31
0
0
LINE
5
182
100
AcDbEntity
8
0
100
AcDbLine
10
-90.199999999999989
20
55
30
0
11
-90.199999999999989
21
80
31
0
0
LINE
5
183
100
AcDbEntity
8
0
100
AcDbLine
10
-90.199999999999989
20
95
30
0
11
-90.199999999999989
21
120
31
0
0
LINE
5
184
100
AcDbEntity
8
0
100
AcDbLine
10
-90.199999999999989
20
135
30
0
11
-90.200000157405199
21
144.9999997987106
31
0
0
LINE
5
185
100
AcDbEntity
8
0
100
AcDbLine
10
-90.200000157405199
20
144.9999997987106
30
0
11
-75.05588014753107
21
144.9999997987106
31
0
0
LINE
5
186
100
AcDbEntity
8
0
100
AcDbLine
10
75.00000111758709
20
145.00000216066837
30
0
11
90.199999999999989
21
145.00000216066837
31
0
0
LINE
5
187
100
AcDbEntity
8
0
100
AcDbLine
10
90.199999999999989
20
145.00000216066837
30
0
11
90.199999999999989
21
135
31
0
0
LWPOLYLINE
5
188
100
AcDbEntity
8
0
100
AcDbPolyline
90
4
70
1
43
0.0
10
-80
20
-90
10
-65
20
-90
10
-65
20
-85.199999999999989
10
-80
20
-85.199999999999989
0
LWPOLYLINE
5
189
100
AcDbEntity
8
0
100
AcDbPolyline
90
4
70
1
43
0.0
10
-55
20
-90
10
-50
20
-90
10
-50
20
-85.199999999999989
10
-55
20
-85.199999999999989
0
LWPOLYLINE
5
190
100
AcDbEntity
8
0
100
AcDbPolyline
90
4
70
1
43
0.0
10
65
20
-90
10
80
20
-90
10
80
20
-85.199999999999989
10
65
20
-85.199999999999989
0
LWPOLYLINE
5
191
100
AcDbEntity
8
0
100
AcDbPolyline
90
4
70
1
43
0.0
10
50
20
-90
10
55
20
-90
10
55
20
-85.199999999999989
10
50
20
-85.199999999999989
0
LINE
5
192
100
AcDbEntity
8
0
100
AcDbLine
10
-25
20
130
30
0
11
-25
21
134.80000000000001
31
0
0
LINE
5
193
100
AcDbEntity
8
0
100
AcDbLine
10
-80
20
130
30
0
11
-65
21
130
31
0
0
LINE
5
194
100
AcDbEntity
8
0
100
AcDbLine
10
-40
20
130
30
0
11
-25
21
130
31
0
0
LINE
5
195
100
AcDbEntity
8
0
100
AcDbLine
10
-65
20
130
30
0
11
-65
21
134.80000000000001
31
0
0
LINE
5
196
100
AcDbEntity
8
0
100
AcDbLine
10
-65
20
134.80000000000001
30
0
11
-80
21
134.80000000000001
31
0
0
LINE
5
197
100
AcDbEntity
8
0
100
AcDbLine
10
-25
20
134.80000000000001
30
0
11
-40
21
134.80000000000001
31
0
0
LWPOLYLINE
5
198
100
AcDbEntity
8
0
100
AcDbPolyline
90
4
70
1
43
0.0
10
4.999999925494194
20
129.99999865889549
10
4.999999925494194
20
134.7999986588955
10
-5.000000074505806
20
134.7999986588955
10
-5.000000074505806
20
129.99999865889549
0
LINE
5
199
100
AcDbEntity
8
0
100
AcDbLine
10
-80
20
134.80000000000001
30
0
11
-80
21
130
31
0
0
LINE
5
200
100
AcDbEntity
8
0
100
AcDbLine
10
80
20
134.80000000000001
30
0
11
65
21
134.80000000000001
31
0
0
LINE
5
201
100
AcDbEntity
8
0
100
AcDbLine
10
40
20
134.80000000000001
30
0
11
25
21
134.80000000000001
31
0
0
LINE
5
202
100
AcDbEntity
8
0
100
AcDbLine
10
40
20
130
30
0
11
40
21
134.80000000000001
31
0
0
LINE
5
203
100
AcDbEntity
8
0
100
AcDbLine
10
25
20
134.80000000000001
30
0
11
25
21
130
31
0
0
LINE
5
204
100
AcDbEntity
8
0
100
AcDbLine
10
80
20
130
30
0
11
80
21
134.80000000000001
31
0
0
LINE
5
205
100
AcDbEntity
8
0
100
AcDbLine
10
25
20
130
30
0
11
40
21
130
31
0
0
LINE
5
206
100
AcDbEntity
8
0
100
AcDbLine
10
65
20
130
30
0
11
80
21
130
31
0
0
LINE
5
207
100
AcDbEntity
8
0
100
AcDbLine
10
65
20
134.80000000000001
30
0
11
65
21
130
31
0
0
LINE
5
208
100
AcDbEntity
8
0
100
AcDbLine
10
-40
20
134.80000000000001
30
0
11
-40
21
130
31
0
0
LINE
5
209
100
AcDbEntity
8
0
100
AcDbLine
10
-90.199999999999989
20
-130
30
0
11
-95
21
-130
31
0
0
LINE
5
210
100
AcDbEntity
8
0
100
AcDbLine
10
-95
20
-130
30
0
11
-95
21
-135.00000203126353
31
0
0
LINE
5
211
100
AcDbEntity
8
0
100
AcDbLine
10
-90.199999999999989
20
-130
30
0
11
-90.199999999999989
21
-120
31
0
0
LINE
5
212
100
AcDbEntity
8
0
100
AcDbLine
10
90.199999999999989
20
-130
30
0
11
95
21
-130
31
0
0
LINE
5
213
100
AcDbEntity
8
0
100
AcDbLine
10
95
20
-130
30
0
11
94.999999999999986
21
-135.00000005489903
31
0
0
LINE
5
214
100
AcDbEntity
8
0
100
AcDbLine
10
90.199999999999989
20
-130
30
0
11
90.199999999999989
21
-120
31
0
0
LINE
5
215
100
AcDbEntity
8
0
100
AcDbLine
10
-89.999999945100981
20
-140.00000203126353
30
0
11
90.000000054899019
21
-140.00000005489903
31
0
0
ARC
5
216
100
AcDbEntity
8
0
100
AcDbCircle
10
-90
20
-135.00000203126353
30
0
40
5
210
0
220
0
230
1
100
AcDbArc
50
180
51
270.00000062909641
0
ARC
5
217
100
AcDbEntity
8
0
100
AcDbCircle
10
89.999999999999972
20
-135.000000054899
30
0
40
5.0000000000000178
210
0
220
0
230
1
100
AcDbArc
50
270.00000062909669
51
360
0
LINE
5
218
100
AcDbEntity
8
0
100
AcDbLine
10
75
20
-118
30
0
11
75
21
-102.47516409872149
31
0
0
ARC
5
219
100
AcDbEntity
8
0
100
AcDbCircle
10
69.999999999999972
20
-102.47516409872149
30
0
40
5.0000000000000266
210
0
220
-0
230
1
100
AcDbArc
50
0
51
95.194428907734832
0
LINE
5
220
100
AcDbEntity
8
0
100
AcDbLine
10
69.547321269787375
20
-97.495698066382943
30
0
11
24.54732126978768
21
-101.58660715729201
31
0
0
ARC
5
221
100
AcDbEntity
8
0
100
AcDbCircle
10
25.000000000000298
20
-106.56607318963076
30
0
40
5.0000000000002229
210
0
220
0
230
1
100
AcDbArc
50
95.194428907734832
51
180
0
LINE
5
222
100
AcDbEntity
8
0
100
AcDbLine
10
20.000000000000075
20
-106.56607318963076
30
0
11
20.000000000000075
21
-118.00000000000004
31
0
0
ARC
5
223
100
AcDbEntity
8
0
100
AcDbCircle
10
25.000000000000039
20
-118.00000000000004
30
0
40
4.9999999999999645
210
0
220
0
230
1
100
AcDbArc
50
180
51
269.9999999999996
0
ARC
5
224
100
AcDbEntity
8
0
100
AcDbCircle
10
70
20
-118
30
0
40
5
210
0
220
0
230
1
100
AcDbArc
50
-90
51
0
0
LINE
5
225
100
AcDbEntity
8
0
100
AcDbLine
10
25.000000000000007
20
-123
30
0
11
70
21
-123
31
0
0
LINE
5
226
100
AcDbEntity
8
0
100
AcDbLine
10
-19.999999999999993
20
-118.00000000000003
30
0
11
-19.999999999999996
21
-101.99999124906438
31
0
0
ARC
5
227
100
AcDbEntity
8
0
100
AcDbCircle
10
-69.999999999999872
20
-102.47516409872165
30
0
40
4.9999999999991553
210
0
220
-0
230
1
100
AcDbArc
50
84.80558112876983
51
180
0
LINE
5
228
100
AcDbEntity
8
0
100
AcDbLine
10
-74.999999999999986
20
-102.47516409872165
30
0
11
-74.999999999999986
21
-118.00000000000006
31
0
0
ARC
5
229
100
AcDbEntity
8
0
100
AcDbCircle
10
-70.000000000000014
20
-118.00000000000004
30
0
40
4.9999999999999645
210
0
220
0
230
1
100
AcDbArc
50
180
51
270
0
ARC
5
230
100
AcDbEntity
8
0
100
AcDbCircle
10
-24.999999999999979
20
-118.00000000000003
30
0
40
4.9999999999999822
210
0
220
0
230
1
100
AcDbArc
50
-90
51
0
0
LINE
5
231
100
AcDbEntity
8
0
100
AcDbLine
10
-70.000000000000014
20
-123
30
0
11
-24.999999999999982
21
-123
31
0
0
LINE
5
232
100
AcDbEntity
8
0
100
AcDbLine
10
-19.999999999999996
20
-101.99999124906438
30
0
11
-34.442160612527424
21
-100.68707010775839
31
0
0
LINE
5
233
100
AcDbEntity
8
0
100
AcDbLine
10
-49.325766886879052
20
-99.334017620617345
30
0
11
-69.547322142040684
21
-97.495697987088306
31
0
0
ARC
5
234
100
AcDbEntity
8
0
100
AcDbCircle
10
-41.825860060448633
20
-99.371402040665444
30
0
40
7.4999999999999964
210
0
220
0
230
1
100
AcDbArc
50
179.71440288555451
51
349.8967593719874
0
LINE
5
235
100
AcDbEntity
8
0
100
AcDbLine
10
95
20
0
30
0
11
90.199999999999989
21
0
31
0
0
LINE
5
236
100
AcDbEntity
8
0
100
AcDbLine
10
90.199999999999989
20
0
30
0
11
90.199999999999989
21
-25
31
0
0
LINE
5
237
100
AcDbEntity
8
0
100
AcDbLine
10
-65
20
5
30
0
11
-65
21
-5
31
0
0
LINE
5
238
100
AcDbEntity
8
0
100
AcDbLine
10
-65
20
-5
30
0
11
-69.800000000000011
21
-5
31
0
0
LINE
5
239
100
AcDbEntity
8
0
100
AcDbLine
10
-69.800000000000011
20
-5
30
0
11
-69.800000000000011
21
5
31
0
0
LINE
5
240
100
AcDbEntity
8
0
100
AcDbLine
10
-69.800000000000011
20
5
30
0
11
-65
21
5
31
0
0
LINE
5
241
100
AcDbEntity
8
0
100
AcDbLine
10
65
20
-5
30
0
11
69.800000000000011
21
-5
31
0
0
LINE
5
242
100
AcDbEntity
8
0
100
AcDbLine
10
69.800000000000011
20
-5
30
0
11
69.800000000000011
21
5
31
0
0
LINE
5
243
100
AcDbEntity
8
0
100
AcDbLine
10
69.800000000000011
20
5
30
0
11
65
21
5
31
0
0
LINE
5
244
100
AcDbEntity
8
0
100
AcDbLine
10
65
20
5
30
0
11
65
21
-5
31
0
0
LWPOLYLINE
5
245
100
AcDbEntity
8
0
100
AcDbPolyline
90
4
70
1
43
0.0
10
-80.000001192092896
20
7.6999999999999975
10
-75.00000111758709
20
7.6999999999999975
10
-75.00000111758709
20
12.499999999999998
10
-80.000001192092896
20
12.499999999999998
0
LWPOLYLINE
5
246
100
AcDbEntity
8
0
100
AcDbPolyline
90
4
70
1
43
0.0
10
-80.000001192092896
20
-7.6999999999999975
10
-75.00000111758709
20
-7.6999999999999975
10
-75.00000111758709
20
-12.499999999999998
10
-80.000001192092896
20
-12.499999999999998
0
LINE
5
247
100
AcDbEntity
8
0
100
AcDbLine
10
-80.000001192092896
20
-7.6999999999999975
30
0
11
-75.00000111758709
21
-7.6999999999999975
31
0
0
LINE
5
248
100
AcDbEntity
8
0
100
AcDbLine
10
-75.00000111758709
20
-7.6999999999999975
30
0
11
-75.00000111758709
21
-12.499999999999998
31
0
0
LINE
5
249
100
AcDbEntity
8
0
100
AcDbLine
10
-80.000001192092896
20
-12.499999999999998
30
0
11
-80.000001192092896
21
-7.6999999999999975
31
0
0
LINE
5
250
100
AcDbEntity
8
0
100
AcDbLine
10
80.000001192092896
20
-12.5
30
0
11
80.000001192092896
21
-7.6999999999999957
31
0
0
LINE
5
251
100
AcDbEntity
8
0
100
AcDbLine
10
75.00000111758709
20
-7.6999999999999957
30
0
11
75.00000111758709
21
-12.5
31
0
0
LINE
5
252
100
AcDbEntity
8
0
100
AcDbLine
10
80.000001192092896
20
-7.6999999999999957
30
0
11
75.00000111758709
21
-7.6999999999999957
31
0
0
LINE
5
253
100
AcDbEntity
8
0
100
AcDbLine
10
80.000001192092896
20
-12.5
30
0
11
75.00000111758709
21
-12.5
31
0
0
LWPOLYLINE
5
254
100
AcDbEntity
8
0
100
AcDbPolyline
90
4
70
1
43
0.0
10
75.00000111758709
20
7.6999999999999957
10
75.00000111758709
20
12.5
10
80.000001192092896
20
12.5
10
80.000001192092896
20
7.6999999999999957
0
ENDSEC
0
SECTION
2
OBJECTS
0
DICTIONARY
5
C
100
AcDbDictionary
3
ACAD_GROUP
350
D
3
ACAD_MLINESTYLE
350
17
0
DICTIONARY
5
D
100
AcDbDictionary
0
DICTIONARY
5
1A
330
C
100
AcDbDictionary
0
DICTIONARY
5
17
100
AcDbDictionary
0
ENDSEC
0
EOF
