0
SECTION
2
HEADER
9
$INSUNITS
70
4
9
$ACADVER
1
AC1014
9
$HANDSEED
5
FFFF
0
ENDSEC
0
SECTION
2
TABLES
0
TABLE
2
VPORT
5
8
100
AcDbSymbolTable
0
ENDTAB
0
TABLE
2
LTYPE
5
5
100
AcDbSymbolTable
0
LTYPE
5
14
100
AcDbSymbolTableRecord
100
AcDbLinetypeTableRecord
2
BYBLOCK
70
0
0
LTYPE
5
15
100
AcDbSymbolTableRecord
100
AcDbLinetypeTableRecord
2
BYLAYER
70
0
0
ENDTAB
0
TABLE
2
LAYER
5
2
100
AcDbSymbolTable
70
2
0
LAYER
5
50
100
AcDbSymbolTableRecord
100
AcDbLayerTableRecord
2
0
70
0
6
CONTINUOUS
0
ENDTAB
0
TABLE
2
STYLE
5
3
100
AcDbSymbolTable
70
1
0
STYLE
5
11
100
AcDbSymbolTableRecord
100
AcDbTextStyleTableRecord
2
STANDARD
70
0
0
ENDTAB
0
TABLE
2
VIEW
5
6
100
AcDbSymbolTable
70
0
0
ENDTAB
0
TABLE
2
UCS
5
7
100
AcDbSymbolTable
70
0
0
ENDTAB
0
TABLE
2
APPID
5
9
100
AcDbSymbolTable
70
2
0
APPID
5
12
100
AcDbSymbolTableRecord
100
AcDbRegAppTableRecord
2
ACAD
70
0
0
ENDTAB
0
TABLE
2
DIMSTYLE
5
A
100
AcDbSymbolTable
70
1
0
ENDTAB
0
TABLE
2
BLOCK_RECORD
5
1
100
AcDbSymbolTable
70
1
0
BLOCK_RECORD
5
1F
100
AcDbSymbolTableRecord
100
AcDbBlockTableRecord
2
*MODEL_SPACE
0
BLOCK_RECORD
5
1B
100
AcDbSymbolTableRecord
100
AcDbBlockTableRecord
2
*PAPER_SPACE
0
ENDTAB
0
ENDSEC
0
SECTION
2
BLOCKS
0
BLOCK
5
20
100
AcDbEntity
100
AcDbBlockBegin
2
*MODEL_SPACE
0
ENDBLK
5
21
100
AcDbEntity
100
AcDbBlockEnd
0
BLOCK
5
1C
100
AcDbEntity
100
AcDbBlockBegin
2
*PAPER_SPACE
0
ENDBLK
5
1D
100
AcDbEntity
100
AcDbBlockEnd
0
ENDSEC
0
SECTION
2
ENTITIES
0
CIRCLE
5
100
100
AcDbEntity
8
0
100
AcDbCircle
10
87.500001080334187
20
225.00000350177288
30
0
40
1.5000000000000036
210
0
220
0
230
1
0
CIRCLE
5
101
100
AcDbEntity
8
0
100
AcDbCircle
10
-87.500001080334172
20
225.00000350177285
30
0
40
1.4999999999999858
210
0
220
0
230
1
0
CIRCLE
5
102
100
AcDbEntity
8
0
100
AcDbCircle
10
0
20
-100
30
0
40
7.9999999999999982
210
0
220
0
230
1
0
LINE
5
103
100
AcDbEntity
8
0
100
AcDbLine
10
99.999999999999986
20
-130
30
0
11
100
21
241
31
0
0
LINE
5
104
100
AcDbEntity
8
0
100
AcDbLine
10
-100
20
-130
30
0
11
-100
21
241
31
0
0
LWPOLYLINE
5
105
100
AcDbEntity
8
0
100
AcDbPolyline
90
4
70
1
43
0.0
10
-95
20
-120
10
-90.199999999999989
20
-120
10
-90.199999999999989
20
-105
10
-95
20
-105
0
LWPOLYLINE
5
106
100
AcDbEntity
8
0
100
AcDbPolyline
90
4
70
1
43
0.0
10
95
20
-120
10
90.199999999999989
20
-120
10
90.199999999999989
20
-105
10
95
20
-105
0
LWPOLYLINE
5
107
100
AcDbEntity
8
0
100
AcDbPolyline
90
4
70
1
43
0.0
10
-95
20
-80
10
-90.199999999999989
20
-80
10
-90.199999999999989
20
-65
10
-95
20
-65
0
LWPOLYLINE
5
108
100
AcDbEntity
8
0
100
AcDbPolyline
90
4
70
1
43
0.0
10
95
20
-80
10
90.199999999999989
20
-80
10
90.199999999999989
20
-65
10
95
20
-65
0
LWPOLYLINE
5
109
100
AcDbEntity
8
0
100
AcDbPolyline
90
4
70
1
43
0.0
10
-95
20
-40
10
-90.199999999999989
20
-40
10
-90.199999999999989
20
-25
10
-95
20
-25
0
LWPOLYLINE
5
110
100
AcDbEntity
8
0
100
AcDbPolyline
90
4
70
1
43
0.0
10
95
20
-40
10
90.199999999999989
20
-40
10
90.199999999999989
20
-25
10
95
20
-25
0
LWPOLYLINE
5
111
100
AcDbEntity
8
0
100
AcDbPolyline
90
4
70
1
43
0.0
10
-95
20
0
10
-90.199999999999989
20
0
10
-90.199999999999989
20
15
10
-95
20
15
0
LWPOLYLINE
5
112
100
AcDbEntity
8
0
100
AcDbPolyline
90
4
70
1
43
0.0
10
95
20
0
10
90.199999999999989
20
0
10
90.199999999999989
20
15
10
95
20
15
0
LWPOLYLINE
5
113
100
AcDbEntity
8
0
100
AcDbPolyline
90
4
70
1
43
0.0
10
-95
20
40
10
-90.199999999999989
20
40
10
-90.199999999999989
20
55
10
-95
20
55
0
LWPOLYLINE
5
114
100
AcDbEntity
8
0
100
AcDbPolyline
90
4
70
1
43
0.0
10
95
20
40
10
90.199999999999989
20
40
10
90.199999999999989
20
55
10
95
20
55
0
LWPOLYLINE
5
115
100
AcDbEntity
8
0
100
AcDbPolyline
90
4
70
1
43
0.0
10
-95
20
80
10
-90.199999999999989
20
80
10
-90.199999999999989
20
95
10
-95
20
95
0
LWPOLYLINE
5
116
100
AcDbEntity
8
0
100
AcDbPolyline
90
4
70
1
43
0.0
10
95
20
80
10
90.199999999999989
20
80
10
90.199999999999989
20
95
10
95
20
95
0
LWPOLYLINE
5
117
100
AcDbEntity
8
0
100
AcDbPolyline
90
4
70
1
43
0.0
10
-95
20
120
10
-90.199999999999989
20
120
10
-90.199999999999989
20
135
10
-95
20
135
0
LWPOLYLINE
5
118
100
AcDbEntity
8
0
100
AcDbPolyline
90
4
70
1
43
0.0
10
95
20
120
10
90.199999999999989
20
120
10
90.199999999999989
20
135
10
95
20
135
0
LWPOLYLINE
5
119
100
AcDbEntity
8
0
100
AcDbPolyline
90
4
70
1
43
0.0
10
-95
20
160
10
-90.199999999999989
20
160
10
-90.199999999999989
20
175
10
-95
20
175
0
LWPOLYLINE
5
120
100
AcDbEntity
8
0
100
AcDbPolyline
90
4
70
1
43
0.0
10
95
20
160
10
90.199999999999989
20
160
10
90.199999999999989
20
175
10
95
20
175
0
LWPOLYLINE
5
121
100
AcDbEntity
8
0
100
AcDbPolyline
90
4
70
1
43
0.0
10
-80.000001266598701
20
-135.00000201165676
10
-65.000001266598701
20
-135.00000201165676
10
-65.000001266598701
20
-130.20000201165675
10
-80.000001266598701
20
-130.20000201165675
0
LWPOLYLINE
5
122
100
AcDbEntity
8
0
100
AcDbPolyline
90
4
70
1
43
0.0
10
64.999998733401299
20
-135.00000201165676
10
79.999998733401299
20
-135.00000201165676
10
79.999998733401299
20
-130.20000201165675
10
64.999998733401299
20
-130.20000201165675
0
LWPOLYLINE
5
123
100
AcDbEntity
8
0
100
AcDbPolyline
90
4
70
1
43
0.0
10
39.999998733401299
20
-135.00000201165676
10
39.999998733401299
20
-130.20000201165675
10
24.999998733401299
20
-130.20000201165675
10
24.999998733401299
20
-135.00000201165676
0
LWPOLYLINE
5
124
100
AcDbEntity
8
0
100
AcDbPolyline
90
4
70
1
43
0.0
10
-40.000001266598701
20
-135.00000201165676
10
-25.000001266598701
20
-135.00000201165676
10
-25.000001266598701
20
-130.20000201165675
10
-40.000001266598701
20
-130.20000201165675
0
LINE
5
125
100
AcDbEntity
8
0
100
AcDbLine
10
-90
20
-140
30
0
11
90
21
-140
31
0
0
ARC
5
126
100
AcDbEntity
8
0
100
AcDbCircle
10
-90
20
-130
30
0
40
10
210
0
220
0
230
1
100
AcDbArc
50
180
51
270
0
ARC
5
127
100
AcDbEntity
8
0
100
AcDbCircle
10
89.999999999999986
20
-130
30
0
40
10
210
0
220
0
230
1
100
AcDbArc
50
-89.999999999999901
51
0
0
LWPOLYLINE
5
128
100
AcDbEntity
8
0
100
AcDbPolyline
90
8
70
1
43
0.0
10
-67.328417053274393
20
-76.950121838146828
42
0.11831326942329219
10
67.333503409436986
20
-76.951304471287202
42
0.34679683221036517
10
74.999989243120169
20
-67.227379694685567
10
74.99998920979111
20
99.101222314741534
42
0.58034650359254547
10
67.461218736485534
20
103.40873255661808
42
-0.27262761512580164
10
-67.458178301582024
20
103.3740259328215
42
0.58017457695736518
10
-74.994732313847948
20
99.065210119003694
10
-74.994732363228195
20
-67.226237812636555
42
0.34679191312101082
0
LWPOLYLINE
5
129
100
AcDbEntity
8
0
100
AcDbPolyline
90
8
70
1
43
0.0
10
75
20
-118
10
75
20
-102.47516409872149
42
0.44102351503019793
10
69.547321269787375
20
-97.495698066382943
10
24.547321269787684
20
-101.58660715729201
42
0.38790240349276206
10
20.000000000000075
20
-106.56607318963076
10
20.000000000000075
20
-118.00000000000004
42
0.4142135623730932
10
25.000000000000007
20
-123
10
70
20
-123
42
0.41421356237309503
0
LWPOLYLINE
5
130
100
AcDbEntity
8
0
100
AcDbPolyline
90
7
70
1
43
0.0
10
-19.999999999999993
20
-118.00000000000003
10
-19.999999999999996
20
-101.99999124906438
10
-69.547322142040684
20
-97.495697987088306
42
0.44102346271996656
10
-74.999999999999986
20
-102.47516409872165
10
-74.999999999999986
20
-118.00000000000006
42
0.41421356237309398
10
-70.000000000000014
20
-123
10
-24.999999999999979
20
-123
42
0.41421356237309503
0
LINE
5
131
100
AcDbEntity
8
0
100
AcDbLine
10
100
20
241
30
0
11
-100
21
241
31
0
0
LINE
5
132
100
AcDbEntity
8
0
100
AcDbLine
10
74.99998920979111
20
205
30
0
11
74.417570886026766
21
144.08024913835021
31
0
0
LINE
5
133
100
AcDbEntity
8
0
100
AcDbLine
10
-74.994732251274215
20
205
30
0
11
-74.994732251274229
21
144.70639529412549
31
0
0
ARC
5
134
100
AcDbEntity
8
0
100
AcDbCircle
10
-0.0023297961749301713
20
217.91701898820136
30
0
40
107.91701914677155
210
0
220
0
230
1
100
AcDbArc
50
269.99857852276853
51
311.14049415979946
0
ARC
5
135
100
AcDbEntity
8
0
100
AcDbCircle
10
0.027940321266122226
20
217.91701399191714
30
0
40
107.91701914677155
210
0
220
0
230
1
100
AcDbArc
50
228.3898292266862
51
269.98250737831177
0
LINE
5
136
100
AcDbEntity
8
0
100
AcDbLine
10
74.99998920979111
20
205
30
0
11
-74.994732251274215
21
205
31
0
0
ARC
5
137
100
AcDbEntity
8
0
100
AcDbCircle
10
-64.994732251274371
20
144.70639529412549
30
0
40
9.9999999999998579
210
0
220
0
230
1
100
AcDbArc
50
180
51
228.38982922668632
0
ARC
5
138
100
AcDbEntity
8
0
100
AcDbCircle
10
64.418027862713728
20
144.17584895620448
30
0
40
10.00000000001277
210
-0
220
0
230
1
100
AcDbArc
50
311.1404941597981
51
359.45224504774052
0
ENDSEC
0
SECTION
2
OBJECTS
0
DICTIONARY
5
C
100
AcDbDictionary
3
ACAD_GROUP
350
D
3
ACAD_MLINESTYLE
350
17
0
DICTIONARY
5
D
100
AcDbDictionary
0
DICTIONARY
5
1A
330
C
100
AcDbDictionary
0
DICTIONARY
5
17
100
AcDbDictionary
0
ENDSEC
0
EOF
