0
SECTION
2
HEADER
9
$INSUNITS
70
4
9
$ACADVER
1
AC1014
9
$HANDSEED
5
FFFF
0
ENDSEC
0
SECTION
2
TABLES
0
TABLE
2
VPORT
5
8
100
AcDbSymbolTable
0
ENDTAB
0
TABLE
2
LTYPE
5
5
100
AcDbSymbolTable
0
LTYPE
5
14
100
AcDbSymbolTableRecord
100
AcDbLinetypeTableRecord
2
BYBLOCK
70
0
0
LTYPE
5
15
100
AcDbSymbolTableRecord
100
AcDbLinetypeTableRecord
2
BYLAYER
70
0
0
ENDTAB
0
TABLE
2
LAYER
5
2
100
AcDbSymbolTable
70
2
0
LAYER
5
50
100
AcDbSymbolTableRecord
100
AcDbLayerTableRecord
2
0
70
0
6
CONTINUOUS
0
ENDTAB
0
TABLE
2
STYLE
5
3
100
AcDbSymbolTable
70
1
0
STYLE
5
11
100
AcDbSymbolTableRecord
100
AcDbTextStyleTableRecord
2
STANDARD
70
0
0
ENDTAB
0
TABLE
2
VIEW
5
6
100
AcDbSymbolTable
70
0
0
ENDTAB
0
TABLE
2
UCS
5
7
100
AcDbSymbolTable
70
0
0
ENDTAB
0
TABLE
2
APPID
5
9
100
AcDbSymbolTable
70
2
0
APPID
5
12
100
AcDbSymbolTableRecord
100
AcDbRegAppTableRecord
2
ACAD
70
0
0
ENDTAB
0
TABLE
2
DIMSTYLE
5
A
100
AcDbSymbolTable
70
1
0
ENDTAB
0
TABLE
2
BLOCK_RECORD
5
1
100
AcDbSymbolTable
70
1
0
BLOCK_RECORD
5
1F
100
AcDbSymbolTableRecord
100
AcDbBlockTableRecord
2
*MODEL_SPACE
0
BLOCK_RECORD
5
1B
100
AcDbSymbolTableRecord
100
AcDbBlockTableRecord
2
*PAPER_SPACE
0
ENDTAB
0
ENDSEC
0
SECTION
2
BLOCKS
0
BLOCK
5
20
100
AcDbEntity
100
AcDbBlockBegin
2
*MODEL_SPACE
0
ENDBLK
5
21
100
AcDbEntity
100
AcDbBlockEnd
0
BLOCK
5
1C
100
AcDbEntity
100
AcDbBlockBegin
2
*PAPER_SPACE
0
ENDBLK
5
1D
100
AcDbEntity
100
AcDbBlockEnd
0
ENDSEC
0
SECTION
2
ENTITIES
0
LINE
5
100
100
AcDbEntity
8
0
100
AcDbLine
10
-38.324999999999996
20
105
30
0
11
-38.324999999999996
21
120
31
0
0
LINE
5
101
100
AcDbEntity
8
0
100
AcDbLine
10
-38.324999999999996
20
65
30
0
11
-38.324999999999996
21
80
31
0
0
LINE
5
102
100
AcDbEntity
8
0
100
AcDbLine
10
-38.324999999999996
20
25
30
0
11
-38.324999999999996
21
40
31
0
0
LINE
5
103
100
AcDbEntity
8
0
100
AcDbLine
10
-38.324999999999996
20
-55
30
0
11
-38.324999999999996
21
-40
31
0
0
LINE
5
104
100
AcDbEntity
8
0
100
AcDbLine
10
-38.324999999999996
20
-95
30
0
11
-38.324999999999996
21
-80
31
0
0
LINE
5
105
100
AcDbEntity
8
0
100
AcDbLine
10
-38.324999999999996
20
-135
30
0
11
-38.324999999999996
21
-120
31
0
0
LINE
5
106
100
AcDbEntity
8
0
100
AcDbLine
10
-38.324999999999996
20
120
30
0
11
-33.524999999999999
21
120
31
0
0
LINE
5
107
100
AcDbEntity
8
0
100
AcDbLine
10
-4.7999999999999998
20
120
30
0
11
0
21
120
31
0
0
LINE
5
108
100
AcDbEntity
8
0
100
AcDbLine
10
-24.162499999999998
20
135
30
0
11
-14.162499999999998
21
135
31
0
0
LINE
5
109
100
AcDbEntity
8
0
100
AcDbLine
10
-14.162499999999998
20
135
30
0
11
-14.162499999999998
21
130.19999999999999
31
0
0
LINE
5
110
100
AcDbEntity
8
0
100
AcDbLine
10
0
20
120
30
0
11
0
21
105
31
0
0
LINE
5
111
100
AcDbEntity
8
0
100
AcDbLine
10
0
20
105
30
0
11
-4.7999999999999998
21
105
31
0
0
LINE
5
112
100
AcDbEntity
8
0
100
AcDbLine
10
-4.7999999999999998
20
105
30
0
11
-4.7999999999999998
21
80
31
0
0
LINE
5
113
100
AcDbEntity
8
0
100
AcDbLine
10
-4.7999999999999998
20
80
30
0
11
0
21
80
31
0
0
LINE
5
114
100
AcDbEntity
8
0
100
AcDbLine
10
0
20
80
30
0
11
0
21
65
31
0
0
LINE
5
115
100
AcDbEntity
8
0
100
AcDbLine
10
0
20
65
30
0
11
-4.7999999999999998
21
65
31
0
0
LINE
5
116
100
AcDbEntity
8
0
100
AcDbLine
10
-4.7999999999999998
20
65
30
0
11
-4.7999999999999998
21
40
31
0
0
LINE
5
117
100
AcDbEntity
8
0
100
AcDbLine
10
-4.7999999999999998
20
40
30
0
11
0
21
40
31
0
0
LINE
5
118
100
AcDbEntity
8
0
100
AcDbLine
10
0
20
40
30
0
11
0
21
25
31
0
0
LINE
5
119
100
AcDbEntity
8
0
100
AcDbLine
10
0
20
25
30
0
11
-4.7999999999999998
21
25
31
0
0
LINE
5
120
100
AcDbEntity
8
0
100
AcDbLine
10
-4.7999999999999998
20
25
30
0
11
-4.7999999999999998
21
0
31
0
0
LINE
5
121
100
AcDbEntity
8
0
100
AcDbLine
10
-4.7999999999999998
20
0
30
0
11
0
21
0
31
0
0
LINE
5
122
100
AcDbEntity
8
0
100
AcDbLine
10
0
20
0
30
0
11
0
21
-15
31
0
0
LINE
5
123
100
AcDbEntity
8
0
100
AcDbLine
10
0
20
-15
30
0
11
-4.7999999999999998
21
-15
31
0
0
LINE
5
124
100
AcDbEntity
8
0
100
AcDbLine
10
-4.7999999999999998
20
-15
30
0
11
-4.7999999999999998
21
-40
31
0
0
LINE
5
125
100
AcDbEntity
8
0
100
AcDbLine
10
-4.7999999999999998
20
-40
30
0
11
0
21
-40
31
0
0
LINE
5
126
100
AcDbEntity
8
0
100
AcDbLine
10
0
20
-40
30
0
11
0
21
-55
31
0
0
LINE
5
127
100
AcDbEntity
8
0
100
AcDbLine
10
0
20
-55
30
0
11
-4.7999999999999998
21
-55
31
0
0
LINE
5
128
100
AcDbEntity
8
0
100
AcDbLine
10
-4.7999999999999998
20
-55
30
0
11
-4.7999999999999998
21
-80
31
0
0
LINE
5
129
100
AcDbEntity
8
0
100
AcDbLine
10
-4.7999999999999998
20
-80
30
0
11
0
21
-80
31
0
0
LINE
5
130
100
AcDbEntity
8
0
100
AcDbLine
10
0
20
-80
30
0
11
0
21
-95
31
0
0
LINE
5
131
100
AcDbEntity
8
0
100
AcDbLine
10
0
20
-95
30
0
11
-4.7999999999999998
21
-95
31
0
0
LINE
5
132
100
AcDbEntity
8
0
100
AcDbLine
10
-4.7999999999999998
20
-95
30
0
11
-4.7999999999999998
21
-120
31
0
0
LINE
5
133
100
AcDbEntity
8
0
100
AcDbLine
10
-4.7999999999999998
20
-120
30
0
11
0
21
-120
31
0
0
LINE
5
134
100
AcDbEntity
8
0
100
AcDbLine
10
0
20
-120
30
0
11
0
21
-135
31
0
0
LINE
5
135
100
AcDbEntity
8
0
100
AcDbLine
10
0
20
-135
30
0
11
-4.7999999999999998
21
-135
31
0
0
LINE
5
136
100
AcDbEntity
8
0
100
AcDbLine
10
-4.7999999999999998
20
-135
30
0
11
-4.7999999999999998
21
-160
31
0
0
LINE
5
137
100
AcDbEntity
8
0
100
AcDbLine
10
-4.7999999999999998
20
-160
30
0
11
0
21
-160
31
0
0
LINE
5
138
100
AcDbEntity
8
0
100
AcDbLine
10
0
20
-160
30
0
11
0
21
-175
31
0
0
LINE
5
139
100
AcDbEntity
8
0
100
AcDbLine
10
0
20
-175
30
0
11
-4.7999999999999998
21
-175
31
0
0
LINE
5
140
100
AcDbEntity
8
0
100
AcDbLine
10
-33.524999999999999
20
120
30
0
11
-33.524999999999999
21
105
31
0
0
LINE
5
141
100
AcDbEntity
8
0
100
AcDbLine
10
-33.524999999999999
20
105
30
0
11
-38.324999999999996
21
105
31
0
0
LINE
5
142
100
AcDbEntity
8
0
100
AcDbLine
10
-38.324999999999996
20
80
30
0
11
-33.524999999999999
21
80
31
0
0
LINE
5
143
100
AcDbEntity
8
0
100
AcDbLine
10
-33.524999999999999
20
80
30
0
11
-33.524999999999999
21
65
31
0
0
LINE
5
144
100
AcDbEntity
8
0
100
AcDbLine
10
-33.524999999999999
20
65
30
0
11
-38.324999999999996
21
65
31
0
0
LINE
5
145
100
AcDbEntity
8
0
100
AcDbLine
10
-38.324999999999996
20
40
30
0
11
-33.524999999999999
21
40
31
0
0
LINE
5
146
100
AcDbEntity
8
0
100
AcDbLine
10
-33.524999999999999
20
40
30
0
11
-33.524999999999999
21
25
31
0
0
LINE
5
147
100
AcDbEntity
8
0
100
AcDbLine
10
-33.524999999999999
20
25
30
0
11
-38.324999999999996
21
25
31
0
0
LWPOLYLINE
5
148
100
AcDbEntity
8
0
100
AcDbPolyline
90
8
70
1
43
0.0
10
-38.324999999999996
20
0
10
-33.524999999999999
20
0
10
-33.524999999999999
20
-15
10
-38.324999999999996
20
-15
10
-38.324999999999996
20
-12.5
10
-43.324999999999996
20
-12.5
10
-43.324999999999996
20
-7.7000000000000002
10
-38.324999999999996
20
-7.7000000000000002
0
LINE
5
149
100
AcDbEntity
8
0
100
AcDbLine
10
-38.324999999999996
20
-40
30
0
11
-33.524999999999999
21
-40
31
0
0
LINE
5
150
100
AcDbEntity
8
0
100
AcDbLine
10
-33.524999999999999
20
-40
30
0
11
-33.524999999999999
21
-55
31
0
0
LINE
5
151
100
AcDbEntity
8
0
100
AcDbLine
10
-33.524999999999999
20
-55
30
0
11
-38.324999999999996
21
-55
31
0
0
LINE
5
152
100
AcDbEntity
8
0
100
AcDbLine
10
-38.324999999999996
20
-80
30
0
11
-33.524999999999999
21
-80
31
0
0
LINE
5
153
100
AcDbEntity
8
0
100
AcDbLine
10
-33.524999999999999
20
-80
30
0
11
-33.524999999999999
21
-95
31
0
0
LINE
5
154
100
AcDbEntity
8
0
100
AcDbLine
10
-33.524999999999999
20
-95
30
0
11
-38.324999999999996
21
-95
31
0
0
LINE
5
155
100
AcDbEntity
8
0
100
AcDbLine
10
-38.324999999999996
20
-120
30
0
11
-33.524999999999999
21
-120
31
0
0
LINE
5
156
100
AcDbEntity
8
0
100
AcDbLine
10
-33.524999999999999
20
-120
30
0
11
-33.524999999999999
21
-135
31
0
0
LINE
5
157
100
AcDbEntity
8
0
100
AcDbLine
10
-33.524999999999999
20
-135
30
0
11
-38.324999999999996
21
-135
31
0
0
LINE
5
158
100
AcDbEntity
8
0
100
AcDbLine
10
-24.162499999999998
20
135
30
0
11
-24.162499999999998
21
130.19999999999999
31
0
0
LINE
5
159
100
AcDbEntity
8
0
100
AcDbLine
10
-4.7999999999999998
20
120
30
0
11
-4.7999999999999998
21
130.19999999999999
31
0
0
LINE
5
160
100
AcDbEntity
8
0
100
AcDbLine
10
-4.7999999999999998
20
130.19999999999999
30
0
11
-14.162499999999998
21
130.19999999999999
31
0
0
LINE
5
161
100
AcDbEntity
8
0
100
AcDbLine
10
-101.57500000000002
20
40
30
0
11
-111.17500000000004
21
40
31
0
0
LINE
5
162
100
AcDbEntity
8
0
100
AcDbLine
10
-111.17500000000004
20
40
30
0
11
-111.17500000000004
21
25
31
0
0
LINE
5
163
100
AcDbEntity
8
0
100
AcDbLine
10
-111.17500000000004
20
25
30
0
11
-101.57500000000002
21
25
31
0
0
LINE
5
164
100
AcDbEntity
8
0
100
AcDbLine
10
-101.57500000000002
20
0
30
0
11
-106.37500000000003
21
0
31
0
0
LINE
5
165
100
AcDbEntity
8
0
100
AcDbLine
10
-106.37500000000003
20
0
30
0
11
-106.37500000000003
21
-15
31
0
0
LINE
5
166
100
AcDbEntity
8
0
100
AcDbLine
10
-106.37500000000003
20
-15
30
0
11
-101.57500000000002
21
-15
31
0
0
LINE
5
167
100
AcDbEntity
8
0
100
AcDbLine
10
-101.57500000000002
20
-15
30
0
11
-101.57500000000002
21
-40
31
0
0
LINE
5
168
100
AcDbEntity
8
0
100
AcDbLine
10
-101.57500000000002
20
-40
30
0
11
-111.17500000000004
21
-40
31
0
0
LINE
5
169
100
AcDbEntity
8
0
100
AcDbLine
10
-111.17500000000004
20
-40
30
0
11
-111.17500000000004
21
-55
31
0
0
LINE
5
170
100
AcDbEntity
8
0
100
AcDbLine
10
-111.17500000000004
20
-55
30
0
11
-101.57500000000002
21
-55
31
0
0
LINE
5
171
100
AcDbEntity
8
0
100
AcDbLine
10
-101.57500000000002
20
-55
30
0
11
-101.57500000000002
21
-80
31
0
0
LINE
5
172
100
AcDbEntity
8
0
100
AcDbLine
10
-101.57500000000002
20
-80
30
0
11
-106.37500000000003
21
-80
31
0
0
LINE
5
173
100
AcDbEntity
8
0
100
AcDbLine
10
-106.37500000000003
20
-80
30
0
11
-106.37500000000003
21
-95
31
0
0
LINE
5
174
100
AcDbEntity
8
0
100
AcDbLine
10
-106.37500000000003
20
-95
30
0
11
-101.57500000000002
21
-95
31
0
0
LINE
5
175
100
AcDbEntity
8
0
100
AcDbLine
10
-101.57500000000002
20
-95
30
0
11
-101.57500000000002
21
-120
31
0
0
LINE
5
176
100
AcDbEntity
8
0
100
AcDbLine
10
-101.57500000000002
20
-135
30
0
11
-101.57500000000002
21
-160
31
0
0
LINE
5
177
100
AcDbEntity
8
0
100
AcDbLine
10
-106.37500000000003
20
-160
30
0
11
-101.57500000000002
21
-160
31
0
0
LINE
5
178
100
AcDbEntity
8
0
100
AcDbLine
10
-106.37500000000003
20
-160
30
0
11
-106.37500000000003
21
-175
31
0
0
LINE
5
179
100
AcDbEntity
8
0
100
AcDbLine
10
-106.37500000000003
20
-175
30
0
11
-101.57500000000002
21
-175
31
0
0
LINE
5
180
100
AcDbEntity
8
0
100
AcDbLine
10
-101.57500000000002
20
25
30
0
11
-101.57500000000002
21
0
31
0
0
LINE
5
181
100
AcDbEntity
8
0
100
AcDbLine
10
-101.57500000000002
20
65
30
0
11
-101.57500000000002
21
40
31
0
0
LINE
5
182
100
AcDbEntity
8
0
100
AcDbLine
10
-101.57500000000002
20
90
30
0
11
-101.57500000000002
21
95
31
0
0
LINE
5
183
100
AcDbEntity
8
0
100
AcDbLine
10
-101.57500000000002
20
90
30
0
11
-101.57500000000002
21
80
31
0
0
LINE
5
184
100
AcDbEntity
8
0
100
AcDbLine
10
-24.162499999999998
20
130.19999999999999
30
0
11
-38.324999999999996
21
130.19999999999999
31
0
0
LINE
5
185
100
AcDbEntity
8
0
100
AcDbLine
10
-43.324999999999974
20
125.19999999999999
30
0
11
-43.324999999999996
21
95
31
0
0
LINE
5
186
100
AcDbEntity
8
0
100
AcDbLine
10
-43.324999999999996
20
95
30
0
11
-101.57500000000002
21
95
31
0
0
LWPOLYLINE
5
187
100
AcDbEntity
8
0
100
AcDbPolyline
90
4
70
1
43
0.0
10
-48.324999999999996
20
90
10
-63.324999999999996
20
90
10
-63.324999999999996
20
85.199999999999989
10
-48.324999999999996
20
85.199999999999989
0
LWPOLYLINE
5
188
100
AcDbEntity
8
0
100
AcDbPolyline
90
4
70
1
43
0.0
10
-76.575000000000017
20
90
10
-91.575000000000017
20
90
10
-91.575000000000017
20
85.199999999999989
10
-76.575000000000017
20
85.199999999999989
0
LWPOLYLINE
5
189
100
AcDbEntity
8
0
100
AcDbPolyline
90
4
70
1
43
0.0
10
-48.324999999999996
20
-130
10
-63.324999999999996
20
-130
10
-63.324999999999996
20
-134.80000000000001
10
-48.324999999999996
20
-134.80000000000001
0
LWPOLYLINE
5
190
100
AcDbEntity
8
0
100
AcDbPolyline
90
4
70
1
43
0.0
10
-76.575000000000017
20
-130
10
-91.575000000000017
20
-130
10
-91.575000000000017
20
-134.80000000000001
10
-76.575000000000017
20
-134.80000000000001
0
ARC
5
191
100
AcDbEntity
8
0
100
AcDbCircle
10
-38.324999999999982
20
125.19999999999999
30
0
40
5
210
0
220
0
230
1
100
AcDbArc
50
90.000000000000171
51
180
0
LWPOLYLINE
5
192
100
AcDbEntity
8
0
100
AcDbPolyline
90
4
70
1
43
0.0
10
-64.874999999999986
20
-7.7000000000000002
10
-59.874999999999986
20
-7.7000000000000002
10
-59.874999999999986
20
-12.5
10
-64.874999999999986
20
-12.5
0
LWPOLYLINE
5
193
100
AcDbEntity
8
0
100
AcDbPolyline
90
4
70
1
43
0.0
10
-64.874999999999986
20
-2.5
10
-69.674999999999997
20
-2.5
10
-69.674999999999997
20
2.5
10
-64.874999999999986
20
2.5
0
LWPOLYLINE
5
194
100
AcDbEntity
8
0
100
AcDbPolyline
90
4
70
1
43
0.0
10
-64.874999999999986
20
7.7000000000000002
10
-59.874999999999986
20
7.7000000000000002
10
-59.874999999999986
20
12.5
10
-64.874999999999986
20
12.5
0
LWPOLYLINE
5
195
100
AcDbEntity
8
0
100
AcDbPolyline
90
4
70
1
43
0.0
10
-38.324999999999996
20
12.5
10
-43.324999999999996
20
12.5
10
-43.324999999999996
20
7.7000000000000002
10
-38.324999999999996
20
7.7000000000000002
0
LWPOLYLINE
5
196
100
AcDbEntity
8
0
100
AcDbPolyline
90
8
70
1
43
0.0
10
-48.324999999999996
20
18.5
10
-90.575000000000045
20
18.5
42
-0.41421356237309659
10
-95.575000000000031
20
23.500000000000011
10
-95.575000000000017
20
41.375000000000014
42
-0.41421356237309503
10
-90.575000000000017
20
46.375000000000021
10
-48.324999999999996
20
46.375000000000014
42
-0.41421356237309503
10
-43.324999999999996
20
41.375000000000014
10
-43.324999999999996
20
23.5
42
-0.41421356237309531
0
LWPOLYLINE
5
197
100
AcDbEntity
8
0
100
AcDbPolyline
90
8
70
1
43
0.0
10
-90.575000000000031
20
80
10
-48.324999999999996
20
80
42
-0.41421356237309503
10
-43.324999999999996
20
75
10
-43.324999999999996
20
57.125
42
-0.41421356237309503
10
-48.324999999999996
20
52.125
10
-90.575000000000031
20
52.125
42
-0.41421356237309503
10
-95.575000000000017
20
57.124999999999986
10
-95.575000000000017
20
75
42
-0.41421356237309348
0
LWPOLYLINE
5
198
100
AcDbEntity
8
0
100
AcDbPolyline
90
8
70
1
43
0.0
10
-48.324999999999996
20
-18.499999999999996
10
-90.575000000000031
20
-18.5
42
0.41421356237309348
10
-95.575000000000017
20
-23.5
10
-95.575000000000017
20
-44.000000000000021
42
0.41421356237309398
10
-90.575000000000031
20
-49.000000000000021
10
-48.324999999999996
20
-49.000000000000021
42
0.41421356237309503
10
-43.324999999999996
20
-44.000000000000021
10
-43.324999999999996
20
-23.5
42
0.41421356237309531
0
LWPOLYLINE
5
199
100
AcDbEntity
8
0
100
AcDbPolyline
90
8
70
1
43
0.0
10
-90.575000000000031
20
-120
10
-48.324999999999996
20
-120
42
0.41421356237309453
10
-43.325000000000003
20
-115
10
-43.324999999999989
20
-94.5
42
0.41421356237309503
10
-48.325000000000003
20
-89.5
10
-90.575000000000017
20
-89.5
42
0.41421356237309503
10
-95.575000000000031
20
-94.500000000000014
10
-95.575000000000031
20
-115
42
0.41421356237309293
0
LWPOLYLINE
5
200
100
AcDbEntity
8
0
100
AcDbPolyline
90
8
70
1
43
0.0
10
-48.324999999999996
20
-54
10
-90.575000000000017
20
-54
42
0.41421356237309503
10
-95.575000000000017
20
-59.000000000000014
10
-95.575000000000017
20
-79.499999999999972
42
0.41421356237309193
10
-90.575000000000045
20
-84.5
10
-48.324999999999996
20
-84.5
42
0.41421356237309398
10
-43.325000000000003
20
-79.499999999999986
10
-43.324999999999996
20
-59
42
0.41421356237309503
0
LINE
5
201
100
AcDbEntity
8
0
100
AcDbLine
10
-4.7999999999999998
20
-175
30
0
11
-4.7999999999999998
21
-183
31
0
0
LINE
5
202
100
AcDbEntity
8
0
100
AcDbLine
10
-101.57500000000002
20
-175
30
0
11
-101.57500000000002
21
-183
31
0
0
LINE
5
203
100
AcDbEntity
8
0
100
AcDbLine
10
-4.7999999999999998
20
-183
30
0
11
-48.700508579870672
21
-165.9909889080788
31
0
0
LINE
5
204
100
AcDbEntity
8
0
100
AcDbLine
10
-58.132999170257584
20
-166.00629371950765
30
0
11
-101.57500000000002
21
-183
31
0
0
ARC
5
205
100
AcDbEntity
8
0
100
AcDbCircle
10
-53.39709763708305
20
-178.11295455840406
30
0
40
12.999999999999698
210
0
220
-0
230
1
100
AcDbArc
50
68.821414757697795
51
111.36451711748897
0
LINE
5
206
100
AcDbEntity
8
0
100
AcDbLine
10
-101.57500000000002
20
65
30
0
11
-106.37500000000003
21
65
31
0
0
LINE
5
207
100
AcDbEntity
8
0
100
AcDbLine
10
-106.37500000000003
20
65
30
0
11
-106.37500000000003
21
80
31
0
0
LINE
5
208
100
AcDbEntity
8
0
100
AcDbLine
10
-106.37500000000003
20
80
30
0
11
-101.57500000000002
21
80
31
0
0
LINE
5
209
100
AcDbEntity
8
0
100
AcDbLine
10
-101.57500000000002
20
-120
30
0
11
-106.37500000000003
21
-120
31
0
0
LINE
5
210
100
AcDbEntity
8
0
100
AcDbLine
10
-106.37500000000003
20
-120
30
0
11
-106.37500000000003
21
-135
31
0
0
LINE
5
211
100
AcDbEntity
8
0
100
AcDbLine
10
-106.37500000000003
20
-135
30
0
11
-101.57500000000002
21
-135
31
0
0
ENDSEC
0
SECTION
2
OBJECTS
0
DICTIONARY
5
C
100
AcDbDictionary
3
ACAD_GROUP
350
D
3
ACAD_MLINESTYLE
350
17
0
DICTIONARY
5
D
100
AcDbDictionary
0
DICTIONARY
5
1A
330
C
100
AcDbDictionary
0
DICTIONARY
5
17
100
AcDbDictionary
0
ENDSEC
0
EOF
