0
SECTION
2
HEADER
9
$INSUNITS
70
4
9
$ACADVER
1
AC1014
9
$HANDSEED
5
FFFF
0
ENDSEC
0
SECTION
2
TABLES
0
TABLE
2
VPORT
5
8
100
AcDbSymbolTable
0
ENDTAB
0
TABLE
2
LTYPE
5
5
100
AcDbSymbolTable
0
LTYPE
5
14
100
AcDbSymbolTableRecord
100
AcDbLinetypeTableRecord
2
BYBLOCK
70
0
0
LTYPE
5
15
100
AcDbSymbolTableRecord
100
AcDbLinetypeTableRecord
2
BYLAYER
70
0
0
ENDTAB
0
TABLE
2
LAYER
5
2
100
AcDbSymbolTable
70
2
0
LAYER
5
50
100
AcDbSymbolTableRecord
100
AcDbLayerTableRecord
2
0
70
0
6
CONTINUOUS
0
ENDTAB
0
TABLE
2
STYLE
5
3
100
AcDbSymbolTable
70
1
0
STYLE
5
11
100
AcDbSymbolTableRecord
100
AcDbTextStyleTableRecord
2
STANDARD
70
0
0
ENDTAB
0
TABLE
2
VIEW
5
6
100
AcDbSymbolTable
70
0
0
ENDTAB
0
TABLE
2
UCS
5
7
100
AcDbSymbolTable
70
0
0
ENDTAB
0
TABLE
2
APPID
5
9
100
AcDbSymbolTable
70
2
0
APPID
5
12
100
AcDbSymbolTableRecord
100
AcDbRegAppTableRecord
2
ACAD
70
0
0
ENDTAB
0
TABLE
2
DIMSTYLE
5
A
100
AcDbSymbolTable
70
1
0
ENDTAB
0
TABLE
2
BLOCK_RECORD
5
1
100
AcDbSymbolTable
70
1
0
BLOCK_RECORD
5
1F
100
AcDbSymbolTableRecord
100
AcDbBlockTableRecord
2
*MODEL_SPACE
0
BLOCK_RECORD
5
1B
100
AcDbSymbolTableRecord
100
AcDbBlockTableRecord
2
*PAPER_SPACE
0
ENDTAB
0
ENDSEC
0
SECTION
2
BLOCKS
0
BLOCK
5
20
100
AcDbEntity
100
AcDbBlockBegin
2
*MODEL_SPACE
0
ENDBLK
5
21
100
AcDbEntity
100
AcDbBlockEnd
0
BLOCK
5
1C
100
AcDbEntity
100
AcDbBlockBegin
2
*PAPER_SPACE
0
ENDBLK
5
1D
100
AcDbEntity
100
AcDbBlockEnd
0
ENDSEC
0
SECTION
2
ENTITIES
0
ARC
5
100
100
AcDbEntity
8
0
100
AcDbCircle
10
-1.7547333636768747
20
73.203141418404925
30
0
40
0.39999999999999092
210
-0
220
0
230
1
100
AcDbArc
50
-82.429539333023712
51
5.8495110470916014
0
ARC
5
101
100
AcDbEntity
8
0
100
AcDbCircle
10
-10.556876411567204
20
68.121221760259814
30
0
40
0.40000000000000119
210
0
220
0
230
1
100
AcDbArc
50
234.15048895291133
51
322.42953933302584
0
ARC
5
102
100
AcDbEntity
8
0
100
AcDbCircle
10
1.5795898946624476e-05
20
59.999987403190644
30
0
40
16.671889431174598
210
0
220
-0
230
1
100
AcDbArc
50
48.049258555720783
51
51.950741444279181
0
SPLINE
5
103
100
AcDbEntity
8
0
100
AcDbSpline
70
0
71
3
72
8
73
4
74
0
42
0.000000001
43
0.0000000001
44
0.0000000001
40
0
40
0
40
0
40
0
40
1
40
1
40
1
40
1
10
16.310558460330775
20
63.452246836816656
30
0
10
15.435560326046868
20
63.774244855070883
30
0
10
14.750238073491673
20
63.876342276317402
30
0
10
14.283073447371761
20
63.896801405452919
30
0
0
SPLINE
5
104
100
AcDbEntity
8
0
100
AcDbSpline
70
0
71
3
72
8
73
4
74
0
42
0.000000001
43
0.0000000001
44
0.0000000001
40
0
40
0
40
0
40
0
40
1
40
1
40
1
40
1
10
-13.446264906666929
20
66.195827177694667
30
0
10
-13.156163935071778
20
65.930787721014866
30
0
10
-12.958114927850652
20
65.815468414097367
30
0
10
-12.89068584560615
20
65.779914504723621
30
0
0
LINE
5
105
100
AcDbEntity
8
0
100
AcDbLine
10
-3.2546667823839837
20
72.90926553471769
30
0
11
-3.4536543766406247
21
73.698524129741017
31
0
0
ARC
5
106
100
AcDbEntity
8
0
100
AcDbCircle
10
1.5795898928860908e-05
20
59.999987403190644
30
0
40
12.91925
210
0
220
0
230
1
100
AcDbArc
50
157.57046066697799
51
162.42953933302203
0
ARC
5
107
100
AcDbEntity
8
0
100
AcDbCircle
10
6.1646852611170511
20
71.806734243328549
30
0
40
0.39999999999999636
210
0
220
0
230
1
100
AcDbArc
50
154.15048895290926
51
242.42953933302138
0
ARC
5
108
100
AcDbEntity
8
0
100
AcDbCircle
10
10.556908003365033
20
68.1212217602598
30
0
40
0.3999999999999968
210
0
220
0
230
1
100
AcDbArc
50
217.57046066697606
51
305.84951104709006
0
SPLINE
5
109
100
AcDbEntity
8
0
100
AcDbSpline
70
0
71
3
72
8
73
4
74
0
42
0.000000001
43
0.0000000001
44
0.0000000001
40
0
40
0
40
0
40
0
40
1
40
1
40
1
40
1
10
-1.3580090667728717
20
45.258235713349855
30
0
10
-1.256099317896795
20
44.80073218585509
30
0
10
-1.0365480256198789
20
44.143550549370978
30
0
10
-0.5675000493081761
20
43.3377599719391
30
0
0
SPLINE
5
110
100
AcDbEntity
8
0
100
AcDbSpline
70
0
71
3
72
8
73
4
74
0
42
0.000000001
43
0.0000000001
44
0.0000000001
40
0
40
0
40
0
40
0
40
1
40
1
40
1
40
1
10
1.4398029147018043
20
74.053626048106324
30
0
10
1.4427268671025306
20
74.129798300970833
30
0
10
1.4418819213757006
20
74.358973425877281
30
0
10
1.3580406585707416
20
74.741739093031455
30
0
0
SPLINE
5
111
100
AcDbEntity
8
0
100
AcDbSpline
70
0
71
3
72
8
73
4
74
0
42
0.000000001
43
0.0000000001
44
0.0000000001
40
0
40
0
40
0
40
0
40
1
40
1
40
1
40
1
10
12.088910789680387
20
68.54688819077721
30
0
10
11.714329401392913
20
68.428173108053102
30
0
10
11.515435448444915
20
68.31431729006411
30
0
10
11.450930318601166
20
68.273698946573361
30
0
0
ARC
5
112
100
AcDbEntity
8
0
100
AcDbCircle
10
1.5795898926640461e-05
20
59.999987403190644
30
0
40
16.671889431174598
210
0
220
0
230
1
100
AcDbArc
50
148.049258555721
51
151.95074144427898
0
LINE
5
113
100
AcDbEntity
8
0
100
AcDbLine
10
-7.47361856268975
20
71.017573801155592
30
0
11
-7.9305480744315631
21
71.691176513283182
31
0
0
SPLINE
5
114
100
AcDbEntity
8
0
100
AcDbSpline
70
0
71
3
72
8
73
4
74
0
42
0.000000001
43
0.0000000001
44
0.0000000001
40
0
40
0
40
0
40
0
40
1
40
1
40
1
40
1
10
-14.713654365802427
20
67.839617979816879
30
0
10
-14.25034324377215
20
67.030515228021301
30
0
10
-13.790982897814663
20
66.511787413233748
30
0
10
-13.446264906666929
20
66.195827177694667
30
0
0
ARC
5
115
100
AcDbEntity
8
0
100
AcDbCircle
10
1.579589894440403e-05
20
59.999987403190659
30
0
40
12.91925
210
0
220
-0
230
1
100
AcDbArc
50
17.570460666978331
51
22.42953933302158
0
LINE
5
116
100
AcDbEntity
8
0
100
AcDbLine
10
6.1596006305217994
20
47.286323070103123
30
0
11
5.8047083256321228
21
48.018836991074103
31
0
0
SPLINE
5
117
100
AcDbEntity
8
0
100
AcDbSpline
70
0
71
3
72
8
73
4
74
0
42
0.000000001
43
0.0000000001
44
0.0000000001
40
0
40
0
40
0
40
0
40
1
40
1
40
1
40
1
10
-5.1655111663424158
20
44.148513389469741
30
0
10
-4.4491536354240369
20
44.745284992896551
30
0
10
-4.0180735486860897
20
45.287742762764786
30
0
10
-3.7667731100554347
20
45.682089632166409
30
0
0
ARC
5
118
100
AcDbEntity
8
0
100
AcDbCircle
10
1.5795898928860908e-05
20
59.999987403190644
30
0
40
16.671889431174606
210
-0
220
0
230
1
100
AcDbArc
50
308.04925855572088
51
311.95074144427923
0
ARC
5
119
100
AcDbEntity
8
0
100
AcDbCircle
10
1.5795898931081354e-05
20
59.999987403190637
30
0
40
16.671889431174602
210
-0
220
0
230
1
100
AcDbArc
50
348.04925855572094
51
351.950741444279
0
SPLINE
5
120
100
AcDbEntity
8
0
100
AcDbSpline
70
0
71
3
72
8
73
4
74
0
42
0.000000001
43
0.0000000001
44
0.0000000001
40
0
40
0
40
0
40
0
40
1
40
1
40
1
40
1
10
14.283073447371761
20
63.896801405452919
30
0
10
13.890479131305911
20
63.913360098350296
30
0
10
13.664638968214852
20
63.87439636464638
30
0
10
13.590131682035462
20
63.858289660753982
30
0
0
ARC
5
121
100
AcDbEntity
8
0
100
AcDbCircle
10
12.697875240473229
20
64.020781614330318
30
0
40
0.39999999999994351
210
0
220
0
230
1
100
AcDbArc
50
197.5704606669758
51
285.84951104709012
0
ARC
5
122
100
AcDbEntity
8
0
100
AcDbCircle
10
1.579589895550626e-05
20
59.999987403190644
30
0
40
12.919249999999995
210
0
220
-0
230
1
100
AcDbArc
50
77.570460666978377
51
82.429539333021694
0
SPLINE
5
123
100
AcDbEntity
8
0
100
AcDbSpline
70
0
71
3
72
8
73
4
74
0
42
0.000000001
43
0.0000000001
44
0.0000000001
40
0
40
0
40
0
40
0
40
1
40
1
40
1
40
1
10
6.2321236619806815
20
44.536717090904354
30
0
10
6.3972879753316132
20
45.454336406500644
30
0
10
6.3788293470669615
20
46.146976105272657
30
0
10
6.3178553700632882
20
46.610596141499727
30
0
0
SPLINE
5
124
100
AcDbEntity
8
0
100
AcDbSpline
70
0
71
3
72
8
73
4
74
0
42
0.000000001
43
0.0000000001
44
0.0000000001
40
0
40
0
40
0
40
0
40
1
40
1
40
1
40
1
10
10.136461509495838
20
69.840221872177651
30
0
10
10.187663967327564
20
69.896693722829852
30
0
10
10.334327632087096
20
70.072795174409649
30
0
10
10.516138526871305
20
70.419902811661288
30
0
0
SPLINE
5
125
100
AcDbEntity
8
0
100
AcDbSpline
70
0
71
3
72
8
73
4
74
0
42
0.000000001
43
0.0000000001
44
0.0000000001
40
0
40
0
40
0
40
0
40
1
40
1
40
1
40
1
10
-10.516252949619478
20
70.42107117195269
30
0
10
-10.334296040289193
20
70.072795174409606
30
0
10
-10.187632375529736
20
69.896693722829838
30
0
10
-10.136429917698013
20
69.840221872177707
30
0
0
SPLINE
5
126
100
AcDbEntity
8
0
100
AcDbSpline
70
0
71
3
72
8
73
4
74
0
42
0.000000001
43
0.0000000001
44
0.0000000001
40
0
40
0
40
0
40
0
40
1
40
1
40
1
40
1
10
12.890717437404016
20
65.779914504723592
30
0
10
12.958146519648551
20
65.815468414097353
30
0
10
13.156195526869601
20
65.930787721014838
30
0
10
13.445759686919121
20
66.194779218066373
30
0
0
SPLINE
5
127
100
AcDbEntity
8
0
100
AcDbSpline
70
0
71
3
72
8
73
4
74
0
42
0.000000001
43
0.0000000001
44
0.0000000001
40
0
40
0
40
0
40
0
40
1
40
1
40
1
40
1
10
11.450930318601177
20
51.72627585980797
30
0
10
11.515435448444961
20
51.685657516317171
30
0
10
11.714329401392876
20
51.571801698328258
30
0
10
12.087734824247288
20
51.453027528225604
30
0
0
SPLINE
5
128
100
AcDbEntity
8
0
100
AcDbSpline
70
0
71
3
72
8
73
4
74
0
42
0.000000001
43
0.0000000001
44
0.0000000001
40
0
40
0
40
0
40
0
40
1
40
1
40
1
40
1
10
-6.3178237782654278
20
73.389378664881576
30
0
10
-6.265957619863296
20
72.999873351785297
30
0
10
-6.1883691000605889
20
72.784230189584406
30
0
10
-6.1595690387239399
20
72.71365173627818
30
0
0
SPLINE
5
129
100
AcDbEntity
8
0
100
AcDbSpline
70
0
71
3
72
8
73
4
74
0
42
0.000000001
43
0.0000000001
44
0.0000000001
40
0
40
0
40
0
40
0
40
1
40
1
40
1
40
1
10
-3.7658342876353434
20
74.317174541763094
30
0
10
-4.0180735486860719
20
74.712232043616524
30
0
10
-4.4491536354240102
20
75.254689813484759
30
0
10
-5.1655111663423909
20
75.851461416911562
30
0
0
SPLINE
5
130
100
AcDbEntity
8
0
100
AcDbSpline
70
0
71
3
72
8
73
4
74
0
42
0.000000001
43
0.0000000001
44
0.0000000001
40
0
40
0
40
0
40
0
40
1
40
1
40
1
40
1
10
14.713685957600298
20
52.160356826564424
30
0
10
14.250374835569925
20
52.969459578359974
30
0
10
13.791014489612529
20
53.48818739314757
30
0
10
13.4462964984648
20
53.804147628686636
30
0
0
ARC
5
131
100
AcDbEntity
8
0
100
AcDbCircle
10
2.8668355879497298
20
46.992921444935256
30
0
40
0.39999999999999847
210
0
220
-0
230
1
100
AcDbArc
50
14.150488952910225
51
102.42953933301757
0
LINE
5
132
100
AcDbEntity
8
0
100
AcDbLine
10
12.890717437404017
20
54.220060301657682
30
0
11
12.148003287014568
21
54.553078143968648
31
0
0
SPLINE
5
133
100
AcDbEntity
8
0
100
AcDbSpline
70
0
71
3
72
8
73
4
74
0
42
0.000000001
43
0.0000000001
44
0.0000000001
40
0
40
0
40
0
40
0
40
1
40
1
40
1
40
1
10
10.516138526871305
20
70.419902811661288
30
0
10
10.732148728906676
20
70.83587717048978
30
0
10
10.986390894723934
20
71.480432361604571
30
0
10
11.145031498089512
20
72.399201983285607
30
0
0
SPLINE
5
134
100
AcDbEntity
8
0
100
AcDbSpline
70
0
71
3
72
8
73
4
74
0
42
0.000000001
43
0.0000000001
44
0.0000000001
40
0
40
0
40
0
40
0
40
1
40
1
40
1
40
1
10
14.090164500852339
20
61.022462626185636
30
0
10
14.165687265043674
20
61.032810268090657
30
0
10
14.391233981563346
20
61.073438219999915
30
0
10
14.753625695664317
20
61.222472306207365
30
0
0
ARC
5
135
100
AcDbEntity
8
0
100
AcDbCircle
10
1.5795898924420015e-05
20
59.99998740319068
30
0
40
16.671889431174598
210
0
220
-0
230
1
100
AcDbArc
50
28.049258555720751
51
31.950741444279132
0
SPLINE
5
136
100
AcDbEntity
8
0
100
AcDbSpline
70
0
71
3
72
8
73
4
74
0
42
0.000000001
43
0.0000000001
44
0.0000000001
40
0
40
0
40
0
40
0
40
1
40
1
40
1
40
1
10
3.7658658794332025
20
45.682800264618209
30
0
10
4.0181051404839394
20
45.287742762764786
30
0
10
4.4491852272218804
20
44.745284992896543
30
0
10
5.1655427581402611
20
44.148513389469741
30
0
0
SPLINE
5
137
100
AcDbEntity
8
0
100
AcDbSpline
70
0
71
3
72
8
73
4
74
0
42
0.000000001
43
0.0000000001
44
0.0000000001
40
0
40
0
40
0
40
0
40
1
40
1
40
1
40
1
10
8.4355237275370492
20
47.8342288839766
30
0
10
8.8076687232247171
20
47.549267172915748
30
0
10
9.3982829838985698
20
47.186961682533536
30
0
10
10.275546778883713
20
46.871188515895916
30
0
0
LINE
5
138
100
AcDbEntity
8
0
100
AcDbLine
10
9.5524373131787961
20
69.273264263001806
30
0
11
10.136461509495838
21
69.840221872177651
31
0
0
SPLINE
5
139
100
AcDbEntity
8
0
100
AcDbSpline
70
0
71
3
72
8
73
4
74
0
42
0.000000001
43
0.0000000001
44
0.0000000001
40
0
40
0
40
0
40
0
40
1
40
1
40
1
40
1
10
0.56753164110604937
20
43.337759971939143
30
0
10
1.0365796174177433
20
44.143550549371007
30
0
10
1.2561309096946649
20
44.800732185855125
30
0
10
1.3574015046833898
20
45.257246841100091
30
0
0
ARC
5
140
100
AcDbEntity
8
0
100
AcDbCircle
10
1.5795898924420015e-05
20
59.999987403190701
30
0
40
12.91925
210
0
220
0
230
1
100
AcDbArc
50
117.57046066697798
51
122.42953933302199
0
SPLINE
5
141
100
AcDbEntity
8
0
100
AcDbSpline
70
0
71
3
72
8
73
4
74
0
42
0.000000001
43
0.0000000001
44
0.0000000001
40
0
40
0
40
0
40
0
40
1
40
1
40
1
40
1
10
6.3181177640261987
20
73.388230825421402
30
0
10
6.3788293470669579
20
73.852998701108646
30
0
10
6.3972879753316327
20
74.54563839988063
30
0
10
6.2321236619806797
20
75.463257715476942
30
0
0
SPLINE
5
142
100
AcDbEntity
8
0
100
AcDbSpline
70
0
71
3
72
8
73
4
74
0
42
0.000000001
43
0.0000000001
44
0.0000000001
40
0
40
0
40
0
40
0
40
1
40
1
40
1
40
1
10
-11.45089872680332
20
68.273698946573347
30
0
10
-11.515403856647094
20
68.314317290064139
30
0
10
-11.714297809595005
20
68.428173108053045
30
0
10
-12.087703232449423
20
68.546947278155699
30
0
0
LINE
5
143
100
AcDbEntity
8
0
100
AcDbLine
10
1.3568477508618115
20
73.243907804963413
30
0
11
1.4398029147018043
21
74.053626048106324
31
0
0
LINE
5
144
100
AcDbEntity
8
0
100
AcDbLine
10
3.4536859684385055
20
73.698524129740974
30
0
11
3.2546983741818583
21
72.909265534717619
31
0
0
SPLINE
5
145
100
AcDbEntity
8
0
100
AcDbSpline
70
0
71
3
72
8
73
4
74
0
42
0.000000001
43
0.0000000001
44
0.0000000001
40
0
40
0
40
0
40
0
40
1
40
1
40
1
40
1
10
16.507654644965424
20
57.665515978199124
30
0
10
15.795555163331226
20
58.267362127157796
30
0
10
15.186482274392766
20
58.597696335547617
30
0
10
14.754488556814865
20
58.776701340606209
30
0
0
ARC
5
146
100
AcDbEntity
8
0
100
AcDbCircle
10
1.7547649554747502
20
73.203141418404869
30
0
40
0.40000000000001945
210
0
220
0
230
1
100
AcDbArc
50
174.15048895290045
51
262.42953933302397
0
SPLINE
5
147
100
AcDbEntity
8
0
100
AcDbSpline
70
0
71
3
72
8
73
4
74
0
42
0.000000001
43
0.0000000001
44
0.0000000001
40
0
40
0
40
0
40
0
40
1
40
1
40
1
40
1
10
-6.2320920701828131
20
75.463257715476956
30
0
10
-6.3972563835337537
20
74.545638399880659
30
0
10
-6.3787977552690922
20
73.852998701108646
30
0
10
-6.3178237782654278
20
73.389378664881576
30
0
0
LINE
5
148
100
AcDbEntity
8
0
100
AcDbLine
10
13.590131682035462
20
63.858289660753982
30
0
11
12.807119891461662
21
63.635988674906514
31
0
0
LINE
5
149
100
AcDbEntity
8
0
100
AcDbLine
10
-10.136429917698013
20
69.840221872177707
30
0
11
-9.5524057213809055
21
69.273264263001749
31
0
0
SPLINE
5
150
100
AcDbEntity
8
0
100
AcDbSpline
70
0
71
3
72
8
73
4
74
0
42
0.000000001
43
0.0000000001
44
0.0000000001
40
0
40
0
40
0
40
0
40
1
40
1
40
1
40
1
10
3.4536859684384935
20
46.301450676640286
30
0
10
3.4769907967861391
20
46.228872122095751
30
0
10
3.5561672951178203
20
46.013806936811974
30
0
10
3.7658658794332025
20
45.682800264618209
30
0
0
SPLINE
5
151
100
AcDbEntity
8
0
100
AcDbSpline
70
0
71
3
72
8
73
4
74
0
42
0.000000001
43
0.0000000001
44
0.0000000001
40
0
40
0
40
0
40
0
40
1
40
1
40
1
40
1
10
14.753625695664317
20
61.222472306207365
30
0
10
15.186482274392713
20
61.402278470833693
30
0
10
15.79555516333129
20
61.732612679223507
30
0
10
16.50765464496542
20
62.334458828182164
30
0
0
ARC
5
152
100
AcDbEntity
8
0
100
AcDbCircle
10
1.5795898939963138e-05
20
59.999987403190659
30
0
40
16.671889431174595
210
-0
220
0
230
1
100
AcDbArc
50
328.049258555721
51
331.950741444279
0
SPLINE
5
153
100
AcDbEntity
8
0
100
AcDbSpline
70
0
71
3
72
8
73
4
74
0
42
0.000000001
43
0.0000000001
44
0.0000000001
40
0
40
0
40
0
40
0
40
1
40
1
40
1
40
1
10
6.1596006305218065
20
72.713651736278223
30
0
10
6.1884006918584609
20
72.784230189584378
30
0
10
6.2659892116611822
20
72.999873351785268
30
0
10
6.3181177640261987
20
73.388230825421402
30
0
0
ARC
5
154
100
AcDbEntity
8
0
100
AcDbCircle
10
13.307293228119059
20
60.564600460446499
30
0
40
0.39999999999999702
210
0
220
0
230
1
100
AcDbArc
50
94.150488952910337
51
182.42953933302334
0
SPLINE
5
155
100
AcDbEntity
8
0
100
AcDbSpline
70
0
71
3
72
8
73
4
74
0
42
0.000000001
43
0.0000000001
44
0.0000000001
40
0
40
0
40
0
40
0
40
1
40
1
40
1
40
1
10
10.516284541417358
20
49.578903634428627
30
0
10
10.334327632087073
20
49.927179631971697
30
0
10
10.187663967327602
20
50.103281083551472
30
0
10
10.136461509495891
20
50.159752934203595
30
0
0
LINE
5
156
100
AcDbEntity
8
0
100
AcDbLine
10
-12.89068584560615
20
65.779914504723621
30
0
11
-12.147971695216695
21
65.446896662412655
31
0
0
ARC
5
157
100
AcDbEntity
8
0
100
AcDbCircle
10
1.5795898906656447e-05
20
59.999987403190637
30
0
40
16.671889431174613
210
0
220
0
230
1
100
AcDbArc
50
108.04925855572067
51
111.950741444279
0
ARC
5
158
100
AcDbEntity
8
0
100
AcDbCircle
10
1.579589884892485e-05
20
59.99998740319068
30
0
40
12.919250000000099
210
-0
220
0
230
1
100
AcDbArc
50
337.57046066697836
51
342.42953933302198
0
SPLINE
5
159
100
AcDbEntity
8
0
100
AcDbSpline
70
0
71
3
72
8
73
4
74
0
42
0.000000001
43
0.0000000001
44
0.0000000001
40
0
40
0
40
0
40
0
40
1
40
1
40
1
40
1
10
14.146170112393152
20
68.82258425781599
30
0
10
13.213811014051156
20
68.825896432179661
30
0
10
12.534899375816844
20
68.687442610483117
30
0
10
12.088910789680387
20
68.54688819077721
30
0
0
SPLINE
5
160
100
AcDbEntity
8
0
100
AcDbSpline
70
0
71
3
72
8
73
4
74
0
42
0.000000001
43
0.0000000001
44
0.0000000001
40
0
40
0
40
0
40
0
40
1
40
1
40
1
40
1
10
-12.087703232449423
20
68.546947278155699
30
0
10
-12.534867784018919
20
68.687442610483146
30
0
10
-13.213779422253298
20
68.825896432179704
30
0
10
-14.146138520595253
20
68.822584257816047
30
0
0
SPLINE
5
161
100
AcDbEntity
8
0
100
AcDbSpline
70
0
71
3
72
8
73
4
74
0
42
0.000000001
43
0.0000000001
44
0.0000000001
40
0
40
0
40
0
40
0
40
1
40
1
40
1
40
1
10
13.590131682035409
20
56.141685145627321
30
0
10
13.664638968214771
20
56.125578441734937
30
0
10
13.890479131306002
20
56.086614708031007
30
0
10
14.281988610405669
20
56.102715673088888
30
0
0
SPLINE
5
162
100
AcDbEntity
8
0
100
AcDbSpline
70
0
71
3
72
8
73
4
74
0
42
0.000000001
43
0.0000000001
44
0.0000000001
40
0
40
0
40
0
40
0
40
1
40
1
40
1
40
1
10
11.14503149808948
20
47.600772823095731
30
0
10
10.986390894723888
20
48.519542444776775
30
0
10
10.732148728906701
20
49.164097635891501
30
0
10
10.516284541417358
20
49.578903634428627
30
0
0
LINE
5
163
100
AcDbEntity
8
0
100
AcDbLine
10
10.136461509495891
20
50.159752934203595
30
0
11
9.5524373131787819
21
50.726710543379554
31
0
0
ARC
5
164
100
AcDbEntity
8
0
100
AcDbCircle
10
1.5795898942183584e-05
20
59.999987403190651
30
0
40
16.671889431174598
210
0
220
0
230
1
100
AcDbArc
50
248.04925855572102
51
251.95074144427889
0
LINE
5
165
100
AcDbEntity
8
0
100
AcDbLine
10
5.8047083256321317
20
71.981137815307122
30
0
11
6.1596006305218065
21
72.713651736278223
31
0
0
ARC
5
166
100
AcDbEntity
8
0
100
AcDbCircle
10
-6.1646536693191756
20
71.806734243328563
30
0
40
0.39999999999992369
210
-0
220
0
230
1
100
AcDbArc
50
-62.429539333009181
51
25.849511047100254
0
SPLINE
5
167
100
AcDbEntity
8
0
100
AcDbSpline
70
0
71
3
72
8
73
4
74
0
42
0.000000001
43
0.0000000001
44
0.0000000001
40
0
40
0
40
0
40
0
40
1
40
1
40
1
40
1
10
-7.9305480744315631
20
71.691176513283182
30
0
10
-7.9772707772862361
20
71.751407324684365
30
0
10
-8.1252289740032815
20
71.926422534976041
30
0
10
-8.435492135739171
20
72.165745922404696
30
0
0
ARC
5
168
100
AcDbEntity
8
0
100
AcDbCircle
10
1.5795898939963138e-05
20
59.999987403190651
30
0
40
16.671889431174588
210
0
220
-0
230
1
100
AcDbArc
50
8.0492585557207352
51
11.950741444279211
0
ARC
5
169
100
AcDbEntity
8
0
100
AcDbCircle
10
1.5795898935522246e-05
20
59.999987403190651
30
0
40
12.919250000000034
210
0
220
0
230
1
100
AcDbArc
50
97.570460666978349
51
102.42953933302159
0
SPLINE
5
170
100
AcDbEntity
8
0
100
AcDbSpline
70
0
71
3
72
8
73
4
74
0
42
0.000000001
43
0.0000000001
44
0.0000000001
40
0
40
0
40
0
40
0
40
1
40
1
40
1
40
1
10
-3.4536543766406247
20
73.698524129741017
30
0
10
-3.476959204988268
20
73.771102684285552
30
0
10
-3.5561357033199603
20
73.986167869569329
30
0
10
-3.7658342876353434
20
74.317174541763094
30
0
0
ARC
5
171
100
AcDbEntity
8
0
100
AcDbCircle
10
1.5795898935522246e-05
20
59.999987403190673
30
0
40
12.91925
210
0
220
-0
230
1
100
AcDbArc
50
57.570460666978285
51
62.429539333021602
0
LINE
5
172
100
AcDbEntity
8
0
100
AcDbLine
10
-14.0901329090544
20
61.022462626185643
30
0
11
-13.278311092422985
21
60.96355141734221
31
0
0
SPLINE
5
173
100
AcDbEntity
8
0
100
AcDbSpline
70
0
71
3
72
8
73
4
74
0
42
0.000000001
43
0.0000000001
44
0.0000000001
40
0
40
0
40
0
40
0
40
1
40
1
40
1
40
1
10
8.4366489826504676
20
72.166092602297084
30
0
10
8.1252605658011721
20
71.926422534975984
30
0
10
7.9773023690841054
20
71.751407324684408
30
0
10
7.9305796662294483
20
71.691176513283153
30
0
0
LINE
5
174
100
AcDbEntity
8
0
100
AcDbLine
10
-10.791139740253799
20
67.79699854574136
30
0
11
-11.45089872680332
21
68.273698946573347
31
0
0
ARC
5
175
100
AcDbEntity
8
0
100
AcDbCircle
10
1.5795898924420015e-05
20
59.999987403190659
30
0
40
12.919250000000012
210
0
220
0
230
1
100
AcDbArc
50
177.57046066697845
51
182.42953933302155
0
SPLINE
5
176
100
AcDbEntity
8
0
100
AcDbSpline
70
0
71
3
72
8
73
4
74
0
42
0.000000001
43
0.0000000001
44
0.0000000001
40
0
40
0
40
0
40
0
40
1
40
1
40
1
40
1
10
-11.144999906291609
20
72.399201983285579
30
0
10
-10.98635930292601
20
71.480432361604528
30
0
10
-10.73211713710883
20
70.835877170489795
30
0
10
-10.516252949619478
20
70.42107117195269
30
0
0
LINE
5
177
100
AcDbEntity
8
0
100
AcDbLine
10
14.090164500852271
20
58.977512180195653
30
0
11
13.278342684220853
21
59.036423389039108
31
0
0
SPLINE
5
178
100
AcDbEntity
8
0
100
AcDbSpline
70
0
71
3
72
8
73
4
74
0
42
0.000000001
43
0.0000000001
44
0.0000000001
40
0
40
0
40
0
40
0
40
1
40
1
40
1
40
1
10
6.3178553700632882
20
46.610596141499727
30
0
10
6.2659892116611644
20
47.000101454596013
30
0
10
6.1884006918584591
20
47.215744616796883
30
0
10
6.1596006305217994
20
47.286323070103123
30
0
0
ARC
5
179
100
AcDbEntity
8
0
100
AcDbCircle
10
7.1426237629009792
20
48.757853620308609
30
0
40
0.39999999999999064
210
0
220
-0
230
1
100
AcDbArc
50
34.15048895290726
51
122.42953933304273
0
SPLINE
5
180
100
AcDbEntity
8
0
100
AcDbSpline
70
0
71
3
72
8
73
4
74
0
42
0.000000001
43
0.0000000001
44
0.0000000001
40
0
40
0
40
0
40
0
40
1
40
1
40
1
40
1
10
10.275546778883699
20
73.12878629048538
30
0
10
9.3982829838985573
20
72.813013123847853
30
0
10
8.8076687232246833
20
72.450707633465598
30
0
10
8.4366489826504676
20
72.166092602297084
30
0
0
SPLINE
5
181
100
AcDbEntity
8
0
100
AcDbSpline
70
0
71
3
72
8
73
4
74
0
42
0.000000001
43
0.0000000001
44
0.0000000001
40
0
40
0
40
0
40
0
40
1
40
1
40
1
40
1
10
1.3574015046833898
20
45.257246841100091
30
0
10
1.4418819213756973
20
45.641001380503958
30
0
10
1.4427268671025384
20
45.870176505410498
30
0
10
1.4398029147018077
20
45.946348758274958
30
0
0
ARC
5
182
100
AcDbEntity
8
0
100
AcDbCircle
10
1.5795898924420015e-05
20
59.999987403190573
30
0
40
12.919249999999899
210
-0
220
0
230
1
100
AcDbArc
50
277.57046066697802
51
282.42953933302198
0
ARC
5
183
100
AcDbEntity
8
0
100
AcDbCircle
10
-13.307261636321188
20
59.435374345934804
30
0
40
0.3999999999999877
210
-0
220
0
230
1
100
AcDbArc
50
-85.84951104709026
51
2.4295393330254442
0
ARC
5
184
100
AcDbEntity
8
0
100
AcDbCircle
10
9.8310554484224646
20
51.013715656074993
30
0
40
0.39999999999997987
210
0
220
0
230
1
100
AcDbArc
50
137.57046066698757
51
225.84951104708921
0
LINE
5
185
100
AcDbEntity
8
0
100
AcDbLine
10
-5.8046767338342731
20
48.018836991074181
30
0
11
-6.1595690387239399
21
47.28632307010308
31
0
0
SPLINE
5
186
100
AcDbEntity
8
0
100
AcDbSpline
70
0
71
3
72
8
73
4
74
0
42
0.000000001
43
0.0000000001
44
0.0000000001
40
0
40
0
40
0
40
0
40
1
40
1
40
1
40
1
10
-0.56750004930818054
20
76.662214834442167
30
0
10
-1.0365480256198745
20
75.856424257010303
30
0
10
-1.256099317896795
20
75.199242620526178
30
0
10
-1.357369912885511
20
74.742727965281219
30
0
0
LINE
5
187
100
AcDbEntity
8
0
100
AcDbLine
10
-6.1595690387239399
20
72.71365173627818
30
0
11
-5.8046767338342615
21
71.981137815307207
31
0
0
LINE
5
188
100
AcDbEntity
8
0
100
AcDbLine
10
-1.4397713229039288
20
74.053626048106352
30
0
11
-1.3568161590639516
21
73.243907804963413
31
0
0
ARC
5
189
100
AcDbEntity
8
0
100
AcDbCircle
10
1.5795898971049382e-05
20
59.999987403190673
30
0
40
12.919249999999991
210
-0
220
0
230
1
100
AcDbArc
50
-2.4295393330216681
51
2.4295393330213924
0
SPLINE
5
190
100
AcDbEntity
8
0
100
AcDbSpline
70
0
71
3
72
8
73
4
74
0
42
0.000000001
43
0.0000000001
44
0.0000000001
40
0
40
0
40
0
40
0
40
1
40
1
40
1
40
1
10
-8.435492135739171
20
72.165745922404696
30
0
10
-8.8076371314268478
20
72.450707633465555
30
0
10
-9.3982513921006916
20
72.813013123847767
30
0
10
-10.275515187085844
20
73.128786290485394
30
0
0
ARC
5
191
100
AcDbEntity
8
0
100
AcDbCircle
10
-12.311625571143026
20
65.081907061335727
30
0
40
0.40000000000000657
210
-0
220
0
230
1
100
AcDbArc
50
-22.429539333013352
51
65.849511047089692
0
ARC
5
192
100
AcDbEntity
8
0
100
AcDbCircle
10
1.5795898957726706e-05
20
59.999987403190651
30
0
40
16.671889431174595
210
-0
220
0
230
1
100
AcDbArc
50
288.04925855572094
51
291.950741444279
0
SPLINE
5
193
100
AcDbEntity
8
0
100
AcDbSpline
70
0
71
3
72
8
73
4
74
0
42
0.000000001
43
0.0000000001
44
0.0000000001
40
0
40
0
40
0
40
0
40
1
40
1
40
1
40
1
10
14.281988610405669
20
56.102715673088888
30
0
10
14.750238073491742
20
56.123632530063901
30
0
10
15.435560326046836
20
56.225729951310413
30
0
10
16.310558460330828
20
56.54772796956464
30
0
0
ARC
5
194
100
AcDbEntity
8
0
100
AcDbCircle
10
13.307293228119129
20
59.435374345934804
30
0
40
0.39999999999999841
210
0
220
0
230
1
100
AcDbArc
50
177.57046066697663
51
265.84951104708961
0
LINE
5
195
100
AcDbEntity
8
0
100
AcDbLine
10
13.278342684220783
20
60.963551417342202
30
0
11
14.090164500852339
21
61.022462626185636
31
0
0
ARC
5
196
100
AcDbEntity
8
0
100
AcDbCircle
10
9.8310554484224859
20
68.986259150306338
30
0
40
0.40000000000000202
210
0
220
0
230
1
100
AcDbArc
50
134.15048895290869
51
222.42953933302451
0
LINE
5
197
100
AcDbEntity
8
0
100
AcDbLine
10
1.4398029147018077
20
45.946348758274958
30
0
11
1.3568477508618182
21
46.756067001417925
31
0
0
LINE
5
198
100
AcDbEntity
8
0
100
AcDbLine
10
10.791171332051665
20
52.202976260639929
30
0
11
11.450930318601177
21
51.72627585980797
31
0
0
SPLINE
5
199
100
AcDbEntity
8
0
100
AcDbSpline
70
0
71
3
72
8
73
4
74
0
42
0.000000001
43
0.0000000001
44
0.0000000001
40
0
40
0
40
0
40
0
40
1
40
1
40
1
40
1
10
13.4462964984648
20
53.804147628686636
30
0
10
13.156195526869649
20
54.069187085366444
30
0
10
12.958146519648519
20
54.184506392283936
30
0
10
12.890717437404017
20
54.220060301657682
30
0
0
ARC
5
200
100
AcDbEntity
8
0
100
AcDbCircle
10
-2.8668039961518654
20
73.007053361446054
30
0
40
0.39999999999999636
210
0
220
0
230
1
100
AcDbArc
50
194.15048895291127
51
282.42953933302653
0
SPLINE
5
201
100
AcDbEntity
8
0
100
AcDbSpline
70
0
71
3
72
8
73
4
74
0
42
0.000000001
43
0.0000000001
44
0.0000000001
40
0
40
0
40
0
40
0
40
1
40
1
40
1
40
1
10
7.9305796662294403
20
48.308798293098135
30
0
10
7.9773023690841054
20
48.248567481696938
30
0
10
8.1252605658011525
20
48.073552271405262
30
0
10
8.4355237275370492
20
47.8342288839766
30
0
0
ARC
5
202
100
AcDbEntity
8
0
100
AcDbCircle
10
1.5795898922199569e-05
20
59.999987403190659
30
0
40
12.919249999999948
210
0
220
0
230
1
100
AcDbArc
50
137.57046066697842
51
142.42953933302158
0
ARC
5
203
100
AcDbEntity
8
0
100
AcDbCircle
10
12.311657162940895
20
54.918067745045569
30
0
40
0.39999999999999875
210
0
220
0
230
1
100
AcDbArc
50
157.57046066697521
51
245.84951104708975
0
SPLINE
5
204
100
AcDbEntity
8
0
100
AcDbSpline
70
0
71
3
72
8
73
4
74
0
42
0.000000001
43
0.0000000001
44
0.0000000001
40
0
40
0
40
0
40
0
40
1
40
1
40
1
40
1
10
3.7668047018533048
20
74.317885174214894
30
0
10
3.5561672951178167
20
73.986167869569286
30
0
10
3.4769907967861471
20
73.771102684285538
30
0
10
3.4536859684385055
20
73.698524129740974
30
0
0
ARC
5
205
100
AcDbEntity
8
0
100
AcDbCircle
10
1.5795898922199569e-05
20
59.999987403190723
30
0
40
12.919250000000106
210
-0
220
0
230
1
100
AcDbArc
50
297.57046066697802
51
302.42953933302101
0
ARC
5
206
100
AcDbEntity
8
0
100
AcDbCircle
10
1.5795898931081354e-05
20
59.999987403190644
30
0
40
12.919249999999954
210
0
220
0
230
1
100
AcDbArc
50
197.57046066697833
51
202.42953933302155
0
ARC
5
207
100
AcDbEntity
8
0
100
AcDbCircle
10
2.8668355879497387
20
73.007053361445969
30
0
40
0.39999999999995439
210
0
220
0
230
1
100
AcDbArc
50
257.57046066697455
51
345.84951104709074
0
ARC
5
208
100
AcDbEntity
8
0
100
AcDbCircle
10
12.311657162940911
20
65.081907061335741
30
0
40
0.39999999999998864
210
0
220
0
230
1
100
AcDbArc
50
114.15048895291045
51
202.4295393330261
0
LINE
5
209
100
AcDbEntity
8
0
100
AcDbLine
10
7.4736501544876308
20
48.982401005225718
30
0
11
7.9305796662294403
21
48.308798293098135
31
0
0
ARC
5
210
100
AcDbEntity
8
0
100
AcDbCircle
10
-9.8310238566245935
20
68.98625915030631
30
0
40
0.39999999999999919
210
-0
220
0
230
1
100
AcDbArc
50
-42.429539333024678
51
45.849511047088654
0
ARC
5
211
100
AcDbEntity
8
0
100
AcDbCircle
10
-7.1425921711031082
20
71.242121186072694
30
0
40
0.39999999999997737
210
0
220
0
230
1
100
AcDbArc
50
214.15048895290724
51
302.42953933301823
0
ARC
5
212
100
AcDbEntity
8
0
100
AcDbCircle
10
-2.8668039961518788
20
46.992921444935327
30
0
40
0.39999999999992941
210
0
220
-0
230
1
100
AcDbArc
50
77.570460666984701
51
165.84951104709228
0
ARC
5
213
100
AcDbEntity
8
0
100
AcDbCircle
10
1.5795898926640461e-05
20
59.999987403190659
30
0
40
16.671889431174595
210
0
220
-0
230
1
100
AcDbArc
50
68.049258555720684
51
71.950741444279146
0
SPLINE
5
214
100
AcDbEntity
8
0
100
AcDbSpline
70
0
71
3
72
8
73
4
74
0
42
0.000000001
43
0.0000000001
44
0.0000000001
40
0
40
0
40
0
40
0
40
1
40
1
40
1
40
1
10
-13.590100090237542
20
63.858289660753996
30
0
10
-13.664607376416903
20
63.87439636464638
30
0
10
-13.890447539508131
20
63.913360098350296
30
0
10
-14.281957018607802
20
63.89725913329243
30
0
0
SPLINE
5
215
100
AcDbEntity
8
0
100
AcDbSpline
70
0
71
3
72
8
73
4
74
0
42
0.000000001
43
0.0000000001
44
0.0000000001
40
0
40
0
40
0
40
0
40
1
40
1
40
1
40
1
10
5.1655427581402762
20
75.851461416911562
30
0
10
4.449185227221899
20
75.254689813484745
30
0
10
4.018105140483951
20
74.71223204361651
30
0
10
3.7668047018533048
20
74.317885174214894
30
0
0
LINE
5
216
100
AcDbEntity
8
0
100
AcDbLine
10
7.9305796662294483
20
71.691176513283153
30
0
11
7.4736501544876299
21
71.017573801155606
31
0
0
ARC
5
217
100
AcDbEntity
8
0
100
AcDbCircle
10
7.1426237629009801
20
71.242121186072737
30
0
40
0.39999999999997754
210
0
220
0
230
1
100
AcDbArc
50
237.57046066697671
51
325.84951104709012
0
LINE
5
218
100
AcDbEntity
8
0
100
AcDbLine
10
3.2546983741818503
20
47.090709271663613
30
0
11
3.4536859684384935
21
46.301450676640286
31
0
0
LINE
5
219
100
AcDbEntity
8
0
100
AcDbLine
10
12.148003287014586
20
65.446896662412655
30
0
11
12.890717437404016
21
65.779914504723592
31
0
0
ARC
5
220
100
AcDbEntity
8
0
100
AcDbCircle
10
10.55690800336507
20
51.878753046121481
30
0
40
0.40000000000000119
210
0
220
-0
230
1
100
AcDbArc
50
54.150488952910756
51
142.42953933301118
0
SPLINE
5
221
100
AcDbEntity
8
0
100
AcDbSpline
70
0
71
3
72
8
73
4
74
0
42
0.000000001
43
0.0000000001
44
0.0000000001
40
0
40
0
40
0
40
0
40
1
40
1
40
1
40
1
10
14.754488556814865
20
58.776701340606209
30
0
10
14.391233981563364
20
58.926536586381381
30
0
10
14.165687265043625
20
58.967164538290653
30
0
10
14.090164500852271
20
58.977512180195653
30
0
0
SPLINE
5
222
100
AcDbEntity
8
0
100
AcDbSpline
70
0
71
3
72
8
73
4
74
0
42
0.000000001
43
0.0000000001
44
0.0000000001
40
0
40
0
40
0
40
0
40
1
40
1
40
1
40
1
10
-1.357369912885511
20
74.742727965281219
30
0
10
-1.4418503295778273
20
74.358973425877338
30
0
10
-1.4426952753046685
20
74.129798300970805
30
0
10
-1.4397713229039288
20
74.053626048106352
30
0
0
ARC
5
223
100
AcDbEntity
8
0
100
AcDbCircle
10
1.5795898939963138e-05
20
59.999987403190651
30
0
40
12.919249999999954
210
0
220
-0
230
1
100
AcDbArc
50
37.570460666978413
51
42.429539333021609
0
SPLINE
5
224
100
AcDbEntity
8
0
100
AcDbSpline
70
0
71
3
72
8
73
4
74
0
42
0.000000001
43
0.0000000001
44
0.0000000001
40
0
40
0
40
0
40
0
40
1
40
1
40
1
40
1
10
1.3580406585707416
20
74.741739093031455
30
0
10
1.2561309096946727
20
75.199242620526221
30
0
10
1.0365796174177477
20
75.856424257010332
30
0
10
0.56753164110605603
20
76.66221483444221
30
0
0
LINE
5
225
100
AcDbEntity
8
0
100
AcDbLine
10
12.807119891461685
20
56.363986131474782
30
0
11
13.590131682035409
21
56.141685145627321
31
0
0
ARC
5
226
100
AcDbEntity
8
0
100
AcDbCircle
10
12.697875240473222
20
55.979193192050971
30
0
40
0.40000000000001101
210
0
220
-0
230
1
100
AcDbArc
50
74.150488952906002
51
162.42953933301149
0
LINE
5
227
100
AcDbEntity
8
0
100
AcDbLine
10
11.450930318601166
20
68.273698946573361
30
0
11
10.791171332051629
21
67.79699854574136
31
0
0
ARC
5
228
100
AcDbEntity
8
0
100
AcDbCircle
10
1.579589894440403e-05
20
59.999987403190659
30
0
40
16.671889431174609
210
0
220
0
230
1
100
AcDbArc
50
128.04925855572085
51
131.950741444279
0
SPLINE
5
229
100
AcDbEntity
8
0
100
AcDbSpline
70
0
71
3
72
8
73
4
74
0
42
0.000000001
43
0.0000000001
44
0.0000000001
40
0
40
0
40
0
40
0
40
1
40
1
40
1
40
1
10
13.445759686919121
20
66.194779218066373
30
0
10
13.79101448961257
20
66.511787413233733
30
0
10
14.250374835569939
20
67.030515228021301
30
0
10
14.713685957600219
20
67.839617979816865
30
0
0
ARC
5
230
100
AcDbEntity
8
0
100
AcDbCircle
10
1.5795899006576519e-05
20
59.999987403190602
30
0
40
12.9192499999999
210
-0
220
0
230
1
100
AcDbArc
50
317.57046066697802
51
322.42953933302203
0
ARC
5
231
100
AcDbEntity
8
0
100
AcDbCircle
10
6.1646852611170333
20
48.193240563052733
30
0
40
0.39999999999993086
210
0
220
0
230
1
100
AcDbArc
50
117.57046066698386
51
205.84951104709862
0
ARC
5
232
100
AcDbEntity
8
0
100
AcDbCircle
10
-7.1425921711031126
20
48.757853620308552
30
0
40
0.400000000000023
210
0
220
-0
230
1
100
AcDbArc
50
57.570460666988239
51
145.84951104708881
0
SPLINE
5
233
100
AcDbEntity
8
0
100
AcDbSpline
70
0
71
3
72
8
73
4
74
0
42
0.000000001
43
0.0000000001
44
0.0000000001
40
0
40
0
40
0
40
0
40
1
40
1
40
1
40
1
10
-14.753594103866448
20
58.777502500173938
30
0
10
-15.186450682594842
20
58.597696335547617
30
0
10
-15.795523571533421
20
58.267362127157796
30
0
10
-16.507623053167553
20
57.665515978199139
30
0
0
ARC
5
234
100
AcDbEntity
8
0
100
AcDbCircle
10
1.5795898931081354e-05
20
59.999987403190651
30
0
40
16.671889431174598
210
0
220
0
230
1
100
AcDbArc
50
188.04925855572097
51
191.95074144427892
0
SPLINE
5
235
100
AcDbEntity
8
0
100
AcDbSpline
70
0
71
3
72
8
73
4
74
0
42
0.000000001
43
0.0000000001
44
0.0000000001
40
0
40
0
40
0
40
0
40
1
40
1
40
1
40
1
10
-10.275515187085826
20
46.871188515895938
30
0
10
-9.3982513921006916
20
47.186961682533457
30
0
10
-8.8076371314268176
20
47.549267172915691
30
0
10
-8.4366173908525965
20
47.833882204084219
30
0
0
SPLINE
5
236
100
AcDbEntity
8
0
100
AcDbSpline
70
0
71
3
72
8
73
4
74
0
42
0.000000001
43
0.0000000001
44
0.0000000001
40
0
40
0
40
0
40
0
40
1
40
1
40
1
40
1
10
-10.136429917697969
20
50.159752934203645
30
0
10
-10.187632375529695
20
50.103281083551458
30
0
10
-10.334296040289225
20
49.927179631971661
30
0
10
-10.516106935073438
20
49.580071994720015
30
0
0
ARC
5
237
100
AcDbEntity
8
0
100
AcDbCircle
10
1.5795898946624476e-05
20
59.99998740319063
30
0
40
16.671889431174602
210
0
220
0
230
1
100
AcDbArc
50
208.04925855572102
51
211.95074144427889
0
ARC
5
238
100
AcDbEntity
8
0
100
AcDbCircle
10
1.5795898922199569e-05
20
59.999987403190659
30
0
40
16.671889431174598
210
0
220
0
230
1
100
AcDbArc
50
228.04925855572102
51
231.95074144427926
0
ARC
5
239
100
AcDbEntity
8
0
100
AcDbCircle
10
1.5795898931081354e-05
20
59.999987403190651
30
0
40
12.919250000000005
210
0
220
0
230
1
100
AcDbArc
50
217.57046066697799
51
222.42953933302201
0
ARC
5
240
100
AcDbEntity
8
0
100
AcDbCircle
10
-10.556876411567163
20
51.878753046121503
30
0
40
0.39999999999994645
210
0
220
-0
230
1
100
AcDbArc
50
37.570460666989455
51
125.84951104709398
0
LINE
5
241
100
AcDbEntity
8
0
100
AcDbLine
10
-12.147971695216718
20
54.553078143968662
30
0
11
-12.89068584560615
21
54.220060301657696
31
0
0
LINE
5
242
100
AcDbEntity
8
0
100
AcDbLine
10
-13.590100090237591
20
56.141685145627321
30
0
11
-12.807088299663789
21
56.363986131474789
31
0
0
SPLINE
5
243
100
AcDbEntity
8
0
100
AcDbSpline
70
0
71
3
72
8
73
4
74
0
42
0.000000001
43
0.0000000001
44
0.0000000001
40
0
40
0
40
0
40
0
40
1
40
1
40
1
40
1
10
-6.1595690387239399
20
47.28632307010308
30
0
10
-6.1883691000606049
20
47.215744616796933
30
0
10
-6.2659576198633138
20
47.000101454596035
30
0
10
-6.3180861722283321
20
46.611743980959901
30
0
0
SPLINE
5
244
100
AcDbEntity
8
0
100
AcDbSpline
70
0
71
3
72
8
73
4
74
0
42
0.000000001
43
0.0000000001
44
0.0000000001
40
0
40
0
40
0
40
0
40
1
40
1
40
1
40
1
10
-13.445728095121252
20
53.80519558831493
30
0
10
-13.790982897814704
20
53.488187393147577
30
0
10
-14.25034324377207
20
52.969459578360002
30
0
10
-14.713654365802352
20
52.160356826564453
30
0
0
LINE
5
245
100
AcDbEntity
8
0
100
AcDbLine
10
-12.807088299663816
20
63.635988674906514
30
0
11
-13.590100090237542
21
63.858289660753996
31
0
0
SPLINE
5
246
100
AcDbEntity
8
0
100
AcDbSpline
70
0
71
3
72
8
73
4
74
0
42
0.000000001
43
0.0000000001
44
0.0000000001
40
0
40
0
40
0
40
0
40
1
40
1
40
1
40
1
10
-16.310526868532907
20
56.547727969564654
30
0
10
-15.435528734248996
20
56.225729951310427
30
0
10
-14.750206481693802
20
56.123632530063901
30
0
10
-14.283041855573888
20
56.103173400928384
30
0
0
LINE
5
247
100
AcDbEntity
8
0
100
AcDbLine
10
-1.3568161590639405
20
46.756067001417904
30
0
11
-1.4397713229039333
21
45.946348758274979
31
0
0
SPLINE
5
248
100
AcDbEntity
8
0
100
AcDbSpline
70
0
71
3
72
8
73
4
74
0
42
0.000000001
43
0.0000000001
44
0.0000000001
40
0
40
0
40
0
40
0
40
1
40
1
40
1
40
1
10
-14.146138520595283
20
51.177390548565313
30
0
10
-13.213779422253289
20
51.174078374201642
30
0
10
-12.534867784018973
20
51.312532195898186
30
0
10
-12.08887919788252
20
51.453086615604093
30
0
0
ARC
5
249
100
AcDbEntity
8
0
100
AcDbCircle
10
-12.697843648675352
20
64.020781614330332
30
0
40
0.40000000000001956
210
0
220
0
230
1
100
AcDbArc
50
254.15048895290627
51
342.42953933300976
0
SPLINE
5
250
100
AcDbEntity
8
0
100
AcDbSpline
70
0
71
3
72
8
73
4
74
0
42
0.000000001
43
0.0000000001
44
0.0000000001
40
0
40
0
40
0
40
0
40
1
40
1
40
1
40
1
10
12.087734824247288
20
51.453027528225604
30
0
10
12.53489937581679
20
51.31253219589815
30
0
10
13.213811014051164
20
51.174078374201606
30
0
10
14.146170112393124
20
51.177390548565256
30
0
0
SPLINE
5
251
100
AcDbEntity
8
0
100
AcDbSpline
70
0
71
3
72
8
73
4
74
0
42
0.000000001
43
0.0000000001
44
0.0000000001
40
0
40
0
40
0
40
0
40
1
40
1
40
1
40
1
10
-16.507623053167556
20
62.334458828182193
30
0
10
-15.795523571533359
20
61.732612679223507
30
0
10
-15.186450682594899
20
61.4022784708337
30
0
10
-14.754456965016995
20
61.223273465775108
30
0
0
SPLINE
5
252
100
AcDbEntity
8
0
100
AcDbSpline
70
0
71
3
72
8
73
4
74
0
42
0.000000001
43
0.0000000001
44
0.0000000001
40
0
40
0
40
0
40
0
40
1
40
1
40
1
40
1
10
-1.4397713229039333
20
45.946348758274979
30
0
10
-1.4426952753046618
20
45.87017650541047
30
0
10
-1.4418503295778229
20
45.641001380504022
30
0
10
-1.3580090667728717
20
45.258235713349855
30
0
0
SPLINE
5
253
100
AcDbEntity
8
0
100
AcDbSpline
70
0
71
3
72
8
73
4
74
0
42
0.000000001
43
0.0000000001
44
0.0000000001
40
0
40
0
40
0
40
0
40
1
40
1
40
1
40
1
10
-12.08887919788252
20
51.453086615604093
30
0
10
-11.714297809595045
20
51.571801698328201
30
0
10
-11.515403856647048
20
51.685657516317207
30
0
10
-11.450898726803299
20
51.726275859807942
30
0
0
LINE
5
254
100
AcDbEntity
8
0
100
AcDbLine
10
-7.9305480744315808
20
48.30879829309815
30
0
11
-7.4736185626897678
21
48.982401005225697
31
0
0
ARC
5
255
100
AcDbEntity
8
0
100
AcDbCircle
10
-6.1646536693191933
20
48.19324056305274
30
0
40
0.39999999999999342
210
-0
220
0
230
1
100
AcDbArc
50
-25.849511047088896
51
62.429539333024749
0
LINE
5
256
100
AcDbEntity
8
0
100
AcDbLine
10
-13.278311092422918
20
59.036423389039115
30
0
11
-14.090132909054468
21
58.97751218019566
31
0
0
SPLINE
5
257
100
AcDbEntity
8
0
100
AcDbSpline
70
0
71
3
72
8
73
4
74
0
42
0.000000001
43
0.0000000001
44
0.0000000001
40
0
40
0
40
0
40
0
40
1
40
1
40
1
40
1
10
-12.89068584560615
20
54.220060301657696
30
0
10
-12.958114927850684
20
54.184506392283957
30
0
10
-13.15616393507173
20
54.069187085366451
30
0
10
-13.445728095121252
20
53.80519558831493
30
0
0
LINE
5
258
100
AcDbEntity
8
0
100
AcDbLine
10
-3.453654376640638
20
46.301450676640329
30
0
11
-3.2546667823839859
21
47.090709271663663
31
0
0
LINE
5
259
100
AcDbEntity
8
0
100
AcDbLine
10
-11.450898726803299
20
51.726275859807942
30
0
11
-10.791139740253794
21
52.202976260639943
31
0
0
SPLINE
5
260
100
AcDbEntity
8
0
100
AcDbSpline
70
0
71
3
72
8
73
4
74
0
42
0.000000001
43
0.0000000001
44
0.0000000001
40
0
40
0
40
0
40
0
40
1
40
1
40
1
40
1
10
-14.754456965016995
20
61.223273465775108
30
0
10
-14.391202389765496
20
61.073438219999936
30
0
10
-14.165655673245755
20
61.03281026809065
30
0
10
-14.0901329090544
20
61.022462626185643
30
0
0
SPLINE
5
261
100
AcDbEntity
8
0
100
AcDbSpline
70
0
71
3
72
8
73
4
74
0
42
0.000000001
43
0.0000000001
44
0.0000000001
40
0
40
0
40
0
40
0
40
1
40
1
40
1
40
1
10
-6.3180861722283321
20
46.611743980959901
30
0
10
-6.3787977552690966
20
46.146976105272657
30
0
10
-6.3972563835337626
20
45.45433640650068
30
0
10
-6.232092070182822
20
44.536717090904368
30
0
0
ARC
5
262
100
AcDbEntity
8
0
100
AcDbCircle
10
-9.8310238566246166
20
51.013715656074964
30
0
40
0.39999999999999891
210
-0
220
0
230
1
100
AcDbArc
50
-45.849511047090452
51
42.42953933301149
0
ARC
5
263
100
AcDbEntity
8
0
100
AcDbCircle
10
1.5795898942183584e-05
20
59.999987403190715
30
0
40
12.91925000000009
210
0
220
0
230
1
100
AcDbArc
50
257.57046066697802
51
262.42953933302198
0
ARC
5
264
100
AcDbEntity
8
0
100
AcDbCircle
10
1.7547649554747446
20
46.796833387976385
30
0
40
0.40000000000004782
210
0
220
0
230
1
100
AcDbArc
50
97.57046066698922
51
185.84951104708753
0
ARC
5
265
100
AcDbEntity
8
0
100
AcDbCircle
10
-13.307261636321259
20
60.564600460446513
30
0
40
0.40000000000000102
210
-0
220
0
230
1
100
AcDbArc
50
-2.4295393330252812
51
85.849511047089848
0
SPLINE
5
266
100
AcDbEntity
8
0
100
AcDbSpline
70
0
71
3
72
8
73
4
74
0
42
0.000000001
43
0.0000000001
44
0.0000000001
40
0
40
0
40
0
40
0
40
1
40
1
40
1
40
1
10
-14.090132909054468
20
58.97751218019566
30
0
10
-14.165655673245805
20
58.967164538290646
30
0
10
-14.391202389765478
20
58.926536586381388
30
0
10
-14.753594103866448
20
58.777502500173938
30
0
0
SPLINE
5
267
100
AcDbEntity
8
0
100
AcDbSpline
70
0
71
3
72
8
73
4
74
0
42
0.000000001
43
0.0000000001
44
0.0000000001
40
0
40
0
40
0
40
0
40
1
40
1
40
1
40
1
10
-10.516106935073438
20
49.580071994720015
30
0
10
-10.732117137108808
20
49.164097635891522
30
0
10
-10.986359302926063
20
48.519542444776732
30
0
10
-11.144999906291645
20
47.600772823095696
30
0
0
ARC
5
268
100
AcDbEntity
8
0
100
AcDbCircle
10
-12.311625571143043
20
54.918067745045569
30
0
40
0.39999999999998953
210
-0
220
0
230
1
100
AcDbArc
50
-65.849511047089152
51
22.429539333024703
0
ARC
5
269
100
AcDbEntity
8
0
100
AcDbCircle
10
1.5795898935522246e-05
20
59.999987403190673
30
0
40
16.671889431174602
210
0
220
0
230
1
100
AcDbArc
50
168.04925855572105
51
171.95074144427926
0
ARC
5
270
100
AcDbEntity
8
0
100
AcDbCircle
10
-1.7547333636768814
20
46.796833387976442
30
0
40
0.40000000000002167
210
-0
220
0
230
1
100
AcDbArc
50
-5.8495110470984857
51
82.42953933301213
0
SPLINE
5
271
100
AcDbEntity
8
0
100
AcDbSpline
70
0
71
3
72
8
73
4
74
0
42
0.000000001
43
0.0000000001
44
0.0000000001
40
0
40
0
40
0
40
0
40
1
40
1
40
1
40
1
10
-3.7667731100554347
20
45.682089632166409
30
0
10
-3.5561357033199559
20
46.01380693681201
30
0
10
-3.476959204988288
20
46.228872122095765
30
0
10
-3.453654376640638
20
46.301450676640329
30
0
0
ARC
5
272
100
AcDbEntity
8
0
100
AcDbCircle
10
1.5795898895554217e-05
20
59.999987403190588
30
0
40
12.919249999999906
210
0
220
0
230
1
100
AcDbArc
50
237.57046066697799
51
242.42953933302152
0
SPLINE
5
273
100
AcDbEntity
8
0
100
AcDbSpline
70
0
71
3
72
8
73
4
74
0
42
0.000000001
43
0.0000000001
44
0.0000000001
40
0
40
0
40
0
40
0
40
1
40
1
40
1
40
1
10
-14.281957018607802
20
63.89725913329243
30
0
10
-14.750206481693873
20
63.876342276317402
30
0
10
-15.435528734248969
20
63.77424485507089
30
0
10
-16.310526868532961
20
63.45224683681667
30
0
0
LINE
5
274
100
AcDbEntity
8
0
100
AcDbLine
10
-9.5524057213809321
20
50.726710543379511
30
0
11
-10.136429917697969
21
50.159752934203645
31
0
0
SPLINE
5
275
100
AcDbEntity
8
0
100
AcDbSpline
70
0
71
3
72
8
73
4
74
0
42
0.000000001
43
0.0000000001
44
0.0000000001
40
0
40
0
40
0
40
0
40
1
40
1
40
1
40
1
10
-8.4366173908525965
20
47.833882204084219
30
0
10
-8.1252289740033028
20
48.073552271405305
30
0
10
-7.9772707772862361
20
48.248567481696895
30
0
10
-7.9305480744315808
20
48.30879829309815
30
0
0
ARC
5
276
100
AcDbEntity
8
0
100
AcDbCircle
10
-12.697843648675358
20
55.979193192050985
30
0
40
0.39999999999999547
210
0
220
-0
230
1
100
AcDbArc
50
17.570460666975698
51
105.84951104708986
0
SPLINE
5
277
100
AcDbEntity
8
0
100
AcDbSpline
70
0
71
3
72
8
73
4
74
0
42
0.000000001
43
0.0000000001
44
0.0000000001
40
0
40
0
40
0
40
0
40
1
40
1
40
1
40
1
10
-14.283041855573888
20
56.103173400928384
30
0
10
-13.890447539508042
20
56.086614708031007
30
0
10
-13.66460737641698
20
56.12557844173493
30
0
10
-13.590100090237591
20
56.141685145627321
30
0
0
ARC
5
278
100
AcDbEntity
8
0
100
AcDbCircle
10
1.579589896660849e-05
20
59.999987403190644
30
0
40
16.671889431174655
210
0
220
-0
230
1
100
AcDbArc
50
88.049258555720883
51
91.950741444279345
0
ARC
5
279
100
AcDbEntity
8
0
100
AcDbCircle
10
1.5795898904436001e-05
20
59.999987403190651
30
0
40
16.671889431174648
210
0
220
0
230
1
100
AcDbArc
50
268.04925855572088
51
271.95074144427929
0
CIRCLE
5
280
100
AcDbEntity
8
0
100
AcDbCircle
10
1.5795898935522246e-05
20
59.999987403190651
30
0
40
1.925
210
0
220
-0
230
1
0
ENDSEC
0
SECTION
2
OBJECTS
0
DICTIONARY
5
C
100
AcDbDictionary
3
ACAD_GROUP
350
D
3
ACAD_MLINESTYLE
350
17
0
DICTIONARY
5
D
100
AcDbDictionary
0
DICTIONARY
5
1A
330
C
100
AcDbDictionary
0
DICTIONARY
5
17
100
AcDbDictionary
0
ENDSEC
0
EOF
