0
SECTION
2
HEADER
9
$INSUNITS
70
4
9
$ACADVER
1
AC1014
9
$HANDSEED
5
FFFF
0
ENDSEC
0
SECTION
2
TABLES
0
TABLE
2
VPORT
5
8
100
AcDbSymbolTable
0
ENDTAB
0
TABLE
2
LTYPE
5
5
100
AcDbSymbolTable
0
LTYPE
5
14
100
AcDbSymbolTableRecord
100
AcDbLinetypeTableRecord
2
BYBLOCK
70
0
0
LTYPE
5
15
100
AcDbSymbolTableRecord
100
AcDbLinetypeTableRecord
2
BYLAYER
70
0
0
ENDTAB
0
TABLE
2
LAYER
5
2
100
AcDbSymbolTable
70
2
0
LAYER
5
50
100
AcDbSymbolTableRecord
100
AcDbLayerTableRecord
2
0
70
0
6
CONTINUOUS
0
ENDTAB
0
TABLE
2
STYLE
5
3
100
AcDbSymbolTable
70
1
0
STYLE
5
11
100
AcDbSymbolTableRecord
100
AcDbTextStyleTableRecord
2
STANDARD
70
0
0
ENDTAB
0
TABLE
2
VIEW
5
6
100
AcDbSymbolTable
70
0
0
ENDTAB
0
TABLE
2
UCS
5
7
100
AcDbSymbolTable
70
0
0
ENDTAB
0
TABLE
2
APPID
5
9
100
AcDbSymbolTable
70
2
0
APPID
5
12
100
AcDbSymbolTableRecord
100
AcDbRegAppTableRecord
2
ACAD
70
0
0
ENDTAB
0
TABLE
2
DIMSTYLE
5
A
100
AcDbSymbolTable
70
1
0
ENDTAB
0
TABLE
2
BLOCK_RECORD
5
1
100
AcDbSymbolTable
70
1
0
BLOCK_RECORD
5
1F
100
AcDbSymbolTableRecord
100
AcDbBlockTableRecord
2
*MODEL_SPACE
0
BLOCK_RECORD
5
1B
100
AcDbSymbolTableRecord
100
AcDbBlockTableRecord
2
*PAPER_SPACE
0
ENDTAB
0
ENDSEC
0
SECTION
2
BLOCKS
0
BLOCK
5
20
100
AcDbEntity
100
AcDbBlockBegin
2
*MODEL_SPACE
0
ENDBLK
5
21
100
AcDbEntity
100
AcDbBlockEnd
0
BLOCK
5
1C
100
AcDbEntity
100
AcDbBlockBegin
2
*PAPER_SPACE
0
ENDBLK
5
1D
100
AcDbEntity
100
AcDbBlockEnd
0
ENDSEC
0
SECTION
2
ENTITIES
0
SPLINE
5
100
100
AcDbEntity
8
0
100
AcDbSpline
70
0
71
3
72
8
73
4
74
0
42
0.000000001
43
0.0000000001
44
0.0000000001
40
0
40
0
40
0
40
0
40
1
40
1
40
1
40
1
10
-43.377489465800195
20
-6.7125786308049529
30
0
10
-43.124478333410877
20
-6.7424327119156127
30
0
10
-42.901106836066475
20
-6.7604365344424311
30
0
10
-42.707003893815084
20
-6.7705964346548821
30
0
0
ARC
5
101
100
AcDbEntity
8
0
100
AcDbCircle
10
-42.727914961620584
20
-7.1700494697456723
30
0
40
0.40000000000001423
210
0
220
-0
230
1
100
AcDbArc
50
9.5259341950120042
51
87.003344161535964
0
SPLINE
5
102
100
AcDbEntity
8
0
100
AcDbSpline
70
0
71
3
72
8
73
4
74
0
42
0.000000001
43
0.0000000001
44
0.0000000001
40
0
40
0
40
0
40
0
40
1
40
1
40
1
40
1
10
37.815761977060504
20
-20.968932618961009
30
0
10
38.001633970093721
20
-21.025772551832112
30
0
10
38.217692187803237
20
-21.085252044194412
30
0
10
38.465655578986514
20
-21.143733288237108
30
0
0
ARC
5
103
100
AcDbEntity
8
0
100
AcDbCircle
10
34.53696921771153
20
-26.158764117932915
30
0
40
0.40000000000000235
210
0
220
0
230
1
100
AcDbArc
50
142.85926752834663
51
220.33667749487418
0
SPLINE
5
104
100
AcDbEntity
8
0
100
AcDbSpline
70
0
71
3
72
8
73
4
74
0
42
0.000000001
43
0.0000000001
44
0.0000000001
40
0
40
0
40
0
40
0
40
1
40
1
40
1
40
1
10
35.335357550953134
20
30.498117056314193
30
0
10
34.132129058863526
20
30.157951679197588
30
0
10
33.214861240763121
20
29.776427053355889
30
0
10
32.552727729962015
20
29.444597536815994
30
0
0
LWPOLYLINE
5
105
100
AcDbEntity
8
0
100
AcDbPolyline
90
8
70
1
43
0.0
10
-2.5379602514885957
20
-39.41838766266163
42
0.3011256278200628
10
1.2940901024584095
20
-37.220830227634458
42
0.24037557656111863
10
1.1391776541691589
20
-13.975554047102959
42
0.23969556871809181
10
-1.8087266502850763
20
-11.862918213341359
42
-0.11105665199447598
10
-6.7133554351750924
20
-9.9464144718578797
42
0.31553442725317882
10
-9.0087108275448848
20
-9.9867631257259291
42
-0.17128124549007398
10
-32.278916425259538
20
-16.920758081555579
42
0.5957839847630656
10
-34.105053753783373
20
-19.927266672364098
42
0.24941489800969999
0
ARC
5
106
100
AcDbEntity
8
0
100
AcDbCircle
10
-6.8923871054948904e-06
20
2.0634444737839568e-06
30
0
40
46.676792932483806
210
0
220
-0
230
1
100
AcDbArc
50
59.202372660556001
51
60.797627339443672
0
SPLINE
5
107
100
AcDbEntity
8
0
100
AcDbSpline
70
0
71
3
72
8
73
4
74
0
42
0.000000001
43
0.0000000001
44
0.0000000001
40
0
40
0
40
0
40
0
40
1
40
1
40
1
40
1
10
39.994410009634024
20
-16.437005376165612
30
0
10
40.185623916190224
20
-16.47188255641931
30
0
10
40.407126373123731
20
-16.505877041617811
30
0
10
40.660202382605334
20
-16.535176063730713
30
0
0
ARC
5
108
100
AcDbEntity
8
0
100
AcDbCircle
10
-1.3123127953207359e-05
20
5.660764675783956e-06
30
0
40
42.925331970573907
210
0
220
0
230
1
100
AcDbArc
50
329.52589291085405
51
330.47410708914595
0
ARC
5
109
100
AcDbEntity
8
0
100
AcDbCircle
10
-6.8923869633863433e-06
20
2.0634443957839567e-06
30
0
40
46.676792932483799
210
0
220
0
230
1
100
AcDbArc
50
332.53570599389002
51
334.13096067277695
0
LWPOLYLINE
5
110
100
AcDbEntity
8
0
100
AcDbPolyline
90
8
70
1
43
0.0
10
8.4129045049835653
20
-38.593688117982843
42
0.24941489800970004
10
36.70483048793534
20
-14.594685767547176
42
0.30112562782006458
10
35.798997852090039
20
-10.271106714116341
42
0.24037557656111908
10
13.643555888353401
20
-3.2352518287936656
42
0.23969556871808934
10
10.723367284228384
20
-5.3860350514015849
42
-0.11105665199447541
10
7.3850502667549254
20
-9.4583819913784239
42
0.31553442725317848
10
6.7141202925674257
20
-11.653863114250322
42
-0.17128124549007398
10
6.1178523869740946
20
-35.927866063746322
42
0.5957839847630646
0
SPLINE
5
111
100
AcDbEntity
8
0
100
AcDbSpline
70
0
71
3
72
8
73
4
74
0
42
0.000000001
43
0.0000000001
44
0.0000000001
40
0
40
0
40
0
40
0
40
1
40
1
40
1
40
1
10
27.501999800492616
20
34.209713577112389
30
0
10
27.794768274308126
20
34.890021033276589
30
0
10
28.122313040518829
20
35.827920663500599
30
0
10
28.391941396842917
20
37.048892341071785
30
0
0
SPLINE
5
112
100
AcDbEntity
8
0
100
AcDbSpline
70
0
71
3
72
8
73
4
74
0
42
0.000000001
43
0.0000000001
44
0.0000000001
40
0
40
0
40
0
40
0
40
1
40
1
40
1
40
1
10
39.351164167548504
20
-25.10394851557141
30
0
10
38.680199482596635
20
-24.048828769043812
30
0
10
38.051627516857124
20
-23.279518315369412
30
0
10
37.543836288751123
20
-22.740371134321911
30
0
0
ARC
5
113
100
AcDbEntity
8
0
100
AcDbCircle
10
-6.8923870166770485e-06
20
2.0634443747839568e-06
30
0
40
46.676792932483878
210
0
220
0
230
1
100
AcDbArc
50
285.86903932722288
51
287.464294006111
0
ARC
5
114
100
AcDbEntity
8
0
100
AcDbCircle
10
41.606598171131225
20
-12.081975508538608
30
0
40
0.4000000000000023
210
0
220
-0
230
1
100
AcDbArc
50
86.329989171791439
51
163.80739913832153
0
ARC
5
115
100
AcDbEntity
8
0
100
AcDbCircle
10
23.507309743954412
20
36.393543132159685
30
0
40
0.40000000000000141
210
0
220
0
230
1
100
AcDbArc
50
159.66332250513128
51
237.14073247168545
0
ARC
5
116
100
AcDbEntity
8
0
100
AcDbCircle
10
0.35849413997281587
20
-43.323839455646215
30
0
40
0.40000000000000596
210
0
220
-0
230
1
100
AcDbArc
50
12.996655838457242
51
90.474065804985472
0
ARC
5
117
100
AcDbEntity
8
0
100
AcDbCircle
10
-6.8923867679870909e-06
20
2.0634442257839568e-06
30
0
40
46.676792932483792
210
0
220
-0
230
1
100
AcDbArc
50
52.535705993889806
51
54.130960672777306
0
ARC
5
118
100
AcDbEntity
8
0
100
AcDbCircle
10
42.60339507492462
20
-7.8761586620073718
30
0
40
0.40000000000003477
210
0
220
0
230
1
100
AcDbArc
50
169.5259341950169
51
247.00334416153945
0
ARC
5
119
100
AcDbEntity
8
0
100
AcDbCircle
10
-1.151701148671691e-05
20
-3.4479682782160436e-06
30
0
40
42.925331970572209
210
0
220
-0
230
1
100
AcDbArc
50
49.52589291085409
51
50.474107089145591
0
SPLINE
5
120
100
AcDbEntity
8
0
100
AcDbSpline
70
0
71
3
72
8
73
4
74
0
42
0.000000001
43
0.0000000001
44
0.0000000001
40
0
40
0
40
0
40
0
40
1
40
1
40
1
40
1
10
28.91430889018201
20
-33.024641413956914
30
0
10
29.533442235488128
20
-33.431096226824117
30
0
10
30.400215511123125
20
-33.916529413669807
30
0
10
31.555817412680618
20
-34.394081016202918
30
0
0
SPLINE
5
121
100
AcDbEntity
8
0
100
AcDbSpline
70
0
71
3
72
8
73
4
74
0
42
0.000000001
43
0.0000000001
44
0.0000000001
40
0
40
0
40
0
40
0
40
1
40
1
40
1
40
1
10
35.750926677666527
20
25.466361890738089
30
0
10
35.511429184270128
20
25.379489283267588
30
0
10
35.303737022534719
20
25.295329141839787
30
0
10
35.125720542869828
20
25.217295118935187
30
0
0
SPLINE
5
122
100
AcDbEntity
8
0
100
AcDbSpline
70
0
71
3
72
8
73
4
74
0
42
0.000000001
43
0.0000000001
44
0.0000000001
40
0
40
0
40
0
40
0
40
1
40
1
40
1
40
1
10
-17.889312910219779
20
-43.112591556776401
30
0
10
-16.966734598303876
20
-42.268600711833514
30
0
10
-16.318262075435186
20
-41.51598880830651
30
0
10
-15.875482772920773
20
-40.922290144472903
30
0
0
ARC
5
123
100
AcDbEntity
8
0
100
AcDbCircle
10
34.965133160927522
20
-25.583640132567918
30
0
40
0.40000000000001013
210
0
220
-0
230
1
100
AcDbArc
50
66.329989171788597
51
143.80739913832062
0
SPLINE
5
124
100
AcDbEntity
8
0
100
AcDbSpline
70
0
71
3
72
8
73
4
74
0
42
0.000000001
43
0.0000000001
44
0.0000000001
40
0
40
0
40
0
40
0
40
1
40
1
40
1
40
1
10
23.344535968851527
20
37.171187847373595
30
0
10
23.556345971895425
20
37.880883653182991
30
0
10
23.772792496343822
20
38.850467168049292
30
0
10
23.898851562066223
20
40.094485013545992
30
0
0
SPLINE
5
125
100
AcDbEntity
8
0
100
AcDbSpline
70
0
71
3
72
8
73
4
74
0
42
0.000000001
43
0.0000000001
44
0.0000000001
40
0
40
0
40
0
40
0
40
1
40
1
40
1
40
1
10
-31.55583119745458
20
-34.394081016202918
30
0
10
-30.400229295897176
20
-33.916529413669807
30
0
10
-29.53345602026209
20
-33.431096226824117
30
0
10
-28.914322674955972
20
-33.024641413956807
30
0
0
SPLINE
5
126
100
AcDbEntity
8
0
100
AcDbSpline
70
0
71
3
72
8
73
4
74
0
42
0.000000001
43
0.0000000001
44
0.0000000001
40
0
40
0
40
0
40
0
40
1
40
1
40
1
40
1
10
11.017336544464715
20
-42.488618502279316
30
0
10
11.388197723739619
20
-43.129706327682214
30
0
10
11.944912598308619
20
-43.952512403668408
30
0
10
12.763271409039927
20
-44.897901289187814
30
0
0
LWPOLYLINE
5
127
100
AcDbEntity
8
0
100
AcDbPolyline
90
8
70
1
43
0.0
10
-0.41515734959929668
20
11.992817333005712
42
0.31553442725317848
10
1.4181078272645542
20
13.374636128090078
42
-0.17128124549007398
10
16.168399643907662
20
32.662239554416864
42
0.5957839847630646
10
15.878594366178035
20
36.16793268848231
42
0.24941489800970001
10
-21.116314208946566
20
33.381908790664838
42
0.30112562782006341
10
-22.924816217215568
20
29.351624795520639
42
0.24037557656111849
10
-9.1362588895274079
20
10.636856579032443
42
0.2396955687180892
10
-5.5095780228831837
20
10.660432961921526
42
-0.11105665199447552
0
SPLINE
5
128
100
AcDbEntity
8
0
100
AcDbSpline
70
0
71
3
72
8
73
4
74
0
42
0.000000001
43
0.0000000001
44
0.0000000001
40
0
40
0
40
0
40
0
40
1
40
1
40
1
40
1
10
43.057331201251131
20
-8.5282081986049221
30
0
10
42.829789204268408
20
-8.4136196351221031
30
0
10
42.626046326481003
20
-8.3203040244111026
30
0
10
42.447124114501435
20
-8.2443697250248036
30
0
0
SPLINE
5
129
100
AcDbEntity
8
0
100
AcDbSpline
70
0
71
3
72
8
73
4
74
0
42
0.000000001
43
0.0000000001
44
0.0000000001
40
0
40
0
40
0
40
0
40
1
40
1
40
1
40
1
10
20.518912854667413
20
38.80256211297619
30
0
10
20.34387843230741
20
38.617443636694091
30
0
10
20.196048939919731
20
38.449023315379094
30
0
10
20.071989208683032
20
38.299395915319991
30
0
0
ARC
5
130
100
AcDbEntity
8
0
100
AcDbCircle
10
-34.536983002485485
20
-26.158764117932812
30
0
40
0.40000000000000635
210
0
220
0
230
1
100
AcDbArc
50
-40.336677494876191
51
37.140732471655006
0
SPLINE
5
131
100
AcDbEntity
8
0
100
AcDbSpline
70
0
71
3
72
8
73
4
74
0
42
0.000000001
43
0.0000000001
44
0.0000000001
40
0
40
0
40
0
40
0
40
1
40
1
40
1
40
1
10
34.649982059343628
20
26.945187155191693
30
0
10
35.091748617433311
20
27.539639779314591
30
0
10
35.626758911972928
20
28.37672118215599
30
0
10
36.170694847631907
20
29.502600831969289
30
0
0
ARC
5
132
100
AcDbEntity
8
0
100
AcDbCircle
10
-1.3498620905494363e-05
20
4.9130954957839568e-06
30
0
40
42.925331970573303
210
0
220
0
230
1
100
AcDbArc
50
336.19255957752102
51
337.14077375581257
0
ARC
5
133
100
AcDbEntity
8
0
100
AcDbCircle
10
-1.0845905187295557e-05
20
-3.9475885272160439e-06
30
0
40
42.925331970572302
210
0
220
-0
230
1
100
AcDbArc
50
56.192559577521287
51
57.140773755812504
0
ARC
5
134
100
AcDbEntity
8
0
100
AcDbCircle
10
37.340289936496532
20
-21.972389697407415
30
0
40
0.39999999999999697
210
0
220
0
230
1
100
AcDbArc
50
149.52593419501139
51
227.0033441615399
0
SPLINE
5
135
100
AcDbEntity
8
0
100
AcDbSpline
70
0
71
3
72
8
73
4
74
0
42
0.000000001
43
0.0000000001
44
0.0000000001
40
0
40
0
40
0
40
0
40
1
40
1
40
1
40
1
10
41.632202163385315
20
-11.682795805171013
30
0
10
41.826172143402815
20
-11.695238578775413
30
0
10
42.050123398814122
20
-11.703288339715014
30
0
10
42.304889607713619
20
-11.703008920885914
30
0
0
ARC
5
136
100
AcDbEntity
8
0
100
AcDbCircle
10
-6.8923869811499117e-06
20
2.0634444007839567e-06
30
0
40
46.676792932483878
210
0
220
0
230
1
100
AcDbArc
50
345.86903932722299
51
347.46429400611061
0
ARC
5
137
100
AcDbEntity
8
0
100
AcDbCircle
10
-6.8923869811499117e-06
20
-5.1311941102160443e-06
30
0
40
42.925331970572302
210
0
220
-0
230
1
100
AcDbArc
50
89.525892910854211
51
90.474107089145392
0
LWPOLYLINE
5
138
100
AcDbEntity
8
0
100
AcDbPolyline
90
8
70
1
43
0.0
10
-34.999222941401747
20
-12.732635427567365
42
0.24037557656111877
10
-12.939522135988341
20
-5.4021195554432389
42
0.23969556871808967
10
-11.84123858759815
20
-1.9456555817196775
42
-0.11105665199447552
10
-11.5341488613878
20
3.3111558100602982
42
0.31553442725317843
10
-12.281826535945171
20
5.4817000934414217
42
-0.17128124549007409
10
-26.067336614937567
20
25.47025848241439
42
0.59578398476306527
10
-29.491003670099705
20
26.277956040062694
42
0.24941489800969979
10
-38.273392942587357
20
-9.7672215612133257
42
0.3011256278200608
0
ARC
5
139
100
AcDbEntity
8
0
100
AcDbCircle
10
1.9294647657375208e-07
20
3.3127798747839569e-06
30
0
40
42.925331970569964
210
0
220
0
230
1
100
AcDbArc
50
189.5258929108542
51
190.47410708914572
0
ARC
5
140
100
AcDbEntity
8
0
100
AcDbCircle
10
34.965133160927522
20
25.583644259456694
30
0
40
0.3999999999999812
210
0
220
0
230
1
100
AcDbArc
50
216.19260086167566
51
293.67001082821162
0
ARC
5
141
100
AcDbEntity
8
0
100
AcDbCircle
10
27.573393916416027
20
33.418430135371793
30
0
40
0.39999999999999891
210
0
220
0
230
1
100
AcDbArc
50
152.99665583845737
51
230.4740658049873
0
ARC
5
142
100
AcDbEntity
8
0
100
AcDbCircle
10
37.698790968856443
20
-21.351447694794214
30
0
40
0.39999999999999752
210
0
220
-0
230
1
100
AcDbArc
50
72.99665583846074
51
150.47406580493779
0
ARC
5
143
100
AcDbEntity
8
0
100
AcDbCircle
10
-1.3977724027114391e-05
20
3.3127799817839565e-06
30
0
40
42.925331970573488
210
0
220
0
230
1
100
AcDbArc
50
349.52589291085496
51
350.47410708914595
0
SPLINE
5
144
100
AcDbEntity
8
0
100
AcDbSpline
70
0
71
3
72
8
73
4
74
0
42
0.000000001
43
0.0000000001
44
0.0000000001
40
0
40
0
40
0
40
0
40
1
40
1
40
1
40
1
10
44.079817680647423
20
-15.352263700034609
30
0
10
43.183611576531845
20
-14.480319947886011
30
0
10
42.394567649333311
20
-13.876705028258012
30
0
10
41.776128102883717
20
-13.469195345477212
30
0
0
SPLINE
5
145
100
AcDbEntity
8
0
100
AcDbSpline
70
0
71
3
72
8
73
4
74
0
42
0.000000001
43
0.0000000001
44
0.0000000001
40
0
40
0
40
0
40
0
40
1
40
1
40
1
40
1
10
39.929974444991615
20
-18.22803470358491
30
0
10
39.734991813330907
20
-18.064060093896213
30
0
10
39.558260912000719
20
-17.926273476380313
30
0
10
39.401673225973312
20
-17.811123694150613
30
0
0
SPLINE
5
146
100
AcDbEntity
8
0
100
AcDbSpline
70
0
71
3
72
8
73
4
74
0
42
0.000000001
43
0.0000000001
44
0.0000000001
40
0
40
0
40
0
40
0
40
1
40
1
40
1
40
1
10
31.28754617086182
20
30.785611644837591
30
0
10
31.657313924080217
20
31.427330760068489
30
0
10
32.091527450987925
20
32.32086302210309
30
0
10
32.501078836937523
20
33.502276984366887
30
0
0
ARC
5
147
100
AcDbEntity
8
0
100
AcDbCircle
10
-0.35850792474692028
20
-43.323839455646215
30
0
40
0.40000000000000591
210
0
220
-0
230
1
100
AcDbArc
50
89.525934195011999
51
167.00334416154277
0
SPLINE
5
148
100
AcDbEntity
8
0
100
AcDbSpline
70
0
71
3
72
8
73
4
74
0
42
0.000000001
43
0.0000000001
44
0.0000000001
40
0
40
0
40
0
40
0
40
1
40
1
40
1
40
1
10
-18.734674045057691
20
-38.971023629769014
30
0
10
-18.780610318524378
20
-39.159886104980316
30
0
10
-18.827426512895986
20
-39.37903721128832
30
0
10
-18.871391026973274
20
-39.629981469588515
30
0
0
ARC
5
149
100
AcDbEntity
8
0
100
AcDbCircle
10
-1.3123126958447529e-05
20
-1.5338749072160436e-06
30
0
40
42.925331970572593
210
0
220
-0
230
1
100
AcDbArc
50
29.525892910854132
51
30.474107089145662
0
SPLINE
5
150
100
AcDbEntity
8
0
100
AcDbSpline
70
0
71
3
72
8
73
4
74
0
42
0.000000001
43
0.0000000001
44
0.0000000001
40
0
40
0
40
0
40
0
40
1
40
1
40
1
40
1
10
-4.179054659712147
20
-43.694394530878711
30
0
10
-4.0498240961402665
20
-44.423662023375016
30
0
10
-3.8080994886639807
20
-45.387254522508712
30
0
10
-3.3624357951885386
20
-46.555524679742405
30
0
0
SPLINE
5
151
100
AcDbEntity
8
0
100
AcDbSpline
70
0
71
3
72
8
73
4
74
0
42
0.000000001
43
0.0000000001
44
0.0000000001
40
0
40
0
40
0
40
0
40
1
40
1
40
1
40
1
10
-43.0573449860251
20
-8.5282081986049612
30
0
10
-43.718911852111582
20
-8.8611659975364816
30
0
10
-44.57269596157758
20
-9.3690970801350417
30
0
10
-45.564068731767875
20
-10.131101882278809
30
0
0
ARC
5
152
100
AcDbEntity
8
0
100
AcDbCircle
10
-14.480752603512279
20
-40.833706690613312
30
0
40
0.39999999999999175
210
0
220
0
230
1
100
AcDbArc
50
-7.0033441615424721
51
70.474065804986665
0
ARC
5
153
100
AcDbEntity
8
0
100
AcDbCircle
10
-37.698804753630384
20
-21.351447694794214
30
0
40
0.40000000000003955
210
0
220
-0
230
1
100
AcDbArc
50
29.525934195038889
51
107.00334416154637
0
SPLINE
5
154
100
AcDbEntity
8
0
100
AcDbSpline
70
0
71
3
72
8
73
4
74
0
42
0.000000001
43
0.0000000001
44
0.0000000001
40
0
40
0
40
0
40
0
40
1
40
1
40
1
40
1
10
-0.92182618262242499
20
-43.884106486003503
30
0
10
-0.84849073001674213
20
-43.640123268008907
30
0
10
-0.79197237255188568
20
-43.423271616595002
30
0
10
-0.74826120185109701
20
-43.233881782340603
30
0
0
ARC
5
155
100
AcDbEntity
8
0
100
AcDbCircle
10
31.758631815911826
20
29.46986182485519
30
0
40
0.40000000000000696
210
0
220
0
230
1
100
AcDbArc
50
222.85926752834428
51
300.33667749487648
0
ARC
5
156
100
AcDbEntity
8
0
100
AcDbCircle
10
-39.922650992166183
20
-16.830513527108412
30
0
40
0.40000000000000868
210
0
220
-0
230
1
100
AcDbArc
50
22.859267528345445
51
100.33667749487743
0
SPLINE
5
157
100
AcDbEntity
8
0
100
AcDbSpline
70
0
71
3
72
8
73
4
74
0
42
0.000000001
43
0.0000000001
44
0.0000000001
40
0
40
0
40
0
40
0
40
1
40
1
40
1
40
1
10
27.349538884190121
20
37.824932258712288
30
0
10
26.257191106466919
20
37.216452496954787
30
0
10
25.452633994914624
20
36.633675400204389
30
0
10
24.884873531485425
20
36.158091895087189
30
0
0
ARC
5
158
100
AcDbEntity
8
0
100
AcDbCircle
10
-6.892387087731322e-06
20
2.0634443107839565e-06
30
0
40
46.676792932483799
210
0
220
0
230
1
100
AcDbArc
50
305.86903932722299
51
307.46429400610998
0
ARC
5
159
100
AcDbEntity
8
0
100
AcDbCircle
10
-6.8923868035142277e-06
20
2.0634442537839569e-06
30
0
40
46.676792932483799
210
0
220
0
230
1
100
AcDbArc
50
232.53570599388902
51
234.13096067277695
0
ARC
5
160
100
AcDbEntity
8
0
100
AcDbCircle
10
-9.6423347375842994
20
-42.238715728259621
30
0
40
0.40000000000001068
210
0
220
0
230
1
100
AcDbArc
50
-0.33667749487588111
51
77.140732471773276
0
SPLINE
5
161
100
AcDbEntity
8
0
100
AcDbSpline
70
0
71
3
72
8
73
4
74
0
42
0.000000001
43
0.0000000001
44
0.0000000001
40
0
40
0
40
0
40
0
40
1
40
1
40
1
40
1
10
18.871377242199223
20
-39.629981469588614
30
0
10
18.827412728121917
20
-39.379037211288413
30
0
10
18.780596533750327
20
-39.159886104980416
30
0
10
18.734660260283515
20
-38.971023629769107
30
0
0
SPLINE
5
162
100
AcDbEntity
8
0
100
AcDbSpline
70
0
71
3
72
8
73
4
74
0
42
0.000000001
43
0.0000000001
44
0.0000000001
40
0
40
0
40
0
40
0
40
1
40
1
40
1
40
1
10
-27.349552668964083
20
-37.824928131823505
30
0
10
-26.257204891240971
20
-37.216448370066011
30
0
10
-25.452647779688675
20
-36.633671273315606
30
0
10
-24.884887316259476
20
-36.158087768198321
30
0
0
SPLINE
5
163
100
AcDbEntity
8
0
100
AcDbSpline
70
0
71
3
72
8
73
4
74
0
42
0.000000001
43
0.0000000001
44
0.0000000001
40
0
40
0
40
0
40
0
40
1
40
1
40
1
40
1
10
30.933697376998914
20
30.213153787099991
30
0
10
31.041458125042514
20
30.374915330564495
30
0
10
31.160405050216315
20
30.564837926490288
30
0
10
31.28754617086182
20
30.785611644837591
30
0
0
ARC
5
164
100
AcDbEntity
8
0
100
AcDbCircle
10
37.698790968856443
20
21.351451821683089
30
0
40
0.40000000000002711
210
0
220
0
230
1
100
AcDbArc
50
209.52593419500928
51
287.00334416153925
0
SPLINE
5
165
100
AcDbEntity
8
0
100
AcDbSpline
70
0
71
3
72
8
73
4
74
0
42
0.000000001
43
0.0000000001
44
0.0000000001
40
0
40
0
40
0
40
0
40
1
40
1
40
1
40
1
10
-45.264370923138479
20
-11.395626368265212
30
0
10
-44.036460726457577
20
-11.631651445009613
30
0
10
-43.045532324980783
20
-11.702377631058011
30
0
10
-42.304903392487589
20
-11.703008920886013
30
0
0
SPLINE
5
166
100
AcDbEntity
8
0
100
AcDbSpline
70
0
71
3
72
8
73
4
74
0
42
0.000000001
43
0.0000000001
44
0.0000000001
40
0
40
0
40
0
40
0
40
1
40
1
40
1
40
1
10
43.635343988824516
20
16.57344925874829
30
0
10
42.38833564265272
20
16.665326745342991
30
0
10
41.395896735486829
20
16.620534940406188
30
0
10
40.66020238260522
20
16.535180190619588
30
0
0
ARC
5
167
100
AcDbEntity
8
0
100
AcDbCircle
10
19.123329440409123
20
-38.876491791637719
30
0
40
0.40000000000000002
210
0
220
0
230
1
100
AcDbArc
50
116.19260086167837
51
193.67001082820744
0
SPLINE
5
168
100
AcDbEntity
8
0
100
AcDbSpline
70
0
71
3
72
8
73
4
74
0
42
0.000000001
43
0.0000000001
44
0.0000000001
40
0
40
0
40
0
40
0
40
1
40
1
40
1
40
1
10
-3.3624357951884676
20
46.555528806631195
30
0
10
-3.8080994886639274
20
45.387258649397495
30
0
10
-4.0498240961401955
20
44.423666150263799
30
0
10
-4.1790546597120759
20
43.694398657767493
30
0
0
SPLINE
5
169
100
AcDbEntity
8
0
100
AcDbSpline
70
0
71
3
72
8
73
4
74
0
42
0.000000001
43
0.0000000001
44
0.0000000001
40
0
40
0
40
0
40
0
40
1
40
1
40
1
40
1
10
22.773404666776411
20
40.744262081500089
30
0
10
21.759083142676321
20
40.013082805458893
30
0
10
21.027622449935617
20
39.340842859292593
30
0
10
20.518912854667413
20
38.80256211297619
30
0
0
SPLINE
5
170
100
AcDbEntity
8
0
100
AcDbSpline
70
0
71
3
72
8
73
4
74
0
42
0.000000001
43
0.0000000001
44
0.0000000001
40
0
40
0
40
0
40
0
40
1
40
1
40
1
40
1
10
-7.4646560335797574
20
-46.076043900384398
30
0
10
-6.7615836230669402
20
-45.04204173716581
30
0
10
-6.3041550104406063
20
-44.160168529387612
30
0
10
-6.0102272156486869
20
-43.480361155478107
30
0
0
SPLINE
5
171
100
AcDbEntity
8
0
100
AcDbSpline
70
0
71
3
72
8
73
4
74
0
42
0.000000001
43
0.0000000001
44
0.0000000001
40
0
40
0
40
0
40
0
40
1
40
1
40
1
40
1
10
-15.875482772920773
20
-40.922290144472903
30
0
10
-15.723122814077684
20
-40.718103116938813
30
0
10
-15.595845297731987
20
-40.533659637020506
30
0
10
-15.489995094922389
20
-40.370641508187802
30
0
0
ARC
5
172
100
AcDbEntity
8
0
100
AcDbCircle
10
-1.0121335307644586e-05
20
8.4928090627839564e-06
30
0
40
42.925331970573282
210
0
220
0
230
1
100
AcDbArc
50
296.19255957752085
51
297.14077375581297
0
SPLINE
5
173
100
AcDbEntity
8
0
100
AcDbSpline
70
0
71
3
72
8
73
4
74
0
42
0.000000001
43
0.0000000001
44
0.0000000001
40
0
40
0
40
0
40
0
40
1
40
1
40
1
40
1
10
-20.518926639441482
20
-38.802557986087322
30
0
10
-20.343892217081478
20
-38.617439509805209
30
0
10
-20.196062724693782
20
-38.449019188490212
30
0
10
-20.072002993457083
20
-38.299391788431116
30
0
0
SPLINE
5
174
100
AcDbEntity
8
0
100
AcDbSpline
70
0
71
3
72
8
73
4
74
0
42
0.000000001
43
0.0000000001
44
0.0000000001
40
0
40
0
40
0
40
0
40
1
40
1
40
1
40
1
10
-38.465669363760483
20
-21.143733288237108
30
0
10
-38.217705972577178
20
-21.085252044194412
30
0
10
-38.00164775486769
20
-21.025772551832112
30
0
10
-37.81577576183448
20
-20.968932618961009
30
0
0
SPLINE
5
175
100
AcDbEntity
8
0
100
AcDbSpline
70
0
71
3
72
8
73
4
74
0
42
0.000000001
43
0.0000000001
44
0.0000000001
40
0
40
0
40
0
40
0
40
1
40
1
40
1
40
1
10
-23.132256867121885
20
-36.532553390682217
30
0
10
-23.199808131056887
20
-36.714805969549317
30
0
10
-23.271749661635379
20
-36.927040226043218
30
0
10
-23.34454975362549
20
-37.171183720484706
30
0
0
SPLINE
5
176
100
AcDbEntity
8
0
100
AcDbSpline
70
0
71
3
72
8
73
4
74
0
42
0.000000001
43
0.0000000001
44
0.0000000001
40
0
40
0
40
0
40
0
40
1
40
1
40
1
40
1
10
10.698497893999424
20
-41.89594752882671
30
0
10
10.78470712597321
20
-42.070151845895609
30
0
10
10.889711456210822
20
-42.268124202761008
30
0
10
11.017336544464715
20
-42.488618502279316
30
0
0
LWPOLYLINE
5
177
100
AcDbEntity
8
0
100
AcDbPolyline
90
8
70
1
43
0.0
10
20.830890576181908
20
30.872933204717185
42
0.24037557656111891
10
7.2929868551062071
20
11.976054483227085
42
0.23969556871808859
10
8.4361153486510716
20
8.5341615154607702
42
-0.11105665199447541
10
11.277550751520288
20
4.1008089510899781
42
0.31553442725317843
10
13.158248615771125
20
2.7842756493644094
42
-0.17128124549007398
10
36.059940381428376
20
-5.2838882606096584
42
0.59578398476306516
10
39.3044979248345
20
-3.9249483072783695
42
0.24941489800969982
10
25.222776287200197
20
30.398371831677
42
0.30112562782006613
0
ARC
5
178
100
AcDbEntity
8
0
100
AcDbCircle
10
34.536969217711416
20
26.158768244821694
30
0
40
0.40000000000000635
210
0
220
0
230
1
100
AcDbArc
50
139.6633225051242
51
217.14073247169574
0
SPLINE
5
179
100
AcDbEntity
8
0
100
AcDbSpline
70
0
71
3
72
8
73
4
74
0
42
0.000000001
43
0.0000000001
44
0.0000000001
40
0
40
0
40
0
40
0
40
1
40
1
40
1
40
1
10
37.543836288751123
20
22.74037526121079
30
0
10
38.051627516857124
20
23.279522442258287
30
0
10
38.680199482596635
20
24.048832895932591
30
0
10
39.351164167548504
20
25.103952642460289
30
0
0
ARC
5
180
100
AcDbEntity
8
0
100
AcDbCircle
10
-19.12334322518328
20
-38.876491791637719
30
0
40
0.40000000000000435
210
0
220
0
230
1
100
AcDbArc
50
-13.670010828208403
51
63.807399138321628
0
SPLINE
5
181
100
AcDbEntity
8
0
100
AcDbSpline
70
0
71
3
72
8
73
4
74
0
42
0.000000001
43
0.0000000001
44
0.0000000001
40
0
40
0
40
0
40
0
40
1
40
1
40
1
40
1
10
0.7482474170769926
20
-43.233881782340603
30
0
10
0.79195858777778128
20
-43.423271616595002
30
0
10
0.84847694524265549
20
-43.640123268008907
30
0
10
0.92181239784833835
20
-43.884106486003503
30
0
0
ARC
5
182
100
AcDbEntity
8
0
100
AcDbCircle
10
-6.0571399274067517e-06
20
9.2094387487839585e-06
30
0
40
42.925331970575797
210
0
220
0
230
1
100
AcDbArc
50
262.85922624418697
51
263.80744042247886
0
SPLINE
5
183
100
AcDbEntity
8
0
100
AcDbSpline
70
0
71
3
72
8
73
4
74
0
42
0.000000001
43
0.0000000001
44
0.0000000001
40
0
40
0
40
0
40
0
40
1
40
1
40
1
40
1
10
-39.929988229765584
20
-18.22803470358491
30
0
10
-40.496937122635686
20
-18.704585400831714
30
0
10
-41.210570402043402
20
-19.395721301192811
30
0
10
-41.999490189953278
20
-20.365812459903808
30
0
0
SPLINE
5
184
100
AcDbEntity
8
0
100
AcDbSpline
70
0
71
3
72
8
73
4
74
0
42
0.000000001
43
0.0000000001
44
0.0000000001
40
0
40
0
40
0
40
0
40
1
40
1
40
1
40
1
10
19.08257066479953
20
-42.597864458670713
30
0
10
19.101785622290421
20
-41.347623652516312
30
0
10
18.999364407537023
20
-40.359468206741312
30
0
10
18.871377242199223
20
-39.629981469588614
30
0
0
ARC
5
185
100
AcDbEntity
8
0
100
AcDbCircle
10
-6.8923871587855956e-06
20
2.0634444597839566e-06
30
0
40
46.676792932483799
210
0
220
0
230
1
100
AcDbArc
50
245.86903932722302
51
247.46429400611004
0
SPLINE
5
186
100
AcDbEntity
8
0
100
AcDbSpline
70
0
71
3
72
8
73
4
74
0
42
0.000000001
43
0.0000000001
44
0.0000000001
40
0
40
0
40
0
40
0
40
1
40
1
40
1
40
1
10
-23.34454975362549
20
-37.171183720484706
30
0
10
-23.556359756669476
20
-37.880879526294116
30
0
10
-23.772806281117784
20
-38.85046304116041
30
0
10
-23.898865346840292
20
-40.094480886657109
30
0
0
SPLINE
5
187
100
AcDbEntity
8
0
100
AcDbSpline
70
0
71
3
72
8
73
4
74
0
42
0.000000001
43
0.0000000001
44
0.0000000001
40
0
40
0
40
0
40
0
40
1
40
1
40
1
40
1
10
-20.518926639441375
20
38.802562112976098
30
0
10
-21.027636234709686
20
39.340842859292593
30
0
10
-21.759096927450283
20
40.013082805458893
30
0
10
-22.773418451550373
20
40.744262081500089
30
0
0
ARC
5
188
100
AcDbEntity
8
0
100
AcDbCircle
10
-4.4316755776208083e-06
20
8.8241943077839577e-06
30
0
40
42.925331970573509
210
0
220
0
230
1
100
AcDbArc
50
249.52589291085496
51
250.47410708914603
0
SPLINE
5
189
100
AcDbEntity
8
0
100
AcDbSpline
70
0
71
3
72
8
73
4
74
0
42
0.000000001
43
0.0000000001
44
0.0000000001
40
0
40
0
40
0
40
0
40
1
40
1
40
1
40
1
10
-22.77341845155048
20
-40.744257954611307
30
0
10
-21.75909692745039
20
-40.013078678570004
30
0
10
-21.027636234709686
20
-39.340838732403711
30
0
10
-20.518926639441482
20
-38.802557986087322
30
0
0
SPLINE
5
190
100
AcDbEntity
8
0
100
AcDbSpline
70
0
71
3
72
8
73
4
74
0
42
0.000000001
43
0.0000000001
44
0.0000000001
40
0
40
0
40
0
40
0
40
1
40
1
40
1
40
1
10
-14.083736988773072
20
-40.88247760052171
30
0
10
-14.107437062475778
20
-41.075395931090512
30
0
10
-14.128494811924188
20
-41.298500244450111
30
0
10
-14.143029203456177
20
-41.552851676006213
30
0
0
ARC
5
191
100
AcDbEntity
8
0
100
AcDbCircle
10
15.154500368043617
20
-40.588477541673015
30
0
40
0.40000000000001357
210
0
220
-0
230
1
100
AcDbArc
50
32.996655838456043
51
110.47406580498651
0
ARC
5
192
100
AcDbEntity
8
0
100
AcDbCircle
10
-2.8615408709242729e-07
20
4.9130949737839568e-06
30
0
40
42.925331970572167
210
0
220
0
230
1
100
AcDbArc
50
202.85922624418734
51
203.80744042247895
0
ARC
5
193
100
AcDbEntity
8
0
100
AcDbCircle
10
24.106356229785728
20
-35.999539933412109
30
0
40
0.40000000000000002
210
0
220
-0
230
1
100
AcDbArc
50
46.329989171791766
51
123.80739913832355
0
SPLINE
5
194
100
AcDbEntity
8
0
100
AcDbSpline
70
0
71
3
72
8
73
4
74
0
42
0.000000001
43
0.0000000001
44
0.0000000001
40
0
40
0
40
0
40
0
40
1
40
1
40
1
40
1
10
-11.017350329238873
20
-42.488618502279316
30
0
10
-10.889725240984891
20
-42.268124202761008
30
0
10
-10.784720910747279
20
-42.070151845895609
30
0
10
-10.698511678773581
20
-41.89594752882671
30
0
0
SPLINE
5
195
100
AcDbEntity
8
0
100
AcDbSpline
70
0
71
3
72
8
73
4
74
0
42
0.000000001
43
0.0000000001
44
0.0000000001
40
0
40
0
40
0
40
0
40
1
40
1
40
1
40
1
10
41.41623757435751
20
21.527140580507584
30
0
10
40.166994727354123
20
21.473627991560889
30
0
10
39.186466348205414
20
21.313923927960992
30
0
10
38.465655578986514
20
21.143737415125994
30
0
0
ARC
5
196
100
AcDbEntity
8
0
100
AcDbCircle
10
-23.507323528728481
20
-36.393539005270824
30
0
40
0.39999999999999863
210
0
220
0
230
1
100
AcDbArc
50
-20.3366774948753
51
57.140732471654154
0
ARC
5
197
100
AcDbEntity
8
0
100
AcDbCircle
10
-37.34030372127048
20
-21.972389697407415
30
0
40
0.39999999999999747
210
0
220
0
230
1
100
AcDbArc
50
-47.003344161543652
51
30.47406580507241
0
ARC
5
198
100
AcDbEntity
8
0
100
AcDbCircle
10
1.3677947663381929e-12
20
4.1268895407839569e-06
30
0
40
42.925331970572302
210
0
220
0
230
1
100
AcDbArc
50
196.19255957751994
51
197.14077375581172
0
SPLINE
5
199
100
AcDbEntity
8
0
100
AcDbSpline
70
0
71
3
72
8
73
4
74
0
42
0.000000001
43
0.0000000001
44
0.0000000001
40
0
40
0
40
0
40
0
40
1
40
1
40
1
40
1
10
-35.750940462440482
20
-25.466357763849313
30
0
10
-35.511442969044076
20
-25.379485156378717
30
0
10
-35.303750807308688
20
-25.295325014950912
30
0
10
-35.125734327643876
20
-25.217290992046312
30
0
0
SPLINE
5
200
100
AcDbEntity
8
0
100
AcDbSpline
70
0
71
3
72
8
73
4
74
0
42
0.000000001
43
0.0000000001
44
0.0000000001
40
0
40
0
40
0
40
0
40
1
40
1
40
1
40
1
10
-43.635357773598585
20
-16.573445131859412
30
0
10
-42.388349427426789
20
-16.665322618454212
30
0
10
-41.395910520260784
20
-16.620530813517309
30
0
10
-40.660216167379289
20
-16.535176063730813
30
0
0
SPLINE
5
201
100
AcDbEntity
8
0
100
AcDbSpline
70
0
71
3
72
8
73
4
74
0
42
0.000000001
43
0.0000000001
44
0.0000000001
40
0
40
0
40
0
40
0
40
1
40
1
40
1
40
1
10
-6.0102272156486869
20
-43.480361155478107
30
0
10
-5.909062908363687
20
-43.246541391122207
30
0
10
-5.8277517676675039
20
-43.037717393817907
30
0
10
-5.762349338501398
20
-42.854682703056504
30
0
0
ARC
5
202
100
AcDbEntity
8
0
100
AcDbCircle
10
23.507309743954412
20
-36.393539005270902
30
0
40
0.39999999999999603
210
0
220
0
230
1
100
AcDbArc
50
122.85926752834426
51
200.33667749487626
0
SPLINE
5
203
100
AcDbEntity
8
0
100
AcDbSpline
70
0
71
3
72
8
73
4
74
0
42
0.000000001
43
0.0000000001
44
0.0000000001
40
0
40
0
40
0
40
0
40
1
40
1
40
1
40
1
10
-41.416251359131579
20
-21.527136453618809
30
0
10
-40.167008512128092
20
-21.47362386467201
30
0
10
-39.186480132979383
20
-21.31391980107211
30
0
10
-38.465669363760483
20
-21.143733288237108
30
0
0
ARC
5
204
100
AcDbEntity
8
0
100
AcDbCircle
10
-6.8923869278592065e-06
20
2.063444409783957e-06
30
0
40
46.676792932483799
210
0
220
0
230
1
100
AcDbArc
50
292.535705993889
51
294.13096067277701
0
SPLINE
5
205
100
AcDbEntity
8
0
100
AcDbSpline
70
0
71
3
72
8
73
4
74
0
42
0.000000001
43
0.0000000001
44
0.0000000001
40
0
40
0
40
0
40
0
40
1
40
1
40
1
40
1
10
42.30488960771352
20
11.703013047774791
30
0
10
42.050123398814122
20
11.703292466603889
30
0
10
41.826172143402815
20
11.69524270566429
30
0
10
41.632202163385315
20
11.682799932059888
30
0
0
ARC
5
206
100
AcDbEntity
8
0
100
AcDbCircle
10
-6.8923870344406168e-06
20
2.0634444957839567e-06
30
0
40
46.676792932483799
210
0
220
0
230
1
100
AcDbArc
50
205.86903932722302
51
207.46429400611055
0
SPLINE
5
207
100
AcDbEntity
8
0
100
AcDbSpline
70
0
71
3
72
8
73
4
74
0
42
0.000000001
43
0.0000000001
44
0.0000000001
40
0
40
0
40
0
40
0
40
1
40
1
40
1
40
1
10
-8.7444670220812348
20
45.85038281979319
30
0
10
-9.0514894100551935
20
44.638273690528095
30
0
10
-9.1797133009571219
20
43.653134145058388
30
0
10
-9.2234072653086052
20
42.913794945737685
30
0
0
SPLINE
5
208
100
AcDbEntity
8
0
100
AcDbSpline
70
0
71
3
72
8
73
4
74
0
42
0.000000001
43
0.0000000001
44
0.0000000001
40
0
40
0
40
0
40
0
40
1
40
1
40
1
40
1
10
14.008230641926325
20
-44.525184961926207
30
0
10
14.172459773293422
20
-43.285628557249311
30
0
10
14.185448939462528
20
-42.292264287805111
30
0
10
14.143015418682126
20
-41.552851676006313
30
0
0
ARC
5
209
100
AcDbEntity
8
0
100
AcDbCircle
10
37.340289936496532
20
21.97239382429629
30
0
40
0.40000000000002167
210
0
220
0
230
1
100
AcDbArc
50
132.9966558384601
51
210.47406580498654
0
SPLINE
5
210
100
AcDbEntity
8
0
100
AcDbSpline
70
0
71
3
72
8
73
4
74
0
42
0.000000001
43
0.0000000001
44
0.0000000001
40
0
40
0
40
0
40
0
40
1
40
1
40
1
40
1
10
-39.35117795232248
20
25.103952642460186
30
0
10
-38.680213267370576
20
24.048832895932591
30
0
10
-38.051641301631079
20
23.279522442258191
30
0
10
-37.543850073525093
20
22.740375261210687
30
0
0
SPLINE
5
211
100
AcDbEntity
8
0
100
AcDbSpline
70
0
71
3
72
8
73
4
74
0
42
0.000000001
43
0.0000000001
44
0.0000000001
40
0
40
0
40
0
40
0
40
1
40
1
40
1
40
1
10
-40.660216167379289
20
-16.535176063730813
30
0
10
-40.407140157897686
20
-16.505877041617914
30
0
10
-40.185637700964193
20
-16.47188255641931
30
0
10
-39.994423794407993
20
-16.437005376165711
30
0
0
SPLINE
5
212
100
AcDbEntity
8
0
100
AcDbSpline
70
0
71
3
72
8
73
4
74
0
42
0.000000001
43
0.0000000001
44
0.0000000001
40
0
40
0
40
0
40
0
40
1
40
1
40
1
40
1
10
24.38255779313673
20
-35.710208468820909
30
0
10
24.523149357757923
20
-35.844421686203908
30
0
10
24.689531685902324
20
-35.994541252992313
30
0
10
24.884873531485514
20
-36.158087768198413
30
0
0
SPLINE
5
213
100
AcDbEntity
8
0
100
AcDbSpline
70
0
71
3
72
8
73
4
74
0
42
0.000000001
43
0.0000000001
44
0.0000000001
40
0
40
0
40
0
40
0
40
1
40
1
40
1
40
1
10
-39.401687010747267
20
-17.811123694150613
30
0
10
-39.558274696774674
20
-17.926273476380313
30
0
10
-39.735005598104877
20
-18.064060093896213
30
0
10
-39.929988229765584
20
-18.22803470358491
30
0
0
SPLINE
5
214
100
AcDbEntity
8
0
100
AcDbSpline
70
0
71
3
72
8
73
4
74
0
42
0.000000001
43
0.0000000001
44
0.0000000001
40
0
40
0
40
0
40
0
40
1
40
1
40
1
40
1
10
-41.776141887657587
20
13.469199472366089
30
0
10
-41.563441368517374
20
13.328969702240791
30
0
10
-41.371909408363088
20
13.21263195389189
30
0
10
-41.20301243847068
20
13.116439494082691
30
0
0
ARC
5
215
100
AcDbEntity
8
0
100
AcDbCircle
10
-37.698804753630384
20
21.351451821683089
30
0
40
0.40000000000000269
210
0
220
0
230
1
100
AcDbArc
50
252.99665583845879
51
330.4740658049887
0
ARC
5
216
100
AcDbEntity
8
0
100
AcDbCircle
10
4.6735071440338949
20
-43.07251856761291
30
0
40
0.40000000000000124
210
0
220
0
230
1
100
AcDbArc
50
96.192600861678656
51
173.67001082820497
0
ARC
5
217
100
AcDbEntity
8
0
100
AcDbCircle
10
41.606598171131225
20
12.081979635427489
30
0
40
0.40000000000005898
210
0
220
0
230
1
100
AcDbArc
50
196.19260086168194
51
273.67001082820855
0
ARC
5
218
100
AcDbEntity
8
0
100
AcDbCircle
10
-6.8923869278592065e-06
20
2.0634445187839569e-06
30
0
40
46.676792932483806
210
0
220
0
230
1
100
AcDbArc
50
159.20237266055599
51
160.79762733944403
0
ARC
5
219
100
AcDbEntity
8
0
100
AcDbCircle
10
-6.8923869456227749e-06
20
2.0634442877839568e-06
30
0
40
46.676792932483878
210
0
220
0
230
1
100
AcDbArc
50
199.20237266055594
51
200.79762733944361
0
SPLINE
5
220
100
AcDbEntity
8
0
100
AcDbSpline
70
0
71
3
72
8
73
4
74
0
42
0.000000001
43
0.0000000001
44
0.0000000001
40
0
40
0
40
0
40
0
40
1
40
1
40
1
40
1
10
15.48998131014832
20
-40.370641508187902
30
0
10
15.595831512957918
20
-40.533659637020619
30
0
10
15.723109029303526
20
-40.718103116938813
30
0
10
15.875468988146721
20
-40.922290144472903
30
0
0
SPLINE
5
221
100
AcDbEntity
8
0
100
AcDbSpline
70
0
71
3
72
8
73
4
74
0
42
0.000000001
43
0.0000000001
44
0.0000000001
40
0
40
0
40
0
40
0
40
1
40
1
40
1
40
1
10
-0.9218261826223717
20
43.884110612892293
30
0
10
-1.1348457237352427
20
44.593444306774792
30
0
10
-1.4868021371444584
20
45.522458824049103
30
0
10
-2.0650802991960227
20
46.631091159523493
30
0
0
SPLINE
5
222
100
AcDbEntity
8
0
100
AcDbSpline
70
0
71
3
72
8
73
4
74
0
42
0.000000001
43
0.0000000001
44
0.0000000001
40
0
40
0
40
0
40
0
40
1
40
1
40
1
40
1
10
24.884873531485514
20
-36.158087768198413
30
0
10
25.452633994914624
20
-36.633671273315606
30
0
10
26.257191106467008
20
-37.216448370066011
30
0
10
27.349538884190121
20
-37.824928131823505
30
0
0
SPLINE
5
223
100
AcDbEntity
8
0
100
AcDbSpline
70
0
71
3
72
8
73
4
74
0
42
0.000000001
43
0.0000000001
44
0.0000000001
40
0
40
0
40
0
40
0
40
1
40
1
40
1
40
1
10
-28.391955181616879
20
37.048892341071785
30
0
10
-28.122326825292792
20
35.827920663500599
30
0
10
-27.794782059082088
20
34.890021033276589
30
0
10
-27.502013585266578
20
34.209713577112389
30
0
0
ARC
5
224
100
AcDbEntity
8
0
100
AcDbCircle
10
-6.6164728806938911e-07
20
5.660763716783958e-06
30
0
40
42.92533197057228
210
0
220
0
230
1
100
AcDbArc
50
209.52589291085397
51
210.47410708914495
0
SPLINE
5
225
100
AcDbEntity
8
0
100
AcDbSpline
70
0
71
3
72
8
73
4
74
0
42
0.000000001
43
0.0000000001
44
0.0000000001
40
0
40
0
40
0
40
0
40
1
40
1
40
1
40
1
10
-40.66021616737919
20
16.535180190619588
30
0
10
-41.395910520260784
20
16.620534940406188
30
0
10
-42.388349427426689
20
16.665326745342991
30
0
10
-43.635357773598486
20
16.57344925874829
30
0
0
SPLINE
5
226
100
AcDbEntity
8
0
100
AcDbSpline
70
0
71
3
72
8
73
4
74
0
42
0.000000001
43
0.0000000001
44
0.0000000001
40
0
40
0
40
0
40
0
40
1
40
1
40
1
40
1
10
4.1790408749380425
20
-43.694394530878711
30
0
10
4.2235557366737275
20
-43.443547313719407
30
0
10
4.2545169970788876
20
-43.221600554775812
30
0
10
4.2759457907164311
20
-43.028416749641409
30
0
0
ARC
5
227
100
AcDbEntity
8
0
100
AcDbCircle
10
-41.400973445882983
20
12.76886009373759
30
0
40
0.40000000000003005
210
0
220
0
230
1
100
AcDbArc
50
-17.140732471694882
51
60.33667749487023
0
SPLINE
5
228
100
AcDbEntity
8
0
100
AcDbSpline
70
0
71
3
72
8
73
4
74
0
42
0.000000001
43
0.0000000001
44
0.0000000001
40
0
40
0
40
0
40
0
40
1
40
1
40
1
40
1
10
-38.63706128715188
20
-26.189710156394113
30
0
10
-37.402477805766488
20
-25.99153115787141
30
0
10
-36.447119918882379
20
-25.719074559098814
30
0
10
-35.750940462440482
20
-25.466357763849313
30
0
0
SPLINE
5
229
100
AcDbEntity
8
0
100
AcDbSpline
70
0
71
3
72
8
73
4
74
0
42
0.000000001
43
0.0000000001
44
0.0000000001
40
0
40
0
40
0
40
0
40
1
40
1
40
1
40
1
10
37.067507667596416
20
22.264951226823889
30
0
10
37.20966848992893
20
22.397501128207189
30
0
10
37.369208350173523
20
22.554873287258893
30
0
10
37.543836288751123
20
22.74037526121079
30
0
0
SPLINE
5
230
100
AcDbEntity
8
0
100
AcDbSpline
70
0
71
3
72
8
73
4
74
0
42
0.000000001
43
0.0000000001
44
0.0000000001
40
0
40
0
40
0
40
0
40
1
40
1
40
1
40
1
10
38.465655578986514
20
21.143737415125994
30
0
10
38.217692187803237
20
21.085256171083188
30
0
10
38.001633970093721
20
21.025776678720991
30
0
10
37.815761977060504
20
20.968936745849788
30
0
0
SPLINE
5
231
100
AcDbEntity
8
0
100
AcDbSpline
70
0
71
3
72
8
73
4
74
0
42
0.000000001
43
0.0000000001
44
0.0000000001
40
0
40
0
40
0
40
0
40
1
40
1
40
1
40
1
10
39.401673225973312
20
17.811127821039491
30
0
10
39.558260912000648
20
17.926277603269188
30
0
10
39.734991813330907
20
18.064064220785085
30
0
10
39.929974444991615
20
18.228038830473785
30
0
0
ARC
5
232
100
AcDbEntity
8
0
100
AcDbCircle
10
-1.1214016559790707e-06
20
6.3597840567839572e-06
30
0
40
42.925331970571143
210
0
220
0
230
1
100
AcDbArc
50
216.19255957752111
51
217.14077375581255
0
ARC
5
233
100
AcDbEntity
8
0
100
AcDbCircle
10
-9.3530988465317932e-06
20
8.8241941447839579e-06
30
0
40
42.925331970573509
210
0
220
0
230
1
100
AcDbArc
50
289.52589291085445
51
290.474107089146
0
ARC
5
234
100
AcDbEntity
8
0
100
AcDbCircle
10
-6.8923870166770485e-06
20
2.0634445117839567e-06
30
0
40
46.676792932483799
210
0
220
-0
230
1
100
AcDbArc
50
19.202372660555977
51
20.797627339443491
0
SPLINE
5
235
100
AcDbEntity
8
0
100
AcDbSpline
70
0
71
3
72
8
73
4
74
0
42
0.000000001
43
0.0000000001
44
0.0000000001
40
0
40
0
40
0
40
0
40
1
40
1
40
1
40
1
10
15.875468988146721
20
-40.922290144472903
30
0
10
16.318248290661117
20
-41.51598880830651
30
0
10
16.966720813529825
20
-42.268600711833606
30
0
10
17.889299125445728
20
-43.112591556776508
30
0
0
SPLINE
5
236
100
AcDbEntity
8
0
100
AcDbSpline
70
0
71
3
72
8
73
4
74
0
42
0.000000001
43
0.0000000001
44
0.0000000001
40
0
40
0
40
0
40
0
40
1
40
1
40
1
40
1
10
-42.304903392487475
20
11.703013047774888
30
0
10
-43.045532324980783
20
11.702381757946887
30
0
10
-44.036460726457577
20
11.631655571898488
30
0
10
-45.264370923138387
20
11.395630495154087
30
0
0
ARC
5
237
100
AcDbEntity
8
0
100
AcDbCircle
10
-8.5515848446959808e-06
20
9.0641517237839577e-06
30
0
40
42.925331970573495
210
0
220
0
230
1
100
AcDbArc
50
282.85922624418703
51
283.80744042247801
0
ARC
5
238
100
AcDbEntity
8
0
100
AcDbCircle
10
-6.8923870522041852e-06
20
2.0634444777839568e-06
30
0
40
46.676792932483892
210
0
220
-0
230
1
100
AcDbArc
50
32.535705993889408
51
34.130960672777029
0
ARC
5
239
100
AcDbEntity
8
0
100
AcDbCircle
10
-28.122663148573377
20
32.957550092050191
30
0
40
0.4000000000000079
210
0
220
0
230
1
100
AcDbArc
50
232.99665583845618
51
310.47406580500461
0
ARC
5
240
100
AcDbEntity
8
0
100
AcDbCircle
10
-31.758645600685789
20
29.46986182485519
30
0
40
0.40000000000000824
210
0
220
0
230
1
100
AcDbArc
50
239.66332250512352
51
317.14073247166527
0
SPLINE
5
241
100
AcDbEntity
8
0
100
AcDbSpline
70
0
71
3
72
8
73
4
74
0
42
0.000000001
43
0.0000000001
44
0.0000000001
40
0
40
0
40
0
40
0
40
1
40
1
40
1
40
1
10
-37.81577576183448
20
20.968936745849788
30
0
10
-38.00164775486769
20
21.025776678720991
30
0
10
-38.217705972577178
20
21.085256171083188
30
0
10
-38.465669363760483
20
21.143737415125994
30
0
0
ARC
5
242
100
AcDbEntity
8
0
100
AcDbCircle
10
-1.3784775134695337e-05
20
-1.104216043516659e-12
30
0
40
42.925331970572202
210
0
220
-0
230
1
100
AcDbArc
50
16.192559577520775
51
17.140773755812805
0
ARC
5
243
100
AcDbEntity
8
0
100
AcDbCircle
10
10.33999613408092
20
-42.073363672780211
30
0
40
0.40000000000000679
210
0
220
-0
230
1
100
AcDbArc
50
26.329989171791762
51
103.80739913839558
0
SPLINE
5
244
100
AcDbEntity
8
0
100
AcDbSpline
70
0
71
3
72
8
73
4
74
0
42
0.000000001
43
0.0000000001
44
0.0000000001
40
0
40
0
40
0
40
0
40
1
40
1
40
1
40
1
10
23.898851562066223
20
-40.094480886657209
30
0
10
23.772792496343822
20
-38.850463041160516
30
0
10
23.556345971895425
20
-37.880879526294208
30
0
10
23.344535968851527
20
-37.171183720484812
30
0
0
SPLINE
5
245
100
AcDbEntity
8
0
100
AcDbSpline
70
0
71
3
72
8
73
4
74
0
42
0.000000001
43
0.0000000001
44
0.0000000001
40
0
40
0
40
0
40
0
40
1
40
1
40
1
40
1
10
-37.067521452370386
20
-22.264947099935114
30
0
10
-37.209682274702885
20
-22.39749700131831
30
0
10
-37.369222134947492
20
-22.554869160370011
30
0
10
-37.543850073525093
20
-22.740371134321911
30
0
0
SPLINE
5
246
100
AcDbEntity
8
0
100
AcDbSpline
70
0
71
3
72
8
73
4
74
0
42
0.000000001
43
0.0000000001
44
0.0000000001
40
0
40
0
40
0
40
0
40
1
40
1
40
1
40
1
10
45.264357138364431
20
11.395630495154087
30
0
10
44.036446941683622
20
11.631655571898488
30
0
10
43.045518540206814
20
11.702381757946789
30
0
10
42.30488960771352
20
11.703013047774791
30
0
0
SPLINE
5
247
100
AcDbEntity
8
0
100
AcDbSpline
70
0
71
3
72
8
73
4
74
0
42
0.000000001
43
0.0000000001
44
0.0000000001
40
0
40
0
40
0
40
0
40
1
40
1
40
1
40
1
10
-36.170708632405884
20
29.502600831969289
30
0
10
-35.626772696746883
20
28.37672118215599
30
0
10
-35.091762402207287
20
27.539639779314591
30
0
10
-34.649995844117676
20
26.945187155191693
30
0
0
SPLINE
5
248
100
AcDbEntity
8
0
100
AcDbSpline
70
0
71
3
72
8
73
4
74
0
42
0.000000001
43
0.0000000001
44
0.0000000001
40
0
40
0
40
0
40
0
40
1
40
1
40
1
40
1
10
-6.0102272156485803
20
43.480365282366897
30
0
10
-6.3041550104405175
20
44.160172656276401
30
0
10
-6.7615836230668513
20
45.0420458640546
30
0
10
-7.4646560335796508
20
46.076048027273188
30
0
0
ARC
5
249
100
AcDbEntity
8
0
100
AcDbCircle
10
-41.606611955905194
20
-12.081975508538608
30
0
40
0.40000000000002545
210
0
220
-0
230
1
100
AcDbArc
50
16.192600861701099
51
93.670010828202592
0
SPLINE
5
250
100
AcDbEntity
8
0
100
AcDbSpline
70
0
71
3
72
8
73
4
74
0
42
0.000000001
43
0.0000000001
44
0.0000000001
40
0
40
0
40
0
40
0
40
1
40
1
40
1
40
1
10
-38.465669363760483
20
21.143737415125994
30
0
10
-39.186480132979383
20
21.313923927960889
30
0
10
-40.167008512128092
20
21.473627991560889
30
0
10
-41.416251359131486
20
21.527140580507584
30
0
0
SPLINE
5
251
100
AcDbEntity
8
0
100
AcDbSpline
70
0
71
3
72
8
73
4
74
0
42
0.000000001
43
0.0000000001
44
0.0000000001
40
0
40
0
40
0
40
0
40
1
40
1
40
1
40
1
10
9.2233934805345719
20
-42.913790818848902
30
0
10
9.2384857642598206
20
-42.65947188081271
30
0
10
9.2434712296718402
20
-42.43543146350801
30
0
10
9.2423278585729385
20
-42.241066167054406
30
0
0
ARC
5
252
100
AcDbEntity
8
0
100
AcDbCircle
10
-2.9388684552600353e-06
20
-3.947588385216044e-06
30
0
40
42.925331970572373
210
0
220
0
230
1
100
AcDbArc
50
122.85922624418771
51
123.80744042247923
0
SPLINE
5
253
100
AcDbEntity
8
0
100
AcDbSpline
70
0
71
3
72
8
73
4
74
0
42
0.000000001
43
0.0000000001
44
0.0000000001
40
0
40
0
40
0
40
0
40
1
40
1
40
1
40
1
10
41.202998653696724
20
13.116439494082691
30
0
10
41.371895623589111
20
13.21263195389189
30
0
10
41.563427583743419
20
13.328969702240791
30
0
10
41.776128102883646
20
13.469199472366089
30
0
0
SPLINE
5
254
100
AcDbEntity
8
0
100
AcDbSpline
70
0
71
3
72
8
73
4
74
0
42
0.000000001
43
0.0000000001
44
0.0000000001
40
0
40
0
40
0
40
0
40
1
40
1
40
1
40
1
10
-32.552741514735985
20
29.444597536815994
30
0
10
-33.214875025537168
20
29.776427053355889
30
0
10
-34.132142843637482
20
30.157951679197588
30
0
10
-35.335371335727089
20
30.498117056314193
30
0
0
ARC
5
255
100
AcDbEntity
8
0
100
AcDbCircle
10
-41.606611955905194
20
12.081979635427489
30
0
40
0.4000000000000023
210
0
220
0
230
1
100
AcDbArc
50
266.32998917179344
51
343.80739913832156
0
ARC
5
256
100
AcDbEntity
8
0
100
AcDbCircle
10
41.400959661109042
20
12.76886009373759
30
0
40
0.40000000000001557
210
0
220
0
230
1
100
AcDbArc
50
119.66332250512612
51
197.14073247161085
0
ARC
5
257
100
AcDbEntity
8
0
100
AcDbCircle
10
39.922637207392228
20
16.830517653997287
30
0
40
0.40000000000001212
210
0
220
0
230
1
100
AcDbArc
50
202.85926752835923
51
280.33667749486989
0
SPLINE
5
258
100
AcDbEntity
8
0
100
AcDbSpline
70
0
71
3
72
8
73
4
74
0
42
0.000000001
43
0.0000000001
44
0.0000000001
40
0
40
0
40
0
40
0
40
1
40
1
40
1
40
1
10
-37.543850073525093
20
-22.740371134321911
30
0
10
-38.051641301631193
20
-23.279518315369412
30
0
10
-38.680213267370576
20
-24.048828769043812
30
0
10
-39.35117795232248
20
-25.10394851557141
30
0
0
SPLINE
5
259
100
AcDbEntity
8
0
100
AcDbSpline
70
0
71
3
72
8
73
4
74
0
42
0.000000001
43
0.0000000001
44
0.0000000001
40
0
40
0
40
0
40
0
40
1
40
1
40
1
40
1
10
40.66020238260522
20
16.535180190619588
30
0
10
40.407126373123731
20
16.50588116850669
30
0
10
40.185623916190224
20
16.471886683308089
30
0
10
39.994410009633924
20
16.43700950305449
30
0
0
CIRCLE
5
260
100
AcDbEntity
8
0
100
AcDbCircle
10
1.3855583347321954e-12
20
-1.1612160435106763e-12
30
0
40
2.8950000000000005
210
-0
220
0
230
1
0
SPLINE
5
261
100
AcDbEntity
8
0
100
AcDbSpline
70
0
71
3
72
8
73
4
74
0
42
0.000000001
43
0.0000000001
44
0.0000000001
40
0
40
0
40
0
40
0
40
1
40
1
40
1
40
1
10
41.776128102883717
20
-13.469195345477212
30
0
10
41.563427583743518
20
-13.328965575351914
30
0
10
41.371895623589111
20
-13.212627827003011
30
0
10
41.202998653696824
20
-13.116435367193912
30
0
0
ARC
5
262
100
AcDbEntity
8
0
100
AcDbCircle
10
41.400959661109042
20
-12.768855966848712
30
0
40
0.4000000000000325
210
0
220
0
230
1
100
AcDbArc
50
162.85926752834749
51
240.33667749488785
0
SPLINE
5
263
100
AcDbEntity
8
0
100
AcDbSpline
70
0
71
3
72
8
73
4
74
0
42
0.000000001
43
0.0000000001
44
0.0000000001
40
0
40
0
40
0
40
0
40
1
40
1
40
1
40
1
10
42.304889607713619
20
-11.703008920885914
30
0
10
43.045518540206814
20
-11.702377631057914
30
0
10
44.036446941683622
20
-11.631651445009512
30
0
10
45.264357138364502
20
-11.395626368265212
30
0
0
SPLINE
5
264
100
AcDbEntity
8
0
100
AcDbSpline
70
0
71
3
72
8
73
4
74
0
42
0.000000001
43
0.0000000001
44
0.0000000001
40
0
40
0
40
0
40
0
40
1
40
1
40
1
40
1
10
-43.863469500679869
20
1.6313763290469987
30
0
10
-44.583989098992078
20
1.4599612695540287
30
0
10
-45.531896316181076
20
1.1626177008539891
30
0
10
-46.672276906003574
20
0.6497791313985708
30
0
0
SPLINE
5
265
100
AcDbEntity
8
0
100
AcDbSpline
70
0
71
3
72
8
73
4
74
0
42
0.000000001
43
0.0000000001
44
0.0000000001
40
0
40
0
40
0
40
0
40
1
40
1
40
1
40
1
10
-46.672276906003574
20
-0.64977500450974035
30
0
10
-45.531896316181076
20
-1.1626135739651615
30
0
10
-44.583989098992078
20
-1.4599571426652016
30
0
10
-43.863469500679869
20
-1.6313722021581714
30
0
0
ARC
5
266
100
AcDbEntity
8
0
100
AcDbCircle
10
-6.8923869633863433e-06
20
2.0634442877839568e-06
30
0
40
46.676792932483835
210
0
220
0
230
1
100
AcDbArc
50
185.86903932722265
51
187.4642940061099
0
ARC
5
267
100
AcDbEntity
8
0
100
AcDbCircle
10
-42.727914961620584
20
7.1700535966345003
30
0
40
0.40000000000001401
210
0
220
0
230
1
100
AcDbArc
50
272.99665583846405
51
350.47406580498836
0
SPLINE
5
268
100
AcDbEntity
8
0
100
AcDbSpline
70
0
71
3
72
8
73
4
74
0
42
0.000000001
43
0.0000000001
44
0.0000000001
40
0
40
0
40
0
40
0
40
1
40
1
40
1
40
1
10
-42.707003893815084
20
6.7706005615437093
30
0
10
-42.901106836066475
20
6.7604406613312582
30
0
10
-43.124478333410877
20
6.7424368388044398
30
0
10
-43.377489465800195
20
6.7125827576937791
30
0
0
ARC
5
269
100
AcDbEntity
8
0
100
AcDbCircle
10
-6.8923869811499117e-06
20
2.0634444147839569e-06
30
0
40
46.676792932483799
210
0
220
0
230
1
100
AcDbArc
50
179.20237266055622
51
180.7976273394442
0
SPLINE
5
270
100
AcDbEntity
8
0
100
AcDbSpline
70
0
71
3
72
8
73
4
74
0
42
0.000000001
43
0.0000000001
44
0.0000000001
40
0
40
0
40
0
40
0
40
1
40
1
40
1
40
1
10
-43.204252968191796
20
1.7668404611933588
30
0
10
-43.395863963363496
20
1.7342152823852885
30
0
10
-43.615634986329681
20
1.6904013472064388
30
0
10
-43.863469500679869
20
1.6313763290469987
30
0
0
ARC
5
271
100
AcDbEntity
8
0
100
AcDbCircle
10
1.9294748909715054e-07
20
8.1410856178395673e-07
30
0
40
42.925331970571044
210
0
220
0
230
1
100
AcDbArc
50
169.525892910854
51
170.47410708914552
0
ARC
5
272
100
AcDbEntity
8
0
100
AcDbCircle
10
2.9007930280045002e-07
20
1.6451134977839568e-06
30
0
40
42.925331970572252
210
0
220
0
230
1
100
AcDbArc
50
176.19255957752108
51
177.14077375581272
0
SPLINE
5
273
100
AcDbEntity
8
0
100
AcDbSpline
70
0
71
3
72
8
73
4
74
0
42
0.000000001
43
0.0000000001
44
0.0000000001
40
0
40
0
40
0
40
0
40
1
40
1
40
1
40
1
10
-43.057344986024987
20
8.5282123254938096
30
0
10
-42.829802989042385
20
8.4136237620109888
30
0
10
-42.626060111254972
20
8.3203081512999901
30
0
10
-42.44713789927539
20
8.2443738519136893
30
0
0
ARC
5
274
100
AcDbEntity
8
0
100
AcDbCircle
10
-6.8923869633863433e-06
20
2.0634445437839569e-06
30
0
40
46.676792932483828
210
0
220
0
230
1
100
AcDbArc
50
172.53570599388968
51
174.13096067277698
0
ARC
5
275
100
AcDbEntity
8
0
100
AcDbCircle
10
42.727901176846629
20
7.1700535966344692
30
0
40
0.4000000000000139
210
0
220
0
230
1
100
AcDbArc
50
189.52593419501167
51
267.00334416153385
0
ARC
5
276
100
AcDbEntity
8
0
100
AcDbCircle
10
-6.8923869989134801e-06
20
2.063444484783957e-06
30
0
40
46.676792932483806
210
0
220
-0
230
1
100
AcDbArc
50
12.535705993889366
51
14.13096067277678
0
ARC
5
277
100
AcDbEntity
8
0
100
AcDbCircle
10
43.229692562581818
20
2.8769539216700184
30
0
40
0.39999999999999586
210
0
220
0
230
1
100
AcDbArc
50
106.32998917178803
51
183.80739913832068
0
ARC
5
278
100
AcDbEntity
8
0
100
AcDbCircle
10
-6.8923869633863433e-06
20
2.0634444917839567e-06
30
0
40
46.676792932483821
210
0
220
0
230
1
100
AcDbArc
50
165.86903932722296
51
167.46429400611058
0
SPLINE
5
279
100
AcDbEntity
8
0
100
AcDbSpline
70
0
71
3
72
8
73
4
74
0
42
0.000000001
43
0.0000000001
44
0.0000000001
40
0
40
0
40
0
40
0
40
1
40
1
40
1
40
1
10
43.057331201251031
20
8.5282123254938007
30
0
10
43.718898067337605
20
8.8611701244253194
30
0
10
44.572682176803525
20
9.3691012070238795
30
0
10
45.56405494699392
20
10.131106009167691
30
0
0
ARC
5
280
100
AcDbEntity
8
0
100
AcDbCircle
10
-6.8923869989134801e-06
20
2.0634445167839567e-06
30
0
40
46.676792932483799
210
0
220
-0
230
1
100
AcDbArc
50
5.8690393272226578
51
7.4642940061101024
0
ARC
5
281
100
AcDbEntity
8
0
100
AcDbCircle
10
-1.4074853282863842e-05
20
1.6451130457839569e-06
30
0
40
42.925331970572316
210
0
220
-0
230
1
100
AcDbArc
50
2.8592262441879455
51
3.807440422479424
0
ARC
5
282
100
AcDbEntity
8
0
100
AcDbCircle
10
-1.3977722606028919e-05
20
8.1410808778395649e-07
30
0
40
42.925331970572238
210
0
220
-0
230
1
100
AcDbArc
50
9.5258929108548376
51
10.474107089146363
0
SPLINE
5
283
100
AcDbEntity
8
0
100
AcDbSpline
70
0
71
3
72
8
73
4
74
0
42
0.000000001
43
0.0000000001
44
0.0000000001
40
0
40
0
40
0
40
0
40
1
40
1
40
1
40
1
10
46.281247414675533
20
6.063705406037899
30
0
10
45.089040746435515
20
6.4406862386661787
30
0
10
44.113023457356221
20
6.62597396536313
30
0
10
43.377475681026226
20
6.7125827576937596
30
0
0
SPLINE
5
284
100
AcDbEntity
8
0
100
AcDbSpline
70
0
71
3
72
8
73
4
74
0
42
0.000000001
43
0.0000000001
44
0.0000000001
40
0
40
0
40
0
40
0
40
1
40
1
40
1
40
1
10
43.756257666071733
20
3.4718957648346089
30
0
10
44.452005294838614
20
3.7257989968700391
30
0
10
45.358983621144432
20
4.1311773458945993
30
0
10
46.432116441376635
20
4.7729383902915785
30
0
0
SPLINE
5
285
100
AcDbEntity
8
0
100
AcDbSpline
70
0
71
3
72
8
73
4
74
0
42
0.000000001
43
0.0000000001
44
0.0000000001
40
0
40
0
40
0
40
0
40
1
40
1
40
1
40
1
10
43.377475681026226
20
6.7125827576937596
30
0
10
43.124464548636908
20
6.7424368388044185
30
0
10
42.901093051292506
20
6.7604406613312298
30
0
10
42.706990109041115
20
6.7706005615436879
30
0
0
SPLINE
5
286
100
AcDbEntity
8
0
100
AcDbSpline
70
0
71
3
72
8
73
4
74
0
42
0.000000001
43
0.0000000001
44
0.0000000001
40
0
40
0
40
0
40
0
40
1
40
1
40
1
40
1
10
43.8634557159059
20
1.6313763290469687
30
0
10
43.61562120155574
20
1.6904013472064188
30
0
10
43.395850178589527
20
1.7342152823852588
30
0
10
43.204239183417826
20
1.7668404611933386
30
0
0
SPLINE
5
287
100
AcDbEntity
8
0
100
AcDbSpline
70
0
71
3
72
8
73
4
74
0
42
0.000000001
43
0.0000000001
44
0.0000000001
40
0
40
0
40
0
40
0
40
1
40
1
40
1
40
1
10
46.672263121229619
20
0.64977913139854393
30
0
10
45.53188253140712
20
1.1626177008539689
30
0
10
44.583975314218108
20
1.4599612695540087
30
0
10
43.8634557159059
20
1.6313763290469687
30
0
0
SPLINE
5
288
100
AcDbEntity
8
0
100
AcDbSpline
70
0
71
3
72
8
73
4
74
0
42
0.000000001
43
0.0000000001
44
0.0000000001
40
0
40
0
40
0
40
0
40
1
40
1
40
1
40
1
10
42.447124114501435
20
8.2443738519136787
30
0
10
42.626046326481003
20
8.3203081512999795
30
0
10
42.829789204268408
20
8.4136237620109782
30
0
10
43.057331201251031
20
8.5282123254938007
30
0
0
ARC
5
289
100
AcDbEntity
8
0
100
AcDbCircle
10
43.271382524963414
20
2.1611649109629387
30
0
40
0.40000000000000169
210
0
220
0
230
1
100
AcDbArc
50
182.85926752834601
51
260.33667749487415
0
ARC
5
290
100
AcDbEntity
8
0
100
AcDbCircle
10
42.60339507492462
20
7.8761627888962504
30
0
40
0.4000000000000038
210
0
220
0
230
1
100
AcDbArc
50
112.99665583845677
51
190.47406580498708
0
SPLINE
5
291
100
AcDbEntity
8
0
100
AcDbSpline
70
0
71
3
72
8
73
4
74
0
42
0.000000001
43
0.0000000001
44
0.0000000001
40
0
40
0
40
0
40
0
40
1
40
1
40
1
40
1
10
43.117224945807223
20
3.2608172243925386
30
0
10
43.303752783895234
20
3.3154664822208293
30
0
10
43.516951306411244
20
3.3844980217405092
30
0
10
43.756257666071733
20
3.4718957648346089
30
0
0
SPLINE
5
292
100
AcDbEntity
8
0
100
AcDbSpline
70
0
71
3
72
8
73
4
74
0
42
0.000000001
43
0.0000000001
44
0.0000000001
40
0
40
0
40
0
40
0
40
1
40
1
40
1
40
1
10
46.432116441376635
20
-4.7729342634026715
30
0
10
45.358983621144432
20
-4.1311732190057011
30
0
10
44.452005294838713
20
-3.7257948699811316
30
0
10
43.756257666071733
20
-3.4718916379457014
30
0
0
ARC
5
293
100
AcDbEntity
8
0
100
AcDbCircle
10
-6.8923869811499117e-06
20
2.0634443927839566e-06
30
0
40
46.676792932483821
210
0
220
0
230
1
100
AcDbArc
50
352.53570599389002
51
354.13096067277706
0
SPLINE
5
294
100
AcDbEntity
8
0
100
AcDbSpline
70
0
71
3
72
8
73
4
74
0
42
0.000000001
43
0.0000000001
44
0.0000000001
40
0
40
0
40
0
40
0
40
1
40
1
40
1
40
1
10
43.37747568102634
20
-6.7125786308048516
30
0
10
44.113023457356221
20
-6.6259698384742318
30
0
10
45.089040746435515
20
-6.4406821117772717
30
0
10
46.281247414675605
20
-6.0637012791489919
30
0
0
SPLINE
5
295
100
AcDbEntity
8
0
100
AcDbSpline
70
0
71
3
72
8
73
4
74
0
42
0.000000001
43
0.0000000001
44
0.0000000001
40
0
40
0
40
0
40
0
40
1
40
1
40
1
40
1
10
43.204239183417826
20
-1.7668363343045612
30
0
10
43.395850178589527
20
-1.7342111554964814
30
0
10
43.61562120155574
20
-1.6903972203176414
30
0
10
43.8634557159059
20
-1.6313722021581913
30
0
0
ARC
5
296
100
AcDbEntity
8
0
100
AcDbCircle
10
43.229692562581818
20
-2.8769497947811207
30
0
40
0.3999999999999726
210
0
220
0
230
1
100
AcDbArc
50
176.1926008616891
51
253.67001082821201
0
ARC
5
297
100
AcDbEntity
8
0
100
AcDbCircle
10
42.727901176846629
20
-7.1700494697455719
30
0
40
0.39999999999999847
210
0
220
0
230
1
100
AcDbArc
50
92.996655838449897
51
170.47406580505805
0
ARC
5
298
100
AcDbEntity
8
0
100
AcDbCircle
10
43.271382524963414
20
-2.1611607840741613
30
0
40
0.40000000000000679
210
0
220
0
230
1
100
AcDbArc
50
99.663322505125819
51
177.14073247161193
0
SPLINE
5
299
100
AcDbEntity
8
0
100
AcDbSpline
70
0
71
3
72
8
73
4
74
0
42
0.000000001
43
0.0000000001
44
0.0000000001
40
0
40
0
40
0
40
0
40
1
40
1
40
1
40
1
10
43.8634557159059
20
-1.6313722021581913
30
0
10
44.583975314218108
20
-1.4599571426652314
30
0
10
45.53188253140712
20
-1.1626135739651913
30
0
10
46.672263121229619
20
-0.64977500450976622
30
0
0
ARC
5
300
100
AcDbEntity
8
0
100
AcDbCircle
10
-6.8923869811499117e-06
20
2.0634443887839566e-06
30
0
40
46.676792932483849
210
0
220
0
230
1
100
AcDbArc
50
-0.79762733944376418
51
0.79762733944378283
0
ARC
5
301
100
AcDbEntity
8
0
100
AcDbCircle
10
-1.4074845910982958e-05
20
2.4817749367839568e-06
30
0
40
42.925331970564926
210
0
220
0
230
1
100
AcDbArc
50
356.19255957752091
51
357.14077375581309
0
SPLINE
5
302
100
AcDbEntity
8
0
100
AcDbSpline
70
0
71
3
72
8
73
4
74
0
42
0.000000001
43
0.0000000001
44
0.0000000001
40
0
40
0
40
0
40
0
40
1
40
1
40
1
40
1
10
43.756257666071733
20
-3.4718916379457014
30
0
10
43.516951306411244
20
-3.3844938948516115
30
0
10
43.303752783895234
20
-3.3154623553319311
30
0
10
43.117224945807223
20
-3.2608130975036409
30
0
0
SPLINE
5
303
100
AcDbEntity
8
0
100
AcDbSpline
70
0
71
3
72
8
73
4
74
0
42
0.000000001
43
0.0000000001
44
0.0000000001
40
0
40
0
40
0
40
0
40
1
40
1
40
1
40
1
10
42.706990109041229
20
-6.7705964346547907
30
0
10
42.901093051292506
20
-6.7604365344423307
30
0
10
43.124464548636908
20
-6.7424327119155114
30
0
10
43.37747568102634
20
-6.7125786308048516
30
0
0
ARC
5
304
100
AcDbEntity
8
0
100
AcDbCircle
10
-6.8923869811499117e-06
20
2.0634443887839566e-06
30
0
40
46.676792932483849
210
0
220
-0
230
1
100
AcDbArc
50
72.535705993889522
51
74.130960672777206
0
SPLINE
5
305
100
AcDbEntity
8
0
100
AcDbSpline
70
0
71
3
72
8
73
4
74
0
42
0.000000001
43
0.0000000001
44
0.0000000001
40
0
40
0
40
0
40
0
40
1
40
1
40
1
40
1
10
18.871377242199223
20
39.62998559647739
30
0
10
18.999364407537129
20
40.359472333630102
30
0
10
19.101785622290528
20
41.347627779405094
30
0
10
19.082570664799618
20
42.597868585559496
30
0
0
ARC
5
306
100
AcDbEntity
8
0
100
AcDbCircle
10
-1.0121334437229734e-05
20
-4.3659187862160427e-06
30
0
40
42.925331970571527
210
0
220
-0
230
1
100
AcDbArc
50
62.859226244187674
51
63.807440422479175
0
ARC
5
307
100
AcDbEntity
8
0
100
AcDbCircle
10
19.123329440409211
20
38.876495918526494
30
0
40
0.39999999999998709
210
0
220
0
230
1
100
AcDbArc
50
166.32998917178998
51
243.80739913832161
0
ARC
5
308
100
AcDbEntity
8
0
100
AcDbCircle
10
10.33999613408092
20
42.073367799668887
30
0
40
0.39999999999995212
210
0
220
0
230
1
100
AcDbArc
50
256.19260086167782
51
333.67001082820912
0
SPLINE
5
309
100
AcDbEntity
8
0
100
AcDbSpline
70
0
71
3
72
8
73
4
74
0
42
0.000000001
43
0.0000000001
44
0.0000000001
40
0
40
0
40
0
40
0
40
1
40
1
40
1
40
1
10
12.763271409039927
20
44.897905416076604
30
0
10
11.944912598308708
20
43.952516530557197
30
0
10
11.388197723739619
20
43.129710454571004
30
0
10
11.017336544464822
20
42.488622629168098
30
0
0
SPLINE
5
310
100
AcDbEntity
8
0
100
AcDbSpline
70
0
71
3
72
8
73
4
74
0
42
0.000000001
43
0.0000000001
44
0.0000000001
40
0
40
0
40
0
40
0
40
1
40
1
40
1
40
1
10
9.2233934805346429
20
42.913794945737685
30
0
10
9.1796995161831418
20
43.653134145058388
30
0
10
9.0514756252812134
20
44.638273690528095
30
0
10
8.7444532373072548
20
45.85038281979319
30
0
0
ARC
5
311
100
AcDbEntity
8
0
100
AcDbCircle
10
-6.8923870166770485e-06
20
2.0634443887839566e-06
30
0
40
46.676792932483799
210
0
220
-0
230
1
100
AcDbArc
50
85.869039327222822
51
87.464294006110464
0
ARC
5
312
100
AcDbEntity
8
0
100
AcDbCircle
10
15.154500368043617
20
40.588481668561798
30
0
40
0.39999999999998304
210
0
220
0
230
1
100
AcDbArc
50
249.52593419501494
51
327.00334416155164
0
ARC
5
313
100
AcDbEntity
8
0
100
AcDbCircle
10
-6.8923871587855956e-06
20
2.0634444167839567e-06
30
0
40
46.676792932483792
210
0
220
-0
230
1
100
AcDbArc
50
79.202372660555909
51
80.797627339443594
0
SPLINE
5
314
100
AcDbEntity
8
0
100
AcDbSpline
70
0
71
3
72
8
73
4
74
0
42
0.000000001
43
0.0000000001
44
0.0000000001
40
0
40
0
40
0
40
0
40
1
40
1
40
1
40
1
10
-43.117238730581192
20
-3.2608130975037413
30
0
10
-43.303766568669189
20
-3.315462355332031
30
0
10
-43.516965091185185
20
-3.3844938948517118
30
0
10
-43.756271450845702
20
-3.4718916379458014
30
0
0
SPLINE
5
315
100
AcDbEntity
8
0
100
AcDbSpline
70
0
71
3
72
8
73
4
74
0
42
0.000000001
43
0.0000000001
44
0.0000000001
40
0
40
0
40
0
40
0
40
1
40
1
40
1
40
1
10
-43.863469500679869
20
-1.6313722021581714
30
0
10
-43.615634986329681
20
-1.6903972203176112
30
0
10
-43.395863963363496
20
-1.7342111554964614
30
0
10
-43.204252968191796
20
-1.7668363343045412
30
0
0
SPLINE
5
316
100
AcDbEntity
8
0
100
AcDbSpline
70
0
71
3
72
8
73
4
74
0
42
0.000000001
43
0.0000000001
44
0.0000000001
40
0
40
0
40
0
40
0
40
1
40
1
40
1
40
1
10
-43.756271450845702
20
3.4718957648346294
30
0
10
-43.516965091185185
20
3.3844980217405385
30
0
10
-43.30376656866909
20
3.315466482220859
30
0
10
-43.117238730581192
20
3.2608172243925693
30
0
0
ARC
5
317
100
AcDbEntity
8
0
100
AcDbCircle
10
2.9007933832758681e-07
20
2.4817757547839566e-06
30
0
40
42.925331970572309
210
0
220
0
230
1
100
AcDbArc
50
182.85922624418797
51
183.80744042247989
0
SPLINE
5
318
100
AcDbEntity
8
0
100
AcDbSpline
70
0
71
3
72
8
73
4
74
0
42
0.000000001
43
0.0000000001
44
0.0000000001
40
0
40
0
40
0
40
0
40
1
40
1
40
1
40
1
10
-46.432130226150583
20
4.7729383902916078
30
0
10
-45.35899740591838
20
4.1311773458946286
30
0
10
-44.452019079612569
20
3.7257989968700582
30
0
10
-43.756271450845702
20
3.4718957648346294
30
0
0
ARC
5
319
100
AcDbEntity
8
0
100
AcDbCircle
10
-43.229706347355773
20
-2.876949794781221
30
0
40
0.39999999999999586
210
0
220
0
230
1
100
AcDbArc
50
-73.670010828213933
51
3.8073991382742904
0
ARC
5
320
100
AcDbEntity
8
0
100
AcDbCircle
10
-43.271396309737383
20
-2.1611607840741414
30
0
40
0.40000000000003838
210
0
220
-0
230
1
100
AcDbArc
50
2.8592675283492182
51
80.336677494874195
0
ARC
5
321
100
AcDbEntity
8
0
100
AcDbCircle
10
-43.271396309737383
20
2.1611649109629587
30
0
40
0.40000000000000652
210
0
220
0
230
1
100
AcDbArc
50
279.66332250512585
51
357.14073247165408
0
SPLINE
5
322
100
AcDbEntity
8
0
100
AcDbSpline
70
0
71
3
72
8
73
4
74
0
42
0.000000001
43
0.0000000001
44
0.0000000001
40
0
40
0
40
0
40
0
40
1
40
1
40
1
40
1
10
-46.281261199449489
20
-6.0637012791490914
30
0
10
-45.089054531209484
20
-6.4406821117773818
30
0
10
-44.11303724213019
20
-6.6259698384743313
30
0
10
-43.377489465800195
20
-6.7125786308049529
30
0
0
SPLINE
5
323
100
AcDbEntity
8
0
100
AcDbSpline
70
0
71
3
72
8
73
4
74
0
42
0.000000001
43
0.0000000001
44
0.0000000001
40
0
40
0
40
0
40
0
40
1
40
1
40
1
40
1
10
-43.377489465800195
20
6.7125827576937791
30
0
10
-44.11303724213019
20
6.6259739653631584
30
0
10
-45.089054531209484
20
6.4406862386662089
30
0
10
-46.281261199449489
20
6.0637054060379292
30
0
0
ARC
5
324
100
AcDbEntity
8
0
100
AcDbCircle
10
-42.60340885969859
20
7.8761627888962593
30
0
40
0.40000000000000491
210
0
220
0
230
1
100
AcDbArc
50
-10.474065804987832
51
67.003344161543225
0
ARC
5
325
100
AcDbEntity
8
0
100
AcDbCircle
10
-43.229706347355773
20
2.876953921670049
30
0
40
0.40000000000001285
210
0
220
0
230
1
100
AcDbArc
50
-3.8073991383209362
51
73.670010828213933
0
SPLINE
5
326
100
AcDbEntity
8
0
100
AcDbSpline
70
0
71
3
72
8
73
4
74
0
42
0.000000001
43
0.0000000001
44
0.0000000001
40
0
40
0
40
0
40
0
40
1
40
1
40
1
40
1
10
-45.564068731767875
20
10.131106009167691
30
0
10
-44.572695961577494
20
9.3691012070238902
30
0
10
-43.718911852111582
20
8.86117012442533
30
0
10
-43.057344986024987
20
8.5282123254938096
30
0
0
SPLINE
5
327
100
AcDbEntity
8
0
100
AcDbSpline
70
0
71
3
72
8
73
4
74
0
42
0.000000001
43
0.0000000001
44
0.0000000001
40
0
40
0
40
0
40
0
40
1
40
1
40
1
40
1
10
-43.756271450845702
20
-3.4718916379458014
30
0
10
-44.452019079612569
20
-3.7257948699812315
30
0
10
-45.35899740591838
20
-4.1311732190058015
30
0
10
-46.432130226150583
20
-4.7729342634027709
30
0
0
ARC
5
328
100
AcDbEntity
8
0
100
AcDbCircle
10
-34.536983002485385
20
26.158768244821694
30
0
40
0.40000000000000235
210
0
220
0
230
1
100
AcDbArc
50
-37.140732471653379
51
40.336677494873811
0
ARC
5
329
100
AcDbEntity
8
0
100
AcDbCircle
10
-24.10637001455969
20
35.999544060300892
30
0
40
0.40000000000003799
210
0
220
0
230
1
100
AcDbArc
50
226.32998917179341
51
303.80739913832235
0
ARC
5
330
100
AcDbEntity
8
0
100
AcDbCircle
10
19.764065888622024
20
38.554705979678189
30
0
40
0.40000000000000896
210
0
220
0
230
1
100
AcDbArc
50
242.85926752834408
51
320.33667749488097
0
ARC
5
331
100
AcDbEntity
8
0
100
AcDbCircle
10
-6.8923869278592065e-06
20
2.0634444597839566e-06
30
0
40
46.676792932483799
210
0
220
0
230
1
100
AcDbArc
50
145.86903932722299
51
147.46429400611004
0
SPLINE
5
332
100
AcDbEntity
8
0
100
AcDbSpline
70
0
71
3
72
8
73
4
74
0
42
0.000000001
43
0.0000000001
44
0.0000000001
40
0
40
0
40
0
40
0
40
1
40
1
40
1
40
1
10
-31.960677687510781
20
29.124632863304786
30
0
10
-32.128431286304178
20
29.222805699949195
30
0
10
-32.324948711870576
20
29.33050836890509
30
0
10
-32.552741514735985
20
29.444597536815994
30
0
0
SPLINE
5
333
100
AcDbEntity
8
0
100
AcDbSpline
70
0
71
3
72
8
73
4
74
0
42
0.000000001
43
0.0000000001
44
0.0000000001
40
0
40
0
40
0
40
0
40
1
40
1
40
1
40
1
10
-31.287559955635782
20
30.785611644837591
30
0
10
-31.160418834990278
20
30.564837926490288
30
0
10
-31.041471909816476
20
30.374915330564495
30
0
10
-30.933711161772877
20
30.213153787099991
30
0
0
SPLINE
5
334
100
AcDbEntity
8
0
100
AcDbSpline
70
0
71
3
72
8
73
4
74
0
42
0.000000001
43
0.0000000001
44
0.0000000001
40
0
40
0
40
0
40
0
40
1
40
1
40
1
40
1
10
23.344535968851527
20
-37.171183720484812
30
0
10
23.27173587686131
20
-36.927040226043324
30
0
10
23.199794346282818
20
-36.714805969549417
30
0
10
23.132243082347816
20
-36.532553390682217
30
0
0
ARC
5
335
100
AcDbEntity
8
0
100
AcDbCircle
10
-2.2677625466371865e-06
20
-3.4479679932160435e-06
30
0
40
42.925331970571897
210
0
220
0
230
1
100
AcDbArc
50
129.52589291085502
51
130.47410708914603
0
SPLINE
5
336
100
AcDbEntity
8
0
100
AcDbSpline
70
0
71
3
72
8
73
4
74
0
42
0.000000001
43
0.0000000001
44
0.0000000001
40
0
40
0
40
0
40
0
40
1
40
1
40
1
40
1
10
5.7623355537272758
20
-42.854682703056504
30
0
10
5.8277379828933817
20
-43.037717393817907
30
0
10
5.9090491235895648
20
-43.246541391122321
30
0
10
6.010213430874547
20
-43.480361155478107
30
0
0
ARC
5
337
100
AcDbEntity
8
0
100
AcDbCircle
10
-7.7276337506759774e-06
20
9.209436474783958e-06
30
0
40
42.925331970573509
210
0
220
0
230
1
100
AcDbArc
50
276.19255957752097
51
277.14077375581292
0
ARC
5
338
100
AcDbEntity
8
0
100
AcDbCircle
10
1.3855583347321954e-12
20
-1.161216043617547e-12
30
0
40
42.925331970572394
210
0
220
0
230
1
100
AcDbArc
50
162.85922624418799
51
163.80744042247917
0
SPLINE
5
339
100
AcDbEntity
8
0
100
AcDbSpline
70
0
71
3
72
8
73
4
74
0
42
0.000000001
43
0.0000000001
44
0.0000000001
40
0
40
0
40
0
40
0
40
1
40
1
40
1
40
1
10
-41.632215948159285
20
11.682799932059888
30
0
10
-41.82618592817677
20
11.69524270566429
30
0
10
-42.050137183588078
20
11.703292466603889
30
0
10
-42.304903392487475
20
11.703013047774888
30
0
0
SPLINE
5
340
100
AcDbEntity
8
0
100
AcDbSpline
70
0
71
3
72
8
73
4
74
0
42
0.000000001
43
0.0000000001
44
0.0000000001
40
0
40
0
40
0
40
0
40
1
40
1
40
1
40
1
10
-18.871391026973185
20
39.62998559647739
30
0
10
-18.82742651289588
20
39.379041338177188
30
0
10
-18.780610318524289
20
39.159890231869191
30
0
10
-18.734674045057584
20
38.97102775665789
30
0
0
SPLINE
5
341
100
AcDbEntity
8
0
100
AcDbSpline
70
0
71
3
72
8
73
4
74
0
42
0.000000001
43
0.0000000001
44
0.0000000001
40
0
40
0
40
0
40
0
40
1
40
1
40
1
40
1
10
28.391941396842917
20
-37.048888214183002
30
0
10
28.122313040518829
20
-35.827916536611816
30
0
10
27.794768274308126
20
-34.890016906387814
30
0
10
27.501999800492616
20
-34.209709450223514
30
0
0
ARC
5
342
100
AcDbEntity
8
0
100
AcDbCircle
10
19.764065888622024
20
-38.554701852789407
30
0
40
0.40000000000000485
210
0
220
-0
230
1
100
AcDbArc
50
39.663322505123702
51
117.14073247159956
0
ARC
5
343
100
AcDbEntity
8
0
100
AcDbCircle
10
-6.8923868035142277e-06
20
2.0634444167839567e-06
30
0
40
46.676792932483828
210
0
220
0
230
1
100
AcDbArc
50
99.202372660556421
51
100.79762733944403
0
ARC
5
344
100
AcDbEntity
8
0
100
AcDbCircle
10
-6.8923869811499117e-06
20
2.0634443957839567e-06
30
0
40
46.676792932483799
210
0
220
0
230
1
100
AcDbArc
50
139.20237266055602
51
140.79762733944401
0
SPLINE
5
345
100
AcDbEntity
8
0
100
AcDbSpline
70
0
71
3
72
8
73
4
74
0
42
0.000000001
43
0.0000000001
44
0.0000000001
40
0
40
0
40
0
40
0
40
1
40
1
40
1
40
1
10
14.143015418682126
20
-41.552851676006313
30
0
10
14.128481027150013
20
-41.298500244450111
30
0
10
14.107423277701709
20
-41.075395931090512
30
0
10
14.083723203999021
20
-40.88247760052181
30
0
0
ARC
5
346
100
AcDbEntity
8
0
100
AcDbCircle
10
-37.34030372127048
20
21.97239382429629
30
0
40
0.39999999999999697
210
0
220
0
230
1
100
AcDbArc
50
-30.474065804988623
51
47.003344161537633
0
ARC
5
347
100
AcDbEntity
8
0
100
AcDbCircle
10
4.6735071440339659
20
43.0725226945017
30
0
40
0.40000000000000158
210
0
220
0
230
1
100
AcDbArc
50
186.32998917178998
51
263.80739913832133
0
SPLINE
5
348
100
AcDbEntity
8
0
100
AcDbSpline
70
0
71
3
72
8
73
4
74
0
42
0.000000001
43
0.0000000001
44
0.0000000001
40
0
40
0
40
0
40
0
40
1
40
1
40
1
40
1
10
-11.017350329238784
20
42.488622629168098
30
0
10
-11.388211508513582
20
43.129710454571004
30
0
10
-11.94492638308267
20
43.952516530557197
30
0
10
-12.763285193813889
20
44.897905416076604
30
0
0
ARC
5
349
100
AcDbEntity
8
0
100
AcDbCircle
10
-1.6591966911505551e-06
20
-2.8738163872160431e-06
30
0
40
42.925331970572394
210
0
220
0
230
1
100
AcDbArc
50
136.19255957752063
51
137.14077375581201
0
ARC
5
350
100
AcDbEntity
8
0
100
AcDbCircle
10
-6.8923869989134801e-06
20
2.0634443887839566e-06
30
0
40
46.676792932483792
210
0
220
0
230
1
100
AcDbArc
50
105.86903932722301
51
107.46429400611099
0
ARC
5
351
100
AcDbEntity
8
0
100
AcDbCircle
10
9.6423209528101772
20
-42.238715728259621
30
0
40
0.40000000000002089
210
0
220
0
230
1
100
AcDbArc
50
102.85926752836386
51
180.33667749487699
0
SPLINE
5
352
100
AcDbEntity
8
0
100
AcDbSpline
70
0
71
3
72
8
73
4
74
0
42
0.000000001
43
0.0000000001
44
0.0000000001
40
0
40
0
40
0
40
0
40
1
40
1
40
1
40
1
10
-24.884887316259476
20
36.158091895087189
30
0
10
-25.452647779688586
20
36.633675400204389
30
0
10
-26.257204891240971
20
37.216452496954787
30
0
10
-27.349552668964083
20
37.824932258712288
30
0
0
ARC
5
353
100
AcDbEntity
8
0
100
AcDbCircle
10
-2.861549397437102e-07
20
-7.8620623121604341e-07
30
0
40
42.925331970571399
210
0
220
0
230
1
100
AcDbArc
50
156.19255957752102
51
157.14077375581203
0
ARC
5
354
100
AcDbEntity
8
0
100
AcDbCircle
10
-1.1214002881843044e-06
20
-2.2328958582160428e-06
30
0
40
42.925331970572557
210
0
220
0
230
1
100
AcDbArc
50
142.85922624418774
51
143.80744042247932
0
SPLINE
5
355
100
AcDbEntity
8
0
100
AcDbSpline
70
0
71
3
72
8
73
4
74
0
42
0.000000001
43
0.0000000001
44
0.0000000001
40
0
40
0
40
0
40
0
40
1
40
1
40
1
40
1
10
-24.382571577910692
20
35.710212595709685
30
0
10
-24.523163142531885
20
35.844425813092691
30
0
10
-24.689545470676286
20
35.994545379881089
30
0
10
-24.884887316259476
20
36.158091895087189
30
0
0
ARC
5
356
100
AcDbEntity
8
0
100
AcDbCircle
10
14.480738818738228
20
-40.833706690613312
30
0
40
0.40000000000000457
210
0
220
0
230
1
100
AcDbArc
50
109.52593419501335
51
187.00334416154627
0
ARC
5
357
100
AcDbEntity
8
0
100
AcDbCircle
10
-39.922650992166183
20
16.830517653997287
30
0
40
0.40000000000005742
210
0
220
0
230
1
100
AcDbArc
50
259.66332250513011
51
337.14073247165851
0
ARC
5
358
100
AcDbEntity
8
0
100
AcDbCircle
10
-1.3498620106133785e-05
20
-7.8620666121604349e-07
30
0
40
42.9253319705726
210
0
220
-0
230
1
100
AcDbArc
50
22.859226244187788
51
23.807440422479363
0
ARC
5
359
100
AcDbEntity
8
0
100
AcDbCircle
10
-6.6164743017793626e-07
20
-1.5338748042160437e-06
30
0
40
42.925331970572167
210
0
220
0
230
1
100
AcDbArc
50
149.5258929108542
51
150.47410708914572
0
SPLINE
5
360
100
AcDbEntity
8
0
100
AcDbSpline
70
0
71
3
72
8
73
4
74
0
42
0.000000001
43
0.0000000001
44
0.0000000001
40
0
40
0
40
0
40
0
40
1
40
1
40
1
40
1
10
-23.34454975362549
20
37.171187847373595
30
0
10
-23.271749661635273
20
36.9270443529321
30
0
10
-23.199808131056887
20
36.714810096438192
30
0
10
-23.132256867121779
20
36.532557517570993
30
0
0
ARC
5
361
100
AcDbEntity
8
0
100
AcDbCircle
10
-6.8923869456227749e-06
20
2.0634443957839567e-06
30
0
40
46.676792932483878
210
0
220
0
230
1
100
AcDbArc
50
92.535705993889522
51
94.130960672777206
0
ARC
5
362
100
AcDbEntity
8
0
100
AcDbCircle
10
-6.8923868568049329e-06
20
2.0634444667839567e-06
30
0
40
46.676792932483792
210
0
220
0
230
1
100
AcDbArc
50
119.20237266055632
51
120.79762733944401
0
SPLINE
5
363
100
AcDbEntity
8
0
100
AcDbSpline
70
0
71
3
72
8
73
4
74
0
42
0.000000001
43
0.0000000001
44
0.0000000001
40
0
40
0
40
0
40
0
40
1
40
1
40
1
40
1
10
-32.501092621711493
20
33.502276984366887
30
0
10
-32.091541235761895
20
32.32086302210309
30
0
10
-31.657327708854179
20
31.427330760068489
30
0
10
-31.287559955635782
20
30.785611644837591
30
0
0
SPLINE
5
364
100
AcDbEntity
8
0
100
AcDbSpline
70
0
71
3
72
8
73
4
74
0
42
0.000000001
43
0.0000000001
44
0.0000000001
40
0
40
0
40
0
40
0
40
1
40
1
40
1
40
1
10
-41.999490189953278
20
20.365816586792693
30
0
10
-41.210570402043402
20
19.39572542808169
30
0
10
-40.4969371226356
20
18.704589527720493
30
0
10
-39.929988229765584
20
18.228038830473785
30
0
0
ARC
5
365
100
AcDbEntity
8
0
100
AcDbCircle
10
-23.507323528728374
20
36.393543132159685
30
0
40
0.3999999999999998
210
0
220
0
230
1
100
AcDbArc
50
-57.140732471656825
51
20.336677494875325
0
ARC
5
366
100
AcDbEntity
8
0
100
AcDbCircle
10
-6.8923869456227749e-06
20
2.0634443427839567e-06
30
0
40
46.676792932483792
210
0
220
-0
230
1
100
AcDbArc
50
25.869039327222897
51
27.464294006110396
0
ARC
5
367
100
AcDbEntity
8
0
100
AcDbCircle
10
-39.638660982122374
20
17.488880498489291
30
0
40
0.39999999999999136
210
0
220
0
230
1
100
AcDbArc
50
-23.807399138363966
51
53.670010828216554
0
SPLINE
5
368
100
AcDbEntity
8
0
100
AcDbSpline
70
0
71
3
72
8
73
4
74
0
42
0.000000001
43
0.0000000001
44
0.0000000001
40
0
40
0
40
0
40
0
40
1
40
1
40
1
40
1
10
39.929974444991615
20
18.228038830473785
30
0
10
40.496923337861631
20
18.704589527720493
30
0
10
41.210556617269432
20
19.39572542808169
30
0
10
41.999476405179323
20
20.365816586792693
30
0
0
SPLINE
5
369
100
AcDbEntity
8
0
100
AcDbSpline
70
0
71
3
72
8
73
4
74
0
42
0.000000001
43
0.0000000001
44
0.0000000001
40
0
40
0
40
0
40
0
40
1
40
1
40
1
40
1
10
20.071989208683032
20
-38.299391788431208
30
0
10
20.196048939919731
20
-38.449019188490318
30
0
10
20.34387843230741
20
-38.617439509805315
30
0
10
20.518912854667413
20
-38.802557986087415
30
0
0
ARC
5
370
100
AcDbEntity
8
0
100
AcDbCircle
10
-1.0845905613621198e-05
20
8.0744781647839581e-06
30
0
40
42.925331970573275
210
0
220
0
230
1
100
AcDbArc
50
302.85922624418703
51
303.80744042247858
0
SPLINE
5
371
100
AcDbEntity
8
0
100
AcDbSpline
70
0
71
3
72
8
73
4
74
0
42
0.000000001
43
0.0000000001
44
0.0000000001
40
0
40
0
40
0
40
0
40
1
40
1
40
1
40
1
10
41.776128102883646
20
13.469199472366089
30
0
10
42.394567649333311
20
13.876709155146889
30
0
10
43.183611576531732
20
14.480324074774892
30
0
10
44.079817680647423
20
15.352267826923388
30
0
0
ARC
5
372
100
AcDbEntity
8
0
100
AcDbCircle
10
-39.638660982122374
20
-17.488876371600515
30
0
40
0.40000000000000507
210
0
220
0
230
1
100
AcDbArc
50
-53.67001082820871
51
23.807399138320843
0
SPLINE
5
373
100
AcDbEntity
8
0
100
AcDbSpline
70
0
71
3
72
8
73
4
74
0
42
0.000000001
43
0.0000000001
44
0.0000000001
40
0
40
0
40
0
40
0
40
1
40
1
40
1
40
1
10
-39.994423794407879
20
16.43700950305449
30
0
10
-40.185637700964193
20
16.471886683308089
30
0
10
-40.407140157897686
20
16.50588116850669
30
0
10
-40.66021616737919
20
16.535180190619588
30
0
0
SPLINE
5
374
100
AcDbEntity
8
0
100
AcDbSpline
70
0
71
3
72
8
73
4
74
0
42
0.000000001
43
0.0000000001
44
0.0000000001
40
0
40
0
40
0
40
0
40
1
40
1
40
1
40
1
10
-35.125734327643784
20
25.217295118935091
30
0
10
-35.303750807308688
20
25.295329141839787
30
0
10
-35.511442969044076
20
25.379489283267493
30
0
10
-35.750940462440482
20
25.466361890738089
30
0
0
ARC
5
375
100
AcDbEntity
8
0
100
AcDbCircle
10
-31.26660892943729
20
29.991390227685791
30
0
40
0.40000000000000824
210
0
220
0
230
1
100
AcDbArc
50
-43.807399138321706
51
33.670010828208241
0
ARC
5
376
100
AcDbEntity
8
0
100
AcDbCircle
10
-6.8923871054948904e-06
20
2.0634443037839568e-06
30
0
40
46.676792932483792
210
0
220
0
230
1
100
AcDbArc
50
299.20237266055591
51
300.79762733944403
0
ARC
5
377
100
AcDbEntity
8
0
100
AcDbCircle
10
39.638647197348419
20
17.488880498489291
30
0
40
0.40000000000007663
210
0
220
0
230
1
100
AcDbArc
50
126.32998917178345
51
203.80739913831908
0
ARC
5
378
100
AcDbEntity
8
0
100
AcDbCircle
10
5.3856610972937524
20
-42.98927970848581
30
0
40
0.40000000000003311
210
0
220
-0
230
1
100
AcDbArc
50
19.663322505133316
51
97.140732471600714
0
SPLINE
5
379
100
AcDbEntity
8
0
100
AcDbSpline
70
0
71
3
72
8
73
4
74
0
42
0.000000001
43
0.0000000001
44
0.0000000001
40
0
40
0
40
0
40
0
40
1
40
1
40
1
40
1
10
-39.929988229765584
20
18.228038830473785
30
0
10
-39.735005598104877
20
18.064064220785085
30
0
10
-39.558274696774589
20
17.926277603269188
30
0
10
-39.401687010747267
20
17.811127821039491
30
0
0
ARC
5
380
100
AcDbEntity
8
0
100
AcDbCircle
10
-6.8923870166770485e-06
20
2.0634443317839565e-06
30
0
40
46.676792932483792
210
0
220
0
230
1
100
AcDbArc
50
152.53570599388902
51
154.13096067277701
0
SPLINE
5
381
100
AcDbEntity
8
0
100
AcDbSpline
70
0
71
3
72
8
73
4
74
0
42
0.000000001
43
0.0000000001
44
0.0000000001
40
0
40
0
40
0
40
0
40
1
40
1
40
1
40
1
10
20.518912854667413
20
-38.802557986087415
30
0
10
21.027622449935617
20
-39.340838732403817
30
0
10
21.759083142676321
20
-40.01307867857011
30
0
10
22.773404666776411
20
-40.744257954611307
30
0
0
SPLINE
5
382
100
AcDbEntity
8
0
100
AcDbSpline
70
0
71
3
72
8
73
4
74
0
42
0.000000001
43
0.0000000001
44
0.0000000001
40
0
40
0
40
0
40
0
40
1
40
1
40
1
40
1
10
-28.363407802889373
20
32.638109938941291
30
0
10
-28.518629941166278
20
32.755093970123696
30
0
10
-28.701315069505373
20
32.884882672772292
30
0
10
-28.914322674955972
20
33.02464554084569
30
0
0
SPLINE
5
383
100
AcDbEntity
8
0
100
AcDbSpline
70
0
71
3
72
8
73
4
74
0
42
0.000000001
43
0.0000000001
44
0.0000000001
40
0
40
0
40
0
40
0
40
1
40
1
40
1
40
1
10
-37.543850073525093
20
22.740375261210687
30
0
10
-37.369222134947492
20
22.554873287258893
30
0
10
-37.209682274702885
20
22.397501128207189
30
0
10
-37.067521452370386
20
22.264951226823889
30
0
0
SPLINE
5
384
100
AcDbEntity
8
0
100
AcDbSpline
70
0
71
3
72
8
73
4
74
0
42
0.000000001
43
0.0000000001
44
0.0000000001
40
0
40
0
40
0
40
0
40
1
40
1
40
1
40
1
10
-44.079831465421378
20
15.352267826923388
30
0
10
-43.183625361305701
20
14.480324074774892
30
0
10
-42.39458143410728
20
13.876709155146889
30
0
10
-41.776141887657587
20
13.469199472366089
30
0
0
ARC
5
385
100
AcDbEntity
8
0
100
AcDbCircle
10
-9.3530992728574347e-06
20
-4.6973048122160434e-06
30
0
40
42.925331970573104
210
0
220
-0
230
1
100
AcDbArc
50
69.525892910853202
51
70.474107089144738
0
SPLINE
5
386
100
AcDbEntity
8
0
100
AcDbSpline
70
0
71
3
72
8
73
4
74
0
42
0.000000001
43
0.0000000001
44
0.0000000001
40
0
40
0
40
0
40
0
40
1
40
1
40
1
40
1
10
0.9218123978484094
20
43.884110612892293
30
0
10
0.84847694524272654
20
43.640127394897696
30
0
10
0.79195858777787009
20
43.423275743483785
30
0
10
0.74824741707708142
20
43.233885909229386
30
0
0
SPLINE
5
387
100
AcDbEntity
8
0
100
AcDbSpline
70
0
71
3
72
8
73
4
74
0
42
0.000000001
43
0.0000000001
44
0.0000000001
40
0
40
0
40
0
40
0
40
1
40
1
40
1
40
1
10
-10.698511678773475
20
41.8959516557155
30
0
10
-10.784720910747279
20
42.070155972784391
30
0
10
-10.889725240984784
20
42.268128329649798
30
0
10
-11.017350329238784
20
42.488622629168098
30
0
0
ARC
5
388
100
AcDbEntity
8
0
100
AcDbCircle
10
-34.965146945701484
20
25.583644259456694
30
0
40
0.40000000000000197
210
0
220
0
230
1
100
AcDbArc
50
246.32998917180007
51
323.80739913832065
0
SPLINE
5
389
100
AcDbEntity
8
0
100
AcDbSpline
70
0
71
3
72
8
73
4
74
0
42
0.000000001
43
0.0000000001
44
0.0000000001
40
0
40
0
40
0
40
0
40
1
40
1
40
1
40
1
10
-23.898865346840186
20
40.094485013545992
30
0
10
-23.772806281117784
20
38.850467168049292
30
0
10
-23.556359756669387
20
37.880883653182991
30
0
10
-23.34454975362549
20
37.171187847373595
30
0
0
SPLINE
5
390
100
AcDbEntity
8
0
100
AcDbSpline
70
0
71
3
72
8
73
4
74
0
42
0.000000001
43
0.0000000001
44
0.0000000001
40
0
40
0
40
0
40
0
40
1
40
1
40
1
40
1
10
-20.072002993456994
20
38.299395915319991
30
0
10
-20.196062724693693
20
38.449023315379094
30
0
10
-20.343892217081372
20
38.617443636694091
30
0
10
-20.518926639441375
20
38.802562112976098
30
0
0
ARC
5
391
100
AcDbEntity
8
0
100
AcDbCircle
10
-9.6423347375842106
20
42.238719855148403
30
0
40
0.40000000000000191
210
0
220
0
230
1
100
AcDbArc
50
-77.140732471653749
51
0.3366774948748133
0
SPLINE
5
392
100
AcDbEntity
8
0
100
AcDbSpline
70
0
71
3
72
8
73
4
74
0
42
0.000000001
43
0.0000000001
44
0.0000000001
40
0
40
0
40
0
40
0
40
1
40
1
40
1
40
1
10
-28.914322674955972
20
33.02464554084569
30
0
10
-29.53345602026209
20
33.431100353712893
30
0
10
-30.400229295897088
20
33.916533540558589
30
0
10
-31.55583119745458
20
34.394085143091694
30
0
0
SPLINE
5
393
100
AcDbEntity
8
0
100
AcDbSpline
70
0
71
3
72
8
73
4
74
0
42
0.000000001
43
0.0000000001
44
0.0000000001
40
0
40
0
40
0
40
0
40
1
40
1
40
1
40
1
10
-9.2234072653086052
20
42.913794945737685
30
0
10
-9.238499549033854
20
42.6594760077015
30
0
10
-9.2434850144458736
20
42.435435590396686
30
0
10
-9.2423416433469718
20
42.241070293943189
30
0
0
SPLINE
5
394
100
AcDbEntity
8
0
100
AcDbSpline
70
0
71
3
72
8
73
4
74
0
42
0.000000001
43
0.0000000001
44
0.0000000001
40
0
40
0
40
0
40
0
40
1
40
1
40
1
40
1
10
-27.502013585266578
20
34.209713577112389
30
0
10
-27.401362411720385
20
33.975672468467586
30
0
10
-27.30526843072159
20
33.773225166022492
30
0
10
-27.21701569127978
20
33.600047136977395
30
0
0
ARC
5
395
100
AcDbEntity
8
0
100
AcDbCircle
10
-6.8923871943127324e-06
20
2.0634442257839568e-06
30
0
40
46.676792932483799
210
0
220
0
230
1
100
AcDbArc
50
125.86903932722299
51
127.46429400611019
0
ARC
5
396
100
AcDbEntity
8
0
100
AcDbCircle
10
-15.15451415281758
20
40.588481668561798
30
0
40
0.39999999999997971
210
0
220
0
230
1
100
AcDbArc
50
212.99665583844836
51
290.47406580492918
0
SPLINE
5
397
100
AcDbEntity
8
0
100
AcDbSpline
70
0
71
3
72
8
73
4
74
0
42
0.000000001
43
0.0000000001
44
0.0000000001
40
0
40
0
40
0
40
0
40
1
40
1
40
1
40
1
10
7.4646422488056707
20
46.076048027273188
30
0
10
6.7615698382928535
20
45.0420458640546
30
0
10
6.3041412256665375
20
44.160172656276401
30
0
10
6.0102134308746002
20
43.480365282366897
30
0
0
SPLINE
5
398
100
AcDbEntity
8
0
100
AcDbSpline
70
0
71
3
72
8
73
4
74
0
42
0.000000001
43
0.0000000001
44
0.0000000001
40
0
40
0
40
0
40
0
40
1
40
1
40
1
40
1
10
-4.1790546597120759
20
43.694398657767493
30
0
10
-4.2235695214477609
20
43.443551440608196
30
0
10
-4.254530781852921
20
43.221604681664594
30
0
10
-4.2759595754904645
20
43.028420876530191
30
0
0
SPLINE
5
399
100
AcDbEntity
8
0
100
AcDbSpline
70
0
71
3
72
8
73
4
74
0
42
0.000000001
43
0.0000000001
44
0.0000000001
40
0
40
0
40
0
40
0
40
1
40
1
40
1
40
1
10
2.0650665144220604
20
46.631091159523493
30
0
10
1.4867883523704961
20
45.522458824049103
30
0
10
1.1348319389612982
20
44.593444306774792
30
0
10
0.9218123978484094
20
43.884110612892293
30
0
0
ARC
5
400
100
AcDbEntity
8
0
100
AcDbCircle
10
-14.48075260351219
20
40.833710817502094
30
0
40
0.40000000000006208
210
0
220
0
230
1
100
AcDbArc
50
-70.474065804997593
51
7.0033441615431462
0
ARC
5
401
100
AcDbEntity
8
0
100
AcDbCircle
10
-4.6735209288079282
20
43.0725226945017
30
0
40
0.40000000000006003
210
0
220
0
230
1
100
AcDbArc
50
276.19260086168532
51
353.67001082820394
0
ARC
5
402
100
AcDbEntity
8
0
100
AcDbCircle
10
-3.6634394362522471e-06
20
-4.3659189642160423e-06
30
0
40
42.925331970571783
210
0
220
0
230
1
100
AcDbArc
50
116.19255957752084
51
117.14077375581233
0
ARC
5
403
100
AcDbEntity
8
0
100
AcDbCircle
10
-8.5515847914052756e-06
20
-4.9372616812160438e-06
30
0
40
42.925331970572309
210
0
220
-0
230
1
100
AcDbArc
50
76.192559577520925
51
77.140773755812091
0
ARC
5
404
100
AcDbEntity
8
0
100
AcDbCircle
10
-10.340009918854882
20
42.073367799668887
30
0
40
0.40000000000000285
210
0
220
0
230
1
100
AcDbArc
50
206.32998917178995
51
283.80739913832025
0
SPLINE
5
405
100
AcDbEntity
8
0
100
AcDbSpline
70
0
71
3
72
8
73
4
74
0
42
0.000000001
43
0.0000000001
44
0.0000000001
40
0
40
0
40
0
40
0
40
1
40
1
40
1
40
1
10
15.875468988146721
20
40.922294271361686
30
0
10
15.723109029303615
20
40.718107243827603
30
0
10
15.595831512957918
20
40.533663763909402
30
0
10
15.48998131014832
20
40.370645635076691
30
0
0
SPLINE
5
406
100
AcDbEntity
8
0
100
AcDbSpline
70
0
71
3
72
8
73
4
74
0
42
0.000000001
43
0.0000000001
44
0.0000000001
40
0
40
0
40
0
40
0
40
1
40
1
40
1
40
1
10
11.017336544464822
20
42.488622629168098
30
0
10
10.889711456210822
20
42.268128329649798
30
0
10
10.784707125973316
20
42.070155972784391
30
0
10
10.698497893999512
20
41.8959516557155
30
0
0
SPLINE
5
407
100
AcDbEntity
8
0
100
AcDbSpline
70
0
71
3
72
8
73
4
74
0
42
0.000000001
43
0.0000000001
44
0.0000000001
40
0
40
0
40
0
40
0
40
1
40
1
40
1
40
1
10
-14.008244426700287
20
44.525189088814997
30
0
10
-14.172473558067384
20
43.285632684138093
30
0
10
-14.185462724236491
20
42.292268414693901
30
0
10
-14.143029203456088
20
41.552855802895095
30
0
0
SPLINE
5
408
100
AcDbEntity
8
0
100
AcDbSpline
70
0
71
3
72
8
73
4
74
0
42
0.000000001
43
0.0000000001
44
0.0000000001
40
0
40
0
40
0
40
0
40
1
40
1
40
1
40
1
10
14.08372320399911
20
40.8824817274106
30
0
10
14.107423277701709
20
41.075400057979294
30
0
10
14.128481027150119
20
41.298504371338893
30
0
10
14.143015418682126
20
41.552855802895095
30
0
0
ARC
5
409
100
AcDbEntity
8
0
100
AcDbCircle
10
5.3856610972938057
20
42.989283835374593
30
0
40
0.40000000000000208
210
0
220
0
230
1
100
AcDbArc
50
262.8592675283449
51
340.33667749486682
0
ARC
5
410
100
AcDbEntity
8
0
100
AcDbCircle
10
-6.8923870522041852e-06
20
2.0634443607839569e-06
30
0
40
46.676792932483892
210
0
220
0
230
1
100
AcDbArc
50
112.53570599388944
51
114.13096067277712
0
SPLINE
5
411
100
AcDbEntity
8
0
100
AcDbSpline
70
0
71
3
72
8
73
4
74
0
42
0.000000001
43
0.0000000001
44
0.0000000001
40
0
40
0
40
0
40
0
40
1
40
1
40
1
40
1
10
4.2759457907165022
20
43.028420876530191
30
0
10
4.2545169970789765
20
43.221604681664594
30
0
10
4.2235557366738163
20
43.443551440608196
30
0
10
4.1790408749381136
20
43.694398657767493
30
0
0
SPLINE
5
412
100
AcDbEntity
8
0
100
AcDbSpline
70
0
71
3
72
8
73
4
74
0
42
0.000000001
43
0.0000000001
44
0.0000000001
40
0
40
0
40
0
40
0
40
1
40
1
40
1
40
1
10
-15.489995094922282
20
40.370645635076691
30
0
10
-15.595845297731881
20
40.533663763909402
30
0
10
-15.723122814077577
20
40.718107243827603
30
0
10
-15.875482772920684
20
40.922294271361686
30
0
0
ARC
5
413
100
AcDbEntity
8
0
100
AcDbCircle
10
-0.35850792474686699
20
43.323843582534998
30
0
40
0.39999999999998864
210
0
220
0
230
1
100
AcDbArc
50
192.9966558384578
51
270.47406580502866
0
ARC
5
414
100
AcDbEntity
8
0
100
AcDbCircle
10
-6.8923869100956381e-06
20
2.0634443607839569e-06
30
0
40
46.676792932483878
210
0
220
-0
230
1
100
AcDbArc
50
65.869039327222893
51
67.464294006110563
0
ARC
5
415
100
AcDbEntity
8
0
100
AcDbCircle
10
-19.764079673395987
20
38.554705979678189
30
0
40
0.39999999999997649
210
0
220
0
230
1
100
AcDbArc
50
219.66332250511897
51
297.14073247165595
0
ARC
5
416
100
AcDbEntity
8
0
100
AcDbCircle
10
-4.4316752401130088e-06
20
-4.697304081216044e-06
30
0
40
42.925331970572202
210
0
220
0
230
1
100
AcDbArc
50
109.52589291085501
51
110.47410708914698
0
SPLINE
5
417
100
AcDbEntity
8
0
100
AcDbSpline
70
0
71
3
72
8
73
4
74
0
42
0.000000001
43
0.0000000001
44
0.0000000001
40
0
40
0
40
0
40
0
40
1
40
1
40
1
40
1
10
9.2423278585729918
20
42.241070293943189
30
0
10
9.2434712296718935
20
42.435435590396793
30
0
10
9.2384857642598739
20
42.6594760077015
30
0
10
9.2233934805346429
20
42.913794945737685
30
0
0
ARC
5
418
100
AcDbEntity
8
0
100
AcDbCircle
10
-7.7276332532960623e-06
20
-5.0825465252160435e-06
30
0
40
42.925331970572316
210
0
220
-0
230
1
100
AcDbArc
50
82.859226244187937
51
83.807440422479473
0
ARC
5
419
100
AcDbEntity
8
0
100
AcDbCircle
10
-19.123343225183174
20
38.876495918526494
30
0
40
0.40000000000000002
210
0
220
0
230
1
100
AcDbArc
50
-63.807399138321628
51
13.670010828215959
0
ARC
5
420
100
AcDbEntity
8
0
100
AcDbCircle
10
-6.057140709003761e-06
20
-5.0825476902160443e-06
30
0
40
42.925331970573396
210
0
220
0
230
1
100
AcDbArc
50
96.192559577520313
51
97.140773755811892
0
SPLINE
5
421
100
AcDbEntity
8
0
100
AcDbSpline
70
0
71
3
72
8
73
4
74
0
42
0.000000001
43
0.0000000001
44
0.0000000001
40
0
40
0
40
0
40
0
40
1
40
1
40
1
40
1
10
4.1790408749381136
20
43.694398657767493
30
0
10
4.0498103113662509
20
44.423666150263799
30
0
10
3.8080857038899651
20
45.387258649397495
30
0
10
3.3624220104145053
20
46.555528806631195
30
0
0
SPLINE
5
422
100
AcDbEntity
8
0
100
AcDbSpline
70
0
71
3
72
8
73
4
74
0
42
0.000000001
43
0.0000000001
44
0.0000000001
40
0
40
0
40
0
40
0
40
1
40
1
40
1
40
1
10
18.734660260283622
20
38.97102775665789
30
0
10
18.780596533750327
20
39.159890231869191
30
0
10
18.827412728121917
20
39.379041338177188
30
0
10
18.871377242199223
20
39.62998559647739
30
0
0
SPLINE
5
423
100
AcDbEntity
8
0
100
AcDbSpline
70
0
71
3
72
8
73
4
74
0
42
0.000000001
43
0.0000000001
44
0.0000000001
40
0
40
0
40
0
40
0
40
1
40
1
40
1
40
1
10
6.0102134308746002
20
43.480365282366897
30
0
10
5.9090491235896181
20
43.246545518010997
30
0
10
5.827737982893435
20
43.037721520706697
30
0
10
5.7623355537273113
20
42.854686829945294
30
0
0
SPLINE
5
424
100
AcDbEntity
8
0
100
AcDbSpline
70
0
71
3
72
8
73
4
74
0
42
0.000000001
43
0.0000000001
44
0.0000000001
40
0
40
0
40
0
40
0
40
1
40
1
40
1
40
1
10
14.143015418682126
20
41.552855802895095
30
0
10
14.185448939462528
20
42.292268414693901
30
0
10
14.172459773293422
20
43.285632684138093
30
0
10
14.008230641926325
20
44.525189088814997
30
0
0
SPLINE
5
425
100
AcDbEntity
8
0
100
AcDbSpline
70
0
71
3
72
8
73
4
74
0
42
0.000000001
43
0.0000000001
44
0.0000000001
40
0
40
0
40
0
40
0
40
1
40
1
40
1
40
1
10
-0.74826120185102596
20
43.233885909229386
30
0
10
-0.79197237255181463
20
43.423275743483785
30
0
10
-0.84849073001668884
20
43.640127394897696
30
0
10
-0.9218261826223717
20
43.884110612892293
30
0
0
SPLINE
5
426
100
AcDbEntity
8
0
100
AcDbSpline
70
0
71
3
72
8
73
4
74
0
42
0.000000001
43
0.0000000001
44
0.0000000001
40
0
40
0
40
0
40
0
40
1
40
1
40
1
40
1
10
-5.7623493385013091
20
42.854686829945294
30
0
10
-5.8277517676674151
20
43.037721520706697
30
0
10
-5.9090629083635982
20
43.246545518010997
30
0
10
-6.0102272156485803
20
43.480365282366897
30
0
0
ARC
5
427
100
AcDbEntity
8
0
100
AcDbCircle
10
9.6423209528102127
20
42.238719855148403
30
0
40
0.39999999999999292
210
0
220
0
230
1
100
AcDbArc
50
179.66332250512303
51
257.14073247169227
0
ARC
5
428
100
AcDbEntity
8
0
100
AcDbCircle
10
14.480738818738228
20
40.833710817502094
30
0
40
0.39999999999997843
210
0
220
0
230
1
100
AcDbArc
50
172.99665583845118
51
250.47406580498662
0
ARC
5
429
100
AcDbEntity
8
0
100
AcDbCircle
10
-5.3856748820677858
20
42.989283835374593
30
0
40
0.40000000000003311
210
0
220
0
230
1
100
AcDbArc
50
199.66332250513233
51
277.1407324716551
0
ARC
5
430
100
AcDbEntity
8
0
100
AcDbCircle
10
0.35849413997290469
20
43.323843582534998
30
0
40
0.40000000000005909
210
0
220
0
230
1
100
AcDbArc
50
269.5259341950146
51
347.00334416154277
0
ARC
5
431
100
AcDbEntity
8
0
100
AcDbCircle
10
-6.8923870344406168e-06
20
2.0634443247839568e-06
30
0
40
46.676792932483799
210
0
220
0
230
1
100
AcDbArc
50
132.535705993889
51
134.13096067277701
0
SPLINE
5
432
100
AcDbEntity
8
0
100
AcDbSpline
70
0
71
3
72
8
73
4
74
0
42
0.000000001
43
0.0000000001
44
0.0000000001
40
0
40
0
40
0
40
0
40
1
40
1
40
1
40
1
10
-34.649995844117676
20
26.945187155191693
30
0
10
-34.498084141921069
20
26.740666412948691
30
0
10
-34.357892825683777
20
26.565836900842989
30
0
10
-34.232081348293576
20
26.417679390335195
30
0
0
ARC
5
433
100
AcDbEntity
8
0
100
AcDbCircle
10
-27.573407701189989
20
33.418430135371793
30
0
40
0.40000000000008828
210
0
220
0
230
1
100
AcDbArc
50
-50.474065805034151
51
27.003344161537125
0
SPLINE
5
434
100
AcDbEntity
8
0
100
AcDbSpline
70
0
71
3
72
8
73
4
74
0
42
0.000000001
43
0.0000000001
44
0.0000000001
40
0
40
0
40
0
40
0
40
1
40
1
40
1
40
1
10
17.889299125445728
20
43.112595683665297
30
0
10
16.966720813529825
20
42.268604838722396
30
0
10
16.318248290661117
20
41.5159929351953
30
0
10
15.875468988146721
20
40.922294271361686
30
0
0
SPLINE
5
435
100
AcDbEntity
8
0
100
AcDbSpline
70
0
71
3
72
8
73
4
74
0
42
0.000000001
43
0.0000000001
44
0.0000000001
40
0
40
0
40
0
40
0
40
1
40
1
40
1
40
1
10
-14.143029203456088
20
41.552855802895095
30
0
10
-14.128494811924082
20
41.298504371338893
30
0
10
-14.107437062475672
20
41.075400057979294
30
0
10
-14.083736988773072
20
40.8824817274106
30
0
0
SPLINE
5
436
100
AcDbEntity
8
0
100
AcDbSpline
70
0
71
3
72
8
73
4
74
0
42
0.000000001
43
0.0000000001
44
0.0000000001
40
0
40
0
40
0
40
0
40
1
40
1
40
1
40
1
10
-15.875482772920684
20
40.922294271361686
30
0
10
-16.318262075435079
20
41.5159929351953
30
0
10
-16.966734598303788
20
42.268604838722396
30
0
10
-17.88931291021969
20
43.112595683665297
30
0
0
ARC
5
437
100
AcDbEntity
8
0
100
AcDbCircle
10
-5.233188780096043e-06
20
-4.9372615812160438e-06
30
0
40
42.92533197057228
210
0
220
0
230
1
100
AcDbArc
50
102.85922624418814
51
103.80744042247964
0
SPLINE
5
438
100
AcDbEntity
8
0
100
AcDbSpline
70
0
71
3
72
8
73
4
74
0
42
0.000000001
43
0.0000000001
44
0.0000000001
40
0
40
0
40
0
40
0
40
1
40
1
40
1
40
1
10
-19.082584449573581
20
42.597868585559496
30
0
10
-19.10179940706449
20
41.347627779405094
30
0
10
-18.999378192311092
20
40.359472333630102
30
0
10
-18.871391026973185
20
39.62998559647739
30
0
0
ARC
5
439
100
AcDbEntity
8
0
100
AcDbCircle
10
28.122649363799415
20
32.957550092050191
30
0
40
0.39999999999998564
210
0
220
0
230
1
100
AcDbArc
50
229.5259341950044
51
307.00334416154931
0
SPLINE
5
440
100
AcDbEntity
8
0
100
AcDbSpline
70
0
71
3
72
8
73
4
74
0
42
0.000000001
43
0.0000000001
44
0.0000000001
40
0
40
0
40
0
40
0
40
1
40
1
40
1
40
1
10
28.363394018115411
20
-32.638105812052515
30
0
10
28.518616156392316
20
-32.75508984323492
30
0
10
28.701301284731411
20
-32.884878545883517
30
0
10
28.91430889018201
20
-33.024641413956914
30
0
0
SPLINE
5
441
100
AcDbEntity
8
0
100
AcDbSpline
70
0
71
3
72
8
73
4
74
0
42
0.000000001
43
0.0000000001
44
0.0000000001
40
0
40
0
40
0
40
0
40
1
40
1
40
1
40
1
10
34.232067563519607
20
26.417679390335195
30
0
10
34.357879040909808
20
26.565836900842989
30
0
10
34.498070357147114
20
26.740666412948691
30
0
10
34.649982059343628
20
26.945187155191693
30
0
0
SPLINE
5
442
100
AcDbEntity
8
0
100
AcDbSpline
70
0
71
3
72
8
73
4
74
0
42
0.000000001
43
0.0000000001
44
0.0000000001
40
0
40
0
40
0
40
0
40
1
40
1
40
1
40
1
10
0.92181239784833835
20
-43.884106486003503
30
0
10
1.1348319389612271
20
-44.593440179886002
30
0
10
1.4867883523704251
20
-45.522454697160313
30
0
10
2.0650665144219893
20
-46.63108703263471
30
0
0
ARC
5
443
100
AcDbEntity
8
0
100
AcDbCircle
10
-6.8923870344406168e-06
20
2.0634444387839566e-06
30
0
40
46.676792932483799
210
0
220
0
230
1
100
AcDbArc
50
219.20237266055594
51
220.79762733944375
0
SPLINE
5
444
100
AcDbEntity
8
0
100
AcDbSpline
70
0
71
3
72
8
73
4
74
0
42
0.000000001
43
0.0000000001
44
0.0000000001
40
0
40
0
40
0
40
0
40
1
40
1
40
1
40
1
10
27.501999800492616
20
-34.209709450223514
30
0
10
27.401348626946422
20
-33.97566834157881
30
0
10
27.305254645947628
20
-33.773221039133709
30
0
10
27.217001906505818
20
-33.600043010088619
30
0
0
SPLINE
5
445
100
AcDbEntity
8
0
100
AcDbSpline
70
0
71
3
72
8
73
4
74
0
42
0.000000001
43
0.0000000001
44
0.0000000001
40
0
40
0
40
0
40
0
40
1
40
1
40
1
40
1
10
35.125720542869928
20
-25.217290992046312
30
0
10
35.303737022534719
20
-25.295325014950912
30
0
10
35.511429184270128
20
-25.379485156378717
30
0
10
35.750926677666527
20
-25.466357763849313
30
0
0
ARC
5
446
100
AcDbEntity
8
0
100
AcDbCircle
10
-6.8923868390413645e-06
20
2.0634442467839567e-06
30
0
40
46.676792932483799
210
0
220
0
230
1
100
AcDbArc
50
225.86903932722197
51
227.46429400611021
0
SPLINE
5
447
100
AcDbEntity
8
0
100
AcDbSpline
70
0
71
3
72
8
73
4
74
0
42
0.000000001
43
0.0000000001
44
0.0000000001
40
0
40
0
40
0
40
0
40
1
40
1
40
1
40
1
10
28.91430889018201
20
33.02464554084569
30
0
10
28.701301284731411
20
32.884882672772292
30
0
10
28.518616156392316
20
32.755093970123696
30
0
10
28.363394018115411
20
32.638109938941291
30
0
0
ARC
5
448
100
AcDbEntity
8
0
100
AcDbCircle
10
-42.60340885969859
20
-7.8761586620074109
30
0
40
0.4000000000000038
210
0
220
0
230
1
100
AcDbArc
50
-67.003344161543225
51
10.474065804987211
0
ARC
5
449
100
AcDbEntity
8
0
100
AcDbCircle
10
28.122649363799415
20
-32.957545965161415
30
0
40
0.4000000000000079
210
0
220
-0
230
1
100
AcDbArc
50
52.996655838456192
51
130.47406580498708
0
SPLINE
5
450
100
AcDbEntity
8
0
100
AcDbSpline
70
0
71
3
72
8
73
4
74
0
42
0.000000001
43
0.0000000001
44
0.0000000001
40
0
40
0
40
0
40
0
40
1
40
1
40
1
40
1
10
38.465655578986514
20
-21.143733288237108
30
0
10
39.186466348205414
20
-21.31391980107211
30
0
10
40.166994727354123
20
-21.47362386467201
30
0
10
41.416237574357609
20
-21.527136453618809
30
0
0
SPLINE
5
451
100
AcDbEntity
8
0
100
AcDbSpline
70
0
71
3
72
8
73
4
74
0
42
0.000000001
43
0.0000000001
44
0.0000000001
40
0
40
0
40
0
40
0
40
1
40
1
40
1
40
1
10
3.3624220104144342
20
-46.555524679742405
30
0
10
3.8080857038898763
20
-45.387254522508712
30
0
10
4.0498103113661621
20
-44.423662023375016
30
0
10
4.1790408749380425
20
-43.694394530878711
30
0
0
ARC
5
452
100
AcDbEntity
8
0
100
AcDbCircle
10
31.758631815911915
20
-29.469857697966411
30
0
40
0.39999999999999419
210
0
220
-0
230
1
100
AcDbArc
50
59.663322505127915
51
137.14073247165572
0
SPLINE
5
453
100
AcDbEntity
8
0
100
AcDbSpline
70
0
71
3
72
8
73
4
74
0
42
0.000000001
43
0.0000000001
44
0.0000000001
40
0
40
0
40
0
40
0
40
1
40
1
40
1
40
1
10
31.28754617086182
20
-30.785607517948815
30
0
10
31.160405050216315
20
-30.564833799601509
30
0
10
31.041458125042514
20
-30.374911203675715
30
0
10
30.933697376998914
20
-30.213149660211212
30
0
0
SPLINE
5
454
100
AcDbEntity
8
0
100
AcDbSpline
70
0
71
3
72
8
73
4
74
0
42
0.000000001
43
0.0000000001
44
0.0000000001
40
0
40
0
40
0
40
0
40
1
40
1
40
1
40
1
10
32.501078836937523
20
-33.502272857478111
30
0
10
32.091527450987925
20
-32.320858895214315
30
0
10
31.657313924080217
20
-31.427326633179714
30
0
10
31.28754617086182
20
-30.785607517948815
30
0
0
ARC
5
455
100
AcDbEntity
8
0
100
AcDbCircle
10
-28.122663148573377
20
-32.957545965161415
30
0
40
0.3999999999999998
210
0
220
-0
230
1
100
AcDbArc
50
49.525934195012944
51
127.00334416154381
0
ARC
5
456
100
AcDbEntity
8
0
100
AcDbCircle
10
-3.663439613887931e-06
20
8.4928069667839589e-06
30
0
40
42.925331970571001
210
0
220
0
230
1
100
AcDbArc
50
242.85922624418731
51
243.80744042247883
0
ARC
5
457
100
AcDbEntity
8
0
100
AcDbCircle
10
-6.8923869100956381e-06
20
2.0634443747839568e-06
30
0
40
46.676792932483799
210
0
220
0
230
1
100
AcDbArc
50
259.20237266055597
51
260.79762733944301
0
SPLINE
5
458
100
AcDbEntity
8
0
100
AcDbSpline
70
0
71
3
72
8
73
4
74
0
42
0.000000001
43
0.0000000001
44
0.0000000001
40
0
40
0
40
0
40
0
40
1
40
1
40
1
40
1
10
6.010213430874547
20
-43.480361155478107
30
0
10
6.3041412256664842
20
-44.160168529387612
30
0
10
6.7615698382928002
20
-45.04204173716581
30
0
10
7.4646422488055997
20
-46.076043900384398
30
0
0
ARC
5
459
100
AcDbEntity
8
0
100
AcDbCircle
10
31.266595144663327
20
-29.991386100797111
30
0
40
0.40000000000006763
210
0
220
0
230
1
100
AcDbArc
50
136.19260086165474
51
213.67001082819908
0
SPLINE
5
460
100
AcDbEntity
8
0
100
AcDbSpline
70
0
71
3
72
8
73
4
74
0
42
0.000000001
43
0.0000000001
44
0.0000000001
40
0
40
0
40
0
40
0
40
1
40
1
40
1
40
1
10
36.170694847631907
20
-29.502596705080514
30
0
10
35.626758911973027
20
-28.376717055267111
30
0
10
35.091748617433311
20
-27.539635652425815
30
0
10
34.649982059343714
20
-26.945183028302914
30
0
0
SPLINE
5
461
100
AcDbEntity
8
0
100
AcDbSpline
70
0
71
3
72
8
73
4
74
0
42
0.000000001
43
0.0000000001
44
0.0000000001
40
0
40
0
40
0
40
0
40
1
40
1
40
1
40
1
10
45.56405494699392
20
-10.131101882278809
30
0
10
44.572682176803639
20
-9.3690970801350026
30
0
10
43.718898067337605
20
-8.8611659975364336
30
0
10
43.057331201251131
20
-8.5282081986049221
30
0
0
ARC
5
462
100
AcDbEntity
8
0
100
AcDbCircle
10
39.638647197348419
20
-17.488876371600515
30
0
40
0.4000000000000129
210
0
220
0
230
1
100
AcDbArc
50
156.19260086167998
51
233.67001082820781
0
ARC
5
463
100
AcDbEntity
8
0
100
AcDbCircle
10
-4.6735209288079815
20
-43.07251856761291
30
0
40
0.40000000000000258
210
0
220
-0
230
1
100
AcDbArc
50
6.3299891717910084
51
83.807399138321372
0
ARC
5
464
100
AcDbEntity
8
0
100
AcDbCircle
10
-1.2125577395494247e-05
20
-2.8738160642160427e-06
30
0
40
42.925331970572238
210
0
220
-0
230
1
100
AcDbArc
50
42.859226244187489
51
43.807440422478692
0
SPLINE
5
465
100
AcDbEntity
8
0
100
AcDbSpline
70
0
71
3
72
8
73
4
74
0
42
0.000000001
43
0.0000000001
44
0.0000000001
40
0
40
0
40
0
40
0
40
1
40
1
40
1
40
1
10
32.552727729962129
20
-29.444593409927219
30
0
10
33.214861240763213
20
-29.776422926467113
30
0
10
34.132129058863626
20
-30.157947552308812
30
0
10
35.335357550953233
20
-30.498112929425318
30
0
0
SPLINE
5
466
100
AcDbEntity
8
0
100
AcDbSpline
70
0
71
3
72
8
73
4
74
0
42
0.000000001
43
0.0000000001
44
0.0000000001
40
0
40
0
40
0
40
0
40
1
40
1
40
1
40
1
10
41.999476405179323
20
-20.365812459903808
30
0
10
41.210556617269432
20
-19.395721301192811
30
0
10
40.496923337861745
20
-18.704585400831714
30
0
10
39.929974444991615
20
-18.22803470358491
30
0
0
ARC
5
467
100
AcDbEntity
8
0
100
AcDbCircle
10
-1.3784776395908693e-05
20
4.1268899347839573e-06
30
0
40
42.925331970573382
210
0
220
0
230
1
100
AcDbArc
50
342.85922624418811
51
343.80744042247966
0
ARC
5
468
100
AcDbEntity
8
0
100
AcDbCircle
10
39.922637207392228
20
-16.830513527108412
30
0
40
0.40000000000000258
210
0
220
-0
230
1
100
AcDbArc
50
79.663322505124569
51
157.14073247165553
0
SPLINE
5
469
100
AcDbEntity
8
0
100
AcDbSpline
70
0
71
3
72
8
73
4
74
0
42
0.000000001
43
0.0000000001
44
0.0000000001
40
0
40
0
40
0
40
0
40
1
40
1
40
1
40
1
10
40.660202382605334
20
-16.535176063730713
30
0
10
41.395896735486829
20
-16.620530813517309
30
0
10
42.388335642652834
20
-16.665322618454212
30
0
10
43.63534398882463
20
-16.573445131859412
30
0
0
SPLINE
5
470
100
AcDbEntity
8
0
100
AcDbSpline
70
0
71
3
72
8
73
4
74
0
42
0.000000001
43
0.0000000001
44
0.0000000001
40
0
40
0
40
0
40
0
40
1
40
1
40
1
40
1
10
-35.335371335727181
20
-30.498112929425318
30
0
10
-34.132142843637595
20
-30.157947552308812
30
0
10
-33.214875025537168
20
-29.776422926467113
30
0
10
-32.552741514736084
20
-29.444593409927219
30
0
0
ARC
5
471
100
AcDbEntity
8
0
100
AcDbCircle
10
-2.2677625288736181e-06
20
7.5748575387839578e-06
30
0
40
42.925331970572522
210
0
220
0
230
1
100
AcDbArc
50
229.52589291085448
51
230.47410708914595
0
SPLINE
5
472
100
AcDbEntity
8
0
100
AcDbSpline
70
0
71
3
72
8
73
4
74
0
42
0.000000001
43
0.0000000001
44
0.0000000001
40
0
40
0
40
0
40
0
40
1
40
1
40
1
40
1
10
34.649982059343714
20
-26.945183028302914
30
0
10
34.498070357147114
20
-26.740662286059912
30
0
10
34.357879040909808
20
-26.565832773954114
30
0
10
34.23206756351972
20
-26.417675263446419
30
0
0
ARC
5
473
100
AcDbEntity
8
0
100
AcDbCircle
10
-24.10637001455969
20
-35.999539933412017
30
0
40
0.40000000000000785
210
0
220
-0
230
1
100
AcDbArc
50
56.192600861677043
51
133.67001082821642
0
SPLINE
5
474
100
AcDbEntity
8
0
100
AcDbSpline
70
0
71
3
72
8
73
4
74
0
42
0.000000001
43
0.0000000001
44
0.0000000001
40
0
40
0
40
0
40
0
40
1
40
1
40
1
40
1
10
-30.933711161772877
20
-30.213149660211212
30
0
10
-31.041471909816583
20
-30.374911203675715
30
0
10
-31.160418834990278
20
-30.564833799601509
30
0
10
-31.287559955635782
20
-30.785607517948815
30
0
0
ARC
5
475
100
AcDbEntity
8
0
100
AcDbCircle
10
-1.2663372306320753e-05
20
6.3597836087839573e-06
30
0
40
42.925331970570923
210
0
220
0
230
1
100
AcDbArc
50
322.85922624418777
51
323.80744042247937
0
ARC
5
476
100
AcDbEntity
8
0
100
AcDbCircle
10
-31.758645600685877
20
-29.469857697966411
30
0
40
0.40000000000003277
210
0
220
-0
230
1
100
AcDbArc
50
42.859267528377892
51
120.33667749487209
0
ARC
5
477
100
AcDbEntity
8
0
100
AcDbCircle
10
-1.6591966378598499e-06
20
7.0007046637839572e-06
30
0
40
42.925331970572103
210
0
220
0
230
1
100
AcDbArc
50
222.859226244187
51
223.80744042247895
0
SPLINE
5
478
100
AcDbEntity
8
0
100
AcDbSpline
70
0
71
3
72
8
73
4
74
0
42
0.000000001
43
0.0000000001
44
0.0000000001
40
0
40
0
40
0
40
0
40
1
40
1
40
1
40
1
10
35.750926677666527
20
-25.466357763849313
30
0
10
36.447106134108424
20
-25.719074559098814
30
0
10
37.402464020992511
20
-25.99153115787141
30
0
10
38.637047502377811
20
-26.189710156394113
30
0
0
ARC
5
479
100
AcDbEntity
8
0
100
AcDbCircle
10
-6.8923869811499117e-06
20
2.0634444027839569e-06
30
0
40
46.676792932483821
210
0
220
-0
230
1
100
AcDbArc
50
39.202372660556122
51
40.797627339443849
0
ARC
5
480
100
AcDbEntity
8
0
100
AcDbCircle
10
-6.8923870522041852e-06
20
9.2580817157839588e-06
30
0
40
42.925331970571172
210
0
220
0
230
1
100
AcDbArc
50
269.52589291085422
51
270.47410708914583
0
ARC
5
481
100
AcDbEntity
8
0
100
AcDbCircle
10
-6.8923868390413645e-06
20
2.0634442817839565e-06
30
0
40
46.676792932483828
210
0
220
-0
230
1
100
AcDbArc
50
45.869039327223042
51
47.46429400611067
0
ARC
5
482
100
AcDbEntity
8
0
100
AcDbCircle
10
-15.154514152817686
20
-40.588477541673015
30
0
40
0.39999999999997837
210
0
220
-0
230
1
100
AcDbArc
50
69.52593419496597
51
147.00334416154087
0
ARC
5
483
100
AcDbEntity
8
0
100
AcDbCircle
10
-31.26660892943729
20
-29.991386100797012
30
0
40
0.40000000000001268
210
0
220
0
230
1
100
AcDbArc
50
-33.670010828207822
51
43.807399138307971
0
SPLINE
5
484
100
AcDbEntity
8
0
100
AcDbSpline
70
0
71
3
72
8
73
4
74
0
42
0.000000001
43
0.0000000001
44
0.0000000001
40
0
40
0
40
0
40
0
40
1
40
1
40
1
40
1
10
24.884873531485425
20
36.158091895087189
30
0
10
24.689531685902324
20
35.994545379881089
30
0
10
24.523149357757923
20
35.844425813092691
30
0
10
24.382557793136623
20
35.710212595709685
30
0
0
SPLINE
5
485
100
AcDbEntity
8
0
100
AcDbSpline
70
0
71
3
72
8
73
4
74
0
42
0.000000001
43
0.0000000001
44
0.0000000001
40
0
40
0
40
0
40
0
40
1
40
1
40
1
40
1
10
32.552727729962015
20
29.444597536815994
30
0
10
32.324934927096614
20
29.33050836890509
30
0
10
32.128417501530215
20
29.222805699949195
30
0
10
31.960663902736819
20
29.124632863304786
30
0
0
SPLINE
5
486
100
AcDbEntity
8
0
100
AcDbSpline
70
0
71
3
72
8
73
4
74
0
42
0.000000001
43
0.0000000001
44
0.0000000001
40
0
40
0
40
0
40
0
40
1
40
1
40
1
40
1
10
-41.776141887657673
20
-13.469195345477212
30
0
10
-42.39458143410728
20
-13.876705028258012
30
0
10
-43.183625361305701
20
-14.480319947886011
30
0
10
-44.079831465421378
20
-15.352263700034609
30
0
0
ARC
5
487
100
AcDbEntity
8
0
100
AcDbCircle
10
27.573393916416027
20
-33.418426008483017
30
0
40
0.40000000000010194
210
0
220
0
230
1
100
AcDbArc
50
129.52593419496452
51
207.00334416153711
0
ARC
5
488
100
AcDbEntity
8
0
100
AcDbCircle
10
-19.764079673396093
20
-38.554701852789407
30
0
40
0.40000000000000896
210
0
220
-0
230
1
100
AcDbArc
50
62.859267528343601
51
140.33667749486921
0
SPLINE
5
489
100
AcDbEntity
8
0
100
AcDbSpline
70
0
71
3
72
8
73
4
74
0
42
0.000000001
43
0.0000000001
44
0.0000000001
40
0
40
0
40
0
40
0
40
1
40
1
40
1
40
1
10
38.637047502377811
20
26.189714283282889
30
0
10
37.402464020992511
20
25.991535284760189
30
0
10
36.447106134108424
20
25.71907868598759
30
0
10
35.750926677666527
20
25.466361890738089
30
0
0
ARC
5
490
100
AcDbEntity
8
0
100
AcDbCircle
10
-1.1517011060391269e-05
20
7.5748564297839573e-06
30
0
40
42.925331970571399
210
0
220
0
230
1
100
AcDbArc
50
309.52589291085496
51
310.47410708914606
0
ARC
5
491
100
AcDbEntity
8
0
100
AcDbCircle
10
-6.8923869989134801e-06
20
2.0634443887839566e-06
30
0
40
46.676792932483799
210
0
220
0
230
1
100
AcDbArc
50
265.86903932722299
51
267.46429400610992
0
ARC
5
492
100
AcDbEntity
8
0
100
AcDbCircle
10
-6.8923870166770485e-06
20
2.0634443427839567e-06
30
0
40
46.676792932483799
210
0
220
0
230
1
100
AcDbArc
50
325.86903932722294
51
327.46429400611004
0
SPLINE
5
493
100
AcDbEntity
8
0
100
AcDbSpline
70
0
71
3
72
8
73
4
74
0
42
0.000000001
43
0.0000000001
44
0.0000000001
40
0
40
0
40
0
40
0
40
1
40
1
40
1
40
1
10
27.217001906505818
20
33.600047136977395
30
0
10
27.305254645947628
20
33.773225166022492
30
0
10
27.401348626946422
20
33.975672468467586
30
0
10
27.501999800492616
20
34.209713577112389
30
0
0
SPLINE
5
494
100
AcDbEntity
8
0
100
AcDbSpline
70
0
71
3
72
8
73
4
74
0
42
0.000000001
43
0.0000000001
44
0.0000000001
40
0
40
0
40
0
40
0
40
1
40
1
40
1
40
1
10
-28.914322674955972
20
-33.024641413956807
30
0
10
-28.701315069505373
20
-32.88487854588341
30
0
10
-28.518629941166278
20
-32.75508984323492
30
0
10
-28.363407802889373
20
-32.638105812052409
30
0
0
ARC
5
495
100
AcDbEntity
8
0
100
AcDbCircle
10
-6.8923872298398692e-06
20
2.0634443457839568e-06
30
0
40
46.676792932483806
210
0
220
0
230
1
100
AcDbArc
50
279.20237266055597
51
280.79762733944403
0
SPLINE
5
496
100
AcDbEntity
8
0
100
AcDbSpline
70
0
71
3
72
8
73
4
74
0
42
0.000000001
43
0.0000000001
44
0.0000000001
40
0
40
0
40
0
40
0
40
1
40
1
40
1
40
1
10
-41.20301243847068
20
-13.116435367193912
30
0
10
-41.371909408363088
20
-13.212627827003111
30
0
10
-41.563441368517488
20
-13.328965575351914
30
0
10
-41.776141887657673
20
-13.469195345477212
30
0
0
ARC
5
497
100
AcDbEntity
8
0
100
AcDbCircle
10
-6.8923870166770485e-06
20
2.0634443087839567e-06
30
0
40
46.676792932483806
210
0
220
0
230
1
100
AcDbArc
50
339.20237266055597
51
340.79762733944398
0
SPLINE
5
498
100
AcDbEntity
8
0
100
AcDbSpline
70
0
71
3
72
8
73
4
74
0
42
0.000000001
43
0.0000000001
44
0.0000000001
40
0
40
0
40
0
40
0
40
1
40
1
40
1
40
1
10
-12.763285193813978
20
-44.897901289187715
30
0
10
-11.944926383082777
20
-43.952512403668315
30
0
10
-11.388211508513688
20
-43.129706327682115
30
0
10
-11.017350329238873
20
-42.488618502279316
30
0
0
ARC
5
499
100
AcDbEntity
8
0
100
AcDbCircle
10
-6.8923869456227749e-06
20
2.0634443567839569e-06
30
0
40
46.676792932483806
210
0
220
0
230
1
100
AcDbArc
50
212.53570599388897
51
214.13096067277695
0
ARC
5
500
100
AcDbEntity
8
0
100
AcDbCircle
10
-34.965146945701484
20
-25.583640132567918
30
0
40
0.40000000000000224
210
0
220
-0
230
1
100
AcDbArc
50
36.192600861680191
51
113.67001082821184
0
ARC
5
501
100
AcDbEntity
8
0
100
AcDbCircle
10
-6.8923869456227749e-06
20
2.0634444247839567e-06
30
0
40
46.676792932483863
210
0
220
0
230
1
100
AcDbArc
50
319.20237266055625
51
320.79762733944381
0
SPLINE
5
502
100
AcDbEntity
8
0
100
AcDbSpline
70
0
71
3
72
8
73
4
74
0
42
0.000000001
43
0.0000000001
44
0.0000000001
40
0
40
0
40
0
40
0
40
1
40
1
40
1
40
1
10
-18.871391026973274
20
-39.629981469588515
30
0
10
-18.99937819231118
20
-40.359468206741205
30
0
10
-19.101799407064579
20
-41.347623652516212
30
0
10
-19.082584449573687
20
-42.597864458670607
30
0
0
SPLINE
5
503
100
AcDbEntity
8
0
100
AcDbSpline
70
0
71
3
72
8
73
4
74
0
42
0.000000001
43
0.0000000001
44
0.0000000001
40
0
40
0
40
0
40
0
40
1
40
1
40
1
40
1
10
-9.2234072653087118
20
-42.913790818848902
30
0
10
-9.1797133009572107
20
-43.653130018169605
30
0
10
-9.0514894100553001
20
-44.638269563639312
30
0
10
-8.7444670220813236
20
-45.8503786929044
30
0
0
SPLINE
5
504
100
AcDbEntity
8
0
100
AcDbSpline
70
0
71
3
72
8
73
4
74
0
42
0.000000001
43
0.0000000001
44
0.0000000001
40
0
40
0
40
0
40
0
40
1
40
1
40
1
40
1
10
-34.232081348293676
20
-26.417675263446313
30
0
10
-34.357892825683777
20
-26.565832773954114
30
0
10
-34.498084141921069
20
-26.740662286059912
30
0
10
-34.649995844117676
20
-26.945183028302914
30
0
0
ARC
5
505
100
AcDbEntity
8
0
100
AcDbCircle
10
-6.8923869811499117e-06
20
2.0634443587839567e-06
30
0
40
46.676792932483792
210
0
220
0
230
1
100
AcDbArc
50
192.53570599388894
51
194.13096067277695
0
SPLINE
5
506
100
AcDbEntity
8
0
100
AcDbSpline
70
0
71
3
72
8
73
4
74
0
42
0.000000001
43
0.0000000001
44
0.0000000001
40
0
40
0
40
0
40
0
40
1
40
1
40
1
40
1
10
-42.44713789927539
20
-8.2443697250248427
30
0
10
-42.626060111254972
20
-8.3203040244111417
30
0
10
-42.829802989042385
20
-8.4136196351221422
30
0
10
-43.0573449860251
20
-8.5282081986049612
30
0
0
ARC
5
507
100
AcDbEntity
8
0
100
AcDbCircle
10
24.106356229785728
20
35.999544060300892
30
0
40
0.40000000000005226
210
0
220
0
230
1
100
AcDbArc
50
236.19260086167245
51
313.67001082820821
0
SPLINE
5
508
100
AcDbEntity
8
0
100
AcDbSpline
70
0
71
3
72
8
73
4
74
0
42
0.000000001
43
0.0000000001
44
0.0000000001
40
0
40
0
40
0
40
0
40
1
40
1
40
1
40
1
10
37.543836288751123
20
-22.740371134321911
30
0
10
37.369208350173523
20
-22.554869160370011
30
0
10
37.20966848992893
20
-22.39749700131831
30
0
10
37.067507667596416
20
-22.264947099935114
30
0
0
SPLINE
5
509
100
AcDbEntity
8
0
100
AcDbSpline
70
0
71
3
72
8
73
4
74
0
42
0.000000001
43
0.0000000001
44
0.0000000001
40
0
40
0
40
0
40
0
40
1
40
1
40
1
40
1
10
23.132243082347816
20
36.532557517570993
30
0
10
23.199794346282818
20
36.714810096438192
30
0
10
23.27173587686131
20
36.9270443529321
30
0
10
23.344535968851527
20
37.171187847373595
30
0
0
ARC
5
510
100
AcDbEntity
8
0
100
AcDbCircle
10
-1.2125579722521707e-05
20
7.0007072257839569e-06
30
0
40
42.925331970575598
210
0
220
0
230
1
100
AcDbArc
50
316.19255957752102
51
317.14077375581235
0
ARC
5
511
100
AcDbEntity
8
0
100
AcDbCircle
10
-41.400973445882983
20
-12.768855966848712
30
0
40
0.40000000000000097
210
0
220
0
230
1
100
AcDbArc
50
-60.336677494875154
51
17.140732471655525
0
ARC
5
512
100
AcDbEntity
8
0
100
AcDbCircle
10
31.266595144663327
20
29.991390227685887
30
0
40
0.39999999999995123
210
0
220
0
230
1
100
AcDbArc
50
146.32998917180052
51
223.80739913835885
0
SPLINE
5
513
100
AcDbEntity
8
0
100
AcDbSpline
70
0
71
3
72
8
73
4
74
0
42
0.000000001
43
0.0000000001
44
0.0000000001
40
0
40
0
40
0
40
0
40
1
40
1
40
1
40
1
10
-32.552741514736084
20
-29.444593409927219
30
0
10
-32.324948711870576
20
-29.330504242016314
30
0
10
-32.128431286304178
20
-29.222801573060416
30
0
10
-31.960677687510781
20
-29.12462873641601
30
0
0
SPLINE
5
514
100
AcDbEntity
8
0
100
AcDbSpline
70
0
71
3
72
8
73
4
74
0
42
0.000000001
43
0.0000000001
44
0.0000000001
40
0
40
0
40
0
40
0
40
1
40
1
40
1
40
1
10
-24.884887316259476
20
-36.158087768198321
30
0
10
-24.689545470676375
20
-35.994541252992207
30
0
10
-24.523163142531885
20
-35.844421686203908
30
0
10
-24.382571577910692
20
-35.710208468820909
30
0
0
SPLINE
5
515
100
AcDbEntity
8
0
100
AcDbSpline
70
0
71
3
72
8
73
4
74
0
42
0.000000001
43
0.0000000001
44
0.0000000001
40
0
40
0
40
0
40
0
40
1
40
1
40
1
40
1
10
31.960663902736819
20
-29.12462873641601
30
0
10
32.128417501530215
20
-29.222801573060416
30
0
10
32.324934927096614
20
-29.330504242016314
30
0
10
32.552727729962129
20
-29.444593409927219
30
0
0
SPLINE
5
516
100
AcDbEntity
8
0
100
AcDbSpline
70
0
71
3
72
8
73
4
74
0
42
0.000000001
43
0.0000000001
44
0.0000000001
40
0
40
0
40
0
40
0
40
1
40
1
40
1
40
1
10
-31.287559955635782
20
-30.785607517948815
30
0
10
-31.657327708854179
20
-31.427326633179714
30
0
10
-32.091541235761895
20
-32.320858895214315
30
0
10
-32.501092621711578
20
-33.502272857478005
30
0
0
SPLINE
5
517
100
AcDbEntity
8
0
100
AcDbSpline
70
0
71
3
72
8
73
4
74
0
42
0.000000001
43
0.0000000001
44
0.0000000001
40
0
40
0
40
0
40
0
40
1
40
1
40
1
40
1
10
-4.2759595754905178
20
-43.028416749641409
30
0
10
-4.2545307818529743
20
-43.221600554775812
30
0
10
-4.2235695214478142
20
-43.443547313719407
30
0
10
-4.179054659712147
20
-43.694394530878711
30
0
0
ARC
5
518
100
AcDbEntity
8
0
100
AcDbCircle
10
-5.3856748820678746
20
-42.989279708485711
30
0
40
0.39999999999994695
210
0
220
-0
230
1
100
AcDbArc
50
82.859267528377345
51
160.33667749488009
0
SPLINE
5
519
100
AcDbEntity
8
0
100
AcDbSpline
70
0
71
3
72
8
73
4
74
0
42
0.000000001
43
0.0000000001
44
0.0000000001
40
0
40
0
40
0
40
0
40
1
40
1
40
1
40
1
10
8.7444532373071837
20
-45.8503786929044
30
0
10
9.0514756252811601
20
-44.638269563639312
30
0
10
9.1796995161830885
20
-43.653130018169605
30
0
10
9.2233934805345719
20
-42.913790818848902
30
0
0
ARC
5
520
100
AcDbEntity
8
0
100
AcDbCircle
10
-6.8923869278592065e-06
20
2.0634443527839565e-06
30
0
40
46.676792932483799
210
0
220
0
230
1
100
AcDbArc
50
239.20237266055602
51
240.79762733944364
0
SPLINE
5
521
100
AcDbEntity
8
0
100
AcDbSpline
70
0
71
3
72
8
73
4
74
0
42
0.000000001
43
0.0000000001
44
0.0000000001
40
0
40
0
40
0
40
0
40
1
40
1
40
1
40
1
10
-14.143029203456177
20
-41.552851676006213
30
0
10
-14.185462724236579
20
-42.292264287805011
30
0
10
-14.172473558067491
20
-43.285628557249311
30
0
10
-14.008244426700376
20
-44.525184961926207
30
0
0
SPLINE
5
522
100
AcDbEntity
8
0
100
AcDbSpline
70
0
71
3
72
8
73
4
74
0
42
0.000000001
43
0.0000000001
44
0.0000000001
40
0
40
0
40
0
40
0
40
1
40
1
40
1
40
1
10
31.555817412680618
20
34.394085143091694
30
0
10
30.400215511123125
20
33.916533540558589
30
0
10
29.533442235488128
20
33.431100353712893
30
0
10
28.91430889018201
20
33.02464554084569
30
0
0
ARC
5
523
100
AcDbEntity
8
0
100
AcDbCircle
10
-1.2663373052390625e-05
20
-2.2328958552160431e-06
30
0
40
42.925331970572103
210
0
220
-0
230
1
100
AcDbArc
50
36.192559577521195
51
37.14077375581239
0
SPLINE
5
524
100
AcDbEntity
8
0
100
AcDbSpline
70
0
71
3
72
8
73
4
74
0
42
0.000000001
43
0.0000000001
44
0.0000000001
40
0
40
0
40
0
40
0
40
1
40
1
40
1
40
1
10
-42.304903392487589
20
-11.703008920886013
30
0
10
-42.050137183588078
20
-11.703288339715014
30
0
10
-41.82618592817677
20
-11.695238578775413
30
0
10
-41.632215948159285
20
-11.682795805171013
30
0
0
SPLINE
5
525
100
AcDbEntity
8
0
100
AcDbSpline
70
0
71
3
72
8
73
4
74
0
42
0.000000001
43
0.0000000001
44
0.0000000001
40
0
40
0
40
0
40
0
40
1
40
1
40
1
40
1
10
-35.750940462440482
20
25.466361890738089
30
0
10
-36.447119918882379
20
25.71907868598759
30
0
10
-37.402477805766488
20
25.991535284760189
30
0
10
-38.637061287151781
20
26.189714283282889
30
0
0
SPLINE
5
526
100
AcDbEntity
8
0
100
AcDbSpline
70
0
71
3
72
8
73
4
74
0
42
0.000000001
43
0.0000000001
44
0.0000000001
40
0
40
0
40
0
40
0
40
1
40
1
40
1
40
1
10
-2.0650802991960937
20
-46.63108703263471
30
0
10
-1.4868021371445295
20
-45.522454697160313
30
0
10
-1.1348457237353138
20
-44.593440179886002
30
0
10
-0.92182618262242499
20
-43.884106486003503
30
0
0
ARC
5
527
100
AcDbEntity
8
0
100
AcDbCircle
10
-5.2331893130030949e-06
20
9.0641492227839572e-06
30
0
40
42.925331970571094
210
0
220
0
230
1
100
AcDbArc
50
256.19255957752102
51
257.14077375581098
0
SPLINE
5
528
100
AcDbEntity
8
0
100
AcDbSpline
70
0
71
3
72
8
73
4
74
0
42
0.000000001
43
0.0000000001
44
0.0000000001
40
0
40
0
40
0
40
0
40
1
40
1
40
1
40
1
10
-27.217015691279887
20
-33.600043010088513
30
0
10
-27.305268430721679
20
-33.773221039133709
30
0
10
-27.401362411720385
20
-33.97566834157881
30
0
10
-27.502013585266578
20
-34.209709450223514
30
0
0
SPLINE
5
529
100
AcDbEntity
8
0
100
AcDbSpline
70
0
71
3
72
8
73
4
74
0
42
0.000000001
43
0.0000000001
44
0.0000000001
40
0
40
0
40
0
40
0
40
1
40
1
40
1
40
1
10
-9.2423416433470607
20
-42.241066167054406
30
0
10
-9.2434850144459624
20
-42.435431463507896
30
0
10
-9.2384995490339428
20
-42.65947188081271
30
0
10
-9.2234072653087118
20
-42.913790818848902
30
0
0
ARC
5
530
100
AcDbEntity
8
0
100
AcDbCircle
10
-6.892387087731322e-06
20
2.0634444167839567e-06
30
0
40
46.676792932483799
210
0
220
0
230
1
100
AcDbArc
50
252.53570599389002
51
254.13096067277698
0
ARC
5
531
100
AcDbEntity
8
0
100
AcDbCircle
10
-6.8923868568049329e-06
20
2.0634445097839569e-06
30
0
40
46.676792932483799
210
0
220
0
230
1
100
AcDbArc
50
312.535705993889
51
314.13096067277695
0
SPLINE
5
532
100
AcDbEntity
8
0
100
AcDbSpline
70
0
71
3
72
8
73
4
74
0
42
0.000000001
43
0.0000000001
44
0.0000000001
40
0
40
0
40
0
40
0
40
1
40
1
40
1
40
1
10
-34.649995844117676
20
-26.945183028302914
30
0
10
-35.091762402207287
20
-27.539635652425716
30
0
10
-35.626772696746976
20
-28.376717055267111
30
0
10
-36.170708632405884
20
-29.502596705080514
30
0
0
SPLINE
5
533
100
AcDbEntity
8
0
100
AcDbSpline
70
0
71
3
72
8
73
4
74
0
42
0.000000001
43
0.0000000001
44
0.0000000001
40
0
40
0
40
0
40
0
40
1
40
1
40
1
40
1
10
-27.502013585266578
20
-34.209709450223514
30
0
10
-27.794782059082177
20
-34.890016906387714
30
0
10
-28.122326825292792
20
-35.82791653661171
30
0
10
-28.391955181616879
20
-37.048888214182909
30
0
0
ARC
5
534
100
AcDbEntity
8
0
100
AcDbCircle
10
-10.340009918854989
20
-42.073363672780104
30
0
40
0.39999999999995084
210
0
220
-0
230
1
100
AcDbArc
50
76.192600861630922
51
153.67001082821506
0
ARC
5
535
100
AcDbEntity
8
0
100
AcDbCircle
10
-27.573407701189989
20
-33.418426008482911
30
0
40
0.40000000000000502
210
0
220
0
230
1
100
AcDbArc
50
-27.003344161544483
51
50.474065804987319
0
ARC
5
536
100
AcDbEntity
8
0
100
AcDbCircle
10
-6.8923871054948904e-06
20
2.0634443817839569e-06
30
0
40
46.676792932483799
210
0
220
0
230
1
100
AcDbArc
50
272.53570599389008
51
274.13096067277701
0
ARC
5
537
100
AcDbEntity
8
0
100
AcDbCircle
10
-2.9388692901477498e-06
20
8.0744762247839566e-06
30
0
40
42.925331970571079
210
0
220
0
230
1
100
AcDbArc
50
236.19255957752094
51
237.1407737558124
0
ENDSEC
0
SECTION
2
OBJECTS
0
DICTIONARY
5
C
100
AcDbDictionary
3
ACAD_GROUP
350
D
3
ACAD_MLINESTYLE
350
17
0
DICTIONARY
5
D
100
AcDbDictionary
0
DICTIONARY
5
1A
330
C
100
AcDbDictionary
0
DICTIONARY
5
17
100
AcDbDictionary
0
ENDSEC
0
EOF
