0
SECTION
2
HEADER
9
$INSUNITS
70
4
9
$ACADVER
1
AC1014
9
$HANDSEED
5
FFFF
0
ENDSEC
0
SECTION
2
TABLES
0
TABLE
2
VPORT
5
8
100
AcDbSymbolTable
0
ENDTAB
0
TABLE
2
LTYPE
5
5
100
AcDbSymbolTable
0
LTYPE
5
14
100
AcDbSymbolTableRecord
100
AcDbLinetypeTableRecord
2
BYBLOCK
70
0
0
LTYPE
5
15
100
AcDbSymbolTableRecord
100
AcDbLinetypeTableRecord
2
BYLAYER
70
0
0
ENDTAB
0
TABLE
2
LAYER
5
2
100
AcDbSymbolTable
70
2
0
LAYER
5
50
100
AcDbSymbolTableRecord
100
AcDbLayerTableRecord
2
0
70
0
6
CONTINUOUS
0
ENDTAB
0
TABLE
2
STYLE
5
3
100
AcDbSymbolTable
70
1
0
STYLE
5
11
100
AcDbSymbolTableRecord
100
AcDbTextStyleTableRecord
2
STANDARD
70
0
0
ENDTAB
0
TABLE
2
VIEW
5
6
100
AcDbSymbolTable
70
0
0
ENDTAB
0
TABLE
2
UCS
5
7
100
AcDbSymbolTable
70
0
0
ENDTAB
0
TABLE
2
APPID
5
9
100
AcDbSymbolTable
70
2
0
APPID
5
12
100
AcDbSymbolTableRecord
100
AcDbRegAppTableRecord
2
ACAD
70
0
0
ENDTAB
0
TABLE
2
DIMSTYLE
5
A
100
AcDbSymbolTable
70
1
0
ENDTAB
0
TABLE
2
BLOCK_RECORD
5
1
100
AcDbSymbolTable
70
1
0
BLOCK_RECORD
5
1F
100
AcDbSymbolTableRecord
100
AcDbBlockTableRecord
2
*MODEL_SPACE
0
BLOCK_RECORD
5
1B
100
AcDbSymbolTableRecord
100
AcDbBlockTableRecord
2
*PAPER_SPACE
0
ENDTAB
0
ENDSEC
0
SECTION
2
BLOCKS
0
BLOCK
5
20
100
AcDbEntity
100
AcDbBlockBegin
2
*MODEL_SPACE
0
ENDBLK
5
21
100
AcDbEntity
100
AcDbBlockEnd
0
BLOCK
5
1C
100
AcDbEntity
100
AcDbBlockBegin
2
*PAPER_SPACE
0
ENDBLK
5
1D
100
AcDbEntity
100
AcDbBlockEnd
0
ENDSEC
0
SECTION
2
ENTITIES
0
SPLINE
5
100
100
AcDbEntity
8
0
100
AcDbSpline
70
0
71
3
72
8
73
4
74
0
42
0.000000001
43
0.0000000001
44
0.0000000001
40
0
40
0
40
0
40
0
40
1
40
1
40
1
40
1
10
27.01037136777229
20
18.272313842443211
30
0
10
26.831486681556509
20
19.535805744903811
30
0
10
26.574478011654907
20
20.52470301988911
30
0
10
26.329782317054811
20
21.255761561011507
30
0
0
ARC
5
101
100
AcDbEntity
8
0
100
AcDbCircle
10
7.5442391711533219e-06
20
59.999993258055582
30
0
40
49.706729758572408
210
0
220
0
230
1
100
AcDbArc
50
301.370696408882
51
302.915017876832
0
ARC
5
102
100
AcDbEntity
8
0
100
AcDbCircle
10
7.5442391889168903e-06
20
59.999993258055596
30
0
40
49.706729758572422
210
0
220
0
230
1
100
AcDbArc
50
294.94212498031072
51
296.48644644826101
0
ARC
5
103
100
AcDbEntity
8
0
100
AcDbCircle
10
34.7335323129156
20
29.461425646229308
30
0
40
0.40000000000001845
210
0
220
-0
230
1
100
AcDbArc
50
61.498075479731767
51
138.677203673626
0
SPLINE
5
104
100
AcDbEntity
8
0
100
AcDbSpline
70
0
71
3
72
8
73
4
74
0
42
0.000000001
43
0.0000000001
44
0.0000000001
40
0
40
0
40
0
40
0
40
1
40
1
40
1
40
1
10
31.913914388420697
20
25.70895828793061
30
0
10
32.572193851102412
20
25.307721795927005
30
0
10
33.479107597504822
20
24.83710652475061
30
0
10
34.671115532582121
20
24.381553452915213
30
0
0
SPLINE
5
105
100
AcDbEntity
8
0
100
AcDbSpline
70
0
71
3
72
8
73
4
74
0
42
0.000000001
43
0.0000000001
44
0.0000000001
40
0
40
0
40
0
40
0
40
1
40
1
40
1
40
1
10
31.512553634118614
20
21.558889967112211
30
0
10
31.1933275283433
20
22.794408567513607
30
0
10
30.82721350969992
20
23.748312022917105
30
0
10
30.50220382370993
20
24.447376596126507
30
0
0
ARC
5
106
100
AcDbEntity
8
0
100
AcDbCircle
10
0
20
59.999999999999993
30
0
40
45.849570706041803
210
0
220
0
230
1
100
AcDbArc
50
317.75129899854795
51
318.67727243002201
0
SPLINE
5
107
100
AcDbEntity
8
0
100
AcDbSpline
70
0
71
3
72
8
73
4
74
0
42
0.000000001
43
0.0000000001
44
0.0000000001
40
0
40
0
40
0
40
0
40
1
40
1
40
1
40
1
10
30.50220382370993
20
24.447376596126507
30
0
10
30.390873101531408
20
24.686981292858611
30
0
10
30.28480045175991
20
24.895639451841109
30
0
10
30.187054722154212
20
25.075593177872104
30
0
0
ARC
5
108
100
AcDbEntity
8
0
100
AcDbCircle
10
12.443994633462108
20
15.455980866247003
30
0
40
0.39999999999992331
210
0
220
0
230
1
100
AcDbArc
50
105.60851061225345
51
182.78763880597961
0
ARC
5
109
100
AcDbEntity
8
0
100
AcDbCircle
10
5.8494491739224941e-06
20
60.00000323287879
30
0
40
45.849570706044361
210
0
220
0
230
1
100
AcDbArc
50
279.17987042711877
51
280.10584385859374
0
ARC
5
110
100
AcDbEntity
8
0
100
AcDbCircle
10
2.9662901966348798
20
13.845654113567312
30
0
40
0.40000000000000191
210
0
220
-0
230
1
100
AcDbArc
50
16.498075479734528
51
93.677203673507606
0
ARC
5
111
100
AcDbEntity
8
0
100
AcDbCircle
10
7.5442393310254374e-06
20
59.999993258055625
30
0
40
49.706729758572408
210
0
220
0
230
1
100
AcDbArc
50
282.084982123168
51
283.62930359111698
0
SPLINE
5
112
100
AcDbEntity
8
0
100
AcDbSpline
70
0
71
3
72
8
73
4
74
0
42
0.000000001
43
0.0000000001
44
0.0000000001
40
0
40
0
40
0
40
0
40
1
40
1
40
1
40
1
10
17.047882958596006
20
13.308142500687712
30
0
10
17.154636683124203
20
14.579761610659512
30
0
10
17.124122102380905
20
15.601054975584612
30
0
10
17.048237269071915
20
16.368234267261315
30
0
0
SPLINE
5
113
100
AcDbEntity
8
0
100
AcDbSpline
70
0
71
3
72
8
73
4
74
0
42
0.000000001
43
0.0000000001
44
0.0000000001
40
0
40
0
40
0
40
0
40
1
40
1
40
1
40
1
10
6.9118227954780664
20
13.668585559668402
30
0
10
6.9450337632371806
20
13.930696169940813
30
0
10
6.966232317404728
20
14.163806134637102
30
0
10
6.9792097973132705
20
14.3681811727014
30
0
0
ARC
5
114
100
AcDbEntity
8
0
100
AcDbCircle
10
18.043644130620606
20
17.415382970101312
30
0
40
0.39999999999997821
210
0
220
-0
230
1
100
AcDbArc
50
35.78378976544402
51
112.96291795926966
0
ARC
5
115
100
AcDbEntity
8
0
100
AcDbCircle
10
8.1152852361263683
20
14.467981193773811
30
0
40
0.39999999999997421
210
0
220
-0
230
1
100
AcDbArc
50
22.926646908297997
51
100.10577510207355
0
ARC
5
116
100
AcDbEntity
8
0
100
AcDbCircle
10
11.857233699342071
20
61.845626476865696
30
0
40
2.0000000000000657
210
0
220
0
230
1
100
AcDbArc
50
112.58008747287488
51
188.84739563548874
0
SPLINE
5
117
100
AcDbEntity
8
0
100
AcDbSpline
70
0
71
3
72
8
73
4
74
0
42
0.000000001
43
0.0000000001
44
0.0000000001
40
0
40
0
40
0
40
0
40
1
40
1
40
1
40
1
10
-4.8992222364720917
20
10.535293412129718
30
0
10
-4.2513055999717153
20
11.634663936881111
30
0
10
-3.8356757033288069
20
12.568057244064406
30
0
10
-3.5711789560399509
20
13.292187097182904
30
0
0
ARC
5
118
100
AcDbEntity
8
0
100
AcDbCircle
10
17.353096465541906
20
17.12934876176061
30
0
40
0.40000000000003622
210
0
220
0
230
1
100
AcDbArc
50
112.03708204071886
51
189.21621023454989
0
SPLINE
5
119
100
AcDbEntity
8
0
100
AcDbSpline
70
0
71
3
72
8
73
4
74
0
42
0.000000001
43
0.0000000001
44
0.0000000001
40
0
40
0
40
0
40
0
40
1
40
1
40
1
40
1
10
6.2305428904155669
20
10.685295524096006
30
0
10
6.6175819481750153
20
11.901277549586009
30
0
10
6.815091585086428
20
12.903755090583902
30
0
10
6.9118227954780664
20
13.668585559668402
30
0
0
ARC
5
120
100
AcDbEntity
8
0
100
AcDbCircle
10
2.220022656765881
20
13.803744627474108
30
0
40
0.40000000000000668
210
0
220
0
230
1
100
AcDbArc
50
92.751367755070419
51
169.93049594883638
0
SPLINE
5
121
100
AcDbEntity
8
0
100
AcDbSpline
70
0
71
3
72
8
73
4
74
0
42
0.000000001
43
0.0000000001
44
0.0000000001
40
0
40
0
40
0
40
0
40
1
40
1
40
1
40
1
10
8.7783542201092146
20
13.985722004240513
30
0
10
9.1222646870023993
20
13.295759567389611
30
0
10
9.6397880827302096
20
12.414771025039508
30
0
10
10.406721200260804
20
11.394856758161609
30
0
0
ARC
5
122
100
AcDbEntity
8
0
100
AcDbCircle
10
14.618173781556312
20
34.499987403191852
30
0
40
21.305880476845044
210
0
220
0
230
1
100
AcDbArc
50
133.32289229850616
51
221.48156000479213
0
ARC
5
123
100
AcDbEntity
8
0
100
AcDbCircle
10
1.5795898544723741e-05
20
59.999987403190154
30
0
40
10
210
0
220
0
230
1
100
AcDbArc
50
270.00000000000449
51
296.8473956354905
0
SPLINE
5
124
100
AcDbEntity
8
0
100
AcDbSpline
70
0
71
3
72
8
73
4
74
0
42
0.000000001
43
0.0000000001
44
0.0000000001
40
0
40
0
40
0
40
0
40
1
40
1
40
1
40
1
10
1.6808909618428913
20
13.186029953098606
30
0
10
1.7432401831677602
20
13.442774018262815
30
0
10
1.7904054803478253
20
13.672044751417811
30
0
10
1.8261841046520644
20
13.873681705400607
30
0
0
CIRCLE
5
125
100
AcDbEntity
8
0
100
AcDbCircle
10
1.5795898935522246e-05
20
59.999987403190651
30
0
40
1.925
210
0
220
-0
230
1
0
SPLINE
5
126
100
AcDbEntity
8
0
100
AcDbSpline
70
0
71
3
72
8
73
4
74
0
42
0.000000001
43
0.0000000001
44
0.0000000001
40
0
40
0
40
0
40
0
40
1
40
1
40
1
40
1
10
13.510864841728107
20
15.858988813556616
30
0
10
13.611232152807204
20
15.680483984391316
30
0
10
13.731474013264702
20
15.479656871348206
30
0
10
13.875121592935908
20
15.257913070416906
30
0
0
ARC
5
127
100
AcDbEntity
8
0
100
AcDbCircle
10
1.5795898722359425e-05
20
59.999987403190794
30
0
40
41
210
0
220
-0
230
1
100
AcDbArc
50
56.560781246153525
51
111.34785616399361
0
ARC
5
128
100
AcDbEntity
8
0
100
AcDbCircle
10
7.5442391889168903e-06
20
59.999993258055618
30
0
40
49.706729758572415
210
0
220
-0
230
1
100
AcDbArc
50
89.227839266025057
51
90.772160733974943
0
SPLINE
5
129
100
AcDbEntity
8
0
100
AcDbSpline
70
0
71
3
72
8
73
4
74
0
42
0.000000001
43
0.0000000001
44
0.0000000001
40
0
40
0
40
0
40
0
40
1
40
1
40
1
40
1
10
13.875121592935908
20
15.257913070416906
30
0
10
14.294120905770704
20
14.61079472780261
30
0
10
14.907029643608105
20
13.793289892367113
30
0
10
15.783334613231013
20
12.865657897036904
30
0
0
SPLINE
5
130
100
AcDbEntity
8
0
100
AcDbSpline
70
0
71
3
72
8
73
4
74
0
42
0.000000001
43
0.0000000001
44
0.0000000001
40
0
40
0
40
0
40
0
40
1
40
1
40
1
40
1
10
3.5711940445180623
20
13.292187097182904
30
0
10
3.8356907918069183
20
12.568057244064406
30
0
10
4.2513206884498089
20
11.634663936881111
30
0
10
4.8992373249501853
20
10.535293412129718
30
0
0
ARC
5
131
100
AcDbEntity
8
0
100
AcDbCircle
10
1.9087905663221427
20
71.847205594640016
30
0
40
2.00000000000004
210
0
220
0
230
1
100
AcDbArc
50
184.58008747287508
51
260.84739563548942
0
ARC
5
132
100
AcDbEntity
8
0
100
AcDbCircle
10
-1.311073987153577e-06
20
59.999998152214289
30
0
40
45.849570706041931
210
0
220
0
230
1
100
AcDbArc
50
330.60844185569101
51
331.53441528716593
0
SPLINE
5
133
100
AcDbEntity
8
0
100
AcDbSpline
70
0
71
3
72
8
73
4
74
0
42
0.000000001
43
0.0000000001
44
0.0000000001
40
0
40
0
40
0
40
0
40
1
40
1
40
1
40
1
10
37.648651544147128
20
87.873854389044112
30
0
10
38.121069060474525
20
88.483070495012214
30
0
10
38.690267324091593
20
89.331589565848731
30
0
10
39.276418517790702
20
90.46509664419942
30
0
0
SPLINE
5
134
100
AcDbEntity
8
0
100
AcDbSpline
70
0
71
3
72
8
73
4
74
0
42
0.000000001
43
0.0000000001
44
0.0000000001
40
0
40
0
40
0
40
0
40
1
40
1
40
1
40
1
10
-41.448607994402678
20
38.17375218655441
30
0
10
-41.190237271391496
20
38.228974554192405
30
0
10
-40.96320722300058
20
38.285956932759305
30
0
10
-40.76601484154979
20
38.341208501663111
30
0
0
SPLINE
5
135
100
AcDbEntity
8
0
100
AcDbSpline
70
0
71
3
72
8
73
4
74
0
42
0.000000001
43
0.0000000001
44
0.0000000001
40
0
40
0
40
0
40
0
40
1
40
1
40
1
40
1
10
-35.618432260901187
20
94.671101246398607
30
0
10
-35.162879189065791
20
93.479093311321208
30
0
10
-34.692263917889399
20
92.572179564918912
30
0
10
-34.291027425885687
20
91.913900102237207
30
0
0
ARC
5
136
100
AcDbEntity
8
0
100
AcDbCircle
10
1.7266582830188781e-05
20
59.9999904570967
30
0
40
45.849570706040723
210
0
220
0
230
1
100
AcDbArc
50
163.46558471283402
51
164.39155814430799
0
SPLINE
5
137
100
AcDbEntity
8
0
100
AcDbSpline
70
0
71
3
72
8
73
4
74
0
42
0.000000001
43
0.0000000001
44
0.0000000001
40
0
40
0
40
0
40
0
40
1
40
1
40
1
40
1
10
-3.5711789560399509
20
13.292187097182904
30
0
10
-3.4804755587833469
20
13.540335911653107
30
0
10
-3.4079366495687502
20
13.762884200771408
30
0
10
-3.3498068178286999
20
13.959247368983911
30
0
0
ARC
5
138
100
AcDbEntity
8
0
100
AcDbCircle
10
1.579590010791776e-05
20
59.99999911292123
30
0
40
45.849570706041824
210
0
220
0
230
1
100
AcDbArc
50
214.89415614140523
51
215.82012957287995
0
SPLINE
5
139
100
AcDbEntity
8
0
100
AcDbSpline
70
0
71
3
72
8
73
4
74
0
42
0.000000001
43
0.0000000001
44
0.0000000001
40
0
40
0
40
0
40
0
40
1
40
1
40
1
40
1
10
43.631766535033506
20
77.048222982888404
30
0
10
43.368837449436612
20
77.02227618454971
30
0
10
43.136854916174613
20
76.991071399646813
30
0
10
42.934716226062818
20
76.958245782692018
30
0
0
SPLINE
5
140
100
AcDbEntity
8
0
100
AcDbSpline
70
0
71
3
72
8
73
4
74
0
42
0.000000001
43
0.0000000001
44
0.0000000001
40
0
40
0
40
0
40
0
40
1
40
1
40
1
40
1
10
-6.9791947088351591
20
14.3681811727014
30
0
10
-6.9662172289266167
20
14.163806134637102
30
0
10
-6.9450186747590692
20
13.930696169940813
30
0
10
-6.9118077069999551
20
13.668585559668402
30
0
0
SPLINE
5
141
100
AcDbEntity
8
0
100
AcDbSpline
70
0
71
3
72
8
73
4
74
0
42
0.000000001
43
0.0000000001
44
0.0000000001
40
0
40
0
40
0
40
0
40
1
40
1
40
1
40
1
10
-1.8261690161739175
20
13.873681705400713
30
0
10
-1.7903903918696784
20
13.672044751417811
30
0
10
-1.743225094689631
20
13.442774018262904
30
0
10
-1.6808758733647444
20
13.186029953098712
30
0
0
SPLINE
5
142
100
AcDbEntity
8
0
100
AcDbSpline
70
0
71
3
72
8
73
4
74
0
42
0.000000001
43
0.0000000001
44
0.0000000001
40
0
40
0
40
0
40
0
40
1
40
1
40
1
40
1
10
-37.648636455668779
20
32.126132127067208
30
0
10
-38.121053971996197
20
31.51691602109921
30
0
10
-38.690252235613194
20
30.668396950262604
30
0
10
-39.276403429312396
20
29.534889871911911
30
0
0
ARC
5
143
100
AcDbEntity
8
0
100
AcDbCircle
10
1.6891843834798692e-05
20
59.999989386151071
30
0
40
45.849570706041696
210
0
220
0
230
1
100
AcDbArc
50
157.03701328426303
51
157.962986715738
0
SPLINE
5
144
100
AcDbEntity
8
0
100
AcDbSpline
70
0
71
3
72
8
73
4
74
0
42
0.000000001
43
0.0000000001
44
0.0000000001
40
0
40
0
40
0
40
0
40
1
40
1
40
1
40
1
10
-41.448607994402593
20
81.82623432955701
30
0
10
-42.202467018113282
20
81.987538842431718
30
0
10
-43.213922155675903
20
82.132210130447717
30
0
10
-44.489498216427293
20
82.168503818383499
30
0
0
ARC
5
145
100
AcDbEntity
8
0
100
AcDbCircle
10
7.5442391889168903e-06
20
59.999993258055788
30
0
40
49.706729758572408
210
0
220
-0
230
1
100
AcDbArc
50
5.6564106945962385
51
7.2007321625460055
0
SPLINE
5
146
100
AcDbEntity
8
0
100
AcDbSpline
70
0
71
3
72
8
73
4
74
0
42
0.000000001
43
0.0000000001
44
0.0000000001
40
0
40
0
40
0
40
0
40
1
40
1
40
1
40
1
10
1.6808909618430157
20
106.81395656301262
30
0
10
1.4991341342201991
20
107.5631474793459
30
0
10
1.1906245237666013
20
108.53720758895702
30
0
10
0.66987229593042485
20
109.70220914936363
30
0
0
ARC
5
147
100
AcDbEntity
8
0
100
AcDbCircle
10
-28.438044461669616
20
69.416171913822652
30
0
40
28.444052308676216
210
0
220
-0
230
1
100
AcDbArc
50
4.5800874728742151
51
62.110140438049044
0
SPLINE
5
148
100
AcDbEntity
8
0
100
AcDbSpline
70
0
71
3
72
8
73
4
74
0
42
0.000000001
43
0.0000000001
44
0.0000000001
40
0
40
0
40
0
40
0
40
1
40
1
40
1
40
1
10
38.441110835182513
20
91.512539347935103
30
0
10
37.205592234781207
20
91.193313242159704
30
0
10
36.25168877937773
20
90.827199223516416
30
0
10
35.552624206168218
20
90.502189537526405
30
0
0
SPLINE
5
149
100
AcDbEntity
8
0
100
AcDbSpline
70
0
71
3
72
8
73
4
74
0
42
0.000000001
43
0.0000000001
44
0.0000000001
40
0
40
0
40
0
40
0
40
1
40
1
40
1
40
1
10
-39.276403429312282
20
90.46509664419942
30
0
10
-38.690252235613194
20
89.331589565848731
30
0
10
-38.121053971996091
20
88.483070495012214
30
0
10
-37.648636455668694
20
87.873854389044112
30
0
0
SPLINE
5
150
100
AcDbEntity
8
0
100
AcDbSpline
70
0
71
3
72
8
73
4
74
0
42
0.000000001
43
0.0000000001
44
0.0000000001
40
0
40
0
40
0
40
0
40
1
40
1
40
1
40
1
10
-44.74207264339951
20
46.124879209358909
30
0
10
-45.389190986013794
20
45.70587989652411
30
0
10
-46.206695821449287
20
45.092971158686709
30
0
10
-47.134327816779503
20
44.216666189063801
30
0
0
SPLINE
5
151
100
AcDbEntity
8
0
100
AcDbSpline
70
0
71
3
72
8
73
4
74
0
42
0.000000001
43
0.0000000001
44
0.0000000001
40
0
40
0
40
0
40
0
40
1
40
1
40
1
40
1
10
-27.873853586749391
20
22.351349258147813
30
0
10
-27.665029696292702
20
22.513205747580109
30
0
10
-27.485206418090495
20
22.663049742975812
30
0
10
-27.331514978723899
20
22.798388254250312
30
0
0
SPLINE
5
152
100
AcDbEntity
8
0
100
AcDbSpline
70
0
71
3
72
8
73
4
74
0
42
0.000000001
43
0.0000000001
44
0.0000000001
40
0
40
0
40
0
40
0
40
1
40
1
40
1
40
1
10
-30.502188735231588
20
95.552609919984604
30
0
10
-30.390858013053101
20
95.313005223252517
30
0
10
-30.284785363281603
20
95.104347064270002
30
0
10
-30.187039633675905
20
94.924393338239113
30
0
0
ARC
5
153
100
AcDbEntity
8
0
100
AcDbCircle
10
4.7432798311319857e-06
20
59.999983535710243
30
0
40
45.849570706042464
210
0
220
-0
230
1
100
AcDbArc
50
73.465584712834058
51
74.39155814430903
0
SPLINE
5
154
100
AcDbEntity
8
0
100
AcDbSpline
70
0
71
3
72
8
73
4
74
0
42
0.000000001
43
0.0000000001
44
0.0000000001
40
0
40
0
40
0
40
0
40
1
40
1
40
1
40
1
10
-40.76601484154979
20
81.658778014448217
30
0
10
-40.96320722300058
20
81.714029583352101
30
0
10
-41.190237271391382
20
81.771011961919001
30
0
10
-41.448607994402593
20
81.82623432955701
30
0
0
ARC
5
155
100
AcDbEntity
8
0
100
AcDbCircle
10
7.5442392066804587e-06
20
59.999993258055625
30
0
40
49.706729758572394
210
0
220
-0
230
1
100
AcDbArc
50
44.227839266024979
51
45.7721607339749
0
SPLINE
5
156
100
AcDbEntity
8
0
100
AcDbSpline
70
0
71
3
72
8
73
4
74
0
42
0.000000001
43
0.0000000001
44
0.0000000001
40
0
40
0
40
0
40
0
40
1
40
1
40
1
40
1
10
46.040753433310911
20
63.349807620123343
30
0
10
46.237116601523397
20
63.407937451863397
30
0
10
46.459664890641704
20
63.48047636107799
30
0
10
46.707813705111917
20
63.571179758334594
30
0
0
SPLINE
5
157
100
AcDbEntity
8
0
100
AcDbSpline
70
0
71
3
72
8
73
4
74
0
42
0.000000001
43
0.0000000001
44
0.0000000001
40
0
40
0
40
0
40
0
40
1
40
1
40
1
40
1
10
-37.201597459566287
20
32.668470735092711
30
0
10
-37.336935970840784
20
32.5147792957261
30
0
10
-37.486779966236497
20
32.334956017524007
30
0
10
-37.648636455668779
20
32.126132127067208
30
0
0
SPLINE
5
158
100
AcDbEntity
8
0
100
AcDbSpline
70
0
71
3
72
8
73
4
74
0
42
0.000000001
43
0.0000000001
44
0.0000000001
40
0
40
0
40
0
40
0
40
1
40
1
40
1
40
1
10
-27.331514978723792
20
97.201598261861022
30
0
10
-27.485206418090389
20
97.33693677313552
30
0
10
-27.665029696292489
20
97.486780768531219
30
0
10
-27.873853586749302
20
97.648637257963514
30
0
0
ARC
5
159
100
AcDbEntity
8
0
100
AcDbCircle
10
42.584617832193516
20
78.043629844437106
30
0
40
0.40000000000001984
210
0
220
0
230
1
100
AcDbArc
50
125.78378976545169
51
202.962917959284
0
SPLINE
5
160
100
AcDbEntity
8
0
100
AcDbSpline
70
0
71
3
72
8
73
4
74
0
42
0.000000001
43
0.0000000001
44
0.0000000001
40
0
40
0
40
0
40
0
40
1
40
1
40
1
40
1
10
38.084687249495218
20
33.913048054938109
30
0
10
38.274453513674501
20
33.836065354621908
30
0
10
38.49367604260982
20
33.754021968863412
30
0
10
38.744239241283211
20
33.670218485239907
30
0
0
SPLINE
5
161
100
AcDbEntity
8
0
100
AcDbSpline
70
0
71
3
72
8
73
4
74
0
42
0.000000001
43
0.0000000001
44
0.0000000001
40
0
40
0
40
0
40
0
40
1
40
1
40
1
40
1
10
31.913914388420803
20
94.291028228180608
30
0
10
31.688281361713191
20
94.153570315874106
30
0
10
31.492811570099111
20
94.024802327205322
30
0
10
31.324933404732906
20
93.907522777573305
30
0
0
ARC
5
162
100
AcDbEntity
8
0
100
AcDbCircle
10
7.5442391711533219e-06
20
59.999993258055795
30
0
40
49.706729758572394
210
0
220
-0
230
1
100
AcDbArc
50
12.084982123167705
51
13.629303591117399
0
ARC
5
163
100
AcDbEntity
8
0
100
AcDbCircle
10
2.2200226567659875
20
106.1962418886371
30
0
40
0.40000000000000413
210
0
220
0
230
1
100
AcDbArc
50
190.0695040511589
51
267.24863224491168
0
ARC
5
164
100
AcDbEntity
8
0
100
AcDbCircle
10
-37.934354834627584
20
33.542366653479711
30
0
40
0.40000000000000002
210
0
220
-0
230
1
100
AcDbArc
50
34.894224897926591
51
112.07335309169574
0
ARC
5
165
100
AcDbEntity
8
0
100
AcDbCircle
10
7.5442391000990483e-06
20
59.999993258055753
30
0
40
49.706729758572408
210
0
220
-0
230
1
100
AcDbArc
50
37.799267837453421
51
39.343589305403206
0
SPLINE
5
166
100
AcDbEntity
8
0
100
AcDbSpline
70
0
71
3
72
8
73
4
74
0
42
0.000000001
43
0.0000000001
44
0.0000000001
40
0
40
0
40
0
40
0
40
1
40
1
40
1
40
1
10
8.7783542201093034
20
106.01426451187069
30
0
10
8.6604372947688013
20
105.7778315634157
30
0
10
8.5634369923911358
20
105.56480439219541
30
0
10
8.4836869695770822
20
105.37618439052611
30
0
0
ARC
5
167
100
AcDbEntity
8
0
100
AcDbCircle
10
7.5442390645719115e-06
20
59.999993258055667
30
0
40
49.706729758572422
210
0
220
0
230
1
100
AcDbArc
50
249.94212498031075
51
251.48644644826061
0
ARC
5
168
100
AcDbEntity
8
0
100
AcDbCircle
10
17.353096465542013
20
102.87063775435061
30
0
40
0.40000000000000985
210
0
220
0
230
1
100
AcDbArc
50
170.78378976545076
51
247.96291795921698
0
SPLINE
5
169
100
AcDbEntity
8
0
100
AcDbSpline
70
0
71
3
72
8
73
4
74
0
42
0.000000001
43
0.0000000001
44
0.0000000001
40
0
40
0
40
0
40
0
40
1
40
1
40
1
40
1
10
-30.502188735231694
20
24.447376596126716
30
0
10
-30.827198421221684
20
23.748312022917212
30
0
10
-31.1933124398651
20
22.794408567513713
30
0
10
-31.512538545640396
20
21.558889967112407
30
0
0
ARC
5
170
100
AcDbEntity
8
0
100
AcDbCircle
10
-23.06373080250756
20
88.932038710426085
30
0
40
3.9999999999999778
210
0
220
-0
230
1
100
AcDbArc
50
77.4815600047922
51
128.56078124615368
0
SPLINE
5
171
100
AcDbEntity
8
0
100
AcDbSpline
70
0
71
3
72
8
73
4
74
0
42
0.000000001
43
0.0000000001
44
0.0000000001
40
0
40
0
40
0
40
0
40
1
40
1
40
1
40
1
10
-30.187039633675994
20
25.075593177872211
30
0
10
-30.284785363281692
20
24.895639451841308
30
0
10
-30.39085801305319
20
24.686981292858814
30
0
10
-30.502188735231694
20
24.447376596126716
30
0
0
SPLINE
5
172
100
AcDbEntity
8
0
100
AcDbSpline
70
0
71
3
72
8
73
4
74
0
42
0.000000001
43
0.0000000001
44
0.0000000001
40
0
40
0
40
0
40
0
40
1
40
1
40
1
40
1
10
-42.907223958903899
20
78.797387069888117
30
0
10
-42.702957862451697
20
78.62981528754672
30
0
10
-42.516856325055002
20
78.487843980170609
30
0
10
-42.350711470191399
20
78.36812155799781
30
0
0
ARC
5
173
100
AcDbEntity
8
0
100
AcDbCircle
10
45.657221030696519
20
67.378388157382219
30
0
40
0.40000000000000335
210
0
220
0
230
1
100
AcDbArc
50
189.17993918363919
51
266.35906737740794
0
ARC
5
174
100
AcDbEntity
8
0
100
AcDbCircle
10
-26.814846374413346
20
72.037583080100106
30
0
40
21.305880476845051
210
0
220
0
230
1
100
AcDbArc
50
-10.67710770149386
51
77.481560004792229
0
SPLINE
5
175
100
AcDbEntity
8
0
100
AcDbSpline
70
0
71
3
72
8
73
4
74
0
42
0.000000001
43
0.0000000001
44
0.0000000001
40
0
40
0
40
0
40
0
40
1
40
1
40
1
40
1
10
46.126319096894207
20
58.173816697642621
30
0
10
46.327956050876992
20
58.209595321946857
30
0
10
46.557226784031997
20
58.256760619126922
30
0
10
46.813970849196224
20
58.319109840451787
30
0
0
SPLINE
5
176
100
AcDbEntity
8
0
100
AcDbSpline
70
0
71
3
72
8
73
4
74
0
42
0.000000001
43
0.0000000001
44
0.0000000001
40
0
40
0
40
0
40
0
40
1
40
1
40
1
40
1
10
47.13434290525791
20
44.216666189063709
30
0
10
46.206710909927708
20
45.092971158686609
30
0
10
45.389206074492122
20
45.70587989652401
30
0
10
44.742087731877916
20
46.124879209358809
30
0
0
SPLINE
5
177
100
AcDbEntity
8
0
100
AcDbSpline
70
0
71
3
72
8
73
4
74
0
42
0.000000001
43
0.0000000001
44
0.0000000001
40
0
40
0
40
0
40
0
40
1
40
1
40
1
40
1
10
39.276418517790702
20
29.534889871911808
30
0
10
38.690267324091522
20
30.668396950262505
30
0
10
38.121069060474525
20
31.516916021099011
30
0
10
37.648651544147128
20
32.126132127067109
30
0
0
SPLINE
5
178
100
AcDbEntity
8
0
100
AcDbSpline
70
0
71
3
72
8
73
4
74
0
42
0.000000001
43
0.0000000001
44
0.0000000001
40
0
40
0
40
0
40
0
40
1
40
1
40
1
40
1
10
-38.744224152804904
20
33.670218485240007
30
0
10
-38.493660954131492
20
33.754021968863512
30
0
10
-38.274438425196195
20
33.836065354622008
30
0
10
-38.08467216101679
20
33.913048054938209
30
0
0
ARC
5
179
100
AcDbEntity
8
0
100
AcDbCircle
10
7.5442391711533219e-06
20
59.999993258055639
30
0
40
49.70672975857245
210
0
220
-0
230
1
100
AcDbArc
50
63.513553551739335
51
65.057875019689263
0
ARC
5
180
100
AcDbEntity
8
0
100
AcDbCircle
10
7.5442392244440271e-06
20
59.999993258055575
30
0
40
49.706729758572408
210
0
220
0
230
1
100
AcDbArc
50
217.79926783745299
51
219.34358930540293
0
ARC
5
181
100
AcDbEntity
8
0
100
AcDbCircle
10
40.658160916352216
20
37.956027666355013
30
0
40
0.39999999999999764
210
0
220
-0
230
1
100
AcDbArc
50
74.355218336868177
51
151.53434653064548
0
ARC
5
182
100
AcDbEntity
8
0
100
AcDbCircle
10
-31.095885387420399
20
94.235461670523804
30
0
40
0.3999999999999026
210
0
220
0
230
1
100
AcDbArc
50
235.06950405116444
51
312.24863224493248
0
ARC
5
183
100
AcDbEntity
8
0
100
AcDbCircle
10
-17.353081377063795
20
17.12934876176071
30
0
40
0.40000000000001124
210
0
220
0
230
1
100
AcDbArc
50
-9.2162102345492798
51
67.962917959216412
0
ARC
5
184
100
AcDbEntity
8
0
100
AcDbCircle
10
-34.733517224437293
20
90.538560869881906
30
0
40
0.40000000000000613
210
0
220
0
230
1
100
AcDbArc
50
241.49807547973469
51
318.67720367350341
0
SPLINE
5
185
100
AcDbEntity
8
0
100
AcDbSpline
70
0
71
3
72
8
73
4
74
0
42
0.000000001
43
0.0000000001
44
0.0000000001
40
0
40
0
40
0
40
0
40
1
40
1
40
1
40
1
10
-37.648636455668694
20
87.873854389044112
30
0
10
-37.486779966236398
20
87.665030498587299
30
0
10
-37.336935970840699
20
87.485207220385206
30
0
10
-37.201597459566202
20
87.331515781018609
30
0
0
SPLINE
5
186
100
AcDbEntity
8
0
100
AcDbSpline
70
0
71
3
72
8
73
4
74
0
42
0.000000001
43
0.0000000001
44
0.0000000001
40
0
40
0
40
0
40
0
40
1
40
1
40
1
40
1
10
-46.014263709575886
20
51.221646582185592
30
0
10
-46.704226146426805
20
50.877736115292421
30
0
10
-47.585214688776901
20
50.360212719564601
30
0
10
-48.605128955654791
20
49.593279602034016
30
0
0
ARC
5
187
100
AcDbEntity
8
0
100
AcDbCircle
10
7.5442391711533219e-06
20
59.999993258055405
30
0
40
49.706729758572401
210
0
220
0
230
1
100
AcDbArc
50
346.3706964088824
51
347.91501787683234
0
ARC
5
188
100
AcDbEntity
8
0
100
AcDbCircle
10
1.7266583771657906e-05
20
59.999996059015075
30
0
40
45.849570706041789
210
0
220
0
230
1
100
AcDbArc
50
195.60844185569096
51
196.53441528716596
0
SPLINE
5
189
100
AcDbEntity
8
0
100
AcDbSpline
70
0
71
3
72
8
73
4
74
0
42
0.000000001
43
0.0000000001
44
0.0000000001
40
0
40
0
40
0
40
0
40
1
40
1
40
1
40
1
10
-21.658777212153488
20
19.23397087226671
30
0
10
-21.714028781057397
20
19.036778490815898
30
0
10
-21.771011159624294
20
18.809748442425011
30
0
10
-21.8262335272623
20
18.551377719413907
30
0
0
ARC
5
190
100
AcDbEntity
8
0
100
AcDbCircle
10
-8.5078355654327709
20
51.537336210243055
30
0
40
2.0000000000000502
210
-0
220
0
230
1
100
AcDbArc
50
-31.419912527125121
51
44.847395635489498
0
ARC
5
191
100
AcDbEntity
8
0
100
AcDbCircle
10
-1.311074075971419e-06
20
59.99998836389711
30
0
40
45.849570706041874
210
0
220
-0
230
1
100
AcDbArc
50
28.465584712833838
51
29.391558144308505
0
ARC
5
192
100
AcDbEntity
8
0
100
AcDbCircle
10
-2.4305814072533849e-06
20
59.999991563265681
30
0
40
45.849570706041838
210
0
220
-0
230
1
100
AcDbArc
50
9.1798704271193685
51
10.105843858594291
0
ARC
5
193
100
AcDbEntity
8
0
100
AcDbCircle
10
8.1152852361264394
20
105.53200532233743
30
0
40
0.4000000000000079
210
0
220
0
230
1
100
AcDbArc
50
259.89422489792679
51
337.07335309169895
0
SPLINE
5
194
100
AcDbEntity
8
0
100
AcDbSpline
70
0
71
3
72
8
73
4
74
0
42
0.000000001
43
0.0000000001
44
0.0000000001
40
0
40
0
40
0
40
0
40
1
40
1
40
1
40
1
10
-8.7783391316309078
20
106.01426451187069
30
0
10
-9.1222495985240748
20
106.70422694872151
30
0
10
-9.6397729942519028
20
107.58521549107172
30
0
10
-10.406706111782498
20
108.6051297579495
30
0
0
SPLINE
5
195
100
AcDbEntity
8
0
100
AcDbSpline
70
0
71
3
72
8
73
4
74
0
42
0.000000001
43
0.0000000001
44
0.0000000001
40
0
40
0
40
0
40
0
40
1
40
1
40
1
40
1
10
49.702223435547225
20
60.669858009746847
30
0
10
48.537221875140602
20
61.190610237583023
30
0
10
47.563161765529486
20
61.499119848036628
30
0
10
46.813970849196224
20
61.680876675659434
30
0
0
SPLINE
5
196
100
AcDbEntity
8
0
100
AcDbSpline
70
0
71
3
72
8
73
4
74
0
42
0.000000001
43
0.0000000001
44
0.0000000001
40
0
40
0
40
0
40
0
40
1
40
1
40
1
40
1
10
45.070800151239524
20
39.038537271685712
30
0
10
44.247115938022702
20
40.013194049964007
30
0
10
43.503375407134811
20
40.713780446914711
30
0
10
42.907239047382305
20
41.202599446223203
30
0
0
ARC
5
197
100
AcDbEntity
8
0
100
AcDbCircle
10
4.7432797778412805e-06
20
60.000002980400062
30
0
40
45.849570706041696
210
0
220
0
230
1
100
AcDbArc
50
285.60844185569096
51
286.53441528716621
0
ARC
5
198
100
AcDbEntity
8
0
100
AcDbCircle
10
26.457634148815199
20
97.934355636922405
30
0
40
0.40000000000003094
210
0
220
0
230
1
100
AcDbArc
50
157.92664690830958
51
235.10577510207423
0
SPLINE
5
199
100
AcDbEntity
8
0
100
AcDbSpline
70
0
71
3
72
8
73
4
74
0
42
0.000000001
43
0.0000000001
44
0.0000000001
40
0
40
0
40
0
40
0
40
1
40
1
40
1
40
1
10
26.086952747356715
20
98.084672963311604
30
0
10
26.163935447672895
20
98.274439227490902
30
0
10
26.245978833431405
20
98.493661756426221
30
0
10
26.329782317054917
20
98.744224955099611
30
0
0
ARC
5
200
100
AcDbEntity
8
0
100
AcDbCircle
10
22.6981531119573
20
100.29659413734851
30
0
40
0.40000000000007535
210
0
220
0
230
1
100
AcDbArc
50
240.6085106122122
51
317.78763880597728
0
SPLINE
5
201
100
AcDbEntity
8
0
100
AcDbSpline
70
0
71
3
72
8
73
4
74
0
42
0.000000001
43
0.0000000001
44
0.0000000001
40
0
40
0
40
0
40
0
40
1
40
1
40
1
40
1
10
40.532807031379093
20
36.516707816773305
30
0
10
40.348587404086928
20
36.706096489394412
30
0
10
40.179551777147907
20
36.868011872125209
30
0
10
40.027856264535501
20
37.00558382646841
30
0
0
ARC
5
202
100
AcDbEntity
8
0
100
AcDbCircle
10
28.76921620545021
20
66.02274845512153
30
0
40
21.30588047684504
210
0
220
0
230
1
100
AcDbArc
50
205.32289229850613
51
293.48156000479219
0
ARC
5
203
100
AcDbEntity
8
0
100
AcDbCircle
10
5.4194047018171965
20
49.293436890237501
30
0
40
2.0000000000000355
210
0
220
-0
230
1
100
AcDbArc
50
40.580087472874546
51
116.84739563548975
0
ARC
5
204
100
AcDbEntity
8
0
100
AcDbCircle
10
1.6531456710048964
20
23.036936100355526
30
0
40
4.0000000000000053
210
0
220
0
230
1
100
AcDbArc
50
221.4815600047921
51
272.56078124615345
0
SPLINE
5
205
100
AcDbEntity
8
0
100
AcDbSpline
70
0
71
3
72
8
73
4
74
0
42
0.000000001
43
0.0000000001
44
0.0000000001
40
0
40
0
40
0
40
0
40
1
40
1
40
1
40
1
10
46.707813705111917
20
63.571179758334594
30
0
10
47.431943558230415
20
63.835676505623447
30
0
10
48.36533686541371
20
64.251306402266351
30
0
10
49.464707390165103
20
64.899223038766735
30
0
0
ARC
5
206
100
AcDbEntity
8
0
100
AcDbCircle
10
1.5795898935522246e-05
20
59.999987403190794
30
0
40
41.000000000000021
210
0
220
0
230
1
100
AcDbArc
50
272.56078124615351
51
327.34785616399358
0
ARC
5
207
100
AcDbEntity
8
0
100
AcDbCircle
10
-19.734666125600544
20
38.217359638138333
30
0
40
21.305880476845044
210
0
220
-0
230
1
100
AcDbArc
50
61.322892298506183
51
154.67710770150256
0
SPLINE
5
208
100
AcDbEntity
8
0
100
AcDbSpline
70
0
71
3
72
8
73
4
74
0
42
0.000000001
43
0.0000000001
44
0.0000000001
40
0
40
0
40
0
40
0
40
1
40
1
40
1
40
1
10
30.502203823710001
20
95.552609919984604
30
0
10
30.827213509700027
20
96.251674493194116
30
0
10
31.1933275283433
20
97.205577948597607
30
0
10
31.512553634118721
20
98.4410965489989
30
0
0
SPLINE
5
209
100
AcDbEntity
8
0
100
AcDbSpline
70
0
71
3
72
8
73
4
74
0
42
0.000000001
43
0.0000000001
44
0.0000000001
40
0
40
0
40
0
40
0
40
1
40
1
40
1
40
1
10
30.465110930382995
20
99.276404231607103
30
0
10
29.33160385203232
20
98.690253037908008
30
0
10
28.483084781195824
20
98.121054774290911
30
0
10
27.873868675227715
20
97.648637257963514
30
0
0
ARC
5
210
100
AcDbEntity
8
0
100
AcDbCircle
10
30.159141285332449
20
84.727040396068844
30
0
40
1.99999999999998
210
0
220
-0
230
1
100
AcDbArc
50
39.34785616399413
51
170.11014043804971
0
SPLINE
5
211
100
AcDbEntity
8
0
100
AcDbSpline
70
0
71
3
72
8
73
4
74
0
42
0.000000001
43
0.0000000001
44
0.0000000001
40
0
40
0
40
0
40
0
40
1
40
1
40
1
40
1
10
40.532807031379093
20
83.483278699337916
30
0
10
41.070464647659492
20
84.035770202584402
30
0
10
41.731087905295695
20
84.815223978217119
30
0
10
42.440466029505032
20
85.875975690654812
30
0
0
SPLINE
5
212
100
AcDbEntity
8
0
100
AcDbSpline
70
0
71
3
72
8
73
4
74
0
42
0.000000001
43
0.0000000001
44
0.0000000001
40
0
40
0
40
0
40
0
40
1
40
1
40
1
40
1
10
3.3498219063068113
20
13.959247368983805
30
0
10
3.4079517380468616
20
13.762884200771408
30
0
10
3.4804906472614583
20
13.540335911653107
30
0
10
3.5711940445180623
20
13.292187097182904
30
0
0
ARC
5
213
100
AcDbEntity
8
0
100
AcDbCircle
10
1.5795898828940835e-05
20
59.999987403190865
30
0
40
40.999999999999986
210
0
220
0
230
1
100
AcDbArc
50
-15.43921875384649
51
39.347856163993598
0
ARC
5
214
100
AcDbEntity
8
0
100
AcDbCircle
10
1.5795898686832288e-05
20
59.999987403191398
30
0
40
9.9999999999999858
210
0
220
0
230
1
100
AcDbArc
50
126.00000000000448
51
152.84739563549064
0
SPLINE
5
215
100
AcDbEntity
8
0
100
AcDbSpline
70
0
71
3
72
8
73
4
74
0
42
0.000000001
43
0.0000000001
44
0.0000000001
40
0
40
0
40
0
40
0
40
1
40
1
40
1
40
1
10
35.552624206168218
20
29.497796978584809
30
0
10
36.251688779377616
20
29.172787292594808
30
0
10
37.205592234781108
20
28.806673273951411
30
0
10
38.441110835182513
20
28.487447168176111
30
0
0
SPLINE
5
216
100
AcDbEntity
8
0
100
AcDbSpline
70
0
71
3
72
8
73
4
74
0
42
0.000000001
43
0.0000000001
44
0.0000000001
40
0
40
0
40
0
40
0
40
1
40
1
40
1
40
1
10
-38.441095746704192
20
28.48744716817621
30
0
10
-37.2055771463029
20
28.806673273951606
30
0
10
-36.251673690899402
20
29.172787292594904
30
0
10
-35.552609117689897
20
29.497796978584905
30
0
0
SPLINE
5
217
100
AcDbEntity
8
0
100
AcDbSpline
70
0
71
3
72
8
73
4
74
0
42
0.000000001
43
0.0000000001
44
0.0000000001
40
0
40
0
40
0
40
0
40
1
40
1
40
1
40
1
10
25.875989976838323
20
102.44045174332142
30
0
10
24.81523826440073
20
101.7310736191121
30
0
10
24.035784488767913
20
101.07045036147591
30
0
10
23.483292985521498
20
100.53279274519551
30
0
0
SPLINE
5
218
100
AcDbEntity
8
0
100
AcDbSpline
70
0
71
3
72
8
73
4
74
0
42
0.000000001
43
0.0000000001
44
0.0000000001
40
0
40
0
40
0
40
0
40
1
40
1
40
1
40
1
10
46.691858301607127
20
77.047868672412505
30
0
10
45.420239191635318
20
77.15462239694061
30
0
10
44.398945826710218
20
77.124107816197409
30
0
10
43.631766535033506
20
77.048222982888404
30
0
0
SPLINE
5
219
100
AcDbEntity
8
0
100
AcDbSpline
70
0
71
3
72
8
73
4
74
0
42
0.000000001
43
0.0000000001
44
0.0000000001
40
0
40
0
40
0
40
0
40
1
40
1
40
1
40
1
10
18.797401356071504
20
17.092761754912409
30
0
10
19.286220355380017
20
16.496625395160009
30
0
10
19.986806752330715
20
15.752884864272012
30
0
10
20.961463530609006
20
14.929200651055314
30
0
0
ARC
5
220
100
AcDbEntity
8
0
100
AcDbCircle
10
13.162225950048505
20
15.662899743977317
30
0
40
0.40000000000001396
210
0
220
-0
230
1
100
AcDbArc
50
29.35521833687713
51
106.53434653064451
0
ARC
5
221
100
AcDbEntity
8
0
100
AcDbCircle
10
0.16749552672532531
20
89.955950957900825
30
0
40
28.444052308676191
210
0
220
0
230
1
100
AcDbArc
50
292.58008747287425
51
350.11014043804903
0
ARC
5
222
100
AcDbEntity
8
0
100
AcDbCircle
10
28.541584219544713
20
69.097606535122836
30
0
40
28.444052308676216
210
0
220
0
230
1
100
AcDbArc
50
220.58008747287428
51
278.11014043804909
0
SPLINE
5
223
100
AcDbEntity
8
0
100
AcDbSpline
70
0
71
3
72
8
73
4
74
0
42
0.000000001
43
0.0000000001
44
0.0000000001
40
0
40
0
40
0
40
0
40
1
40
1
40
1
40
1
10
11.712860887881913
20
11.692974618503111
30
0
10
11.961319534848016
20
12.944645429576811
30
0
10
12.045345399935297
20
13.962933665232313
30
0
10
12.055834542000312
20
14.733785500154308
30
0
0
ARC
5
224
100
AcDbEntity
8
0
100
AcDbCircle
10
7.3784024435656903
20
14.342779771598311
30
0
40
0.4000000000000048
210
0
220
0
230
1
100
AcDbArc
50
99.179939183640215
51
176.35906737740805
0
ARC
5
225
100
AcDbEntity
8
0
100
AcDbCircle
10
22.043973135939812
20
100.65814663016863
30
0
40
0.39999999999999764
210
0
220
0
230
1
100
AcDbArc
50
164.35521833687017
51
241.5343465306737
0
SPLINE
5
226
100
AcDbEntity
8
0
100
AcDbSpline
70
0
71
3
72
8
73
4
74
0
42
0.000000001
43
0.0000000001
44
0.0000000001
40
0
40
0
40
0
40
0
40
1
40
1
40
1
40
1
10
-49.464692301686682
20
64.899223038766806
30
0
10
-48.365321776935289
20
64.251306402266422
30
0
10
-47.431928469751995
20
63.835676505623518
30
0
10
-46.707798616633497
20
63.571179758334665
30
0
0
SPLINE
5
227
100
AcDbEntity
8
0
100
AcDbSpline
70
0
71
3
72
8
73
4
74
0
42
0.000000001
43
0.0000000001
44
0.0000000001
40
0
40
0
40
0
40
0
40
1
40
1
40
1
40
1
10
8.4836869695770112
20
14.623802125585108
30
0
10
8.5634369923910292
20
14.435182123915817
30
0
10
8.6604372947687303
20
14.222154952695512
30
0
10
8.7783542201092146
20
13.985722004240513
30
0
0
SPLINE
5
228
100
AcDbEntity
8
0
100
AcDbSpline
70
0
71
3
72
8
73
4
74
0
42
0.000000001
43
0.0000000001
44
0.0000000001
40
0
40
0
40
0
40
0
40
1
40
1
40
1
40
1
10
-31.91389929994239
20
94.291028228180608
30
0
10
-32.572178762624091
20
94.692264720184212
30
0
10
-33.479092509026387
20
95.162879991360612
30
0
10
-34.671100444103793
20
95.618433063196008
30
0
0
ARC
5
229
100
AcDbEntity
8
0
100
AcDbCircle
10
-17.743151748222576
20
35.863545920391459
30
0
40
28.444052308676216
210
0
220
-0
230
1
100
AcDbArc
50
76.58008747287424
51
134.11014043804906
0
ARC
5
230
100
AcDbEntity
8
0
100
AcDbCircle
10
1.5795898899995109e-05
20
59.999987403190651
30
0
40
41.000000000000014
210
0
220
0
230
1
100
AcDbArc
50
198.00000000000216
51
255.34785616399358
0
SPLINE
5
231
100
AcDbEntity
8
0
100
AcDbSpline
70
0
71
3
72
8
73
4
74
0
42
0.000000001
43
0.0000000001
44
0.0000000001
40
0
40
0
40
0
40
0
40
1
40
1
40
1
40
1
10
21.658792300631813
20
100.76601564384461
30
0
10
21.714043869535598
20
100.9632080252954
30
0
10
21.771026248102512
20
101.19023807368632
30
0
10
21.8262486157405
20
101.44860879669741
30
0
0
SPLINE
5
232
100
AcDbEntity
8
0
100
AcDbSpline
70
0
71
3
72
8
73
4
74
0
42
0.000000001
43
0.0000000001
44
0.0000000001
40
0
40
0
40
0
40
0
40
1
40
1
40
1
40
1
10
18.368135844181204
20
17.649274243624909
30
0
10
18.487858266354102
20
17.483129388761309
30
0
10
18.629829573730206
20
17.297027851364611
30
0
10
18.797401356071504
20
17.092761754912409
30
0
0
ARC
5
233
100
AcDbEntity
8
0
100
AcDbCircle
10
1.5795898722359425e-05
20
59.999987403190651
30
0
40
41
210
0
220
0
230
1
100
AcDbArc
50
128.56078124615345
51
183.34785616399344
0
ARC
5
234
100
AcDbEntity
8
0
100
AcDbCircle
10
1.5795899290793614e-05
20
59.999987403190296
30
0
40
10.000000000000009
210
0
220
0
230
1
100
AcDbArc
50
-17.99999999999552
51
8.8473956354906154
0
ARC
5
235
100
AcDbEntity
8
0
100
AcDbCircle
10
20.388942068565665
20
90.875409431848936
30
0
40
4.0000000000000409
210
0
220
-0
230
1
100
AcDbArc
50
5.4815600047925468
51
56.560781246153262
0
SPLINE
5
236
100
AcDbEntity
8
0
100
AcDbSpline
70
0
71
3
72
8
73
4
74
0
42
0.000000001
43
0.0000000001
44
0.0000000001
40
0
40
0
40
0
40
0
40
1
40
1
40
1
40
1
10
26.329782317054917
20
98.744224955099611
30
0
10
26.574478011655014
20
99.475283496222019
30
0
10
26.831486681556616
20
100.46418077120731
30
0
10
27.010371367772397
20
101.72767267366801
30
0
0
SPLINE
5
237
100
AcDbEntity
8
0
100
AcDbSpline
70
0
71
3
72
8
73
4
74
0
42
0.000000001
43
0.0000000001
44
0.0000000001
40
0
40
0
40
0
40
0
40
1
40
1
40
1
40
1
10
-27.010356279294001
20
101.72767267366801
30
0
10
-26.831471593078202
20
100.46418077120731
30
0
10
-26.574462923176601
20
99.475283496222019
30
0
10
-26.329767228576504
20
98.744224955099611
30
0
0
SPLINE
5
238
100
AcDbEntity
8
0
100
AcDbSpline
70
0
71
3
72
8
73
4
74
0
42
0.000000001
43
0.0000000001
44
0.0000000001
40
0
40
0
40
0
40
0
40
1
40
1
40
1
40
1
10
23.483292985521498
20
100.53279274519551
30
0
10
23.29390431290042
20
100.34857311790333
30
0
10
23.131988930169616
20
100.17953749096442
30
0
10
22.994416975826422
20
100.0278419783519
30
0
0
ARC
5
239
100
AcDbEntity
8
0
100
AcDbCircle
10
7.5442393487890058e-06
20
59.999993258055504
30
0
40
49.706729758572443
210
0
220
-0
230
1
100
AcDbArc
50
50.656410694596644
51
52.200732162546508
0
ARC
5
240
100
AcDbEntity
8
0
100
AcDbCircle
10
7.5442390645719115e-06
20
59.999993258055675
30
0
40
49.706729758572408
210
0
220
0
230
1
100
AcDbArc
50
243.51355355173897
51
245.05787501968899
0
SPLINE
5
241
100
AcDbEntity
8
0
100
AcDbSpline
70
0
71
3
72
8
73
4
74
0
42
0.000000001
43
0.0000000001
44
0.0000000001
40
0
40
0
40
0
40
0
40
1
40
1
40
1
40
1
10
-42.440450941026597
20
85.875975690654812
30
0
10
-41.731072816817289
20
84.815223978217119
30
0
10
-41.070449559181093
20
84.035770202584402
30
0
10
-40.532791942900687
20
83.483278699337916
30
0
0
SPLINE
5
242
100
AcDbEntity
8
0
100
AcDbSpline
70
0
71
3
72
8
73
4
74
0
42
0.000000001
43
0.0000000001
44
0.0000000001
40
0
40
0
40
0
40
0
40
1
40
1
40
1
40
1
10
45.376198676709706
20
68.483672683393507
30
0
10
45.564818678379012
20
68.563422706207547
30
0
10
45.777845849599302
20
68.660423008585227
30
0
10
46.014278798054292
20
68.778339933925722
30
0
0
ARC
5
243
100
AcDbEntity
8
0
100
AcDbCircle
10
7.5442391178626167e-06
20
59.999993258055596
30
0
40
49.706729758572422
210
0
220
0
230
1
100
AcDbArc
50
288.51355355173934
51
290.05787501968916
0
ARC
5
244
100
AcDbEntity
8
0
100
AcDbCircle
10
1.6893735121925602e-06
20
59.999985006394773
30
0
40
45.849570706041796
210
0
220
-0
230
1
100
AcDbArc
50
54.179870427119596
51
55.105843858594525
0
ARC
5
245
100
AcDbEntity
8
0
100
AcDbCircle
10
3.1622014925014774
20
89.222258439401941
30
0
40
21.305880476845044
210
0
220
0
230
1
100
AcDbArc
50
-82.67710770149381
51
5.4815600047922146
0
ARC
5
246
100
AcDbEntity
8
0
100
AcDbCircle
10
6.9769310862000111e-06
20
60.000003359912888
30
0
40
45.84957070604186
210
0
220
0
230
1
100
AcDbArc
50
272.75129899854807
51
273.67727243002298
0
SPLINE
5
247
100
AcDbEntity
8
0
100
AcDbSpline
70
0
71
3
72
8
73
4
74
0
42
0.000000001
43
0.0000000001
44
0.0000000001
40
0
40
0
40
0
40
0
40
1
40
1
40
1
40
1
10
17.048237269071915
20
16.368234267261315
30
0
10
17.022290470733203
20
16.631163352858209
30
0
10
16.991085685830303
20
16.863145886120215
30
0
10
16.958260068875504
20
17.06528457623201
30
0
0
SPLINE
5
248
100
AcDbEntity
8
0
100
AcDbSpline
70
0
71
3
72
8
73
4
74
0
42
0.000000001
43
0.0000000001
44
0.0000000001
40
0
40
0
40
0
40
0
40
1
40
1
40
1
40
1
10
-34.291027425885687
20
91.913900102237207
30
0
10
-34.1535695135792
20
91.688267075529723
30
0
10
-34.024801524910387
20
91.492797283915507
30
0
10
-33.907521975278492
20
91.324919118549417
30
0
0
SPLINE
5
249
100
AcDbEntity
8
0
100
AcDbSpline
70
0
71
3
72
8
73
4
74
0
42
0.000000001
43
0.0000000001
44
0.0000000001
40
0
40
0
40
0
40
0
40
1
40
1
40
1
40
1
10
-41.72767187137319
20
32.989629434522513
30
0
10
-40.464179968912589
20
33.168514120738308
30
0
10
-39.475282693927284
20
33.42552279063991
30
0
10
-38.744224152804904
20
33.670218485240007
30
0
0
ARC
5
250
100
AcDbEntity
8
0
100
AcDbCircle
10
-7.3783873550875789
20
14.342779771598311
30
0
40
0.39999999999999591
210
0
220
-0
230
1
100
AcDbArc
50
3.6409326225908525
51
80.820060816377378
0
ARC
5
251
100
AcDbEntity
8
0
100
AcDbCircle
10
13.162225950048612
20
104.33708677213382
30
0
40
0.40000000000000585
210
0
220
0
230
1
100
AcDbArc
50
253.46565346935316
51
330.64478166313091
0
SPLINE
5
252
100
AcDbEntity
8
0
100
AcDbSpline
70
0
71
3
72
8
73
4
74
0
42
0.000000001
43
0.0000000001
44
0.0000000001
40
0
40
0
40
0
40
0
40
1
40
1
40
1
40
1
10
44.563473649125228
20
47.955532830080109
30
0
10
44.768016636586211
20
47.945545966253405
30
0
10
45.002034339764222
20
47.940511193290114
30
0
10
45.266215302140495
20
47.944166260294409
30
0
0
ARC
5
253
100
AcDbEntity
8
0
100
AcDbCircle
10
1.3399104812350515e-05
20
59.999985006394702
30
0
40
45.849570706041803
210
0
220
0
230
1
100
AcDbArc
50
124.89415614140498
51
125.82012957287999
0
ARC
5
254
100
AcDbEntity
8
0
100
AcDbCircle
10
-34.235460868228991
20
91.095886189715216
30
0
40
0.39999999999999636
210
0
220
0
230
1
100
AcDbArc
50
-42.248632244931059
51
34.93049594883891
0
ARC
5
255
100
AcDbEntity
8
0
100
AcDbCircle
10
18.043644130620713
20
102.58460354600992
30
0
40
0.40000000000000935
210
0
220
0
230
1
100
AcDbArc
50
247.03708204078242
51
324.21621023454935
0
SPLINE
5
256
100
AcDbEntity
8
0
100
AcDbSpline
70
0
71
3
72
8
73
4
74
0
42
0.000000001
43
0.0000000001
44
0.0000000001
40
0
40
0
40
0
40
0
40
1
40
1
40
1
40
1
10
33.907537063756891
20
91.324919118549417
30
0
10
34.024816613388808
20
91.492797283915507
30
0
10
34.153584602057606
20
91.688267075529723
30
0
10
34.291042514364122
20
91.913900102237207
30
0
0
ARC
5
257
100
AcDbEntity
8
0
100
AcDbCircle
10
7.5442392244440271e-06
20
59.999993258055625
30
0
40
49.70672975857245
210
0
220
0
230
1
100
AcDbArc
50
333.51355355173934
51
335.05787501968916
0
ARC
5
258
100
AcDbEntity
8
0
100
AcDbCircle
10
37.501845878181101
20
32.932781059285801
30
0
40
0.39999999999999458
210
0
220
0
230
1
100
AcDbArc
50
144.17993918363823
51
221.35906737740882
0
SPLINE
5
259
100
AcDbEntity
8
0
100
AcDbSpline
70
0
71
3
72
8
73
4
74
0
42
0.000000001
43
0.0000000001
44
0.0000000001
40
0
40
0
40
0
40
0
40
1
40
1
40
1
40
1
10
40.027856264535501
20
82.994402689642811
30
0
10
40.179551777148021
20
83.131974643986013
30
0
10
40.348587404086928
20
83.293890026716809
30
0
10
40.532807031379093
20
83.483278699337916
30
0
0
ARC
5
260
100
AcDbEntity
8
0
100
AcDbCircle
10
-26.457619060336803
20
97.934355636922305
30
0
40
0.40000000000001001
210
0
220
0
230
1
100
AcDbArc
50
-55.10577510202247
51
22.073353091702682
0
SPLINE
5
261
100
AcDbEntity
8
0
100
AcDbSpline
70
0
71
3
72
8
73
4
74
0
42
0.000000001
43
0.0000000001
44
0.0000000001
40
0
40
0
40
0
40
0
40
1
40
1
40
1
40
1
10
27.873868675227715
20
97.648637257963514
30
0
10
27.665044784770902
20
97.486780768531219
30
0
10
27.485221506568802
20
97.33693677313552
30
0
10
27.331530067202205
20
97.201598261861022
30
0
0
ARC
5
262
100
AcDbEntity
8
0
100
AcDbCircle
10
40.658160916352216
20
82.043958849756223
30
0
40
0.40000000000001645
210
0
220
0
230
1
100
AcDbArc
50
208.46565346935543
51
285.64478166312068
0
ARC
5
263
100
AcDbEntity
8
0
100
AcDbCircle
10
37.934369923106019
20
86.457619862631617
30
0
40
0.40000000000002223
210
0
220
0
230
1
100
AcDbArc
50
214.89422489792628
51
292.07335309169196
0
SPLINE
5
264
100
AcDbEntity
8
0
100
AcDbSpline
70
0
71
3
72
8
73
4
74
0
42
0.000000001
43
0.0000000001
44
0.0000000001
40
0
40
0
40
0
40
0
40
1
40
1
40
1
40
1
10
44.141011988738214
20
73.510850555544607
30
0
10
44.319516817903505
20
73.611217866623605
30
0
10
44.520343930946623
20
73.731459727081116
30
0
10
44.742087731877916
20
73.875107306752412
30
0
0
SPLINE
5
265
100
AcDbEntity
8
0
100
AcDbSpline
70
0
71
3
72
8
73
4
74
0
42
0.000000001
43
0.0000000001
44
0.0000000001
40
0
40
0
40
0
40
0
40
1
40
1
40
1
40
1
10
21.8262486157405
20
101.44860879669741
30
0
10
21.987553128615307
20
102.2024678204081
30
0
10
22.132224416631221
20
103.21392295797071
30
0
10
22.16851810456701
20
104.48949901872223
30
0
0
ARC
5
266
100
AcDbEntity
8
0
100
AcDbCircle
10
40.296608423532106
20
37.30184769033751
30
0
40
0.40000000000002917
210
0
220
0
230
1
100
AcDbArc
50
150.6085106122147
51
227.78763880597864
0
ARC
5
267
100
AcDbEntity
8
0
100
AcDbCircle
10
-40.2965933350537
20
37.30184769033761
30
0
40
0.39999999999998925
210
0
220
0
230
1
100
AcDbArc
50
-47.787638805973735
51
29.391489387779011
0
SPLINE
5
268
100
AcDbEntity
8
0
100
AcDbSpline
70
0
71
3
72
8
73
4
74
0
42
0.000000001
43
0.0000000001
44
0.0000000001
40
0
40
0
40
0
40
0
40
1
40
1
40
1
40
1
10
3.5711940445181867
20
106.70779941892832
30
0
10
3.4804906472615826
20
106.4596506044581
30
0
10
3.4079517380470037
20
106.2371023153398
30
0
10
3.3498219063069534
20
106.04073914712731
30
0
0
SPLINE
5
269
100
AcDbEntity
8
0
100
AcDbSpline
70
0
71
3
72
8
73
4
74
0
42
0.000000001
43
0.0000000001
44
0.0000000001
40
0
40
0
40
0
40
0
40
1
40
1
40
1
40
1
10
40.766029930028211
20
38.341208501663012
30
0
10
40.963222311479001
20
38.285956932759213
30
0
10
41.190252359869802
20
38.228974554192312
30
0
10
41.448623082881028
20
38.173752186554218
30
0
0
SPLINE
5
270
100
AcDbEntity
8
0
100
AcDbSpline
70
0
71
3
72
8
73
4
74
0
42
0.000000001
43
0.0000000001
44
0.0000000001
40
0
40
0
40
0
40
0
40
1
40
1
40
1
40
1
10
-27.873853586749302
20
97.648637257963514
30
0
10
-28.483069692717393
20
98.121054774290911
30
0
10
-29.331588763553906
20
98.690253037908008
30
0
10
-30.465095841904599
20
99.276404231607103
30
0
0
SPLINE
5
271
100
AcDbEntity
8
0
100
AcDbSpline
70
0
71
3
72
8
73
4
74
0
42
0.000000001
43
0.0000000001
44
0.0000000001
40
0
40
0
40
0
40
0
40
1
40
1
40
1
40
1
10
49.464707390165103
20
55.100763477344529
30
0
10
48.36533686541371
20
55.748680113844898
30
0
10
47.431943558230415
20
56.164310010487803
30
0
10
46.707813705111917
20
56.428806757776655
30
0
0
ARC
5
272
100
AcDbEntity
8
0
100
AcDbCircle
10
7.5442391533897535e-06
20
59.999993258055369
30
0
40
49.706729758572408
210
0
220
0
230
1
100
AcDbArc
50
166.370696408882
51
167.91501787683205
0
ARC
5
273
100
AcDbEntity
8
0
100
AcDbCircle
10
-37.934354834627499
20
86.457619862631617
30
0
40
0.40000000000004743
210
0
220
0
230
1
100
AcDbArc
50
247.92664690831032
51
325.10577510212227
0
ARC
5
274
100
AcDbEntity
8
0
100
AcDbCircle
10
37.934369923105905
20
33.542366653479604
30
0
40
0.40000000000000208
210
0
220
-0
230
1
100
AcDbArc
50
67.926646908306139
51
145.10577510207457
0
ARC
5
275
100
AcDbEntity
8
0
100
AcDbCircle
10
1.2438397316572036e-05
20
60.000002113368666
30
0
40
45.849570706041504
210
0
220
0
230
1
100
AcDbArc
50
240.60844185569098
51
241.53441528716598
0
SPLINE
5
276
100
AcDbEntity
8
0
100
AcDbSpline
70
0
71
3
72
8
73
4
74
0
42
0.000000001
43
0.0000000001
44
0.0000000001
40
0
40
0
40
0
40
0
40
1
40
1
40
1
40
1
10
34.291042514364122
20
91.913900102237207
30
0
10
34.692279006367727
20
92.572179564918912
30
0
10
35.162894277544211
20
93.479093311321208
30
0
10
35.618447349379622
20
94.671101246398607
30
0
0
ARC
5
277
100
AcDbEntity
8
0
100
AcDbCircle
10
7.5442392244440271e-06
20
59.999993258055603
30
0
40
49.70672975857245
210
0
220
-0
230
1
100
AcDbArc
50
69.942124980310822
51
71.486446448260693
0
ARC
5
278
100
AcDbEntity
8
0
100
AcDbCircle
10
-37.501830789702794
20
32.932781059285915
30
0
40
0.39999999999996283
210
0
220
0
230
1
100
AcDbArc
50
-41.359067377409019
51
35.820060816385791
0
ARC
5
279
100
AcDbEntity
8
0
100
AcDbCircle
10
-40.65814582787381
20
82.043958849756223
30
0
40
0.40000000000001262
210
0
220
0
230
1
100
AcDbArc
50
254.35521833688134
51
331.53434653064556
0
SPLINE
5
280
100
AcDbEntity
8
0
100
AcDbSpline
70
0
71
3
72
8
73
4
74
0
42
0.000000001
43
0.0000000001
44
0.0000000001
40
0
40
0
40
0
40
0
40
1
40
1
40
1
40
1
10
-20.961448442130806
20
14.929200651055412
30
0
10
-19.986791663852603
20
15.752884864272101
30
0
10
-19.286205266901799
20
16.496625395160109
30
0
10
-18.797386267593392
20
17.092761754912608
30
0
0
ARC
5
281
100
AcDbEntity
8
0
100
AcDbCircle
10
45.532019608521011
20
68.115270949942854
30
0
40
0.39999999999998581
210
0
220
0
230
1
100
AcDbArc
50
112.92664690829859
51
190.10577510207452
0
SPLINE
5
282
100
AcDbEntity
8
0
100
AcDbSpline
70
0
71
3
72
8
73
4
74
0
42
0.000000001
43
0.0000000001
44
0.0000000001
40
0
40
0
40
0
40
0
40
1
40
1
40
1
40
1
10
38.744239241283211
20
33.670218485239907
30
0
10
39.475297782405633
20
33.42552279063981
30
0
10
40.464195057390896
20
33.168514120738209
30
0
10
41.72768695985161
20
32.989629434522406
30
0
0
ARC
5
283
100
AcDbEntity
8
0
100
AcDbCircle
10
27.06721974300903
20
97.501831591997501
30
0
40
0.4000000000000295
210
0
220
0
230
1
100
AcDbArc
50
234.17993918362788
51
311.35906737740868
0
SPLINE
5
284
100
AcDbEntity
8
0
100
AcDbSpline
70
0
71
3
72
8
73
4
74
0
42
0.000000001
43
0.0000000001
44
0.0000000001
40
0
40
0
40
0
40
0
40
1
40
1
40
1
40
1
10
-42.907223958903998
20
41.202599446223317
30
0
10
-43.503360318656391
20
40.713780446914811
30
0
10
-44.247100849544395
20
40.013194049964113
30
0
10
-45.07078506276109
20
39.038537271685911
30
0
0
ARC
5
285
100
AcDbEntity
8
0
100
AcDbCircle
10
-2.9662751081567684
20
13.845654113567312
30
0
40
0.40000000000000113
210
0
220
-0
230
1
100
AcDbArc
50
86.322796326497084
51
163.50192452026545
0
ARC
5
286
100
AcDbEntity
8
0
100
AcDbCircle
10
-7.0742119717692731e-07
20
59.999987403190353
30
0
40
45.849570706041263
210
0
220
-0
230
1
100
AcDbArc
50
34.894156141405333
51
35.820129572880496
0
SPLINE
5
287
100
AcDbEntity
8
0
100
AcDbSpline
70
0
71
3
72
8
73
4
74
0
42
0.000000001
43
0.0000000001
44
0.0000000001
40
0
40
0
40
0
40
0
40
1
40
1
40
1
40
1
10
38.744239241283211
20
86.329768030871321
30
0
10
38.49367604260982
20
86.245964547247809
30
0
10
38.274453513674501
20
86.163921161489313
30
0
10
38.084687249495218
20
86.086938461173119
30
0
0
ARC
5
288
100
AcDbEntity
8
0
100
AcDbCircle
10
7.5442392066804587e-06
20
59.999993258055611
30
0
40
49.706729758572422
210
0
220
0
230
1
100
AcDbArc
50
-0.7721607339749188
51
0.77216073397494234
0
ARC
5
289
100
AcDbEntity
8
0
100
AcDbCircle
10
7.544239313261869e-06
20
59.999993258055753
30
0
40
49.706729758572465
210
0
220
0
230
1
100
AcDbArc
50
320.65641069459627
51
322.20073216254616
0
SPLINE
5
290
100
AcDbEntity
8
0
100
AcDbSpline
70
0
71
3
72
8
73
4
74
0
42
0.000000001
43
0.0000000001
44
0.0000000001
40
0
40
0
40
0
40
0
40
1
40
1
40
1
40
1
10
41.448623082881028
20
81.82623432955701
30
0
10
41.190252359869802
20
81.771011961918916
30
0
10
40.963222311479001
20
81.714029583352001
30
0
10
40.766029930028211
20
81.658778014448217
30
0
0
ARC
5
291
100
AcDbEntity
8
0
100
AcDbCircle
10
2.6500810257346075e-06
20
59.999984402742342
30
0
40
45.849570706041696
210
0
220
-0
230
1
100
AcDbArc
50
60.608441855691609
51
61.534415287166276
0
SPLINE
5
292
100
AcDbEntity
8
0
100
AcDbSpline
70
0
71
3
72
8
73
4
74
0
42
0.000000001
43
0.0000000001
44
0.0000000001
40
0
40
0
40
0
40
0
40
1
40
1
40
1
40
1
10
-23.483277897043102
20
100.53279274519551
30
0
10
-24.035769400289588
20
101.07045036147591
30
0
10
-24.815223175922299
20
101.7310736191121
30
0
10
-25.875974888359998
20
102.44045174332142
30
0
0
ARC
5
293
100
AcDbEntity
8
0
100
AcDbCircle
10
-30.538560067587088
20
94.733518026732099
30
0
40
0.39999999999998948
210
0
220
0
230
1
100
AcDbArc
50
-48.677203673502078
51
28.501924520266677
0
ARC
5
294
100
AcDbEntity
8
0
100
AcDbCircle
10
7.5442392422075955e-06
20
59.999993258055675
30
0
40
49.706729758572472
210
0
220
0
230
1
100
AcDbArc
50
147.084982123168
51
148.62930359111786
0
ARC
5
295
100
AcDbEntity
8
0
100
AcDbCircle
10
1.5795899397375024e-05
20
59.999987403191064
30
0
40
9.9999999999999929
210
0
220
-0
230
1
100
AcDbArc
50
54.000000000004448
51
80.847395635490599
0
ARC
5
296
100
AcDbEntity
8
0
100
AcDbCircle
10
1.5088476938984741e-05
20
59.999999999999275
30
0
40
45.849570706040303
210
0
220
0
230
1
100
AcDbArc
50
221.32272756997722
51
222.24870100145222
0
SPLINE
5
297
100
AcDbEntity
8
0
100
AcDbSpline
70
0
71
3
72
8
73
4
74
0
42
0.000000001
43
0.0000000001
44
0.0000000001
40
0
40
0
40
0
40
0
40
1
40
1
40
1
40
1
10
18.79740135607161
20
102.90722476119871
30
0
10
18.629829573730312
20
102.70295866474662
30
0
10
18.487858266354102
20
102.51685712734982
30
0
10
18.36813584418131
20
102.35071227248632
30
0
0
ARC
5
298
100
AcDbEntity
8
0
100
AcDbCircle
10
7.5442392422075955e-06
20
59.999993258055596
30
0
40
49.706729758572465
210
0
220
-0
230
1
100
AcDbArc
50
57.084982123167961
51
58.629303591117683
0
SPLINE
5
299
100
AcDbEntity
8
0
100
AcDbSpline
70
0
71
3
72
8
73
4
74
0
42
0.000000001
43
0.0000000001
44
0.0000000001
40
0
40
0
40
0
40
0
40
1
40
1
40
1
40
1
10
15.783334613231101
20
107.13432861907432
30
0
10
14.907029643608212
20
106.20669662374411
30
0
10
14.294120905770811
20
105.38919178830852
30
0
10
13.875121592936015
20
104.74207344569433
30
0
0
SPLINE
5
300
100
AcDbEntity
8
0
100
AcDbSpline
70
0
71
3
72
8
73
4
74
0
42
0.000000001
43
0.0000000001
44
0.0000000001
40
0
40
0
40
0
40
0
40
1
40
1
40
1
40
1
10
-17.048222180593786
20
16.368234267261403
30
0
10
-17.124107013902794
20
15.601054975584718
30
0
10
-17.154621594645985
20
14.57976161065961
30
0
10
-17.047867870117894
20
13.30814250068781
30
0
0
ARC
5
301
100
AcDbEntity
8
0
100
AcDbCircle
10
-42.87063695205569
20
77.353082179358509
30
0
40
0.4000000000000532
210
0
220
0
230
1
100
AcDbArc
50
260.78378976543701
51
337.96291795915312
0
SPLINE
5
302
100
AcDbEntity
8
0
100
AcDbSpline
70
0
71
3
72
8
73
4
74
0
42
0.000000001
43
0.0000000001
44
0.0000000001
40
0
40
0
40
0
40
0
40
1
40
1
40
1
40
1
10
-40.532791942900786
20
36.516707816773405
30
0
10
-41.070449559181199
20
35.964216313527004
30
0
10
-41.731072816817388
20
35.184762537894215
30
0
10
-42.440450941026683
20
34.124010825456608
30
0
0
ARC
5
303
100
AcDbEntity
8
0
100
AcDbCircle
10
3.6723350405054589e-06
20
59.999983910451611
30
0
40
45.849570706041014
210
0
220
-0
230
1
100
AcDbArc
50
67.037013284262784
51
67.962986715737728
0
SPLINE
5
304
100
AcDbEntity
8
0
100
AcDbSpline
70
0
71
3
72
8
73
4
74
0
42
0.000000001
43
0.0000000001
44
0.0000000001
40
0
40
0
40
0
40
0
40
1
40
1
40
1
40
1
10
37.648651544147128
20
32.126132127067109
30
0
10
37.486795054714705
20
32.334956017523808
30
0
10
37.336951059319134
20
32.514779295726008
30
0
10
37.201612548044608
20
32.668470735092612
30
0
0
ARC
5
305
100
AcDbEntity
8
0
100
AcDbCircle
10
42.87065204053421
20
77.35308217935841
30
0
40
0.40000000000002156
210
0
220
0
230
1
100
AcDbArc
50
202.03708204078114
51
279.21621023455117
0
SPLINE
5
306
100
AcDbEntity
8
0
100
AcDbSpline
70
0
71
3
72
8
73
4
74
0
42
0.000000001
43
0.0000000001
44
0.0000000001
40
0
40
0
40
0
40
0
40
1
40
1
40
1
40
1
10
30.187054722154318
20
94.924393338239113
30
0
10
30.284800451760017
20
95.104347064270002
30
0
10
30.390873101531515
20
95.313005223252517
30
0
10
30.502203823710001
20
95.552609919984604
30
0
0
ARC
5
307
100
AcDbEntity
8
0
100
AcDbCircle
10
8.0229558108158017e-07
20
59.999985713816564
30
0
40
45.849570706041263
210
0
220
-0
230
1
100
AcDbArc
50
47.751298998548819
51
48.677272430023095
0
ARC
5
308
100
AcDbEntity
8
0
100
AcDbCircle
10
-26.457619060336892
20
22.065630879188909
30
0
40
0.40000000000000135
210
0
220
0
230
1
100
AcDbArc
50
-22.073353091694223
51
55.105775102114713
0
ARC
5
309
100
AcDbEntity
8
0
100
AcDbCircle
10
1.5795898722359425e-05
20
59.999987403190794
30
0
40
45.84957070604019
210
0
220
0
230
1
100
AcDbArc
50
144.17987042712002
51
145.10584385859397
0
ARC
5
310
100
AcDbEntity
8
0
100
AcDbCircle
10
1.42861827967522e-05
20
60.000000802294039
30
0
40
45.849570706040709
210
0
220
0
230
1
100
AcDbArc
50
227.75129899854804
51
228.67727243002298
0
ARC
5
311
100
AcDbEntity
8
0
100
AcDbCircle
10
1.5088478253488802e-05
20
59.999986516111306
30
0
40
45.849570706041654
210
0
220
0
230
1
100
AcDbArc
50
137.75129899854812
51
138.67727243002309
0
SPLINE
5
312
100
AcDbEntity
8
0
100
AcDbSpline
70
0
71
3
72
8
73
4
74
0
42
0.000000001
43
0.0000000001
44
0.0000000001
40
0
40
0
40
0
40
0
40
1
40
1
40
1
40
1
10
42.440466029505032
20
34.124010825456409
30
0
10
41.731087905295695
20
35.184762537894102
30
0
10
41.070464647659492
20
35.964216313526812
30
0
10
40.532807031379093
20
36.516707816773305
30
0
0
ARC
5
313
100
AcDbEntity
8
0
100
AcDbCircle
10
-30.538560067587195
20
25.266468489379204
30
0
40
0.40000000000001323
210
0
220
0
230
1
100
AcDbArc
50
-28.501924520262801
51
48.67720367351599
0
SPLINE
5
314
100
AcDbEntity
8
0
100
AcDbSpline
70
0
71
3
72
8
73
4
74
0
42
0.000000001
43
0.0000000001
44
0.0000000001
40
0
40
0
40
0
40
0
40
1
40
1
40
1
40
1
10
-26.329767228576504
20
98.744224955099611
30
0
10
-26.245963744952991
20
98.493661756426221
30
0
10
-26.163920359194499
20
98.274439227490902
30
0
10
-26.086937658878302
20
98.084672963311604
30
0
0
SPLINE
5
315
100
AcDbEntity
8
0
100
AcDbSpline
70
0
71
3
72
8
73
4
74
0
42
0.000000001
43
0.0000000001
44
0.0000000001
40
0
40
0
40
0
40
0
40
1
40
1
40
1
40
1
10
-48.605128955654692
20
70.406706914077418
30
0
10
-47.585214688776901
20
69.639773796546777
30
0
10
-46.704226146426691
20
69.122250400818956
30
0
10
-46.014263709575886
20
68.778339933925778
30
0
0
ARC
5
316
100
AcDbEntity
8
0
100
AcDbCircle
10
7.5442390112812063e-06
20
59.999993258055738
30
0
40
49.706729758572408
210
0
220
0
230
1
100
AcDbArc
50
237.084982123168
51
238.62930359111792
0
SPLINE
5
317
100
AcDbEntity
8
0
100
AcDbSpline
70
0
71
3
72
8
73
4
74
0
42
0.000000001
43
0.0000000001
44
0.0000000001
40
0
40
0
40
0
40
0
40
1
40
1
40
1
40
1
10
-40.02784117605708
20
37.005583826468509
30
0
10
-40.1795366886696
20
36.868011872125315
30
0
10
-40.348572315608578
20
36.706096489394511
30
0
10
-40.532791942900786
20
36.516707816773405
30
0
0
SPLINE
5
318
100
AcDbEntity
8
0
100
AcDbSpline
70
0
71
3
72
8
73
4
74
0
42
0.000000001
43
0.0000000001
44
0.0000000001
40
0
40
0
40
0
40
0
40
1
40
1
40
1
40
1
10
46.33141524262642
20
66.911808509294602
30
0
10
46.06930463235399
20
66.945019477053705
30
0
10
45.836194667657736
20
66.96621803122126
30
0
10
45.631819629593423
20
66.979195511129802
30
0
0
ARC
5
319
100
AcDbEntity
8
0
100
AcDbCircle
10
7.544239313261869e-06
20
59.999993258055753
30
0
40
49.706729758572422
210
0
220
0
230
1
100
AcDbArc
50
140.65641069459664
51
142.20073216254656
0
SPLINE
5
320
100
AcDbEntity
8
0
100
AcDbSpline
70
0
71
3
72
8
73
4
74
0
42
0.000000001
43
0.0000000001
44
0.0000000001
40
0
40
0
40
0
40
0
40
1
40
1
40
1
40
1
10
41.72768695985161
20
87.010357081588822
30
0
10
40.464195057390896
20
86.831472395373027
30
0
10
39.475297782405633
20
86.574463725471418
30
0
10
38.744239241283211
20
86.329768030871321
30
0
0
SPLINE
5
321
100
AcDbEntity
8
0
100
AcDbSpline
70
0
71
3
72
8
73
4
74
0
42
0.000000001
43
0.0000000001
44
0.0000000001
40
0
40
0
40
0
40
0
40
1
40
1
40
1
40
1
10
-22.994401887347991
20
100.0278419783519
30
0
10
-23.131973841691202
20
100.17953749096432
30
0
10
-23.293889224421989
20
100.34857311790333
30
0
10
-23.483277897043102
20
100.53279274519551
30
0
0
ARC
5
322
100
AcDbEntity
8
0
100
AcDbCircle
10
-5.1514348342607263e-13
20
59.999986516111115
30
0
40
45.849570706042314
210
0
220
-0
230
1
100
AcDbArc
50
41.322727569976486
51
42.248701001451515
0
SPLINE
5
323
100
AcDbEntity
8
0
100
AcDbSpline
70
0
71
3
72
8
73
4
74
0
42
0.000000001
43
0.0000000001
44
0.0000000001
40
0
40
0
40
0
40
0
40
1
40
1
40
1
40
1
10
17.048237269072004
20
103.63175224884991
30
0
10
17.124122102381012
20
104.39893154052662
30
0
10
17.154636683124203
20
105.42022490545172
30
0
10
17.047882958596112
20
106.69184401542351
30
0
0
SPLINE
5
324
100
AcDbEntity
8
0
100
AcDbSpline
70
0
71
3
72
8
73
4
74
0
42
0.000000001
43
0.0000000001
44
0.0000000001
40
0
40
0
40
0
40
0
40
1
40
1
40
1
40
1
10
20.961463530609006
20
105.07078586505591
30
0
10
19.986806752330804
20
104.24710165183922
30
0
10
19.286220355380106
20
103.50336112095121
30
0
10
18.79740135607161
20
102.90722476119871
30
0
0
ARC
5
325
100
AcDbEntity
8
0
100
AcDbCircle
10
7.5442391711533219e-06
20
59.999993258055554
30
0
40
49.706729758572394
210
0
220
0
230
1
100
AcDbArc
50
327.084982123168
51
328.62930359111795
0
ARC
5
326
100
AcDbEntity
8
0
100
AcDbCircle
10
-22.043958047461398
20
100.65814663016863
30
0
40
0.40000000000001645
210
0
220
0
230
1
100
AcDbArc
50
-61.53434653064555
51
15.644781663118687
0
SPLINE
5
327
100
AcDbEntity
8
0
100
AcDbSpline
70
0
71
3
72
8
73
4
74
0
42
0.000000001
43
0.0000000001
44
0.0000000001
40
0
40
0
40
0
40
0
40
1
40
1
40
1
40
1
10
-33.907521975278598
20
28.675067397562003
30
0
10
-34.024801524910586
20
28.507189232195913
30
0
10
-34.153569513579392
20
28.311719440581712
30
0
10
-34.291027425885794
20
28.086086413874106
30
0
0
ARC
5
328
100
AcDbEntity
8
0
100
AcDbCircle
10
7.5442392066804587e-06
20
59.999993258055618
30
0
40
49.706729758572436
210
0
220
0
230
1
100
AcDbArc
50
134.22783926602509
51
135.77216073397494
0
ARC
5
329
100
AcDbEntity
8
0
100
AcDbCircle
10
-7.0742368407650247e-07
20
59.999999112922524
30
0
40
45.84957070604419
210
0
220
0
230
1
100
AcDbArc
50
324.17987042711974
51
325.10584385859465
0
ARC
5
330
100
AcDbEntity
8
0
100
AcDbCircle
10
-40.2965933350537
20
82.698138825773697
30
0
40
0.39999999999997082
210
0
220
0
230
1
100
AcDbArc
50
-29.391489387759297
51
47.787638805977849
0
SPLINE
5
331
100
AcDbEntity
8
0
100
AcDbSpline
70
0
71
3
72
8
73
4
74
0
42
0.000000001
43
0.0000000001
44
0.0000000001
40
0
40
0
40
0
40
0
40
1
40
1
40
1
40
1
10
48.307026183791621
20
71.712846601698416
30
0
10
47.055355372717912
20
71.961305248664502
30
0
10
46.037067137062508
20
72.045331113751814
30
0
10
45.266215302140495
20
72.055820255816812
30
0
0
SPLINE
5
332
100
AcDbEntity
8
0
100
AcDbSpline
70
0
71
3
72
8
73
4
74
0
42
0.000000001
43
0.0000000001
44
0.0000000001
40
0
40
0
40
0
40
0
40
1
40
1
40
1
40
1
10
-13.875106504457602
20
104.74207344569433
30
0
10
-14.294105817292397
20
105.38919178830852
30
0
10
-14.907014555129798
20
106.20669662374411
30
0
10
-15.783319524752688
20
107.13432861907432
30
0
0
ARC
5
333
100
AcDbEntity
8
0
100
AcDbCircle
10
7.5442393843161426e-06
20
59.999993258055753
30
0
40
49.706729758572408
210
0
220
0
230
1
100
AcDbArc
50
127.799267837454
51
129.34358930540401
0
ARC
5
334
100
AcDbEntity
8
0
100
AcDbCircle
10
-18.043629042142495
20
17.415382970101412
30
0
40
0.40000000000000119
210
0
220
-0
230
1
100
AcDbArc
50
67.037082040782408
51
144.216210234556
0
SPLINE
5
335
100
AcDbEntity
8
0
100
AcDbSpline
70
0
71
3
72
8
73
4
74
0
42
0.000000001
43
0.0000000001
44
0.0000000001
40
0
40
0
40
0
40
0
40
1
40
1
40
1
40
1
10
16.95826006887561
20
102.93470193987922
30
0
10
16.991085685830409
20
103.13684062999101
30
0
10
17.02229047073331
20
103.36882316325301
30
0
10
17.048237269072004
20
103.63175224884991
30
0
0
SPLINE
5
336
100
AcDbEntity
8
0
100
AcDbSpline
70
0
71
3
72
8
73
4
74
0
42
0.000000001
43
0.0000000001
44
0.0000000001
40
0
40
0
40
0
40
0
40
1
40
1
40
1
40
1
10
-31.324918316254493
20
93.907522777573305
30
0
10
-31.492796481620697
20
94.024802327205322
30
0
10
-31.688266273234795
20
94.153570315874106
30
0
10
-31.91389929994239
20
94.291028228180608
30
0
0
SPLINE
5
337
100
AcDbEntity
8
0
100
AcDbSpline
70
0
71
3
72
8
73
4
74
0
42
0.000000001
43
0.0000000001
44
0.0000000001
40
0
40
0
40
0
40
0
40
1
40
1
40
1
40
1
10
-40.532791942900687
20
83.483278699337916
30
0
10
-40.348572315608507
20
83.293890026716809
30
0
10
-40.179536688669501
20
83.131974643986013
30
0
10
-40.02784117605708
20
82.994402689642811
30
0
0
ARC
5
338
100
AcDbEntity
8
0
100
AcDbCircle
10
1.6399552382750926e-05
20
59.999998152214324
30
0
40
45.849570706041902
210
0
220
0
230
1
100
AcDbArc
50
208.46558471283399
51
209.39155814430896
0
ARC
5
339
100
AcDbEntity
8
0
100
AcDbCircle
10
-8.1152701476482036
20
14.467981193773811
30
0
40
0.39999999999996805
210
0
220
-0
230
1
100
AcDbArc
50
79.89422489795129
51
157.07335309168795
0
ARC
5
340
100
AcDbEntity
8
0
100
AcDbCircle
10
-12.44397954498389
20
15.455980866247003
30
0
40
0.39999999999997471
210
0
220
0
230
1
100
AcDbArc
50
-2.787638805968335
51
74.391489387763272
0
ARC
5
341
100
AcDbEntity
8
0
100
AcDbCircle
10
8.1115474870330218e-06
20
60.000003359915382
30
0
40
45.849570706044354
210
0
220
0
230
1
100
AcDbArc
50
266.32272756997662
51
267.24870100145154
0
SPLINE
5
342
100
AcDbEntity
8
0
100
AcDbSpline
70
0
71
3
72
8
73
4
74
0
42
0.000000001
43
0.0000000001
44
0.0000000001
40
0
40
0
40
0
40
0
40
1
40
1
40
1
40
1
10
44.742087731877916
20
73.875107306752412
30
0
10
45.389206074492122
20
74.294106619587211
30
0
10
46.206710909927708
20
74.907015357424612
30
0
10
47.13434290525791
20
75.78332032704752
30
0
0
SPLINE
5
343
100
AcDbEntity
8
0
100
AcDbSpline
70
0
71
3
72
8
73
4
74
0
42
0.000000001
43
0.0000000001
44
0.0000000001
40
0
40
0
40
0
40
0
40
1
40
1
40
1
40
1
10
41.448623082881028
20
38.173752186554218
30
0
10
42.202482106591702
20
38.01244767367951
30
0
10
43.213937244154309
20
37.867776385663511
30
0
10
44.489513304905813
20
37.831482697727807
30
0
0
SPLINE
5
344
100
AcDbEntity
8
0
100
AcDbSpline
70
0
71
3
72
8
73
4
74
0
42
0.000000001
43
0.0000000001
44
0.0000000001
40
0
40
0
40
0
40
0
40
1
40
1
40
1
40
1
10
-44.489498216427407
20
37.831482697727907
30
0
10
-43.213922155676002
20
37.86777638566371
30
0
10
-42.202467018113396
20
38.01244767367961
30
0
10
-41.448607994402678
20
38.17375218655441
30
0
0
ARC
5
345
100
AcDbEntity
8
0
100
AcDbCircle
10
42.870652040534111
20
42.646904336752812
30
0
40
0.39999999999994806
210
0
220
-0
230
1
100
AcDbArc
50
80.783789765434776
51
157.96291795921641
0
ARC
5
346
100
AcDbEntity
8
0
100
AcDbCircle
10
7.5442391533897535e-06
20
59.999993258055682
30
0
40
49.706729758572422
210
0
220
0
230
1
100
AcDbArc
50
211.37069640888208
51
212.915017876832
0
SPLINE
5
347
100
AcDbEntity
8
0
100
AcDbSpline
70
0
71
3
72
8
73
4
74
0
42
0.000000001
43
0.0000000001
44
0.0000000001
40
0
40
0
40
0
40
0
40
1
40
1
40
1
40
1
10
35.552624206168218
20
90.502189537526405
30
0
10
35.313019509436131
20
90.390858815347912
30
0
10
35.104361350453615
20
90.284786165576421
30
0
10
34.924407624422699
20
90.187040435970715
30
0
0
SPLINE
5
348
100
AcDbEntity
8
0
100
AcDbSpline
70
0
71
3
72
8
73
4
74
0
42
0.000000001
43
0.0000000001
44
0.0000000001
40
0
40
0
40
0
40
0
40
1
40
1
40
1
40
1
10
-38.74422415280479
20
86.329768030871321
30
0
10
-39.475282693927198
20
86.574463725471418
30
0
10
-40.464179968912489
20
86.831472395373027
30
0
10
-41.72767187137319
20
87.010357081588822
30
0
0
ARC
5
349
100
AcDbEntity
8
0
100
AcDbCircle
10
31.095900475898812
20
94.235461670523918
30
0
40
0.40000000000000946
210
0
220
0
230
1
100
AcDbArc
50
227.75136775507028
51
304.93049594883809
0
ARC
5
350
100
AcDbEntity
8
0
100
AcDbCircle
10
-37.50183078970268
20
87.06720545682542
30
0
40
0.40000000000003344
210
0
220
0
230
1
100
AcDbArc
50
-35.820060816426043
51
41.359067377410177
0
ARC
5
351
100
AcDbEntity
8
0
100
AcDbCircle
10
22.698153111957193
20
19.703392378762715
30
0
40
0.40000000000001679
210
0
220
-0
230
1
100
AcDbArc
50
42.212361194018527
51
119.39148938778682
0
SPLINE
5
352
100
AcDbEntity
8
0
100
AcDbSpline
70
0
71
3
72
8
73
4
74
0
42
0.000000001
43
0.0000000001
44
0.0000000001
40
0
40
0
40
0
40
0
40
1
40
1
40
1
40
1
10
26.329782317054811
20
21.255761561011507
30
0
10
26.245978833431298
20
21.506324759684908
30
0
10
26.163935447672895
20
21.725547288620213
30
0
10
26.086952747356715
20
21.91531355279961
30
0
0
ARC
5
353
100
AcDbEntity
8
0
100
AcDbCircle
10
1.6893732102118975e-06
20
60.000001509716256
30
0
40
45.849570706041796
210
0
220
0
230
1
100
AcDbArc
50
304.89415614140597
51
305.820129572881
0
SPLINE
5
354
100
AcDbEntity
8
0
100
AcDbSpline
70
0
71
3
72
8
73
4
74
0
42
0.000000001
43
0.0000000001
44
0.0000000001
40
0
40
0
40
0
40
0
40
1
40
1
40
1
40
1
10
21.8262486157405
20
18.551377719413715
30
0
10
21.771026248102405
20
18.809748442424905
30
0
10
21.714043869535526
20
19.036778490815813
30
0
10
21.658792300631706
20
19.23397087226661
30
0
0
SPLINE
5
355
100
AcDbEntity
8
0
100
AcDbSpline
70
0
71
3
72
8
73
4
74
0
42
0.000000001
43
0.0000000001
44
0.0000000001
40
0
40
0
40
0
40
0
40
1
40
1
40
1
40
1
10
27.873868675227609
20
22.35134925814771
30
0
10
28.483084781195718
20
21.878931741820207
30
0
10
29.331603852032213
20
21.30973347820321
30
0
10
30.465110930382888
20
20.723582284504005
30
0
0
ARC
5
356
100
AcDbEntity
8
0
100
AcDbCircle
10
8.0229304089129982e-07
20
60.000000802297144
30
0
40
45.849570706044808
210
0
220
0
230
1
100
AcDbArc
50
311.32272756997702
51
312.24870100145193
0
SPLINE
5
357
100
AcDbEntity
8
0
100
AcDbSpline
70
0
71
3
72
8
73
4
74
0
42
0.000000001
43
0.0000000001
44
0.0000000001
40
0
40
0
40
0
40
0
40
1
40
1
40
1
40
1
10
34.924407624422628
20
29.812946080140506
30
0
10
35.104361350453615
20
29.715200350534808
30
0
10
35.313019509436131
20
29.609127700763306
30
0
10
35.552624206168218
20
29.497796978584809
30
0
0
ARC
5
358
100
AcDbEntity
8
0
100
AcDbCircle
10
2.6500803329554401e-06
20
60.000002113368936
30
0
40
45.84957070604213
210
0
220
0
230
1
100
AcDbArc
50
298.46558471283402
51
299.39155814430899
0
ARC
5
359
100
AcDbEntity
8
0
100
AcDbCircle
10
34.235475956707418
20
28.904100326396005
30
0
40
0.40000000000003283
210
0
220
0
230
1
100
AcDbArc
50
137.75136775509216
51
214.9304959488349
0
ARC
5
360
100
AcDbEntity
8
0
100
AcDbCircle
10
27.067219743008888
20
22.498154924113614
30
0
40
0.40000000000003866
210
0
220
-0
230
1
100
AcDbArc
50
48.640932622598633
51
125.82006081633243
0
SPLINE
5
361
100
AcDbEntity
8
0
100
AcDbSpline
70
0
71
3
72
8
73
4
74
0
42
0.000000001
43
0.0000000001
44
0.0000000001
40
0
40
0
40
0
40
0
40
1
40
1
40
1
40
1
10
22.168518104566903
20
15.510487497389009
30
0
10
22.132224416631221
20
16.786063558140405
30
0
10
21.9875531286152
20
17.797518695703012
30
0
10
21.8262486157405
20
18.551377719413715
30
0
0
SPLINE
5
362
100
AcDbEntity
8
0
100
AcDbSpline
70
0
71
3
72
8
73
4
74
0
42
0.000000001
43
0.0000000001
44
0.0000000001
40
0
40
0
40
0
40
0
40
1
40
1
40
1
40
1
10
27.331530067202099
20
22.798388254250209
30
0
10
27.485221506568731
20
22.663049742975705
30
0
10
27.665044784770796
20
22.51320574758001
30
0
10
27.873868675227609
20
22.35134925814771
30
0
0
ARC
5
363
100
AcDbEntity
8
0
100
AcDbCircle
10
32.836522985272779
20
38.958034176310903
30
0
40
1.9999999999999798
210
0
220
0
230
1
100
AcDbArc
50
-32.652143836006871
51
98.110140438049228
0
SPLINE
5
364
100
AcDbEntity
8
0
100
AcDbSpline
70
0
71
3
72
8
73
4
74
0
42
0.000000001
43
0.0000000001
44
0.0000000001
40
0
40
0
40
0
40
0
40
1
40
1
40
1
40
1
10
34.291042514364122
20
28.086086413874011
30
0
10
34.153584602057606
20
28.311719440581506
30
0
10
34.024816613388808
20
28.507189232195707
30
0
10
33.90753706375682
20
28.675067397561804
30
0
0
SPLINE
5
365
100
AcDbEntity
8
0
100
AcDbSpline
70
0
71
3
72
8
73
4
74
0
42
0.000000001
43
0.0000000001
44
0.0000000001
40
0
40
0
40
0
40
0
40
1
40
1
40
1
40
1
10
35.618447349379622
20
25.328885269712607
30
0
10
35.162894277544098
20
26.520893204790013
30
0
10
34.692279006367727
20
27.427806951192309
30
0
10
34.291042514364122
20
28.086086413874011
30
0
0
SPLINE
5
366
100
AcDbEntity
8
0
100
AcDbSpline
70
0
71
3
72
8
73
4
74
0
42
0.000000001
43
0.0000000001
44
0.0000000001
40
0
40
0
40
0
40
0
40
1
40
1
40
1
40
1
10
-6.9118077069999551
20
13.668585559668402
30
0
10
-6.8150764966083166
20
12.903755090583902
30
0
10
-6.6175668596969217
20
11.901277549586107
30
0
10
-6.2305278019374732
20
10.685295524096103
30
0
0
ARC
5
367
100
AcDbEntity
8
0
100
AcDbCircle
10
7.5442393665525742e-06
20
59.999993258055596
30
0
40
49.706729758572408
210
0
220
0
230
1
100
AcDbArc
50
262.79926783745321
51
264.3435893054031
0
ARC
5
368
100
AcDbEntity
8
0
100
AcDbCircle
10
7.5442390645719115e-06
20
59.999993258055603
30
0
40
49.706729758572408
210
0
220
0
230
1
100
AcDbArc
50
269.227839266025
51
270.772160733975
0
ARC
5
369
100
AcDbEntity
8
0
100
AcDbCircle
10
7.5442392599711638e-06
20
59.999993258055618
30
0
40
49.706729758572401
210
0
220
0
230
1
100
AcDbArc
50
275.65641069459627
51
277.20073216254599
0
SPLINE
5
370
100
AcDbEntity
8
0
100
AcDbSpline
70
0
71
3
72
8
73
4
74
0
42
0.000000001
43
0.0000000001
44
0.0000000001
40
0
40
0
40
0
40
0
40
1
40
1
40
1
40
1
10
-1.6808758733647444
20
13.186029953098712
30
0
10
-1.4991190457419457
20
12.436839036765317
30
0
10
-1.1906094352883478
20
11.462778927154211
30
0
10
-0.66985720745217137
20
10.297777366747605
30
0
0
ARC
5
371
100
AcDbEntity
8
0
100
AcDbCircle
10
3.6723344543077019e-06
20
60.000002605660384
30
0
40
45.849570706041902
210
0
220
0
230
1
100
AcDbArc
50
292.03701328426303
51
292.96298671573692
0
SPLINE
5
372
100
AcDbEntity
8
0
100
AcDbSpline
70
0
71
3
72
8
73
4
74
0
42
0.000000001
43
0.0000000001
44
0.0000000001
40
0
40
0
40
0
40
0
40
1
40
1
40
1
40
1
10
12.055834542000312
20
14.733785500154308
30
0
10
12.059489609004608
20
14.997966462530501
30
0
10
12.054454836041302
20
15.231984165708612
30
0
10
12.044467972214612
20
15.43652715316961
30
0
0
ARC
5
373
100
AcDbEntity
8
0
100
AcDbCircle
10
30.538575156065395
20
25.266468489379108
30
0
40
0.39999999999992164
210
0
220
0
230
1
100
AcDbArc
50
131.32279632643753
51
208.50192452026533
0
ARC
5
374
100
AcDbEntity
8
0
100
AcDbCircle
10
22.043973135939705
20
19.341839885942498
30
0
40
0.40000000000000868
210
0
220
0
230
1
100
AcDbArc
50
118.46565346935546
51
195.64478166312065
0
SPLINE
5
375
100
AcDbEntity
8
0
100
AcDbSpline
70
0
71
3
72
8
73
4
74
0
42
0.000000001
43
0.0000000001
44
0.0000000001
40
0
40
0
40
0
40
0
40
1
40
1
40
1
40
1
10
23.483292985521427
20
19.467193770915607
30
0
10
24.035784488767913
20
18.929536154635205
30
0
10
24.815238264400588
20
18.268912896999012
30
0
10
25.875989976838323
20
17.559534772789711
30
0
0
ARC
5
376
100
AcDbEntity
8
0
100
AcDbCircle
10
7.5442392599711638e-06
20
59.999993258055653
30
0
40
49.706729758572408
210
0
220
0
230
1
100
AcDbArc
50
307.79926783745299
51
309.34358930540299
0
ARC
5
377
100
AcDbEntity
8
0
100
AcDbCircle
10
7.5442391711533219e-06
20
59.999993258055575
30
0
40
49.706729758572394
210
0
220
0
230
1
100
AcDbArc
50
314.22783926602511
51
315.772160733975
0
ARC
5
378
100
AcDbEntity
8
0
100
AcDbCircle
10
26.457634148815092
20
22.065630879188816
30
0
40
0.400000000000026
210
0
220
0
230
1
100
AcDbArc
50
124.89422489791102
51
202.0733530916971
0
SPLINE
5
379
100
AcDbEntity
8
0
100
AcDbSpline
70
0
71
3
72
8
73
4
74
0
42
0.000000001
43
0.0000000001
44
0.0000000001
40
0
40
0
40
0
40
0
40
1
40
1
40
1
40
1
10
0.66987229593030051
20
10.297777366747605
30
0
10
1.1906245237664947
20
11.462778927154211
30
0
10
1.4991341342200926
20
12.436839036765317
30
0
10
1.6808909618428913
20
13.186029953098606
30
0
0
SPLINE
5
380
100
AcDbEntity
8
0
100
AcDbSpline
70
0
71
3
72
8
73
4
74
0
42
0.000000001
43
0.0000000001
44
0.0000000001
40
0
40
0
40
0
40
0
40
1
40
1
40
1
40
1
10
31.324933404732906
20
26.092463738537912
30
0
10
31.492811570099004
20
25.97518418890591
30
0
10
31.688281361713191
20
25.846416200237115
30
0
10
31.913914388420697
20
25.70895828793061
30
0
0
ARC
5
381
100
AcDbEntity
8
0
100
AcDbCircle
10
31.095900475898812
20
25.764524845587307
30
0
40
0.40000000000000879
210
0
220
-0
230
1
100
AcDbArc
50
55.069504051162802
51
132.24863224486714
0
SPLINE
5
382
100
AcDbEntity
8
0
100
AcDbSpline
70
0
71
3
72
8
73
4
74
0
42
0.000000001
43
0.0000000001
44
0.0000000001
40
0
40
0
40
0
40
0
40
1
40
1
40
1
40
1
10
22.994416975826315
20
19.972144537759313
30
0
10
23.131988930169509
20
19.820449025146807
30
0
10
23.293904312900313
20
19.651413398207815
30
0
10
23.483292985521427
20
19.467193770915607
30
0
0
SPLINE
5
383
100
AcDbEntity
8
0
100
AcDbSpline
70
0
71
3
72
8
73
4
74
0
42
0.000000001
43
0.0000000001
44
0.0000000001
40
0
40
0
40
0
40
0
40
1
40
1
40
1
40
1
10
42.934716226062818
20
43.041740733419203
30
0
10
43.136854916174499
20
43.008915116464408
30
0
10
43.368837449436612
20
42.977710331561511
30
0
10
43.631766535033506
20
42.951763533222817
30
0
0
ARC
5
384
100
AcDbEntity
8
0
100
AcDbCircle
10
42.584617832193516
20
41.956356671674115
30
0
40
0.40000000000005204
210
0
220
0
230
1
100
AcDbArc
50
157.03708204080749
51
234.21621023454338
0
SPLINE
5
385
100
AcDbEntity
8
0
100
AcDbSpline
70
0
71
3
72
8
73
4
74
0
42
0.000000001
43
0.0000000001
44
0.0000000001
40
0
40
0
40
0
40
0
40
1
40
1
40
1
40
1
10
-46.813955760717803
20
58.319109840451858
30
0
10
-46.557211695553576
20
58.256760619126979
30
0
10
-46.327940962398593
20
58.209595321946928
30
0
10
-46.126304008415801
20
58.173816697642678
30
0
0
ARC
5
386
100
AcDbEntity
8
0
100
AcDbCircle
10
7.5442391889168903e-06
20
59.999993258055596
30
0
40
49.706729758572422
210
0
220
0
230
1
100
AcDbArc
50
339.94212498031101
51
341.48644644826101
0
SPLINE
5
387
100
AcDbEntity
8
0
100
AcDbSpline
70
0
71
3
72
8
73
4
74
0
42
0.000000001
43
0.0000000001
44
0.0000000001
40
0
40
0
40
0
40
0
40
1
40
1
40
1
40
1
10
4.8992373249503274
20
109.4646931039815
30
0
10
4.251320688449951
20
108.36532257923011
30
0
10
3.8356907918070604
20
107.43192927204682
30
0
10
3.5711940445181867
20
106.70779941892832
30
0
0
SPLINE
5
388
100
AcDbEntity
8
0
100
AcDbSpline
70
0
71
3
72
8
73
4
74
0
42
0.000000001
43
0.0000000001
44
0.0000000001
40
0
40
0
40
0
40
0
40
1
40
1
40
1
40
1
10
43.631766535033506
20
42.951763533222817
30
0
10
44.398945826710218
20
42.875878699913805
30
0
10
45.420239191635318
20
42.845364119170512
30
0
10
46.691858301607127
20
42.952117843698716
30
0
0
ARC
5
389
100
AcDbEntity
8
0
100
AcDbCircle
10
-46.196241086342283
20
57.779978145528872
30
0
40
0.40000000000002722
210
0
220
-0
230
1
100
AcDbArc
50
2.7513677550258855
51
79.930495948840829
0
SPLINE
5
390
100
AcDbEntity
8
0
100
AcDbSpline
70
0
71
3
72
8
73
4
74
0
42
0.000000001
43
0.0000000001
44
0.0000000001
40
0
40
0
40
0
40
0
40
1
40
1
40
1
40
1
10
-46.707798616633497
20
63.571179758334665
30
0
10
-46.459649802163284
20
63.480476361078061
30
0
10
-46.23710151304499
20
63.407937451863468
30
0
10
-46.040738344832505
20
63.349807620123414
30
0
0
SPLINE
5
391
100
AcDbEntity
8
0
100
AcDbSpline
70
0
71
3
72
8
73
4
74
0
42
0.000000001
43
0.0000000001
44
0.0000000001
40
0
40
0
40
0
40
0
40
1
40
1
40
1
40
1
10
-49.702208347068805
20
59.330128506364446
30
0
10
-48.537206786662196
20
58.809376278528269
30
0
10
-47.563146677051087
20
58.500866668074664
30
0
10
-46.813955760717803
20
58.319109840451858
30
0
0
SPLINE
5
392
100
AcDbEntity
8
0
100
AcDbSpline
70
0
71
3
72
8
73
4
74
0
42
0.000000001
43
0.0000000001
44
0.0000000001
40
0
40
0
40
0
40
0
40
1
40
1
40
1
40
1
10
46.813970849196224
20
58.319109840451787
30
0
10
47.563161765529486
20
58.500866668074593
30
0
10
48.537221875140602
20
58.809376278528198
30
0
10
49.702223435547225
20
59.330128506364375
30
0
0
SPLINE
5
393
100
AcDbEntity
8
0
100
AcDbSpline
70
0
71
3
72
8
73
4
74
0
42
0.000000001
43
0.0000000001
44
0.0000000001
40
0
40
0
40
0
40
0
40
1
40
1
40
1
40
1
10
-46.040738344832604
20
56.650178895987963
30
0
10
-46.23710151304499
20
56.592049064247909
30
0
10
-46.459649802163284
20
56.519510155033323
30
0
10
-46.707798616633497
20
56.428806757776719
30
0
0
SPLINE
5
394
100
AcDbEntity
8
0
100
AcDbSpline
70
0
71
3
72
8
73
4
74
0
42
0.000000001
43
0.0000000001
44
0.0000000001
40
0
40
0
40
0
40
0
40
1
40
1
40
1
40
1
10
-46.813955760717803
20
61.680876675659505
30
0
10
-47.563146677051087
20
61.499119848036699
30
0
10
-48.537206786662196
20
61.190610237583094
30
0
10
-49.702208347068805
20
60.669858009746918
30
0
0
ARC
5
395
100
AcDbEntity
8
0
100
AcDbCircle
10
8.1115471850523591e-06
20
59.999983156198283
30
0
40
45.849570706041888
210
0
220
0
230
1
100
AcDbArc
50
92.751298998548094
51
93.677272430022825
0
SPLINE
5
396
100
AcDbEntity
8
0
100
AcDbSpline
70
0
71
3
72
8
73
4
74
0
42
0.000000001
43
0.0000000001
44
0.0000000001
40
0
40
0
40
0
40
0
40
1
40
1
40
1
40
1
10
12.055834542000401
20
105.26620101595691
30
0
10
12.045345399935403
20
106.03705285087891
30
0
10
11.961319534848105
20
107.05534108653431
30
0
10
11.712860887882002
20
108.30701189760802
30
0
0
ARC
5
397
100
AcDbEntity
8
0
100
AcDbCircle
10
46.1543466887275
20
57.033710605659842
30
0
40
0.40000000000000058
210
0
220
0
230
1
100
AcDbArc
50
176.32279632649858
51
253.50192452025854
0
SPLINE
5
398
100
AcDbEntity
8
0
100
AcDbSpline
70
0
71
3
72
8
73
4
74
0
42
0.000000001
43
0.0000000001
44
0.0000000001
40
0
40
0
40
0
40
0
40
1
40
1
40
1
40
1
10
-46.707798616633497
20
56.428806757776719
30
0
10
-47.431928469751995
20
56.164310010487867
30
0
10
-48.365321776935289
20
55.748680113844962
30
0
10
-49.464692301686682
20
55.100763477344586
30
0
0
ARC
5
399
100
AcDbEntity
8
0
100
AcDbCircle
10
-44.337085969838995
20
73.162211663865108
30
0
40
0.39999999999997493
210
0
220
0
230
1
100
AcDbArc
50
-16.53434653065888
51
60.644781663121464
0
ARC
5
400
100
AcDbEntity
8
0
100
AcDbCircle
10
-44.544004847569397
20
72.443980347278611
30
0
40
0.39999999999998825
210
0
220
0
230
1
100
AcDbArc
50
267.21236119401738
51
344.3914893878931
0
ARC
5
401
100
AcDbEntity
8
0
100
AcDbCircle
10
7.5442390112812063e-06
20
59.999993258055568
30
0
40
49.706729758572415
210
0
220
0
230
1
100
AcDbArc
50
102.08498212316799
51
103.62930359111762
0
SPLINE
5
402
100
AcDbEntity
8
0
100
AcDbSpline
70
0
71
3
72
8
73
4
74
0
42
0.000000001
43
0.0000000001
44
0.0000000001
40
0
40
0
40
0
40
0
40
1
40
1
40
1
40
1
10
-44.563458560646794
20
72.044453686031204
30
0
10
-44.768001548107804
20
72.054440549857915
30
0
10
-45.002019251285802
20
72.059475322821214
30
0
10
-45.266200213662096
20
72.055820255816911
30
0
0
SPLINE
5
403
100
AcDbEntity
8
0
100
AcDbSpline
70
0
71
3
72
8
73
4
74
0
42
0.000000001
43
0.0000000001
44
0.0000000001
40
0
40
0
40
0
40
0
40
1
40
1
40
1
40
1
10
45.266215302140495
20
47.944166260294409
30
0
10
46.037067137062508
20
47.954655402359414
30
0
10
47.055355372717912
20
48.038681267446712
30
0
10
48.307026183791621
20
48.287139914412805
30
0
0
ARC
5
404
100
AcDbEntity
8
0
100
AcDbCircle
10
1.1416143852471805e-05
20
59.999983910450148
30
0
40
45.849570706042485
210
0
220
0
230
1
100
AcDbArc
50
112.03701328426219
51
112.96298671573706
0
SPLINE
5
405
100
AcDbEntity
8
0
100
AcDbSpline
70
0
71
3
72
8
73
4
74
0
42
0.000000001
43
0.0000000001
44
0.0000000001
40
0
40
0
40
0
40
0
40
1
40
1
40
1
40
1
10
45.631819629593423
20
53.02079100498144
30
0
10
45.836194667657736
20
53.03376848488999
30
0
10
46.06930463235399
20
53.054967039057537
30
0
10
46.33141524262642
20
53.088178006816655
30
0
0
ARC
5
406
100
AcDbEntity
8
0
100
AcDbCircle
10
-34.235460868229097
20
28.904100326396112
30
0
40
0.39999999999991021
210
0
220
0
230
1
100
AcDbArc
50
-34.930495948837233
51
42.248632244930114
0
ARC
5
407
100
AcDbEntity
8
0
100
AcDbCircle
10
46.1543466887275
20
62.966275910451408
30
0
40
0.40000000000001451
210
0
220
0
230
1
100
AcDbArc
50
106.49807547974147
51
183.67720367352644
0
SPLINE
5
408
100
AcDbEntity
8
0
100
AcDbSpline
70
0
71
3
72
8
73
4
74
0
42
0.000000001
43
0.0000000001
44
0.0000000001
40
0
40
0
40
0
40
0
40
1
40
1
40
1
40
1
10
44.742087731877916
20
46.124879209358809
30
0
10
44.520343930946623
20
46.268526789030005
30
0
10
44.319516817903505
20
46.388768649487503
30
0
10
44.141011988738214
20
46.489135960566614
30
0
0
SPLINE
5
409
100
AcDbEntity
8
0
100
AcDbSpline
70
0
71
3
72
8
73
4
74
0
42
0.000000001
43
0.0000000001
44
0.0000000001
40
0
40
0
40
0
40
0
40
1
40
1
40
1
40
1
10
-13.875106504457797
20
15.257913070417013
30
0
10
-13.731458924786484
20
15.479656871348313
30
0
10
-13.611217064328986
20
15.680483984391396
30
0
10
-13.510849753249889
20
15.858988813556616
30
0
0
SPLINE
5
410
100
AcDbEntity
8
0
100
AcDbSpline
70
0
71
3
72
8
73
4
74
0
42
0.000000001
43
0.0000000001
44
0.0000000001
40
0
40
0
40
0
40
0
40
1
40
1
40
1
40
1
10
-49.314690189720395
20
53.769457911879215
30
0
10
-48.098708164230395
20
53.382418854119749
30
0
10
-47.096230623232515
20
53.184909217208336
30
0
10
-46.331400154148014
20
53.088178006816705
30
0
0
SPLINE
5
411
100
AcDbEntity
8
0
100
AcDbSpline
70
0
71
3
72
8
73
4
74
0
42
0.000000001
43
0.0000000001
44
0.0000000001
40
0
40
0
40
0
40
0
40
1
40
1
40
1
40
1
10
-8.7783391316310677
20
13.985722004240602
30
0
10
-8.6604222062905656
20
14.222154952695512
30
0
10
-8.5634219039128823
20
14.435182123915906
30
0
10
-8.4836718810988465
20
14.623802125585215
30
0
0
SPLINE
5
412
100
AcDbEntity
8
0
100
AcDbSpline
70
0
71
3
72
8
73
4
74
0
42
0.000000001
43
0.0000000001
44
0.0000000001
40
0
40
0
40
0
40
0
40
1
40
1
40
1
40
1
10
-47.134327816779503
20
75.78332032704752
30
0
10
-46.206695821449287
20
74.907015357424612
30
0
10
-45.389190986013702
20
74.294106619587211
30
0
10
-44.74207264339951
20
73.875107306752412
30
0
0
SPLINE
5
413
100
AcDbEntity
8
0
100
AcDbSpline
70
0
71
3
72
8
73
4
74
0
42
0.000000001
43
0.0000000001
44
0.0000000001
40
0
40
0
40
0
40
0
40
1
40
1
40
1
40
1
10
46.33141524262642
20
53.088178006816655
30
0
10
47.096245711710921
20
53.184909217208286
30
0
10
48.098723252708723
20
53.382418854119692
30
0
10
49.314705278198815
20
53.769457911879151
30
0
0
ARC
5
414
100
AcDbEntity
8
0
100
AcDbCircle
10
7.5442393310254374e-06
20
59.999993258055582
30
0
40
49.706729758572443
210
0
220
0
230
1
100
AcDbArc
50
256.37069640888188
51
257.91501787683171
0
ARC
5
415
100
AcDbEntity
8
0
100
AcDbCircle
10
-2.5576162343554643e-06
20
59.999993825364058
30
0
40
45.849570706040019
210
0
220
0
230
1
100
AcDbArc
50
356.32272756997628
51
357.24870100145108
0
ARC
5
416
100
AcDbEntity
8
0
100
AcDbCircle
10
1.4286182974387884e-05
20
59.999985713817274
30
0
40
45.849570706040822
210
0
220
0
230
1
100
AcDbArc
50
131.32272756997699
51
132.24870100145199
0
ARC
5
417
100
AcDbEntity
8
0
100
AcDbCircle
10
-45.532004520042605
20
68.115270949942925
30
0
40
0.40000000000000946
210
0
220
0
230
1
100
AcDbArc
50
-10.105775102074526
51
67.073353091692056
0
ARC
5
418
100
AcDbEntity
8
0
100
AcDbCircle
10
34.733532312915699
20
90.538560869881906
30
0
40
0.4000000000000129
210
0
220
0
230
1
100
AcDbArc
50
221.32279632650116
51
298.50192452026437
0
ARC
5
419
100
AcDbEntity
8
0
100
AcDbCircle
10
37.501845878181101
20
87.06720545682542
30
0
40
0.39999999999994368
210
0
220
0
230
1
100
AcDbArc
50
138.64093262259118
51
215.8200608163443
0
ARC
5
420
100
AcDbEntity
8
0
100
AcDbCircle
10
7.5442391889168903e-06
20
59.999993258055689
30
0
40
49.706729758572415
210
0
220
0
230
1
100
AcDbArc
50
198.51355355173934
51
200.05787501968913
0
ARC
5
421
100
AcDbEntity
8
0
100
AcDbCircle
10
1.6399551103774002e-05
20
59.99998836389782
30
0
40
45.849570706040417
210
0
220
0
230
1
100
AcDbArc
50
150.60844185569098
51
151.53441528716613
0
ARC
5
422
100
AcDbEntity
8
0
100
AcDbCircle
10
7.5442391711533219e-06
20
59.999993258055653
30
0
40
49.706729758572479
210
0
220
-0
230
1
100
AcDbArc
50
31.370696408882168
51
32.91501787683189
0
ARC
5
423
100
AcDbEntity
8
0
100
AcDbCircle
10
7.5442393843161426e-06
20
59.999993258055596
30
0
40
49.706729758572479
210
0
220
-0
230
1
100
AcDbArc
50
82.799267837453826
51
84.343589305403569
0
ARC
5
424
100
AcDbEntity
8
0
100
AcDbCircle
10
-7.3783873550874191
20
105.65720674451292
30
0
40
0.39999999999999913
210
0
220
0
230
1
100
AcDbArc
50
279.17993918363521
51
356.35906737741396
0
ARC
5
425
100
AcDbEntity
8
0
100
AcDbCircle
10
-22.698138023478887
20
100.29659413734851
30
0
40
0.40000000000002872
210
0
220
0
230
1
100
AcDbArc
50
222.21236119401928
51
299.39148938778635
0
SPLINE
5
426
100
AcDbEntity
8
0
100
AcDbSpline
70
0
71
3
72
8
73
4
74
0
42
0.000000001
43
0.0000000001
44
0.0000000001
40
0
40
0
40
0
40
0
40
1
40
1
40
1
40
1
10
-13.510849753249801
20
104.14099770255461
30
0
10
-13.611217064328898
20
104.31950253171991
30
0
10
-13.731458924786395
20
104.52032964476302
30
0
10
-13.875106504457602
20
104.74207344569433
30
0
0
SPLINE
5
427
100
AcDbEntity
8
0
100
AcDbSpline
70
0
71
3
72
8
73
4
74
0
42
0.000000001
43
0.0000000001
44
0.0000000001
40
0
40
0
40
0
40
0
40
1
40
1
40
1
40
1
10
-46.014263709575886
20
68.778339933925778
30
0
10
-45.777830761120896
20
68.660423008585298
30
0
10
-45.564803589900592
20
68.563422706207604
30
0
10
-45.376183588231186
20
68.483672683393578
30
0
0
SPLINE
5
428
100
AcDbEntity
8
0
100
AcDbSpline
70
0
71
3
72
8
73
4
74
0
42
0.000000001
43
0.0000000001
44
0.0000000001
40
0
40
0
40
0
40
0
40
1
40
1
40
1
40
1
10
-18.797386267593392
20
17.092761754912608
30
0
10
-18.629814485251988
20
17.29702785136471
30
0
10
-18.487843177875902
20
17.483129388761405
30
0
10
-18.368120755703092
20
17.649274243625008
30
0
0
ARC
5
429
100
AcDbEntity
8
0
100
AcDbCircle
10
-22.043958047461487
20
19.341839885942605
30
0
40
0.40000000000000036
210
0
220
0
230
1
100
AcDbArc
50
-15.644781663122338
51
61.53434653068976
0
SPLINE
5
430
100
AcDbEntity
8
0
100
AcDbSpline
70
0
71
3
72
8
73
4
74
0
42
0.000000001
43
0.0000000001
44
0.0000000001
40
0
40
0
40
0
40
0
40
1
40
1
40
1
40
1
10
42.907239047382305
20
78.797387069888018
30
0
10
43.503375407134811
20
79.28620606919651
30
0
10
44.247115938022702
20
79.986792466147222
30
0
10
45.070800151239524
20
80.961449244425523
30
0
0
ARC
5
431
100
AcDbEntity
8
0
100
AcDbCircle
10
1.0345198404593248e-05
20
60.000002980400268
30
0
40
45.849570706041796
210
0
220
0
230
1
100
AcDbArc
50
253.46558471283402
51
254.39155814430899
0
SPLINE
5
432
100
AcDbEntity
8
0
100
AcDbSpline
70
0
71
3
72
8
73
4
74
0
42
0.000000001
43
0.0000000001
44
0.0000000001
40
0
40
0
40
0
40
0
40
1
40
1
40
1
40
1
10
37.201612548044608
20
87.331515781018609
30
0
10
37.336951059319134
20
87.485207220385206
30
0
10
37.486795054714804
20
87.665030498587299
30
0
10
37.648651544147128
20
87.873854389044112
30
0
0
ARC
5
433
100
AcDbEntity
8
0
100
AcDbCircle
10
7.5442392244440271e-06
20
59.999993258055483
30
0
40
49.706729758572408
210
0
220
0
230
1
100
AcDbArc
50
192.08498212316792
51
193.62930359111692
0
SPLINE
5
434
100
AcDbEntity
8
0
100
AcDbSpline
70
0
71
3
72
8
73
4
74
0
42
0.000000001
43
0.0000000001
44
0.0000000001
40
0
40
0
40
0
40
0
40
1
40
1
40
1
40
1
10
-38.084672161016698
20
86.086938461173119
30
0
10
-38.274438425196081
20
86.163921161489412
30
0
10
-38.4936609541314
20
86.245964547247809
30
0
10
-38.74422415280479
20
86.329768030871321
30
0
0
ARC
5
435
100
AcDbEntity
8
0
100
AcDbCircle
10
34.235475956707418
20
91.095886189715216
30
0
40
0.39999999999999269
210
0
220
0
230
1
100
AcDbArc
50
145.06950405115427
51
222.24863224492762
0
ARC
5
436
100
AcDbEntity
8
0
100
AcDbCircle
10
44.337101058317415
20
46.837774852246206
30
0
40
0.40000000000002034
210
0
220
0
230
1
100
AcDbArc
50
163.46565346935478
51
240.64478166313012
0
SPLINE
5
437
100
AcDbEntity
8
0
100
AcDbSpline
70
0
71
3
72
8
73
4
74
0
42
0.000000001
43
0.0000000001
44
0.0000000001
40
0
40
0
40
0
40
0
40
1
40
1
40
1
40
1
10
-34.9243925359443
20
90.187040435970715
30
0
10
-35.104346261975188
20
90.284786165576421
30
0
10
-35.313004420957697
20
90.390858815347912
30
0
10
-35.552609117689791
20
90.502189537526405
30
0
0
SPLINE
5
438
100
AcDbEntity
8
0
100
AcDbSpline
70
0
71
3
72
8
73
4
74
0
42
0.000000001
43
0.0000000001
44
0.0000000001
40
0
40
0
40
0
40
0
40
1
40
1
40
1
40
1
10
-42.934701137584398
20
76.958245782692018
30
0
10
-43.136839827696093
20
76.991071399646813
30
0
10
-43.368822360958191
20
77.02227618454971
30
0
10
-43.631751446555086
20
77.048222982888518
30
0
0
SPLINE
5
439
100
AcDbEntity
8
0
100
AcDbSpline
70
0
71
3
72
8
73
4
74
0
42
0.000000001
43
0.0000000001
44
0.0000000001
40
0
40
0
40
0
40
0
40
1
40
1
40
1
40
1
10
42.907239047382305
20
41.202599446223203
30
0
10
42.702972950930217
20
41.370171228564502
30
0
10
42.516871413533423
20
41.512142535940612
30
0
10
42.350726558669805
20
41.631864958113511
30
0
0
ARC
5
440
100
AcDbEntity
8
0
100
AcDbCircle
10
7.3784024435658324
20
105.65720674451292
30
0
40
0.40000000000001196
210
0
220
0
230
1
100
AcDbArc
50
183.64093262258595
51
260.82006081635978
0
ARC
5
441
100
AcDbEntity
8
0
100
AcDbCircle
10
-14.197126770031847
20
96.324099821289082
30
0
40
1.9999999999999885
210
0
220
0
230
1
100
AcDbArc
50
111.34785616399343
51
242.11014043804909
0
SPLINE
5
442
100
AcDbEntity
8
0
100
AcDbSpline
70
0
71
3
72
8
73
4
74
0
42
0.000000001
43
0.0000000001
44
0.0000000001
40
0
40
0
40
0
40
0
40
1
40
1
40
1
40
1
10
34.67111553258222
20
95.618433063196008
30
0
10
33.479107597504822
20
95.162879991360612
30
0
10
32.572193851102526
20
94.692264720184212
30
0
10
31.913914388420803
20
94.291028228180608
30
0
0
SPLINE
5
443
100
AcDbEntity
8
0
100
AcDbSpline
70
0
71
3
72
8
73
4
74
0
42
0.000000001
43
0.0000000001
44
0.0000000001
40
0
40
0
40
0
40
0
40
1
40
1
40
1
40
1
10
-31.51253854564029
20
98.4410965489989
30
0
10
-31.193312439864993
20
97.205577948597607
30
0
10
-30.827198421221595
20
96.251674493194116
30
0
10
-30.502188735231588
20
95.552609919984604
30
0
0
ARC
5
444
100
AcDbEntity
8
0
100
AcDbCircle
10
-27.067204654530599
20
97.501831591997501
30
0
40
0.39999999999999375
210
0
220
0
230
1
100
AcDbArc
50
228.64093262258967
51
305.82006081640139
0
ARC
5
445
100
AcDbEntity
8
0
100
AcDbCircle
10
44.544019936047818
20
72.443980347278611
30
0
40
0.39999999999993435
210
0
220
0
230
1
100
AcDbArc
50
195.60851061222175
51
272.78763880597847
0
SPLINE
5
446
100
AcDbEntity
8
0
100
AcDbSpline
70
0
71
3
72
8
73
4
74
0
42
0.000000001
43
0.0000000001
44
0.0000000001
40
0
40
0
40
0
40
0
40
1
40
1
40
1
40
1
10
49.314705278198815
20
66.230528604232106
30
0
10
48.098723252708723
20
66.617567661991558
30
0
10
47.096245711710921
20
66.815077298902978
30
0
10
46.33141524262642
20
66.911808509294602
30
0
0
ARC
5
447
100
AcDbEntity
8
0
100
AcDbCircle
10
7.5442391711533219e-06
20
59.999993258055653
30
0
40
49.706729758572394
210
0
220
0
230
1
100
AcDbArc
50
204.94212498031064
51
206.48644644826058
0
ARC
5
448
100
AcDbEntity
8
0
100
AcDbCircle
10
-40.658145827873909
20
37.956027666355105
30
0
40
0.40000000000004138
210
0
220
-0
230
1
100
AcDbArc
50
28.465653469351633
51
105.64478166311588
0
ARC
5
449
100
AcDbEntity
8
0
100
AcDbCircle
10
-1.803365972108395e-06
20
59.99999712995988
30
0
40
45.849570706042101
210
0
220
0
230
1
100
AcDbArc
50
337.03701328426308
51
337.96298671573817
0
SPLINE
5
450
100
AcDbEntity
8
0
100
AcDbSpline
70
0
71
3
72
8
73
4
74
0
42
0.000000001
43
0.0000000001
44
0.0000000001
40
0
40
0
40
0
40
0
40
1
40
1
40
1
40
1
10
-42.350711470191499
20
41.63186495811361
30
0
10
-42.516856325055095
20
41.512142535940811
30
0
10
-42.702957862451797
20
41.370171228564708
30
0
10
-42.907223958903998
20
41.202599446223317
30
0
0
SPLINE
5
451
100
AcDbEntity
8
0
100
AcDbSpline
70
0
71
3
72
8
73
4
74
0
42
0.000000001
43
0.0000000001
44
0.0000000001
40
0
40
0
40
0
40
0
40
1
40
1
40
1
40
1
10
-11.712845799403588
20
108.30701189760802
30
0
10
-11.961304446369692
20
107.05534108653431
30
0
10
-12.04533031145699
20
106.03705285087891
30
0
10
-12.055819453521988
20
105.26620101595691
30
0
0
SPLINE
5
452
100
AcDbEntity
8
0
100
AcDbSpline
70
0
71
3
72
8
73
4
74
0
42
0.000000001
43
0.0000000001
44
0.0000000001
40
0
40
0
40
0
40
0
40
1
40
1
40
1
40
1
10
-35.552609117689791
20
90.502189537526405
30
0
10
-36.251673690899295
20
90.827199223516416
30
0
10
-37.205577146302801
20
91.193313242159704
30
0
10
-38.441095746704086
20
91.512539347935103
30
0
0
SPLINE
5
453
100
AcDbEntity
8
0
100
AcDbSpline
70
0
71
3
72
8
73
4
74
0
42
0.000000001
43
0.0000000001
44
0.0000000001
40
0
40
0
40
0
40
0
40
1
40
1
40
1
40
1
10
-34.671100444103899
20
24.381553452915309
30
0
10
-33.479092509026493
20
24.837106524750716
30
0
10
-32.572178762624198
20
25.307721795927204
30
0
10
-31.913899299942496
20
25.708958287930805
30
0
0
SPLINE
5
454
100
AcDbEntity
8
0
100
AcDbSpline
70
0
71
3
72
8
73
4
74
0
42
0.000000001
43
0.0000000001
44
0.0000000001
40
0
40
0
40
0
40
0
40
1
40
1
40
1
40
1
10
-16.958244980397286
20
17.065284576232109
30
0
10
-16.991070597352103
20
16.863145886120307
30
0
10
-17.022275382254985
20
16.631163352858316
30
0
10
-17.048222180593786
20
16.368234267261403
30
0
0
SPLINE
5
455
100
AcDbEntity
8
0
100
AcDbSpline
70
0
71
3
72
8
73
4
74
0
42
0.000000001
43
0.0000000001
44
0.0000000001
40
0
40
0
40
0
40
0
40
1
40
1
40
1
40
1
10
-31.913899299942496
20
25.708958287930805
30
0
10
-31.688266273234991
20
25.846416200237211
30
0
10
-31.492796481620804
20
25.975184188906113
30
0
10
-31.324918316254688
20
26.092463738538004
30
0
0
ARC
5
456
100
AcDbEntity
8
0
100
AcDbCircle
10
1.7646095304968412e-05
20
59.999993825363248
30
0
40
45.849570706040623
210
0
220
0
230
1
100
AcDbArc
50
182.75129899854792
51
183.6772724300225
0
SPLINE
5
457
100
AcDbEntity
8
0
100
AcDbSpline
70
0
71
3
72
8
73
4
74
0
42
0.000000001
43
0.0000000001
44
0.0000000001
40
0
40
0
40
0
40
0
40
1
40
1
40
1
40
1
10
-43.631751446555086
20
77.048222982888518
30
0
10
-44.398930738231797
20
77.124107816197409
30
0
10
-45.420224103156798
20
77.154622396940709
30
0
10
-46.691843213128692
20
77.047868672412605
30
0
0
ARC
5
458
100
AcDbEntity
8
0
100
AcDbCircle
10
35.664811824929018
20
50.149996326663484
30
0
40
4.0000000000000391
210
0
220
0
230
1
100
AcDbArc
50
293.48156000479264
51
344.56078124615317
0
ARC
5
459
100
AcDbEntity
8
0
100
AcDbCircle
10
30.538575156065502
20
94.733518026732099
30
0
40
0.40000000000000613
210
0
220
0
230
1
100
AcDbArc
50
151.49807547973333
51
228.6772036735766
0
ARC
5
460
100
AcDbEntity
8
0
100
AcDbCircle
10
1.2438397529734857e-05
20
59.999984402742029
30
0
40
45.849570706042051
210
0
220
0
230
1
100
AcDbArc
50
118.46558471283346
51
119.39155814430836
0
ARC
5
461
100
AcDbEntity
8
0
100
AcDbCircle
10
1.14161437991811e-05
20
60.000002605660676
30
0
40
45.849570706042144
210
0
220
0
230
1
100
AcDbArc
50
247.03701328426251
51
247.96298671573746
0
ARC
5
462
100
AcDbEntity
8
0
100
AcDbCircle
10
7.5442392066804587e-06
20
59.999993258055618
30
0
40
49.706729758572394
210
0
220
-0
230
1
100
AcDbArc
50
18.513553551739328
51
20.05787501968917
0
SPLINE
5
463
100
AcDbEntity
8
0
100
AcDbSpline
70
0
71
3
72
8
73
4
74
0
42
0.000000001
43
0.0000000001
44
0.0000000001
40
0
40
0
40
0
40
0
40
1
40
1
40
1
40
1
10
46.014278798054292
20
68.778339933925722
30
0
10
46.704241234905112
20
69.122250400818899
30
0
10
47.585229777255321
20
69.639773796546706
30
0
10
48.605144044133098
20
70.406706914077319
30
0
0
ARC
5
464
100
AcDbEntity
8
0
100
AcDbCircle
10
46.196256174820704
20
62.220008370582406
30
0
40
0.40000000000007674
210
0
220
0
230
1
100
AcDbArc
50
182.75136775506735
51
259.93049594883882
0
SPLINE
5
465
100
AcDbEntity
8
0
100
AcDbSpline
70
0
71
3
72
8
73
4
74
0
42
0.000000001
43
0.0000000001
44
0.0000000001
40
0
40
0
40
0
40
0
40
1
40
1
40
1
40
1
10
-34.291027425885794
20
28.086086413874106
30
0
10
-34.692263917889491
20
27.427806951192405
30
0
10
-35.162879189065904
20
26.520893204790109
30
0
10
-35.618432260901294
20
25.328885269712703
30
0
0
ARC
5
466
100
AcDbEntity
8
0
100
AcDbCircle
10
1.7519059802850734e-05
20
59.999991563265738
30
0
40
45.849570706041803
210
0
220
0
230
1
100
AcDbArc
50
169.89415614140572
51
170.82012957288097
0
ARC
5
467
100
AcDbEntity
8
0
100
AcDbCircle
10
12.443994633462108
20
104.54400564986422
30
0
40
0.39999999999999636
210
0
220
0
230
1
100
AcDbArc
50
177.21236119402147
51
254.39148938778939
0
ARC
5
468
100
AcDbEntity
8
0
100
AcDbCircle
10
7.5442392244440271e-06
20
59.999993258055582
30
0
40
49.706729758572493
210
0
220
-0
230
1
100
AcDbArc
50
24.94212498031084
51
26.486446448260651
0
SPLINE
5
469
100
AcDbEntity
8
0
100
AcDbSpline
70
0
71
3
72
8
73
4
74
0
42
0.000000001
43
0.0000000001
44
0.0000000001
40
0
40
0
40
0
40
0
40
1
40
1
40
1
40
1
10
1.826184104652171
20
106.12630481071062
30
0
10
1.7904054803479319
20
106.32794176469341
30
0
10
1.7432401831678845
20
106.5572124978484
30
0
10
1.6808909618430157
20
106.81395656301262
30
0
0
SPLINE
5
470
100
AcDbEntity
8
0
100
AcDbSpline
70
0
71
3
72
8
73
4
74
0
42
0.000000001
43
0.0000000001
44
0.0000000001
40
0
40
0
40
0
40
0
40
1
40
1
40
1
40
1
10
-26.329767228576699
20
21.25576156101171
30
0
10
-26.574462923176689
20
20.524703019889309
30
0
10
-26.831471593078291
20
19.535805744904007
30
0
10
-27.01035627929409
20
18.27231384244331
30
0
0
ARC
5
471
100
AcDbEntity
8
0
100
AcDbCircle
10
-9.8650321786714024
20
22.268292126415361
30
0
40
1.9999999999999853
210
0
220
0
230
1
100
AcDbArc
50
-104.65214383600707
51
26.110140438049353
0
ARC
5
472
100
AcDbEntity
8
0
100
AcDbCircle
10
-42.870636952055804
20
42.646904336752911
30
0
40
0.39999999999999197
210
0
220
-0
230
1
100
AcDbArc
50
22.037082040784544
51
99.216210234547532
0
SPLINE
5
473
100
AcDbEntity
8
0
100
AcDbSpline
70
0
71
3
72
8
73
4
74
0
42
0.000000001
43
0.0000000001
44
0.0000000001
40
0
40
0
40
0
40
0
40
1
40
1
40
1
40
1
10
-3.5711789560397911
20
106.70779941892832
30
0
10
-3.835675703328647
20
107.43192927204682
30
0
10
-4.2513055999715554
20
108.36532257923011
30
0
10
-4.8992222364719318
20
109.4646931039815
30
0
0
SPLINE
5
474
100
AcDbEntity
8
0
100
AcDbSpline
70
0
71
3
72
8
73
4
74
0
42
0.000000001
43
0.0000000001
44
0.0000000001
40
0
40
0
40
0
40
0
40
1
40
1
40
1
40
1
10
-26.086937658878497
20
21.915313552799706
30
0
10
-26.163920359194694
20
21.725547288620405
30
0
10
-26.245963744953205
20
21.506324759685111
30
0
10
-26.329767228576699
20
21.25576156101171
30
0
0
SPLINE
5
475
100
AcDbEntity
8
0
100
AcDbSpline
70
0
71
3
72
8
73
4
74
0
42
0.000000001
43
0.0000000001
44
0.0000000001
40
0
40
0
40
0
40
0
40
1
40
1
40
1
40
1
10
46.707813705111917
20
56.428806757776655
30
0
10
46.459664890641704
20
56.519510155033259
30
0
10
46.237116601523397
20
56.592049064247846
30
0
10
46.040753433310911
20
56.650178895987906
30
0
0
ARC
5
476
100
AcDbEntity
8
0
100
AcDbCircle
10
7.5442392066804587e-06
20
59.999993258055461
30
0
40
49.706729758572465
210
0
220
0
230
1
100
AcDbArc
50
352.7992678374539
51
354.34358930540395
0
ARC
5
477
100
AcDbEntity
8
0
100
AcDbCircle
10
-2.4305838230986865e-06
20
59.999994952846407
30
0
40
45.849570706044354
210
0
220
0
230
1
100
AcDbArc
50
349.89415614140518
51
350.82012957287992
0
ARC
5
478
100
AcDbEntity
8
0
100
AcDbCircle
10
-45.532004520042605
20
51.884715566168452
30
0
40
0.40000000000000535
210
0
220
0
230
1
100
AcDbArc
50
-67.073353091691629
51
10.105775102108405
0
ARC
5
479
100
AcDbEntity
8
0
100
AcDbCircle
10
-45.657205942218098
20
52.621598358729081
30
0
40
0.39999999999998564
210
0
220
-0
230
1
100
AcDbArc
50
9.1799391836870434
51
86.359067377413979
0
ARC
5
480
100
AcDbEntity
8
0
100
AcDbCircle
10
6.9769311927814215e-06
20
59.999983156197075
30
0
40
45.849570706043082
210
0
220
-0
230
1
100
AcDbArc
50
86.322727569977076
51
87.24870100145219
0
ARC
5
481
100
AcDbEntity
8
0
100
AcDbCircle
10
-34.733517224437392
20
29.461425646229408
30
0
40
0.39999999999999825
210
0
220
-0
230
1
100
AcDbArc
50
41.3227963264981
51
118.50192452026393
0
ARC
5
482
100
AcDbEntity
8
0
100
AcDbCircle
10
1.6891841934096874e-05
20
59.999997129959119
30
0
40
45.849570706039593
210
0
220
0
230
1
100
AcDbArc
50
202.03701328426195
51
202.962986715737
0
ARC
5
483
100
AcDbEntity
8
0
100
AcDbCircle
10
1.0345198919736731e-05
20
59.999983535711237
30
0
40
45.849570706041632
210
0
220
0
230
1
100
AcDbArc
50
105.60844185569185
51
106.53441528716671
0
ARC
5
484
100
AcDbEntity
8
0
100
AcDbCircle
10
17.472195443116245
20
35.666661688715998
30
0
40
28.444052308676216
210
0
220
0
230
1
100
AcDbArc
50
148.58008747287428
51
206.11014043804906
0
ARC
5
485
100
AcDbEntity
8
0
100
AcDbCircle
10
-31.095885387420488
20
25.764524845587506
30
0
40
0.39999999999999003
210
0
220
-0
230
1
100
AcDbArc
50
47.751367755077609
51
124.93049594884808
0
ARC
5
486
100
AcDbEntity
8
0
100
AcDbCircle
10
-10.677514422554548
20
65.476331843967486
30
0
40
2.0000000000000369
210
0
220
0
230
1
100
AcDbArc
50
256.58008747287528
51
332.84739563548925
0
SPLINE
5
487
100
AcDbEntity
8
0
100
AcDbSpline
70
0
71
3
72
8
73
4
74
0
42
0.000000001
43
0.0000000001
44
0.0000000001
40
0
40
0
40
0
40
0
40
1
40
1
40
1
40
1
10
-10.406706111782693
20
11.394856758161716
30
0
10
-9.6397729942520805
20
12.414771025039508
30
0
10
-9.1222495985242347
20
13.295759567389709
30
0
10
-8.7783391316310677
20
13.985722004240602
30
0
0
SPLINE
5
488
100
AcDbEntity
8
0
100
AcDbSpline
70
0
71
3
72
8
73
4
74
0
42
0.000000001
43
0.0000000001
44
0.0000000001
40
0
40
0
40
0
40
0
40
1
40
1
40
1
40
1
10
10.406721200260911
20
108.6051297579495
30
0
10
9.6397880827303162
20
107.58521549107172
30
0
10
9.1222646870024704
20
106.70422694872151
30
0
10
8.7783542201093034
20
106.01426451187069
30
0
0
SPLINE
5
489
100
AcDbEntity
8
0
100
AcDbSpline
70
0
71
3
72
8
73
4
74
0
42
0.000000001
43
0.0000000001
44
0.0000000001
40
0
40
0
40
0
40
0
40
1
40
1
40
1
40
1
10
-46.691843213128692
20
42.952117843698815
30
0
10
-45.420224103156897
20
42.845364119170611
30
0
10
-44.398930738231797
20
42.875878699913912
30
0
10
-43.631751446555086
20
42.951763533222909
30
0
0
ARC
5
490
100
AcDbEntity
8
0
100
AcDbCircle
10
44.337101058317415
20
73.162211663865008
30
0
40
0.4000000000000154
210
0
220
0
230
1
100
AcDbArc
50
119.35521833686936
51
196.53434653062766
0
ARC
5
491
100
AcDbEntity
8
0
100
AcDbCircle
10
7.5442392422075955e-06
20
59.999993258055575
30
0
40
49.706729758572408
210
0
220
0
230
1
100
AcDbArc
50
230.65641069459599
51
232.20073216254613
0
ARC
5
492
100
AcDbEntity
8
0
100
AcDbCircle
10
-44.544004847569397
20
47.55600616883271
30
0
40
0.39999999999994995
210
0
220
-0
230
1
100
AcDbArc
50
15.608510612257305
51
92.787638805982709
0
SPLINE
5
493
100
AcDbEntity
8
0
100
AcDbSpline
70
0
71
3
72
8
73
4
74
0
42
0.000000001
43
0.0000000001
44
0.0000000001
40
0
40
0
40
0
40
0
40
1
40
1
40
1
40
1
10
45.266215302140495
20
72.055820255816812
30
0
10
45.002034339764222
20
72.059475322821115
30
0
10
44.768016636586211
20
72.054440549857816
30
0
10
44.563473649125228
20
72.044453686031119
30
0
0
SPLINE
5
494
100
AcDbEntity
8
0
100
AcDbSpline
70
0
71
3
72
8
73
4
74
0
42
0.000000001
43
0.0000000001
44
0.0000000001
40
0
40
0
40
0
40
0
40
1
40
1
40
1
40
1
10
-35.552609117689897
20
29.497796978584905
30
0
10
-35.313004420957782
20
29.609127700763409
30
0
10
-35.104346261975294
20
29.715200350534907
30
0
10
-34.924392535944392
20
29.812946080140605
30
0
0
ARC
5
495
100
AcDbEntity
8
0
100
AcDbCircle
10
7.5442392244440271e-06
20
59.999993258055667
30
0
40
49.706729758572408
210
0
220
0
230
1
100
AcDbArc
50
159.94212498031101
51
161.48644644826075
0
ARC
5
496
100
AcDbEntity
8
0
100
AcDbCircle
10
40.296608423532106
20
82.698138825773697
30
0
40
0.39999999999998925
210
0
220
0
230
1
100
AcDbArc
50
132.21236119402337
51
209.39148938781162
0
ARC
5
497
100
AcDbEntity
8
0
100
AcDbCircle
10
-44.337085969839087
20
46.837774852246312
30
0
40
0.40000000000001057
210
0
220
0
230
1
100
AcDbArc
50
-60.644781663121471
51
16.534346530670458
0
ARC
5
498
100
AcDbEntity
8
0
100
AcDbCircle
10
5.8494492805039044e-06
20
59.999983283235522
30
0
40
45.849570706041305
210
0
220
-0
230
1
100
AcDbArc
50
79.894156141405617
51
80.820129572880518
0
ARC
5
499
100
AcDbEntity
8
0
100
AcDbCircle
10
-42.584602743715095
20
41.956356671674214
30
0
40
0.40000000000000946
210
0
220
0
230
1
100
AcDbArc
50
-54.216210234550807
51
22.962917959214487
0
ARC
5
500
100
AcDbEntity
8
0
100
AcDbCircle
10
9.2390291150934445e-06
20
59.999983283235636
30
0
40
45.84957070604122
210
0
220
0
230
1
100
AcDbArc
50
99.179870427119511
51
100.10584385859401
0
SPLINE
5
501
100
AcDbEntity
8
0
100
AcDbSpline
70
0
71
3
72
8
73
4
74
0
42
0.000000001
43
0.0000000001
44
0.0000000001
40
0
40
0
40
0
40
0
40
1
40
1
40
1
40
1
10
6.9792097973134126
20
105.63180534340984
30
0
10
6.9662323174048524
20
105.83618038147412
30
0
10
6.9450337632373049
20
106.0692903461704
30
0
10
6.9118227954781908
20
106.33140095644282
30
0
0
SPLINE
5
502
100
AcDbEntity
8
0
100
AcDbSpline
70
0
71
3
72
8
73
4
74
0
42
0.000000001
43
0.0000000001
44
0.0000000001
40
0
40
0
40
0
40
0
40
1
40
1
40
1
40
1
10
-12.055819453521988
20
105.26620101595691
30
0
10
-12.059474520526301
20
105.00202005358062
30
0
10
-12.054439747562995
20
104.76800235040261
30
0
10
-12.044452883736287
20
104.56345936294161
30
0
0
ARC
5
503
100
AcDbEntity
8
0
100
AcDbCircle
10
-2.1781053938241257e-06
20
59.999996059014947
30
0
40
45.849570706041703
210
0
220
0
230
1
100
AcDbArc
50
343.46558471283379
51
344.3915581443087
0
SPLINE
5
504
100
AcDbEntity
8
0
100
AcDbSpline
70
0
71
3
72
8
73
4
74
0
42
0.000000001
43
0.0000000001
44
0.0000000001
40
0
40
0
40
0
40
0
40
1
40
1
40
1
40
1
10
-6.911807706999813
20
106.33140095644282
30
0
10
-6.9450186747589093
20
106.0692903461704
30
0
10
-6.9662172289264568
20
105.83618038147412
30
0
10
-6.979194708835017
20
105.63180534340984
30
0
0
SPLINE
5
505
100
AcDbEntity
8
0
100
AcDbSpline
70
0
71
3
72
8
73
4
74
0
42
0.000000001
43
0.0000000001
44
0.0000000001
40
0
40
0
40
0
40
0
40
1
40
1
40
1
40
1
10
-46.126304008415801
20
61.826169818468671
30
0
10
-46.327940962398593
20
61.790391194164435
30
0
10
-46.557211695553576
20
61.74322589698437
30
0
10
-46.813955760717803
20
61.680876675659505
30
0
0
SPLINE
5
506
100
AcDbEntity
8
0
100
AcDbSpline
70
0
71
3
72
8
73
4
74
0
42
0.000000001
43
0.0000000001
44
0.0000000001
40
0
40
0
40
0
40
0
40
1
40
1
40
1
40
1
10
-8.4836718810986866
20
105.37618439052611
30
0
10
-8.5634219039127224
20
105.56480439219541
30
0
10
-8.6604222062904235
20
105.7778315634157
30
0
10
-8.7783391316309078
20
106.01426451187069
30
0
0
ARC
5
507
100
AcDbEntity
8
0
100
AcDbCircle
10
-46.15433160024908
20
62.966275910451479
30
0
40
0.39999999999999308
210
0
220
0
230
1
100
AcDbArc
50
-3.6772036735647249
51
73.501924520260488
0
ARC
5
508
100
AcDbEntity
8
0
100
AcDbCircle
10
1.7646096424073221e-05
20
59.999992690747241
30
0
40
45.849570706041803
210
0
220
0
230
1
100
AcDbArc
50
176.32272756997702
51
177.24870100145193
0
SPLINE
5
509
100
AcDbEntity
8
0
100
AcDbSpline
70
0
71
3
72
8
73
4
74
0
42
0.000000001
43
0.0000000001
44
0.0000000001
40
0
40
0
40
0
40
0
40
1
40
1
40
1
40
1
10
-18.797386267593197
20
102.90722476119871
30
0
10
-19.286205266901693
20
103.50336112095121
30
0
10
-19.98679166385239
20
104.24710165183912
30
0
10
-20.961448442130699
20
105.07078586505591
30
0
0
ARC
5
510
100
AcDbEntity
8
0
100
AcDbCircle
10
-2.1781053760605573e-06
20
59.999990457096295
30
0
40
45.849570706041803
210
0
220
-0
230
1
100
AcDbArc
50
15.608441855691192
51
16.534415287166283
0
SPLINE
5
511
100
AcDbEntity
8
0
100
AcDbSpline
70
0
71
3
72
8
73
4
74
0
42
0.000000001
43
0.0000000001
44
0.0000000001
40
0
40
0
40
0
40
0
40
1
40
1
40
1
40
1
10
-45.266200213662096
20
47.944166260294509
30
0
10
-45.002019251285915
20
47.940511193290206
30
0
10
-44.768001548107804
20
47.945545966253519
30
0
10
-44.563458560646794
20
47.955532830080109
30
0
0
ARC
5
512
100
AcDbEntity
8
0
100
AcDbCircle
10
7.5442390112812063e-06
20
59.999993258055582
30
0
40
49.706729758572415
210
0
220
0
230
1
100
AcDbArc
50
95.656410694596289
51
97.200732162545989
0
SPLINE
5
513
100
AcDbEntity
8
0
100
AcDbSpline
70
0
71
3
72
8
73
4
74
0
42
0.000000001
43
0.0000000001
44
0.0000000001
40
0
40
0
40
0
40
0
40
1
40
1
40
1
40
1
10
-15.783319524752901
20
12.865657897037011
30
0
10
-14.907014555129994
20
13.793289892367211
30
0
10
-14.294105817292593
20
14.610794727802707
30
0
10
-13.875106504457797
20
15.257913070417013
30
0
0
ARC
5
514
100
AcDbEntity
8
0
100
AcDbCircle
10
-2.5576180817665772e-06
20
59.999992690747618
30
0
40
45.849570706041774
210
0
220
-0
230
1
100
AcDbArc
50
2.751298998548076
51
3.6772724300228123
0
SPLINE
5
515
100
AcDbEntity
8
0
100
AcDbSpline
70
0
71
3
72
8
73
4
74
0
42
0.000000001
43
0.0000000001
44
0.0000000001
40
0
40
0
40
0
40
0
40
1
40
1
40
1
40
1
10
-21.8262335272623
20
18.551377719413907
30
0
10
-21.987538040137107
20
17.797518695703111
30
0
10
-22.132209328153003
20
16.786063558140611
30
0
10
-22.168503016088792
20
15.510487497389107
30
0
0
SPLINE
5
516
100
AcDbEntity
8
0
100
AcDbSpline
70
0
71
3
72
8
73
4
74
0
42
0.000000001
43
0.0000000001
44
0.0000000001
40
0
40
0
40
0
40
0
40
1
40
1
40
1
40
1
10
12.044467972214701
20
104.56345936294161
30
0
10
12.054454836041408
20
104.76800235040261
30
0
10
12.059489609004714
20
105.00202005358062
30
0
10
12.055834542000401
20
105.26620101595691
30
0
0
SPLINE
5
517
100
AcDbEntity
8
0
100
AcDbSpline
70
0
71
3
72
8
73
4
74
0
42
0.000000001
43
0.0000000001
44
0.0000000001
40
0
40
0
40
0
40
0
40
1
40
1
40
1
40
1
10
-23.483277897043298
20
19.467193770915809
30
0
10
-23.293889224422184
20
19.651413398208007
30
0
10
-23.131973841691398
20
19.820449025146907
30
0
10
-22.994401887348186
20
19.972144537759409
30
0
0
ARC
5
518
100
AcDbEntity
8
0
100
AcDbCircle
10
-1.8033655990734587e-06
20
59.999989386151391
30
0
40
45.849570706041796
210
0
220
-0
230
1
100
AcDbArc
50
22.037013284261956
51
22.962986715736282
0
SPLINE
5
519
100
AcDbEntity
8
0
100
AcDbSpline
70
0
71
3
72
8
73
4
74
0
42
0.000000001
43
0.0000000001
44
0.0000000001
40
0
40
0
40
0
40
0
40
1
40
1
40
1
40
1
10
-48.307011095313293
20
48.287139914412911
30
0
10
-47.055340284239605
20
48.038681267446812
30
0
10
-46.037052048584087
20
47.954655402359514
30
0
10
-45.266200213662096
20
47.944166260294509
30
0
0
ARC
5
520
100
AcDbEntity
8
0
100
AcDbCircle
10
45.657221030696519
20
52.621598358729031
30
0
40
0.40000000000000313
210
0
220
0
230
1
100
AcDbArc
50
93.640932622588053
51
170.82006081638295
0
ARC
5
521
100
AcDbEntity
8
0
100
AcDbCircle
10
2.9662901966350042
20
106.1543324025439
30
0
40
0.40000000000000113
210
0
220
0
230
1
100
AcDbArc
50
266.3227963264971
51
343.50192452026619
0
ARC
5
522
100
AcDbEntity
8
0
100
AcDbCircle
10
-27.067204654530688
20
22.498154924113809
30
0
40
0.39999999999998009
210
0
220
-0
230
1
100
AcDbArc
50
54.179939183685264
51
131.35906737740868
0
ARC
5
523
100
AcDbEntity
8
0
100
AcDbCircle
10
7.5442392066804587e-06
20
59.999993258055625
30
0
40
49.706729758572394
210
0
220
0
230
1
100
AcDbArc
50
153.51355355173925
51
155.05787501968899
0
SPLINE
5
524
100
AcDbEntity
8
0
100
AcDbSpline
70
0
71
3
72
8
73
4
74
0
42
0.000000001
43
0.0000000001
44
0.0000000001
40
0
40
0
40
0
40
0
40
1
40
1
40
1
40
1
10
-3.3498068178285401
20
106.04073914712731
30
0
10
-3.4079366495686081
20
106.2371023153398
30
0
10
-3.480475558783187
20
106.4596506044581
30
0
10
-3.5711789560397911
20
106.70779941892832
30
0
0
SPLINE
5
525
100
AcDbEntity
8
0
100
AcDbSpline
70
0
71
3
72
8
73
4
74
0
42
0.000000001
43
0.0000000001
44
0.0000000001
40
0
40
0
40
0
40
0
40
1
40
1
40
1
40
1
10
-21.826233527262193
20
101.44860879669741
30
0
10
-21.771011159624098
20
101.1902380736862
30
0
10
-21.714028781057184
20
100.9632080252954
30
0
10
-21.658777212153399
20
100.76601564384461
30
0
0
ARC
5
526
100
AcDbEntity
8
0
100
AcDbCircle
10
-46.15433160024908
20
57.033710605659905
30
0
40
0.3999999999999993
210
0
220
0
230
1
100
AcDbArc
50
-73.501924520267323
51
3.6772036735014462
0
SPLINE
5
527
100
AcDbEntity
8
0
100
AcDbSpline
70
0
71
3
72
8
73
4
74
0
42
0.000000001
43
0.0000000001
44
0.0000000001
40
0
40
0
40
0
40
0
40
1
40
1
40
1
40
1
10
-12.055819453522201
20
14.733785500154308
30
0
10
-12.045330311457096
20
13.962933665232411
30
0
10
-11.961304446369887
20
12.944645429576909
30
0
10
-11.712845799403695
20
11.6929746185032
30
0
0
SPLINE
5
528
100
AcDbEntity
8
0
100
AcDbSpline
70
0
71
3
72
8
73
4
74
0
42
0.000000001
43
0.0000000001
44
0.0000000001
40
0
40
0
40
0
40
0
40
1
40
1
40
1
40
1
10
44.489513304905813
20
82.168503818383414
30
0
10
43.213937244154309
20
82.132210130447717
30
0
10
42.202482106591702
20
81.987538842431718
30
0
10
41.448623082881028
20
81.82623432955701
30
0
0
SPLINE
5
529
100
AcDbEntity
8
0
100
AcDbSpline
70
0
71
3
72
8
73
4
74
0
42
0.000000001
43
0.0000000001
44
0.0000000001
40
0
40
0
40
0
40
0
40
1
40
1
40
1
40
1
10
-43.631751446555086
20
42.951763533222909
30
0
10
-43.368822360958191
20
42.97771033156161
30
0
10
-43.136839827696193
20
43.008915116464514
30
0
10
-42.934701137584398
20
43.041740733419317
30
0
0
SPLINE
5
530
100
AcDbEntity
8
0
100
AcDbSpline
70
0
71
3
72
8
73
4
74
0
42
0.000000001
43
0.0000000001
44
0.0000000001
40
0
40
0
40
0
40
0
40
1
40
1
40
1
40
1
10
-45.631804541115017
20
66.979195511129873
30
0
10
-45.836179579179301
20
66.966218031221331
30
0
10
-46.069289543875591
20
66.945019477053776
30
0
10
-46.331400154148014
20
66.911808509294673
30
0
0
SPLINE
5
531
100
AcDbEntity
8
0
100
AcDbSpline
70
0
71
3
72
8
73
4
74
0
42
0.000000001
43
0.0000000001
44
0.0000000001
40
0
40
0
40
0
40
0
40
1
40
1
40
1
40
1
10
-44.74207264339951
20
73.875107306752412
30
0
10
-44.520328842468203
20
73.731459727081216
30
0
10
-44.319501729425085
20
73.611217866623718
30
0
10
-44.140996900259793
20
73.510850555544607
30
0
0
SPLINE
5
532
100
AcDbEntity
8
0
100
AcDbSpline
70
0
71
3
72
8
73
4
74
0
42
0.000000001
43
0.0000000001
44
0.0000000001
40
0
40
0
40
0
40
0
40
1
40
1
40
1
40
1
10
-12.044452883736501
20
15.436527153169708
30
0
10
-12.05443974756319
20
15.231984165708612
30
0
10
-12.059474520526496
20
14.997966462530608
30
0
10
-12.055819453522201
20
14.733785500154308
30
0
0
ARC
5
533
100
AcDbEntity
8
0
100
AcDbCircle
10
-18.811935579214367
20
100.43991489516763
30
0
40
0.39999999999998159
210
0
220
0
230
1
100
AcDbArc
50
110.28258616829459
51
120.32261984145666
0
SPLINE
5
534
100
AcDbEntity
8
0
100
AcDbSpline
70
0
71
3
72
8
73
4
74
0
42
0.000000001
43
0.0000000001
44
0.0000000001
40
0
40
0
40
0
40
0
40
1
40
1
40
1
40
1
10
42.350726558669805
20
78.368121557997711
30
0
10
42.516871413533423
20
78.487843980170609
30
0
10
42.702972950930217
20
78.62981528754672
30
0
10
42.907239047382305
20
78.797387069888018
30
0
0
SPLINE
5
535
100
AcDbEntity
8
0
100
AcDbSpline
70
0
71
3
72
8
73
4
74
0
42
0.000000001
43
0.0000000001
44
0.0000000001
40
0
40
0
40
0
40
0
40
1
40
1
40
1
40
1
10
-45.266200213662096
20
72.055820255816911
30
0
10
-46.037052048584087
20
72.045331113751814
30
0
10
-47.055340284239492
20
71.961305248664615
30
0
10
-48.3070110953132
20
71.712846601698416
30
0
0
ARC
5
536
100
AcDbEntity
8
0
100
AcDbCircle
10
7.5442392066804587e-06
20
59.999993258055625
30
0
40
49.706729758572465
210
0
220
0
230
1
100
AcDbArc
50
114.94212498031082
51
116.48644644826064
0
ARC
5
537
100
AcDbEntity
8
0
100
AcDbCircle
10
46.196256174820704
20
57.779978145528816
30
0
40
0.39999999999999536
210
0
220
0
230
1
100
AcDbArc
50
100.06950405116119
51
177.24863224495584
0
ARC
5
538
100
AcDbEntity
8
0
100
AcDbCircle
10
-13.162210861570198
20
104.33708677213382
30
0
40
0.39999999999999414
210
0
220
0
230
1
100
AcDbArc
50
209.35521833687636
51
286.53434653064676
0
SPLINE
5
539
100
AcDbEntity
8
0
100
AcDbSpline
70
0
71
3
72
8
73
4
74
0
42
0.000000001
43
0.0000000001
44
0.0000000001
40
0
40
0
40
0
40
0
40
1
40
1
40
1
40
1
10
-46.331400154148014
20
53.088178006816705
30
0
10
-46.069289543875591
20
53.054967039057594
30
0
10
-45.836179579179301
20
53.033768484890054
30
0
10
-45.631804541115017
20
53.02079100498149
30
0
0
ARC
5
540
100
AcDbEntity
8
0
100
AcDbCircle
10
-2.220007568287734
20
13.803744627474108
30
0
40
0.40000000000002428
210
0
220
-0
230
1
100
AcDbArc
50
10.06950405117615
51
87.248632244929595
0
SPLINE
5
541
100
AcDbEntity
8
0
100
AcDbSpline
70
0
71
3
72
8
73
4
74
0
42
0.000000001
43
0.0000000001
44
0.0000000001
40
0
40
0
40
0
40
0
40
1
40
1
40
1
40
1
10
-44.140996900259793
20
46.489135960566713
30
0
10
-44.319501729425085
20
46.388768649487616
30
0
10
-44.520328842468203
20
46.268526789030105
30
0
10
-44.74207264339951
20
46.124879209358909
30
0
0
ARC
5
542
100
AcDbEntity
8
0
100
AcDbCircle
10
44.544019936047818
20
47.55600616883261
30
0
40
0.40000000000000524
210
0
220
-0
230
1
100
AcDbArc
50
87.212361194021511
51
164.39148938778686
0
ARC
5
543
100
AcDbEntity
8
0
100
AcDbCircle
10
1.5795898171688805e-05
20
59.999987403190829
30
0
40
10.000000000000009
210
0
220
0
230
1
100
AcDbArc
50
198.00000000000441
51
224.84739563549047
0
SPLINE
5
544
100
AcDbEntity
8
0
100
AcDbSpline
70
0
71
3
72
8
73
4
74
0
42
0.000000001
43
0.0000000001
44
0.0000000001
40
0
40
0
40
0
40
0
40
1
40
1
40
1
40
1
10
-45.376183588231299
20
51.516313832717806
30
0
10
-45.564803589900592
20
51.436563809903774
30
0
10
-45.777830761120896
20
51.339563507526087
30
0
10
-46.014263709575886
20
51.221646582185592
30
0
0
ARC
5
545
100
AcDbEntity
8
0
100
AcDbCircle
10
-22.698138023478993
20
19.703392378762814
30
0
40
0.4000000000000084
210
0
220
-0
230
1
100
AcDbArc
50
60.608510612257426
51
137.78763880597734
0
ARC
5
546
100
AcDbEntity
8
0
100
AcDbCircle
10
7.5442393843161426e-06
20
59.999993258055568
30
0
40
49.706729758572408
210
0
220
-0
230
1
100
AcDbArc
50
76.370696408882395
51
77.915017876832195
0
ARC
5
547
100
AcDbEntity
8
0
100
AcDbCircle
10
-13.162210861570394
20
15.662899743977405
30
0
40
0.39999999999999175
210
0
220
-0
230
1
100
AcDbArc
50
73.465653469328643
51
150.64478166312233
0
ARC
5
548
100
AcDbEntity
8
0
100
AcDbCircle
10
9.2390293815469704e-06
20
60.000003232876097
30
0
40
45.849570706041803
210
0
220
0
230
1
100
AcDbArc
50
259.89415614140489
51
260.82012957287992
0
ARC
5
549
100
AcDbEntity
8
0
100
AcDbCircle
10
-2.2200075682876097
20
106.1962418886371
30
0
40
0.40000000000000585
210
0
220
0
230
1
100
AcDbArc
50
272.75136775506786
51
349.93049594883712
0
SPLINE
5
550
100
AcDbEntity
8
0
100
AcDbSpline
70
0
71
3
72
8
73
4
74
0
42
0.000000001
43
0.0000000001
44
0.0000000001
40
0
40
0
40
0
40
0
40
1
40
1
40
1
40
1
10
-45.070785062761004
20
80.961449244425523
30
0
10
-44.247100849544303
20
79.986792466147307
30
0
10
-43.503360318656391
20
79.28620606919651
30
0
10
-42.907223958903899
20
78.797387069888117
30
0
0
ARC
5
551
100
AcDbEntity
8
0
100
AcDbCircle
10
-46.196241086342283
20
62.220008370582477
30
0
40
0.39999999999999847
210
0
220
0
230
1
100
AcDbArc
50
280.06950405116214
51
357.24863224486398
0
ARC
5
552
100
AcDbEntity
8
0
100
AcDbCircle
10
7.5442391533897535e-06
20
59.999993258055575
30
0
40
49.706729758572465
210
0
220
0
230
1
100
AcDbArc
50
121.37069640888218
51
122.91501787683202
0
ARC
5
553
100
AcDbEntity
8
0
100
AcDbCircle
10
-42.584602743715095
20
78.04362984443722
30
0
40
0.40000000000008595
210
0
220
0
230
1
100
AcDbArc
50
-22.962917959271223
51
54.216210234543823
0
ARC
5
554
100
AcDbEntity
8
0
100
AcDbCircle
10
7.5442391889168903e-06
20
59.999993258055596
30
0
40
49.70672975857245
210
0
220
0
230
1
100
AcDbArc
50
108.51355355173931
51
110.05787501968901
0
ARC
5
555
100
AcDbEntity
8
0
100
AcDbCircle
10
-2.9662751081566086
20
106.1543324025439
30
0
40
0.40000000000000435
210
0
220
0
230
1
100
AcDbArc
50
196.49807547973575
51
273.67720367352348
0
SPLINE
5
556
100
AcDbEntity
8
0
100
AcDbSpline
70
0
71
3
72
8
73
4
74
0
42
0.000000001
43
0.0000000001
44
0.0000000001
40
0
40
0
40
0
40
0
40
1
40
1
40
1
40
1
10
-6.2305278019372956
20
109.3146909920151
30
0
10
-6.6175668596967618
20
108.09870896652512
30
0
10
-6.8150764966081745
20
107.09623142552732
30
0
10
-6.911807706999813
20
106.33140095644282
30
0
0
SPLINE
5
557
100
AcDbEntity
8
0
100
AcDbSpline
70
0
71
3
72
8
73
4
74
0
42
0.000000001
43
0.0000000001
44
0.0000000001
40
0
40
0
40
0
40
0
40
1
40
1
40
1
40
1
10
6.9118227954781908
20
106.33140095644282
30
0
10
6.8150915850865701
20
107.09623142552732
30
0
10
6.6175819481751574
20
108.09870896652512
30
0
10
6.230542890415709
20
109.31469099201522
30
0
0
ARC
5
558
100
AcDbEntity
8
0
100
AcDbCircle
10
7.5442391000990483e-06
20
59.999993258055717
30
0
40
49.706729758572415
210
0
220
0
230
1
100
AcDbArc
50
224.227839266025
51
225.77216073397497
0
SPLINE
5
559
100
AcDbEntity
8
0
100
AcDbSpline
70
0
71
3
72
8
73
4
74
0
42
0.000000001
43
0.0000000001
44
0.0000000001
40
0
40
0
40
0
40
0
40
1
40
1
40
1
40
1
10
-18.368120755702897
20
102.35071227248622
30
0
10
-18.487843177875796
20
102.51685712734982
30
0
10
-18.629814485251899
20
102.70295866474652
30
0
10
-18.797386267593197
20
102.90722476119871
30
0
0
ARC
5
560
100
AcDbEntity
8
0
100
AcDbCircle
10
-8.1152701476480438
20
105.53200532233743
30
0
40
0.39999999999997765
210
0
220
0
230
1
100
AcDbArc
50
202.92664690830105
51
280.10577510212045
0
ARC
5
561
100
AcDbEntity
8
0
100
AcDbCircle
10
-12.443979544983801
20
104.54400564986422
30
0
40
0.40000000000001035
210
0
220
0
230
1
100
AcDbArc
50
-74.391489387786876
51
2.7876388059818162
0
SPLINE
5
562
100
AcDbEntity
8
0
100
AcDbSpline
70
0
71
3
72
8
73
4
74
0
42
0.000000001
43
0.0000000001
44
0.0000000001
40
0
40
0
40
0
40
0
40
1
40
1
40
1
40
1
10
-17.048222180593591
20
103.63175224884991
30
0
10
-17.022275382254897
20
103.36882316325301
30
0
10
-16.991070597351996
20
103.1368406299909
30
0
10
-16.958244980397197
20
102.93470193987922
30
0
0
ARC
5
563
100
AcDbEntity
8
0
100
AcDbCircle
10
45.532019608521011
20
51.88471556616836
30
0
40
0.4000000000000079
210
0
220
0
230
1
100
AcDbArc
50
169.89422489792645
51
247.07335309169201
0
ARC
5
564
100
AcDbEntity
8
0
100
AcDbCircle
10
-45.657205942218098
20
67.37838815738229
30
0
40
0.40000000000000313
210
0
220
0
230
1
100
AcDbArc
50
273.64093262258598
51
350.82006081631613
0
ARC
5
565
100
AcDbEntity
8
0
100
AcDbCircle
10
7.5442392422075955e-06
20
59.999993258055859
30
0
40
49.706729758572408
210
0
220
0
230
1
100
AcDbArc
50
172.79926783745401
51
174.34358930540375
0
SPLINE
5
566
100
AcDbEntity
8
0
100
AcDbSpline
70
0
71
3
72
8
73
4
74
0
42
0.000000001
43
0.0000000001
44
0.0000000001
40
0
40
0
40
0
40
0
40
1
40
1
40
1
40
1
10
48.605144044133098
20
49.593279602033903
30
0
10
47.585229777255321
20
50.360212719564494
30
0
10
46.704241234905112
20
50.877736115292322
30
0
10
46.014278798054292
20
51.221646582185485
30
0
0
SPLINE
5
567
100
AcDbEntity
8
0
100
AcDbSpline
70
0
71
3
72
8
73
4
74
0
42
0.000000001
43
0.0000000001
44
0.0000000001
40
0
40
0
40
0
40
0
40
1
40
1
40
1
40
1
10
46.014278798054292
20
51.221646582185485
30
0
10
45.777845849599302
20
51.339563507525988
30
0
10
45.564818678379012
20
51.436563809903674
30
0
10
45.376198676709706
20
51.516313832717707
30
0
0
ARC
5
568
100
AcDbEntity
8
0
100
AcDbCircle
10
-18.0436290421423
20
102.58460354600992
30
0
40
0.40000000000000541
210
0
220
0
230
1
100
AcDbArc
50
215.78378976545378
51
292.96291795921758
0
ARC
5
569
100
AcDbEntity
8
0
100
AcDbCircle
10
-38.933426342407849
20
57.722470495869558
30
0
40
1.9999999999999931
210
0
220
0
230
1
100
AcDbArc
50
183.34785616399327
51
314.11014043804948
0
ARC
5
570
100
AcDbEntity
8
0
100
AcDbCircle
10
1.3399104972222631e-05
20
60.000001509716618
30
0
40
45.849570706041987
210
0
220
0
230
1
100
AcDbArc
50
234.17987042711903
51
235.105843858594
0
SPLINE
5
571
100
AcDbEntity
8
0
100
AcDbSpline
70
0
71
3
72
8
73
4
74
0
42
0.000000001
43
0.0000000001
44
0.0000000001
40
0
40
0
40
0
40
0
40
1
40
1
40
1
40
1
10
-25.875974888360087
20
17.559534772789902
30
0
10
-24.815223175922387
20
18.268912896999208
30
0
10
-24.035769400289695
20
18.929536154635311
30
0
10
-23.483277897043298
20
19.467193770915809
30
0
0
SPLINE
5
572
100
AcDbEntity
8
0
100
AcDbSpline
70
0
71
3
72
8
73
4
74
0
42
0.000000001
43
0.0000000001
44
0.0000000001
40
0
40
0
40
0
40
0
40
1
40
1
40
1
40
1
10
-1.6808758733646378
20
106.81395656301262
30
0
10
-1.7432250946895067
20
106.5572124978484
30
0
10
-1.7903903918695718
20
106.32794176469341
30
0
10
-1.8261690161738109
20
106.12630481071062
30
0
0
ARC
5
573
100
AcDbEntity
8
0
100
AcDbCircle
10
-17.353081377063599
20
102.87063775435051
30
0
40
0.40000000000000846
210
0
220
0
230
1
100
AcDbArc
50
-67.962917959216213
51
9.2162102345512853
0
ARC
5
574
100
AcDbEntity
8
0
100
AcDbCircle
10
1.7519059660742187e-05
20
59.999994952845611
30
0
40
45.849570706041696
210
0
220
0
230
1
100
AcDbArc
50
189.17987042711891
51
190.105843858594
0
SPLINE
5
575
100
AcDbEntity
8
0
100
AcDbSpline
70
0
71
3
72
8
73
4
74
0
42
0.000000001
43
0.0000000001
44
0.0000000001
40
0
40
0
40
0
40
0
40
1
40
1
40
1
40
1
10
-22.168503016088597
20
104.48949901872223
30
0
10
-22.132209328152896
20
103.21392295797071
30
0
10
-21.987538040136894
20
102.2024678204081
30
0
10
-21.826233527262193
20
101.44860879669741
30
0
0
ARC
5
576
100
AcDbEntity
8
0
100
AcDbCircle
10
7.5442392066804587e-06
20
59.999993258055525
30
0
40
49.706729758572401
210
0
220
0
230
1
100
AcDbArc
50
185.65641069459596
51
187.20073216254599
0
ARC
5
577
100
AcDbEntity
8
0
100
AcDbCircle
10
7.5442392066804587e-06
20
59.999993258055682
30
0
40
49.706729758572422
210
0
220
0
230
1
100
AcDbArc
50
179.22783926602503
51
180.77216073397494
0
SPLINE
5
578
100
AcDbEntity
8
0
100
AcDbSpline
70
0
71
3
72
8
73
4
74
0
42
0.000000001
43
0.0000000001
44
0.0000000001
40
0
40
0
40
0
40
0
40
1
40
1
40
1
40
1
10
-0.66985720745204702
20
109.70220914936363
30
0
10
-1.1906094352882235
20
108.53720758895702
30
0
10
-1.4991190457418391
20
107.5631474793459
30
0
10
-1.6808758733646378
20
106.81395656301262
30
0
0
SPLINE
5
579
100
AcDbEntity
8
0
100
AcDbSpline
70
0
71
3
72
8
73
4
74
0
42
0.000000001
43
0.0000000001
44
0.0000000001
40
0
40
0
40
0
40
0
40
1
40
1
40
1
40
1
10
13.875121592936015
20
104.74207344569433
30
0
10
13.731474013264808
20
104.52032964476302
30
0
10
13.611232152807311
20
104.31950253171991
30
0
10
13.510864841728214
20
104.14099770255461
30
0
0
SPLINE
5
580
100
AcDbEntity
8
0
100
AcDbSpline
70
0
71
3
72
8
73
4
74
0
42
0.000000001
43
0.0000000001
44
0.0000000001
40
0
40
0
40
0
40
0
40
1
40
1
40
1
40
1
10
46.813970849196224
20
61.680876675659434
30
0
10
46.557226784031997
20
61.743225896984299
30
0
10
46.327956050876992
20
61.790391194164364
30
0
10
46.126319096894207
20
61.8261698184686
30
0
0
SPLINE
5
581
100
AcDbEntity
8
0
100
AcDbSpline
70
0
71
3
72
8
73
4
74
0
42
0.000000001
43
0.0000000001
44
0.0000000001
40
0
40
0
40
0
40
0
40
1
40
1
40
1
40
1
10
-17.047867870117699
20
106.69184401542351
30
0
10
-17.154621594645789
20
105.42022490545172
30
0
10
-17.124107013902599
20
104.39893154052662
30
0
10
-17.048222180593591
20
103.63175224884991
30
0
0
SPLINE
5
582
100
AcDbEntity
8
0
100
AcDbSpline
70
0
71
3
72
8
73
4
74
0
42
0.000000001
43
0.0000000001
44
0.0000000001
40
0
40
0
40
0
40
0
40
1
40
1
40
1
40
1
10
-30.465095841904688
20
20.723582284504207
30
0
10
-29.331588763553995
20
21.309733478203405
30
0
10
-28.4830696927175
20
21.878931741820406
30
0
10
-27.873853586749391
20
22.351349258147813
30
0
0
SPLINE
5
583
100
AcDbEntity
8
0
100
AcDbSpline
70
0
71
3
72
8
73
4
74
0
42
0.000000001
43
0.0000000001
44
0.0000000001
40
0
40
0
40
0
40
0
40
1
40
1
40
1
40
1
10
-46.331400154148014
20
66.911808509294673
30
0
10
-47.096230623232515
20
66.815077298903049
30
0
10
-48.098708164230302
20
66.617567661991629
30
0
10
-49.314690189720295
20
66.230528604232163
30
0
0
ENDSEC
0
SECTION
2
OBJECTS
0
DICTIONARY
5
C
100
AcDbDictionary
3
ACAD_GROUP
350
D
3
ACAD_MLINESTYLE
350
17
0
DICTIONARY
5
D
100
AcDbDictionary
0
DICTIONARY
5
1A
330
C
100
AcDbDictionary
0
DICTIONARY
5
17
100
AcDbDictionary
0
ENDSEC
0
EOF
