0
SECTION
2
HEADER
9
$INSUNITS
70
4
9
$ACADVER
1
AC1014
9
$HANDSEED
5
FFFF
0
ENDSEC
0
SECTION
2
TABLES
0
TABLE
2
VPORT
5
8
100
AcDbSymbolTable
0
ENDTAB
0
TABLE
2
LTYPE
5
5
100
AcDbSymbolTable
0
LTYPE
5
14
100
AcDbSymbolTableRecord
100
AcDbLinetypeTableRecord
2
BYBLOCK
70
0
0
LTYPE
5
15
100
AcDbSymbolTableRecord
100
AcDbLinetypeTableRecord
2
BYLAYER
70
0
0
ENDTAB
0
TABLE
2
LAYER
5
2
100
AcDbSymbolTable
70
2
0
LAYER
5
50
100
AcDbSymbolTableRecord
100
AcDbLayerTableRecord
2
0
70
0
6
CONTINUOUS
0
ENDTAB
0
TABLE
2
STYLE
5
3
100
AcDbSymbolTable
70
1
0
STYLE
5
11
100
AcDbSymbolTableRecord
100
AcDbTextStyleTableRecord
2
STANDARD
70
0
0
ENDTAB
0
TABLE
2
VIEW
5
6
100
AcDbSymbolTable
70
0
0
ENDTAB
0
TABLE
2
UCS
5
7
100
AcDbSymbolTable
70
0
0
ENDTAB
0
TABLE
2
APPID
5
9
100
AcDbSymbolTable
70
2
0
APPID
5
12
100
AcDbSymbolTableRecord
100
AcDbRegAppTableRecord
2
ACAD
70
0
0
ENDTAB
0
TABLE
2
DIMSTYLE
5
A
100
AcDbSymbolTable
70
1
0
ENDTAB
0
TABLE
2
BLOCK_RECORD
5
1
100
AcDbSymbolTable
70
1
0
BLOCK_RECORD
5
1F
100
AcDbSymbolTableRecord
100
AcDbBlockTableRecord
2
*MODEL_SPACE
0
BLOCK_RECORD
5
1B
100
AcDbSymbolTableRecord
100
AcDbBlockTableRecord
2
*PAPER_SPACE
0
ENDTAB
0
ENDSEC
0
SECTION
2
BLOCKS
0
BLOCK
5
20
100
AcDbEntity
100
AcDbBlockBegin
2
*MODEL_SPACE
0
ENDBLK
5
21
100
AcDbEntity
100
AcDbBlockEnd
0
BLOCK
5
1C
100
AcDbEntity
100
AcDbBlockBegin
2
*PAPER_SPACE
0
ENDBLK
5
1D
100
AcDbEntity
100
AcDbBlockEnd
0
ENDSEC
0
SECTION
2
ENTITIES
0
LINE
5
100
100
AcDbEntity
8
0
100
AcDbLine
10
-7.3527228141497813
20
-7.1381193229226199
30
0
11
-8.1095549794365098
21
-7.8728618720156121
31
0
0
SPLINE
5
101
100
AcDbEntity
8
0
100
AcDbSpline
70
0
71
3
72
8
73
4
74
0
42
0.000000001
43
0.0000000001
44
0.0000000001
40
0
40
0
40
0
40
0
40
1
40
1
40
1
40
1
10
13.703013263735199
20
0.55288025159975285
30
0
10
12.942329776725501
20
1.03290362437285
30
0
10
12.313630934137601
20
1.2543410837406099
30
0
10
11.874864506393001
20
1.3545457398318403
30
0
0
SPLINE
5
102
100
AcDbEntity
8
0
100
AcDbSpline
70
0
71
3
72
8
73
4
74
0
42
0.000000001
43
0.0000000001
44
0.0000000001
40
0
40
0
40
0
40
0
40
1
40
1
40
1
40
1
10
10.111167860415502
20
6.3727141552865003
30
0
10
9.74147229483175
20
6.28755852460759
30
0
10
9.5442014282782299
20
6.1898995324443007
30
0
10
9.4800185357743505
20
6.1543549281557794
30
0
0
LINE
5
103
100
AcDbEntity
8
0
100
AcDbLine
10
-3.5274604477678588
20
-9.6214501526242593
30
0
11
-3.8905498224291408
21
-10.6118074850393
31
0
0
SPLINE
5
104
100
AcDbEntity
8
0
100
AcDbSpline
70
0
71
3
72
8
73
4
74
0
42
0.000000001
43
0.0000000001
44
0.0000000001
40
0
40
0
40
0
40
0
40
1
40
1
40
1
40
1
10
8.975948211409392
20
-10.368731975743602
30
0
10
8.8769671999710305
20
-9.4747159998280512
30
0
10
8.6581066603085191
20
-8.8451154540363106
30
0
10
8.4628834220337588
20
-8.4395974662038693
30
0
0
ARC
5
105
100
AcDbEntity
8
0
100
AcDbCircle
10
9.8481945929348811
20
-2.8615281773360701
30
0
40
0.40000000000000135
210
0
220
0
230
1
100
AcDbArc
50
163.79805165795395
51
251.56275093052108
0
SPLINE
5
106
100
AcDbEntity
8
0
100
AcDbSpline
70
0
71
3
72
8
73
4
74
0
42
0.000000001
43
0.0000000001
44
0.0000000001
40
0
40
0
40
0
40
0
40
1
40
1
40
1
40
1
10
12.585874097927698
20
-5.4473867376774798
30
0
10
12.108796293647099
20
-4.6848524273146799
30
0
10
11.638436322040302
20
-4.2125619656359996
30
0
10
11.286598601223499
20
-3.9319070718098303
30
0
0
ARC
5
107
100
AcDbEntity
8
0
100
AcDbCircle
10
1.1e-14
20
-9.0000000000000027e-15
30
0
40
13.714162354249401
210
0
220
-0
230
1
100
AcDbArc
50
49.118091851200901
51
53.739051005942201
0
LINE
5
108
100
AcDbEntity
8
0
100
AcDbLine
10
5.3230170206751808
20
-8.7567556804790705
30
0
11
5.8709270397857694
21
-9.6581080814957208
31
0
0
SPLINE
5
109
100
AcDbEntity
8
0
100
AcDbSpline
70
0
71
3
72
8
73
4
74
0
42
0.000000001
43
0.0000000001
44
0.0000000001
40
0
40
0
40
0
40
0
40
1
40
1
40
1
40
1
10
10.109803092951699
20
-6.372936067150671
30
0
10
10.549959922956001
20
-6.4728064979985414
30
0
10
11.212476120265203
20
-6.5460804455217003
30
0
10
12.106102596231
20
-6.4436425264163502
30
0
0
SPLINE
5
110
100
AcDbEntity
8
0
100
AcDbSpline
70
0
71
3
72
8
73
4
74
0
42
0.000000001
43
0.0000000001
44
0.0000000001
40
0
40
0
40
0
40
0
40
1
40
1
40
1
40
1
10
11.286598601223499
20
-3.9319070718098303
30
0
10
10.9895198333154
20
-3.6959611070067799
30
0
10
10.790170585196099
20
-3.6026179186350902
30
0
10
10.7223633156015
20
-3.5745994109246904
30
0
0
ARC
5
111
100
AcDbEntity
8
0
100
AcDbCircle
10
3.9030160784045203
20
-9.48376221452836
30
0
40
0.40000000000000319
210
0
220
0
230
1
100
AcDbArc
50
112.36948022938019
51
200.13417950194892
0
SPLINE
5
112
100
AcDbEntity
8
0
100
AcDbSpline
70
0
71
3
72
8
73
4
74
0
42
0.000000001
43
0.0000000001
44
0.0000000001
40
0
40
0
40
0
40
0
40
1
40
1
40
1
40
1
10
3.5882256988408194
20
-13.2364226818612
30
0
10
3.88694588348244
20
-12.387995868809401
30
0
10
3.9629327897927795
20
-11.725785348542599
30
0
10
3.96299039065629
20
-11.275722077545803
30
0
0
LINE
5
113
100
AcDbEntity
8
0
100
AcDbLine
10
10.7223633156015
20
-3.5745994109246904
30
0
11
9.7216882519617851
21
-3.2409964180276987
31
0
0
LINE
5
114
100
AcDbEntity
8
0
100
AcDbLine
10
-3.8905498224291502
20
10.6118074850393
30
0
11
-3.5274604477678602
21
9.6214501526242611
31
0
0
SPLINE
5
115
100
AcDbEntity
8
0
100
AcDbSpline
70
0
71
3
72
8
73
4
74
0
42
0.000000001
43
0.0000000001
44
0.0000000001
40
0
40
0
40
0
40
0
40
1
40
1
40
1
40
1
10
-12.106102596231
20
-6.4436425264163502
30
0
10
-11.212476120265203
20
-6.5460804455217003
30
0
10
-10.549959922956001
20
-6.4728064979985414
30
0
10
-10.111167860415502
20
-6.372714155286511
30
0
0
ARC
5
116
100
AcDbEntity
8
0
100
AcDbCircle
10
4.9812131501831107
20
-8.9645298706871888
30
0
40
0.39999999999999858
210
0
220
-0
230
1
100
AcDbArc
50
31.294391926621188
51
119.05909119918314
0
SPLINE
5
117
100
AcDbEntity
8
0
100
AcDbSpline
70
0
71
3
72
8
73
4
74
0
42
0.000000001
43
0.0000000001
44
0.0000000001
40
0
40
0
40
0
40
0
40
1
40
1
40
1
40
1
10
8.1114298379383207
20
11.0581623727867
30
0
10
7.2618540561909706
20
10.762725752026803
30
0
10
6.6967399622655712
20
10.409253201565701
30
0
10
6.3448304143467915
20
10.1286883760766
30
0
0
ARC
5
118
100
AcDbEntity
8
0
100
AcDbCircle
10
10.114487278452099
20
1.6948236911345604
30
0
40
0.40000000000002195
210
0
220
0
230
1
100
AcDbArc
50
189.51233737224007
51
277.27703664480168
0
ARC
5
119
100
AcDbEntity
8
0
100
AcDbCircle
10
10.114487278452099
20
-1.6948236911345604
30
0
40
0.40000000000000008
210
0
220
-0
230
1
100
AcDbArc
50
82.722963355198303
51
170.48766262775999
0
SPLINE
5
120
100
AcDbEntity
8
0
100
AcDbSpline
70
0
71
3
72
8
73
4
74
0
42
0.000000001
43
0.0000000001
44
0.0000000001
40
0
40
0
40
0
40
0
40
1
40
1
40
1
40
1
10
1.0990264413726101
20
-11.248954480373001
30
0
10
1.11125392963794
20
-11.321296384653401
30
0
10
1.1578974285185399
20
-11.536418344372301
30
0
10
1.3207970742008899
20
-11.8776229853885
30
0
0
SPLINE
5
121
100
AcDbEntity
8
0
100
AcDbSpline
70
0
71
3
72
8
73
4
74
0
42
0.000000001
43
0.0000000001
44
0.0000000001
40
0
40
0
40
0
40
0
40
1
40
1
40
1
40
1
10
5.8709270397857694
20
-9.6581080814957208
30
0
10
5.9133316019695403
20
-9.7179805767685501
30
0
10
6.048693862600131
20
-9.8915609095775991
30
0
10
6.3435045174006106
20
-10.1282961613474
30
0
0
ARC
5
122
100
AcDbEntity
8
0
100
AcDbCircle
10
-4.9812131501830992
20
-8.9645298706871994
30
0
40
0.40000000000000135
210
0
220
-0
230
1
100
AcDbArc
50
60.940908800811158
51
148.70560807337807
0
SPLINE
5
123
100
AcDbEntity
8
0
100
AcDbSpline
70
0
71
3
72
8
73
4
74
0
42
0.000000001
43
0.0000000001
44
0.0000000001
40
0
40
0
40
0
40
0
40
1
40
1
40
1
40
1
10
3.96299039065629
20
-11.275722077545803
30
0
10
3.9622347919611798
20
-10.8963466411781
30
0
10
3.91092121209351
20
-10.682290596969302
30
0
10
3.8905498224291502
20
-10.6118074850393
30
0
0
ARC
5
124
100
AcDbEntity
8
0
100
AcDbCircle
10
9.8481945929348811
20
2.8615281773360604
30
0
40
0.40000000000000097
210
0
220
0
230
1
100
AcDbArc
50
108.43724906947897
51
196.20194834204597
0
ARC
5
125
100
AcDbEntity
8
0
100
AcDbCircle
10
1.1999999999999999e-14
20
4.0000000000000003e-15
30
0
40
13.714162354249442
210
0
220
0
230
1
100
AcDbArc
50
280.54666327977219
51
285.16762243451336
0
SPLINE
5
126
100
AcDbEntity
8
0
100
AcDbSpline
70
0
71
3
72
8
73
4
74
0
42
0.000000001
43
0.0000000001
44
0.0000000001
40
0
40
0
40
0
40
0
40
1
40
1
40
1
40
1
10
-8.1114298379383101
20
-11.0581623727867
30
0
10
-7.2618540561909617
20
-10.762725752026901
30
0
10
-6.6967399622655597
20
-10.409253201565701
30
0
10
-6.3448304143467817
20
-10.1286883760766
30
0
0
ARC
5
127
100
AcDbEntity
8
0
100
AcDbCircle
10
-3.9030160784045203
20
-9.48376221452836
30
0
40
0.40000000000000091
210
0
220
0
230
1
100
AcDbArc
50
-20.13417950194891
51
67.630519770617582
0
LINE
5
128
100
AcDbEntity
8
0
100
AcDbLine
10
-10.165154102790732
20
1.2980455756702027
30
0
11
-11.211476095955401
21
1.4316563030846501
31
0
0
ARC
5
129
100
AcDbEntity
8
0
100
AcDbCircle
10
1.167760638e-06
20
2.6653374000000001e-07
30
0
40
9.8555011957513514
210
0
220
0
230
1
100
AcDbArc
50
189.51233777851988
51
196.20194793576579
0
LINE
5
130
100
AcDbEntity
8
0
100
AcDbLine
10
3.5274604477678602
20
9.6214501526242611
30
0
11
3.8905498224291502
21
10.6118074850393
31
0
0
ARC
5
131
100
AcDbEntity
8
0
100
AcDbCircle
10
-5.1970243900000003e-07
20
1.0791731990000001e-06
30
0
40
9.8555011957514473
210
0
220
0
230
1
100
AcDbArc
50
292.36948063566297
51
299.05909079290899
0
SPLINE
5
132
100
AcDbEntity
8
0
100
AcDbSpline
70
0
71
3
72
8
73
4
74
0
42
0.000000001
43
0.0000000001
44
0.0000000001
40
0
40
0
40
0
40
0
40
1
40
1
40
1
40
1
10
1.3207970742008899
20
-11.8776229853885
30
0
10
1.51714852192255
20
-12.2840196474501
30
0
10
1.8729327354927203
20
-12.847681227174002
30
0
10
2.5101889200834107
20
-13.482477541765201
30
0
0
SPLINE
5
133
100
AcDbEntity
8
0
100
AcDbSpline
70
0
71
3
72
8
73
4
74
0
42
0.000000001
43
0.0000000001
44
0.0000000001
40
0
40
0
40
0
40
0
40
1
40
1
40
1
40
1
10
-3.8905498224291408
20
-10.6118074850393
30
0
10
-3.9109212120935002
20
-10.682290596969302
30
0
10
-3.96223479196117
20
-10.8963466411781
30
0
10
-3.9635104280573796
20
-11.274440907687
30
0
0
ARC
5
134
100
AcDbEntity
8
0
100
AcDbCircle
10
9.3647136100000003e-07
20
-7.4681098200000023e-07
30
0
40
9.8555011957513798
210
0
220
0
230
1
100
AcDbArc
50
138.08376634994855
51
144.773376507194
0
ARC
5
135
100
AcDbEntity
8
0
100
AcDbCircle
10
-5.19702399e-07
20
-1.0791731440000002e-06
30
0
40
9.8555011957513834
210
0
220
-0
230
1
100
AcDbArc
50
60.940909207091295
51
67.630519364337204
0
SPLINE
5
136
100
AcDbEntity
8
0
100
AcDbSpline
70
0
71
3
72
8
73
4
74
0
42
0.000000001
43
0.0000000001
44
0.0000000001
40
0
40
0
40
0
40
0
40
1
40
1
40
1
40
1
10
-8.9759482114093796
20
10.368731975743602
30
0
10
-8.8769671999710198
20
9.4747159998280512
30
0
10
-8.6581066603085191
20
8.8451154540363106
30
0
10
-8.4628834220337588
20
8.4395974662038693
30
0
0
SPLINE
5
137
100
AcDbEntity
8
0
100
AcDbSpline
70
0
71
3
72
8
73
4
74
0
42
0.000000001
43
0.0000000001
44
0.0000000001
40
0
40
0
40
0
40
0
40
1
40
1
40
1
40
1
10
-6.3435045174006
20
10.1282961613474
30
0
10
-6.6967399622655712
20
10.409253201565701
30
0
10
-7.2618540561909706
20
10.762725752026803
30
0
10
-8.1114298379383207
20
11.0581623727867
30
0
0
LINE
5
138
100
AcDbEntity
8
0
100
AcDbLine
10
-1.0990264413726001
20
-11.248954480373001
30
0
11
-0.99645872175783445
21
-10.199134780256301
31
0
0
ARC
5
139
100
AcDbEntity
8
0
100
AcDbCircle
10
-0.59835423297630597
20
-10.238029715813502
30
0
40
0.40000000000000069
210
0
220
-0
230
1
100
AcDbArc
50
86.655194515096696
51
174.41989378766411
0
LINE
5
140
100
AcDbEntity
8
0
100
AcDbLine
10
8.5952865161281906
20
-5.5799937236223602
30
0
11
9.4800185357743505
21
-6.1543549281557794
31
0
0
LINE
5
141
100
AcDbEntity
8
0
100
AcDbLine
10
-5.8709270397857596
20
-9.6581080814957208
30
0
11
-5.3230170206751684
21
-8.7567556804790758
31
0
0
SPLINE
5
142
100
AcDbEntity
8
0
100
AcDbSpline
70
0
71
3
72
8
73
4
74
0
42
0.000000001
43
0.0000000001
44
0.0000000001
40
0
40
0
40
0
40
0
40
1
40
1
40
1
40
1
10
-6.3448304143467817
20
-10.1286883760766
30
0
10
-6.0486938626001212
20
-9.8915609095776098
30
0
10
-5.9133316019695208
20
-9.7179805767685608
30
0
10
-5.8709270397857596
20
-9.6581080814957208
30
0
0
SPLINE
5
143
100
AcDbEntity
8
0
100
AcDbSpline
70
0
71
3
72
8
73
4
74
0
42
0.000000001
43
0.0000000001
44
0.0000000001
40
0
40
0
40
0
40
0
40
1
40
1
40
1
40
1
10
-3.9635104280573796
20
-11.274440907687
30
0
10
-3.9629327897927795
20
-11.725785348542599
30
0
10
-3.88694588348244
20
-12.387995868809401
30
0
10
-3.5882256988408194
20
-13.2364226818612
30
0
0
SPLINE
5
144
100
AcDbEntity
8
0
100
AcDbSpline
70
0
71
3
72
8
73
4
74
0
42
0.000000001
43
0.0000000001
44
0.0000000001
40
0
40
0
40
0
40
0
40
1
40
1
40
1
40
1
10
11.873731177345601
20
-1.3553378259230899
30
0
10
12.313630934137601
20
-1.2543410837406099
30
0
10
12.942329776725501
20
-1.03290362437285
30
0
10
13.703013263735199
20
-0.55288025159975285
30
0
0
ARC
5
145
100
AcDbEntity
8
0
100
AcDbCircle
10
7.6313461881064404
20
6.8511192959452494
30
0
40
0.40000000000000097
210
0
220
0
230
1
100
AcDbArc
50
134.15153478376502
51
221.91623405633206
0
SPLINE
5
146
100
AcDbEntity
8
0
100
AcDbSpline
70
0
71
3
72
8
73
4
74
0
42
0.000000001
43
0.0000000001
44
0.0000000001
40
0
40
0
40
0
40
0
40
1
40
1
40
1
40
1
10
9.4800185357743505
20
-6.1543549281557794
30
0
10
9.5442014282782299
20
-6.1898995324443096
30
0
10
9.74147229483175
20
-6.28755852460759
30
0
10
10.109803092951699
20
-6.372936067150671
30
0
0
ARC
5
147
100
AcDbEntity
8
0
100
AcDbCircle
10
2.0000000000000002e-15
20
-1.1e-14
30
0
40
13.714162354249416
210
0
220
0
230
1
100
AcDbArc
50
177.6895204226295
51
182.31047957737093
0
ARC
5
148
100
AcDbEntity
8
0
100
AcDbCircle
10
-2.0000000000000002e-15
20
4.0000000000000003e-15
30
0
40
13.714162354249401
210
0
220
0
230
1
100
AcDbArc
50
229.11809185120094
51
233.73905100594192
0
ARC
5
149
100
AcDbEntity
8
0
100
AcDbCircle
10
4.0000000000000003e-15
20
-4.0000000000000003e-15
30
0
40
13.714162354249401
210
0
220
0
230
1
100
AcDbArc
50
203.40380613691497
51
208.02476529165622
0
SPLINE
5
150
100
AcDbEntity
8
0
100
AcDbSpline
70
0
71
3
72
8
73
4
74
0
42
0.000000001
43
0.0000000001
44
0.0000000001
40
0
40
0
40
0
40
0
40
1
40
1
40
1
40
1
10
10.7223633156015
20
3.5745994109246904
30
0
10
10.790170585196099
20
3.6026179186350902
30
0
10
10.9895198333154
20
3.6959611070067702
30
0
10
11.2859211803097
20
3.9307016938561601
30
0
0
ARC
5
151
100
AcDbEntity
8
0
100
AcDbCircle
10
5.19702401e-07
20
1.079173135e-06
30
0
40
9.8555011957513798
210
0
220
0
230
1
100
AcDbArc
50
240.94090920709132
51
247.6305193643372
0
ARC
5
152
100
AcDbEntity
8
0
100
AcDbCircle
10
0.59835423297631396
20
10.238029715813502
30
0
40
0.40000000000004193
210
0
220
0
230
1
100
AcDbArc
50
266.65519451509653
51
354.41989378764941
0
ARC
5
153
100
AcDbEntity
8
0
100
AcDbCircle
10
9.36471382e-07
20
7.4681101500000003e-07
30
0
40
9.8555011957514225
210
0
220
0
230
1
100
AcDbArc
50
215.22662349280597
51
221.91623365005157
0
SPLINE
5
154
100
AcDbEntity
8
0
100
AcDbSpline
70
0
71
3
72
8
73
4
74
0
42
0.000000001
43
0.0000000001
44
0.0000000001
40
0
40
0
40
0
40
0
40
1
40
1
40
1
40
1
10
-10.7223633156015
20
-3.5745994109246997
30
0
10
-10.790170585196099
20
-3.6026179186350902
30
0
10
-10.9895198333154
20
-3.6959611070067799
30
0
10
-11.2859211803097
20
-3.9307016938561601
30
0
0
SPLINE
5
155
100
AcDbEntity
8
0
100
AcDbSpline
70
0
71
3
72
8
73
4
74
0
42
0.000000001
43
0.0000000001
44
0.0000000001
40
0
40
0
40
0
40
0
40
1
40
1
40
1
40
1
10
-8.4627960807734794
20
-8.4382175362745091
30
0
10
-8.6581066603085119
20
-8.8451154540363213
30
0
10
-8.8769671999710091
20
-9.4747159998280601
30
0
10
-8.9759482114093689
20
-10.368731975743602
30
0
0
SPLINE
5
156
100
AcDbEntity
8
0
100
AcDbSpline
70
0
71
3
72
8
73
4
74
0
42
0.000000001
43
0.0000000001
44
0.0000000001
40
0
40
0
40
0
40
0
40
1
40
1
40
1
40
1
10
3.8905498224291502
20
10.6118074850393
30
0
10
3.91092121209351
20
10.682290596969302
30
0
10
3.9622347919611798
20
10.8963466411781
30
0
10
3.9635104280573903
20
11.274440907687
30
0
0
LINE
5
157
100
AcDbEntity
8
0
100
AcDbLine
10
-0.99645872175784134
20
10.199134780256301
30
0
11
-1.0990264413726101
21
11.248954480373001
31
0
0
LINE
5
158
100
AcDbEntity
8
0
100
AcDbLine
10
-9.7216882519617851
20
-3.2409964180276987
30
0
11
-10.7223633156015
21
-3.5745994109246997
31
0
0
SPLINE
5
159
100
AcDbEntity
8
0
100
AcDbSpline
70
0
71
3
72
8
73
4
74
0
42
0.000000001
43
0.0000000001
44
0.0000000001
40
0
40
0
40
0
40
0
40
1
40
1
40
1
40
1
10
8.4628834220337588
20
-8.4395974662038693
30
0
10
8.2975978182722301
20
-8.0981198507767314
30
0
10
8.1584904434688408
20
-7.9275261468588099
30
0
10
8.1095549794365205
20
-7.8728618720156005
30
0
0
LINE
5
160
100
AcDbEntity
8
0
100
AcDbLine
10
11.211476095955401
20
1.4316563030846599
30
0
11
10.165154102790702
21
1.2980455756702101
31
0
0
ARC
5
161
100
AcDbEntity
8
0
100
AcDbCircle
10
8.3774817124259098
20
5.9154949419274701
30
0
40
0.40000000000000091
210
0
220
0
230
1
100
AcDbArc
50
215.22662308652482
51
302.99132235909218
0
ARC
5
162
100
AcDbEntity
8
0
100
AcDbCircle
10
-2.0000000000000002e-15
20
-1.0000000000000001e-15
30
0
40
13.714162354249417
210
0
220
-0
230
1
100
AcDbArc
50
23.403806136915094
51
28.024765291656198
0
LINE
5
163
100
AcDbEntity
8
0
100
AcDbLine
10
-8.5952865161281906
20
5.5799937236223496
30
0
11
-9.4800185357743505
21
6.1543549281557794
31
0
0
SPLINE
5
164
100
AcDbEntity
8
0
100
AcDbSpline
70
0
71
3
72
8
73
4
74
0
42
0.000000001
43
0.0000000001
44
0.0000000001
40
0
40
0
40
0
40
0
40
1
40
1
40
1
40
1
10
11.211476095955401
20
-1.4316563030846599
30
0
10
11.284725109767402
20
-1.4358329715835603
30
0
10
11.5048326677546
20
-1.4382280619942001
30
0
10
11.873731177345601
20
-1.3553378259230899
30
0
0
ARC
5
165
100
AcDbEntity
8
0
100
AcDbCircle
10
7.6313461881064404
20
-6.8511192959452405
30
0
40
0.39999999999999936
210
0
220
0
230
1
100
AcDbArc
50
138.08376594365606
51
225.84846521623498
0
ARC
5
166
100
AcDbEntity
8
0
100
AcDbCircle
10
5.1970240900000003e-07
20
-1.0791731740000001e-06
30
0
40
9.85550119575141
210
0
220
0
230
1
100
AcDbArc
50
112.369480635663
51
119.05909079290868
0
ARC
5
167
100
AcDbEntity
8
0
100
AcDbCircle
10
-7.6313461881064306
20
-6.8511192959452494
30
0
40
0.39999999999999791
210
0
220
0
230
1
100
AcDbArc
50
-45.848465216235645
51
41.916234056331895
0
SPLINE
5
168
100
AcDbEntity
8
0
100
AcDbSpline
70
0
71
3
72
8
73
4
74
0
42
0.000000001
43
0.0000000001
44
0.0000000001
40
0
40
0
40
0
40
0
40
1
40
1
40
1
40
1
10
-8.1095549794365098
20
-7.8728618720156121
30
0
10
-8.1584904434688319
20
-7.9275261468588196
30
0
10
-8.2975978182722194
20
-8.0981198507767402
30
0
10
-8.4627960807734794
20
-8.4382175362745091
30
0
0
LINE
5
169
100
AcDbEntity
8
0
100
AcDbLine
10
10.165154102790702
20
-1.2980455756702101
30
0
11
11.211476095955401
21
-1.4316563030846599
31
0
0
SPLINE
5
170
100
AcDbEntity
8
0
100
AcDbSpline
70
0
71
3
72
8
73
4
74
0
42
0.000000001
43
0.0000000001
44
0.0000000001
40
0
40
0
40
0
40
0
40
1
40
1
40
1
40
1
10
-1.32182149047821
20
-11.878551643773701
30
0
10
-1.1578974285185302
20
-11.536418344372301
30
0
10
-1.11125392963793
20
-11.321296384653401
30
0
10
-1.0990264413726001
20
-11.248954480373001
30
0
0
LINE
5
171
100
AcDbEntity
8
0
100
AcDbLine
10
-11.211476095955401
20
-1.4316563030846599
30
0
11
-10.165154102790734
21
-1.2980455756702134
31
0
0
ARC
5
172
100
AcDbEntity
8
0
100
AcDbCircle
10
-7.6313461881064404
20
6.8511192959452494
30
0
40
0.40000000000000069
210
0
220
0
230
1
100
AcDbArc
50
-41.916234056332058
51
45.84846521623497
0
ARC
5
173
100
AcDbEntity
8
0
100
AcDbCircle
10
0
20
-5.0000000000000008e-15
30
0
40
13.714162354249401
210
0
220
0
230
1
100
AcDbArc
50
151.975234708344
51
156.59619386308501
0
LINE
5
174
100
AcDbEntity
8
0
100
AcDbLine
10
-10.7223633156015
20
3.5745994109246904
30
0
11
-9.7216882519617851
21
3.2409964180276885
31
0
0
ARC
5
175
100
AcDbEntity
8
0
100
AcDbCircle
10
4.9812131501830992
20
8.9645298706871888
30
0
40
0.39999999999999647
210
0
220
0
230
1
100
AcDbArc
50
240.94090880081245
51
328.70560807337887
0
ARC
5
176
100
AcDbEntity
8
0
100
AcDbCircle
10
-8.3774817124259098
20
-5.9154949419274701
30
0
40
0.39999999999999752
210
0
220
-0
230
1
100
AcDbArc
50
35.226623086518366
51
122.99132235909215
0
ARC
5
177
100
AcDbEntity
8
0
100
AcDbCircle
10
-1.167760677e-06
20
-2.6653374600000003e-07
30
0
40
9.8555011957513692
210
0
220
-0
230
1
100
AcDbArc
50
9.5123377785198695
51
16.20194793576572
0
ARC
5
178
100
AcDbEntity
8
0
100
AcDbCircle
10
-9.8481945929348811
20
-2.8615281773360701
30
0
40
0.40000000000000097
210
0
220
0
230
1
100
AcDbArc
50
-71.562750930521048
51
16.201948342046098
0
LINE
5
179
100
AcDbEntity
8
0
100
AcDbLine
10
5.8709270397857596
20
9.6581080814957208
30
0
11
5.3230170206751701
21
8.7567556804790705
31
0
0
LINE
5
180
100
AcDbEntity
8
0
100
AcDbLine
10
-8.1095549794365205
20
7.8728618720156005
30
0
11
-7.3527228141497858
21
7.138119322922619
31
0
0
LINE
5
181
100
AcDbEntity
8
0
100
AcDbLine
10
9.4800185357743505
20
6.1543549281557794
30
0
11
8.5952865161281906
21
5.5799937236223602
31
0
0
LINE
5
182
100
AcDbEntity
8
0
100
AcDbLine
10
7.3527228141497858
20
7.138119322922619
30
0
11
8.1095549794365098
21
7.8728618720156005
31
0
0
LINE
5
183
100
AcDbEntity
8
0
100
AcDbLine
10
-5.323017020675179
20
8.7567556804790652
30
0
11
-5.8709270397857694
21
9.6581080814957208
31
0
0
ARC
5
184
100
AcDbEntity
8
0
100
AcDbCircle
10
-1.1677606969999999e-06
20
2.6653376000000003e-07
30
0
40
9.8555011957514012
210
0
220
0
230
1
100
AcDbArc
50
343.79805206423418
51
350.48766222148009
0
ARC
5
185
100
AcDbEntity
8
0
100
AcDbCircle
10
8.3774817124259098
20
-5.9154949419274701
30
0
40
0.40000000000000246
210
0
220
-0
230
1
100
AcDbArc
50
57.008677640907848
51
144.77337691348401
0
ARC
5
186
100
AcDbEntity
8
0
100
AcDbCircle
10
-10.114487278452099
20
1.6948236911345502
30
0
40
0.40000000000000097
210
0
220
0
230
1
100
AcDbArc
50
262.72296335519394
51
350.48766262776093
0
ARC
5
187
100
AcDbEntity
8
0
100
AcDbCircle
10
-10.114487278452099
20
-1.6948236911345604
30
0
40
0.40000000000000113
210
0
220
-0
230
1
100
AcDbArc
50
9.5123373722396209
51
97.277036644806316
0
SPLINE
5
188
100
AcDbEntity
8
0
100
AcDbSpline
70
0
71
3
72
8
73
4
74
0
42
0.000000001
43
0.0000000001
44
0.0000000001
40
0
40
0
40
0
40
0
40
1
40
1
40
1
40
1
10
-5.8709270397857694
20
9.6581080814957208
30
0
10
-5.9133316019695306
20
9.7179805767685501
30
0
10
-6.048693862600131
20
9.8915609095775991
30
0
10
-6.3435045174006
20
10.1282961613474
30
0
0
SPLINE
5
189
100
AcDbEntity
8
0
100
AcDbSpline
70
0
71
3
72
8
73
4
74
0
42
0.000000001
43
0.0000000001
44
0.0000000001
40
0
40
0
40
0
40
0
40
1
40
1
40
1
40
1
10
-11.873731177345601
20
1.3553378259230802
30
0
10
-12.313630934137601
20
1.2543410837406002
30
0
10
-12.942329776725501
20
1.0329036243728402
30
0
10
-13.703013263735199
20
0.55288025159974208
30
0
0
SPLINE
5
190
100
AcDbEntity
8
0
100
AcDbSpline
70
0
71
3
72
8
73
4
74
0
42
0.000000001
43
0.0000000001
44
0.0000000001
40
0
40
0
40
0
40
0
40
1
40
1
40
1
40
1
10
-11.286598601223499
20
3.9319070718098303
30
0
10
-10.9895198333154
20
3.6959611070067702
30
0
10
-10.790170585196099
20
3.6026179186350902
30
0
10
-10.7223633156015
20
3.5745994109246904
30
0
0
SPLINE
5
191
100
AcDbEntity
8
0
100
AcDbSpline
70
0
71
3
72
8
73
4
74
0
42
0.000000001
43
0.0000000001
44
0.0000000001
40
0
40
0
40
0
40
0
40
1
40
1
40
1
40
1
10
-11.874864506393001
20
-1.3545457398318503
30
0
10
-11.5048326677546
20
-1.4382280619942098
30
0
10
-11.284725109767402
20
-1.4358329715835703
30
0
10
-11.211476095955401
20
-1.4316563030846599
30
0
0
SPLINE
5
192
100
AcDbEntity
8
0
100
AcDbSpline
70
0
71
3
72
8
73
4
74
0
42
0.000000001
43
0.0000000001
44
0.0000000001
40
0
40
0
40
0
40
0
40
1
40
1
40
1
40
1
10
-10.111167860415502
20
-6.372714155286511
30
0
10
-9.74147229483175
20
-6.28755852460759
30
0
10
-9.5442014282782299
20
-6.1898995324443096
30
0
10
-9.4800185357743505
20
-6.1543549281557794
30
0
0
ARC
5
193
100
AcDbEntity
8
0
100
AcDbCircle
10
-1.1999999999999999e-14
20
1.1977917470000002e-06
30
0
40
9.8555011957513496
210
0
220
0
230
1
100
AcDbArc
50
266.65519492137713
51
273.34480507862298
0
ARC
5
194
100
AcDbEntity
8
0
100
AcDbCircle
10
-5.0000000000000008e-15
20
4.0000000000000003e-15
30
0
40
13.714162354249401
210
0
220
0
230
1
100
AcDbArc
50
254.83237756548701
51
259.45333672022781
0
SPLINE
5
195
100
AcDbEntity
8
0
100
AcDbSpline
70
0
71
3
72
8
73
4
74
0
42
0.000000001
43
0.0000000001
44
0.0000000001
40
0
40
0
40
0
40
0
40
1
40
1
40
1
40
1
10
-3.5882256988408194
20
13.2364226818612
30
0
10
-3.8869458834824506
20
12.387995868809401
30
0
10
-3.9629327897927795
20
11.725785348542599
30
0
10
-3.96299039065629
20
11.275722077545803
30
0
0
SPLINE
5
196
100
AcDbEntity
8
0
100
AcDbSpline
70
0
71
3
72
8
73
4
74
0
42
0.000000001
43
0.0000000001
44
0.0000000001
40
0
40
0
40
0
40
0
40
1
40
1
40
1
40
1
10
-1.0990264413726101
20
11.248954480373001
30
0
10
-1.11125392963794
20
11.321296384653401
30
0
10
-1.1578974285185399
20
11.536418344372301
30
0
10
-1.3207970742008899
20
11.8776229853885
30
0
0
SPLINE
5
197
100
AcDbEntity
8
0
100
AcDbSpline
70
0
71
3
72
8
73
4
74
0
42
0.000000001
43
0.0000000001
44
0.0000000001
40
0
40
0
40
0
40
0
40
1
40
1
40
1
40
1
10
3.9635104280573903
20
11.274440907687
30
0
10
3.9629327897927902
20
11.725785348542599
30
0
10
3.8869458834824506
20
12.387995868809401
30
0
10
3.5882256988408305
20
13.2364226818612
30
0
0
SPLINE
5
198
100
AcDbEntity
8
0
100
AcDbSpline
70
0
71
3
72
8
73
4
74
0
42
0.000000001
43
0.0000000001
44
0.0000000001
40
0
40
0
40
0
40
0
40
1
40
1
40
1
40
1
10
1.32182149047822
20
11.878551643773701
30
0
10
1.1578974285185399
20
11.536418344372301
30
0
10
1.11125392963794
20
11.321296384653401
30
0
10
1.0990264413726101
20
11.248954480373001
30
0
0
SPLINE
5
199
100
AcDbEntity
8
0
100
AcDbSpline
70
0
71
3
72
8
73
4
74
0
42
0.000000001
43
0.0000000001
44
0.0000000001
40
0
40
0
40
0
40
0
40
1
40
1
40
1
40
1
10
-11.211476095955401
20
1.4316563030846501
30
0
10
-11.284725109767402
20
1.4358329715835503
30
0
10
-11.5048326677546
20
1.4382280619941898
30
0
10
-11.873731177345601
20
1.3553378259230802
30
0
0
SPLINE
5
200
100
AcDbEntity
8
0
100
AcDbSpline
70
0
71
3
72
8
73
4
74
0
42
0.000000001
43
0.0000000001
44
0.0000000001
40
0
40
0
40
0
40
0
40
1
40
1
40
1
40
1
10
-8.4628834220337588
20
8.4395974662038693
30
0
10
-8.2975978182722301
20
8.0981198507767314
30
0
10
-8.1584904434688408
20
7.9275261468588099
30
0
10
-8.1095549794365205
20
7.8728618720156005
30
0
0
ARC
5
201
100
AcDbEntity
8
0
100
AcDbCircle
10
1.1677607090000002e-06
20
-2.66533782e-07
30
0
40
9.8555011957514171
210
0
220
0
230
1
100
AcDbArc
50
163.79805206423416
51
170.48766222147998
0
LINE
5
202
100
AcDbEntity
8
0
100
AcDbLine
10
-9.4800185357743505
20
-6.1543549281557794
30
0
11
-8.5952865161281906
21
-5.5799937236223602
31
0
0
ARC
5
203
100
AcDbEntity
8
0
100
AcDbCircle
10
-4.9812131501831107
20
8.9645298706871888
30
0
40
0.40000000000000102
210
0
220
0
230
1
100
AcDbArc
50
211.29439192662196
51
299.05909119918903
0
ARC
5
204
100
AcDbEntity
8
0
100
AcDbCircle
10
-3.9030160784045203
20
9.48376221452836
30
0
40
0.40000000000000752
210
0
220
0
230
1
100
AcDbArc
50
-67.630519770622811
51
20.134179501949244
0
ARC
5
205
100
AcDbEntity
8
0
100
AcDbCircle
10
-1.3999999999999999e-14
20
-1.1999999999999999e-14
30
0
40
13.714162354249401
210
0
220
0
230
1
100
AcDbArc
50
126.26094899405801
51
130.88190814879914
0
ARC
5
206
100
AcDbEntity
8
0
100
AcDbCircle
10
-4.0000000000000003e-15
20
-2.9999999999999998e-15
30
0
40
13.714162354249401
210
0
220
0
230
1
100
AcDbArc
50
331.97523470834392
51
336.59619386308503
0
ARC
5
207
100
AcDbEntity
8
0
100
AcDbCircle
10
-9.3647129500000011e-07
20
7.4681094299999998e-07
30
0
40
9.8555011957513017
210
0
220
0
230
1
100
AcDbArc
50
318.08376634994897
51
324.77337650719397
0
ARC
5
208
100
AcDbEntity
8
0
100
AcDbCircle
10
-0.59835423297631296
20
10.238029715813502
30
0
40
0.40000000000000102
210
0
220
0
230
1
100
AcDbArc
50
185.58010621233581
51
273.34480548490319
0
ARC
5
209
100
AcDbEntity
8
0
100
AcDbCircle
10
-8.3774817124259204
20
5.9154949419274603
30
0
40
0.39999999999999791
210
0
220
0
230
1
100
AcDbArc
50
237.00867764090918
51
324.77337691348595
0
SPLINE
5
210
100
AcDbEntity
8
0
100
AcDbSpline
70
0
71
3
72
8
73
4
74
0
42
0.000000001
43
0.0000000001
44
0.0000000001
40
0
40
0
40
0
40
0
40
1
40
1
40
1
40
1
10
-3.96299039065629
20
11.275722077545803
30
0
10
-3.9622347919611798
20
10.8963466411781
30
0
10
-3.91092121209351
20
10.682290596969302
30
0
10
-3.8905498224291502
20
10.6118074850393
30
0
0
SPLINE
5
211
100
AcDbEntity
8
0
100
AcDbSpline
70
0
71
3
72
8
73
4
74
0
42
0.000000001
43
0.0000000001
44
0.0000000001
40
0
40
0
40
0
40
0
40
1
40
1
40
1
40
1
10
-13.703013263735199
20
-0.55288025159976306
30
0
10
-12.942329776725501
20
-1.0329036243728602
30
0
10
-12.313630934137601
20
-1.2543410837406201
30
0
10
-11.874864506393001
20
-1.3545457398318503
30
0
0
SPLINE
5
212
100
AcDbEntity
8
0
100
AcDbSpline
70
0
71
3
72
8
73
4
74
0
42
0.000000001
43
0.0000000001
44
0.0000000001
40
0
40
0
40
0
40
0
40
1
40
1
40
1
40
1
10
-10.109803092951699
20
6.3729360671506594
30
0
10
-10.549959922956001
20
6.4728064979985316
30
0
10
-11.212476120265203
20
6.5460804455217003
30
0
10
-12.106102596231
20
6.4436425264163404
30
0
0
SPLINE
5
213
100
AcDbEntity
8
0
100
AcDbSpline
70
0
71
3
72
8
73
4
74
0
42
0.000000001
43
0.0000000001
44
0.0000000001
40
0
40
0
40
0
40
0
40
1
40
1
40
1
40
1
10
-12.585874097927698
20
5.4473867376774798
30
0
10
-12.108796293647099
20
4.6848524273146701
30
0
10
-11.638436322040302
20
4.2125619656359907
30
0
10
-11.286598601223499
20
3.9319070718098303
30
0
0
SPLINE
5
214
100
AcDbEntity
8
0
100
AcDbSpline
70
0
71
3
72
8
73
4
74
0
42
0.000000001
43
0.0000000001
44
0.0000000001
40
0
40
0
40
0
40
0
40
1
40
1
40
1
40
1
10
-9.4800185357743505
20
6.1543549281557794
30
0
10
-9.5442014282782299
20
6.1898995324443007
30
0
10
-9.7414722948317607
20
6.28755852460759
30
0
10
-10.109803092951699
20
6.3729360671506594
30
0
0
SPLINE
5
215
100
AcDbEntity
8
0
100
AcDbSpline
70
0
71
3
72
8
73
4
74
0
42
0.000000001
43
0.0000000001
44
0.0000000001
40
0
40
0
40
0
40
0
40
1
40
1
40
1
40
1
10
-11.2859211803097
20
-3.9307016938561601
30
0
10
-11.638436322040302
20
-4.2125619656359996
30
0
10
-12.108796293647099
20
-4.6848524273146799
30
0
10
-12.585874097927698
20
-5.4473867376774905
30
0
0
ARC
5
216
100
AcDbEntity
8
0
100
AcDbCircle
10
-9.8481945929348811
20
2.8615281773360604
30
0
40
0.40000000000000135
210
0
220
0
230
1
100
AcDbArc
50
-16.201948342046038
51
71.562750930521048
0
SPLINE
5
217
100
AcDbEntity
8
0
100
AcDbSpline
70
0
71
3
72
8
73
4
74
0
42
0.000000001
43
0.0000000001
44
0.0000000001
40
0
40
0
40
0
40
0
40
1
40
1
40
1
40
1
10
12.106102596231
20
6.4436425264163502
30
0
10
11.212476120265203
20
6.5460804455217003
30
0
10
10.549959922956001
20
6.4728064979985316
30
0
10
10.111167860415502
20
6.3727141552865003
30
0
0
SPLINE
5
218
100
AcDbEntity
8
0
100
AcDbSpline
70
0
71
3
72
8
73
4
74
0
42
0.000000001
43
0.0000000001
44
0.0000000001
40
0
40
0
40
0
40
0
40
1
40
1
40
1
40
1
10
6.3435045174006106
20
-10.1282961613474
30
0
10
6.696739962265581
20
-10.409253201565701
30
0
10
7.2618540561909706
20
-10.762725752026803
30
0
10
8.1114298379383207
20
-11.0581623727867
30
0
0
LINE
5
219
100
AcDbEntity
8
0
100
AcDbLine
10
0.99645872175783923
20
-10.199134780256198
30
0
11
1.0990264413726101
21
-11.248954480373001
31
0
0
SPLINE
5
220
100
AcDbEntity
8
0
100
AcDbSpline
70
0
71
3
72
8
73
4
74
0
42
0.000000001
43
0.0000000001
44
0.0000000001
40
0
40
0
40
0
40
0
40
1
40
1
40
1
40
1
10
8.1095549794365098
20
7.8728618720156005
30
0
10
8.1584904434688319
20
7.9275261468588099
30
0
10
8.2975978182722301
20
8.0981198507767314
30
0
10
8.4627960807734901
20
8.4382175362745002
30
0
0
LINE
5
221
100
AcDbEntity
8
0
100
AcDbLine
10
1.0990264413726101
20
11.248954480373001
30
0
11
0.99645872175784111
21
10.199134780256198
31
0
0
SPLINE
5
222
100
AcDbEntity
8
0
100
AcDbSpline
70
0
71
3
72
8
73
4
74
0
42
0.000000001
43
0.0000000001
44
0.0000000001
40
0
40
0
40
0
40
0
40
1
40
1
40
1
40
1
10
6.3448304143467915
20
10.1286883760766
30
0
10
6.048693862600131
20
9.8915609095775991
30
0
10
5.9133316019695306
20
9.7179805767685501
30
0
10
5.8709270397857596
20
9.6581080814957208
30
0
0
ARC
5
223
100
AcDbEntity
8
0
100
AcDbCircle
10
0.59835423297631207
20
-10.238029715813502
30
0
40
0.40000000000000979
210
0
220
-0
230
1
100
AcDbArc
50
5.5801062123506124
51
93.344805484903688
0
ARC
5
224
100
AcDbEntity
8
0
100
AcDbCircle
10
-2.0000000000000002e-15
20
0
30
0
40
13.714162354249401
210
0
220
0
230
1
100
AcDbArc
50
-2.3104795773709714
51
2.3104795773708049
0
ARC
5
225
100
AcDbEntity
8
0
100
AcDbCircle
10
-9.0000000000000027e-15
20
-9.0000000000000027e-15
30
0
40
13.714162354249401
210
0
220
0
230
1
100
AcDbArc
50
306.26094899405797
51
310.88190814879903
0
SPLINE
5
226
100
AcDbEntity
8
0
100
AcDbSpline
70
0
71
3
72
8
73
4
74
0
42
0.000000001
43
0.0000000001
44
0.0000000001
40
0
40
0
40
0
40
0
40
1
40
1
40
1
40
1
10
8.4627960807734901
20
8.4382175362745002
30
0
10
8.6581066603085191
20
8.8451154540363106
30
0
10
8.8769671999710198
20
9.4747159998280601
30
0
10
8.9759482114093796
20
10.368731975743602
30
0
0
ARC
5
227
100
AcDbEntity
8
0
100
AcDbCircle
10
0
20
-1.19779182e-06
30
0
40
9.8555011957513816
210
0
220
-0
230
1
100
AcDbArc
50
86.655194921377088
51
93.344805078622912
0
SPLINE
5
228
100
AcDbEntity
8
0
100
AcDbSpline
70
0
71
3
72
8
73
4
74
0
42
0.000000001
43
0.0000000001
44
0.0000000001
40
0
40
0
40
0
40
0
40
1
40
1
40
1
40
1
10
-2.5101889200834
20
-13.482477541765201
30
0
10
-1.8729327354927099
20
-12.847681227174002
30
0
10
-1.51714852192254
20
-12.2840196474501
30
0
10
-1.32182149047821
20
-11.878551643773701
30
0
0
LINE
5
229
100
AcDbEntity
8
0
100
AcDbLine
10
3.8905498224291502
20
-10.6118074850393
30
0
11
3.5274604477678588
21
-9.6214501526242593
31
0
0
LINE
5
230
100
AcDbEntity
8
0
100
AcDbLine
10
8.1095549794365205
20
-7.8728618720156005
30
0
11
7.3527228141497858
21
-7.1381193229226101
31
0
0
ARC
5
231
100
AcDbEntity
8
0
100
AcDbCircle
10
-1.3e-14
20
-4.0000000000000003e-15
30
0
40
13.714162354249442
210
0
220
0
230
1
100
AcDbArc
50
100.5466632797722
51
105.16762243451338
0
SPLINE
5
232
100
AcDbEntity
8
0
100
AcDbSpline
70
0
71
3
72
8
73
4
74
0
42
0.000000001
43
0.0000000001
44
0.0000000001
40
0
40
0
40
0
40
0
40
1
40
1
40
1
40
1
10
-1.3207970742008899
20
11.8776229853885
30
0
10
-1.51714852192255
20
12.2840196474501
30
0
10
-1.8729327354927203
20
12.847681227174002
30
0
10
-2.5101889200834107
20
13.482477541765201
30
0
0
SPLINE
5
233
100
AcDbEntity
8
0
100
AcDbSpline
70
0
71
3
72
8
73
4
74
0
42
0.000000001
43
0.0000000001
44
0.0000000001
40
0
40
0
40
0
40
0
40
1
40
1
40
1
40
1
10
11.874864506393001
20
1.3545457398318403
30
0
10
11.5048326677546
20
1.4382280619942001
30
0
10
11.284725109767402
20
1.4358329715835603
30
0
10
11.211476095955401
20
1.4316563030846599
30
0
0
ARC
5
234
100
AcDbEntity
8
0
100
AcDbCircle
10
-9.3647135300000001e-07
20
-7.4681098400000024e-07
30
0
40
9.8555011957513763
210
0
220
-0
230
1
100
AcDbArc
50
35.226623492805679
51
41.916233650051495
0
ARC
5
235
100
AcDbEntity
8
0
100
AcDbCircle
10
1.4999999999999999e-14
20
-4.0000000000000003e-15
30
0
40
13.714162354249398
210
0
220
-0
230
1
100
AcDbArc
50
74.832377565486595
51
79.453336720227824
0
SPLINE
5
236
100
AcDbEntity
8
0
100
AcDbSpline
70
0
71
3
72
8
73
4
74
0
42
0.000000001
43
0.0000000001
44
0.0000000001
40
0
40
0
40
0
40
0
40
1
40
1
40
1
40
1
10
2.5101889200834107
20
13.482477541765201
30
0
10
1.8729327354927203
20
12.847681227174002
30
0
10
1.51714852192255
20
12.2840196474501
30
0
10
1.32182149047822
20
11.878551643773701
30
0
0
LINE
5
237
100
AcDbEntity
8
0
100
AcDbLine
10
9.7216882519617851
20
3.2409964180276885
30
0
11
10.7223633156015
21
3.5745994109246904
31
0
0
SPLINE
5
238
100
AcDbEntity
8
0
100
AcDbSpline
70
0
71
3
72
8
73
4
74
0
42
0.000000001
43
0.0000000001
44
0.0000000001
40
0
40
0
40
0
40
0
40
1
40
1
40
1
40
1
10
11.2859211803097
20
3.9307016938561601
30
0
10
11.638436322040302
20
4.2125619656359996
30
0
10
12.108796293647099
20
4.6848524273146701
30
0
10
12.585874097927698
20
5.4473867376774798
30
0
0
ARC
5
239
100
AcDbEntity
8
0
100
AcDbCircle
10
3.9030160784045203
20
9.48376221452836
30
0
40
0.4000000000000003
210
0
220
0
230
1
100
AcDbArc
50
159.86582049805077
51
247.63051977061801
0
CIRCLE
5
240
100
AcDbEntity
8
0
100
AcDbCircle
10
-3.5527136788005009e-12
20
-7.9047879353311146e-13
30
0
40
2.4249999999999998
210
0
220
-0
230
1
0
ENDSEC
0
SECTION
2
OBJECTS
0
DICTIONARY
5
C
100
AcDbDictionary
3
ACAD_GROUP
350
D
3
ACAD_MLINESTYLE
350
17
0
DICTIONARY
5
D
100
AcDbDictionary
0
DICTIONARY
5
1A
330
C
100
AcDbDictionary
0
DICTIONARY
5
17
100
AcDbDictionary
0
ENDSEC
0
EOF
