0
SECTION
2
HEADER
9
$INSUNITS
70
4
9
$ACADVER
1
AC1014
9
$HANDSEED
5
FFFF
0
ENDSEC
0
SECTION
2
TABLES
0
TABLE
2
VPORT
5
8
100
AcDbSymbolTable
0
ENDTAB
0
TABLE
2
LTYPE
5
5
100
AcDbSymbolTable
0
LTYPE
5
14
100
AcDbSymbolTableRecord
100
AcDbLinetypeTableRecord
2
BYBLOCK
70
0
0
LTYPE
5
15
100
AcDbSymbolTableRecord
100
AcDbLinetypeTableRecord
2
BYLAYER
70
0
0
ENDTAB
0
TABLE
2
LAYER
5
2
100
AcDbSymbolTable
70
2
0
LAYER
5
50
100
AcDbSymbolTableRecord
100
AcDbLayerTableRecord
2
0
70
0
6
CONTINUOUS
0
ENDTAB
0
TABLE
2
STYLE
5
3
100
AcDbSymbolTable
70
1
0
STYLE
5
11
100
AcDbSymbolTableRecord
100
AcDbTextStyleTableRecord
2
STANDARD
70
0
0
ENDTAB
0
TABLE
2
VIEW
5
6
100
AcDbSymbolTable
70
0
0
ENDTAB
0
TABLE
2
UCS
5
7
100
AcDbSymbolTable
70
0
0
ENDTAB
0
TABLE
2
APPID
5
9
100
AcDbSymbolTable
70
2
0
APPID
5
12
100
AcDbSymbolTableRecord
100
AcDbRegAppTableRecord
2
ACAD
70
0
0
ENDTAB
0
TABLE
2
DIMSTYLE
5
A
100
AcDbSymbolTable
70
1
0
ENDTAB
0
TABLE
2
BLOCK_RECORD
5
1
100
AcDbSymbolTable
70
1
0
BLOCK_RECORD
5
1F
100
AcDbSymbolTableRecord
100
AcDbBlockTableRecord
2
*MODEL_SPACE
0
BLOCK_RECORD
5
1B
100
AcDbSymbolTableRecord
100
AcDbBlockTableRecord
2
*PAPER_SPACE
0
ENDTAB
0
ENDSEC
0
SECTION
2
BLOCKS
0
BLOCK
5
20
100
AcDbEntity
100
AcDbBlockBegin
2
*MODEL_SPACE
0
ENDBLK
5
21
100
AcDbEntity
100
AcDbBlockEnd
0
BLOCK
5
1C
100
AcDbEntity
100
AcDbBlockBegin
2
*PAPER_SPACE
0
ENDBLK
5
1D
100
AcDbEntity
100
AcDbBlockEnd
0
ENDSEC
0
SECTION
2
ENTITIES
0
LINE
5
100
100
AcDbEntity
8
0
100
AcDbLine
10
-80.000001337132133
20
-88.800000000031417
30
0
11
-80.000001337132133
21
-93.600000000031415
31
0
0
LINE
5
101
100
AcDbEntity
8
0
100
AcDbLine
10
-80.000000551220992
20
-38.324999999998141
30
0
11
-80.000000551220992
21
-33.524999999998144
31
0
0
LINE
5
102
100
AcDbEntity
8
0
100
AcDbLine
10
-90.200000551220981
20
-38.324999999998141
30
0
11
-80.000000551220992
21
-38.324999999998141
31
0
0
LINE
5
103
100
AcDbEntity
8
0
100
AcDbLine
10
-80.000000551220992
20
-33.524999999998144
30
0
11
-65.000000551220992
21
-33.524999999998144
31
0
0
LINE
5
104
100
AcDbEntity
8
0
100
AcDbLine
10
-65.000000551220992
20
-33.524999999998144
30
0
11
-65.000000551220992
21
-38.324999999998141
31
0
0
LINE
5
105
100
AcDbEntity
8
0
100
AcDbLine
10
-65.000000551220992
20
-38.324999999998141
30
0
11
-40.000000551220992
21
-38.324999999998141
31
0
0
LINE
5
106
100
AcDbEntity
8
0
100
AcDbLine
10
-40.000000551220992
20
-38.324999999998141
30
0
11
-40.000000551220992
21
-33.524999999998144
31
0
0
LINE
5
107
100
AcDbEntity
8
0
100
AcDbLine
10
-40.000000551220992
20
-33.524999999998144
30
0
11
-25.000000551220985
21
-33.524999999998144
31
0
0
LINE
5
108
100
AcDbEntity
8
0
100
AcDbLine
10
-25.000000551220985
20
-33.524999999998144
30
0
11
-25.000000551220985
21
-38.324999999998141
31
0
0
LINE
5
109
100
AcDbEntity
8
0
100
AcDbLine
10
-25.000000551220985
20
-38.324999999998141
30
0
11
-5.0000006257267904
21
-38.324999999998141
31
0
0
LINE
5
110
100
AcDbEntity
8
0
100
AcDbLine
10
-5.0000006257267904
20
-38.324999999998141
30
0
11
-5.0000006257267904
21
-33.524999999998144
31
0
0
LINE
5
111
100
AcDbEntity
8
0
100
AcDbLine
10
-5.0000006257267904
20
-33.524999999998144
30
0
11
4.9999995232848216
21
-33.524999999998144
31
0
0
LINE
5
112
100
AcDbEntity
8
0
100
AcDbLine
10
4.9999993742732096
20
-38.324999999998141
30
0
11
4.9999995232848216
21
-33.524999999998144
31
0
0
LINE
5
113
100
AcDbEntity
8
0
100
AcDbLine
10
4.9999993742732096
20
-38.324999999998141
30
0
11
24.999999448779015
21
-38.324999999998141
31
0
0
LINE
5
114
100
AcDbEntity
8
0
100
AcDbLine
10
24.999999448779015
20
-38.324999999998141
30
0
11
24.999999448779015
21
-33.524999999998144
31
0
0
LINE
5
115
100
AcDbEntity
8
0
100
AcDbLine
10
24.999999448779015
20
-33.524999999998144
30
0
11
39.999999448779015
21
-33.524999999998144
31
0
0
LINE
5
116
100
AcDbEntity
8
0
100
AcDbLine
10
39.999999448779015
20
-33.524999999998144
30
0
11
39.999999448779015
21
-38.324999999998141
31
0
0
LINE
5
117
100
AcDbEntity
8
0
100
AcDbLine
10
39.999999448779015
20
-38.324999999998141
30
0
11
64.999999448779008
21
-38.324999999998141
31
0
0
LINE
5
118
100
AcDbEntity
8
0
100
AcDbLine
10
64.999999448779008
20
-38.324999999998141
30
0
11
64.999999448779008
21
-33.524999999998144
31
0
0
LINE
5
119
100
AcDbEntity
8
0
100
AcDbLine
10
64.999999448779008
20
-33.524999999998144
30
0
11
79.999999448779008
21
-33.524999999998144
31
0
0
LINE
5
120
100
AcDbEntity
8
0
100
AcDbLine
10
79.999999448779008
20
-33.524999999998144
30
0
11
79.999999448779008
21
-38.324999999998141
31
0
0
LINE
5
121
100
AcDbEntity
8
0
100
AcDbLine
10
-90.200001337132122
20
-88.800000000031417
30
0
11
-80.000001337132133
21
-88.800000000031417
31
0
0
LINE
5
122
100
AcDbEntity
8
0
100
AcDbLine
10
-80.000001337132133
20
-93.600000000031415
30
0
11
-65.000001337132133
21
-93.600000000031415
31
0
0
LINE
5
123
100
AcDbEntity
8
0
100
AcDbLine
10
-65.000001337132133
20
-93.600000000031415
30
0
11
-65.000001337132133
21
-88.800000000031417
31
0
0
LINE
5
124
100
AcDbEntity
8
0
100
AcDbLine
10
-65.000001337132133
20
-88.800000000031417
30
0
11
-40.000001337132133
21
-88.800000000031417
31
0
0
LINE
5
125
100
AcDbEntity
8
0
100
AcDbLine
10
-40.000001337132133
20
-88.800000000031417
30
0
11
-40.000001337132133
21
-93.600000000031415
31
0
0
LINE
5
126
100
AcDbEntity
8
0
100
AcDbLine
10
-40.000001337132133
20
-93.600000000031415
30
0
11
-25.000001337132129
21
-93.600000000031415
31
0
0
LINE
5
127
100
AcDbEntity
8
0
100
AcDbLine
10
-25.000001337132129
20
-93.600000000031415
30
0
11
-25.000001337132129
21
-88.800000000031417
31
0
0
LINE
5
128
100
AcDbEntity
8
0
100
AcDbLine
10
-25.000001337132129
20
-88.800000000031417
30
0
11
-5.0000014116379363
21
-88.800000000031417
31
0
0
LINE
5
129
100
AcDbEntity
8
0
100
AcDbLine
10
-5.0000014116379363
20
-88.800000000031417
30
0
11
-5.0000014116379363
21
-93.600000000031415
31
0
0
LINE
5
130
100
AcDbEntity
8
0
100
AcDbLine
10
-5.0000014116379363
20
-93.600000000031415
30
0
11
4.9999986628678696
21
-93.600000000031415
31
0
0
LINE
5
131
100
AcDbEntity
8
0
100
AcDbLine
10
4.9999986628678696
20
-93.600000000031415
30
0
11
4.9999985883620637
21
-88.800000000031417
31
0
0
LINE
5
132
100
AcDbEntity
8
0
100
AcDbLine
10
4.9999985883620637
20
-88.800000000031417
30
0
11
24.999998662867871
21
-88.800000000031417
31
0
0
LINE
5
133
100
AcDbEntity
8
0
100
AcDbLine
10
24.999998662867871
20
-88.800000000031417
30
0
11
24.999998662867871
21
-93.600000000031415
31
0
0
LINE
5
134
100
AcDbEntity
8
0
100
AcDbLine
10
39.999998662867867
20
-88.800000000031417
30
0
11
64.999998662867867
21
-88.800000000031417
31
0
0
LINE
5
135
100
AcDbEntity
8
0
100
AcDbLine
10
64.999998662867867
20
-88.800000000031417
30
0
11
64.999998662867867
21
-93.600000000031415
31
0
0
LINE
5
136
100
AcDbEntity
8
0
100
AcDbLine
10
64.999998662867867
20
-93.600000000031415
30
0
11
79.999998662867867
21
-93.600000000031415
31
0
0
LINE
5
137
100
AcDbEntity
8
0
100
AcDbLine
10
79.999998662867867
20
-93.600000000031415
30
0
11
79.999998662867867
21
-88.800000000031417
31
0
0
LINE
5
138
100
AcDbEntity
8
0
100
AcDbLine
10
79.999999448779008
20
-38.324999999998141
30
0
11
90.19999944877901
21
-38.324999999998141
31
0
0
LINE
5
139
100
AcDbEntity
8
0
100
AcDbLine
10
90.19999866286787
20
-88.800000000031417
30
0
11
79.999998662867867
21
-88.800000000031417
31
0
0
LINE
5
140
100
AcDbEntity
8
0
100
AcDbLine
10
39.999998662867867
20
-93.600000000031415
30
0
11
24.999998662867871
21
-93.600000000031415
31
0
0
LWPOLYLINE
5
141
100
AcDbEntity
8
0
100
AcDbPolyline
90
8
70
1
43
0.0
10
-25.000004608170748
20
-78.524999585319676
10
-25.000000896814054
20
-48.974999654405082
42
-0.41421354212872058
10
-20.000000896814068
20
-43.974999999998168
10
19.999999448778965
20
-43.97500032094203
42
-0.41421351633549014
10
24.999998662867871
20
-48.975000320941959
10
24.999998662867867
20
-78.525000000031412
42
-0.41421356237309531
10
19.999998662867881
20
-83.525000000031397
10
-20.000004539052142
20
-83.525000000031397
42
-0.41421358261747004
0
LWPOLYLINE
5
142
100
AcDbEntity
8
0
100
AcDbPolyline
90
8
70
1
43
0.0
10
-87.000002573928512
20
-81.22500138583942
10
-87.000002573928512
20
-85.22500138583942
10
-83.000002573928512
20
-85.22500138583942
10
-83.000002573928512
20
-81.550000972331858
10
-73.000002454719223
20
-81.550000972331858
10
-73.000002454719223
20
-70.22500126663013
10
-84.500003870329522
20
-70.22500126663013
10
-84.500003870329522
20
-81.22500138583942
0
LINE
5
143
100
AcDbEntity
8
0
100
AcDbLine
10
39.999998662867867
20
-88.800000000031417
30
0
11
39.999998662867867
21
-93.600000000031415
31
0
0
LINE
5
144
100
AcDbEntity
8
0
100
AcDbLine
10
-95
20
-56.162499999999973
30
0
11
-95
21
-71.162499999999966
31
0
0
LINE
5
145
100
AcDbEntity
8
0
100
AcDbLine
10
-90.200001337132122
20
-88.800000000031417
30
0
11
-90.200001337132122
21
-71.162499999999966
31
0
0
LINE
5
146
100
AcDbEntity
8
0
100
AcDbLine
10
-90.200001337132122
20
-71.162499999999966
30
0
11
-95
21
-71.162499999999966
31
0
0
LINE
5
147
100
AcDbEntity
8
0
100
AcDbLine
10
-95
20
-56.162499999999973
30
0
11
-90.200001337132122
21
-56.162499999999973
31
0
0
LINE
5
148
100
AcDbEntity
8
0
100
AcDbLine
10
-90.200001337132122
20
-56.162499999999973
30
0
11
-90.200000551220981
21
-38.324999999998141
31
0
0
LINE
5
149
100
AcDbEntity
8
0
100
AcDbLine
10
95
20
-56.162499999999973
30
0
11
95
21
-71.162499999999966
31
0
0
LINE
5
150
100
AcDbEntity
8
0
100
AcDbLine
10
90.200001337132122
20
-71.162499999999966
30
0
11
95
21
-71.162499999999966
31
0
0
LINE
5
151
100
AcDbEntity
8
0
100
AcDbLine
10
90.200001337132122
20
-88.800000000031417
30
0
11
90.200001337132122
21
-71.162499999999966
31
0
0
LINE
5
152
100
AcDbEntity
8
0
100
AcDbLine
10
95
20
-56.162499999999973
30
0
11
90.200001337132122
21
-56.162499999999973
31
0
0
LINE
5
153
100
AcDbEntity
8
0
100
AcDbLine
10
90.200001337132122
20
-56.162499999999973
30
0
11
90.200000551220981
21
-38.324999999998148
31
0
0
ENDSEC
0
SECTION
2
OBJECTS
0
DICTIONARY
5
C
100
AcDbDictionary
3
ACAD_GROUP
350
D
3
ACAD_MLINESTYLE
350
17
0
DICTIONARY
5
D
100
AcDbDictionary
0
DICTIONARY
5
1A
330
C
100
AcDbDictionary
0
DICTIONARY
5
17
100
AcDbDictionary
0
ENDSEC
0
EOF
