0
SECTION
2
HEADER
9
$INSUNITS
70
4
9
$ACADVER
1
AC1014
9
$HANDSEED
5
FFFF
0
ENDSEC
0
SECTION
2
TABLES
0
TABLE
2
VPORT
5
8
100
AcDbSymbolTable
0
ENDTAB
0
TABLE
2
LTYPE
5
5
100
AcDbSymbolTable
0
LTYPE
5
14
100
AcDbSymbolTableRecord
100
AcDbLinetypeTableRecord
2
BYBLOCK
70
0
0
LTYPE
5
15
100
AcDbSymbolTableRecord
100
AcDbLinetypeTableRecord
2
BYLAYER
70
0
0
ENDTAB
0
TABLE
2
LAYER
5
2
100
AcDbSymbolTable
70
2
0
LAYER
5
50
100
AcDbSymbolTableRecord
100
AcDbLayerTableRecord
2
0
70
0
6
CONTINUOUS
0
ENDTAB
0
TABLE
2
STYLE
5
3
100
AcDbSymbolTable
70
1
0
STYLE
5
11
100
AcDbSymbolTableRecord
100
AcDbTextStyleTableRecord
2
STANDARD
70
0
0
ENDTAB
0
TABLE
2
VIEW
5
6
100
AcDbSymbolTable
70
0
0
ENDTAB
0
TABLE
2
UCS
5
7
100
AcDbSymbolTable
70
0
0
ENDTAB
0
TABLE
2
APPID
5
9
100
AcDbSymbolTable
70
2
0
APPID
5
12
100
AcDbSymbolTableRecord
100
AcDbRegAppTableRecord
2
ACAD
70
0
0
ENDTAB
0
TABLE
2
DIMSTYLE
5
A
100
AcDbSymbolTable
70
1
0
ENDTAB
0
TABLE
2
BLOCK_RECORD
5
1
100
AcDbSymbolTable
70
1
0
BLOCK_RECORD
5
1F
100
AcDbSymbolTableRecord
100
AcDbBlockTableRecord
2
*MODEL_SPACE
0
BLOCK_RECORD
5
1B
100
AcDbSymbolTableRecord
100
AcDbBlockTableRecord
2
*PAPER_SPACE
0
ENDTAB
0
ENDSEC
0
SECTION
2
BLOCKS
0
BLOCK
5
20
100
AcDbEntity
100
AcDbBlockBegin
2
*MODEL_SPACE
0
ENDBLK
5
21
100
AcDbEntity
100
AcDbBlockEnd
0
BLOCK
5
1C
100
AcDbEntity
100
AcDbBlockBegin
2
*PAPER_SPACE
0
ENDBLK
5
1D
100
AcDbEntity
100
AcDbBlockEnd
0
ENDSEC
0
SECTION
2
ENTITIES
0
LINE
5
100
100
AcDbEntity
8
0
100
AcDbLine
10
-95
20
-91.575000000000017
30
0
11
-95
21
-76.575000000000017
31
0
0
LINE
5
101
100
AcDbEntity
8
0
100
AcDbLine
10
-95
20
-63.325000000000003
30
0
11
-95
21
-48.325000000000003
31
0
0
LINE
5
102
100
AcDbEntity
8
0
100
AcDbLine
10
-80
20
-101.57500000000002
30
0
11
-80
21
-106.37500000000003
31
0
0
LINE
5
103
100
AcDbEntity
8
0
100
AcDbLine
10
-80
20
-38.325000000000003
30
0
11
-80
21
-33.525000000000006
31
0
0
LINE
5
104
100
AcDbEntity
8
0
100
AcDbLine
10
-95
20
-48.325000000000003
30
0
11
-90.199999999999989
21
-48.325000000000003
31
0
0
LINE
5
105
100
AcDbEntity
8
0
100
AcDbLine
10
-90.199999999999989
20
-48.325000000000003
30
0
11
-90.199999999999989
21
-38.325000000000003
31
0
0
LINE
5
106
100
AcDbEntity
8
0
100
AcDbLine
10
-90.199999999999989
20
-38.325000000000003
30
0
11
-80
21
-38.325000000000003
31
0
0
LINE
5
107
100
AcDbEntity
8
0
100
AcDbLine
10
-80
20
-33.525000000000006
30
0
11
-65
21
-33.525000000000006
31
0
0
LINE
5
108
100
AcDbEntity
8
0
100
AcDbLine
10
-65
20
-33.525000000000006
30
0
11
-65
21
-38.325000000000003
31
0
0
LINE
5
109
100
AcDbEntity
8
0
100
AcDbLine
10
-65
20
-38.325000000000003
30
0
11
-40
21
-38.325000000000003
31
0
0
LINE
5
110
100
AcDbEntity
8
0
100
AcDbLine
10
-40
20
-38.325000000000003
30
0
11
-40
21
-33.525000000000006
31
0
0
LINE
5
111
100
AcDbEntity
8
0
100
AcDbLine
10
-40
20
-33.525000000000006
30
0
11
-25
21
-33.525000000000006
31
0
0
LINE
5
112
100
AcDbEntity
8
0
100
AcDbLine
10
-25
20
-33.525000000000006
30
0
11
-25
21
-38.325000000000003
31
0
0
LINE
5
113
100
AcDbEntity
8
0
100
AcDbLine
10
-25
20
-38.325000000000003
30
0
11
-5.000000074505806
21
-38.325000000000003
31
0
0
LINE
5
114
100
AcDbEntity
8
0
100
AcDbLine
10
-5.000000074505806
20
-38.325000000000003
30
0
11
-5.000000074505806
21
-33.525000000000006
31
0
0
LINE
5
115
100
AcDbEntity
8
0
100
AcDbLine
10
-5.000000074505806
20
-33.525000000000006
30
0
11
5.000000074505806
21
-33.525000000000006
31
0
0
LINE
5
116
100
AcDbEntity
8
0
100
AcDbLine
10
4.999999925494194
20
-38.325000000000003
30
0
11
5.000000074505806
21
-33.525000000000006
31
0
0
LINE
5
117
100
AcDbEntity
8
0
100
AcDbLine
10
4.999999925494194
20
-38.325000000000003
30
0
11
25
21
-38.325000000000003
31
0
0
LINE
5
118
100
AcDbEntity
8
0
100
AcDbLine
10
25
20
-38.325000000000003
30
0
11
25
21
-33.525000000000006
31
0
0
LINE
5
119
100
AcDbEntity
8
0
100
AcDbLine
10
25
20
-33.525000000000006
30
0
11
40
21
-33.525000000000006
31
0
0
LINE
5
120
100
AcDbEntity
8
0
100
AcDbLine
10
40
20
-33.525000000000006
30
0
11
40
21
-38.325000000000003
31
0
0
LINE
5
121
100
AcDbEntity
8
0
100
AcDbLine
10
40
20
-38.325000000000003
30
0
11
65
21
-38.325000000000003
31
0
0
LINE
5
122
100
AcDbEntity
8
0
100
AcDbLine
10
65
20
-38.325000000000003
30
0
11
65
21
-33.525000000000006
31
0
0
LINE
5
123
100
AcDbEntity
8
0
100
AcDbLine
10
65
20
-33.525000000000006
30
0
11
80
21
-33.525000000000006
31
0
0
LINE
5
124
100
AcDbEntity
8
0
100
AcDbLine
10
80
20
-33.525000000000006
30
0
11
80
21
-38.325000000000003
31
0
0
LINE
5
125
100
AcDbEntity
8
0
100
AcDbLine
10
-95
20
-63.325000000000003
30
0
11
-90.199999999999989
21
-63.325000000000003
31
0
0
LINE
5
126
100
AcDbEntity
8
0
100
AcDbLine
10
-90.199999999999989
20
-63.325000000000003
30
0
11
-90.199999999999989
21
-76.575000000000017
31
0
0
LINE
5
127
100
AcDbEntity
8
0
100
AcDbLine
10
-90.199999999999989
20
-76.575000000000017
30
0
11
-95
21
-76.575000000000017
31
0
0
LINE
5
128
100
AcDbEntity
8
0
100
AcDbLine
10
-95
20
-91.575000000000017
30
0
11
-90.199999999999989
21
-91.575000000000017
31
0
0
LINE
5
129
100
AcDbEntity
8
0
100
AcDbLine
10
-90.199999999999989
20
-91.575000000000017
30
0
11
-90.199999999999989
21
-101.57500000000002
31
0
0
LINE
5
130
100
AcDbEntity
8
0
100
AcDbLine
10
-90.199999999999989
20
-101.57500000000002
30
0
11
-80
21
-101.57500000000002
31
0
0
LINE
5
131
100
AcDbEntity
8
0
100
AcDbLine
10
-80
20
-106.37500000000003
30
0
11
-65
21
-106.37500000000003
31
0
0
LINE
5
132
100
AcDbEntity
8
0
100
AcDbLine
10
-65
20
-106.37500000000003
30
0
11
-65
21
-101.57500000000002
31
0
0
LINE
5
133
100
AcDbEntity
8
0
100
AcDbLine
10
-65
20
-101.57500000000002
30
0
11
-40
21
-101.57500000000002
31
0
0
LINE
5
134
100
AcDbEntity
8
0
100
AcDbLine
10
-40
20
-101.57500000000002
30
0
11
-40
21
-106.37500000000003
31
0
0
LINE
5
135
100
AcDbEntity
8
0
100
AcDbLine
10
-40
20
-106.37500000000003
30
0
11
-25
21
-106.37500000000003
31
0
0
LINE
5
136
100
AcDbEntity
8
0
100
AcDbLine
10
-25
20
-106.37500000000003
30
0
11
-25
21
-101.57500000000002
31
0
0
LINE
5
137
100
AcDbEntity
8
0
100
AcDbLine
10
-25
20
-101.57500000000002
30
0
11
-5.000000074505806
21
-101.57500000000002
31
0
0
LINE
5
138
100
AcDbEntity
8
0
100
AcDbLine
10
-5.000000074505806
20
-101.57500000000002
30
0
11
-5.000000074505806
21
-106.37500000000003
31
0
0
LINE
5
139
100
AcDbEntity
8
0
100
AcDbLine
10
-5.000000074505806
20
-106.37500000000003
30
0
11
5
21
-106.37500000000003
31
0
0
LINE
5
140
100
AcDbEntity
8
0
100
AcDbLine
10
5
20
-106.37500000000003
30
0
11
4.999999925494194
21
-101.57500000000002
31
0
0
LINE
5
141
100
AcDbEntity
8
0
100
AcDbLine
10
4.999999925494194
20
-101.57500000000002
30
0
11
25
21
-101.57500000000002
31
0
0
LINE
5
142
100
AcDbEntity
8
0
100
AcDbLine
10
25
20
-101.57500000000002
30
0
11
25
21
-106.37500000000003
31
0
0
LINE
5
143
100
AcDbEntity
8
0
100
AcDbLine
10
40
20
-101.57500000000002
30
0
11
65
21
-101.57500000000002
31
0
0
LINE
5
144
100
AcDbEntity
8
0
100
AcDbLine
10
65
20
-101.57500000000002
30
0
11
65
21
-106.37500000000003
31
0
0
LINE
5
145
100
AcDbEntity
8
0
100
AcDbLine
10
65
20
-106.37500000000003
30
0
11
80
21
-106.37500000000003
31
0
0
LINE
5
146
100
AcDbEntity
8
0
100
AcDbLine
10
80
20
-106.37500000000003
30
0
11
80
21
-101.57500000000002
31
0
0
LINE
5
147
100
AcDbEntity
8
0
100
AcDbLine
10
80
20
-38.325000000000003
30
0
11
90.199999999999989
21
-38.325000000000003
31
0
0
LINE
5
148
100
AcDbEntity
8
0
100
AcDbLine
10
90.199999999999989
20
-38.325000000000003
30
0
11
90.199999999999989
21
-48.325000000000003
31
0
0
LINE
5
149
100
AcDbEntity
8
0
100
AcDbLine
10
90.199999999999989
20
-48.325000000000003
30
0
11
95
21
-48.325000000000003
31
0
0
LINE
5
150
100
AcDbEntity
8
0
100
AcDbLine
10
95
20
-48.325000000000003
30
0
11
95
21
-63.325000000000003
31
0
0
LINE
5
151
100
AcDbEntity
8
0
100
AcDbLine
10
95
20
-63.325000000000003
30
0
11
90.199999999999989
21
-63.325000000000003
31
0
0
LINE
5
152
100
AcDbEntity
8
0
100
AcDbLine
10
90.199999999999989
20
-63.325000000000003
30
0
11
90.199999999999989
21
-76.575000000000017
31
0
0
LINE
5
153
100
AcDbEntity
8
0
100
AcDbLine
10
90.199999999999989
20
-76.575000000000017
30
0
11
95
21
-76.575000000000017
31
0
0
LINE
5
154
100
AcDbEntity
8
0
100
AcDbLine
10
95
20
-76.575000000000017
30
0
11
95
21
-91.575000000000017
31
0
0
LINE
5
155
100
AcDbEntity
8
0
100
AcDbLine
10
95
20
-91.575000000000017
30
0
11
90.199999999999989
21
-91.575000000000017
31
0
0
LINE
5
156
100
AcDbEntity
8
0
100
AcDbLine
10
90.199999999999989
20
-91.575000000000017
30
0
11
90.199999999999989
21
-101.57500000000002
31
0
0
LINE
5
157
100
AcDbEntity
8
0
100
AcDbLine
10
90.199999999999989
20
-101.57500000000002
30
0
11
80
21
-101.57500000000002
31
0
0
LINE
5
158
100
AcDbEntity
8
0
100
AcDbLine
10
40
20
-101.57500000000002
30
0
11
40
21
-106.37500000000003
31
0
0
LINE
5
159
100
AcDbEntity
8
0
100
AcDbLine
10
40
20
-106.37500000000003
30
0
11
25
21
-106.37500000000003
31
0
0
LWPOLYLINE
5
160
100
AcDbEntity
8
0
100
AcDbPolyline
90
8
70
1
43
0.0
10
-25.000003132801389
20
-90.324999654406895
10
-25.000000345593069
20
-49.999999654406906
42
-0.41421354212872058
10
-20.000000345593083
20
-45
10
20
20
-45
42
-0.41421356237309531
10
25
20
-50
10
24.999999999999993
20
-90.325000000000003
42
-0.41421356237309503
10
20.000000000000007
20
-95.324999999999989
10
-20.000003063682783
20
-95.325000069118602
42
-0.41421358261747004
0
LWPOLYLINE
5
161
100
AcDbEntity
8
0
100
AcDbPolyline
90
8
70
1
43
0.0
10
-87.000001236796379
20
-94.000001385807991
10
-87.000001236796379
20
-98.000001385807991
10
-83.000001236796379
20
-98.000001385807991
10
-83.000001236796379
20
-94.325000972300444
10
-73.00000111758709
20
-94.325000972300444
10
-73.00000111758709
20
-83.000001266598701
10
-84.500002533197403
20
-83.000001266598701
10
-84.500002533197403
20
-94.000001385807991
0
ENDSEC
0
SECTION
2
OBJECTS
0
DICTIONARY
5
C
100
AcDbDictionary
3
ACAD_GROUP
350
D
3
ACAD_MLINESTYLE
350
17
0
DICTIONARY
5
D
100
AcDbDictionary
0
DICTIONARY
5
1A
330
C
100
AcDbDictionary
0
DICTIONARY
5
17
100
AcDbDictionary
0
ENDSEC
0
EOF
