0
SECTION
2
HEADER
9
$INSUNITS
70
4
9
$ACADVER
1
AC1014
9
$HANDSEED
5
FFFF
0
ENDSEC
0
SECTION
2
TABLES
0
TABLE
2
VPORT
5
8
100
AcDbSymbolTable
0
ENDTAB
0
TABLE
2
LTYPE
5
5
100
AcDbSymbolTable
0
LTYPE
5
14
100
AcDbSymbolTableRecord
100
AcDbLinetypeTableRecord
2
BYBLOCK
70
0
0
LTYPE
5
15
100
AcDbSymbolTableRecord
100
AcDbLinetypeTableRecord
2
BYLAYER
70
0
0
ENDTAB
0
TABLE
2
LAYER
5
2
100
AcDbSymbolTable
70
2
0
LAYER
5
50
100
AcDbSymbolTableRecord
100
AcDbLayerTableRecord
2
0
70
0
6
CONTINUOUS
0
ENDTAB
0
TABLE
2
STYLE
5
3
100
AcDbSymbolTable
70
1
0
STYLE
5
11
100
AcDbSymbolTableRecord
100
AcDbTextStyleTableRecord
2
STANDARD
70
0
0
ENDTAB
0
TABLE
2
VIEW
5
6
100
AcDbSymbolTable
70
0
0
ENDTAB
0
TABLE
2
UCS
5
7
100
AcDbSymbolTable
70
0
0
ENDTAB
0
TABLE
2
APPID
5
9
100
AcDbSymbolTable
70
2
0
APPID
5
12
100
AcDbSymbolTableRecord
100
AcDbRegAppTableRecord
2
ACAD
70
0
0
ENDTAB
0
TABLE
2
DIMSTYLE
5
A
100
AcDbSymbolTable
70
1
0
ENDTAB
0
TABLE
2
BLOCK_RECORD
5
1
100
AcDbSymbolTable
70
1
0
BLOCK_RECORD
5
1F
100
AcDbSymbolTableRecord
100
AcDbBlockTableRecord
2
*MODEL_SPACE
0
BLOCK_RECORD
5
1B
100
AcDbSymbolTableRecord
100
AcDbBlockTableRecord
2
*PAPER_SPACE
0
ENDTAB
0
ENDSEC
0
SECTION
2
BLOCKS
0
BLOCK
5
20
100
AcDbEntity
100
AcDbBlockBegin
2
*MODEL_SPACE
0
ENDBLK
5
21
100
AcDbEntity
100
AcDbBlockEnd
0
BLOCK
5
1C
100
AcDbEntity
100
AcDbBlockBegin
2
*PAPER_SPACE
0
ENDBLK
5
1D
100
AcDbEntity
100
AcDbBlockEnd
0
ENDSEC
0
SECTION
2
ENTITIES
0
SPLINE
5
100
100
AcDbEntity
8
0
100
AcDbSpline
70
0
71
3
72
8
73
4
74
0
42
0.000000001
43
0.0000000001
44
0.0000000001
40
0
40
0
40
0
40
0
40
1
40
1
40
1
40
1
10
-35.723804895622926
20
21.949363233526515
30
0
10
-35.508006133728429
20
22.076510518159225
30
0
10
-35.314906034593122
20
22.197766382743325
30
0
10
-35.142976050433035
20
22.311359088763325
30
0
0
ARC
5
101
100
AcDbEntity
8
0
100
AcDbCircle
10
-1.3322676295501878e-13
20
59.999999999998565
30
0
40
54.978477052566589
210
0
220
0
230
1
100
AcDbArc
50
229.94031369808863
51
231.30968630191103
0
ARC
5
102
100
AcDbEntity
8
0
100
AcDbCircle
10
27.261414227021767
20
31.000000320961068
30
0
40
33.229274645419132
210
0
220
0
230
1
100
AcDbArc
50
145.12520910074934
51
209.53355388132042
0
SPLINE
5
103
100
AcDbEntity
8
0
100
AcDbSpline
70
0
71
3
72
8
73
4
74
0
42
0.000000001
43
0.0000000001
44
0.0000000001
40
0
40
0
40
0
40
0
40
1
40
1
40
1
40
1
10
-27.61407102193413
20
15.711126948744418
30
0
10
-27.42722397744113
20
15.877931383904205
30
0
10
-27.261490088232936
20
16.034529311572427
30
0
10
-27.115024528104932
20
16.17948124157202
30
0
0
SPLINE
5
104
100
AcDbEntity
8
0
100
AcDbSpline
70
0
71
3
72
8
73
4
74
0
42
0.000000001
43
0.0000000001
44
0.0000000001
40
0
40
0
40
0
40
0
40
1
40
1
40
1
40
1
10
-29.99596647979353
20
13.925333056409013
30
0
10
-28.977199078810134
20
14.57718239885871
30
0
10
-28.195857310986526
20
15.191560577922125
30
0
10
-27.61407102193413
20
15.711126948744418
30
0
0
ARC
5
105
100
AcDbEntity
8
0
100
AcDbCircle
10
-21.764452050206824
20
13.182086930177519
30
0
40
0.40000000000002928
210
0
220
0
230
1
100
AcDbArc
50
-10.483607134335992
51
65.069373625781793
0
ARC
5
106
100
AcDbEntity
8
0
100
AcDbCircle
10
-10.775520529620453
20
65.280923907400293
30
0
40
2.0000000000001452
210
0
220
0
230
1
100
AcDbArc
50
263.300436484817
51
333.89120634984607
0
SPLINE
5
107
100
AcDbEntity
8
0
100
AcDbSpline
70
0
71
3
72
8
73
4
74
0
42
0.000000001
43
0.0000000001
44
0.0000000001
40
0
40
0
40
0
40
0
40
1
40
1
40
1
40
1
10
-30.108409729859034
20
18.179597288447908
30
0
10
-30.186277907910632
20
17.988810053127615
30
0
10
-30.267531914535635
20
17.775764472583315
30
0
10
-30.350135849797937
20
17.539307018685424
30
0
0
ARC
5
108
100
AcDbEntity
8
0
100
AcDbCircle
10
-3.8191672047105385e-13
20
59.999999999998735
30
0
40
54.978477052566596
210
0
220
0
230
1
100
AcDbArc
50
235.56531369808894
51
236.934686301911
0
ARC
5
109
100
AcDbEntity
8
0
100
AcDbCircle
10
-8.3522760610822377
20
51.383766217219332
30
0
40
2.0000000000001532
210
-0
220
0
230
1
100
AcDbArc
50
-24.699563515182856
51
45.891206349845753
0
ARC
5
110
100
AcDbEntity
8
0
100
AcDbCircle
10
-5.9745874316265013
20
13.381288037720616
30
0
40
0.99999999999999445
210
0
220
0
230
1
100
AcDbArc
50
-97.303135031484601
51
29.176651514107046
0
ARC
5
111
100
AcDbEntity
8
0
100
AcDbCircle
10
-30.479975943799332
20
18.327713960899423
30
0
40
0.40000000000000618
210
0
220
0
230
1
100
AcDbArc
50
-21.733607134328015
51
53.81937362601812
0
ARC
5
112
100
AcDbEntity
8
0
100
AcDbCircle
10
1.6875389974302379e-13
20
59.999999999999844
30
0
40
51.229529895998105
210
0
220
0
230
1
100
AcDbArc
50
227.43252796820698
51
228.19247203179395
0
SPLINE
5
113
100
AcDbEntity
8
0
100
AcDbSpline
70
0
71
3
72
8
73
4
74
0
42
0.000000001
43
0.0000000001
44
0.0000000001
40
0
40
0
40
0
40
0
40
1
40
1
40
1
40
1
10
21.644819373728275
20
9.4615519302543305
30
0
10
21.668823296039072
20
10.670774157254925
30
0
10
21.592076737703778
20
11.66176632212732
30
0
10
21.48329623296717
20
12.434159552035613
30
0
0
SPLINE
5
114
100
AcDbEntity
8
0
100
AcDbSpline
70
0
71
3
72
8
73
4
74
0
42
0.000000001
43
0.0000000001
44
0.0000000001
40
0
40
0
40
0
40
0
40
1
40
1
40
1
40
1
10
-34.062545788761028
20
21.332114179774226
30
0
10
-34.158739429469236
20
21.149878053274715
30
0
10
-34.26048429440813
20
20.945822630801825
30
0
10
-34.365867352584935
20
20.718600385689214
30
0
0
SPLINE
5
115
100
AcDbEntity
8
0
100
AcDbSpline
70
0
71
3
72
8
73
4
74
0
42
0.000000001
43
0.0000000001
44
0.0000000001
40
0
40
0
40
0
40
0
40
1
40
1
40
1
40
1
10
-34.367634797909226
20
17.08731402700062
30
0
10
-33.289880631946431
20
17.636167869392416
30
0
10
-32.452081646104638
20
18.171002763894926
30
0
10
-31.822170407172933
20
18.631042252293923
30
0
0
ARC
5
116
100
AcDbEntity
8
0
100
AcDbCircle
10
-34.417804837153028
20
21.515937487697023
30
0
40
0.4000000000000844
210
0
220
0
230
1
100
AcDbArc
50
-27.358607134327794
51
48.194373625946824
0
SPLINE
5
117
100
AcDbEntity
8
0
100
AcDbSpline
70
0
71
3
72
8
73
4
74
0
42
0.000000001
43
0.0000000001
44
0.0000000001
40
0
40
0
40
0
40
0
40
1
40
1
40
1
40
1
10
18.045057819441872
20
11.731601355437018
30
0
10
18.160430366201076
20
11.56086062283773
30
0
10
18.292428985064568
20
11.374938602624418
30
0
10
18.443143885021065
20
11.174887217835909
30
0
0
ARC
5
118
100
AcDbEntity
8
0
100
AcDbCircle
10
-46.525118576573938
20
37.616486006551717
30
0
40
0.40000000000000724
210
0
220
0
230
1
100
AcDbArc
50
-49.85860713432934
51
25.694373625917112
0
ARC
5
119
100
AcDbEntity
8
0
100
AcDbCircle
10
-38.484062512302032
20
25.58219516284602
30
0
40
0.39999999999998959
210
0
220
-0
230
1
100
AcDbArc
50
41.805626374102992
51
117.35860713431424
0
SPLINE
5
120
100
AcDbEntity
8
0
100
AcDbSpline
70
0
71
3
72
8
73
4
74
0
42
0.000000001
43
0.0000000001
44
0.0000000001
40
0
40
0
40
0
40
0
40
1
40
1
40
1
40
1
10
-43.820518758427028
20
32.884975471894222
30
0
10
-43.96547068842662
20
32.738509911766123
30
0
10
-44.122068616094936
20
32.572776022557917
30
0
10
-44.288873051254633
20
32.385928978065017
30
0
0
SPLINE
5
121
100
AcDbEntity
8
0
100
AcDbSpline
70
0
71
3
72
8
73
4
74
0
42
0.000000001
43
0.0000000001
44
0.0000000001
40
0
40
0
40
0
40
0
40
1
40
1
40
1
40
1
10
-21.483296232967835
20
12.434159552035613
30
0
10
-21.592076737704424
20
11.66176632212732
30
0
10
-21.668823296039726
20
10.670774157254819
30
0
10
-21.644819373728829
20
9.4615519302543305
30
0
0
ARC
5
122
100
AcDbEntity
8
0
100
AcDbCircle
10
-44.45918267095194
20
33.751391779942011
30
0
40
0.40000000000000707
210
0
220
-0
230
1
100
AcDbArc
50
30.555626374085463
51
106.10860713433314
0
SPLINE
5
123
100
AcDbEntity
8
0
100
AcDbSpline
70
0
71
3
72
8
73
4
74
0
42
0.000000001
43
0.0000000001
44
0.0000000001
40
0
40
0
40
0
40
0
40
1
40
1
40
1
40
1
10
-44.288873051254633
20
32.385928978065017
30
0
10
-44.808439422076923
20
31.804142689012522
30
0
10
-45.422817601140331
20
31.022800921189013
30
0
10
-46.074666943590039
20
30.004033520205624
30
0
0
ARC
5
124
100
AcDbEntity
8
0
100
AcDbCircle
10
17.070692309452671
20
11.27423862744493
30
0
40
0.39999999999999286
210
0
220
0
230
1
100
AcDbArc
50
109.30562637408516
51
184.85860713433291
0
SPLINE
5
125
100
AcDbEntity
8
0
100
AcDbSpline
70
0
71
3
72
8
73
4
74
0
42
0.000000001
43
0.0000000001
44
0.0000000001
40
0
40
0
40
0
40
0
40
1
40
1
40
1
40
1
10
-18.443143885021733
20
11.174887217835909
30
0
10
-18.292428985065126
20
11.374938602624418
30
0
10
-18.160430366201634
20
11.56086062283773
30
0
10
-18.045057819442533
20
11.731601355437018
30
0
0
ARC
5
126
100
AcDbEntity
8
0
100
AcDbCircle
10
-41.264344516084535
20
28.969978586583824
30
0
40
0.40000000000000369
210
0
220
0
230
1
100
AcDbArc
50
-38.60860713432816
51
36.944373625937615
0
SPLINE
5
127
100
AcDbEntity
8
0
100
AcDbSpline
70
0
71
3
72
8
73
4
74
0
42
0.000000001
43
0.0000000001
44
0.0000000001
40
0
40
0
40
0
40
0
40
1
40
1
40
1
40
1
10
-37.688640911235723
20
24.857023949566024
30
0
10
-37.802233617255723
20
24.685093965405933
30
0
10
-37.923489481839823
20
24.491993866270718
30
0
10
-38.050636766472536
20
24.276195104376121
30
0
0
SPLINE
5
128
100
AcDbEntity
8
0
100
AcDbSpline
70
0
71
3
72
8
73
4
74
0
42
0.000000001
43
0.0000000001
44
0.0000000001
40
0
40
0
40
0
40
0
40
1
40
1
40
1
40
1
10
-39.281399614309827
20
25.634132647414116
30
0
10
-39.054177369197234
20
25.739515705590925
30
0
10
-38.850121946724236
20
25.841260570529823
30
0
10
-38.667885820224726
20
25.937454211238027
30
0
0
SPLINE
5
129
100
AcDbEntity
8
0
100
AcDbSpline
70
0
71
3
72
8
73
4
74
0
42
0.000000001
43
0.0000000001
44
0.0000000001
40
0
40
0
40
0
40
0
40
1
40
1
40
1
40
1
10
-45.344671179627028
20
28.911517653137224
30
0
10
-44.154000885715234
20
29.123882513117429
30
0
10
-43.197022868192633
20
29.392487388414725
30
0
10
-42.460692981313628
20
29.649864150201122
30
0
0
ARC
5
130
100
AcDbEntity
8
0
100
AcDbCircle
10
-41.672286039099625
20
29.520024056199823
30
0
40
0.39999999999993124
210
0
220
-0
230
1
100
AcDbArc
50
36.180626374151537
51
111.73360713432803
0
ARC
5
131
100
AcDbEntity
8
0
100
AcDbCircle
10
-44.107119381854929
20
33.164009668097414
30
0
40
0.40000000000000197
210
0
220
0
230
1
100
AcDbArc
50
-44.233607134328551
51
31.319373625916267
0
SPLINE
5
132
100
AcDbEntity
8
0
100
AcDbSpline
70
0
71
3
72
8
73
4
74
0
42
0.000000001
43
0.0000000001
44
0.0000000001
40
0
40
0
40
0
40
0
40
1
40
1
40
1
40
1
10
-45.231066663531536
20
33.957884052293615
30
0
10
-44.987651215390123
20
34.016913343589025
30
0
10
-44.767667222177735
20
34.07689397139842
30
0
10
-44.570166263407735
20
34.135686773671623
30
0
0
SPLINE
5
133
100
AcDbEntity
8
0
100
AcDbSpline
70
0
71
3
72
8
73
4
74
0
42
0.000000001
43
0.0000000001
44
0.0000000001
40
0
40
0
40
0
40
0
40
1
40
1
40
1
40
1
10
-42.460692981313628
20
29.649864150201122
30
0
10
-42.224235527415736
20
29.732468085463424
30
0
10
-42.011189946871426
20
29.813722092088515
30
0
10
-41.820402711551132
20
29.891590270140025
30
0
0
ARC
5
134
100
AcDbEntity
8
0
100
AcDbCircle
10
-4.1744385725905886e-13
20
59.99999999999892
30
0
40
54.978477052566568
210
0
220
0
230
1
100
AcDbArc
50
201.81531369808903
51
203.184686301911
0
SPLINE
5
135
100
AcDbEntity
8
0
100
AcDbSpline
70
0
71
3
72
8
73
4
74
0
42
0.000000001
43
0.0000000001
44
0.0000000001
40
0
40
0
40
0
40
0
40
1
40
1
40
1
40
1
10
23.140033037366578
20
13.217737703439223
30
0
10
23.668091456539379
20
12.643648158368528
30
0
10
24.385451257995776
20
11.955643492461832
30
0
10
25.335420607013369
20
11.207076315459226
30
0
0
ARC
5
136
100
AcDbEntity
8
0
100
AcDbCircle
10
-1.1102230246251565e-12
20
59.999999999997904
30
0
40
51.229529895995896
210
0
220
0
230
1
100
AcDbArc
50
221.80752796820596
51
222.56747203179373
0
SPLINE
5
137
100
AcDbEntity
8
0
100
AcDbSpline
70
0
71
3
72
8
73
4
74
0
42
0.000000001
43
0.0000000001
44
0.0000000001
40
0
40
0
40
0
40
0
40
1
40
1
40
1
40
1
10
-40.951773819028432
20
28.720379789828225
30
0
10
-41.081671630505134
20
28.560411727741517
30
0
10
-41.221270734473237
20
28.380126611458021
30
0
10
-41.368957747705124
20
28.177829592826118
30
0
0
SPLINE
5
138
100
AcDbEntity
8
0
100
AcDbSpline
70
0
71
3
72
8
73
4
74
0
42
0.000000001
43
0.0000000001
44
0.0000000001
40
0
40
0
40
0
40
0
40
1
40
1
40
1
40
1
10
-46.267248147449827
20
37.310703662745922
30
0
10
-46.425858229647538
20
37.179151147986822
30
0
10
-46.597946857367432
20
37.029564593806427
30
0
10
-46.782262296559828
20
36.859966962631816
30
0
0
ARC
5
139
100
AcDbEntity
8
0
100
AcDbCircle
10
-31.030021413415227
20
18.735655483914506
30
0
40
0.40000000000001062
210
0
220
-0
230
1
100
AcDbArc
50
53.055626374105536
51
128.60860713433215
0
SPLINE
5
140
100
AcDbEntity
8
0
100
AcDbSpline
70
0
71
3
72
8
73
4
74
0
42
0.000000001
43
0.0000000001
44
0.0000000001
40
0
40
0
40
0
40
0
40
1
40
1
40
1
40
1
10
-30.350135849797937
20
17.539307018685424
30
0
10
-30.607512611584333
20
16.802977131806429
30
0
10
-30.876117486881629
20
15.845999114283806
30
0
10
-31.088482346861834
20
14.65532882037202
30
0
0
ARC
5
141
100
AcDbEntity
8
0
100
AcDbCircle
10
-17.070692309453328
20
11.27423862744493
30
0
40
0.40000000000000302
210
0
220
0
230
1
100
AcDbArc
50
-4.858607134327614
51
70.694373625916285
0
SPLINE
5
142
100
AcDbEntity
8
0
100
AcDbSpline
70
0
71
3
72
8
73
4
74
0
42
0.000000001
43
0.0000000001
44
0.0000000001
40
0
40
0
40
0
40
0
40
1
40
1
40
1
40
1
10
-31.822170407172933
20
18.631042252293923
30
0
10
-31.619873388541031
20
18.778729265525804
30
0
10
-31.439588272257531
20
18.918328369493906
30
0
10
-31.279620210170833
20
19.048226180970609
30
0
0
ARC
5
143
100
AcDbEntity
8
0
100
AcDbCircle
10
-26.248608220057026
20
15.540817329047112
30
0
40
0.39999999999999952
210
0
220
0
230
1
100
AcDbArc
50
-16.108607134327066
51
59.444373625915865
0
ARC
5
144
100
AcDbEntity
8
0
100
AcDbCircle
10
-34.925216425982427
20
21.975828544760017
30
0
40
0.40000000000009095
210
0
220
-0
230
1
100
AcDbArc
50
47.430626374039882
51
122.98360713431491
0
ARC
5
145
100
AcDbEntity
8
0
100
AcDbCircle
10
-26.835990331901726
20
15.892880618144112
30
0
40
0.40000000000001457
210
0
220
-0
230
1
100
AcDbArc
50
58.680626374085548
51
134.23360713432857
0
SPLINE
5
146
100
AcDbEntity
8
0
100
AcDbSpline
70
0
71
3
72
8
73
4
74
0
42
0.000000001
43
0.0000000001
44
0.0000000001
40
0
40
0
40
0
40
0
40
1
40
1
40
1
40
1
10
3.4758061954065855
20
7.9235181118518128
30
0
10
3.7439740032580726
20
7.1910493229939121
30
0
10
4.1434400542375993
20
6.280894182828316
30
0
10
4.7346330356568433
20
5.225770758162227
30
0
0
SPLINE
5
147
100
AcDbEntity
8
0
100
AcDbSpline
70
0
71
3
72
8
73
4
74
0
42
0.000000001
43
0.0000000001
44
0.0000000001
40
0
40
0
40
0
40
0
40
1
40
1
40
1
40
1
10
-16.58695949582313
20
112.41665492668714
30
0
10
-16.72937233740063
20
111.21560823104522
30
0
10
-16.750129552810424
20
110.22186548613413
30
0
10
-16.717580631542432
20
109.44252918674655
30
0
0
ARC
5
148
100
AcDbEntity
8
0
100
AcDbCircle
10
-1.5099033134902129e-13
20
59.999999999998806
30
0
40
54.978477052566603
210
0
220
0
230
1
100
AcDbArc
50
111.81531369808901
51
113.18468630191097
0
ARC
5
149
100
AcDbEntity
8
0
100
AcDbCircle
10
-4.8849813083506888e-13
20
59.99999999999865
30
0
40
54.978477052566603
210
0
220
0
230
1
100
AcDbArc
50
291.81531369808897
51
293.18468630191103
0
ARC
5
150
100
AcDbEntity
8
0
100
AcDbCircle
10
1.6926381273040647
20
71.880024249554154
30
0
40
2.0000000000001537
210
0
220
0
230
1
100
AcDbArc
50
191.30043648481677
51
261.89120634984585
0
ARC
5
151
100
AcDbEntity
8
0
100
AcDbCircle
10
-49.997958421752728
20
47.123179316468423
30
0
40
0.39999999999995789
210
0
220
0
230
1
100
AcDbArc
50
-61.108607134330576
51
14.444373625986863
0
SPLINE
5
152
100
AcDbEntity
8
0
100
AcDbSpline
70
0
71
3
72
8
73
4
74
0
42
0.000000001
43
0.0000000001
44
0.0000000001
40
0
40
0
40
0
40
0
40
1
40
1
40
1
40
1
10
-38.050636766472536
20
95.723804895621342
30
0
10
-37.923489481839823
20
95.508006133726738
30
0
10
-37.802233617255723
20
95.31490603459153
30
0
10
-37.688640911235723
20
95.142976050431415
30
0
0
ARC
5
153
100
AcDbEntity
8
0
100
AcDbCircle
10
-22.568248605733565
20
101.22710461419418
30
0
40
0.99999999999997113
210
0
220
0
230
1
100
AcDbArc
50
118.69686496851494
51
245.17665151410804
0
SPLINE
5
154
100
AcDbEntity
8
0
100
AcDbSpline
70
0
71
3
72
8
73
4
74
0
42
0.000000001
43
0.0000000001
44
0.0000000001
40
0
40
0
40
0
40
0
40
1
40
1
40
1
40
1
10
-8.2816296585640803
20
110.86135104001472
30
0
10
-8.3614754896840005
20
111.05131910461245
30
0
10
-8.4546662053055677
20
111.25942033840025
30
0
10
-8.5634570716422065
20
111.48503081029025
30
0
0
SPLINE
5
155
100
AcDbEntity
8
0
100
AcDbSpline
70
0
71
3
72
8
73
4
74
0
42
0.000000001
43
0.0000000001
44
0.0000000001
40
0
40
0
40
0
40
0
40
1
40
1
40
1
40
1
10
13.568637175014766
20
9.6022492588464203
30
0
10
13.974549785518571
20
8.9361715963679167
30
0
10
14.543902667719673
20
8.1214367925303321
30
0
10
15.329580410458172
20
7.2019232977279302
30
0
0
ARC
5
156
100
AcDbEntity
8
0
100
AcDbCircle
10
-3.1974423109204508e-13
20
59.999999999998735
30
0
40
54.97847705256661
210
0
220
0
230
1
100
AcDbArc
50
179.3153136980892
51
180.68468630191077
0
SPLINE
5
157
100
AcDbEntity
8
0
100
AcDbSpline
70
0
71
3
72
8
73
4
74
0
42
0.000000001
43
0.0000000001
44
0.0000000001
40
0
40
0
40
0
40
0
40
1
40
1
40
1
40
1
10
-46.782262296559828
20
83.140033037365626
30
0
10
-46.597946857367432
20
82.970435406191015
30
0
10
-46.425858229647538
20
82.820848852010613
30
0
10
-46.267248147449827
20
82.68929633725152
30
0
0
SPLINE
5
158
100
AcDbEntity
8
0
100
AcDbSpline
70
0
71
3
72
8
73
4
74
0
42
0.000000001
43
0.0000000001
44
0.0000000001
40
0
40
0
40
0
40
0
40
1
40
1
40
1
40
1
10
-0.65697883055727324
20
114.97455154738104
30
0
10
-1.1419048754009875
20
113.86656178497765
30
0
10
-1.4502365840645925
20
112.92163477060696
30
0
10
-1.6453185945590576
20
112.16640797751735
30
0
0
SPLINE
5
159
100
AcDbEntity
8
0
100
AcDbSpline
70
0
71
3
72
8
73
4
74
0
42
0.000000001
43
0.0000000001
44
0.0000000001
40
0
40
0
40
0
40
0
40
1
40
1
40
1
40
1
10
22.689296337252472
20
13.732751852549221
30
0
10
22.820848852011572
20
13.574141770351513
30
0
10
22.970435406191967
20
13.402053142631623
30
0
10
23.140033037366578
20
13.217737703439223
30
0
0
SPLINE
5
160
100
AcDbEntity
8
0
100
AcDbSpline
70
0
71
3
72
8
73
4
74
0
42
0.000000001
43
0.0000000001
44
0.0000000001
40
0
40
0
40
0
40
0
40
1
40
1
40
1
40
1
10
-50.397750741152635
20
46.431362824983623
30
0
10
-51.063828403631121
20
46.025450214479818
30
0
10
-51.87856320746873
20
45.456097332278716
30
0
10
-52.798076702271132
20
44.670419589540217
30
0
0
SPLINE
5
161
100
AcDbEntity
8
0
100
AcDbSpline
70
0
71
3
72
8
73
4
74
0
42
0.000000001
43
0.0000000001
44
0.0000000001
40
0
40
0
40
0
40
0
40
1
40
1
40
1
40
1
10
-50.397750741152635
20
73.568637175013819
30
0
10
-50.183890014962635
20
73.438256473151128
30
0
10
-49.985925132945937
20
73.325117008461916
30
0
10
-49.80469807653644
20
73.227035530397131
30
0
0
SPLINE
5
162
100
AcDbEntity
8
0
100
AcDbSpline
70
0
71
3
72
8
73
4
74
0
42
0.000000001
43
0.0000000001
44
0.0000000001
40
0
40
0
40
0
40
0
40
1
40
1
40
1
40
1
10
-13.227035530398732
20
109.80469807653483
30
0
10
-13.325117008463527
20
109.98592513294435
30
0
10
-13.438256473152732
20
110.18389001496105
30
0
10
-13.568637175015432
20
110.39775074115104
30
0
0
ARC
5
163
100
AcDbEntity
8
0
100
AcDbCircle
10
-51.583006854219221
20
57.808707884219231
30
0
40
0.39999999999999342
210
0
220
-0
230
1
100
AcDbArc
50
2.4306263740852585
51
77.983607134329844
0
ARC
5
164
100
AcDbEntity
8
0
100
AcDbCircle
10
2.5757174171303632e-13
20
59.999999999998209
30
0
40
51.229529895997572
210
0
220
0
230
1
100
AcDbArc
50
103.6825279682067
51
104.4424720317943
0
ARC
5
165
100
AcDbEntity
8
0
100
AcDbCircle
10
-38.024171455239042
20
94.925216425980835
30
0
40
0.39999999999999791
210
0
220
0
230
1
100
AcDbArc
50
-42.569373625914928
51
32.983607134310645
0
ARC
5
166
100
AcDbEntity
8
0
100
AcDbCircle
10
-48.495055446183635
20
77.715472179161111
30
0
40
0.40000000000000802
210
0
220
0
230
1
100
AcDbArc
50
-20.069373625914142
51
55.483607134335159
0
SPLINE
5
167
100
AcDbEntity
8
0
100
AcDbSpline
70
0
71
3
72
8
73
4
74
0
42
0.000000001
43
0.0000000001
44
0.0000000001
40
0
40
0
40
0
40
0
40
1
40
1
40
1
40
1
10
-39.337432378026534
20
98.408324005659352
30
0
10
-38.896859798228832
20
97.281962436495618
30
0
10
-38.446718940691831
20
96.395774694856925
30
0
10
-38.050636766472536
20
95.723804895621342
30
0
0
ARC
5
168
100
AcDbEntity
8
0
100
AcDbCircle
10
5.6135300404490707
20
49.393950759824378
30
0
40
2.0000000000001554
210
0
220
-0
230
1
100
AcDbArc
50
47.300436484817304
51
117.89120634984589
0
SPLINE
5
169
100
AcDbEntity
8
0
100
AcDbSpline
70
0
71
3
72
8
73
4
74
0
42
0.000000001
43
0.0000000001
44
0.0000000001
40
0
40
0
40
0
40
0
40
1
40
1
40
1
40
1
10
31.088482346861078
20
14.655328820371913
30
0
10
30.876117486880965
20
15.845999114283806
30
0
10
30.60751261158358
20
16.802977131806429
30
0
10
30.350135849797269
20
17.539307018685424
30
0
0
SPLINE
5
170
100
AcDbEntity
8
0
100
AcDbSpline
70
0
71
3
72
8
73
4
74
0
42
0.000000001
43
0.0000000001
44
0.0000000001
40
0
40
0
40
0
40
0
40
1
40
1
40
1
40
1
10
-51.075308532604126
20
66.839245405499867
30
0
10
-51.280274657435442
20
66.817982527381545
30
0
10
-51.506466958769934
20
66.789213172173859
30
0
10
-51.75394304100783
20
66.750598067034886
30
0
0
SPLINE
5
171
100
AcDbEntity
8
0
100
AcDbSpline
70
0
71
3
72
8
73
4
74
0
42
0.000000001
43
0.0000000001
44
0.0000000001
40
0
40
0
40
0
40
0
40
1
40
1
40
1
40
1
10
-11.81256825333393
20
9.840996314940611
30
0
10
-11.811497955205832
20
9.6349330315150183
30
0
10
-11.805037854848326
20
9.4070100180095118
30
0
10
-11.790865589876134
20
9.1569406585704272
30
0
0
ARC
5
172
100
AcDbEntity
8
0
100
AcDbCircle
10
-3.4638958368304884e-13
20
59.999999999996717
30
0
40
51.229529895995
210
0
220
0
230
1
100
AcDbArc
50
283.68252796820701
51
284.44247203179401
0
SPLINE
5
173
100
AcDbEntity
8
0
100
AcDbSpline
70
0
71
3
72
8
73
4
74
0
42
0.000000001
43
0.0000000001
44
0.0000000001
40
0
40
0
40
0
40
0
40
1
40
1
40
1
40
1
10
-16.717580631542432
20
109.44252918674655
30
0
10
-16.707173569688827
20
109.19227485473955
30
0
10
-16.691262200898329
20
108.96481615227843
30
0
10
-16.672129611480031
20
108.75964021232355
30
0
0
ARC
5
174
100
AcDbEntity
8
0
100
AcDbCircle
10
-5.1514348342607263e-13
20
59.999999999998522
30
0
40
48.000000000000014
210
0
220
0
230
1
100
AcDbArc
50
273.60007578316106
51
334.6968649685154
0
SPLINE
5
175
100
AcDbEntity
8
0
100
AcDbSpline
70
0
71
3
72
8
73
4
74
0
42
0.000000001
43
0.0000000001
44
0.0000000001
40
0
40
0
40
0
40
0
40
1
40
1
40
1
40
1
10
-16.672129611480031
20
11.240359787673917
30
0
10
-16.691262200898329
20
11.035183847719026
30
0
10
-16.707173569688827
20
10.807725145257905
30
0
10
-16.717580631542432
20
10.557470813250909
30
0
0
ARC
5
176
100
AcDbEntity
8
0
100
AcDbCircle
10
-5.0091752725314009
20
99.485349816487968
30
0
40
33.229274645419132
210
0
220
0
230
1
100
AcDbArc
50
289.12520910074932
51
353.53355388132053
0
SPLINE
5
177
100
AcDbEntity
8
0
100
AcDbSpline
70
0
71
3
72
8
73
4
74
0
42
0.000000001
43
0.0000000001
44
0.0000000001
40
0
40
0
40
0
40
0
40
1
40
1
40
1
40
1
10
-15.329580410458927
20
7.2019232977279302
30
0
10
-14.54390266772033
20
8.1214367925303321
30
0
10
-13.974549785519228
20
8.9361715963679167
30
0
10
-13.568637175015432
20
9.6022492588464203
30
0
0
ARC
5
178
100
AcDbEntity
8
0
100
AcDbCircle
10
-51.549404763961633
20
57.124721623848998
30
0
40
0.40000000000000768
210
0
220
0
230
1
100
AcDbArc
50
-72.358607134325965
51
3.1943736259153885
0
ARC
5
179
100
AcDbEntity
8
0
100
AcDbCircle
10
23.040504163243234
20
96.306131271501286
30
0
40
4.9999999999999227
210
0
220
0
230
1
100
AcDbArc
50
-6.4664461186798254
51
57.600075783161543
0
SPLINE
5
180
100
AcDbEntity
8
0
100
AcDbSpline
70
0
71
3
72
8
73
4
74
0
42
0.000000001
43
0.0000000001
44
0.0000000001
40
0
40
0
40
0
40
0
40
1
40
1
40
1
40
1
10
-51.428181389338249
20
56.743532834080867
30
0
10
-51.625060965814939
20
56.682691608907696
30
0
10
-51.841294422732616
20
56.610347119888388
30
0
10
-52.076481888147228
20
56.524193804591789
30
0
0
ARC
5
181
100
AcDbEntity
8
0
100
AcDbCircle
10
-41.264344516084535
20
91.030021413413621
30
0
40
0.3999999999999736
210
0
220
0
230
1
100
AcDbArc
50
-36.944373625919937
51
38.608607134330562
0
ARC
5
182
100
AcDbEntity
8
0
100
AcDbCircle
10
-1.0746958878371515e-12
20
59.999999999998494
30
0
40
51.229529895996663
210
0
220
0
230
1
100
AcDbArc
50
137.43252796820545
51
138.19247203179307
0
ARC
5
183
100
AcDbEntity
8
0
100
AcDbCircle
10
-22.38351399344733
20
106.52511857657232
30
0
40
0.39999999999998903
210
0
220
0
230
1
100
AcDbArc
50
220.14139286566896
51
295.69437362591407
0
SPLINE
5
184
100
AcDbEntity
8
0
100
AcDbSpline
70
0
71
3
72
8
73
4
74
0
42
0.000000001
43
0.0000000001
44
0.0000000001
40
0
40
0
40
0
40
0
40
1
40
1
40
1
40
1
10
-49.442529186748132
20
43.28241936845663
30
0
10
-49.192274854741136
20
43.292826430310228
30
0
10
-48.964816152280036
20
43.308737799100726
30
0
10
-48.759640212325131
20
43.327870388519031
30
0
0
ARC
5
185
100
AcDbEntity
8
0
100
AcDbCircle
10
-2.3092638912203256e-12
20
59.999999999998948
30
0
40
51.229529895995036
210
0
220
0
230
1
100
AcDbArc
50
188.05752796820667
51
188.81747203179395
0
SPLINE
5
186
100
AcDbEntity
8
0
100
AcDbSpline
70
0
71
3
72
8
73
4
74
0
42
0.000000001
43
0.0000000001
44
0.0000000001
40
0
40
0
40
0
40
0
40
1
40
1
40
1
40
1
10
-38.667885820224726
20
94.062545788759437
30
0
10
-38.850121946724236
20
94.158739429467616
30
0
10
-39.054177369197234
20
94.260484294406538
30
0
10
-39.281399614309827
20
94.365867352583322
30
0
0
ARC
5
187
100
AcDbEntity
8
0
100
AcDbCircle
10
7.2367592667512604
20
8.8801636096682302
30
0
40
0.39999999999999525
210
0
220
0
230
1
100
AcDbArc
50
98.055626374084255
51
173.6086071343293
0
ARC
5
188
100
AcDbEntity
8
0
100
AcDbCircle
10
-5.773159728050814e-13
20
59.999999999999751
30
0
40
51.229529895995924
210
0
220
0
230
1
100
AcDbArc
50
92.432527968205903
51
93.192472031793585
0
SPLINE
5
189
100
AcDbEntity
8
0
100
AcDbSpline
70
0
71
3
72
8
73
4
74
0
42
0.000000001
43
0.0000000001
44
0.0000000001
40
0
40
0
40
0
40
0
40
1
40
1
40
1
40
1
10
-51.485030810291832
20
68.563457071640613
30
0
10
-51.259420338401839
20
68.454666205303965
30
0
10
-51.051319104614038
20
68.361475489682405
30
0
10
-50.861351040016331
20
68.281629658562494
30
0
0
SPLINE
5
190
100
AcDbEntity
8
0
100
AcDbSpline
70
0
71
3
72
8
73
4
74
0
42
0.000000001
43
0.0000000001
44
0.0000000001
40
0
40
0
40
0
40
0
40
1
40
1
40
1
40
1
10
-16.717580631542432
20
10.557470813250909
30
0
10
-16.750129552810424
20
9.7781345138633213
30
0
10
-16.72937233740063
20
8.7843917689522222
30
0
10
-16.58695949582313
20
7.5833450733103192
30
0
0
ARC
5
191
100
AcDbEntity
8
0
100
AcDbCircle
10
-5.9507954119908391e-13
20
60.000000000000014
30
0
40
51.22952989599586
210
0
220
0
230
1
100
AcDbArc
50
131.80752796820693
51
132.56747203179455
0
ARC
5
192
100
AcDbEntity
8
0
100
AcDbCircle
10
34.925216425981766
20
21.975828544760017
30
0
40
0.40000000000000946
210
0
220
-0
230
1
100
AcDbArc
50
57.016392865671897
51
132.56937362591489
0
ARC
5
193
100
AcDbEntity
8
0
100
AcDbCircle
10
12.876820683529973
20
10.002041578246335
30
0
40
0.39999999999995367
210
0
220
-0
230
1
100
AcDbArc
50
28.891392865668308
51
104.44437362596538
0
ARC
5
194
100
AcDbEntity
8
0
100
AcDbCircle
10
-9.7699626167013776e-14
20
59.999999999996888
30
0
40
51.229529895995107
210
0
220
0
230
1
100
AcDbArc
50
272.43252796820599
51
273.19247203179299
0
ARC
5
195
100
AcDbEntity
8
0
100
AcDbCircle
10
-41.672286039099625
20
90.479975943797641
30
0
40
0.39999999999996988
210
0
220
0
230
1
100
AcDbArc
50
248.26639286567141
51
323.81937362599217
0
SPLINE
5
196
100
AcDbEntity
8
0
100
AcDbSpline
70
0
71
3
72
8
73
4
74
0
42
0.000000001
43
0.0000000001
44
0.0000000001
40
0
40
0
40
0
40
0
40
1
40
1
40
1
40
1
10
-52.798076702271132
20
75.329580410457226
30
0
10
-51.87856320746873
20
74.543902667718726
30
0
10
-51.063828403631121
20
73.974549785517624
30
0
10
-50.397750741152635
20
73.568637175013819
30
0
0
SPLINE
5
197
100
AcDbEntity
8
0
100
AcDbSpline
70
0
71
3
72
8
73
4
74
0
42
0.000000001
43
0.0000000001
44
0.0000000001
40
0
40
0
40
0
40
0
40
1
40
1
40
1
40
1
10
13.227035530398075
20
10.195301923462612
30
0
10
13.32511700846287
20
10.014074867053111
30
0
10
13.438256473152075
20
9.8161099850364053
30
0
10
13.568637175014766
20
9.6022492588464203
30
0
0
ARC
5
198
100
AcDbEntity
8
0
100
AcDbCircle
10
-1.865174681370263e-13
20
59.999999999999801
30
0
40
10.000000000000007
210
0
220
-0
230
1
100
AcDbArc
50
54.000000000003148
51
81.891206349849156
0
SPLINE
5
199
100
AcDbEntity
8
0
100
AcDbSpline
70
0
71
3
72
8
73
4
74
0
42
0.000000001
43
0.0000000001
44
0.0000000001
40
0
40
0
40
0
40
0
40
1
40
1
40
1
40
1
10
21.48329623296717
20
12.434159552035613
30
0
10
21.448410069982565
20
12.682188770590415
30
0
10
21.41028046722348
20
12.906992610360817
30
0
10
21.371129247553881
20
13.109305250382626
30
0
0
SPLINE
5
200
100
AcDbEntity
8
0
100
AcDbSpline
70
0
71
3
72
8
73
4
74
0
42
0.000000001
43
0.0000000001
44
0.0000000001
40
0
40
0
40
0
40
0
40
1
40
1
40
1
40
1
10
6.7505980670358134
20
8.2460569589912147
30
0
10
6.7892131721747706
20
8.4935330412291066
30
0
10
6.8179825273824601
20
8.7197253425636134
30
0
10
6.839245405500769
20
8.9246914673949185
30
0
0
ARC
5
201
100
AcDbEntity
8
0
100
AcDbCircle
10
34.417804837152374
20
21.515937487697023
30
0
40
0.39999999999999653
210
0
220
0
230
1
100
AcDbArc
50
131.80562637408474
51
207.35860713432746
0
SPLINE
5
202
100
AcDbEntity
8
0
100
AcDbSpline
70
0
71
3
72
8
73
4
74
0
42
0.000000001
43
0.0000000001
44
0.0000000001
40
0
40
0
40
0
40
0
40
1
40
1
40
1
40
1
10
-52.076481888147228
20
63.475806195405667
30
0
10
-51.841294422732616
20
63.389652880109075
30
0
10
-51.625060965814939
20
63.317308391089767
30
0
10
-51.428181389338135
20
63.256467165916575
30
0
0
SPLINE
5
203
100
AcDbEntity
8
0
100
AcDbSpline
70
0
71
3
72
8
73
4
74
0
42
0.000000001
43
0.0000000001
44
0.0000000001
40
0
40
0
40
0
40
0
40
1
40
1
40
1
40
1
10
-26.042115947705334
20
105.23106666352993
30
0
10
-25.983086656409931
20
104.98765121538854
30
0
10
-25.923106028600635
20
104.76766722217624
30
0
10
-25.864313226327429
20
104.57016626340612
30
0
0
ARC
5
204
100
AcDbEntity
8
0
100
AcDbCircle
10
-50.164353957058324
20
47.787467530028835
30
0
40
0.3999999999999409
210
0
220
-0
230
1
100
AcDbArc
50
13.680626374076809
51
89.233607134332502
0
ARC
5
205
100
AcDbEntity
8
0
100
AcDbCircle
10
-39.980367956214842
20
44.170591353883317
30
0
40
4.999999999999992
210
0
220
0
230
1
100
AcDbArc
50
137.5335538813203
51
201.60007578316129
0
SPLINE
5
206
100
AcDbEntity
8
0
100
AcDbSpline
70
0
71
3
72
8
73
4
74
0
42
0.000000001
43
0.0000000001
44
0.0000000001
40
0
40
0
40
0
40
0
40
1
40
1
40
1
40
1
10
16.586959495822473
20
7.5833450733103192
30
0
10
16.729372337399973
20
8.7843917689522222
30
0
10
16.750129552809767
20
9.7781345138633213
30
0
10
16.717580631541765
20
10.557470813250909
30
0
0
SPLINE
5
207
100
AcDbEntity
8
0
100
AcDbSpline
70
0
71
3
72
8
73
4
74
0
42
0.000000001
43
0.0000000001
44
0.0000000001
40
0
40
0
40
0
40
0
40
1
40
1
40
1
40
1
10
1.6453185945583915
20
7.8335920224801114
30
0
10
1.7080046552924522
20
8.0760914975607179
30
0
10
1.7588062007327121
20
8.2983747312130163
30
0
10
1.8000568857015509
20
8.5002697616220146
30
0
0
ARC
5
208
100
AcDbEntity
8
0
100
AcDbCircle
10
-7.2367592667519443
20
111.11983639032923
30
0
40
0.40000000000001412
210
0
220
0
230
1
100
AcDbArc
50
278.05562637408531
51
353.60860713432947
0
ARC
5
209
100
AcDbEntity
8
0
100
AcDbCircle
10
-12.87682068353063
20
10.002041578246335
30
0
40
0.39999999999999952
210
0
220
-0
230
1
100
AcDbArc
50
75.555626374084582
51
151.1086071343297
0
ARC
5
210
100
AcDbEntity
8
0
100
AcDbCircle
10
-7.9141583655298842
20
8.980646273943016
30
0
40
0.40000000000001479
210
0
220
-0
230
1
100
AcDbArc
50
81.180626374083815
51
156.7336071343303
0
SPLINE
5
211
100
AcDbEntity
8
0
100
AcDbSpline
70
0
71
3
72
8
73
4
74
0
42
0.000000001
43
0.0000000001
44
0.0000000001
40
0
40
0
40
0
40
0
40
1
40
1
40
1
40
1
10
-52.166407977518944
20
61.645318594557459
30
0
10
-52.921634770608549
20
61.450236584063006
30
0
10
-53.86656178497924
20
61.141904875399376
30
0
10
-54.974551547382632
20
60.656978830555687
30
0
0
SPLINE
5
212
100
AcDbEntity
8
0
100
AcDbSpline
70
0
71
3
72
8
73
4
74
0
42
0.000000001
43
0.0000000001
44
0.0000000001
40
0
40
0
40
0
40
0
40
1
40
1
40
1
40
1
10
-52.076481888147228
20
56.524193804591789
30
0
10
-52.808950677005129
20
56.256025996740306
30
0
10
-53.719105817170728
20
55.856559945760758
30
0
10
-54.774229241836835
20
55.26536696434151
30
0
0
ARC
5
213
100
AcDbEntity
8
0
100
AcDbCircle
10
36.004878954150563
20
76.965652906338832
30
0
40
33.229274645419125
210
0
220
0
230
1
100
AcDbArc
50
217.12520910074934
51
281.53355388132042
0
ARC
5
214
100
AcDbEntity
8
0
100
AcDbCircle
10
-1.2434497875801753e-13
20
59.999999999998664
30
0
40
54.978477052566618
210
0
220
-0
230
1
100
AcDbArc
50
72.440313698089113
51
73.809686301911398
0
SPLINE
5
215
100
AcDbEntity
8
0
100
AcDbSpline
70
0
71
3
72
8
73
4
74
0
42
0.000000001
43
0.0000000001
44
0.0000000001
40
0
40
0
40
0
40
0
40
1
40
1
40
1
40
1
10
-50.15900368505843
20
71.812568253332216
30
0
10
-50.365066968484044
20
71.811497955204231
30
0
10
-50.592989981989632
20
71.805037854846731
30
0
10
-50.843059341428628
20
71.790865589874514
30
0
0
SPLINE
5
216
100
AcDbEntity
8
0
100
AcDbSpline
70
0
71
3
72
8
73
4
74
0
42
0.000000001
43
0.0000000001
44
0.0000000001
40
0
40
0
40
0
40
0
40
1
40
1
40
1
40
1
10
-30.350135849797937
20
102.46069298131202
30
0
10
-30.267531914535635
20
102.22423552741412
30
0
10
-30.186277907910526
20
102.01118994686985
30
0
10
-30.108409729859034
20
101.82040271154955
30
0
0
SPLINE
5
217
100
AcDbEntity
8
0
100
AcDbSpline
70
0
71
3
72
8
73
4
74
0
42
0.000000001
43
0.0000000001
44
0.0000000001
40
0
40
0
40
0
40
0
40
1
40
1
40
1
40
1
10
3.2564671659174937
20
8.571818610660813
30
0
10
3.3173083910906787
20
8.3749390341841234
30
0
10
3.3896528801099812
20
8.1587055772664208
30
0
10
3.4758061954065855
20
7.9235181118518128
30
0
0
ARC
5
218
100
AcDbEntity
8
0
100
AcDbCircle
10
7.9047879353311146e-13
20
59.999999999997215
30
0
40
51.229529895995107
210
0
220
0
230
1
100
AcDbArc
50
300.55752796820599
51
301.31747203179361
0
ARC
5
219
100
AcDbEntity
8
0
100
AcDbCircle
10
-5.595524044110789e-13
20
59.999999999998806
30
0
40
54.978477052566632
210
0
220
0
230
1
100
AcDbArc
50
252.44031369808911
51
253.809686301911
0
ARC
5
220
100
AcDbEntity
8
0
100
AcDbCircle
10
-2.5757174171303632e-13
20
59.999999999998508
30
0
40
54.978477052566596
210
0
220
0
230
1
100
AcDbArc
50
196.190313698089
51
197.55968630191089
0
ARC
5
221
100
AcDbEntity
8
0
100
AcDbCircle
10
-3.3750779948604759e-13
20
59.999999999998735
30
0
40
54.978477052566575
210
0
220
-0
230
1
100
AcDbArc
50
33.065313698088822
51
34.434686301911178
0
ARC
5
222
100
AcDbEntity
8
0
100
AcDbCircle
10
-34.417804837153028
20
98.48406251230044
30
0
40
0.40000000000001579
210
0
220
0
230
1
100
AcDbArc
50
-48.194373625916946
51
27.35860713431649
0
ARC
5
223
100
AcDbEntity
8
0
100
AcDbCircle
10
34.444074045484065
20
80.637789618189061
30
0
40
40.51326539133057
210
0
220
0
230
1
100
AcDbArc
50
227.30043648481518
51
281.17665151410614
0
ARC
5
224
100
AcDbEntity
8
0
100
AcDbCircle
10
-17.070692309453328
20
108.72576137255253
30
0
40
0.39999999999998992
210
0
220
0
230
1
100
AcDbArc
50
-70.694373625915958
51
4.858607134327614
0
ARC
5
225
100
AcDbEntity
8
0
100
AcDbCircle
10
26.248608220056376
20
104.45918267095033
30
0
40
0.40000000000004843
210
0
220
0
230
1
100
AcDbArc
50
163.89139286566689
51
239.44437362601931
0
ARC
5
226
100
AcDbEntity
8
0
100
AcDbCircle
10
32.235334138861973
20
94.203555852510505
30
0
40
0.99999999999998967
210
0
220
-0
230
1
100
AcDbArc
50
46.696864968515456
51
173.1766515141066
0
SPLINE
5
227
100
AcDbEntity
8
0
100
AcDbSpline
70
0
71
3
72
8
73
4
74
0
42
0.000000001
43
0.0000000001
44
0.0000000001
40
0
40
0
40
0
40
0
40
1
40
1
40
1
40
1
10
-13.568637175015432
20
110.39775074115104
30
0
10
-13.974549785519228
20
111.06382840362953
30
0
10
-14.54390266772033
20
111.87856320746712
30
0
10
-15.32958041045883
20
112.79807670226953
30
0
0
SPLINE
5
228
100
AcDbEntity
8
0
100
AcDbSpline
70
0
71
3
72
8
73
4
74
0
42
0.000000001
43
0.0000000001
44
0.0000000001
40
0
40
0
40
0
40
0
40
1
40
1
40
1
40
1
10
-1.8000568857022348
20
8.5002697616220146
30
0
10
-1.7588062007333871
20
8.2983747312130163
30
0
10
-1.7080046552931272
20
8.0760914975607179
30
0
10
-1.6453185945590665
20
7.8335920224801114
30
0
0
ARC
5
229
100
AcDbEntity
8
0
100
AcDbCircle
10
17.71547217916207
20
11.504944553815406
30
0
40
0.40000000000001562
210
0
220
-0
230
1
100
AcDbArc
50
34.516392865673538
51
110.06937362591233
0
ARC
5
230
100
AcDbEntity
8
0
100
AcDbCircle
10
-3.4638958368304884e-13
20
59.999999999998948
30
0
40
54.97847705256661
210
0
220
0
230
1
100
AcDbArc
50
184.94031369808908
51
186.30968630191137
0
SPLINE
5
231
100
AcDbEntity
8
0
100
AcDbSpline
70
0
71
3
72
8
73
4
74
0
42
0.000000001
43
0.0000000001
44
0.0000000001
40
0
40
0
40
0
40
0
40
1
40
1
40
1
40
1
10
31.822170407172273
20
18.631042252293923
30
0
10
32.45208164610397
20
18.171002763894926
30
0
10
33.289880631945785
20
17.636167869392416
30
0
10
34.367634797908579
20
17.08731402700062
30
0
0
SPLINE
5
232
100
AcDbEntity
8
0
100
AcDbSpline
70
0
71
3
72
8
73
4
74
0
42
0.000000001
43
0.0000000001
44
0.0000000001
40
0
40
0
40
0
40
0
40
1
40
1
40
1
40
1
10
6.7505980670358401
20
111.75394304100622
30
0
10
6.6304806003021532
20
112.52465459146093
30
0
10
6.4162526368601558
20
113.49525331633872
30
0
10
6.0422636314913358
20
114.64543886937874
30
0
0
ARC
5
233
100
AcDbEntity
8
0
100
AcDbCircle
10
-46.817913069821529
20
81.764452050205222
30
0
40
0.40000000000000058
210
0
220
0
230
1
100
AcDbArc
50
259.51639286567257
51
335.06937362588781
0
ARC
5
234
100
AcDbEntity
8
0
100
AcDbCircle
10
-2.1760371282653068e-12
20
59.999999999998494
30
0
40
51.229529895995192
210
0
220
0
230
1
100
AcDbArc
50
171.18252796820568
51
171.94247203179305
0
ARC
5
235
100
AcDbEntity
8
0
100
AcDbCircle
10
-4.6185277824406512e-13
20
59.999999999998451
30
0
40
51.229529895996791
210
0
220
0
230
1
100
AcDbArc
50
176.80752796820605
51
177.56747203179407
0
ARC
5
236
100
AcDbEntity
8
0
100
AcDbCircle
10
12.21253246996957
20
9.83564604294072
30
0
40
0.40000000000000008
210
0
220
0
230
1
100
AcDbArc
50
103.68062637405305
51
179.2336071343336
0
ARC
5
237
100
AcDbEntity
8
0
100
AcDbCircle
10
-38.484062512302032
20
94.417804837151436
30
0
40
0.40000000000001285
210
0
220
0
230
1
100
AcDbArc
50
242.64139286567158
51
318.19437362591412
0
ARC
5
238
100
AcDbEntity
8
0
100
AcDbCircle
10
-4.0856207306205761e-13
20
59.999999999998565
30
0
40
54.97847705256661
210
0
220
0
230
1
100
AcDbArc
50
156.815313698089
51
158.184686301911
0
ARC
5
239
100
AcDbEntity
8
0
100
AcDbCircle
10
-2.7533531010703882e-13
20
59.99999999999865
30
0
40
54.978477052566561
210
0
220
-0
230
1
100
AcDbArc
50
27.440313698088957
51
28.809686301911182
0
ARC
5
240
100
AcDbEntity
8
0
100
AcDbCircle
10
31.030021413414566
20
18.735655483914506
30
0
40
0.4000000000000592
210
0
220
-0
230
1
100
AcDbArc
50
51.391392865678178
51
126.94437362597314
0
SPLINE
5
241
100
AcDbEntity
8
0
100
AcDbSpline
70
0
71
3
72
8
73
4
74
0
42
0.000000001
43
0.0000000001
44
0.0000000001
40
0
40
0
40
0
40
0
40
1
40
1
40
1
40
1
10
-51.75394304100783
20
66.750598067034886
30
0
10
-52.524654591462522
20
66.630480600301212
30
0
10
-53.495253316340325
20
66.416252636859227
30
0
10
-54.645438869380328
20
66.0422636314904
30
0
0
ARC
5
242
100
AcDbEntity
8
0
100
AcDbCircle
10
-31.030021413415227
20
101.26434451608296
30
0
40
0.39999999999998143
210
0
220
0
230
1
100
AcDbArc
50
231.39139286566783
51
306.94437362607965
0
SPLINE
5
243
100
AcDbEntity
8
0
100
AcDbSpline
70
0
71
3
72
8
73
4
74
0
42
0.000000001
43
0.0000000001
44
0.0000000001
40
0
40
0
40
0
40
0
40
1
40
1
40
1
40
1
10
-42.460692981313628
20
90.350135849796317
30
0
10
-43.197022868192633
20
90.60751261158272
30
0
10
-44.154000885715234
20
90.876117486880034
30
0
10
-45.344671179627127
20
91.088482346860232
30
0
0
ARC
5
244
100
AcDbEntity
8
0
100
AcDbCircle
10
-3.1086244689504383e-13
20
59.999999999998636
30
0
40
54.978477052566603
210
0
220
-0
230
1
100
AcDbArc
50
10.565313698089016
51
11.934686301911173
0
ARC
5
245
100
AcDbEntity
8
0
100
AcDbCircle
10
-3.5527136788005009e-13
20
59.999999999998828
30
0
40
54.978477052566568
210
0
220
0
230
1
100
AcDbArc
50
190.56531369808891
51
191.9346863019112
0
ARC
5
246
100
AcDbEntity
8
0
100
AcDbCircle
10
12.876820683529973
20
109.99795842175112
30
0
40
0.40000000000001673
210
0
220
0
230
1
100
AcDbArc
50
255.55562637408519
51
331.10860713433038
0
SPLINE
5
247
100
AcDbEntity
8
0
100
AcDbSpline
70
0
71
3
72
8
73
4
74
0
42
0.000000001
43
0.0000000001
44
0.0000000001
40
0
40
0
40
0
40
0
40
1
40
1
40
1
40
1
10
30.350135849797269
20
102.46069298131202
30
0
10
30.607512611583665
20
103.19702286819103
30
0
10
30.876117486880965
20
104.15400088571366
30
0
10
31.08848234686117
20
105.34467117962544
30
0
0
SPLINE
5
248
100
AcDbEntity
8
0
100
AcDbSpline
70
0
71
3
72
8
73
4
74
0
42
0.000000001
43
0.0000000001
44
0.0000000001
40
0
40
0
40
0
40
0
40
1
40
1
40
1
40
1
10
8.563457071641567
20
111.48503081029025
30
0
10
8.4546662053049282
20
111.25942033840025
30
0
10
8.361475489683361
20
111.05131910461245
30
0
10
8.2816296585634408
20
110.86135104001472
30
0
0
ARC
5
249
100
AcDbEntity
8
0
100
AcDbCircle
10
-3.4638958368304884e-13
20
59.999999999998494
30
0
40
54.978477052566603
210
0
220
0
230
1
100
AcDbArc
50
173.69031369808897
51
175.05968630191094
0
ARC
5
250
100
AcDbEntity
8
0
100
AcDbCircle
10
38.024171455238374
20
94.925216425980835
30
0
40
0.3999999999999998
210
0
220
0
230
1
100
AcDbArc
50
147.01639286567419
51
222.5693736259156
0
ARC
5
251
100
AcDbEntity
8
0
100
AcDbCircle
10
-3.3750779948604759e-13
20
59.999999999999801
30
0
40
51.229529895995938
210
0
220
-0
230
1
100
AcDbArc
50
75.557527968205875
51
76.3174720317935
0
ARC
5
252
100
AcDbEntity
8
0
100
AcDbCircle
10
-50.164353957058324
20
72.212532469968608
30
0
40
0.40000000000004721
210
0
220
0
230
1
100
AcDbArc
50
270.76639286566751
51
346.31937362600661
0
SPLINE
5
253
100
AcDbEntity
8
0
100
AcDbSpline
70
0
71
3
72
8
73
4
74
0
42
0.000000001
43
0.0000000001
44
0.0000000001
40
0
40
0
40
0
40
0
40
1
40
1
40
1
40
1
10
-46.074666943590039
20
89.995966479791832
30
0
10
-45.422817601140331
20
88.977199078808425
30
0
10
-44.808439422076923
20
88.195857310984934
30
0
10
-44.288873051254633
20
87.614071021932432
30
0
0
ARC
5
254
100
AcDbEntity
8
0
100
AcDbCircle
10
7.9141583655292091
20
8.980646273943016
30
0
40
0.40000000000000363
210
0
220
-0
230
1
100
AcDbArc
50
23.266392865669712
51
98.819373625961759
0
SPLINE
5
255
100
AcDbEntity
8
0
100
AcDbSpline
70
0
71
3
72
8
73
4
74
0
42
0.000000001
43
0.0000000001
44
0.0000000001
40
0
40
0
40
0
40
0
40
1
40
1
40
1
40
1
10
16.717580631541765
20
10.557470813250909
30
0
10
16.70717356968817
20
10.807725145257905
30
0
10
16.691262200897672
20
11.035183847719026
30
0
10
16.672129611479374
20
11.240359787673917
30
0
0
ARC
5
256
100
AcDbEntity
8
0
100
AcDbCircle
10
21.764452050206174
20
13.182086930177519
30
0
40
0.39999999999996527
210
0
220
0
230
1
100
AcDbArc
50
114.93062637414612
51
190.48360713432606
0
ARC
5
257
100
AcDbEntity
8
0
100
AcDbCircle
10
-4.7073456244106637e-13
20
59.999999999999346
30
0
40
51.229529895996997
210
0
220
0
230
1
100
AcDbArc
50
193.68252796820695
51
194.44247203179395
0
ARC
5
258
100
AcDbEntity
8
0
100
AcDbCircle
10
-5.773159728050814e-13
20
59.999999999996888
30
0
40
51.229529895995107
210
0
220
0
230
1
100
AcDbArc
50
266.80752796820633
51
267.56747203179395
0
SPLINE
5
259
100
AcDbEntity
8
0
100
AcDbSpline
70
0
71
3
72
8
73
4
74
0
42
0.000000001
43
0.0000000001
44
0.0000000001
40
0
40
0
40
0
40
0
40
1
40
1
40
1
40
1
10
-21.483296232967835
20
107.56584044796183
30
0
10
-21.448410069983233
20
107.31781122940704
30
0
10
-21.41028046722413
20
107.09300738963664
30
0
10
-21.371129247554528
20
106.89069474961484
30
0
0
SPLINE
5
260
100
AcDbEntity
8
0
100
AcDbSpline
70
0
71
3
72
8
73
4
74
0
42
0.000000001
43
0.0000000001
44
0.0000000001
40
0
40
0
40
0
40
0
40
1
40
1
40
1
40
1
10
-53.790060742830335
20
48.630641869380909
30
0
10
-52.60875631478504
20
48.371191622051924
30
0
10
-51.621833275703949
20
48.253130536228319
30
0
10
-50.843059341428628
20
48.209134410122928
30
0
0
SPLINE
5
261
100
AcDbEntity
8
0
100
AcDbSpline
70
0
71
3
72
8
73
4
74
0
42
0.000000001
43
0.0000000001
44
0.0000000001
40
0
40
0
40
0
40
0
40
1
40
1
40
1
40
1
10
11.812568253333167
20
110.15900368505685
30
0
10
11.811497955205175
20
110.36506696848244
30
0
10
11.805037854847678
20
110.59298998198804
30
0
10
11.790865589875468
20
110.84305934142704
30
0
0
ARC
5
262
100
AcDbEntity
8
0
100
AcDbCircle
10
-5.0626169922907138e-13
20
59.999999999998806
30
0
40
54.97847705256661
210
0
220
-0
230
1
100
AcDbArc
50
66.815313698088687
51
68.184686301910986
0
SPLINE
5
263
100
AcDbEntity
8
0
100
AcDbSpline
70
0
71
3
72
8
73
4
74
0
42
0.000000001
43
0.0000000001
44
0.0000000001
40
0
40
0
40
0
40
0
40
1
40
1
40
1
40
1
10
-35.723804895622926
20
98.05063676647093
30
0
10
-36.395774694858432
20
98.446718940690218
30
0
10
-37.281962436497231
20
98.89685979822724
30
0
10
-38.40832400566093
20
99.337432378024943
30
0
0
SPLINE
5
264
100
AcDbEntity
8
0
100
AcDbSpline
70
0
71
3
72
8
73
4
74
0
42
0.000000001
43
0.0000000001
44
0.0000000001
40
0
40
0
40
0
40
0
40
1
40
1
40
1
40
1
10
-22.689296337253133
20
106.26724814744824
30
0
10
-22.820848852012226
20
106.42585822964593
30
0
10
-22.970435406192635
20
106.59794685736584
30
0
10
-23.140033037367225
20
106.78226229655822
30
0
0
ARC
5
265
100
AcDbEntity
8
0
100
AcDbCircle
10
9.2370555648813024e-13
20
60.000000000000071
30
0
40
51.22952989599851
210
0
220
0
230
1
100
AcDbArc
50
261.18252796820502
51
261.94247203179197
0
SPLINE
5
266
100
AcDbEntity
8
0
100
AcDbSpline
70
0
71
3
72
8
73
4
74
0
42
0.000000001
43
0.0000000001
44
0.0000000001
40
0
40
0
40
0
40
0
40
1
40
1
40
1
40
1
10
49.442529186747485
20
76.717580631540812
30
0
10
49.192274854740489
20
76.707173569687214
30
0
10
48.964816152279369
20
76.691262200896716
30
0
10
48.759640212324477
20
76.672129611478411
30
0
0
ARC
5
267
100
AcDbEntity
8
0
100
AcDbCircle
10
-4.1744385725905886e-13
20
59.999999999998707
30
0
40
54.978477052566575
210
0
220
0
230
1
100
AcDbArc
50
280.56531369808897
51
281.93468630191109
0
ARC
5
268
100
AcDbEntity
8
0
100
AcDbCircle
10
-2.1912921157798326
20
8.4169931457798164
30
0
40
0.40000000000000868
210
0
220
-0
230
1
100
AcDbArc
50
12.016392865672374
51
87.569373625914565
0
ARC
5
269
100
AcDbEntity
8
0
100
AcDbCircle
10
-48.725761372554132
20
42.929307690545727
30
0
40
0.40000000000005448
210
0
220
-0
230
1
100
AcDbArc
50
19.305626374083559
51
94.858607134328722
0
SPLINE
5
270
100
AcDbEntity
8
0
100
AcDbSpline
70
0
71
3
72
8
73
4
74
0
42
0.000000001
43
0.0000000001
44
0.0000000001
40
0
40
0
40
0
40
0
40
1
40
1
40
1
40
1
10
35.383337805225665
20
17.920879942886607
30
0
10
35.055289442806973
20
19.08500143760822
30
0
10
34.694177724765566
20
20.011043462652527
30
0
10
34.365867352584274
20
20.718600385689214
30
0
0
SPLINE
5
271
100
AcDbEntity
8
0
100
AcDbSpline
70
0
71
3
72
8
73
4
74
0
42
0.000000001
43
0.0000000001
44
0.0000000001
40
0
40
0
40
0
40
0
40
1
40
1
40
1
40
1
10
35.723804895622273
20
98.05063676647093
30
0
10
35.508006133727676
20
97.923489481838232
30
0
10
35.314906034592461
20
97.802233617254132
30
0
10
35.142976050432367
20
97.688640911234131
30
0
0
ARC
5
272
100
AcDbEntity
8
0
100
AcDbCircle
10
-4.5297099404706387e-13
20
59.999999999999233
30
0
40
51.229529895996535
210
0
220
-0
230
1
100
AcDbArc
50
69.932527968205903
51
70.692472031793599
0
ARC
5
273
100
AcDbEntity
8
0
100
AcDbCircle
10
-30.479975943799225
20
101.67228603909804
30
0
40
0.40000000000000252
210
0
220
0
230
1
100
AcDbArc
50
-53.819373625914892
51
21.73360713432708
0
SPLINE
5
274
100
AcDbEntity
8
0
100
AcDbSpline
70
0
71
3
72
8
73
4
74
0
42
0.000000001
43
0.0000000001
44
0.0000000001
40
0
40
0
40
0
40
0
40
1
40
1
40
1
40
1
10
-10.080647797524627
20
5.9535988339464296
30
0
10
-9.3888813911198898
20
6.9456945055066299
30
0
10
-8.9021280742657183
20
7.8123124799258292
30
0
10
-8.563457071642242
20
8.5149691897072088
30
0
0
SPLINE
5
275
100
AcDbEntity
8
0
100
AcDbSpline
70
0
71
3
72
8
73
4
74
0
42
0.000000001
43
0.0000000001
44
0.0000000001
40
0
40
0
40
0
40
0
40
1
40
1
40
1
40
1
10
29.99596647979277
20
106.07466694358843
30
0
10
28.977199078809377
20
105.42281760113875
30
0
10
28.195857310985872
20
104.80843942207534
30
0
10
27.614071021933377
20
104.28887305125302
30
0
0
ARC
5
276
100
AcDbEntity
8
0
100
AcDbCircle
10
-44.45918267095194
20
86.248608220055431
30
0
40
0.40000000000001912
210
0
220
0
230
1
100
AcDbArc
50
253.89139286567314
51
329.44437362592072
0
SPLINE
5
277
100
AcDbEntity
8
0
100
AcDbSpline
70
0
71
3
72
8
73
4
74
0
42
0.000000001
43
0.0000000001
44
0.0000000001
40
0
40
0
40
0
40
0
40
1
40
1
40
1
40
1
10
41.368957747704471
20
28.177829592826029
30
0
10
41.22127073447259
20
28.380126611457914
30
0
10
41.081671630504488
20
28.560411727741517
30
0
10
40.951773819027679
20
28.720379789828225
30
0
0
ARC
5
278
100
AcDbEntity
8
0
100
AcDbCircle
10
9.4146912488213275e-13
20
59.999999999999019
30
0
40
51.22952989599586
210
0
220
-0
230
1
100
AcDbArc
50
41.807527968206912
51
42.56747203179453
0
SPLINE
5
279
100
AcDbEntity
8
0
100
AcDbSpline
70
0
71
3
72
8
73
4
74
0
42
0.000000001
43
0.0000000001
44
0.0000000001
40
0
40
0
40
0
40
0
40
1
40
1
40
1
40
1
10
35.142976050432367
20
22.311359088763325
30
0
10
35.314906034592461
20
22.197766382743325
30
0
10
35.508006133727676
20
22.076510518159225
30
0
10
35.723804895622273
20
21.949363233526515
30
0
0
ARC
5
280
100
AcDbEntity
8
0
100
AcDbCircle
10
-1.4921397450962104e-12
20
59.999999999999588
30
0
40
51.229529895998397
210
0
220
0
230
1
100
AcDbArc
50
334.30752796820599
51
335.0674720317935
0
ARC
5
281
100
AcDbEntity
8
0
100
AcDbCircle
10
1.7763568394002505e-13
20
59.999999999997712
30
0
40
10
210
0
220
0
230
1
100
AcDbArc
50
270.00000000000318
51
297.89120634984926
0
SPLINE
5
282
100
AcDbEntity
8
0
100
AcDbSpline
70
0
71
3
72
8
73
4
74
0
42
0.000000001
43
0.0000000001
44
0.0000000001
40
0
40
0
40
0
40
0
40
1
40
1
40
1
40
1
10
53.790060742829702
20
71.369358130616533
30
0
10
52.608756314784387
20
71.628808377945617
30
0
10
51.621833275703295
20
71.746869463769116
30
0
10
50.843059341427981
20
71.790865589874514
30
0
0
SPLINE
5
283
100
AcDbEntity
8
0
100
AcDbSpline
70
0
71
3
72
8
73
4
74
0
42
0.000000001
43
0.0000000001
44
0.0000000001
40
0
40
0
40
0
40
0
40
1
40
1
40
1
40
1
10
16.672129611479374
20
108.75964021232355
30
0
10
16.691262200897672
20
108.96481615227843
30
0
10
16.70717356968817
20
109.19227485473955
30
0
10
16.717580631541765
20
109.44252918674655
30
0
0
ARC
5
284
100
AcDbEntity
8
0
100
AcDbCircle
10
-1.0480505352461478e-12
20
59.999999999999133
30
0
40
51.229529895996713
210
0
220
-0
230
1
100
AcDbArc
50
81.182527968205306
51
81.942472031793102
0
ARC
5
285
100
AcDbEntity
8
0
100
AcDbCircle
10
-34.925216425982427
20
98.024171455237422
30
0
40
0.39999999999999458
210
0
220
0
230
1
100
AcDbArc
50
237.01639286566962
51
312.56937362591708
0
SPLINE
5
286
100
AcDbEntity
8
0
100
AcDbSpline
70
0
71
3
72
8
73
4
74
0
42
0.000000001
43
0.0000000001
44
0.0000000001
40
0
40
0
40
0
40
0
40
1
40
1
40
1
40
1
10
44.288873051253972
20
87.614071021932432
30
0
10
44.808439422076269
20
88.195857310984934
30
0
10
45.422817601139684
20
88.977199078808425
30
0
10
46.074666943589378
20
89.995966479791832
30
0
0
ARC
5
287
100
AcDbEntity
8
0
100
AcDbCircle
10
-2.042810365310288e-13
20
59.999999999998877
30
0
40
54.978477052566589
210
0
220
0
230
1
100
AcDbArc
50
319.94031369808869
51
321.30968630191092
0
ARC
5
288
100
AcDbEntity
8
0
100
AcDbCircle
10
-4.8849813083506888e-13
20
59.999999999998849
30
0
40
54.978477052566603
210
0
220
-0
230
1
100
AcDbArc
50
49.94031369808868
51
51.309686301910887
0
SPLINE
5
289
100
AcDbEntity
8
0
100
AcDbSpline
70
0
71
3
72
8
73
4
74
0
42
0.000000001
43
0.0000000001
44
0.0000000001
40
0
40
0
40
0
40
0
40
1
40
1
40
1
40
1
10
23.140033037366578
20
106.78226229655822
30
0
10
22.970435406191967
20
106.59794685736584
30
0
10
22.820848852011572
20
106.42585822964593
30
0
10
22.689296337252472
20
106.26724814744824
30
0
0
SPLINE
5
290
100
AcDbEntity
8
0
100
AcDbSpline
70
0
71
3
72
8
73
4
74
0
42
0.000000001
43
0.0000000001
44
0.0000000001
40
0
40
0
40
0
40
0
40
1
40
1
40
1
40
1
10
27.115024528104172
20
16.17948124157202
30
0
10
27.261490088232271
20
16.034529311572427
30
0
10
27.427223977440384
20
15.877931383904116
30
0
10
27.614071021933377
20
15.711126948744418
30
0
0
ARC
5
291
100
AcDbEntity
8
0
100
AcDbCircle
10
2.8752783761493816
20
111.54940476396006
30
0
40
0.4000000000000104
210
0
220
0
230
1
100
AcDbArc
50
266.80562637408605
51
342.35860713433794
0
SPLINE
5
292
100
AcDbEntity
8
0
100
AcDbSpline
70
0
71
3
72
8
73
4
74
0
42
0.000000001
43
0.0000000001
44
0.0000000001
40
0
40
0
40
0
40
0
40
1
40
1
40
1
40
1
10
25.864313226326765
20
104.57016626340612
30
0
10
25.923106028599967
20
104.76766722217613
30
0
10
25.983086656409363
20
104.98765121538854
30
0
10
26.042115947704787
20
105.23106666352993
30
0
0
ARC
5
293
100
AcDbEntity
8
0
100
AcDbCircle
10
-4.1744385725905886e-13
20
59.999999999998735
30
0
40
54.978477052566618
210
0
220
-0
230
1
100
AcDbArc
50
78.065313698088801
51
79.434686301911
0
SPLINE
5
294
100
AcDbEntity
8
0
100
AcDbSpline
70
0
71
3
72
8
73
4
74
0
42
0.000000001
43
0.0000000001
44
0.0000000001
40
0
40
0
40
0
40
0
40
1
40
1
40
1
40
1
10
52.166407977518297
20
58.354681405440004
30
0
10
52.921634770607902
20
58.549763415934436
30
0
10
53.866561784978593
20
58.858095124598066
30
0
10
54.974551547381985
20
59.343021169441776
30
0
0
ARC
5
295
100
AcDbEntity
8
0
100
AcDbCircle
10
-3.3750779948604759e-13
20
59.999999999998707
30
0
40
54.978477052566561
210
0
220
0
230
1
100
AcDbArc
50
303.06531369808886
51
304.43468630191103
0
ARC
5
296
100
AcDbEntity
8
0
100
AcDbCircle
10
-3.3750779948604759e-13
20
59.999999999998991
30
0
40
51.229529895996791
210
0
220
-0
230
1
100
AcDbArc
50
53.057527968206003
51
53.817472031793656
0
ARC
5
297
100
AcDbEntity
8
0
100
AcDbCircle
10
38.484062512301371
20
94.417804837151436
30
0
40
0.40000000000000846
210
0
220
0
230
1
100
AcDbArc
50
221.8056263740859
51
297.35860713431651
0
SPLINE
5
298
100
AcDbEntity
8
0
100
AcDbSpline
70
0
71
3
72
8
73
4
74
0
42
0.000000001
43
0.0000000001
44
0.0000000001
40
0
40
0
40
0
40
0
40
1
40
1
40
1
40
1
10
51.753943041007176
20
53.249401932962556
30
0
10
52.524654591461875
20
53.369519399696244
30
0
10
53.495253316339671
20
53.583747363138237
30
0
10
54.645438869379682
20
53.957736368507057
30
0
0
ARC
5
299
100
AcDbEntity
8
0
100
AcDbCircle
10
-2.8421709430404007e-13
20
59.999999999999986
30
0
40
51.229529895995825
210
0
220
0
230
1
100
AcDbArc
50
109.30752796820668
51
110.06747203179432
0
ARC
5
300
100
AcDbEntity
8
0
100
AcDbCircle
10
-5.3290705182007514e-14
20
59.999999999999233
30
0
40
51.229529895996407
210
0
220
-0
230
1
100
AcDbArc
50
36.182527968205889
51
36.942472031793535
0
SPLINE
5
301
100
AcDbEntity
8
0
100
AcDbSpline
70
0
71
3
72
8
73
4
74
0
42
0.000000001
43
0.0000000001
44
0.0000000001
40
0
40
0
40
0
40
0
40
1
40
1
40
1
40
1
10
31.822170407172273
20
101.36895774770353
30
0
10
31.619873388540476
20
101.22127073447166
30
0
10
31.439588272256877
20
101.08167163050355
30
0
10
31.279620210170165
20
100.95177381902674
30
0
0
SPLINE
5
302
100
AcDbEntity
8
0
100
AcDbSpline
70
0
71
3
72
8
73
4
74
0
42
0.000000001
43
0.0000000001
44
0.0000000001
40
0
40
0
40
0
40
0
40
1
40
1
40
1
40
1
10
-31.088482346861834
20
105.34467117962544
30
0
10
-30.876117486881629
20
104.15400088571366
30
0
10
-30.607512611584333
20
103.19702286819103
30
0
10
-30.350135849797937
20
102.46069298131202
30
0
0
ARC
5
303
100
AcDbEntity
8
0
100
AcDbCircle
10
-5.595524044110789e-13
20
59.999999999998636
30
0
40
54.978477052566632
210
0
220
0
230
1
100
AcDbArc
50
106.19031369808899
51
107.55968630191087
0
ARC
5
304
100
AcDbEntity
8
0
100
AcDbCircle
10
-9.681144774731365e-13
20
60.000000000000014
30
0
40
51.229529895998411
210
0
220
0
230
1
100
AcDbArc
50
289.30752796820633
51
290.06747203179401
0
SPLINE
5
305
100
AcDbEntity
8
0
100
AcDbSpline
70
0
71
3
72
8
73
4
74
0
42
0.000000001
43
0.0000000001
44
0.0000000001
40
0
40
0
40
0
40
0
40
1
40
1
40
1
40
1
10
38.050636766471875
20
95.723804895621342
30
0
10
38.446718940691163
20
96.395774694856854
30
0
10
38.896859798228178
20
97.281962436495618
30
0
10
39.337432378025873
20
98.408324005659352
30
0
0
SPLINE
5
306
100
AcDbEntity
8
0
100
AcDbSpline
70
0
71
3
72
8
73
4
74
0
42
0.000000001
43
0.0000000001
44
0.0000000001
40
0
40
0
40
0
40
0
40
1
40
1
40
1
40
1
10
42.460692981312967
20
90.350135849796317
30
0
10
42.224235527415075
20
90.267531914533933
30
0
10
42.011189946870779
20
90.186277907908931
30
0
10
41.820402711550486
20
90.108409729857414
30
0
0
SPLINE
5
307
100
AcDbEntity
8
0
100
AcDbSpline
70
0
71
3
72
8
73
4
74
0
42
0.000000001
43
0.0000000001
44
0.0000000001
40
0
40
0
40
0
40
0
40
1
40
1
40
1
40
1
10
-21.644819373728925
20
110.53844806974313
30
0
10
-21.668823296039726
20
109.32922584274264
30
0
10
-21.592076737704424
20
108.33823367787014
30
0
10
-21.483296232967835
20
107.56584044796183
30
0
0
ARC
5
308
100
AcDbEntity
8
0
100
AcDbCircle
10
30.479975943798571
20
18.327713960899423
30
0
40
0.3999999999999973
210
0
220
0
230
1
100
AcDbArc
50
126.18062637408531
51
201.733607134328
0
ARC
5
309
100
AcDbEntity
8
0
100
AcDbCircle
10
-5.773159728050814e-13
20
59.999999999998735
30
0
40
54.978477052566632
210
0
220
-0
230
1
100
AcDbArc
50
83.69031369808863
51
85.059686301910858
0
SPLINE
5
310
100
AcDbEntity
8
0
100
AcDbSpline
70
0
71
3
72
8
73
4
74
0
42
0.000000001
43
0.0000000001
44
0.0000000001
40
0
40
0
40
0
40
0
40
1
40
1
40
1
40
1
10
26.042115947704787
20
105.23106666352993
30
0
10
26.226080420183877
20
105.98907825492185
30
0
10
26.399591640953581
20
106.96777604347653
30
0
10
26.494227808803174
20
108.17352833076163
30
0
0
ARC
5
311
100
AcDbEntity
8
0
100
AcDbCircle
10
-1.8740564655672642e-12
20
59.999999999999872
30
0
40
51.229529895995107
210
0
220
0
230
1
100
AcDbArc
50
148.68252796820599
51
149.44247203179401
0
SPLINE
5
312
100
AcDbEntity
8
0
100
AcDbSpline
70
0
71
3
72
8
73
4
74
0
42
0.000000001
43
0.0000000001
44
0.0000000001
40
0
40
0
40
0
40
0
40
1
40
1
40
1
40
1
10
-41.368957747705124
20
91.822170407171328
30
0
10
-41.221270734473237
20
91.619873388539531
30
0
10
-41.081671630505134
20
91.439588272255946
30
0
10
-40.951773819028432
20
91.279620210169213
30
0
0
ARC
5
313
100
AcDbEntity
8
0
100
AcDbCircle
10
-1.865174681370263e-13
20
59.999999999998565
30
0
40
54.978477052566546
210
0
220
-0
230
1
100
AcDbArc
50
38.690313698089128
51
40.059686301911341
0
SPLINE
5
314
100
AcDbEntity
8
0
100
AcDbSpline
70
0
71
3
72
8
73
4
74
0
42
0.000000001
43
0.0000000001
44
0.0000000001
40
0
40
0
40
0
40
0
40
1
40
1
40
1
40
1
10
13.568637175014766
20
110.39775074115104
30
0
10
13.438256473152075
20
110.18389001496105
30
0
10
13.32511700846287
20
109.98592513294435
30
0
10
13.227035530398075
20
109.80469807653483
30
0
0
SPLINE
5
315
100
AcDbEntity
8
0
100
AcDbSpline
70
0
71
3
72
8
73
4
74
0
42
0.000000001
43
0.0000000001
44
0.0000000001
40
0
40
0
40
0
40
0
40
1
40
1
40
1
40
1
10
-18.045057819442533
20
108.26839864456042
30
0
10
-18.16043036620173
20
108.43913937715973
30
0
10
-18.292428985065126
20
108.62506139737305
30
0
10
-18.443143885021733
20
108.82511278216155
30
0
0
SPLINE
5
316
100
AcDbEntity
8
0
100
AcDbSpline
70
0
71
3
72
8
73
4
74
0
42
0.000000001
43
0.0000000001
44
0.0000000001
40
0
40
0
40
0
40
0
40
1
40
1
40
1
40
1
10
18.443143885021065
20
108.82511278216155
30
0
10
18.292428985064568
20
108.62506139737305
30
0
10
18.160430366201076
20
108.43913937715973
30
0
10
18.045057819441872
20
108.26839864456042
30
0
0
ARC
5
317
100
AcDbEntity
8
0
100
AcDbCircle
10
-2.4868995751603507e-13
20
59.999999999998543
30
0
40
54.97847705256661
210
0
220
-0
230
1
100
AcDbArc
50
21.81531369808912
51
23.184686301911302
0
SPLINE
5
318
100
AcDbEntity
8
0
100
AcDbSpline
70
0
71
3
72
8
73
4
74
0
42
0.000000001
43
0.0000000001
44
0.0000000001
40
0
40
0
40
0
40
0
40
1
40
1
40
1
40
1
10
-54.046401166052632
20
70.080647797523028
30
0
10
-53.054305494492425
20
69.388881391118247
30
0
10
-52.187687520073226
20
68.902128074264098
30
0
10
-51.485030810291832
20
68.563457071640613
30
0
0
SPLINE
5
319
100
AcDbEntity
8
0
100
AcDbSpline
70
0
71
3
72
8
73
4
74
0
42
0.000000001
43
0.0000000001
44
0.0000000001
40
0
40
0
40
0
40
0
40
1
40
1
40
1
40
1
10
-51.041277897482246
20
80.430880784037711
30
0
10
-50.203201997049746
20
79.558858211123123
30
0
10
-49.448196705334027
20
78.912388943070724
30
0
10
-48.825112782163131
20
78.44314388502012
30
0
0
SPLINE
5
320
100
AcDbEntity
8
0
100
AcDbSpline
70
0
71
3
72
8
73
4
74
0
42
0.000000001
43
0.0000000001
44
0.0000000001
40
0
40
0
40
0
40
0
40
1
40
1
40
1
40
1
10
34.367634797908579
20
102.91268597299683
30
0
10
33.289880631945785
20
102.36383213060505
30
0
10
32.45208164610397
20
101.82899723610254
30
0
10
31.822170407172273
20
101.36895774770353
30
0
0
SPLINE
5
321
100
AcDbEntity
8
0
100
AcDbSpline
70
0
71
3
72
8
73
4
74
0
42
0.000000001
43
0.0000000001
44
0.0000000001
40
0
40
0
40
0
40
0
40
1
40
1
40
1
40
1
10
-44.570166263407735
20
85.864313226325834
30
0
10
-44.767667222177735
20
85.923106028599022
30
0
10
-44.987651215390123
20
85.983086656408418
30
0
10
-45.231066663531536
20
86.04211594770382
30
0
0
ARC
5
322
100
AcDbEntity
8
0
100
AcDbCircle
10
-26.248608220057026
20
104.45918267095033
30
0
40
0.40000000000000263
210
0
220
0
230
1
100
AcDbArc
50
-59.444373625915894
51
16.108607134333681
0
ARC
5
323
100
AcDbEntity
8
0
100
AcDbCircle
10
21.764452050206174
20
106.81791306981994
30
0
40
0.40000000000002928
210
0
220
0
230
1
100
AcDbArc
50
169.51639286566297
51
245.06937362591475
0
SPLINE
5
324
100
AcDbEntity
8
0
100
AcDbSpline
70
0
71
3
72
8
73
4
74
0
42
0.000000001
43
0.0000000001
44
0.0000000001
40
0
40
0
40
0
40
0
40
1
40
1
40
1
40
1
10
-34.365867352584935
20
99.281399614308242
30
0
10
-34.26048429440813
20
99.054177369195614
30
0
10
-34.158739429469236
20
98.850121946722624
30
0
10
-34.062545788761028
20
98.667885820223148
30
0
0
SPLINE
5
325
100
AcDbEntity
8
0
100
AcDbSpline
70
0
71
3
72
8
73
4
74
0
42
0.000000001
43
0.0000000001
44
0.0000000001
40
0
40
0
40
0
40
0
40
1
40
1
40
1
40
1
10
-49.442529186748132
20
76.717580631540812
30
0
10
-50.221865486135741
20
76.750129552808829
30
0
10
-51.215608231046815
20
76.729372337399028
30
0
10
-52.416654926688736
20
76.586959495821517
30
0
0
ARC
5
326
100
AcDbEntity
8
0
100
AcDbCircle
10
46.817913069820875
20
81.764452050205222
30
0
40
0.40000000000000124
210
0
220
0
230
1
100
AcDbArc
50
204.93062637408431
51
280.48360713432646
0
ARC
5
327
100
AcDbEntity
8
0
100
AcDbCircle
10
48.725761372553464
20
77.070692309451715
30
0
40
0.40000000000002345
210
0
220
0
230
1
100
AcDbArc
50
199.30562637408201
51
274.858607134333
0
SPLINE
5
328
100
AcDbEntity
8
0
100
AcDbSpline
70
0
71
3
72
8
73
4
74
0
42
0.000000001
43
0.0000000001
44
0.0000000001
40
0
40
0
40
0
40
0
40
1
40
1
40
1
40
1
10
11.790865589875468
20
110.84305934142704
30
0
10
11.746869463770073
20
111.62183327570234
30
0
10
11.628808377946571
20
112.60875631478343
30
0
10
11.369358130617471
20
113.79006074282876
30
0
0
SPLINE
5
329
100
AcDbEntity
8
0
100
AcDbSpline
70
0
71
3
72
8
73
4
74
0
42
0.000000001
43
0.0000000001
44
0.0000000001
40
0
40
0
40
0
40
0
40
1
40
1
40
1
40
1
10
51.075308532603472
20
53.160754594497597
30
0
10
51.280274657434795
20
53.182017472615911
30
0
10
51.506466958769302
20
53.210786827823583
30
0
10
51.753943041007176
20
53.249401932962556
30
0
0
SPLINE
5
330
100
AcDbEntity
8
0
100
AcDbSpline
70
0
71
3
72
8
73
4
74
0
42
0.000000001
43
0.0000000001
44
0.0000000001
40
0
40
0
40
0
40
0
40
1
40
1
40
1
40
1
10
30.108409729858366
20
101.82040271154955
30
0
10
30.186277907909876
20
102.01118994686985
30
0
10
30.26753191453497
20
102.22423552741412
30
0
10
30.350135849797269
20
102.46069298131202
30
0
0
ARC
5
331
100
AcDbEntity
8
0
100
AcDbCircle
10
-1.4743761767022079e-12
20
60.000000000000554
30
0
40
51.229529895994844
210
0
220
0
230
1
100
AcDbArc
50
114.93252796820592
51
115.69247203179353
0
ARC
5
332
100
AcDbEntity
8
0
100
AcDbCircle
10
-2.4868995751603507e-13
20
59.999999999998948
30
0
40
54.978477052566618
210
0
220
0
230
1
100
AcDbArc
50
162.44031369808914
51
163.80968630191143
0
SPLINE
5
333
100
AcDbEntity
8
0
100
AcDbSpline
70
0
71
3
72
8
73
4
74
0
42
0.000000001
43
0.0000000001
44
0.0000000001
40
0
40
0
40
0
40
0
40
1
40
1
40
1
40
1
10
21.48329623296717
20
107.56584044796183
30
0
10
21.592076737703778
20
108.33823367787014
30
0
10
21.668823296039072
20
109.32922584274264
30
0
10
21.644819373728275
20
110.53844806974313
30
0
0
ARC
5
334
100
AcDbEntity
8
0
100
AcDbCircle
10
-4.7961634663806763e-13
20
59.999999999998664
30
0
40
51.229529895996805
210
0
220
0
230
1
100
AcDbArc
50
165.55752796820602
51
166.31747203179299
0
ARC
5
335
100
AcDbEntity
8
0
100
AcDbCircle
10
-46.525118576573938
20
82.383513993445717
30
0
40
0.39999999999999569
210
0
220
0
230
1
100
AcDbArc
50
-25.694373625915446
51
49.858607134327244
0
SPLINE
5
336
100
AcDbEntity
8
0
100
AcDbSpline
70
0
71
3
72
8
73
4
74
0
42
0.000000001
43
0.0000000001
44
0.0000000001
40
0
40
0
40
0
40
0
40
1
40
1
40
1
40
1
10
49.804698076535779
20
73.227035530397131
30
0
10
49.985925132945283
20
73.325117008461916
30
0
10
50.183890014962003
20
73.438256473151128
30
0
10
50.397750741151988
20
73.568637175013819
30
0
0
ARC
5
337
100
AcDbEntity
8
0
100
AcDbCircle
10
-3.5527136788005009e-13
20
59.99999999999865
30
0
40
54.97847705256661
210
0
220
0
230
1
100
AcDbArc
50
151.19031369808903
51
152.55968630191097
0
SPLINE
5
338
100
AcDbEntity
8
0
100
AcDbSpline
70
0
71
3
72
8
73
4
74
0
42
0.000000001
43
0.0000000001
44
0.0000000001
40
0
40
0
40
0
40
0
40
1
40
1
40
1
40
1
10
38.050636766471875
20
24.276195104376121
30
0
10
37.923489481839169
20
24.491993866270612
30
0
10
37.802233617255069
20
24.685093965405933
30
0
10
37.688640911235069
20
24.857023949566024
30
0
0
SPLINE
5
339
100
AcDbEntity
8
0
100
AcDbSpline
70
0
71
3
72
8
73
4
74
0
42
0.000000001
43
0.0000000001
44
0.0000000001
40
0
40
0
40
0
40
0
40
1
40
1
40
1
40
1
10
-46.890694749616422
20
81.371129247552929
30
0
10
-47.093007389638224
20
81.410280467222535
30
0
10
-47.317811229408626
20
81.44841006998162
30
0
10
-47.565840447963438
20
81.483296232966211
30
0
0
SPLINE
5
340
100
AcDbEntity
8
0
100
AcDbSpline
70
0
71
3
72
8
73
4
74
0
42
0.000000001
43
0.0000000001
44
0.0000000001
40
0
40
0
40
0
40
0
40
1
40
1
40
1
40
1
10
6.8392454055007956
20
111.07530853260252
30
0
10
6.8179825273824779
20
111.28027465743385
30
0
10
6.7892131721748061
20
111.50646695876836
30
0
10
6.7505980670358401
20
111.75394304100622
30
0
0
ARC
5
341
100
AcDbEntity
8
0
100
AcDbCircle
10
17.070692309452671
20
108.72576137255253
30
0
40
0.39999999999997948
210
0
220
0
230
1
100
AcDbArc
50
175.14139286566601
51
250.69437362590492
0
ARC
5
342
100
AcDbEntity
8
0
100
AcDbCircle
10
-4.7073456244106637e-13
20
59.999999999998565
30
0
40
54.978477052566575
210
0
220
0
230
1
100
AcDbArc
50
139.94031369808866
51
141.30968630191103
0
SPLINE
5
343
100
AcDbEntity
8
0
100
AcDbSpline
70
0
71
3
72
8
73
4
74
0
42
0.000000001
43
0.0000000001
44
0.0000000001
40
0
40
0
40
0
40
0
40
1
40
1
40
1
40
1
10
3.4758061954066033
20
112.07648188814565
30
0
10
3.389652880109999
20
111.84129442273102
30
0
10
3.3173083910906964
20
111.62506096581333
30
0
10
3.2564671659175204
20
111.42818138933664
30
0
0
SPLINE
5
344
100
AcDbEntity
8
0
100
AcDbSpline
70
0
71
3
72
8
73
4
74
0
42
0.000000001
43
0.0000000001
44
0.0000000001
40
0
40
0
40
0
40
0
40
1
40
1
40
1
40
1
10
38.408324005660283
20
99.337432378024943
30
0
10
37.281962436496563
20
98.89685979822724
30
0
10
36.39577469485787
20
98.446718940690218
30
0
10
35.723804895622273
20
98.05063676647093
30
0
0
SPLINE
5
345
100
AcDbEntity
8
0
100
AcDbSpline
70
0
71
3
72
8
73
4
74
0
42
0.000000001
43
0.0000000001
44
0.0000000001
40
0
40
0
40
0
40
0
40
1
40
1
40
1
40
1
10
42.079120057111787
20
95.383337805224727
30
0
10
40.914998562390174
20
95.055289442805929
30
0
10
39.988956537345864
20
94.694177724764529
30
0
10
39.28139961430918
20
94.365867352583322
30
0
0
ARC
5
346
100
AcDbEntity
8
0
100
AcDbCircle
10
31.030021413414566
20
101.26434451608296
30
0
40
0.40000000000002323
210
0
220
0
230
1
100
AcDbArc
50
233.05562637408636
51
308.60860713432754
0
ARC
5
347
100
AcDbEntity
8
0
100
AcDbCircle
10
4.4408920985006262e-13
20
59.999999999997996
30
0
40
51.229529895996308
210
0
220
-0
230
1
100
AcDbArc
50
8.0575279682070224
51
8.8174720317938053
0
SPLINE
5
348
100
AcDbEntity
8
0
100
AcDbSpline
70
0
71
3
72
8
73
4
74
0
42
0.000000001
43
0.0000000001
44
0.0000000001
40
0
40
0
40
0
40
0
40
1
40
1
40
1
40
1
10
45.344671179626374
20
91.088482346860232
30
0
10
44.154000885714588
20
90.876117486880034
30
0
10
43.197022868191965
20
90.60751261158272
30
0
10
42.460692981312967
20
90.350135849796317
30
0
0
SPLINE
5
349
100
AcDbEntity
8
0
100
AcDbSpline
70
0
71
3
72
8
73
4
74
0
42
0.000000001
43
0.0000000001
44
0.0000000001
40
0
40
0
40
0
40
0
40
1
40
1
40
1
40
1
10
21.371129247553881
20
106.89069474961484
30
0
10
21.41028046722348
20
107.09300738963664
30
0
10
21.448410069982565
20
107.31781122940704
30
0
10
21.48329623296717
20
107.56584044796183
30
0
0
SPLINE
5
350
100
AcDbEntity
8
0
100
AcDbSpline
70
0
71
3
72
8
73
4
74
0
42
0.000000001
43
0.0000000001
44
0.0000000001
40
0
40
0
40
0
40
0
40
1
40
1
40
1
40
1
10
50.397750741151988
20
73.568637175013819
30
0
10
51.063828403630474
20
73.974549785517624
30
0
10
51.878563207468076
20
74.543902667718726
30
0
10
52.798076702270478
20
75.329580410457226
30
0
0
ARC
5
351
100
AcDbEntity
8
0
100
AcDbCircle
10
46.525118576573277
20
82.383513993445717
30
0
40
0.40000000000001401
210
0
220
0
230
1
100
AcDbArc
50
130.14139286566856
51
205.69437362591498
0
ARC
5
352
100
AcDbEntity
8
0
100
AcDbCircle
10
-4.8849813083506888e-13
20
59.999999999998593
30
0
40
54.97847705256661
210
0
220
0
230
1
100
AcDbArc
50
308.69031369808897
51
310.05968630191103
0
SPLINE
5
353
100
AcDbEntity
8
0
100
AcDbSpline
70
0
71
3
72
8
73
4
74
0
42
0.000000001
43
0.0000000001
44
0.0000000001
40
0
40
0
40
0
40
0
40
1
40
1
40
1
40
1
10
-27.115024528104836
20
103.82051875842544
30
0
10
-27.261490088232936
20
103.96547068842503
30
0
10
-27.42722397744113
20
104.12206861609333
30
0
10
-27.614071021934031
20
104.28887305125302
30
0
0
ARC
5
354
100
AcDbEntity
8
0
100
AcDbCircle
10
22.383513993446684
20
106.52511857657232
30
0
40
0.4000000000000114
210
0
220
0
230
1
100
AcDbArc
50
244.30562637408318
51
319.85860713434028
0
ARC
5
355
100
AcDbEntity
8
0
100
AcDbCircle
10
22.383513993446684
20
13.474881423425114
30
0
40
0.40000000000000047
210
0
220
-0
230
1
100
AcDbArc
50
40.141392865670937
51
115.69437362591738
0
SPLINE
5
356
100
AcDbEntity
8
0
100
AcDbSpline
70
0
71
3
72
8
73
4
74
0
42
0.000000001
43
0.0000000001
44
0.0000000001
40
0
40
0
40
0
40
0
40
1
40
1
40
1
40
1
10
34.365867352584274
20
99.281399614308242
30
0
10
34.694177724765566
20
99.988956537344919
30
0
10
35.055289442806973
20
100.91499856238924
30
0
10
35.383337805225665
20
102.07912005711086
30
0
0
SPLINE
5
357
100
AcDbEntity
8
0
100
AcDbSpline
70
0
71
3
72
8
73
4
74
0
42
0.000000001
43
0.0000000001
44
0.0000000001
40
0
40
0
40
0
40
0
40
1
40
1
40
1
40
1
10
-45.231066663531536
20
86.04211594770382
30
0
10
-45.989078254923328
20
86.226080420182925
30
0
10
-46.967776043478118
20
86.399591640952607
30
0
10
-48.173528330763233
20
86.494227808802222
30
0
0
SPLINE
5
358
100
AcDbEntity
8
0
100
AcDbSpline
70
0
71
3
72
8
73
4
74
0
42
0.000000001
43
0.0000000001
44
0.0000000001
40
0
40
0
40
0
40
0
40
1
40
1
40
1
40
1
10
25.335420607013369
20
108.79292368453824
30
0
10
24.385451257995776
20
108.04435650753562
30
0
10
23.668091456539379
20
107.35635184162894
30
0
10
23.140033037366578
20
106.78226229655822
30
0
0
SPLINE
5
359
100
AcDbEntity
8
0
100
AcDbSpline
70
0
71
3
72
8
73
4
74
0
42
0.000000001
43
0.0000000001
44
0.0000000001
40
0
40
0
40
0
40
0
40
1
40
1
40
1
40
1
10
34.062545788760474
20
98.667885820223148
30
0
10
34.158739429468568
20
98.850121946722624
30
0
10
34.260484294407576
20
99.054177369195614
30
0
10
34.365867352584274
20
99.281399614308242
30
0
0
ARC
5
360
100
AcDbEntity
8
0
100
AcDbCircle
10
34.925216425981766
20
98.024171455237422
30
0
40
0.39999999999999136
210
0
220
0
230
1
100
AcDbArc
50
227.43062637408448
51
302.98360713431543
0
SPLINE
5
361
100
AcDbEntity
8
0
100
AcDbSpline
70
0
71
3
72
8
73
4
74
0
42
0.000000001
43
0.0000000001
44
0.0000000001
40
0
40
0
40
0
40
0
40
1
40
1
40
1
40
1
10
-18.443143885021733
20
108.82511278216155
30
0
10
-18.912388943072234
20
109.44819670533244
30
0
10
-19.558858211124726
20
110.20320199704814
30
0
10
-20.430880784039331
20
111.04127789748064
30
0
0
SPLINE
5
362
100
AcDbEntity
8
0
100
AcDbSpline
70
0
71
3
72
8
73
4
74
0
42
0.000000001
43
0.0000000001
44
0.0000000001
40
0
40
0
40
0
40
0
40
1
40
1
40
1
40
1
10
-48.825112782163131
20
78.44314388502012
30
0
10
-48.62506139737463
20
78.292428985063623
30
0
10
-48.439139377161325
20
78.160430366200131
30
0
10
-48.268398644562033
20
78.045057819440927
30
0
0
SPLINE
5
363
100
AcDbEntity
8
0
100
AcDbSpline
70
0
71
3
72
8
73
4
74
0
42
0.000000001
43
0.0000000001
44
0.0000000001
40
0
40
0
40
0
40
0
40
1
40
1
40
1
40
1
10
41.368957747704471
20
91.822170407171328
30
0
10
41.828997236103469
20
92.452081646103025
30
0
10
42.363832130605978
20
93.289880631944854
30
0
10
42.912685972997771
20
94.367634797907641
30
0
0
SPLINE
5
364
100
AcDbEntity
8
0
100
AcDbSpline
70
0
71
3
72
8
73
4
74
0
42
0.000000001
43
0.0000000001
44
0.0000000001
40
0
40
0
40
0
40
0
40
1
40
1
40
1
40
1
10
-42.912685972998432
20
94.367634797907641
30
0
10
-42.363832130606625
20
93.289880631944854
30
0
10
-41.828997236104122
20
92.452081646103025
30
0
10
-41.368957747705124
20
91.822170407171328
30
0
0
ARC
5
365
100
AcDbEntity
8
0
100
AcDbCircle
10
44.107119381854282
20
86.835990331900035
30
0
40
0.40000000000000835
210
0
220
0
230
1
100
AcDbArc
50
135.76639286567288
51
211.31937362591663
0
ARC
5
366
100
AcDbEntity
8
0
100
AcDbCircle
10
2.1912921157791576
20
111.58300685421763
30
0
40
0.39999999999999636
210
0
220
0
230
1
100
AcDbArc
50
192.01639286567013
51
267.56937362589542
0
ARC
5
367
100
AcDbEntity
8
0
100
AcDbCircle
10
1.5099033134902129e-13
20
59.999999999998423
30
0
40
51.229529895996997
210
0
220
-0
230
1
100
AcDbArc
50
58.682527968206799
51
59.442472031793606
0
SPLINE
5
368
100
AcDbEntity
8
0
100
AcDbSpline
70
0
71
3
72
8
73
4
74
0
42
0.000000001
43
0.0000000001
44
0.0000000001
40
0
40
0
40
0
40
0
40
1
40
1
40
1
40
1
10
44.570166263407074
20
34.135686773671623
30
0
10
44.767667222177067
20
34.07689397139832
30
0
10
44.987651215389477
20
34.016913343589025
30
0
10
45.231066663530875
20
33.957884052293615
30
0
0
ARC
5
369
100
AcDbEntity
8
0
100
AcDbCircle
10
7.9141583655292269
20
111.01935372605445
30
0
40
0.40000000000001068
210
0
220
0
230
1
100
AcDbArc
50
261.18062637408758
51
336.73360713432658
0
ARC
5
370
100
AcDbEntity
8
0
100
AcDbCircle
10
7.638334409421077e-13
20
59.999999999998877
30
0
40
9.9999999999999929
210
0
220
0
230
1
100
AcDbArc
50
-17.999999999996742
51
9.891206349849174
0
SPLINE
5
371
100
AcDbEntity
8
0
100
AcDbSpline
70
0
71
3
72
8
73
4
74
0
42
0.000000001
43
0.0000000001
44
0.0000000001
40
0
40
0
40
0
40
0
40
1
40
1
40
1
40
1
10
-47.565840447963438
20
81.483296232966211
30
0
10
-48.338233677871727
20
81.592076737702826
30
0
10
-49.329225842744229
20
81.668823296038113
30
0
10
-50.538448069744732
20
81.64481937372733
30
0
0
ARC
5
372
100
AcDbEntity
8
0
100
AcDbCircle
10
42.490780742259624
20
39.911855438760931
30
0
40
0.99999999999997546
210
0
220
0
230
1
100
AcDbArc
50
-25.303135031485262
51
101.17665151410796
0
ARC
5
373
100
AcDbEntity
8
0
100
AcDbCircle
10
17.71547217916207
20
108.49505544618205
30
0
40
0.3999999999999943
210
0
220
0
230
1
100
AcDbArc
50
249.93062637408286
51
325.48360713433067
0
ARC
5
374
100
AcDbEntity
8
0
100
AcDbCircle
10
-48.725761372554132
20
77.070692309451715
30
0
40
0.39999999999999419
210
0
220
0
230
1
100
AcDbArc
50
265.14139286567229
51
340.69437362585739
0
SPLINE
5
375
100
AcDbEntity
8
0
100
AcDbSpline
70
0
71
3
72
8
73
4
74
0
42
0.000000001
43
0.0000000001
44
0.0000000001
40
0
40
0
40
0
40
0
40
1
40
1
40
1
40
1
10
47.565840447962778
20
81.483296232966211
30
0
10
47.31781122940798
20
81.44841006998162
30
0
10
47.093007389637577
20
81.410280467222535
30
0
10
46.890694749615768
20
81.371129247552929
30
0
0
ARC
5
376
100
AcDbEntity
8
0
100
AcDbCircle
10
26.83599033190098
20
15.892880618144112
30
0
40
0.40000000000000835
210
0
220
-0
230
1
100
AcDbArc
50
45.766392865672159
51
121.31937362591314
0
SPLINE
5
377
100
AcDbEntity
8
0
100
AcDbSpline
70
0
71
3
72
8
73
4
74
0
42
0.000000001
43
0.0000000001
44
0.0000000001
40
0
40
0
40
0
40
0
40
1
40
1
40
1
40
1
10
16.717580631541765
20
109.44252918674655
30
0
10
16.750129552809767
20
110.22186548613413
30
0
10
16.729372337399973
20
111.21560823104522
30
0
10
16.586959495822473
20
112.41665492668714
30
0
0
ARC
5
378
100
AcDbEntity
8
0
100
AcDbCircle
10
0
20
60
30
0
40
51.229529895995881
210
0
220
-0
230
1
100
AcDbArc
50
47.432527968205513
51
48.192472031793109
0
ARC
5
379
100
AcDbEntity
8
0
100
AcDbCircle
10
34.417804837152374
20
98.48406251230044
30
0
40
0.39999999999995678
210
0
220
0
230
1
100
AcDbArc
50
152.64139286567698
51
228.19437362591694
0
ARC
5
380
100
AcDbEntity
8
0
100
AcDbCircle
10
3.730349362740526e-13
20
59.999999999999964
30
0
40
51.229529895998446
210
0
220
0
230
1
100
AcDbArc
50
238.68252796820619
51
239.44247203179381
0
ARC
5
381
100
AcDbEntity
8
0
100
AcDbCircle
10
-6.5725203057809267e-13
20
59.999999999996575
30
0
40
51.229529895994787
210
0
220
0
230
1
100
AcDbArc
50
249.93252796820599
51
250.69247203179336
0
ARC
5
382
100
AcDbEntity
8
0
100
AcDbCircle
10
1.3322676295501878e-13
20
60.000000000000085
30
0
40
51.229529895998397
210
0
220
0
230
1
100
AcDbArc
50
244.30752796820599
51
245.06747203179501
0
SPLINE
5
383
100
AcDbEntity
8
0
100
AcDbSpline
70
0
71
3
72
8
73
4
74
0
42
0.000000001
43
0.0000000001
44
0.0000000001
40
0
40
0
40
0
40
0
40
1
40
1
40
1
40
1
10
-34.365867352584935
20
20.718600385689214
30
0
10
-34.694177724766135
20
20.011043462652527
30
0
10
-35.055289442807535
20
19.08500143760822
30
0
10
-35.383337805226333
20
17.920879942886607
30
0
0
ARC
5
384
100
AcDbEntity
8
0
100
AcDbCircle
10
-2.9398705692074145e-12
20
59.99999999999369
30
0
40
51.229529895991412
210
0
220
0
230
1
100
AcDbArc
50
233.05752796820497
51
233.81747203179202
0
ARC
5
385
100
AcDbEntity
8
0
100
AcDbCircle
10
-17.715472179162724
20
11.504944553815406
30
0
40
0.40000000000003721
210
0
220
-0
230
1
100
AcDbArc
50
69.930626374051513
51
145.48360713433331
0
ARC
5
386
100
AcDbEntity
8
0
100
AcDbCircle
10
-1.1102230246251565e-12
20
59.999999999997904
30
0
40
9.9999999999999982
210
0
220
0
230
1
100
AcDbArc
50
198.00000000000327
51
225.89120634984917
0
SPLINE
5
387
100
AcDbEntity
8
0
100
AcDbSpline
70
0
71
3
72
8
73
4
74
0
42
0.000000001
43
0.0000000001
44
0.0000000001
40
0
40
0
40
0
40
0
40
1
40
1
40
1
40
1
10
-25.864313226327429
20
15.429833736591316
30
0
10
-25.923106028600635
20
15.232332777821327
30
0
10
-25.98308665641003
20
15.012348784608918
30
0
10
-26.042115947705433
20
14.768933336467516
30
0
0
SPLINE
5
388
100
AcDbEntity
8
0
100
AcDbSpline
70
0
71
3
72
8
73
4
74
0
42
0.000000001
43
0.0000000001
44
0.0000000001
40
0
40
0
40
0
40
0
40
1
40
1
40
1
40
1
10
-26.042115947705433
20
14.768933336467516
30
0
10
-26.226080420184523
20
14.010921745075713
30
0
10
-26.399591640954228
20
13.032223956520923
30
0
10
-26.494227808803828
20
11.826471669235818
30
0
0
ARC
5
389
100
AcDbEntity
8
0
100
AcDbCircle
10
-22.38351399344733
20
13.474881423425114
30
0
40
0.39999999999999813
210
0
220
-0
230
1
100
AcDbArc
50
64.305626374146485
51
139.85860713433885
0
SPLINE
5
390
100
AcDbEntity
8
0
100
AcDbSpline
70
0
71
3
72
8
73
4
74
0
42
0.000000001
43
0.0000000001
44
0.0000000001
40
0
40
0
40
0
40
0
40
1
40
1
40
1
40
1
10
-21.371129247554528
20
13.109305250382626
30
0
10
-21.41028046722413
20
12.906992610360817
30
0
10
-21.448410069983126
20
12.682188770590415
30
0
10
-21.483296232967835
20
12.434159552035613
30
0
0
ARC
5
391
100
AcDbEntity
8
0
100
AcDbCircle
10
30.271508533871796
20
33.619166649643653
30
0
40
40.51326539133057
210
0
220
0
230
1
100
AcDbArc
50
155.30043648481515
51
209.17665151410614
0
SPLINE
5
392
100
AcDbEntity
8
0
100
AcDbSpline
70
0
71
3
72
8
73
4
74
0
42
0.000000001
43
0.0000000001
44
0.0000000001
40
0
40
0
40
0
40
0
40
1
40
1
40
1
40
1
10
-23.140033037367225
20
13.217737703439223
30
0
10
-22.970435406192635
20
13.402053142631623
30
0
10
-22.820848852012226
20
13.574141770351513
30
0
10
-22.689296337253133
20
13.732751852549221
30
0
0
ARC
5
393
100
AcDbEntity
8
0
100
AcDbCircle
10
26.83599033190098
20
104.10711938185335
30
0
40
0.40000000000001257
210
0
220
0
230
1
100
AcDbArc
50
238.68062637409611
51
314.23360713432356
0
SPLINE
5
394
100
AcDbEntity
8
0
100
AcDbSpline
70
0
71
3
72
8
73
4
74
0
42
0.000000001
43
0.0000000001
44
0.0000000001
40
0
40
0
40
0
40
0
40
1
40
1
40
1
40
1
10
38.667885820224079
20
25.93745421123792
30
0
10
38.850121946723569
20
25.841260570529823
30
0
10
39.054177369196566
20
25.739515705590819
30
0
10
39.28139961430918
20
25.634132647414027
30
0
0
SPLINE
5
395
100
AcDbEntity
8
0
100
AcDbSpline
70
0
71
3
72
8
73
4
74
0
42
0.000000001
43
0.0000000001
44
0.0000000001
40
0
40
0
40
0
40
0
40
1
40
1
40
1
40
1
10
50.843059341427981
20
48.209134410122928
30
0
10
51.621833275703295
20
48.253130536228319
30
0
10
52.608756314784387
20
48.371191622051825
30
0
10
53.790060742829702
20
48.630641869380824
30
0
0
ARC
5
396
100
AcDbEntity
8
0
100
AcDbCircle
10
2.7000491021526773
20
17.084854248807577
30
0
40
4.9999999999999964
210
0
220
0
230
1
100
AcDbArc
50
209.5335538813205
51
273.60007578316123
0
SPLINE
5
397
100
AcDbEntity
8
0
100
AcDbSpline
70
0
71
3
72
8
73
4
74
0
42
0.000000001
43
0.0000000001
44
0.0000000001
40
0
40
0
40
0
40
0
40
1
40
1
40
1
40
1
10
44.288873051253972
20
32.385928978065017
30
0
10
44.122068616094275
20
32.572776022557917
30
0
10
43.965470688425967
20
32.738509911766123
30
0
10
43.820518758426374
20
32.884975471894222
30
0
0
SPLINE
5
398
100
AcDbEntity
8
0
100
AcDbSpline
70
0
71
3
72
8
73
4
74
0
42
0.000000001
43
0.0000000001
44
0.0000000001
40
0
40
0
40
0
40
0
40
1
40
1
40
1
40
1
10
30.350135849797269
20
17.539307018685424
30
0
10
30.267531914534864
20
17.775764472583315
30
0
10
30.186277907909876
20
17.988810053127615
30
0
10
30.108409729858366
20
18.179597288447908
30
0
0
ARC
5
399
100
AcDbEntity
8
0
100
AcDbCircle
10
7.236759266751287
20
111.11983639032923
30
0
40
0.40000000000000585
210
0
220
0
230
1
100
AcDbArc
50
186.39139286567053
51
261.94437362589565
0
ARC
5
400
100
AcDbEntity
8
0
100
AcDbCircle
10
11.821628422947867
20
62.061334865995349
30
0
40
2.0000000000001394
210
0
220
0
230
1
100
AcDbArc
50
119.30043648481703
51
189.89120634984641
0
SPLINE
5
401
100
AcDbEntity
8
0
100
AcDbSpline
70
0
71
3
72
8
73
4
74
0
42
0.000000001
43
0.0000000001
44
0.0000000001
40
0
40
0
40
0
40
0
40
1
40
1
40
1
40
1
10
48.825112782162485
20
78.44314388502012
30
0
10
49.448196705333373
20
78.912388943070624
30
0
10
50.203201997049092
20
79.558858211123123
30
0
10
51.041277897481592
20
80.430880784037711
30
0
0
ARC
5
402
100
AcDbEntity
8
0
100
AcDbCircle
10
-1.4210854715202004e-13
20
59.999999999999964
30
0
40
51.229529895995753
210
0
220
-0
230
1
100
AcDbArc
50
64.307527968205818
51
65.067472031793386
0
SPLINE
5
403
100
AcDbEntity
8
0
100
AcDbSpline
70
0
71
3
72
8
73
4
74
0
42
0.000000001
43
0.0000000001
44
0.0000000001
40
0
40
0
40
0
40
0
40
1
40
1
40
1
40
1
10
48.268398644561373
20
78.045057819440927
30
0
10
48.439139377160664
20
78.160430366200131
30
0
10
48.625061397373976
20
78.292428985063623
30
0
10
48.825112782162485
20
78.44314388502012
30
0
0
SPLINE
5
404
100
AcDbEntity
8
0
100
AcDbSpline
70
0
71
3
72
8
73
4
74
0
42
0.000000001
43
0.0000000001
44
0.0000000001
40
0
40
0
40
0
40
0
40
1
40
1
40
1
40
1
10
20.430880784038663
20
111.04127789748064
30
0
10
19.558858211124068
20
110.20320199704814
30
0
10
18.912388943071569
20
109.44819670533244
30
0
10
18.443143885021065
20
108.82511278216155
30
0
0
SPLINE
5
405
100
AcDbEntity
8
0
100
AcDbSpline
70
0
71
3
72
8
73
4
74
0
42
0.000000001
43
0.0000000001
44
0.0000000001
40
0
40
0
40
0
40
0
40
1
40
1
40
1
40
1
10
46.782262296559168
20
36.859966962631816
30
0
10
46.597946857366772
20
37.029564593806427
30
0
10
46.425858229646877
20
37.179151147986822
30
0
10
46.267248147449067
20
37.310703662745922
30
0
0
SPLINE
5
406
100
AcDbEntity
8
0
100
AcDbSpline
70
0
71
3
72
8
73
4
74
0
42
0.000000001
43
0.0000000001
44
0.0000000001
40
0
40
0
40
0
40
0
40
1
40
1
40
1
40
1
10
50.397750741151988
20
46.431362824983523
30
0
10
50.183890014962003
20
46.561743526846215
30
0
10
49.985925132945283
20
46.674882991535412
30
0
10
49.804698076535672
20
46.772964469600225
30
0
0
ARC
5
407
100
AcDbEntity
8
0
100
AcDbCircle
10
-3.1974423109204508e-13
20
59.999999999998721
30
0
40
54.978477052566575
210
0
220
-0
230
1
100
AcDbArc
50
44.315313698088943
51
45.684686301911114
0
SPLINE
5
408
100
AcDbEntity
8
0
100
AcDbSpline
70
0
71
3
72
8
73
4
74
0
42
0.000000001
43
0.0000000001
44
0.0000000001
40
0
40
0
40
0
40
0
40
1
40
1
40
1
40
1
10
45.231066663530875
20
86.04211594770382
30
0
10
44.987651215389477
20
85.983086656408418
30
0
10
44.767667222177067
20
85.923106028599022
30
0
10
44.570166263407074
20
85.864313226325834
30
0
0
ARC
5
409
100
AcDbEntity
8
0
100
AcDbCircle
10
1.5099033134902129e-12
20
59.999999999996803
30
0
40
51.229529895994389
210
0
220
0
230
1
100
AcDbArc
50
317.43252796820639
51
318.19247203179401
0
ARC
5
410
100
AcDbEntity
8
0
100
AcDbCircle
10
41.264344516083888
20
91.030021413413621
30
0
40
0.39999999999997593
210
0
220
0
230
1
100
AcDbArc
50
141.39139286566945
51
216.94437362591438
0
ARC
5
411
100
AcDbEntity
8
0
100
AcDbCircle
10
-3.1974423109204508e-13
20
59.999999999998707
30
0
40
54.978477052566575
210
0
220
-0
230
1
100
AcDbArc
50
55.565313698088836
51
56.934686301911206
0
SPLINE
5
412
100
AcDbEntity
8
0
100
AcDbSpline
70
0
71
3
72
8
73
4
74
0
42
0.000000001
43
0.0000000001
44
0.0000000001
40
0
40
0
40
0
40
0
40
1
40
1
40
1
40
1
10
26.042115947704787
20
14.768933336467516
30
0
10
25.983086656409363
20
15.012348784608918
30
0
10
25.923106028599967
20
15.232332777821327
30
0
10
25.864313226326765
20
15.429833736591316
30
0
0
ARC
5
413
100
AcDbEntity
8
0
100
AcDbCircle
10
3.5527136788005009e-13
20
59.999999999998707
30
0
40
51.229529895996258
210
0
220
-0
230
1
100
AcDbArc
50
13.682527968206387
51
14.442472031794006
0
ARC
5
414
100
AcDbEntity
8
0
100
AcDbCircle
10
44.459182670951279
20
86.248608220055431
30
0
40
0.40000000000000085
210
0
220
0
230
1
100
AcDbArc
50
210.55562637408875
51
286.10860713433368
0
ARC
5
415
100
AcDbEntity
8
0
100
AcDbCircle
10
51.583006854218574
20
57.808707884219231
30
0
40
0.39999999999999636
210
0
220
0
230
1
100
AcDbArc
50
102.01639286567017
51
177.56937362592527
0
ARC
5
416
100
AcDbEntity
8
0
100
AcDbCircle
10
51.019353726055392
20
52.085841634469148
30
0
40
0.4000000000000134
210
0
220
0
230
1
100
AcDbArc
50
171.18062637408457
51
246.73360713432746
0
ARC
5
417
100
AcDbEntity
8
0
100
AcDbCircle
10
-1.021405182655144e-12
20
60.000000000000213
30
0
40
51.22952989599856
210
0
220
0
230
1
100
AcDbArc
50
306.18252796820582
51
306.94247203179299
0
SPLINE
5
418
100
AcDbEntity
8
0
100
AcDbSpline
70
0
71
3
72
8
73
4
74
0
42
0.000000001
43
0.0000000001
44
0.0000000001
40
0
40
0
40
0
40
0
40
1
40
1
40
1
40
1
10
27.614071021933377
20
104.28887305125302
30
0
10
27.42722397744047
20
104.12206861609333
30
0
10
27.261490088232271
20
103.96547068842503
30
0
10
27.115024528104172
20
103.82051875842544
30
0
0
SPLINE
5
419
100
AcDbEntity
8
0
100
AcDbSpline
70
0
71
3
72
8
73
4
74
0
42
0.000000001
43
0.0000000001
44
0.0000000001
40
0
40
0
40
0
40
0
40
1
40
1
40
1
40
1
10
52.076481888146596
20
56.524193804591789
30
0
10
51.84129442273197
20
56.610347119888388
30
0
10
51.625060965814285
20
56.682691608907696
30
0
10
51.428181389337595
20
56.743532834080881
30
0
0
ARC
5
420
100
AcDbEntity
8
0
100
AcDbCircle
10
2.042810365310288e-13
20
59.999999999998508
30
0
40
51.229529895996507
210
0
220
-0
230
1
100
AcDbArc
50
19.307527968206582
51
20.067472031794221
0
SPLINE
5
421
100
AcDbEntity
8
0
100
AcDbSpline
70
0
71
3
72
8
73
4
74
0
42
0.000000001
43
0.0000000001
44
0.0000000001
40
0
40
0
40
0
40
0
40
1
40
1
40
1
40
1
10
39.28139961430918
20
94.365867352583322
30
0
10
39.054177369196566
20
94.260484294406538
30
0
10
38.850121946723569
20
94.158739429467616
30
0
10
38.667885820224079
20
94.062545788759437
30
0
0
ARC
5
422
100
AcDbEntity
8
0
100
AcDbCircle
10
30.479975943798571
20
101.67228603909804
30
0
40
0.40000000000000618
210
0
220
0
230
1
100
AcDbArc
50
158.26639286567294
51
233.81937362591529
0
SPLINE
5
423
100
AcDbEntity
8
0
100
AcDbSpline
70
0
71
3
72
8
73
4
74
0
42
0.000000001
43
0.0000000001
44
0.0000000001
40
0
40
0
40
0
40
0
40
1
40
1
40
1
40
1
10
50.159003685057797
20
48.187431746665119
30
0
10
50.36506696848339
20
48.188502044793218
30
0
10
50.592989981988879
20
48.194962145150711
30
0
10
50.843059341427981
20
48.209134410122928
30
0
0
SPLINE
5
424
100
AcDbEntity
8
0
100
AcDbSpline
70
0
71
3
72
8
73
4
74
0
42
0.000000001
43
0.0000000001
44
0.0000000001
40
0
40
0
40
0
40
0
40
1
40
1
40
1
40
1
10
43.820518758426374
20
87.11502452810322
30
0
10
43.965470688425967
20
87.261490088231312
30
0
10
44.122068616094275
20
87.427223977439525
30
0
10
44.288873051253972
20
87.614071021932432
30
0
0
ARC
5
425
100
AcDbEntity
8
0
100
AcDbCircle
10
-8.4376949871511897e-13
20
59.999999999998593
30
0
40
51.229529895996492
210
0
220
0
230
1
100
AcDbArc
50
159.9325279682059
51
160.69247203179401
0
SPLINE
5
426
100
AcDbEntity
8
0
100
AcDbSpline
70
0
71
3
72
8
73
4
74
0
42
0.000000001
43
0.0000000001
44
0.0000000001
40
0
40
0
40
0
40
0
40
1
40
1
40
1
40
1
10
27.614071021933377
20
15.711126948744418
30
0
10
28.195857310985872
20
15.191560577922125
30
0
10
28.977199078809377
20
14.57718239885871
30
0
10
29.99596647979277
20
13.925333056409013
30
0
0
SPLINE
5
427
100
AcDbEntity
8
0
100
AcDbSpline
70
0
71
3
72
8
73
4
74
0
42
0.000000001
43
0.0000000001
44
0.0000000001
40
0
40
0
40
0
40
0
40
1
40
1
40
1
40
1
10
47.565840447962778
20
38.516703767031224
30
0
10
48.338233677871074
20
38.407923262294617
30
0
10
49.329225842743575
20
38.331176703959322
30
0
10
50.538448069744078
20
38.355180626270226
30
0
0
SPLINE
5
428
100
AcDbEntity
8
0
100
AcDbSpline
70
0
71
3
72
8
73
4
74
0
42
0.000000001
43
0.0000000001
44
0.0000000001
40
0
40
0
40
0
40
0
40
1
40
1
40
1
40
1
10
31.279620210170165
20
19.048226180970715
30
0
10
31.439588272256877
20
18.918328369493906
30
0
10
31.619873388540476
20
18.778729265525804
30
0
10
31.822170407172273
20
18.631042252293923
30
0
0
ARC
5
429
100
AcDbEntity
8
0
100
AcDbCircle
10
3.8191672047105385e-13
20
59.99999999999892
30
0
40
51.229529895996244
210
0
220
-0
230
1
100
AcDbArc
50
24.932527968206372
51
25.692472031793898
0
ARC
5
430
100
AcDbEntity
8
0
100
AcDbCircle
10
-2.4868995751603507e-13
20
59.999999999998991
30
0
40
54.978477052566632
210
0
220
0
230
1
100
AcDbArc
50
342.44031369808897
51
343.80968630191074
0
ARC
5
431
100
AcDbEntity
8
0
100
AcDbCircle
10
41.264344516083888
20
28.969978586583824
30
0
40
0.40000000000003733
210
0
220
0
230
1
100
AcDbArc
50
143.05562637410068
51
218.6086071343218
0
ARC
5
432
100
AcDbEntity
8
0
100
AcDbCircle
10
41.672286039098971
20
90.479975943797641
30
0
40
0.40000000000000768
210
0
220
0
230
1
100
AcDbArc
50
216.18062637408696
51
291.733607134328
0
ARC
5
433
100
AcDbEntity
8
0
100
AcDbCircle
10
26.248608220056376
20
15.540817329047112
30
0
40
0.39999999999999181
210
0
220
0
230
1
100
AcDbArc
50
120.55562637408677
51
196.10860713432965
0
ARC
5
434
100
AcDbEntity
8
0
100
AcDbCircle
10
38.024171455238374
20
25.074783574016628
30
0
40
0.39999999999999136
210
0
220
0
230
1
100
AcDbArc
50
137.43062637408514
51
212.98360713432882
0
SPLINE
5
435
100
AcDbEntity
8
0
100
AcDbSpline
70
0
71
3
72
8
73
4
74
0
42
0.000000001
43
0.0000000001
44
0.0000000001
40
0
40
0
40
0
40
0
40
1
40
1
40
1
40
1
10
52.166407977518297
20
61.645318594557438
30
0
10
51.923908502437691
20
61.708004655291511
30
0
10
51.701625268785392
20
61.758806200731783
30
0
10
51.499730238376394
20
61.800056885700613
30
0
0
SPLINE
5
436
100
AcDbEntity
8
0
100
AcDbSpline
70
0
71
3
72
8
73
4
74
0
42
0.000000001
43
0.0000000001
44
0.0000000001
40
0
40
0
40
0
40
0
40
1
40
1
40
1
40
1
10
48.759640212324477
20
43.327870388518917
30
0
10
48.964816152279369
20
43.308737799100726
30
0
10
49.192274854740383
20
43.292826430310129
30
0
10
49.442529186747485
20
43.28241936845663
30
0
0
ARC
5
437
100
AcDbEntity
8
0
100
AcDbCircle
10
-3.9968028886505635e-13
20
59.999999999998778
30
0
40
54.978477052566596
210
0
220
-0
230
1
100
AcDbArc
50
61.190313698088779
51
62.559686301911057
0
ARC
5
438
100
AcDbEntity
8
0
100
AcDbCircle
10
1.0480505352461478e-12
20
59.99999999999693
30
0
40
51.229529895994759
210
0
220
0
230
1
100
AcDbArc
50
311.80752796820644
51
312.56747203179401
0
ARC
5
439
100
AcDbEntity
8
0
100
AcDbCircle
10
-3.2862601528904634e-13
20
59.999999999998707
30
0
40
54.97847705256661
210
0
220
-0
230
1
100
AcDbArc
50
89.315313698088914
51
90.684686301911128
0
ARC
5
440
100
AcDbEntity
8
0
100
AcDbCircle
10
50.164353957057671
20
72.212532469968608
30
0
40
0.4000000000000139
210
0
220
0
230
1
100
AcDbArc
50
193.68062637408281
51
269.23360713433038
0
SPLINE
5
441
100
AcDbEntity
8
0
100
AcDbSpline
70
0
71
3
72
8
73
4
74
0
42
0.000000001
43
0.0000000001
44
0.0000000001
40
0
40
0
40
0
40
0
40
1
40
1
40
1
40
1
10
52.798076702270478
20
44.670419589540117
30
0
10
51.878563207468076
20
45.456097332278716
30
0
10
51.063828403630474
20
46.025450214479719
30
0
10
50.397750741151988
20
46.431362824983523
30
0
0
SPLINE
5
442
100
AcDbEntity
8
0
100
AcDbSpline
70
0
71
3
72
8
73
4
74
0
42
0.000000001
43
0.0000000001
44
0.0000000001
40
0
40
0
40
0
40
0
40
1
40
1
40
1
40
1
10
1.6453185945584092
20
112.16640797751735
30
0
10
1.4502365840639531
20
112.92163477060696
30
0
10
1.1419048754003391
20
113.86656178497765
30
0
10
0.65697883055661599
20
114.97455154738104
30
0
0
ARC
5
443
100
AcDbEntity
8
0
100
AcDbCircle
10
51.119836390330178
20
67.23675926675034
30
0
40
0.40000000000002151
210
0
220
0
230
1
100
AcDbArc
50
188.0556263740927
51
263.60860713432913
0
ARC
5
444
100
AcDbEntity
8
0
100
AcDbCircle
10
44.107119381854282
20
33.164009668097414
30
0
40
0.40000000000004632
210
0
220
0
230
1
100
AcDbArc
50
148.68062637412703
51
224.23360713432427
0
ARC
5
445
100
AcDbEntity
8
0
100
AcDbCircle
10
50.164353957057671
20
47.787467530028835
30
0
40
0.39999999999999419
210
0
220
0
230
1
100
AcDbArc
50
90.766392865669658
51
166.31937362591719
0
SPLINE
5
446
100
AcDbEntity
8
0
100
AcDbSpline
70
0
71
3
72
8
73
4
74
0
42
0.000000001
43
0.0000000001
44
0.0000000001
40
0
40
0
40
0
40
0
40
1
40
1
40
1
40
1
10
48.173528330762572
20
86.494227808802222
30
0
10
46.967776043477471
20
86.399591640952607
30
0
10
45.989078254922788
20
86.226080420182925
30
0
10
45.231066663530875
20
86.04211594770382
30
0
0
ARC
5
447
100
AcDbEntity
8
0
100
AcDbCircle
10
-3.3750779948604759e-13
20
59.999999999998707
30
0
40
54.978477052566603
210
0
220
0
230
1
100
AcDbArc
50
314.31531369808897
51
315.68468630191103
0
SPLINE
5
448
100
AcDbEntity
8
0
100
AcDbSpline
70
0
71
3
72
8
73
4
74
0
42
0.000000001
43
0.0000000001
44
0.0000000001
40
0
40
0
40
0
40
0
40
1
40
1
40
1
40
1
10
54.046401166051979
20
49.919352202474414
30
0
10
53.054305494491778
20
50.61111860887916
30
0
10
52.187687520072686
20
51.097871925733322
30
0
10
51.4850308102912
20
51.436542928356786
30
0
0
SPLINE
5
449
100
AcDbEntity
8
0
100
AcDbSpline
70
0
71
3
72
8
73
4
74
0
42
0.000000001
43
0.0000000001
44
0.0000000001
40
0
40
0
40
0
40
0
40
1
40
1
40
1
40
1
10
10.080647797523978
20
114.04640116605103
30
0
10
9.3888813911192148
20
113.05430549449083
30
0
10
8.9021280742650521
20
112.18768752007163
30
0
10
8.563457071641567
20
111.48503081029025
30
0
0
SPLINE
5
450
100
AcDbEntity
8
0
100
AcDbSpline
70
0
71
3
72
8
73
4
74
0
42
0.000000001
43
0.0000000001
44
0.0000000001
40
0
40
0
40
0
40
0
40
1
40
1
40
1
40
1
10
46.267248147449173
20
82.68929633725152
30
0
10
46.425858229646877
20
82.820848852010613
30
0
10
46.597946857366772
20
82.970435406191015
30
0
10
46.782262296559168
20
83.140033037365626
30
0
0
SPLINE
5
451
100
AcDbEntity
8
0
100
AcDbSpline
70
0
71
3
72
8
73
4
74
0
42
0.000000001
43
0.0000000001
44
0.0000000001
40
0
40
0
40
0
40
0
40
1
40
1
40
1
40
1
10
37.688640911235069
20
95.142976050431415
30
0
10
37.802233617255069
20
95.31490603459153
30
0
10
37.923489481839169
20
95.508006133726738
30
0
10
38.050636766471875
20
95.723804895621342
30
0
0
SPLINE
5
452
100
AcDbEntity
8
0
100
AcDbSpline
70
0
71
3
72
8
73
4
74
0
42
0.000000001
43
0.0000000001
44
0.0000000001
40
0
40
0
40
0
40
0
40
1
40
1
40
1
40
1
10
40.951773819027785
20
91.279620210169213
30
0
10
41.081671630504488
20
91.439588272255946
30
0
10
41.22127073447259
20
91.619873388539531
30
0
10
41.368957747704471
20
91.822170407171328
30
0
0
SPLINE
5
453
100
AcDbEntity
8
0
100
AcDbSpline
70
0
71
3
72
8
73
4
74
0
42
0.000000001
43
0.0000000001
44
0.0000000001
40
0
40
0
40
0
40
0
40
1
40
1
40
1
40
1
10
26.494227808803174
20
11.826471669235818
30
0
10
26.399591640953581
20
13.032223956520923
30
0
10
26.226080420183877
20
14.010921745075606
30
0
10
26.042115947704787
20
14.768933336467516
30
0
0
SPLINE
5
454
100
AcDbEntity
8
0
100
AcDbSpline
70
0
71
3
72
8
73
4
74
0
42
0.000000001
43
0.0000000001
44
0.0000000001
40
0
40
0
40
0
40
0
40
1
40
1
40
1
40
1
10
54.974551547381985
20
60.656978830555666
30
0
10
53.866561784978593
20
61.141904875399376
30
0
10
52.921634770607902
20
61.450236584063006
30
0
10
52.166407977518297
20
61.645318594557438
30
0
0
SPLINE
5
455
100
AcDbEntity
8
0
100
AcDbSpline
70
0
71
3
72
8
73
4
74
0
42
0.000000001
43
0.0000000001
44
0.0000000001
40
0
40
0
40
0
40
0
40
1
40
1
40
1
40
1
10
51.753943041007176
20
66.750598067034886
30
0
10
51.506466958769302
20
66.789213172173859
30
0
10
51.280274657434795
20
66.817982527381531
30
0
10
51.075308532603472
20
66.839245405499867
30
0
0
ARC
5
456
100
AcDbEntity
8
0
100
AcDbCircle
10
1.6875389974302379e-13
20
59.999999999999204
30
0
40
51.229529895996286
210
0
220
-0
230
1
100
AcDbArc
50
30.557527968206003
51
31.317472031793567
0
SPLINE
5
457
100
AcDbEntity
8
0
100
AcDbSpline
70
0
71
3
72
8
73
4
74
0
42
0.000000001
43
0.0000000001
44
0.0000000001
40
0
40
0
40
0
40
0
40
1
40
1
40
1
40
1
10
39.337432378025873
20
21.591675994338111
30
0
10
38.896859798228178
20
22.718037563501827
30
0
10
38.446718940691163
20
23.60422530514052
30
0
10
38.050636766471875
20
24.276195104376121
30
0
0
ARC
5
458
100
AcDbEntity
8
0
100
AcDbCircle
10
41.649090072638295
20
49.306389939722393
30
0
40
5.0000000000000453
210
0
220
0
230
1
100
AcDbArc
50
281.5335538813207
51
345.60007578316072
0
SPLINE
5
459
100
AcDbEntity
8
0
100
AcDbSpline
70
0
71
3
72
8
73
4
74
0
42
0.000000001
43
0.0000000001
44
0.0000000001
40
0
40
0
40
0
40
0
40
1
40
1
40
1
40
1
10
46.782262296559168
20
83.140033037365626
30
0
10
47.356351841629866
20
83.668091456538434
30
0
10
48.044356507536563
20
84.385451257994816
30
0
10
48.792923684539169
20
85.335420607012423
30
0
0
SPLINE
5
460
100
AcDbEntity
8
0
100
AcDbSpline
70
0
71
3
72
8
73
4
74
0
42
0.000000001
43
0.0000000001
44
0.0000000001
40
0
40
0
40
0
40
0
40
1
40
1
40
1
40
1
10
48.792923684539169
20
34.664579392985019
30
0
10
48.044356507536563
20
35.614548742002619
30
0
10
47.356351841629866
20
36.331908543458916
30
0
10
46.782262296559168
20
36.859966962631816
30
0
0
SPLINE
5
461
100
AcDbEntity
8
0
100
AcDbSpline
70
0
71
3
72
8
73
4
74
0
42
0.000000001
43
0.0000000001
44
0.0000000001
40
0
40
0
40
0
40
0
40
1
40
1
40
1
40
1
10
35.723804895622273
20
21.949363233526515
30
0
10
36.395774694857785
20
21.553281059307228
30
0
10
37.281962436496563
20
21.103140201770216
30
0
10
38.408324005660283
20
20.662567621972521
30
0
0
SPLINE
5
462
100
AcDbEntity
8
0
100
AcDbSpline
70
0
71
3
72
8
73
4
74
0
42
0.000000001
43
0.0000000001
44
0.0000000001
40
0
40
0
40
0
40
0
40
1
40
1
40
1
40
1
10
46.890694749615768
20
38.628870752444513
30
0
10
47.093007389637577
20
38.589719532774907
30
0
10
47.31781122940798
20
38.551589930015822
30
0
10
47.565840447962778
20
38.516703767031224
30
0
0
SPLINE
5
463
100
AcDbEntity
8
0
100
AcDbSpline
70
0
71
3
72
8
73
4
74
0
42
0.000000001
43
0.0000000001
44
0.0000000001
40
0
40
0
40
0
40
0
40
1
40
1
40
1
40
1
10
54.774229241836181
20
55.265366964341531
30
0
10
53.719105817170075
20
55.856559945760779
30
0
10
52.808950677004496
20
56.256025996740306
30
0
10
52.076481888146596
20
56.524193804591789
30
0
0
SPLINE
5
464
100
AcDbEntity
8
0
100
AcDbSpline
70
0
71
3
72
8
73
4
74
0
42
0.000000001
43
0.0000000001
44
0.0000000001
40
0
40
0
40
0
40
0
40
1
40
1
40
1
40
1
10
41.820402711550486
20
29.891590270140025
30
0
10
42.011189946870779
20
29.813722092088515
30
0
10
42.224235527415075
20
29.73246808546353
30
0
10
42.460692981312967
20
29.649864150201122
30
0
0
SPLINE
5
465
100
AcDbEntity
8
0
100
AcDbSpline
70
0
71
3
72
8
73
4
74
0
42
0.000000001
43
0.0000000001
44
0.0000000001
40
0
40
0
40
0
40
0
40
1
40
1
40
1
40
1
10
51.499730238376394
20
58.199943114296829
30
0
10
51.701625268785392
20
58.241193799265659
30
0
10
51.923908502437691
20
58.291995344705931
30
0
10
52.166407977518297
20
58.354681405440004
30
0
0
ARC
5
466
100
AcDbEntity
8
0
100
AcDbCircle
10
1.2967404927621828e-12
20
59.999999999997669
30
0
40
51.229529895995007
210
0
220
0
230
1
100
AcDbArc
50
328.68252796820599
51
329.44247203179305
0
ARC
5
467
100
AcDbEntity
8
0
100
AcDbCircle
10
51.549404763961
20
62.875278376148444
30
0
40
0.39999999999998082
210
0
220
0
230
1
100
AcDbArc
50
107.64139286566142
51
183.19437362592143
0
SPLINE
5
468
100
AcDbEntity
8
0
100
AcDbSpline
70
0
71
3
72
8
73
4
74
0
42
0.000000001
43
0.0000000001
44
0.0000000001
40
0
40
0
40
0
40
0
40
1
40
1
40
1
40
1
10
50.538448069744078
20
81.64481937372733
30
0
10
49.329225842743575
20
81.668823296038113
30
0
10
48.338233677871074
20
81.592076737702826
30
0
10
47.565840447962778
20
81.483296232966211
30
0
0
SPLINE
5
469
100
AcDbEntity
8
0
100
AcDbSpline
70
0
71
3
72
8
73
4
74
0
42
0.000000001
43
0.0000000001
44
0.0000000001
40
0
40
0
40
0
40
0
40
1
40
1
40
1
40
1
10
50.861351040015677
20
68.281629658562494
30
0
10
51.051319104613391
20
68.361475489682405
30
0
10
51.259420338401192
20
68.454666205303965
30
0
10
51.4850308102912
20
68.563457071640613
30
0
0
ARC
5
470
100
AcDbEntity
8
0
100
AcDbCircle
10
46.817913069820875
20
38.23554794979222
30
0
40
0.40000000000000768
210
0
220
-0
230
1
100
AcDbArc
50
79.516392865673751
51
155.06937362591569
0
ARC
5
471
100
AcDbEntity
8
0
100
AcDbCircle
10
-3.3750779948604759e-13
20
59.999999999998721
30
0
40
54.978477052566639
210
0
220
0
230
1
100
AcDbArc
50
-0.6846863019107825
51
0.68468630191078461
0
ARC
5
472
100
AcDbEntity
8
0
100
AcDbCircle
10
51.019353726055392
20
67.914158365528266
30
0
40
0.40000000000001878
210
0
220
0
230
1
100
AcDbArc
50
113.26639286567175
51
188.81937362603361
0
SPLINE
5
473
100
AcDbEntity
8
0
100
AcDbSpline
70
0
71
3
72
8
73
4
74
0
42
0.000000001
43
0.0000000001
44
0.0000000001
40
0
40
0
40
0
40
0
40
1
40
1
40
1
40
1
10
4.73463303565687
20
114.77422924183523
30
0
10
4.1434400542376171
20
113.71910581716912
30
0
10
3.7439740032580904
20
112.80895067700355
30
0
10
3.4758061954066033
20
112.07648188814565
30
0
0
SPLINE
5
474
100
AcDbEntity
8
0
100
AcDbSpline
70
0
71
3
72
8
73
4
74
0
42
0.000000001
43
0.0000000001
44
0.0000000001
40
0
40
0
40
0
40
0
40
1
40
1
40
1
40
1
10
1.8000568857015598
20
111.49973023837545
30
0
10
1.7588062007327299
20
111.70162526878444
30
0
10
1.708004655292461
20
111.92390850243675
30
0
10
1.6453185945584092
20
112.16640797751735
30
0
0
SPLINE
5
475
100
AcDbEntity
8
0
100
AcDbSpline
70
0
71
3
72
8
73
4
74
0
42
0.000000001
43
0.0000000001
44
0.0000000001
40
0
40
0
40
0
40
0
40
1
40
1
40
1
40
1
10
15.329580410458172
20
112.79807670226953
30
0
10
14.543902667719673
20
111.87856320746712
30
0
10
13.974549785518571
20
111.06382840362953
30
0
10
13.568637175014766
20
110.39775074115104
30
0
0
SPLINE
5
476
100
AcDbEntity
8
0
100
AcDbSpline
70
0
71
3
72
8
73
4
74
0
42
0.000000001
43
0.0000000001
44
0.0000000001
40
0
40
0
40
0
40
0
40
1
40
1
40
1
40
1
10
52.416654926688089
20
76.586959495821517
30
0
10
51.215608231046168
20
76.729372337399028
30
0
10
50.221865486135087
20
76.750129552808829
30
0
10
49.442529186747485
20
76.717580631540812
30
0
0
ARC
5
477
100
AcDbEntity
8
0
100
AcDbCircle
10
-3.1086244689504383e-13
20
59.999999999998494
30
0
40
54.978477052566618
210
0
220
-0
230
1
100
AcDbArc
50
4.9403136980890867
51
6.3096863019114187
0
SPLINE
5
478
100
AcDbEntity
8
0
100
AcDbSpline
70
0
71
3
72
8
73
4
74
0
42
0.000000001
43
0.0000000001
44
0.0000000001
40
0
40
0
40
0
40
0
40
1
40
1
40
1
40
1
10
42.460692981312967
20
29.649864150201122
30
0
10
43.197022868191965
20
29.392487388414725
30
0
10
44.154000885714588
20
29.123882513117429
30
0
10
45.344671179626374
20
28.911517653137224
30
0
0
SPLINE
5
479
100
AcDbEntity
8
0
100
AcDbSpline
70
0
71
3
72
8
73
4
74
0
42
0.000000001
43
0.0000000001
44
0.0000000001
40
0
40
0
40
0
40
0
40
1
40
1
40
1
40
1
10
50.843059341427981
20
71.790865589874514
30
0
10
50.592989981988985
20
71.805037854846731
30
0
10
50.36506696848339
20
71.811497955204231
30
0
10
50.159003685057797
20
71.812568253332216
30
0
0
SPLINE
5
480
100
AcDbEntity
8
0
100
AcDbSpline
70
0
71
3
72
8
73
4
74
0
42
0.000000001
43
0.0000000001
44
0.0000000001
40
0
40
0
40
0
40
0
40
1
40
1
40
1
40
1
10
45.231066663530875
20
33.957884052293615
30
0
10
45.989078254922681
20
33.773919579814518
30
0
10
46.967776043477379
20
33.60040835904482
30
0
10
48.173528330762572
20
33.50577219119522
30
0
0
SPLINE
5
481
100
AcDbEntity
8
0
100
AcDbSpline
70
0
71
3
72
8
73
4
74
0
42
0.000000001
43
0.0000000001
44
0.0000000001
40
0
40
0
40
0
40
0
40
1
40
1
40
1
40
1
10
54.645438869379682
20
66.042263631490385
30
0
10
53.495253316339671
20
66.416252636859213
30
0
10
52.524654591461875
20
66.630480600301198
30
0
10
51.753943041007176
20
66.750598067034886
30
0
0
ARC
5
482
100
AcDbEntity
8
0
100
AcDbCircle
10
48.495055446182988
20
77.715472179161111
30
0
40
0.39999999999998537
210
0
220
0
230
1
100
AcDbArc
50
124.51639286566653
51
200.06937362591344
0
ARC
5
483
100
AcDbEntity
8
0
100
AcDbCircle
10
-2.3980817331903381e-13
20
59.99999999999892
30
0
40
54.97847705256661
210
0
220
0
230
1
100
AcDbArc
50
336.81531369808903
51
338.18468630191097
0
SPLINE
5
484
100
AcDbEntity
8
0
100
AcDbSpline
70
0
71
3
72
8
73
4
74
0
42
0.000000001
43
0.0000000001
44
0.0000000001
40
0
40
0
40
0
40
0
40
1
40
1
40
1
40
1
10
52.076481888146596
20
63.475806195405667
30
0
10
52.808950677004496
20
63.743974003257136
30
0
10
53.719105817170075
20
64.143440054236692
30
0
10
54.774229241836181
20
64.734633035655932
30
0
0
ARC
5
485
100
AcDbEntity
8
0
100
AcDbCircle
10
1.865174681370263e-13
20
59.99999999999897
30
0
40
51.2295298959964
210
0
220
-0
230
1
100
AcDbArc
50
2.4325279682057976
51
3.1924720317935056
0
ARC
5
486
100
AcDbEntity
8
0
100
AcDbCircle
10
49.99795842175206
20
47.123179316468423
30
0
40
0.39999999999996549
210
0
220
0
230
1
100
AcDbArc
50
165.5556263740321
51
241.10860713432447
0
ARC
5
487
100
AcDbEntity
8
0
100
AcDbCircle
10
-1.7408297026122455e-12
20
59.999999999999986
30
0
40
51.229529895998596
210
0
220
0
230
1
100
AcDbArc
50
351.18252796820502
51
351.94247203179265
0
ARC
5
488
100
AcDbEntity
8
0
100
AcDbCircle
10
48.495055446182988
20
42.284527820836324
30
0
40
0.40000000000002467
210
0
220
0
230
1
100
AcDbArc
50
159.93062637408559
51
235.48360713432703
0
ARC
5
489
100
AcDbEntity
8
0
100
AcDbCircle
10
48.725761372553464
20
42.929307690545627
30
0
40
0.39999999999997948
210
0
220
-0
230
1
100
AcDbArc
50
85.141392865666873
51
160.69437362591628
0
SPLINE
5
490
100
AcDbEntity
8
0
100
AcDbSpline
70
0
71
3
72
8
73
4
74
0
42
0.000000001
43
0.0000000001
44
0.0000000001
40
0
40
0
40
0
40
0
40
1
40
1
40
1
40
1
10
51.041277897481592
20
39.569119215959731
30
0
10
50.203201997049092
20
40.441141788874418
30
0
10
49.448196705333373
20
41.087611056926825
30
0
10
48.825112782162485
20
41.556856114977322
30
0
0
ARC
5
491
100
AcDbEntity
8
0
100
AcDbCircle
10
-3.3750779948604759e-13
20
59.999999999998707
30
0
40
54.978477052566546
210
0
220
0
230
1
100
AcDbArc
50
325.5653136980888
51
326.93468630191114
0
ARC
5
492
100
AcDbEntity
8
0
100
AcDbCircle
10
-3.1086244689504383e-13
20
59.999999999998778
30
0
40
54.978477052566618
210
0
220
0
230
1
100
AcDbArc
50
348.06531369808897
51
349.43468630191097
0
ARC
5
493
100
AcDbEntity
8
0
100
AcDbCircle
10
38.484062512301371
20
25.58219516284602
30
0
40
0.39999999999995678
210
0
220
-0
230
1
100
AcDbArc
50
62.641392865676956
51
138.19437362591887
0
SPLINE
5
494
100
AcDbEntity
8
0
100
AcDbSpline
70
0
71
3
72
8
73
4
74
0
42
0.000000001
43
0.0000000001
44
0.0000000001
40
0
40
0
40
0
40
0
40
1
40
1
40
1
40
1
10
48.825112782162485
20
41.556856114977322
30
0
10
48.625061397373976
20
41.707571014933919
30
0
10
48.439139377160664
20
41.839569633797424
30
0
10
48.268398644561373
20
41.954942180556515
30
0
0
ARC
5
495
100
AcDbEntity
8
0
100
AcDbCircle
10
41.672286039098971
20
29.520024056199823
30
0
40
0.39999999999995661
210
0
220
-0
230
1
100
AcDbArc
50
68.266392865669147
51
143.81937362601391
0
SPLINE
5
496
100
AcDbEntity
8
0
100
AcDbSpline
70
0
71
3
72
8
73
4
74
0
42
0.000000001
43
0.0000000001
44
0.0000000001
40
0
40
0
40
0
40
0
40
1
40
1
40
1
40
1
10
49.442529186747485
20
43.28241936845663
30
0
10
50.221865486135087
20
43.249870447188513
30
0
10
51.215608231046097
20
43.270627662598322
30
0
10
52.416654926687983
20
43.413040504175925
30
0
0
ARC
5
497
100
AcDbEntity
8
0
100
AcDbCircle
10
-2.007283228522283e-12
20
60.000000000000057
30
0
40
51.229529895999107
210
0
220
0
230
1
100
AcDbArc
50
323.05752796820599
51
323.81747203179299
0
ARC
5
498
100
AcDbEntity
8
0
100
AcDbCircle
10
-7.9936057773011271e-14
20
59.999999999999659
30
0
40
51.229529895996009
210
0
220
-0
230
1
100
AcDbArc
50
86.807527968206401
51
87.56747203179421
0
ARC
5
499
100
AcDbEntity
8
0
100
AcDbCircle
10
49.99795842175206
20
72.876820683529019
30
0
40
0.39999999999995367
210
0
220
0
230
1
100
AcDbArc
50
118.89139286566805
51
194.444373625916
0
ARC
5
500
100
AcDbEntity
8
0
100
AcDbCircle
10
51.549404763961
20
57.12472162384902
30
0
40
0.40000000000000513
210
0
220
0
230
1
100
AcDbArc
50
176.80562637400826
51
252.35860713433888
0
ARC
5
501
100
AcDbEntity
8
0
100
AcDbCircle
10
12.21253246996957
20
110.16435395705672
30
0
40
0.40000000000000308
210
0
220
0
230
1
100
AcDbArc
50
180.76639286566831
51
256.31937362591549
0
SPLINE
5
502
100
AcDbEntity
8
0
100
AcDbSpline
70
0
71
3
72
8
73
4
74
0
42
0.000000001
43
0.0000000001
44
0.0000000001
40
0
40
0
40
0
40
0
40
1
40
1
40
1
40
1
10
39.28139961430918
20
25.634132647414027
30
0
10
39.988956537345864
20
25.305822275232828
30
0
10
40.914998562390174
20
24.944710557191421
30
0
10
42.079120057111787
20
24.616662194772729
30
0
0
ARC
5
503
100
AcDbEntity
8
0
100
AcDbCircle
10
46.525118576573277
20
37.616486006551717
30
0
40
0.39999999999998703
210
0
220
0
230
1
100
AcDbArc
50
154.30562637407917
51
229.85860713432689
0
SPLINE
5
504
100
AcDbEntity
8
0
100
AcDbSpline
70
0
71
3
72
8
73
4
74
0
42
0.000000001
43
0.0000000001
44
0.0000000001
40
0
40
0
40
0
40
0
40
1
40
1
40
1
40
1
10
51.4850308102912
20
68.563457071640613
30
0
10
52.187687520072579
20
68.902128074264098
30
0
10
53.054305494491778
20
69.388881391118247
30
0
10
54.046401166051979
20
70.080647797523028
30
0
0
SPLINE
5
505
100
AcDbEntity
8
0
100
AcDbSpline
70
0
71
3
72
8
73
4
74
0
42
0.000000001
43
0.0000000001
44
0.0000000001
40
0
40
0
40
0
40
0
40
1
40
1
40
1
40
1
10
51.428181389337595
20
63.256467165916575
30
0
10
51.625060965814285
20
63.317308391089767
30
0
10
51.84129442273197
20
63.389652880109054
30
0
10
52.076481888146596
20
63.475806195405667
30
0
0
ARC
5
506
100
AcDbEntity
8
0
100
AcDbCircle
10
5.9507954119908391e-13
20
59.999999999998472
30
0
40
51.229529895996038
210
0
220
0
230
1
100
AcDbArc
50
356.80752796820707
51
357.56747203179413
0
ARC
5
507
100
AcDbEntity
8
0
100
AcDbCircle
10
-3.907985046680551e-13
20
59.99999999999892
30
0
40
54.978477052566532
210
0
220
-0
230
1
100
AcDbArc
50
16.190313698088612
51
17.559686301910894
0
SPLINE
5
508
100
AcDbEntity
8
0
100
AcDbSpline
70
0
71
3
72
8
73
4
74
0
42
0.000000001
43
0.0000000001
44
0.0000000001
40
0
40
0
40
0
40
0
40
1
40
1
40
1
40
1
10
51.4850308102912
20
51.436542928356786
30
0
10
51.259420338401192
20
51.545333794693434
30
0
10
51.051319104613391
20
51.638524510315008
30
0
10
50.861351040015677
20
51.718370341434934
30
0
0
ARC
5
509
100
AcDbEntity
8
0
100
AcDbCircle
10
-1.6697754290362354e-12
20
59.999999999998707
30
0
40
51.229529895998311
210
0
220
0
230
1
100
AcDbArc
50
345.55752796820701
51
346.31747203179413
0
ARC
5
510
100
AcDbEntity
8
0
100
AcDbCircle
10
4.8139270347746788e-12
20
59.999999999996746
30
0
40
51.229529895991419
210
0
220
0
230
1
100
AcDbArc
50
339.93252796820627
51
340.6924720317939
0
ARC
5
511
100
AcDbEntity
8
0
100
AcDbCircle
10
-2.9309887850104133e-13
20
59.999999999998778
30
0
40
54.978477052566589
210
0
220
0
230
1
100
AcDbArc
50
331.19031369808891
51
332.55968630191103
0
ARC
5
512
100
AcDbEntity
8
0
100
AcDbCircle
10
51.583006854218574
20
62.191292115778211
30
0
40
0.40000000000003416
210
0
220
0
230
1
100
AcDbArc
50
182.43062637410236
51
257.98360713432982
0
ARC
5
513
100
AcDbEntity
8
0
100
AcDbCircle
10
-3.1086244689504383e-13
20
59.99999999999897
30
0
40
54.978477052566632
210
0
220
0
230
1
100
AcDbArc
50
353.69031369808903
51
355.05968630191109
0
SPLINE
5
514
100
AcDbEntity
8
0
100
AcDbSpline
70
0
71
3
72
8
73
4
74
0
42
0.000000001
43
0.0000000001
44
0.0000000001
40
0
40
0
40
0
40
0
40
1
40
1
40
1
40
1
10
42.912685972997771
20
25.632365202089815
30
0
10
42.363832130605978
20
26.710119368052609
30
0
10
41.828997236103469
20
27.547918353894332
30
0
10
41.368957747704471
20
28.177829592826029
30
0
0
ARC
5
515
100
AcDbEntity
8
0
100
AcDbCircle
10
51.119836390330178
20
52.763240733247102
30
0
40
0.40000000000000585
210
0
220
0
230
1
100
AcDbArc
50
96.391392865670539
51
171.94437362591432
0
SPLINE
5
516
100
AcDbEntity
8
0
100
AcDbSpline
70
0
71
3
72
8
73
4
74
0
42
0.000000001
43
0.0000000001
44
0.0000000001
40
0
40
0
40
0
40
0
40
1
40
1
40
1
40
1
10
46.074666943589378
20
30.004033520205624
30
0
10
45.422817601139684
20
31.022800921189013
30
0
10
44.808439422076269
20
31.804142689012522
30
0
10
44.288873051253972
20
32.385928978065017
30
0
0
ARC
5
517
100
AcDbEntity
8
0
100
AcDbCircle
10
44.459182670951279
20
33.751391779942011
30
0
40
0.40000000000003988
210
0
220
-0
230
1
100
AcDbArc
50
73.891392865666859
51
149.44437362602798
0
ARC
5
518
100
AcDbEntity
8
0
100
AcDbCircle
10
-2.5757174171303632e-13
20
59.999999999998707
30
0
40
54.978477052566618
210
0
220
0
230
1
100
AcDbArc
50
241.19031369808903
51
242.55968630191097
0
SPLINE
5
519
100
AcDbEntity
8
0
100
AcDbSpline
70
0
71
3
72
8
73
4
74
0
42
0.000000001
43
0.0000000001
44
0.0000000001
40
0
40
0
40
0
40
0
40
1
40
1
40
1
40
1
10
-25.335420607014029
20
11.207076315459226
30
0
10
-24.385451257996429
20
11.955643492461832
30
0
10
-23.668091456540132
20
12.643648158368528
30
0
10
-23.140033037367225
20
13.217737703439223
30
0
0
SPLINE
5
520
100
AcDbEntity
8
0
100
AcDbSpline
70
0
71
3
72
8
73
4
74
0
42
0.000000001
43
0.0000000001
44
0.0000000001
40
0
40
0
40
0
40
0
40
1
40
1
40
1
40
1
10
-38.050636766472536
20
24.276195104376121
30
0
10
-38.446718940691831
20
23.604225305140609
30
0
10
-38.896859798228832
20
22.718037563501827
30
0
10
-39.337432378026534
20
21.591675994338111
30
0
0
ARC
5
521
100
AcDbEntity
8
0
100
AcDbCircle
10
-46.817913069821529
20
38.23554794979222
30
0
40
0.39999999999994484
210
0
220
-0
230
1
100
AcDbArc
50
24.930626374148744
51
100.48360713433608
0
SPLINE
5
522
100
AcDbEntity
8
0
100
AcDbSpline
70
0
71
3
72
8
73
4
74
0
42
0.000000001
43
0.0000000001
44
0.0000000001
40
0
40
0
40
0
40
0
40
1
40
1
40
1
40
1
10
-38.40832400566093
20
20.662567621972521
30
0
10
-37.281962436497231
20
21.103140201770216
30
0
10
-36.395774694858538
20
21.553281059307228
30
0
10
-35.723804895622926
20
21.949363233526515
30
0
0
ARC
5
523
100
AcDbEntity
8
0
100
AcDbCircle
10
1.1102230246251565e-12
20
59.999999999999631
30
0
40
51.229529895998709
210
0
220
0
230
1
100
AcDbArc
50
204.93252796820596
51
205.69247203179398
0
SPLINE
5
524
100
AcDbEntity
8
0
100
AcDbSpline
70
0
71
3
72
8
73
4
74
0
42
0.000000001
43
0.0000000001
44
0.0000000001
40
0
40
0
40
0
40
0
40
1
40
1
40
1
40
1
10
-50.538448069744732
20
38.355180626270226
30
0
10
-49.329225842744229
20
38.331176703959322
30
0
10
-48.338233677871727
20
38.407923262294617
30
0
10
-47.565840447963438
20
38.516703767031224
30
0
0
ARC
5
525
100
AcDbEntity
8
0
100
AcDbCircle
10
-3.9968028886505635e-13
20
59.999999999998664
30
0
40
54.978477052566603
210
0
220
0
230
1
100
AcDbArc
50
297.44031369808891
51
298.80968630191097
0
ARC
5
526
100
AcDbEntity
8
0
100
AcDbCircle
10
-5.5067062021407764e-13
20
59.999999999998806
30
0
40
48.000000000000007
210
0
220
0
230
1
100
AcDbArc
50
201.60007578316109
51
262.6968649685154
0
ARC
5
527
100
AcDbEntity
8
0
100
AcDbCircle
10
-2.6645352591003757e-13
20
59.999999999998707
30
0
40
54.978477052566561
210
0
220
0
230
1
100
AcDbArc
50
258.06531369808886
51
259.43468630191103
0
SPLINE
5
528
100
AcDbEntity
8
0
100
AcDbSpline
70
0
71
3
72
8
73
4
74
0
42
0.000000001
43
0.0000000001
44
0.0000000001
40
0
40
0
40
0
40
0
40
1
40
1
40
1
40
1
10
-3.2564671659181688
20
111.42818138933664
30
0
10
-3.3173083910913537
20
111.62506096581333
30
0
10
-3.3896528801106562
20
111.84129442273102
30
0
10
-3.4758061954072605
20
112.07648188814565
30
0
0
SPLINE
5
529
100
AcDbEntity
8
0
100
AcDbSpline
70
0
71
3
72
8
73
4
74
0
42
0.000000001
43
0.0000000001
44
0.0000000001
40
0
40
0
40
0
40
0
40
1
40
1
40
1
40
1
10
-3.4758061954072605
20
112.07648188814565
30
0
10
-3.7439740032587476
20
112.80895067700355
30
0
10
-4.1434400542382743
20
113.71910581716912
30
0
10
-4.7346330356575184
20
114.77422924183523
30
0
0
ARC
5
530
100
AcDbEntity
8
0
100
AcDbCircle
10
-26.835990331901634
20
104.10711938185335
30
0
40
0.40000000000003999
210
0
220
0
230
1
100
AcDbArc
50
225.7663928656753
51
301.31937362591924
0
SPLINE
5
531
100
AcDbEntity
8
0
100
AcDbSpline
70
0
71
3
72
8
73
4
74
0
42
0.000000001
43
0.0000000001
44
0.0000000001
40
0
40
0
40
0
40
0
40
1
40
1
40
1
40
1
10
-39.281399614309827
20
94.365867352583322
30
0
10
-39.988956537346532
20
94.694177724764529
30
0
10
-40.914998562390828
20
95.055289442805929
30
0
10
-42.079120057112434
20
95.383337805224727
30
0
0
ARC
5
532
100
AcDbEntity
8
0
100
AcDbCircle
10
-1.6253665080512292e-12
20
59.999999999998138
30
0
40
51.229529895995618
210
0
220
0
230
1
100
AcDbArc
50
216.18252796820596
51
216.94247203179401
0
SPLINE
5
533
100
AcDbEntity
8
0
100
AcDbSpline
70
0
71
3
72
8
73
4
74
0
42
0.000000001
43
0.0000000001
44
0.0000000001
40
0
40
0
40
0
40
0
40
1
40
1
40
1
40
1
10
-11.790865589876134
20
9.1569406585704272
30
0
10
-11.74686946377073
20
8.378166724295113
30
0
10
-11.628808377947228
20
7.3912436852140218
30
0
10
-11.369358130618128
20
6.2099392571687062
30
0
0
ARC
5
534
100
AcDbEntity
8
0
100
AcDbCircle
10
-15.735252880819282
20
23.057958719742171
30
0
40
40.513265391330577
210
0
220
-0
230
1
100
AcDbArc
50
83.300436484815151
51
137.17665151410614
0
SPLINE
5
535
100
AcDbEntity
8
0
100
AcDbSpline
70
0
71
3
72
8
73
4
74
0
42
0.000000001
43
0.0000000001
44
0.0000000001
40
0
40
0
40
0
40
0
40
1
40
1
40
1
40
1
10
-6.8392454055014529
20
8.9246914673949185
30
0
10
-6.8179825273831263
20
8.7197253425636134
30
0
10
-6.7892131721754456
20
8.4935330412291066
30
0
10
-6.7505980670364885
20
8.2460569589912147
30
0
0
ARC
5
536
100
AcDbEntity
8
0
100
AcDbCircle
10
-1.1546319456101628e-13
20
59.999999999998792
30
0
40
54.978477052566596
210
0
220
0
230
1
100
AcDbArc
50
286.19031369808897
51
287.55968630191092
0
ARC
5
537
100
AcDbEntity
8
0
100
AcDbCircle
10
-4.7961634663806763e-13
20
59.99999999999892
30
0
40
54.978477052566603
210
0
220
0
230
1
100
AcDbArc
50
218.69031369808897
51
220.05968630191097
0
ARC
5
538
100
AcDbEntity
8
0
100
AcDbCircle
10
-1.3233858453531866e-12
20
59.999999999999204
30
0
40
10.000000000000002
210
0
220
0
230
1
100
AcDbArc
50
126.00000000000323
51
153.89120634984928
0
ARC
5
539
100
AcDbEntity
8
0
100
AcDbCircle
10
-3.1086244689504383e-13
20
59.999999999998707
30
0
40
54.978477052566603
210
0
220
0
230
1
100
AcDbArc
50
213.06531369808894
51
214.43468630191117
0
ARC
5
540
100
AcDbEntity
8
0
100
AcDbCircle
10
-3.4638958368304884e-13
20
59.999999999998636
30
0
40
54.978477052566546
210
0
220
0
230
1
100
AcDbArc
50
168.06531369808883
51
169.434686301911
0
ARC
5
541
100
AcDbEntity
8
0
100
AcDbCircle
10
-3.3750779948604759e-13
20
59.999999999998735
30
0
40
54.978477052566632
210
0
220
0
230
1
100
AcDbArc
50
269.31531369808897
51
270.68468630191097
0
ARC
5
542
100
AcDbEntity
8
0
100
AcDbCircle
10
-12.212532469970228
20
9.83564604294072
30
0
40
0.39999999999994951
210
0
220
-0
230
1
100
AcDbArc
50
0.76639286566688702
51
76.319373625916072
0
ARC
5
543
100
AcDbEntity
8
0
100
AcDbCircle
10
-2.9309887850104133e-13
20
59.999999999998934
30
0
40
48.000000000000007
210
0
220
0
230
1
100
AcDbArc
50
129.60007578316109
51
190.69686496851537
0
SPLINE
5
544
100
AcDbEntity
8
0
100
AcDbSpline
70
0
71
3
72
8
73
4
74
0
42
0.000000001
43
0.0000000001
44
0.0000000001
40
0
40
0
40
0
40
0
40
1
40
1
40
1
40
1
10
-41.368957747705124
20
28.177829592826118
30
0
10
-41.828997236104122
20
27.547918353894421
30
0
10
-42.363832130606625
20
26.710119368052609
30
0
10
-42.912685972998432
20
25.632365202089815
30
0
0
ARC
5
545
100
AcDbEntity
8
0
100
AcDbCircle
10
-9.7699626167013776e-14
20
59.999999999998735
30
0
40
48.000000000000028
210
0
220
-0
230
1
100
AcDbArc
50
57.600075783161103
51
118.69686496851537
0
ARC
5
546
100
AcDbEntity
8
0
100
AcDbCircle
10
-19.156398380461646
20
25.111361618277304
30
0
40
33.22927464541911
210
0
220
-0
230
1
100
AcDbArc
50
73.125209100749302
51
137.53355388132047
0
SPLINE
5
547
100
AcDbEntity
8
0
100
AcDbSpline
70
0
71
3
72
8
73
4
74
0
42
0.000000001
43
0.0000000001
44
0.0000000001
40
0
40
0
40
0
40
0
40
1
40
1
40
1
40
1
10
18.443143885021065
20
11.174887217835909
30
0
10
18.912388943071676
20
10.551803294665021
30
0
10
19.558858211124068
20
9.7967980029493162
30
0
10
20.43088078403877
20
8.9587221025168162
30
0
0
ARC
5
548
100
AcDbEntity
8
0
100
AcDbCircle
10
-27.409275381821054
20
93.132033186078957
30
0
40
5.0000000000000817
210
0
220
-0
230
1
100
AcDbArc
50
65.533553881321012
51
129.60007578316072
0
ARC
5
549
100
AcDbEntity
8
0
100
AcDbCircle
10
2.875278376149355
20
8.4505952360374081
30
0
40
0.39999999999998082
210
0
220
-0
230
1
100
AcDbArc
50
17.641392865661093
51
93.194373625999418
0
ARC
5
550
100
AcDbEntity
8
0
100
AcDbCircle
10
8.0824236192711396e-13
20
59.999999999997357
30
0
40
51.229529895998709
210
0
220
0
230
1
100
AcDbArc
50
120.55752796820656
51
121.31747203179401
0
ARC
5
551
100
AcDbEntity
8
0
100
AcDbCircle
10
-38.024171455239042
20
25.074783574016628
30
0
40
0.40000000000000946
210
0
220
0
230
1
100
AcDbArc
50
-32.983607134328793
51
42.569373625914167
0
ARC
5
552
100
AcDbEntity
8
0
100
AcDbCircle
10
-39.10071952818096
20
67.43763533792837
30
0
40
33.229274645419117
210
0
220
-0
230
1
100
AcDbArc
50
1.1252091007491092
51
65.533553881320429
0
ARC
5
553
100
AcDbEntity
8
0
100
AcDbCircle
10
-4.5297099404706387e-13
20
59.999999999998472
30
0
40
51.229529895996819
210
0
220
0
230
1
100
AcDbArc
50
182.43252796820579
51
183.1924720317935
0
ARC
5
554
100
AcDbEntity
8
0
100
AcDbCircle
10
-2.3092638912203256e-13
20
59.999999999998494
30
0
40
47.999999999999986
210
0
220
0
230
1
100
AcDbArc
50
-14.399924216838945
51
46.696864968515364
0
SPLINE
5
555
100
AcDbEntity
8
0
100
AcDbSpline
70
0
71
3
72
8
73
4
74
0
42
0.000000001
43
0.0000000001
44
0.0000000001
40
0
40
0
40
0
40
0
40
1
40
1
40
1
40
1
10
-42.079120057112434
20
24.616662194772729
30
0
10
-40.914998562390828
20
24.944710557191527
30
0
10
-39.988956537346532
20
25.305822275232916
30
0
10
-39.281399614309827
20
25.634132647414116
30
0
0
ARC
5
556
100
AcDbEntity
8
0
100
AcDbCircle
10
-3.4638958368304884e-13
20
59.999999999998721
30
0
40
54.978477052566589
210
0
220
0
230
1
100
AcDbArc
50
224.31531369808894
51
225.68468630191109
0
SPLINE
5
557
100
AcDbEntity
8
0
100
AcDbSpline
70
0
71
3
72
8
73
4
74
0
42
0.000000001
43
0.0000000001
44
0.0000000001
40
0
40
0
40
0
40
0
40
1
40
1
40
1
40
1
10
-41.820402711551132
20
90.108409729857414
30
0
10
-42.011189946871426
20
90.186277907908931
30
0
10
-42.224235527415736
20
90.267531914533933
30
0
10
-42.460692981313628
20
90.350135849796317
30
0
0
ARC
5
558
100
AcDbEntity
8
0
100
AcDbCircle
10
-39.996429635793277
20
63.549396225353547
30
0
40
40.51326539133057
210
0
220
-0
230
1
100
AcDbArc
50
11.300436484815119
51
65.17665151410614
0
SPLINE
5
559
100
AcDbEntity
8
0
100
AcDbSpline
70
0
71
3
72
8
73
4
74
0
42
0.000000001
43
0.0000000001
44
0.0000000001
40
0
40
0
40
0
40
0
40
1
40
1
40
1
40
1
10
-48.173528330763233
20
33.50577219119522
30
0
10
-46.967776043478118
20
33.60040835904482
30
0
10
-45.989078254923434
20
33.773919579814518
30
0
10
-45.231066663531536
20
33.957884052293615
30
0
0
ARC
5
560
100
AcDbEntity
8
0
100
AcDbCircle
10
-51.119836390330832
20
52.763240733247102
30
0
40
0.40000000000001412
210
0
220
-0
230
1
100
AcDbArc
50
8.0556263740855396
51
83.608607134329148
0
ARC
5
561
100
AcDbEntity
8
0
100
AcDbCircle
10
-2.2204460492503131e-13
20
59.999999999998735
30
0
40
54.978477052566639
210
0
220
0
230
1
100
AcDbArc
50
100.56531369808901
51
101.93468630191099
0
SPLINE
5
562
100
AcDbEntity
8
0
100
AcDbSpline
70
0
71
3
72
8
73
4
74
0
42
0.000000001
43
0.0000000001
44
0.0000000001
40
0
40
0
40
0
40
0
40
1
40
1
40
1
40
1
10
-11.790865589876134
20
110.84305934142704
30
0
10
-11.805037854848326
20
110.59298998198804
30
0
10
-11.811497955205832
20
110.36506696848244
30
0
10
-11.812568253333833
20
110.15900368505685
30
0
0
SPLINE
5
563
100
AcDbEntity
8
0
100
AcDbSpline
70
0
71
3
72
8
73
4
74
0
42
0.000000001
43
0.0000000001
44
0.0000000001
40
0
40
0
40
0
40
0
40
1
40
1
40
1
40
1
10
-50.843059341428628
20
48.209134410122928
30
0
10
-50.592989981989632
20
48.194962145150711
30
0
10
-50.365066968484044
20
48.188502044793218
30
0
10
-50.15900368505843
20
48.187431746665226
30
0
0
ARC
5
564
100
AcDbEntity
8
0
100
AcDbCircle
10
-8.3488771451811772e-13
20
59.999999999996817
30
0
40
51.229529895995014
210
0
220
0
230
1
100
AcDbArc
50
255.55752796820619
51
256.3174720317939
0
ARC
5
565
100
AcDbEntity
8
0
100
AcDbCircle
10
-12.87682068353063
20
109.99795842175112
30
0
40
0.39999999999996216
210
0
220
0
230
1
100
AcDbArc
50
208.89139286566967
51
284.44437362591628
0
SPLINE
5
566
100
AcDbEntity
8
0
100
AcDbSpline
70
0
71
3
72
8
73
4
74
0
42
0.000000001
43
0.0000000001
44
0.0000000001
40
0
40
0
40
0
40
0
40
1
40
1
40
1
40
1
10
0.65697883055660711
20
5.0254484526164234
30
0
10
1.1419048754003303
20
6.1334382150198152
30
0
10
1.4502365840639353
20
7.0783652293905064
30
0
10
1.6453185945583915
20
7.8335920224801114
30
0
0
SPLINE
5
567
100
AcDbEntity
8
0
100
AcDbSpline
70
0
71
3
72
8
73
4
74
0
42
0.000000001
43
0.0000000001
44
0.0000000001
40
0
40
0
40
0
40
0
40
1
40
1
40
1
40
1
10
-3.4758061954072605
20
7.9235181118518128
30
0
10
-3.3896528801106562
20
8.1587055772664208
30
0
10
-3.3173083910913537
20
8.3749390341841234
30
0
10
-3.2564671659181688
20
8.571818610660813
30
0
0
SPLINE
5
568
100
AcDbEntity
8
0
100
AcDbSpline
70
0
71
3
72
8
73
4
74
0
42
0.000000001
43
0.0000000001
44
0.0000000001
40
0
40
0
40
0
40
0
40
1
40
1
40
1
40
1
10
-52.166407977518944
20
58.354681405440004
30
0
10
-51.923908502438337
20
58.291995344705931
30
0
10
-51.701625268786046
20
58.241193799265659
30
0
10
-51.49973023837704
20
58.199943114296829
30
0
0
ARC
5
569
100
AcDbEntity
8
0
100
AcDbCircle
10
-3.8191672047105385e-13
20
59.999999999998792
30
0
40
54.978477052566603
210
0
220
0
230
1
100
AcDbArc
50
207.44031369808894
51
208.80968630191094
0
SPLINE
5
570
100
AcDbEntity
8
0
100
AcDbSpline
70
0
71
3
72
8
73
4
74
0
42
0.000000001
43
0.0000000001
44
0.0000000001
40
0
40
0
40
0
40
0
40
1
40
1
40
1
40
1
10
-31.822170407172933
20
101.36895774770353
30
0
10
-32.452081646104638
20
101.82899723610254
30
0
10
-33.289880631946431
20
102.36383213060505
30
0
10
-34.367634797909226
20
102.91268597299683
30
0
0
ARC
5
571
100
AcDbEntity
8
0
100
AcDbCircle
10
2.1912921157791576
20
8.4169931457798164
30
0
40
0.40000000000001307
210
0
220
0
230
1
100
AcDbArc
50
92.430626374090522
51
167.98360713432763
0
SPLINE
5
572
100
AcDbEntity
8
0
100
AcDbSpline
70
0
71
3
72
8
73
4
74
0
42
0.000000001
43
0.0000000001
44
0.0000000001
40
0
40
0
40
0
40
0
40
1
40
1
40
1
40
1
10
-23.140033037367225
20
106.78226229655822
30
0
10
-23.668091456540026
20
107.35635184162894
30
0
10
-24.385451257996429
20
108.04435650753562
30
0
10
-25.335420607014029
20
108.79292368453824
30
0
0
ARC
5
573
100
AcDbEntity
8
0
100
AcDbCircle
10
-51.119836390330832
20
67.236759266750354
30
0
40
0.40000000000000585
210
0
220
0
230
1
100
AcDbArc
50
276.39139286567064
51
351.94437362594772
0
SPLINE
5
574
100
AcDbEntity
8
0
100
AcDbSpline
70
0
71
3
72
8
73
4
74
0
42
0.000000001
43
0.0000000001
44
0.0000000001
40
0
40
0
40
0
40
0
40
1
40
1
40
1
40
1
10
-6.7505980670364885
20
111.75394304100622
30
0
10
-6.7892131721754456
20
111.50646695876836
30
0
10
-6.8179825273831263
20
111.28027465743385
30
0
10
-6.8392454055014529
20
111.07530853260252
30
0
0
ARC
5
575
100
AcDbEntity
8
0
100
AcDbCircle
10
-3.2862601528904634e-13
20
59.999999999998735
30
0
40
54.978477052566568
210
0
220
0
230
1
100
AcDbArc
50
134.31531369808891
51
135.684686301911
0
SPLINE
5
576
100
AcDbEntity
8
0
100
AcDbSpline
70
0
71
3
72
8
73
4
74
0
42
0.000000001
43
0.0000000001
44
0.0000000001
40
0
40
0
40
0
40
0
40
1
40
1
40
1
40
1
10
-51.75394304100783
20
53.249401932962556
30
0
10
-51.506466958769934
20
53.210786827823583
30
0
10
-51.280274657435442
20
53.182017472615911
30
0
10
-51.075308532604126
20
53.160754594497575
30
0
0
SPLINE
5
577
100
AcDbEntity
8
0
100
AcDbSpline
70
0
71
3
72
8
73
4
74
0
42
0.000000001
43
0.0000000001
44
0.0000000001
40
0
40
0
40
0
40
0
40
1
40
1
40
1
40
1
10
-11.369358130618128
20
113.79006074282876
30
0
10
-11.628808377947131
20
112.60875631478343
30
0
10
-11.74686946377073
20
111.62183327570234
30
0
10
-11.790865589876134
20
110.84305934142704
30
0
0
SPLINE
5
578
100
AcDbEntity
8
0
100
AcDbSpline
70
0
71
3
72
8
73
4
74
0
42
0.000000001
43
0.0000000001
44
0.0000000001
40
0
40
0
40
0
40
0
40
1
40
1
40
1
40
1
10
-49.80469807653644
20
46.772964469600318
30
0
10
-49.985925132945937
20
46.674882991535526
30
0
10
-50.183890014962635
20
46.561743526846314
30
0
10
-50.397750741152635
20
46.431362824983623
30
0
0
SPLINE
5
579
100
AcDbEntity
8
0
100
AcDbSpline
70
0
71
3
72
8
73
4
74
0
42
0.000000001
43
0.0000000001
44
0.0000000001
40
0
40
0
40
0
40
0
40
1
40
1
40
1
40
1
10
-46.782262296559828
20
36.859966962631816
30
0
10
-47.356351841630527
20
36.331908543459015
30
0
10
-48.044356507537231
20
35.614548742002619
30
0
10
-48.792923684539829
20
34.664579392985019
30
0
0
ARC
5
580
100
AcDbEntity
8
0
100
AcDbCircle
10
-49.997958421752728
20
72.876820683529019
30
0
40
0.40000000000005698
210
0
220
0
230
1
100
AcDbArc
50
-14.444373625901388
51
61.108607134331088
0
SPLINE
5
581
100
AcDbEntity
8
0
100
AcDbSpline
70
0
71
3
72
8
73
4
74
0
42
0.000000001
43
0.0000000001
44
0.0000000001
40
0
40
0
40
0
40
0
40
1
40
1
40
1
40
1
10
-47.565840447963438
20
38.516703767031224
30
0
10
-47.317811229408626
20
38.551589930015915
30
0
10
-47.093007389638224
20
38.589719532775021
30
0
10
-46.890694749616422
20
38.628870752444513
30
0
0
SPLINE
5
582
100
AcDbEntity
8
0
100
AcDbSpline
70
0
71
3
72
8
73
4
74
0
42
0.000000001
43
0.0000000001
44
0.0000000001
40
0
40
0
40
0
40
0
40
1
40
1
40
1
40
1
10
-13.568637175015432
20
9.6022492588464203
30
0
10
-13.438256473152732
20
9.8161099850364053
30
0
10
-13.325117008463527
20
10.014074867053111
30
0
10
-13.227035530398732
20
10.195301923462612
30
0
0
ARC
5
583
100
AcDbEntity
8
0
100
AcDbCircle
10
-5.5067062021407764e-13
20
59.999999999998806
30
0
40
51.229529895996734
210
0
220
0
230
1
100
AcDbArc
50
154.30752796820622
51
155.06747203179398
0
ARC
5
584
100
AcDbEntity
8
0
100
AcDbCircle
10
-7.9936057773011271e-14
20
59.999999999998735
30
0
40
54.978477052566618
210
0
220
0
230
1
100
AcDbArc
50
94.940313698089128
51
96.309686301911356
0
ARC
5
585
100
AcDbEntity
8
0
100
AcDbCircle
10
-21.764452050206824
20
106.81791306981994
30
0
40
0.39999999999999752
210
0
220
0
230
1
100
AcDbArc
50
-65.069373625916128
51
10.483607134327446
0
SPLINE
5
586
100
AcDbEntity
8
0
100
AcDbSpline
70
0
71
3
72
8
73
4
74
0
42
0.000000001
43
0.0000000001
44
0.0000000001
40
0
40
0
40
0
40
0
40
1
40
1
40
1
40
1
10
-31.279620210170833
20
100.95177381902685
30
0
10
-31.439588272257531
20
101.08167163050355
30
0
10
-31.619873388541137
20
101.22127073447166
30
0
10
-31.822170407172933
20
101.36895774770353
30
0
0
ARC
5
587
100
AcDbEntity
8
0
100
AcDbCircle
10
-6.2172489379008766e-13
20
59.999999999998707
30
0
40
51.229529895996805
210
0
220
0
230
1
100
AcDbArc
50
143.05752796820602
51
143.81747203179302
0
ARC
5
588
100
AcDbEntity
8
0
100
AcDbCircle
10
-3.0198066269804258e-13
20
59.999999999998238
30
0
40
51.229529895996741
210
0
220
0
230
1
100
AcDbArc
50
210.55752796820573
51
211.31747203179327
0
ARC
5
589
100
AcDbEntity
8
0
100
AcDbCircle
10
-1.4210854715202004e-13
20
59.999999999998636
30
0
40
54.978477052566504
210
0
220
0
230
1
100
AcDbArc
50
246.81531369808866
51
248.18468630191103
0
ARC
5
590
100
AcDbEntity
8
0
100
AcDbCircle
10
-51.549404763961633
20
62.875278376148444
30
0
40
0.40000000000003466
210
0
220
0
230
1
100
AcDbArc
50
-3.194373625931247
51
72.358607134325993
0
ARC
5
591
100
AcDbEntity
8
0
100
AcDbCircle
10
-1.5099033134902129e-13
20
59.999999999998877
30
0
40
54.97847705256661
210
0
220
0
230
1
100
AcDbArc
50
128.690313698089
51
130.059686301911
0
SPLINE
5
592
100
AcDbEntity
8
0
100
AcDbSpline
70
0
71
3
72
8
73
4
74
0
42
0.000000001
43
0.0000000001
44
0.0000000001
40
0
40
0
40
0
40
0
40
1
40
1
40
1
40
1
10
-4.7346330356575184
20
5.225770758162227
30
0
10
-4.1434400542382743
20
6.280894182828316
30
0
10
-3.7439740032587476
20
7.1910493229939121
30
0
10
-3.4758061954072605
20
7.9235181118518128
30
0
0
SPLINE
5
593
100
AcDbEntity
8
0
100
AcDbSpline
70
0
71
3
72
8
73
4
74
0
42
0.000000001
43
0.0000000001
44
0.0000000001
40
0
40
0
40
0
40
0
40
1
40
1
40
1
40
1
10
-8.5634570716422065
20
111.48503081029025
30
0
10
-8.9021280742656916
20
112.18768752007173
30
0
10
-9.3888813911198543
20
113.05430549449083
30
0
10
-10.080647797524627
20
114.04640116605103
30
0
0
ARC
5
594
100
AcDbEntity
8
0
100
AcDbCircle
10
-2.1912921157798149
20
111.58300685421763
30
0
40
0.39999999999999569
210
0
220
0
230
1
100
AcDbArc
50
272.4306263740919
51
347.98360713433016
0
SPLINE
5
595
100
AcDbEntity
8
0
100
AcDbSpline
70
0
71
3
72
8
73
4
74
0
42
0.000000001
43
0.0000000001
44
0.0000000001
40
0
40
0
40
0
40
0
40
1
40
1
40
1
40
1
10
6.0422636314913003
20
5.3545611306187268
30
0
10
6.4162526368601203
20
6.5047466836587198
30
0
10
6.6304806003021266
20
7.4753454085365156
30
0
10
6.7505980670358134
20
8.2460569589912147
30
0
0
ARC
5
596
100
AcDbEntity
8
0
100
AcDbCircle
10
-8.9839000627450094
20
99.135688787065121
30
0
40
40.513265391330584
210
0
220
0
230
1
100
AcDbArc
50
299.30043648481512
51
353.1766515141062
0
ARC
5
597
100
AcDbEntity
8
0
100
AcDbCircle
10
-44.107119381854929
20
86.835990331900035
30
0
40
0.39999999999995428
210
0
220
0
230
1
100
AcDbArc
50
-31.319373625858585
51
44.233607134324281
0
SPLINE
5
598
100
AcDbEntity
8
0
100
AcDbSpline
70
0
71
3
72
8
73
4
74
0
42
0.000000001
43
0.0000000001
44
0.0000000001
40
0
40
0
40
0
40
0
40
1
40
1
40
1
40
1
10
11.369358130617471
20
6.2099392571687062
30
0
10
11.628808377946571
20
7.3912436852140218
30
0
10
11.746869463770073
20
8.378166724295113
30
0
10
11.790865589875468
20
9.1569406585704272
30
0
0
SPLINE
5
599
100
AcDbEntity
8
0
100
AcDbSpline
70
0
71
3
72
8
73
4
74
0
42
0.000000001
43
0.0000000001
44
0.0000000001
40
0
40
0
40
0
40
0
40
1
40
1
40
1
40
1
10
8.2816296585634319
20
9.1386489599827136
30
0
10
8.361475489683361
20
8.9486808953850172
30
0
10
8.4546662053049282
20
8.7405796615972164
30
0
10
8.563457071641567
20
8.5149691897072088
30
0
0
ARC
5
600
100
AcDbEntity
8
0
100
AcDbCircle
10
-5.9507954119908391e-13
20
59.999999999998707
30
0
40
54.978477052566603
210
0
220
0
230
1
100
AcDbArc
50
274.94031369808908
51
276.30968630191137
0
SPLINE
5
601
100
AcDbEntity
8
0
100
AcDbSpline
70
0
71
3
72
8
73
4
74
0
42
0.000000001
43
0.0000000001
44
0.0000000001
40
0
40
0
40
0
40
0
40
1
40
1
40
1
40
1
10
-27.614071021934031
20
104.28887305125302
30
0
10
-28.195857310986526
20
104.80843942207534
30
0
10
-28.977199078810028
20
105.42281760113875
30
0
10
-29.995966479793434
20
106.07466694358843
30
0
0
ARC
5
602
100
AcDbEntity
8
0
100
AcDbCircle
10
-46.18327884376319
20
51.276196056807315
30
0
40
0.99999999999998401
210
0
220
0
230
1
100
AcDbArc
50
190.69686496851472
51
317.1766515141075
0
CIRCLE
5
603
100
AcDbEntity
8
0
100
AcDbCircle
10
-3.2862601528904634e-13
20
59.999999999998721
30
0
40
1.925
210
0
220
0
230
1
0
ARC
5
604
100
AcDbEntity
8
0
100
AcDbCircle
10
-51.583006854219221
20
62.191292115778225
30
0
40
0.40000000000001368
210
0
220
0
230
1
100
AcDbArc
50
282.01639286566973
51
357.56937362584767
0
SPLINE
5
605
100
AcDbEntity
8
0
100
AcDbSpline
70
0
71
3
72
8
73
4
74
0
42
0.000000001
43
0.0000000001
44
0.0000000001
40
0
40
0
40
0
40
0
40
1
40
1
40
1
40
1
10
11.790865589875468
20
9.1569406585704272
30
0
10
11.805037854847678
20
9.4070100180094229
30
0
10
11.811497955205175
20
9.6349330315150183
30
0
10
11.812568253333167
20
9.840996314940611
30
0
0
SPLINE
5
606
100
AcDbEntity
8
0
100
AcDbSpline
70
0
71
3
72
8
73
4
74
0
42
0.000000001
43
0.0000000001
44
0.0000000001
40
0
40
0
40
0
40
0
40
1
40
1
40
1
40
1
10
-51.485030810291832
20
51.436542928356857
30
0
10
-52.187687520073339
20
51.097871925733372
30
0
10
-53.054305494492425
20
50.611118608879195
30
0
10
-54.046401166052632
20
49.919352202474521
30
0
0
ARC
5
607
100
AcDbEntity
8
0
100
AcDbCircle
10
-2.2737367544323206e-12
20
59.999999999997854
30
0
40
51.229529895994794
210
0
220
0
230
1
100
AcDbArc
50
199.30752796820596
51
200.06747203179361
0
SPLINE
5
608
100
AcDbEntity
8
0
100
AcDbSpline
70
0
71
3
72
8
73
4
74
0
42
0.000000001
43
0.0000000001
44
0.0000000001
40
0
40
0
40
0
40
0
40
1
40
1
40
1
40
1
10
34.365867352584274
20
20.718600385689214
30
0
10
34.260484294407576
20
20.945822630801825
30
0
10
34.158739429468568
20
21.149878053274822
30
0
10
34.062545788760474
20
21.332114179774315
30
0
0
SPLINE
5
609
100
AcDbEntity
8
0
100
AcDbSpline
70
0
71
3
72
8
73
4
74
0
42
0.000000001
43
0.0000000001
44
0.0000000001
40
0
40
0
40
0
40
0
40
1
40
1
40
1
40
1
10
8.563457071641567
20
8.5149691897072088
30
0
10
8.9021280742650521
20
7.8123124799258292
30
0
10
9.3888813911192148
20
6.9456945055066299
30
0
10
10.080647797523978
20
5.9535988339464296
30
0
0
SPLINE
5
610
100
AcDbEntity
8
0
100
AcDbSpline
70
0
71
3
72
8
73
4
74
0
42
0.000000001
43
0.0000000001
44
0.0000000001
40
0
40
0
40
0
40
0
40
1
40
1
40
1
40
1
10
-50.843059341428628
20
71.790865589874514
30
0
10
-51.621833275703949
20
71.746869463769116
30
0
10
-52.60875631478504
20
71.628808377945518
30
0
10
-53.790060742830335
20
71.369358130616533
30
0
0
SPLINE
5
611
100
AcDbEntity
8
0
100
AcDbSpline
70
0
71
3
72
8
73
4
74
0
42
0.000000001
43
0.0000000001
44
0.0000000001
40
0
40
0
40
0
40
0
40
1
40
1
40
1
40
1
10
-1.6453185945590665
20
7.8335920224801114
30
0
10
-1.4502365840646192
20
7.0783652293905064
30
0
10
-1.1419048754010053
20
6.1334382150198152
30
0
10
-0.65697883055728212
20
5.0254484526164234
30
0
0
ARC
5
612
100
AcDbEntity
8
0
100
AcDbCircle
10
-12.212532469970228
20
110.16435395705672
30
0
40
0.40000000000000085
210
0
220
0
230
1
100
AcDbArc
50
283.68062637408582
51
359.23360713433544
0
SPLINE
5
613
100
AcDbEntity
8
0
100
AcDbSpline
70
0
71
3
72
8
73
4
74
0
42
0.000000001
43
0.0000000001
44
0.0000000001
40
0
40
0
40
0
40
0
40
1
40
1
40
1
40
1
10
-26.494227808803828
20
108.17352833076163
30
0
10
-26.399591640954228
20
106.96777604347653
30
0
10
-26.226080420184434
20
105.98907825492185
30
0
10
-26.042115947705334
20
105.23106666352993
30
0
0
ARC
5
614
100
AcDbEntity
8
0
100
AcDbCircle
10
-2.3980817331903381e-13
20
59.999999999998778
30
0
40
54.97847705256661
210
0
220
0
230
1
100
AcDbArc
50
117.44031369808901
51
118.80968630191099
0
SPLINE
5
615
100
AcDbEntity
8
0
100
AcDbSpline
70
0
71
3
72
8
73
4
74
0
42
0.000000001
43
0.0000000001
44
0.0000000001
40
0
40
0
40
0
40
0
40
1
40
1
40
1
40
1
10
-8.563457071642242
20
8.5149691897072088
30
0
10
-8.4546662053055943
20
8.7405796615972164
30
0
10
-8.3614754896840449
20
8.9486808953850172
30
0
10
-8.2816296585641069
20
9.1386489599827136
30
0
0
SPLINE
5
616
100
AcDbEntity
8
0
100
AcDbSpline
70
0
71
3
72
8
73
4
74
0
42
0.000000001
43
0.0000000001
44
0.0000000001
40
0
40
0
40
0
40
0
40
1
40
1
40
1
40
1
10
-44.288873051254633
20
87.614071021932432
30
0
10
-44.122068616094936
20
87.427223977439525
30
0
10
-43.96547068842662
20
87.261490088231312
30
0
10
-43.820518758427028
20
87.11502452810322
30
0
0
SPLINE
5
617
100
AcDbEntity
8
0
100
AcDbSpline
70
0
71
3
72
8
73
4
74
0
42
0.000000001
43
0.0000000001
44
0.0000000001
40
0
40
0
40
0
40
0
40
1
40
1
40
1
40
1
10
-1.6453185945590576
20
112.16640797751735
30
0
10
-1.7080046552931183
20
111.92390850243675
30
0
10
-1.7588062007333782
20
111.70162526878444
30
0
10
-1.8000568857022081
20
111.49973023837545
30
0
0
ARC
5
618
100
AcDbEntity
8
0
100
AcDbCircle
10
-17.715472179162724
20
108.49505544618205
30
0
40
0.40000000000000824
210
0
220
0
230
1
100
AcDbArc
50
214.516392865673
51
290.06937362591378
0
SPLINE
5
619
100
AcDbEntity
8
0
100
AcDbSpline
70
0
71
3
72
8
73
4
74
0
42
0.000000001
43
0.0000000001
44
0.0000000001
40
0
40
0
40
0
40
0
40
1
40
1
40
1
40
1
10
-48.268398644562033
20
41.954942180556515
30
0
10
-48.439139377161325
20
41.839569633797424
30
0
10
-48.62506139737463
20
41.707571014933919
30
0
10
-48.825112782163131
20
41.556856114977435
30
0
0
ARC
5
620
100
AcDbEntity
8
0
100
AcDbCircle
10
-51.019353726056039
20
67.914158365528266
30
0
40
0.4000000000000134
210
0
220
0
230
1
100
AcDbArc
50
-8.8193736259154516
51
66.733607134329191
0
ARC
5
621
100
AcDbEntity
8
0
100
AcDbCircle
10
-9.7699626167013776e-14
20
59.999999999999773
30
0
40
51.229529895995974
210
0
220
0
230
1
100
AcDbArc
50
98.057527968206614
51
98.817472031793898
0
SPLINE
5
622
100
AcDbEntity
8
0
100
AcDbSpline
70
0
71
3
72
8
73
4
74
0
42
0.000000001
43
0.0000000001
44
0.0000000001
40
0
40
0
40
0
40
0
40
1
40
1
40
1
40
1
10
-35.142976050433035
20
97.688640911234131
30
0
10
-35.314906034593122
20
97.802233617254132
30
0
10
-35.508006133728323
20
97.923489481838232
30
0
10
-35.723804895622926
20
98.05063676647093
30
0
0
ARC
5
623
100
AcDbEntity
8
0
100
AcDbCircle
10
-3.2862601528904634e-13
20
59.999999999998735
30
0
40
54.97847705256661
210
0
220
0
230
1
100
AcDbArc
50
145.565313698089
51
146.93468630191117
0
SPLINE
5
624
100
AcDbEntity
8
0
100
AcDbSpline
70
0
71
3
72
8
73
4
74
0
42
0.000000001
43
0.0000000001
44
0.0000000001
40
0
40
0
40
0
40
0
40
1
40
1
40
1
40
1
10
-51.49973023837704
20
61.800056885700613
30
0
10
-51.701625268786046
20
61.758806200731783
30
0
10
-51.923908502438337
20
61.708004655291532
30
0
10
-52.166407977518944
20
61.645318594557459
30
0
0
ARC
5
625
100
AcDbEntity
8
0
100
AcDbCircle
10
-2.87527837615003
20
111.54940476396006
30
0
40
0.40000000000001307
210
0
220
0
230
1
100
AcDbArc
50
197.64139286567561
51
273.19437362591526
0
ARC
5
626
100
AcDbEntity
8
0
100
AcDbCircle
10
-3.4638958368304884e-13
20
59.999999999998707
30
0
40
54.978477052566589
210
0
220
0
230
1
100
AcDbArc
50
123.06531369808883
51
124.434686301911
0
ARC
5
627
100
AcDbEntity
8
0
100
AcDbCircle
10
2.9309887850104133e-13
20
59.999999999996909
30
0
40
51.229529895995107
210
0
220
0
230
1
100
AcDbArc
50
294.93252796820605
51
295.69247203179401
0
SPLINE
5
628
100
AcDbEntity
8
0
100
AcDbSpline
70
0
71
3
72
8
73
4
74
0
42
0.000000001
43
0.0000000001
44
0.0000000001
40
0
40
0
40
0
40
0
40
1
40
1
40
1
40
1
10
-50.861351040016331
20
51.718370341434991
30
0
10
-51.051319104614038
20
51.638524510315037
30
0
10
-51.259420338401839
20
51.545333794693491
30
0
10
-51.485030810291832
20
51.436542928356857
30
0
0
ARC
5
629
100
AcDbEntity
8
0
100
AcDbCircle
10
-7.2367592667519443
20
8.8801636096682302
30
0
40
0.40000000000000391
210
0
220
-0
230
1
100
AcDbArc
50
6.3913928656680641
51
81.944373626003198
0
SPLINE
5
630
100
AcDbEntity
8
0
100
AcDbSpline
70
0
71
3
72
8
73
4
74
0
42
0.000000001
43
0.0000000001
44
0.0000000001
40
0
40
0
40
0
40
0
40
1
40
1
40
1
40
1
10
-6.0422636314919753
20
114.64543886937874
30
0
10
-6.4162526368607953
20
113.49525331633872
30
0
10
-6.6304806003028016
20
112.52465459146093
30
0
10
-6.7505980670364885
20
111.75394304100622
30
0
0
ARC
5
631
100
AcDbEntity
8
0
100
AcDbCircle
10
-1.0835776720341528e-12
20
60.000000000000128
30
0
40
51.229529895998468
210
0
220
0
230
1
100
AcDbArc
50
278.05752796820678
51
278.81747203179401
0
SPLINE
5
632
100
AcDbEntity
8
0
100
AcDbSpline
70
0
71
3
72
8
73
4
74
0
42
0.000000001
43
0.0000000001
44
0.0000000001
40
0
40
0
40
0
40
0
40
1
40
1
40
1
40
1
10
-54.645438869380328
20
53.957736368507057
30
0
10
-53.495253316340325
20
53.583747363138237
30
0
10
-52.524654591462522
20
53.369519399696244
30
0
10
-51.75394304100783
20
53.249401932962556
30
0
0
ARC
5
633
100
AcDbEntity
8
0
100
AcDbCircle
10
-2.87527837615003
20
8.4505952360374081
30
0
40
0.40000000000001096
210
0
220
-0
230
1
100
AcDbArc
50
86.805626374084696
51
162.35860713432677
0
SPLINE
5
634
100
AcDbEntity
8
0
100
AcDbSpline
70
0
71
3
72
8
73
4
74
0
42
0.000000001
43
0.0000000001
44
0.0000000001
40
0
40
0
40
0
40
0
40
1
40
1
40
1
40
1
10
-20.430880784039331
20
8.9587221025168162
30
0
10
-19.55885821112463
20
9.7967980029493162
30
0
10
-18.912388943072234
20
10.551803294665021
30
0
10
-18.443143885021733
20
11.174887217835909
30
0
0
ARC
5
635
100
AcDbEntity
8
0
100
AcDbCircle
10
-48.495055446183635
20
42.284527820836324
30
0
40
0.40000000000001057
210
0
220
0
230
1
100
AcDbArc
50
-55.483607134327855
51
20.069373625915791
0
ARC
5
636
100
AcDbEntity
8
0
100
AcDbCircle
10
-7.9141583655298575
20
111.01935372605445
30
0
40
0.40000000000001062
210
0
220
0
230
1
100
AcDbArc
50
203.26639286567297
51
278.81937362595801
0
SPLINE
5
637
100
AcDbEntity
8
0
100
AcDbSpline
70
0
71
3
72
8
73
4
74
0
42
0.000000001
43
0.0000000001
44
0.0000000001
40
0
40
0
40
0
40
0
40
1
40
1
40
1
40
1
10
-48.759640212325131
20
76.672129611478411
30
0
10
-48.964816152280036
20
76.691262200896716
30
0
10
-49.192274854741136
20
76.707173569687214
30
0
10
-49.442529186748132
20
76.717580631540812
30
0
0
ARC
5
638
100
AcDbEntity
8
0
100
AcDbCircle
10
-51.019353726056039
20
52.085841634469205
30
0
40
0.40000000000000252
210
0
220
0
230
1
100
AcDbArc
50
-66.733607134328381
51
8.8193736259641771
0
ARC
5
639
100
AcDbEntity
8
0
100
AcDbCircle
10
-1.4743761767022079e-12
20
59.999999999999488
30
0
40
51.229529895995654
210
0
220
0
230
1
100
AcDbArc
50
126.1825279682056
51
126.94247203179201
0
ARC
5
640
100
AcDbEntity
8
0
100
AcDbCircle
10
-7.9936057773011271e-14
20
59.999999999998707
30
0
40
54.97847705256661
210
0
220
0
230
1
100
AcDbArc
50
263.69031369808897
51
265.05968630191086
0
SPLINE
5
641
100
AcDbEntity
8
0
100
AcDbSpline
70
0
71
3
72
8
73
4
74
0
42
0.000000001
43
0.0000000001
44
0.0000000001
40
0
40
0
40
0
40
0
40
1
40
1
40
1
40
1
10
-48.792923684539829
20
85.335420607012423
30
0
10
-48.044356507537231
20
84.385451257994816
30
0
10
-47.356351841630527
20
83.668091456538519
30
0
10
-46.782262296559828
20
83.140033037365626
30
0
0
SPLINE
5
642
100
AcDbEntity
8
0
100
AcDbSpline
70
0
71
3
72
8
73
4
74
0
42
0.000000001
43
0.0000000001
44
0.0000000001
40
0
40
0
40
0
40
0
40
1
40
1
40
1
40
1
10
-6.7505980670364885
20
8.2460569589912147
30
0
10
-6.6304806003028016
20
7.4753454085365156
30
0
10
-6.4162526368607953
20
6.5047466836587198
30
0
10
-6.0422636314919753
20
5.3545611306187268
30
0
0
SPLINE
5
643
100
AcDbEntity
8
0
100
AcDbSpline
70
0
71
3
72
8
73
4
74
0
42
0.000000001
43
0.0000000001
44
0.0000000001
40
0
40
0
40
0
40
0
40
1
40
1
40
1
40
1
10
-54.974551547382632
20
59.343021169441798
30
0
10
-53.86656178497924
20
58.858095124598066
30
0
10
-52.921634770608549
20
58.549763415934436
30
0
10
-52.166407977518944
20
58.354681405440004
30
0
0
SPLINE
5
644
100
AcDbEntity
8
0
100
AcDbSpline
70
0
71
3
72
8
73
4
74
0
42
0.000000001
43
0.0000000001
44
0.0000000001
40
0
40
0
40
0
40
0
40
1
40
1
40
1
40
1
10
-54.774229241836835
20
64.734633035655932
30
0
10
-53.719105817170615
20
64.143440054236706
30
0
10
-52.808950677005129
20
63.743974003257158
30
0
10
-52.076481888147228
20
63.475806195405667
30
0
0
SPLINE
5
645
100
AcDbEntity
8
0
100
AcDbSpline
70
0
71
3
72
8
73
4
74
0
42
0.000000001
43
0.0000000001
44
0.0000000001
40
0
40
0
40
0
40
0
40
1
40
1
40
1
40
1
10
-35.383337805226333
20
102.07912005711086
30
0
10
-35.055289442807535
20
100.91499856238924
30
0
10
-34.694177724766135
20
99.988956537344919
30
0
10
-34.365867352584935
20
99.281399614308242
30
0
0
SPLINE
5
646
100
AcDbEntity
8
0
100
AcDbSpline
70
0
71
3
72
8
73
4
74
0
42
0.000000001
43
0.0000000001
44
0.0000000001
40
0
40
0
40
0
40
0
40
1
40
1
40
1
40
1
10
-52.416654926688736
20
43.413040504175925
30
0
10
-51.215608231046815
20
43.270627662598415
30
0
10
-50.221865486135741
20
43.249870447188613
30
0
10
-49.442529186748132
20
43.28241936845663
30
0
0
SPLINE
5
647
100
AcDbEntity
8
0
100
AcDbSpline
70
0
71
3
72
8
73
4
74
0
42
0.000000001
43
0.0000000001
44
0.0000000001
40
0
40
0
40
0
40
0
40
1
40
1
40
1
40
1
10
-48.825112782163131
20
41.556856114977435
30
0
10
-49.448196705334027
20
41.087611056926825
30
0
10
-50.203201997049746
20
40.441141788874418
30
0
10
-51.041277897482246
20
39.569119215959731
30
0
0
ENDSEC
0
SECTION
2
OBJECTS
0
DICTIONARY
5
C
100
AcDbDictionary
3
ACAD_GROUP
350
D
3
ACAD_MLINESTYLE
350
17
0
DICTIONARY
5
D
100
AcDbDictionary
0
DICTIONARY
5
1A
330
C
100
AcDbDictionary
0
DICTIONARY
5
17
100
AcDbDictionary
0
ENDSEC
0
EOF
