0
SECTION
2
HEADER
9
$INSUNITS
70
4
9
$ACADVER
1
AC1014
9
$HANDSEED
5
FFFF
0
ENDSEC
0
SECTION
2
TABLES
0
TABLE
2
VPORT
5
8
100
AcDbSymbolTable
0
ENDTAB
0
TABLE
2
LTYPE
5
5
100
AcDbSymbolTable
0
LTYPE
5
14
100
AcDbSymbolTableRecord
100
AcDbLinetypeTableRecord
2
BYBLOCK
70
0
0
LTYPE
5
15
100
AcDbSymbolTableRecord
100
AcDbLinetypeTableRecord
2
BYLAYER
70
0
0
ENDTAB
0
TABLE
2
LAYER
5
2
100
AcDbSymbolTable
70
2
0
LAYER
5
50
100
AcDbSymbolTableRecord
100
AcDbLayerTableRecord
2
0
70
0
6
CONTINUOUS
0
ENDTAB
0
TABLE
2
STYLE
5
3
100
AcDbSymbolTable
70
1
0
STYLE
5
11
100
AcDbSymbolTableRecord
100
AcDbTextStyleTableRecord
2
STANDARD
70
0
0
ENDTAB
0
TABLE
2
VIEW
5
6
100
AcDbSymbolTable
70
0
0
ENDTAB
0
TABLE
2
UCS
5
7
100
AcDbSymbolTable
70
0
0
ENDTAB
0
TABLE
2
APPID
5
9
100
AcDbSymbolTable
70
2
0
APPID
5
12
100
AcDbSymbolTableRecord
100
AcDbRegAppTableRecord
2
ACAD
70
0
0
ENDTAB
0
TABLE
2
DIMSTYLE
5
A
100
AcDbSymbolTable
70
1
0
ENDTAB
0
TABLE
2
BLOCK_RECORD
5
1
100
AcDbSymbolTable
70
1
0
BLOCK_RECORD
5
1F
100
AcDbSymbolTableRecord
100
AcDbBlockTableRecord
2
*MODEL_SPACE
0
BLOCK_RECORD
5
1B
100
AcDbSymbolTableRecord
100
AcDbBlockTableRecord
2
*PAPER_SPACE
0
ENDTAB
0
ENDSEC
0
SECTION
2
BLOCKS
0
BLOCK
5
20
100
AcDbEntity
100
AcDbBlockBegin
2
*MODEL_SPACE
0
ENDBLK
5
21
100
AcDbEntity
100
AcDbBlockEnd
0
BLOCK
5
1C
100
AcDbEntity
100
AcDbBlockBegin
2
*PAPER_SPACE
0
ENDBLK
5
1D
100
AcDbEntity
100
AcDbBlockEnd
0
ENDSEC
0
SECTION
2
ENTITIES
0
SPLINE
5
100
100
AcDbEntity
8
0
100
AcDbSpline
70
0
71
3
72
8
73
4
74
0
42
0.000000001
43
0.0000000001
44
0.0000000001
40
0
40
0
40
0
40
0
40
1
40
1
40
1
40
1
10
1.4142259551477765
20
-6.7086129681301934
30
0
10
1.651706274199412
20
-7.0345517645746289
30
0
10
2.0654769503577497
20
-7.4600169957381581
30
0
10
2.7688965841199717
20
-7.8595153325808811
30
0
0
ARC
5
101
100
AcDbEntity
8
0
100
AcDbCircle
10
-3.2374245260522555e-14
20
-4.9908159464693639e-15
30
0
40
4.5814999999999699
210
0
220
0
230
1
100
AcDbArc
50
174.19769180947497
51
185.80230819052497
0
SPLINE
5
102
100
AcDbEntity
8
0
100
AcDbSpline
70
0
71
3
72
8
73
4
74
0
42
0.000000001
43
0.0000000001
44
0.0000000001
40
0
40
0
40
0
40
0
40
1
40
1
40
1
40
1
10
7.5154221395430829
20
3.5996110374720844
30
0
10
6.7355413634358179
20
3.8145158474708616
30
0
10
6.1421119623532849
20
3.8062465483237427
30
0
10
5.7456875715311089
20
3.7430619649973158
30
0
0
SPLINE
5
103
100
AcDbEntity
8
0
100
AcDbSpline
70
0
71
3
72
8
73
4
74
0
42
0.000000001
43
0.0000000001
44
0.0000000001
40
0
40
0
40
0
40
0
40
1
40
1
40
1
40
1
10
3.7436969591058542
20
5.7437144851358788
30
0
10
3.8062465483237462
20
6.142111962353284
30
0
10
3.814515847470866
20
6.7355413634358197
30
0
10
3.599611037472084
20
7.5154221395430874
30
0
0
SPLINE
5
104
100
AcDbEntity
8
0
100
AcDbSpline
70
0
71
3
72
8
73
4
74
0
42
0.000000001
43
0.0000000001
44
0.0000000001
40
0
40
0
40
0
40
0
40
1
40
1
40
1
40
1
10
5.7456875715311089
20
3.7430619649973158
30
0
10
5.4080853219754701
20
3.6877854130357979
30
0
10
5.2331298556579888
20
3.6019258744614642
30
0
10
5.1761556110233977
20
3.5697304845652122
30
0
0
SPLINE
5
105
100
AcDbEntity
8
0
100
AcDbSpline
70
0
71
3
72
8
73
4
74
0
42
0.000000001
43
0.0000000001
44
0.0000000001
40
0
40
0
40
0
40
0
40
1
40
1
40
1
40
1
10
-1.4160701465578636
20
-6.709559142259959
30
0
10
-1.2164357312858534
20
-6.431751877522732
30
0
10
-1.1534353966025646
20
-6.2473278189285253
30
0
10
-1.1359141003870445
20
-6.1842753656758411
30
0
0
LINE
5
106
100
AcDbEntity
8
0
100
AcDbLine
10
-1.1359141003870445
20
-6.1842753656758411
30
0
11
-0.89703016269147906
21
-4.8837157101147586
31
0
0
SPLINE
5
107
100
AcDbEntity
8
0
100
AcDbSpline
70
0
71
3
72
8
73
4
74
0
42
0.000000001
43
0.0000000001
44
0.0000000001
40
0
40
0
40
0
40
0
40
1
40
1
40
1
40
1
10
2.7688965841199749
20
7.8595153325808829
30
0
10
2.0654769503577528
20
7.4600169957381528
30
0
10
1.6517062741994082
20
7.0345517645746316
30
0
10
1.4160701465578636
20
6.709559142259959
30
0
0
SPLINE
5
108
100
AcDbEntity
8
0
100
AcDbSpline
70
0
71
3
72
8
73
4
74
0
42
0.000000001
43
0.0000000001
44
0.0000000001
40
0
40
0
40
0
40
0
40
1
40
1
40
1
40
1
10
-6.7086129681301934
20
-1.4142259551477765
30
0
10
-7.0345517645746289
20
-1.651706274199412
30
0
10
-7.4600169957381581
20
-2.0654769503577497
30
0
10
-7.8595153325808811
20
-2.7688965841199717
30
0
0
LINE
5
109
100
AcDbEntity
8
0
100
AcDbLine
10
0.89703016269147562
20
-4.8837157101147621
30
0
11
1.1359141003870401
21
-6.1842753656758429
31
0
0
ARC
5
110
100
AcDbEntity
8
0
100
AcDbCircle
10
0.50361159899689811
20
-4.9559779667948298
30
0
40
0.40000000000000036
210
0
220
-0
230
1
100
AcDbArc
50
10.407951399911399
51
95.802308190524982
0
ARC
5
111
100
AcDbEntity
8
0
100
AcDbCircle
10
-2.1260494396211756e-14
20
-2.2582988686811323e-14
30
0
40
4.5814999999999717
210
0
220
0
230
1
100
AcDbArc
50
219.19769180947478
51
230.80230819052517
0
SPLINE
5
112
100
AcDbEntity
8
0
100
AcDbSpline
70
0
71
3
72
8
73
4
74
0
42
0.000000001
43
0.0000000001
44
0.0000000001
40
0
40
0
40
0
40
0
40
1
40
1
40
1
40
1
10
-1.1359141003870401
20
6.1842753656758429
30
0
10
-1.1534353966025566
20
6.2473278189285297
30
0
10
-1.2164357312858431
20
6.4317518775227338
30
0
10
-1.4142259551477765
20
6.7086129681301934
30
0
0
ARC
5
113
100
AcDbEntity
8
0
100
AcDbCircle
10
-0.50361159899689811
20
4.9559779667948298
30
0
40
0.40000000000000024
210
0
220
0
230
1
100
AcDbArc
50
190.40795139991113
51
275.80230819052497
0
LINE
5
114
100
AcDbEntity
8
0
100
AcDbLine
10
-0.89703016269147584
20
4.8837157101147639
30
0
11
-1.1359141003870401
21
6.1842753656758429
31
0
0
ARC
5
115
100
AcDbEntity
8
0
100
AcDbCircle
10
3.1767391063573476e-14
20
9.1261438405912644e-16
30
0
40
4.5814999999999726
210
-0
220
0
230
1
100
AcDbArc
50
-5.802308190525161
51
5.8023081905251663
0
ARC
5
116
100
AcDbEntity
8
0
100
AcDbCircle
10
-3.1482984509968377
20
-3.8605128044666497
30
0
40
0.40000000000000036
210
-0
220
0
230
1
100
AcDbArc
50
-34.592048600089136
51
50.802308190524947
0
ARC
5
117
100
AcDbEntity
8
0
100
AcDbCircle
10
3.8605128044666497
20
-3.1482984509968377
30
0
40
0.40000000000000024
210
0
220
-0
230
1
100
AcDbArc
50
55.407951399911312
51
140.8023081905271
0
SPLINE
5
118
100
AcDbEntity
8
0
100
AcDbSpline
70
0
71
3
72
8
73
4
74
0
42
0.000000001
43
0.0000000001
44
0.0000000001
40
0
40
0
40
0
40
0
40
1
40
1
40
1
40
1
10
5.1761556110233995
20
-3.5697304845652065
30
0
10
5.2331298556579888
20
-3.6019258744614646
30
0
10
5.4080853219754736
20
-3.6877854130357979
30
0
10
5.7437144851358788
20
-3.7436969591058542
30
0
0
SPLINE
5
119
100
AcDbEntity
8
0
100
AcDbSpline
70
0
71
3
72
8
73
4
74
0
42
0.000000001
43
0.0000000001
44
0.0000000001
40
0
40
0
40
0
40
0
40
1
40
1
40
1
40
1
10
6.1842753656758429
20
1.1359141003870401
30
0
10
6.2473278189285297
20
1.1534353966025566
30
0
10
6.4317518775227338
20
1.2164357312858431
30
0
10
6.7086129681301934
20
1.4142259551477765
30
0
0
ARC
5
120
100
AcDbEntity
8
0
100
AcDbCircle
10
-4.9559779667948298
20
-0.50361159899689811
30
0
40
0.40000000000000069
210
-0
220
0
230
1
100
AcDbArc
50
-79.592048600087864
51
5.8023081905266762
0
LINE
5
121
100
AcDbEntity
8
0
100
AcDbLine
10
3.5697304845652083
20
-5.1761556110234066
30
0
11
2.8190123850414106
21
-4.0876046069774397
31
0
0
ARC
5
122
100
AcDbEntity
8
0
100
AcDbCircle
10
-2.2965672119176415e-14
20
2.033661486370047e-14
30
0
40
4.5814999999999699
210
0
220
0
230
1
100
AcDbArc
50
129.197691809475
51
140.80230819052503
0
SPLINE
5
123
100
AcDbEntity
8
0
100
AcDbSpline
70
0
71
3
72
8
73
4
74
0
42
0.000000001
43
0.0000000001
44
0.0000000001
40
0
40
0
40
0
40
0
40
1
40
1
40
1
40
1
10
1.1359141003870401
20
-6.1842753656758429
30
0
10
1.1534353966025566
20
-6.2473278189285297
30
0
10
1.2164357312858431
20
-6.4317518775227338
30
0
10
1.4142259551477765
20
-6.7086129681301934
30
0
0
ARC
5
124
100
AcDbEntity
8
0
100
AcDbCircle
10
3.1482984509968377
20
3.8605128044666497
30
0
40
0.40000000000000624
210
0
220
0
230
1
100
AcDbArc
50
145.40795139991206
51
230.80230819052497
0
SPLINE
5
125
100
AcDbEntity
8
0
100
AcDbSpline
70
0
71
3
72
8
73
4
74
0
42
0.000000001
43
0.0000000001
44
0.0000000001
40
0
40
0
40
0
40
0
40
1
40
1
40
1
40
1
10
3.7430619649973158
20
-5.7456875715311089
30
0
10
3.6877854130357934
20
-5.4080853219754799
30
0
10
3.6019258744614642
20
-5.2331298556579888
30
0
10
3.5697304845652083
20
-5.1761556110234066
30
0
0
SPLINE
5
126
100
AcDbEntity
8
0
100
AcDbSpline
70
0
71
3
72
8
73
4
74
0
42
0.000000001
43
0.0000000001
44
0.0000000001
40
0
40
0
40
0
40
0
40
1
40
1
40
1
40
1
10
3.5996110374720844
20
-7.5154221395430829
30
0
10
3.8145158474708616
20
-6.7355413634358179
30
0
10
3.8062465483237427
20
-6.1421119623532849
30
0
10
3.7430619649973158
20
-5.7456875715311089
30
0
0
SPLINE
5
127
100
AcDbEntity
8
0
100
AcDbSpline
70
0
71
3
72
8
73
4
74
0
42
0.000000001
43
0.0000000001
44
0.0000000001
40
0
40
0
40
0
40
0
40
1
40
1
40
1
40
1
10
-5.7456875715311089
20
-3.7430619649973158
30
0
10
-5.4080853219754799
20
-3.6877854130357934
30
0
10
-5.2331298556579888
20
-3.6019258744614642
30
0
10
-5.1761556110234066
20
-3.5697304845652083
30
0
0
SPLINE
5
128
100
AcDbEntity
8
0
100
AcDbSpline
70
0
71
3
72
8
73
4
74
0
42
0.000000001
43
0.0000000001
44
0.0000000001
40
0
40
0
40
0
40
0
40
1
40
1
40
1
40
1
10
-3.5996110374720844
20
7.5154221395430829
30
0
10
-3.8145158474708616
20
6.7355413634358179
30
0
10
-3.8062465483237427
20
6.1421119623532849
30
0
10
-3.7430619649973158
20
5.7456875715311089
30
0
0
LINE
5
129
100
AcDbEntity
8
0
100
AcDbLine
10
-5.1761556110234066
20
-3.5697304845652083
30
0
11
-4.0876046069774397
21
-2.8190123850414106
31
0
0
ARC
5
130
100
AcDbEntity
8
0
100
AcDbCircle
10
3.7141828391292832e-16
20
-3.0460828098697107e-14
30
0
40
4.5814999999999699
210
0
220
0
230
1
100
AcDbArc
50
264.19769180947497
51
275.8023081905252
0
SPLINE
5
131
100
AcDbEntity
8
0
100
AcDbSpline
70
0
71
3
72
8
73
4
74
0
42
0.000000001
43
0.0000000001
44
0.0000000001
40
0
40
0
40
0
40
0
40
1
40
1
40
1
40
1
10
6.709559142259959
20
-1.4160701465578636
30
0
10
6.4317518775227356
20
-1.216435731285844
30
0
10
6.2473278189285288
20
-1.1534353966025552
30
0
10
6.1842753656758411
20
-1.1359141003870445
30
0
0
SPLINE
5
132
100
AcDbEntity
8
0
100
AcDbSpline
70
0
71
3
72
8
73
4
74
0
42
0.000000001
43
0.0000000001
44
0.0000000001
40
0
40
0
40
0
40
0
40
1
40
1
40
1
40
1
10
-6.709559142259959
20
1.4160701465578636
30
0
10
-6.431751877522732
20
1.2164357312858534
30
0
10
-6.2473278189285288
20
1.1534353966025552
30
0
10
-6.1842753656758411
20
1.1359141003870445
30
0
0
SPLINE
5
133
100
AcDbEntity
8
0
100
AcDbSpline
70
0
71
3
72
8
73
4
74
0
42
0.000000001
43
0.0000000001
44
0.0000000001
40
0
40
0
40
0
40
0
40
1
40
1
40
1
40
1
10
7.8595153325808829
20
-2.7688965841199735
30
0
10
7.4600169957381528
20
-2.0654769503577528
30
0
10
7.0345517645746316
20
-1.6517062741994082
30
0
10
6.709559142259959
20
-1.4160701465578636
30
0
0
LINE
5
134
100
AcDbEntity
8
0
100
AcDbLine
10
-4.0876046069774343
20
2.8190123850414128
30
0
11
-5.1761556110233995
21
3.5697304845652065
31
0
0
ARC
5
135
100
AcDbEntity
8
0
100
AcDbCircle
10
-4.9559779667948316
20
0.503611598996897
30
0
40
0.40000000000000369
210
-0
220
0
230
1
100
AcDbArc
50
-5.8023081905275022
51
79.592048600089115
0
ARC
5
136
100
AcDbEntity
8
0
100
AcDbCircle
10
-3.1482984509968355
20
3.8605128044666488
30
0
40
0.40000000000000252
210
-0
220
0
230
1
100
AcDbArc
50
-50.802308190527505
51
34.592048600088013
0
SPLINE
5
137
100
AcDbEntity
8
0
100
AcDbSpline
70
0
71
3
72
8
73
4
74
0
42
0.000000001
43
0.0000000001
44
0.0000000001
40
0
40
0
40
0
40
0
40
1
40
1
40
1
40
1
10
-1.4142259551477765
20
6.7086129681301934
30
0
10
-1.651706274199412
20
7.0345517645746289
30
0
10
-2.0654769503577497
20
7.4600169957381581
30
0
10
-2.7688965841199717
20
7.8595153325808811
30
0
0
SPLINE
5
138
100
AcDbEntity
8
0
100
AcDbSpline
70
0
71
3
72
8
73
4
74
0
42
0.000000001
43
0.0000000001
44
0.0000000001
40
0
40
0
40
0
40
0
40
1
40
1
40
1
40
1
10
5.7437144851358788
20
-3.7436969591058542
30
0
10
6.142111962353284
20
-3.8062465483237462
30
0
10
6.7355413634358197
20
-3.8145158474708651
30
0
10
7.5154221395430874
20
-3.599611037472084
30
0
0
LINE
5
139
100
AcDbEntity
8
0
100
AcDbLine
10
6.1842753656758411
20
-1.1359141003870445
30
0
11
4.8837157101147675
21
-0.89703016269147462
31
0
0
ARC
5
140
100
AcDbEntity
8
0
100
AcDbCircle
10
1.5574635859086128e-14
20
-1.7275147404779755e-14
30
0
40
4.5814999999999788
210
-0
220
0
230
1
100
AcDbArc
50
309.1976918094748
51
320.80230819052503
0
ARC
5
141
100
AcDbEntity
8
0
100
AcDbCircle
10
3.8268343236508971e-16
20
9.2387953251128665e-16
30
0
40
8.3329928331077561
210
0
220
0
230
1
100
AcDbArc
50
154.40729166760872
51
160.592708332391
0
ARC
5
142
100
AcDbEntity
8
0
100
AcDbCircle
10
-3.8605128044666404
20
3.1482984509968337
30
0
40
0.39999999999999891
210
0
220
0
230
1
100
AcDbArc
50
235.40795139991036
51
320.80230819052662
0
LINE
5
143
100
AcDbEntity
8
0
100
AcDbLine
10
-3.5697304845652122
20
5.1761556110233977
30
0
11
-2.8190123850414066
21
4.0876046069774343
31
0
0
ARC
5
144
100
AcDbEntity
8
0
100
AcDbCircle
10
0.503611598996897
20
4.9559779667948316
30
0
40
0.40000000000000363
210
0
220
0
230
1
100
AcDbArc
50
264.19769180947259
51
349.59204860008856
0
ARC
5
145
100
AcDbEntity
8
0
100
AcDbCircle
10
4.9559779667948298
20
0.50361159899689811
30
0
40
0.40000000000000024
210
0
220
0
230
1
100
AcDbArc
50
100.40795139991114
51
185.80230819052497
0
ARC
5
146
100
AcDbEntity
8
0
100
AcDbCircle
10
3.8605128044666488
20
3.1482984509968355
30
0
40
0.40000000000000119
210
0
220
0
230
1
100
AcDbArc
50
219.19769180947489
51
304.59204860008805
0
LINE
5
147
100
AcDbEntity
8
0
100
AcDbLine
10
1.1359141003870445
20
6.1842753656758411
30
0
11
0.89703016269147406
21
4.8837157101147639
31
0
0
SPLINE
5
148
100
AcDbEntity
8
0
100
AcDbSpline
70
0
71
3
72
8
73
4
74
0
42
0.000000001
43
0.0000000001
44
0.0000000001
40
0
40
0
40
0
40
0
40
1
40
1
40
1
40
1
10
-3.7430619649973158
20
5.7456875715311089
30
0
10
-3.6877854130357979
20
5.4080853219754701
30
0
10
-3.6019258744614642
20
5.2331298556579888
30
0
10
-3.5697304845652122
20
5.1761556110233977
30
0
0
ARC
5
149
100
AcDbEntity
8
0
100
AcDbCircle
10
0
20
0
30
0
40
8.3329928331077596
210
0
220
-0
230
1
100
AcDbArc
50
64.407291667608717
51
70.592708332391325
0
SPLINE
5
150
100
AcDbEntity
8
0
100
AcDbSpline
70
0
71
3
72
8
73
4
74
0
42
0.000000001
43
0.0000000001
44
0.0000000001
40
0
40
0
40
0
40
0
40
1
40
1
40
1
40
1
10
-3.5697304845652065
20
-5.1761556110233995
30
0
10
-3.6019258744614646
20
-5.2331298556579888
30
0
10
-3.6877854130357979
20
-5.4080853219754736
30
0
10
-3.7436969591058542
20
-5.7437144851358788
30
0
0
SPLINE
5
151
100
AcDbEntity
8
0
100
AcDbSpline
70
0
71
3
72
8
73
4
74
0
42
0.000000001
43
0.0000000001
44
0.0000000001
40
0
40
0
40
0
40
0
40
1
40
1
40
1
40
1
10
-5.1761556110233995
20
3.5697304845652065
30
0
10
-5.2331298556579888
20
3.6019258744614646
30
0
10
-5.4080853219754736
20
3.6877854130357979
30
0
10
-5.7437144851358788
20
3.7436969591058542
30
0
0
SPLINE
5
152
100
AcDbEntity
8
0
100
AcDbSpline
70
0
71
3
72
8
73
4
74
0
42
0.000000001
43
0.0000000001
44
0.0000000001
40
0
40
0
40
0
40
0
40
1
40
1
40
1
40
1
10
-2.7688965841199753
20
-7.859515332580882
30
0
10
-2.0654769503577537
20
-7.460016995738151
30
0
10
-1.6517062741994082
20
-7.0345517645746316
30
0
10
-1.4160701465578636
20
-6.709559142259959
30
0
0
LINE
5
153
100
AcDbEntity
8
0
100
AcDbLine
10
-2.8190123850414133
20
-4.0876046069774414
30
0
11
-3.5697304845652065
21
-5.1761556110233995
31
0
0
SPLINE
5
154
100
AcDbEntity
8
0
100
AcDbSpline
70
0
71
3
72
8
73
4
74
0
42
0.000000001
43
0.0000000001
44
0.0000000001
40
0
40
0
40
0
40
0
40
1
40
1
40
1
40
1
10
1.4160701465578636
20
6.709559142259959
30
0
10
1.216435731285844
20
6.4317518775227356
30
0
10
1.1534353966025552
20
6.2473278189285288
30
0
10
1.1359141003870445
20
6.1842753656758411
30
0
0
ARC
5
155
100
AcDbEntity
8
0
100
AcDbCircle
10
7.6536686473017942e-16
20
1.8477590650225733e-15
30
0
40
8.3329928331077578
210
0
220
0
230
1
100
AcDbArc
50
199.40729166760894
51
205.592708332391
0
LINE
5
156
100
AcDbEntity
8
0
100
AcDbLine
10
-6.1842753656758411
20
1.1359141003870445
30
0
11
-4.8837157101147675
21
0.89703016269147462
31
0
0
LINE
5
157
100
AcDbEntity
8
0
100
AcDbLine
10
4.8837157101147639
20
0.89703016269147584
30
0
11
6.1842753656758429
21
1.1359141003870401
31
0
0
SPLINE
5
158
100
AcDbEntity
8
0
100
AcDbSpline
70
0
71
3
72
8
73
4
74
0
42
0.000000001
43
0.0000000001
44
0.0000000001
40
0
40
0
40
0
40
0
40
1
40
1
40
1
40
1
10
-6.1842753656758429
20
-1.1359141003870401
30
0
10
-6.2473278189285297
20
-1.1534353966025566
30
0
10
-6.4317518775227338
20
-1.2164357312858431
30
0
10
-6.7086129681301934
20
-1.4142259551477765
30
0
0
SPLINE
5
159
100
AcDbEntity
8
0
100
AcDbSpline
70
0
71
3
72
8
73
4
74
0
42
0.000000001
43
0.0000000001
44
0.0000000001
40
0
40
0
40
0
40
0
40
1
40
1
40
1
40
1
10
-5.7437144851358788
20
3.7436969591058542
30
0
10
-6.142111962353284
20
3.8062465483237462
30
0
10
-6.7355413634358197
20
3.814515847470866
30
0
10
-7.5154221395430865
20
3.5996110374720844
30
0
0
SPLINE
5
160
100
AcDbEntity
8
0
100
AcDbSpline
70
0
71
3
72
8
73
4
74
0
42
0.000000001
43
0.0000000001
44
0.0000000001
40
0
40
0
40
0
40
0
40
1
40
1
40
1
40
1
10
-3.7436969591058542
20
-5.7437144851358788
30
0
10
-3.8062465483237462
20
-6.142111962353284
30
0
10
-3.8145158474708674
20
-6.7355413634358197
30
0
10
-3.5996110374720844
20
-7.5154221395430865
30
0
0
ARC
5
161
100
AcDbEntity
8
0
100
AcDbCircle
10
3.1482984509968355
20
-3.8605128044666488
30
0
40
0.4000000000000003
210
0
220
0
230
1
100
AcDbArc
50
129.197691809475
51
214.59204860008899
0
SPLINE
5
162
100
AcDbEntity
8
0
100
AcDbSpline
70
0
71
3
72
8
73
4
74
0
42
0.000000001
43
0.0000000001
44
0.0000000001
40
0
40
0
40
0
40
0
40
1
40
1
40
1
40
1
10
6.7086129681301934
20
1.4142259551477765
30
0
10
7.0345517645746289
20
1.651706274199412
30
0
10
7.4600169957381581
20
2.0654769503577497
30
0
10
7.8595153325808811
20
2.7688965841199717
30
0
0
ARC
5
163
100
AcDbEntity
8
0
100
AcDbCircle
10
-5.6361317660459546e-15
20
9.9113076188648135e-15
30
0
40
8.3329928331077561
210
0
220
-0
230
1
100
AcDbArc
50
19.407291667608575
51
25.592708332391251
0
ARC
5
164
100
AcDbEntity
8
0
100
AcDbCircle
10
-9.9113076188648135e-15
20
-5.6361317660459546e-15
30
0
40
8.3329928331077578
210
0
220
0
230
1
100
AcDbArc
50
109.40729166760902
51
115.59270833239125
0
LINE
5
165
100
AcDbEntity
8
0
100
AcDbLine
10
-4.8837157101147568
20
-0.89703016269147506
30
0
11
-6.1842753656758429
21
-1.1359141003870401
31
0
0
ARC
5
166
100
AcDbEntity
8
0
100
AcDbCircle
10
-9.1261438405912644e-16
20
3.1767391063573476e-14
30
0
40
4.5814999999999699
210
0
220
-0
230
1
100
AcDbArc
50
84.197691809475003
51
95.802308190525224
0
ARC
5
167
100
AcDbEntity
8
0
100
AcDbCircle
10
-0.503611598996897
20
-4.9559779667948316
30
0
40
0.40000000000000485
210
0
220
-0
230
1
100
AcDbArc
50
84.197691809473142
51
169.59204860008799
0
ARC
5
168
100
AcDbEntity
8
0
100
AcDbCircle
10
4.9559779667948316
20
-0.503611598996897
30
0
40
0.4000000000000003
210
0
220
0
230
1
100
AcDbArc
50
174.19769180947497
51
259.59204860008907
0
ARC
5
169
100
AcDbEntity
8
0
100
AcDbCircle
10
2.1260494396211756e-14
20
2.2582988686811323e-14
30
0
40
4.5814999999999699
210
0
220
-0
230
1
100
AcDbArc
50
39.197691809474783
51
50.802308190525189
0
LINE
5
170
100
AcDbEntity
8
0
100
AcDbLine
10
5.1761556110233977
20
3.5697304845652122
30
0
11
4.0876046069774343
21
2.8190123850414066
31
0
0
ARC
5
171
100
AcDbEntity
8
0
100
AcDbCircle
10
8.6047446539884384e-15
20
5.0949356658997557e-15
30
0
40
8.3329928331077561
210
-0
220
0
230
1
100
AcDbArc
50
289.4072916676086
51
295.592708332391
0
ARC
5
172
100
AcDbEntity
8
0
100
AcDbCircle
10
-1.8477590650225733e-15
20
7.6536686473017942e-16
30
0
40
8.3329928331077578
210
0
220
0
230
1
100
AcDbArc
50
244.40729166760875
51
250.59270833239131
0
ARC
5
173
100
AcDbEntity
8
0
100
AcDbCircle
10
0
20
0
30
0
40
8.3329928331077596
210
-0
220
0
230
1
100
AcDbArc
50
334.40729166760906
51
340.59270833239128
0
ARC
5
174
100
AcDbEntity
8
0
100
AcDbCircle
10
-3.8605128044666488
20
-3.1482984509968355
30
0
40
0.3999999999999998
210
0
220
-0
230
1
100
AcDbArc
50
39.197691809475145
51
124.59204860008899
0
SPLINE
5
175
100
AcDbEntity
8
0
100
AcDbSpline
70
0
71
3
72
8
73
4
74
0
42
0.000000001
43
0.0000000001
44
0.0000000001
40
0
40
0
40
0
40
0
40
1
40
1
40
1
40
1
10
-7.8595153325808829
20
2.7688965841199749
30
0
10
-7.460016995738151
20
2.0654769503577537
30
0
10
-7.0345517645746316
20
1.6517062741994082
30
0
10
-6.709559142259959
20
1.4160701465578636
30
0
0
LINE
5
176
100
AcDbEntity
8
0
100
AcDbLine
10
2.8190123850414039
20
4.0876046069774379
30
0
11
3.5697304845652065
21
5.1761556110233995
31
0
0
SPLINE
5
177
100
AcDbEntity
8
0
100
AcDbSpline
70
0
71
3
72
8
73
4
74
0
42
0.000000001
43
0.0000000001
44
0.0000000001
40
0
40
0
40
0
40
0
40
1
40
1
40
1
40
1
10
-7.5154221395430829
20
-3.5996110374720844
30
0
10
-6.7355413634358179
20
-3.8145158474708616
30
0
10
-6.1421119623532849
20
-3.8062465483237427
30
0
10
-5.7456875715311089
20
-3.7430619649973158
30
0
0
SPLINE
5
178
100
AcDbEntity
8
0
100
AcDbSpline
70
0
71
3
72
8
73
4
74
0
42
0.000000001
43
0.0000000001
44
0.0000000001
40
0
40
0
40
0
40
0
40
1
40
1
40
1
40
1
10
3.5697304845652065
20
5.1761556110233995
30
0
10
3.6019258744614646
20
5.2331298556579888
30
0
10
3.6877854130357979
20
5.4080853219754736
30
0
10
3.7436969591058542
20
5.7437144851358788
30
0
0
LINE
5
179
100
AcDbEntity
8
0
100
AcDbLine
10
4.0876046069774388
20
-2.8190123850414119
30
0
11
5.1761556110233995
21
-3.5697304845652065
31
0
0
CIRCLE
5
180
100
AcDbEntity
8
0
100
AcDbCircle
10
0
20
0
30
0
40
1.925
210
0
220
-0
230
1
0
ENDSEC
0
SECTION
2
OBJECTS
0
DICTIONARY
5
C
100
AcDbDictionary
3
ACAD_GROUP
350
D
3
ACAD_MLINESTYLE
350
17
0
DICTIONARY
5
D
100
AcDbDictionary
0
DICTIONARY
5
1A
330
C
100
AcDbDictionary
0
DICTIONARY
5
17
100
AcDbDictionary
0
ENDSEC
0
EOF
