0
SECTION
2
HEADER
9
$INSUNITS
70
4
9
$ACADVER
1
AC1014
9
$HANDSEED
5
FFFF
0
ENDSEC
0
SECTION
2
TABLES
0
TABLE
2
VPORT
5
8
100
AcDbSymbolTable
0
ENDTAB
0
TABLE
2
LTYPE
5
5
100
AcDbSymbolTable
0
LTYPE
5
14
100
AcDbSymbolTableRecord
100
AcDbLinetypeTableRecord
2
BYBLOCK
70
0
0
LTYPE
5
15
100
AcDbSymbolTableRecord
100
AcDbLinetypeTableRecord
2
BYLAYER
70
0
0
ENDTAB
0
TABLE
2
LAYER
5
2
100
AcDbSymbolTable
70
2
0
LAYER
5
50
100
AcDbSymbolTableRecord
100
AcDbLayerTableRecord
2
0
70
0
6
CONTINUOUS
0
ENDTAB
0
TABLE
2
STYLE
5
3
100
AcDbSymbolTable
70
1
0
STYLE
5
11
100
AcDbSymbolTableRecord
100
AcDbTextStyleTableRecord
2
STANDARD
70
0
0
ENDTAB
0
TABLE
2
VIEW
5
6
100
AcDbSymbolTable
70
0
0
ENDTAB
0
TABLE
2
UCS
5
7
100
AcDbSymbolTable
70
0
0
ENDTAB
0
TABLE
2
APPID
5
9
100
AcDbSymbolTable
70
2
0
APPID
5
12
100
AcDbSymbolTableRecord
100
AcDbRegAppTableRecord
2
ACAD
70
0
0
ENDTAB
0
TABLE
2
DIMSTYLE
5
A
100
AcDbSymbolTable
70
1
0
ENDTAB
0
TABLE
2
BLOCK_RECORD
5
1
100
AcDbSymbolTable
70
1
0
BLOCK_RECORD
5
1F
100
AcDbSymbolTableRecord
100
AcDbBlockTableRecord
2
*MODEL_SPACE
0
BLOCK_RECORD
5
1B
100
AcDbSymbolTableRecord
100
AcDbBlockTableRecord
2
*PAPER_SPACE
0
ENDTAB
0
ENDSEC
0
SECTION
2
BLOCKS
0
BLOCK
5
20
100
AcDbEntity
100
AcDbBlockBegin
2
*MODEL_SPACE
0
ENDBLK
5
21
100
AcDbEntity
100
AcDbBlockEnd
0
BLOCK
5
1C
100
AcDbEntity
100
AcDbBlockBegin
2
*PAPER_SPACE
0
ENDBLK
5
1D
100
AcDbEntity
100
AcDbBlockEnd
0
ENDSEC
0
SECTION
2
ENTITIES
0
SPLINE
5
100
100
AcDbEntity
8
0
100
AcDbSpline
70
0
71
3
72
8
73
4
74
0
42
0.000000001
43
0.0000000001
44
0.0000000001
40
0
40
0
40
0
40
0
40
1
40
1
40
1
40
1
10
-5.4828102081470664
20
63.781214517474339
30
0
10
-5.5431598176948826
20
63.815317281309817
30
0
10
-5.7284802927311773
20
63.906263456413143
30
0
10
-6.0839933684989944
20
63.965487409204172
30
0
0
SPLINE
5
101
100
AcDbEntity
8
0
100
AcDbSpline
70
0
71
3
72
8
73
4
74
0
42
0.000000001
43
0.0000000001
44
0.0000000001
40
0
40
0
40
0
40
0
40
1
40
1
40
1
40
1
10
-1.2032098517124989
20
66.550654704566753
30
0
10
-1.2217691743004488
20
66.617442618285239
30
0
10
-1.2885018817527927
20
66.812792640014663
30
0
10
-1.4980099298014959
20
67.106056005317768
30
0
0
SPLINE
5
102
100
AcDbEntity
8
0
100
AcDbSpline
70
0
71
3
72
8
73
4
74
0
42
0.000000001
43
0.0000000001
44
0.0000000001
40
0
40
0
40
0
40
0
40
1
40
1
40
1
40
1
10
1.2032098517124945
20
53.449345295433304
30
0
10
1.2217691743004355
20
53.382557381714818
30
0
10
1.2885018817527705
20
53.187207359985393
30
0
10
1.4980099298014826
20
52.893943994682274
30
0
0
LINE
5
103
100
AcDbEntity
8
0
100
AcDbLine
10
-0.94621522168172323
20
65.151494716088067
30
0
11
-1.2032098517124989
21
66.550654704566753
31
0
0
LINE
5
104
100
AcDbEntity
8
0
100
AcDbLine
10
-5.1514947160880276
20
59.053784778318303
30
0
11
-6.5506547045667407
21
58.796790148287528
31
0
0
ARC
5
105
100
AcDbEntity
8
0
100
AcDbCircle
10
-3.5527136788005009e-14
20
60.000000000000057
30
0
40
4.8529249999999546
210
0
220
0
230
1
100
AcDbArc
50
128.95923802987744
51
141.04076197012299
0
ARC
5
106
100
AcDbEntity
8
0
100
AcDbCircle
10
-4.0846402441947927
20
63.302867713234896
30
0
40
0.40000000000001362
210
0
220
0
230
1
100
AcDbArc
50
235.40795139991124
51
321.04076197011705
0
ARC
5
107
100
AcDbEntity
8
0
100
AcDbCircle
10
-1.3322676295501878e-14
20
60.000000000000014
30
0
40
8.8266701396070033
210
0
220
0
230
1
100
AcDbArc
50
109.40729166760865
51
115.59270833239117
0
LINE
5
108
100
AcDbEntity
8
0
100
AcDbLine
10
-5.4828102081470709
20
56.218785482525689
30
0
11
-4.3117320467055853
21
57.026418352720597
31
0
0
SPLINE
5
109
100
AcDbEntity
8
0
100
AcDbSpline
70
0
71
3
72
8
73
4
74
0
42
0.000000001
43
0.0000000001
44
0.0000000001
40
0
40
0
40
0
40
0
40
1
40
1
40
1
40
1
10
3.9654874092041492
20
66.083993368499009
30
0
10
4.0317426673630834
20
66.505993385333056
30
0
10
4.0405018703672457
20
67.134579738328469
30
0
10
3.8128653048181071
20
67.9606635352051
30
0
0
SPLINE
5
110
100
AcDbEntity
8
0
100
AcDbSpline
70
0
71
3
72
8
73
4
74
0
42
0.000000001
43
0.0000000001
44
0.0000000001
40
0
40
0
40
0
40
0
40
1
40
1
40
1
40
1
10
-6.0839933684989944
20
63.965487409204172
30
0
10
-6.5059933853330421
20
64.031742667363119
30
0
10
-7.1345797383284504
20
64.040501870367279
30
0
10
-7.9606635352050992
20
63.812865304818146
30
0
0
SPLINE
5
111
100
AcDbEntity
8
0
100
AcDbSpline
70
0
71
3
72
8
73
4
74
0
42
0.000000001
43
0.0000000001
44
0.0000000001
40
0
40
0
40
0
40
0
40
1
40
1
40
1
40
1
10
-2.9329362557002048
20
51.674857918724229
30
0
10
-2.1878434419545822
20
52.098024014178236
30
0
10
-1.749559461032244
20
52.548695378784643
30
0
10
-1.4999633779295829
20
52.892941765698609
30
0
0
ARC
5
112
100
AcDbEntity
8
0
100
AcDbCircle
10
-1.3322676295501878e-14
20
60.000000000000014
30
0
40
8.8266701396069926
210
0
220
-0
230
1
100
AcDbArc
50
64.407291667608661
51
70.592708332391297
0
LINE
5
113
100
AcDbEntity
8
0
100
AcDbLine
10
0.94621522168170547
20
54.84850528391199
30
0
11
1.2032098517124945
21
53.449345295433304
31
0
0
SPLINE
5
114
100
AcDbEntity
8
0
100
AcDbSpline
70
0
71
3
72
8
73
4
74
0
42
0.000000001
43
0.0000000001
44
0.0000000001
40
0
40
0
40
0
40
0
40
1
40
1
40
1
40
1
10
3.7812145174743206
20
65.482810208147072
30
0
10
3.8153172813097957
20
65.5431598176949
30
0
10
3.9062634564131171
20
65.728480292731192
30
0
10
3.9654874092041492
20
66.083993368499009
30
0
0
SPLINE
5
115
100
AcDbEntity
8
0
100
AcDbSpline
70
0
71
3
72
8
73
4
74
0
42
0.000000001
43
0.0000000001
44
0.0000000001
40
0
40
0
40
0
40
0
40
1
40
1
40
1
40
1
10
3.8128653048181094
20
52.039336464794928
30
0
10
4.0405018703672502
20
52.865420261671581
30
0
10
4.0317426673630807
20
53.494006614666972
30
0
10
3.9648147956967206
20
53.913916652172333
30
0
0
ARC
5
116
100
AcDbEntity
8
0
100
AcDbCircle
10
-3.1086244689504383e-14
20
60.000000000000014
30
0
40
4.8529249999999733
210
0
220
0
230
1
100
AcDbArc
50
173.95923802987681
51
186.04076197012287
0
SPLINE
5
117
100
AcDbEntity
8
0
100
AcDbSpline
70
0
71
3
72
8
73
4
74
0
42
0.000000001
43
0.0000000001
44
0.0000000001
40
0
40
0
40
0
40
0
40
1
40
1
40
1
40
1
10
1.4999633779295563
20
67.107058234301448
30
0
10
1.2885018817527794
20
66.812792640014663
30
0
10
1.2217691743004311
20
66.617442618285253
30
0
10
1.2032098517124989
20
66.550654704566753
30
0
0
ARC
5
118
100
AcDbEntity
8
0
100
AcDbCircle
10
-5.2237569727681032
20
59.44720334201287
30
0
40
0.39999999999999858
210
-0
220
0
230
1
100
AcDbArc
50
-79.59204860008721
51
6.0407619701197515
0
SPLINE
5
119
100
AcDbEntity
8
0
100
AcDbSpline
70
0
71
3
72
8
73
4
74
0
42
0.000000001
43
0.0000000001
44
0.0000000001
40
0
40
0
40
0
40
0
40
1
40
1
40
1
40
1
10
-1.4999633779295829
20
52.892941765698609
30
0
10
-1.2885018817527927
20
53.187207359985393
30
0
10
-1.2217691743004533
20
53.382557381714797
30
0
10
-1.2032098517125034
20
53.449345295433304
30
0
0
LINE
5
120
100
AcDbEntity
8
0
100
AcDbLine
10
-1.2032098517125034
20
53.449345295433304
30
0
11
-0.94621522168172323
21
54.848505283912004
31
0
0
SPLINE
5
121
100
AcDbEntity
8
0
100
AcDbSpline
70
0
71
3
72
8
73
4
74
0
42
0.000000001
43
0.0000000001
44
0.0000000001
40
0
40
0
40
0
40
0
40
1
40
1
40
1
40
1
10
-7.1060560053177557
20
58.501990070198531
30
0
10
-7.4513046212154022
20
58.250440538967787
30
0
10
-7.9019759858218075
20
57.812156558045444
30
0
10
-8.3251420812758035
20
57.06706374429983
30
0
0
ARC
5
122
100
AcDbEntity
8
0
100
AcDbCircle
10
-8.8817841970012523e-15
20
60.000000000000014
30
0
40
8.8266701396070033
210
0
220
0
230
1
100
AcDbArc
50
154.40729166760903
51
160.59270833239106
0
ARC
5
123
100
AcDbEntity
8
0
100
AcDbCircle
10
-1.3322676295501878e-14
20
60.000000000000014
30
0
40
8.8266701396069873
210
0
220
0
230
1
100
AcDbArc
50
199.40729166760866
51
205.59270833239094
0
SPLINE
5
124
100
AcDbEntity
8
0
100
AcDbSpline
70
0
71
3
72
8
73
4
74
0
42
0.000000001
43
0.0000000001
44
0.0000000001
40
0
40
0
40
0
40
0
40
1
40
1
40
1
40
1
10
-6.5506547045667407
20
58.796790148287528
30
0
10
-6.6174426182852253
20
58.778230825699595
30
0
10
-6.8127926400146288
20
58.711498118247235
30
0
10
-7.1060560053177557
20
58.501990070198531
30
0
0
ARC
5
125
100
AcDbEntity
8
0
100
AcDbCircle
10
1.7763568394002505e-14
20
60.000000000000014
30
0
40
4.8529249999999768
210
-0
220
0
230
1
100
AcDbArc
50
-6.0407619701227251
51
6.0407619701227127
0
LINE
5
126
100
AcDbEntity
8
0
100
AcDbLine
10
-2.9735816472794374
20
55.688267953294442
30
0
11
-3.781214517474325
21
54.517189791852957
31
0
0
ARC
5
127
100
AcDbEntity
8
0
100
AcDbCircle
10
0.55279665798713129
20
65.223756972768129
30
0
40
0.40000000000000396
210
0
220
0
230
1
100
AcDbArc
50
263.95923802987693
51
349.5920486000835
0
ARC
5
128
100
AcDbEntity
8
0
100
AcDbCircle
10
-4.084640244194806
20
56.697132286765154
30
0
40
0.40000000000001984
210
0
220
-0
230
1
100
AcDbArc
50
38.959238029883309
51
124.59204860008609
0
SPLINE
5
129
100
AcDbEntity
8
0
100
AcDbSpline
70
0
71
3
72
8
73
4
74
0
42
0.000000001
43
0.0000000001
44
0.0000000001
40
0
40
0
40
0
40
0
40
1
40
1
40
1
40
1
10
-3.9654874092041537
20
53.916006631501041
30
0
10
-4.0317426673630896
20
53.494006614666993
30
0
10
-4.0405018703672591
20
52.865420261671559
30
0
10
-3.8128653048181294
20
52.039336464794928
30
0
0
LINE
5
130
100
AcDbEntity
8
0
100
AcDbLine
10
1.2032098517124989
20
66.550654704566753
30
0
11
0.94621522168171435
21
65.151494716088024
31
0
0
SPLINE
5
131
100
AcDbEntity
8
0
100
AcDbSpline
70
0
71
3
72
8
73
4
74
0
42
0.000000001
43
0.0000000001
44
0.0000000001
40
0
40
0
40
0
40
0
40
1
40
1
40
1
40
1
10
-6.0860833478277021
20
56.035185204303289
30
0
10
-5.7284802927311684
20
56.0937365435869
30
0
10
-5.5431598176948782
20
56.184682718690212
30
0
10
-5.4828102081470709
20
56.218785482525689
30
0
0
ARC
5
132
100
AcDbEntity
8
0
100
AcDbCircle
10
0
20
60.000000000000014
30
0
40
8.8266701396069962
210
0
220
0
230
1
100
AcDbArc
50
244.40729166760863
51
250.59270833239123
0
ARC
5
133
100
AcDbEntity
8
0
100
AcDbCircle
10
-1.3322676295501878e-14
20
60.000000000000014
30
0
40
8.8266701396070069
210
-0
220
0
230
1
100
AcDbArc
50
334.40729166760889
51
340.59270833239111
0
SPLINE
5
134
100
AcDbEntity
8
0
100
AcDbSpline
70
0
71
3
72
8
73
4
74
0
42
0.000000001
43
0.0000000001
44
0.0000000001
40
0
40
0
40
0
40
0
40
1
40
1
40
1
40
1
10
6.0860833478276977
20
63.964814795696761
30
0
10
5.728480292731164
20
63.906263456413143
30
0
10
5.5431598176948738
20
63.815317281309838
30
0
10
5.4828102081470558
20
63.781214517474339
30
0
0
SPLINE
5
135
100
AcDbEntity
8
0
100
AcDbSpline
70
0
71
3
72
8
73
4
74
0
42
0.000000001
43
0.0000000001
44
0.0000000001
40
0
40
0
40
0
40
0
40
1
40
1
40
1
40
1
10
8.3251420812757857
20
57.06706374429983
30
0
10
7.9019759858217986
20
57.812156558045444
30
0
10
7.4513046212153817
20
58.250440538967808
30
0
10
7.1070582343013999
20
58.500036622070439
30
0
0
LINE
5
136
100
AcDbEntity
8
0
100
AcDbLine
10
6.5506547045667229
20
58.796790148287528
30
0
11
5.1514947160880098
21
59.053784778318317
31
0
0
SPLINE
5
137
100
AcDbEntity
8
0
100
AcDbSpline
70
0
71
3
72
8
73
4
74
0
42
0.000000001
43
0.0000000001
44
0.0000000001
40
0
40
0
40
0
40
0
40
1
40
1
40
1
40
1
10
3.9648147956967206
20
53.913916652172333
30
0
10
3.9062634564131149
20
54.271519707268858
30
0
10
3.8153172813098002
20
54.456840182305143
30
0
10
3.7812145174743184
20
54.517189791852957
30
0
0
SPLINE
5
138
100
AcDbEntity
8
0
100
AcDbSpline
70
0
71
3
72
8
73
4
74
0
42
0.000000001
43
0.0000000001
44
0.0000000001
40
0
40
0
40
0
40
0
40
1
40
1
40
1
40
1
10
1.4980099298014826
20
52.893943994682274
30
0
10
1.7495594610322307
20
52.548695378784629
30
0
10
2.1878434419545778
20
52.098024014178236
30
0
10
2.9329362557001781
20
51.674857918724229
30
0
0
ARC
5
139
100
AcDbEntity
8
0
100
AcDbCircle
10
-3.3028677132348738
20
64.084640244194816
30
0
40
0.40000000000000785
210
-0
220
0
230
1
100
AcDbArc
50
-51.040761970121864
51
34.592048600088027
0
ARC
5
140
100
AcDbEntity
8
0
100
AcDbCircle
10
0.55279665798713129
20
54.776243027231914
30
0
40
0.39999999999999936
210
0
220
-0
230
1
100
AcDbArc
50
10.407951399912735
51
96.040761970123583
0
ARC
5
141
100
AcDbEntity
8
0
100
AcDbCircle
10
3.3028677132348494
20
55.915359755805213
30
0
40
0.40000000000001623
210
0
220
0
230
1
100
AcDbArc
50
128.95923802987969
51
214.59204860008836
0
SPLINE
5
142
100
AcDbEntity
8
0
100
AcDbSpline
70
0
71
3
72
8
73
4
74
0
42
0.000000001
43
0.0000000001
44
0.0000000001
40
0
40
0
40
0
40
0
40
1
40
1
40
1
40
1
10
7.1070582343013999
20
58.500036622070439
30
0
10
6.8127926400146244
20
58.711498118247235
30
0
10
6.6174426182852102
20
58.778230825699595
30
0
10
6.5506547045667229
20
58.796790148287528
30
0
0
ARC
5
143
100
AcDbEntity
8
0
100
AcDbCircle
10
3.3028677132348605
20
64.084640244194816
30
0
40
0.40000000000000857
210
0
220
0
230
1
100
AcDbArc
50
145.40795139991269
51
231.04076197012284
0
SPLINE
5
144
100
AcDbEntity
8
0
100
AcDbSpline
70
0
71
3
72
8
73
4
74
0
42
0.000000001
43
0.0000000001
44
0.0000000001
40
0
40
0
40
0
40
0
40
1
40
1
40
1
40
1
10
7.1060560053177335
20
61.498009929801526
30
0
10
7.45130462121538
20
61.749559461032263
30
0
10
7.9019759858217942
20
62.187843441954612
30
0
10
8.3251420812757928
20
62.932936255700213
30
0
0
ARC
5
145
100
AcDbEntity
8
0
100
AcDbCircle
10
2.2204460492503131e-14
20
60
30
0
40
4.8529249999999537
210
-0
220
0
230
1
100
AcDbArc
50
308.95923802987699
51
321.04076197012296
0
SPLINE
5
146
100
AcDbEntity
8
0
100
AcDbSpline
70
0
71
3
72
8
73
4
74
0
42
0.000000001
43
0.0000000001
44
0.0000000001
40
0
40
0
40
0
40
0
40
1
40
1
40
1
40
1
10
6.5506547045667247
20
61.203209851712529
30
0
10
6.6174426182852208
20
61.221769174300476
30
0
10
6.8127926400146244
20
61.288501881752815
30
0
10
7.1060560053177335
20
61.498009929801526
30
0
0
ARC
5
147
100
AcDbEntity
8
0
100
AcDbCircle
10
-1.3322676295501878e-14
20
60.000000000000014
30
0
40
8.8266701396069891
210
-0
220
0
230
1
100
AcDbArc
50
289.40729166760912
51
295.592708332391
0
LINE
5
148
100
AcDbEntity
8
0
100
AcDbLine
10
5.4828102081470558
20
63.781214517474339
30
0
11
4.3117320467055791
21
62.97358164727946
31
0
0
LINE
5
149
100
AcDbEntity
8
0
100
AcDbLine
10
4.3117320467055764
20
57.026418352720597
30
0
11
5.4828102081470442
21
56.218785482525689
31
0
0
LINE
5
150
100
AcDbEntity
8
0
100
AcDbLine
10
3.7812145174743184
20
54.517189791852957
30
0
11
2.9735816472794263
21
55.688267953294428
31
0
0
ARC
5
151
100
AcDbEntity
8
0
100
AcDbCircle
10
-1.3322676295501878e-14
20
60.000000000000014
30
0
40
8.8266701396070051
210
0
220
-0
230
1
100
AcDbArc
50
19.407291667609055
51
25.592708332391368
0
SPLINE
5
152
100
AcDbEntity
8
0
100
AcDbSpline
70
0
71
3
72
8
73
4
74
0
42
0.000000001
43
0.0000000001
44
0.0000000001
40
0
40
0
40
0
40
0
40
1
40
1
40
1
40
1
10
7.9606635352050859
20
63.812865304818146
30
0
10
7.1345797383284415
20
64.040501870367279
30
0
10
6.5059933853330287
20
64.031742667363119
30
0
10
6.0860833478276977
20
63.964814795696761
30
0
0
SPLINE
5
153
100
AcDbEntity
8
0
100
AcDbSpline
70
0
71
3
72
8
73
4
74
0
42
0.000000001
43
0.0000000001
44
0.0000000001
40
0
40
0
40
0
40
0
40
1
40
1
40
1
40
1
10
-7.1070582343014177
20
61.499963377929596
30
0
10
-6.8127926400146466
20
61.288501881752815
30
0
10
-6.6174426182852342
20
61.221769174300462
30
0
10
-6.5506547045667274
20
61.203209851712529
30
0
0
ARC
5
154
100
AcDbEntity
8
0
100
AcDbCircle
10
4.0846402441947927
20
63.302867713234875
30
0
40
0.39999999999999669
210
0
220
0
230
1
100
AcDbArc
50
218.95923802987579
51
304.59204860008924
0
ARC
5
155
100
AcDbEntity
8
0
100
AcDbCircle
10
5.2237569727680855
20
60.552796657987159
30
0
40
0.39999999999999653
210
0
220
0
230
1
100
AcDbArc
50
100.40795139991093
51
186.04076197012196
0
SPLINE
5
156
100
AcDbEntity
8
0
100
AcDbSpline
70
0
71
3
72
8
73
4
74
0
42
0.000000001
43
0.0000000001
44
0.0000000001
40
0
40
0
40
0
40
0
40
1
40
1
40
1
40
1
10
2.932936255700187
20
68.325142081275828
30
0
10
2.1878434419545778
20
67.901975985821835
30
0
10
1.7495594610322307
20
67.451304621215428
30
0
10
1.4999633779295563
20
67.107058234301448
30
0
0
ARC
5
157
100
AcDbEntity
8
0
100
AcDbCircle
10
5.2237569727680855
20
59.447203342012891
30
0
40
0.39999999999999897
210
0
220
0
230
1
100
AcDbArc
50
173.95923802988108
51
259.59204860008737
0
ARC
5
158
100
AcDbEntity
8
0
100
AcDbCircle
10
-3.3028677132348649
20
55.915359755805234
30
0
40
0.40000000000000124
210
-0
220
0
230
1
100
AcDbArc
50
-34.59204860008888
51
51.040761970120911
0
LINE
5
159
100
AcDbEntity
8
0
100
AcDbLine
10
5.1514947160880205
20
60.94621522168174
30
0
11
6.5506547045667247
21
61.203209851712529
31
0
0
ARC
5
160
100
AcDbEntity
8
0
100
AcDbCircle
10
-3.1086244689504383e-14
20
60
30
0
40
4.8529249999999529
210
0
220
0
230
1
100
AcDbArc
50
218.9592380298769
51
231.04076197012273
0
ARC
5
161
100
AcDbEntity
8
0
100
AcDbCircle
10
1.7763568394002505e-14
20
60.000000000000057
30
0
40
4.8529249999999644
210
0
220
-0
230
1
100
AcDbArc
50
38.959238029877298
51
51.040761970122468
0
SPLINE
5
162
100
AcDbEntity
8
0
100
AcDbSpline
70
0
71
3
72
8
73
4
74
0
42
0.000000001
43
0.0000000001
44
0.0000000001
40
0
40
0
40
0
40
0
40
1
40
1
40
1
40
1
10
6.0839933684989784
20
56.034512590795877
30
0
10
6.5059933853330287
20
55.968257332636938
30
0
10
7.1345797383284459
20
55.959498129632777
30
0
10
7.9606635352050859
20
56.187134695181911
30
0
0
ARC
5
163
100
AcDbEntity
8
0
100
AcDbCircle
10
4.0846402441947838
20
56.697132286765154
30
0
40
0.40000000000001112
210
0
220
-0
230
1
100
AcDbArc
50
55.407951399912335
51
141.04076197011665
0
SPLINE
5
164
100
AcDbEntity
8
0
100
AcDbSpline
70
0
71
3
72
8
73
4
74
0
42
0.000000001
43
0.0000000001
44
0.0000000001
40
0
40
0
40
0
40
0
40
1
40
1
40
1
40
1
10
-7.9606635352050992
20
56.187134695181925
30
0
10
-7.1345797383284548
20
55.959498129632777
30
0
10
-6.5059933853330509
20
55.968257332636938
30
0
10
-6.0860833478277021
20
56.035185204303289
30
0
0
SPLINE
5
165
100
AcDbEntity
8
0
100
AcDbSpline
70
0
71
3
72
8
73
4
74
0
42
0.000000001
43
0.0000000001
44
0.0000000001
40
0
40
0
40
0
40
0
40
1
40
1
40
1
40
1
10
5.4828102081470442
20
56.218785482525689
30
0
10
5.5431598176948604
20
56.184682718690212
30
0
10
5.7284802927311551
20
56.0937365435869
30
0
10
6.0839933684989784
20
56.034512590795877
30
0
0
LINE
5
166
100
AcDbEntity
8
0
100
AcDbLine
10
-4.3117320467055897
20
62.97358164727946
30
0
11
-5.4828102081470664
21
63.781214517474339
31
0
0
SPLINE
5
167
100
AcDbEntity
8
0
100
AcDbSpline
70
0
71
3
72
8
73
4
74
0
42
0.000000001
43
0.0000000001
44
0.0000000001
40
0
40
0
40
0
40
0
40
1
40
1
40
1
40
1
10
-8.325142081275807
20
62.932936255700213
30
0
10
-7.9019759858218119
20
62.187843441954612
30
0
10
-7.4513046212153888
20
61.749559461032263
30
0
10
-7.1070582343014177
20
61.499963377929596
30
0
0
ARC
5
168
100
AcDbEntity
8
0
100
AcDbCircle
10
-5.2237569727680944
20
60.552796657987159
30
0
40
0.39999999999999925
210
-0
220
0
230
1
100
AcDbArc
50
-6.0407619701158044
51
79.59204860008883
0
SPLINE
5
169
100
AcDbEntity
8
0
100
AcDbSpline
70
0
71
3
72
8
73
4
74
0
42
0.000000001
43
0.0000000001
44
0.0000000001
40
0
40
0
40
0
40
0
40
1
40
1
40
1
40
1
10
-3.9648147956967428
20
66.086083347827724
30
0
10
-3.9062634564131216
20
65.728480292731192
30
0
10
-3.8153172813098157
20
65.5431598176949
30
0
10
-3.781214517474325
20
65.482810208147072
30
0
0
SPLINE
5
170
100
AcDbEntity
8
0
100
AcDbSpline
70
0
71
3
72
8
73
4
74
0
42
0.000000001
43
0.0000000001
44
0.0000000001
40
0
40
0
40
0
40
0
40
1
40
1
40
1
40
1
10
-1.4980099298014959
20
67.106056005317768
30
0
10
-1.7495594610322396
20
67.451304621215428
30
0
10
-2.1878434419545822
20
67.901975985821835
30
0
10
-2.9329362557002003
20
68.325142081275828
30
0
0
ARC
5
171
100
AcDbEntity
8
0
100
AcDbCircle
10
-0.55279665798714461
20
65.223756972768129
30
0
40
0.40000000000000058
210
0
220
0
230
1
100
AcDbArc
50
190.40795139991062
51
276.04076197012245
0
SPLINE
5
172
100
AcDbEntity
8
0
100
AcDbSpline
70
0
71
3
72
8
73
4
74
0
42
0.000000001
43
0.0000000001
44
0.0000000001
40
0
40
0
40
0
40
0
40
1
40
1
40
1
40
1
10
-3.8128653048181249
20
67.9606635352051
30
0
10
-4.0405018703672546
20
67.134579738328469
30
0
10
-4.0317426673630896
20
66.505993385333056
30
0
10
-3.9648147956967428
20
66.086083347827724
30
0
0
SPLINE
5
173
100
AcDbEntity
8
0
100
AcDbSpline
70
0
71
3
72
8
73
4
74
0
42
0.000000001
43
0.0000000001
44
0.0000000001
40
0
40
0
40
0
40
0
40
1
40
1
40
1
40
1
10
-3.781214517474325
20
54.517189791852957
30
0
10
-3.8153172813098157
20
54.456840182305143
30
0
10
-3.9062634564131393
20
54.271519707268858
30
0
10
-3.9654874092041537
20
53.916006631501041
30
0
0
LINE
5
174
100
AcDbEntity
8
0
100
AcDbLine
10
-3.781214517474325
20
65.482810208147072
30
0
11
-2.9735816472794463
21
64.3117320467056
31
0
0
ARC
5
175
100
AcDbEntity
8
0
100
AcDbCircle
10
-0.55279665798714017
20
54.776243027231942
30
0
40
0.39999999999998537
210
0
220
-0
230
1
100
AcDbArc
50
83.959238029877895
51
169.5920486000895
0
LINE
5
176
100
AcDbEntity
8
0
100
AcDbLine
10
2.9735816472794241
20
64.3117320467056
30
0
11
3.7812145174743206
21
65.482810208147072
31
0
0
ARC
5
177
100
AcDbEntity
8
0
100
AcDbCircle
10
0
20
60
30
0
40
4.8529249999999786
210
0
220
0
230
1
100
AcDbArc
50
263.95923802987733
51
276.04076197012245
0
LINE
5
178
100
AcDbEntity
8
0
100
AcDbLine
10
-6.5506547045667274
20
61.203209851712529
30
0
11
-5.1514947160880276
21
60.94621522168174
31
0
0
ARC
5
179
100
AcDbEntity
8
0
100
AcDbCircle
10
-4.4408920985006262e-15
20
60.000000000000057
30
0
40
4.8529249999999768
210
0
220
-0
230
1
100
AcDbArc
50
83.959238029877469
51
96.040761970122645
0
CIRCLE
5
180
100
AcDbEntity
8
0
100
AcDbCircle
10
-3.2862601528904634e-13
20
59.999999999998721
30
0
40
1.925
210
0
220
-0
230
1
0
ENDSEC
0
SECTION
2
OBJECTS
0
DICTIONARY
5
C
100
AcDbDictionary
3
ACAD_GROUP
350
D
3
ACAD_MLINESTYLE
350
17
0
DICTIONARY
5
D
100
AcDbDictionary
0
DICTIONARY
5
1A
330
C
100
AcDbDictionary
0
DICTIONARY
5
17
100
AcDbDictionary
0
ENDSEC
0
EOF
