0
SECTION
2
HEADER
9
$INSUNITS
70
4
9
$ACADVER
1
AC1014
9
$HANDSEED
5
FFFF
0
ENDSEC
0
SECTION
2
TABLES
0
TABLE
2
VPORT
5
8
100
AcDbSymbolTable
0
ENDTAB
0
TABLE
2
LTYPE
5
5
100
AcDbSymbolTable
0
LTYPE
5
14
100
AcDbSymbolTableRecord
100
AcDbLinetypeTableRecord
2
BYBLOCK
70
0
0
LTYPE
5
15
100
AcDbSymbolTableRecord
100
AcDbLinetypeTableRecord
2
BYLAYER
70
0
0
ENDTAB
0
TABLE
2
LAYER
5
2
100
AcDbSymbolTable
70
2
0
LAYER
5
50
100
AcDbSymbolTableRecord
100
AcDbLayerTableRecord
2
0
70
0
6
CONTINUOUS
0
ENDTAB
0
TABLE
2
STYLE
5
3
100
AcDbSymbolTable
70
1
0
STYLE
5
11
100
AcDbSymbolTableRecord
100
AcDbTextStyleTableRecord
2
STANDARD
70
0
0
ENDTAB
0
TABLE
2
VIEW
5
6
100
AcDbSymbolTable
70
0
0
ENDTAB
0
TABLE
2
UCS
5
7
100
AcDbSymbolTable
70
0
0
ENDTAB
0
TABLE
2
APPID
5
9
100
AcDbSymbolTable
70
2
0
APPID
5
12
100
AcDbSymbolTableRecord
100
AcDbRegAppTableRecord
2
ACAD
70
0
0
ENDTAB
0
TABLE
2
DIMSTYLE
5
A
100
AcDbSymbolTable
70
1
0
ENDTAB
0
TABLE
2
BLOCK_RECORD
5
1
100
AcDbSymbolTable
70
1
0
BLOCK_RECORD
5
1F
100
AcDbSymbolTableRecord
100
AcDbBlockTableRecord
2
*MODEL_SPACE
0
BLOCK_RECORD
5
1B
100
AcDbSymbolTableRecord
100
AcDbBlockTableRecord
2
*PAPER_SPACE
0
ENDTAB
0
ENDSEC
0
SECTION
2
BLOCKS
0
BLOCK
5
20
100
AcDbEntity
100
AcDbBlockBegin
2
*MODEL_SPACE
0
ENDBLK
5
21
100
AcDbEntity
100
AcDbBlockEnd
0
BLOCK
5
1C
100
AcDbEntity
100
AcDbBlockBegin
2
*PAPER_SPACE
0
ENDBLK
5
1D
100
AcDbEntity
100
AcDbBlockEnd
0
ENDSEC
0
SECTION
2
ENTITIES
0
ARC
5
100
100
AcDbEntity
8
0
100
AcDbCircle
10
-3.5527136788005009e-12
20
-7.9936057773011271e-13
30
0
40
54.706312648093089
210
0
220
-0
230
1
100
AcDbArc
50
71.274196984754198
51
72.725803015245518
0
SPLINE
5
101
100
AcDbEntity
8
0
100
AcDbSpline
70
0
71
3
72
8
73
4
74
0
42
0.000000001
43
0.0000000001
44
0.0000000001
40
0
40
0
40
0
40
0
40
1
40
1
40
1
40
1
10
-37.27888500275705
20
35.903569095364816
30
0
10
-37.995640161760349
20
36.283221675719005
30
0
10
-38.955963659467159
20
36.713867953548615
30
0
10
-40.187755813955661
20
37.117717146788713
30
0
0
SPLINE
5
102
100
AcDbEntity
8
0
100
AcDbSpline
70
0
71
3
72
8
73
4
74
0
42
0.000000001
43
0.0000000001
44
0.0000000001
40
0
40
0
40
0
40
0
40
1
40
1
40
1
40
1
10
43.929023680480967
20
27.36827395568821
30
0
10
43.664707763672567
20
27.292991276971215
30
0
10
43.429854156577065
20
27.217833649447314
30
0
10
43.223026604263154
20
27.145763586213512
30
0
0
ARC
5
103
100
AcDbEntity
8
0
100
AcDbCircle
10
-2.2895761260687131
20
-51.083885209252095
30
0
40
0.39999999999999858
210
0
220
-0
230
1
100
AcDbArc
50
11.356373024727546
51
87.43643468232905
0
ARC
5
104
100
AcDbEntity
8
0
100
AcDbCircle
10
36.430699496994023
20
-35.883277735855287
30
0
40
0.39999999999990737
210
0
220
-0
230
1
100
AcDbArc
50
59.356373024727283
51
135.43643468224926
0
ARC
5
105
100
AcDbEntity
8
0
100
AcDbCircle
10
7.5556441596490664
20
-44.868276558535044
30
0
40
1.9999999999999947
210
0
220
0
230
1
100
AcDbArc
50
155.54071976425865
51
279.55870793547155
0
ARC
5
106
100
AcDbEntity
8
0
100
AcDbCircle
10
-9.3436369752453174e-12
20
-2.6822988274943782e-12
30
0
40
50.73516878777771
210
0
220
0
230
1
100
AcDbArc
50
200.56629667499499
51
201.43370332500584
0
ARC
5
107
100
AcDbEntity
8
0
100
AcDbCircle
10
-3.694822225952521e-12
20
-5.4267701443677652e-12
30
0
40
50.735168787779102
210
0
220
0
230
1
100
AcDbArc
50
272.56629667499499
51
273.43370332500592
0
SPLINE
5
108
100
AcDbEntity
8
0
100
AcDbSpline
70
0
71
3
72
8
73
4
74
0
42
0.000000001
43
0.0000000001
44
0.0000000001
40
0
40
0
40
0
40
0
40
1
40
1
40
1
40
1
10
1.7371086631129096
20
51.727787448591407
30
0
10
1.5396426995275547
20
52.514477497437113
30
0
10
1.2170934081865248
20
53.516295540552612
30
0
10
0.69298201517506541
20
54.701923361774618
30
0
0
SPLINE
5
109
100
AcDbEntity
8
0
100
AcDbSpline
70
0
71
3
72
8
73
4
74
0
42
0.000000001
43
0.0000000001
44
0.0000000001
40
0
40
0
40
0
40
0
40
1
40
1
40
1
40
1
10
-49.732845424496759
20
14.332676889459615
30
0
10
-49.500037621675858
20
14.186625828050312
30
0
10
-49.287036883165065
20
14.062385854070207
30
0
10
-49.095083743109349
20
13.956907313914009
30
0
0
SPLINE
5
110
100
AcDbEntity
8
0
100
AcDbSpline
70
0
71
3
72
8
73
4
74
0
42
0.000000001
43
0.0000000001
44
0.0000000001
40
0
40
0
40
0
40
0
40
1
40
1
40
1
40
1
10
-45.120434172925066
20
-23.859357274639294
30
0
10
-45.286262454694857
20
-24.002440157528689
30
0
10
-45.468777672966461
20
-24.168250533681896
30
0
10
-45.66613234360446
20
-24.359513492903993
30
0
0
ARC
5
111
100
AcDbEntity
8
0
100
AcDbCircle
10
-3.0626864301835255
20
51.043368215071006
30
0
40
0.40000000000000535
210
0
220
0
230
1
100
AcDbArc
50
197.35637302472776
51
273.43643468225093
0
SPLINE
5
112
100
AcDbEntity
8
0
100
AcDbSpline
70
0
71
3
72
8
73
4
74
0
42
0.000000001
43
0.0000000001
44
0.0000000001
40
0
40
0
40
0
40
0
40
1
40
1
40
1
40
1
10
27.368273955685449
20
43.929023680483716
30
0
10
27.590608439260649
20
44.709050229481107
30
0
10
27.812181580544344
20
45.7379247504592
30
0
10
27.951101710394557
20
47.026764259576908
30
0
0
SPLINE
5
113
100
AcDbEntity
8
0
100
AcDbSpline
70
0
71
3
72
8
73
4
74
0
42
0.000000001
43
0.0000000001
44
0.0000000001
40
0
40
0
40
0
40
0
40
1
40
1
40
1
40
1
10
-39.603590148881658
20
33.321722466790916
30
0
10
-39.450313956546154
20
33.09360671885532
30
0
10
-39.306261049357545
20
32.893472649613607
30
0
10
-39.173805117519152
20
32.719038832561012
30
0
0
ARC
5
114
100
AcDbEntity
8
0
100
AcDbCircle
10
-3.1974423109204508e-12
20
3.028688411177427e-12
30
0
40
50.735168787779898
210
0
220
-0
230
1
100
AcDbArc
50
86.566296674994717
51
87.433703325005666
0
ARC
5
115
100
AcDbEntity
8
0
100
AcDbCircle
10
-3.4816594052244909e-12
20
-6.4837024638109142e-13
30
0
40
54.706312648093174
210
0
220
0
230
1
100
AcDbArc
50
155.27419698475435
51
156.72580301524599
0
SPLINE
5
116
100
AcDbEntity
8
0
100
AcDbSpline
70
0
71
3
72
8
73
4
74
0
42
0.000000001
43
0.0000000001
44
0.0000000001
40
0
40
0
40
0
40
0
40
1
40
1
40
1
40
1
10
22.626514349197056
20
-46.54913951127029
30
0
10
22.579272613472252
20
-46.278402361993003
30
0
10
22.529075593938348
20
-46.036979196222497
30
0
10
22.479019704256444
20
-45.823751293923394
30
0
0
ARC
5
117
100
AcDbEntity
8
0
100
AcDbCircle
10
-5.0270898555027088e-12
20
2.2915003228263231e-12
30
0
40
50.735168787780381
210
0
220
0
230
1
100
AcDbArc
50
122.56629667499499
51
123.43370332500604
0
SPLINE
5
118
100
AcDbEntity
8
0
100
AcDbSpline
70
0
71
3
72
8
73
4
74
0
42
0.000000001
43
0.0000000001
44
0.0000000001
40
0
40
0
40
0
40
0
40
1
40
1
40
1
40
1
10
-19.452658891960848
20
-47.962231003858093
30
0
10
-19.283072871681846
20
-47.745965039547791
30
0
10
-19.137248857407254
20
-47.547117754925694
30
0
10
-19.012283572981055
20
-47.367241663965899
30
0
0
SPLINE
5
119
100
AcDbEntity
8
0
100
AcDbSpline
70
0
71
3
72
8
73
4
74
0
42
0.000000001
43
0.0000000001
44
0.0000000001
40
0
40
0
40
0
40
0
40
1
40
1
40
1
40
1
10
-17.562889004999054
20
51.810477447607433
30
0
10
-17.694969414825863
20
50.520919054947306
30
0
10
-17.692153219587947
20
49.468460264352316
30
0
10
-17.63685391660335
20
48.659253228534602
30
0
0
SPLINE
5
120
100
AcDbEntity
8
0
100
AcDbSpline
70
0
71
3
72
8
73
4
74
0
42
0.000000001
43
0.0000000001
44
0.0000000001
40
0
40
0
40
0
40
0
40
1
40
1
40
1
40
1
10
-42.869705981139163
20
28.999480166464302
30
0
10
-42.693424863243962
20
28.788635785304422
30
0
10
-42.52924138624806
20
28.604655700452
30
0
10
-42.379277763024952
20
28.445022865106324
30
0
0
ARC
5
121
100
AcDbEntity
8
0
100
AcDbCircle
10
-2.8776980798284058e-12
20
-2.1493917756743031e-12
30
0
40
50.735168787782321
210
0
220
0
230
1
100
AcDbArc
50
284.56629667499419
51
285.43370332500513
0
SPLINE
5
122
100
AcDbEntity
8
0
100
AcDbSpline
70
0
71
3
72
8
73
4
74
0
42
0.000000001
43
0.0000000001
44
0.0000000001
40
0
40
0
40
0
40
0
40
1
40
1
40
1
40
1
10
1.7371086631128918
20
-51.727787448592998
30
0
10
1.8040699092832924
20
-51.461241810653895
30
0
10
1.8564082981071373
20
-51.220273806976891
30
0
10
1.8974075686512037
20
-51.005120860853495
30
0
0
ARC
5
123
100
AcDbEntity
8
0
100
AcDbCircle
10
-27.524773693700055
20
-43.095154252187996
30
0
40
0.40000000000000646
210
0
220
0
230
1
100
AcDbArc
50
-18.643626975272308
51
57.436434682307649
0
ARC
5
124
100
AcDbEntity
8
0
100
AcDbCircle
10
-3.4816594052244909e-12
20
-6.8389738316909643e-13
30
0
40
54.706312648093061
210
0
220
0
230
1
100
AcDbArc
50
329.27419698475398
51
330.72580301524602
0
ARC
5
125
100
AcDbEntity
8
0
100
AcDbCircle
10
-28.174048359901249
20
42.673510353884616
30
0
40
0.40000000000000668
210
0
220
0
230
1
100
AcDbArc
50
227.35637302472711
51
303.43643468224889
0
ARC
5
126
100
AcDbEntity
8
0
100
AcDbCircle
10
45.384730378248847
20
23.559111515554108
30
0
40
0.39999999999997871
210
0
220
0
230
1
100
AcDbArc
50
131.35637302472176
51
207.43643468231616
0
ARC
5
127
100
AcDbEntity
8
0
100
AcDbCircle
10
-3.4461322684364859e-12
20
-8.5265128291212022e-13
30
0
40
54.706312648093089
210
0
220
0
230
1
100
AcDbArc
50
239.27419698475401
51
240.72580301524593
0
ARC
5
128
100
AcDbEntity
8
0
100
AcDbCircle
10
-3.5527136788005009e-12
20
-7.815970093361102e-13
30
0
40
54.706312648093096
210
0
220
-0
230
1
100
AcDbArc
50
53.274196984754191
51
54.725803015245496
0
ARC
5
129
100
AcDbEntity
8
0
100
AcDbCircle
10
-6.5547567373869242e-12
20
-8.8817841970012523e-14
30
0
40
50.735168787780687
210
0
220
0
230
1
100
AcDbArc
50
164.56629667499442
51
165.43370332500498
0
SPLINE
5
130
100
AcDbEntity
8
0
100
AcDbSpline
70
0
71
3
72
8
73
4
74
0
42
0.000000001
43
0.0000000001
44
0.0000000001
40
0
40
0
40
0
40
0
40
1
40
1
40
1
40
1
10
-28.445022865110552
20
42.379277763020617
30
0
10
-28.604655700456352
20
42.529241386243712
30
0
10
-28.788635785308756
20
42.693424863239606
30
0
10
-28.999480166468565
20
42.869705981134807
30
0
0
ARC
5
131
100
AcDbEntity
8
0
100
AcDbCircle
10
49.291179838797831
20
13.608272374108807
30
0
40
0.40000000000002617
210
0
220
0
230
1
100
AcDbArc
50
119.35637302472847
51
195.43643468231068
0
SPLINE
5
132
100
AcDbEntity
8
0
100
AcDbSpline
70
0
71
3
72
8
73
4
74
0
42
0.000000001
43
0.0000000001
44
0.0000000001
40
0
40
0
40
0
40
0
40
1
40
1
40
1
40
1
10
16.244758882570043
20
52.238763886580216
30
0
10
15.379920181220648
20
51.273124148692219
30
0
10
14.763578775270254
20
50.42001178319321
30
0
10
14.332676889456852
20
49.732845424492425
30
0
0
ARC
5
133
100
AcDbEntity
8
0
100
AcDbCircle
10
35.883277735850925
20
36.430699496996809
30
0
40
0.39999999999997271
210
0
220
0
230
1
100
AcDbArc
50
149.35637302472338
51
225.43643468227444
0
SPLINE
5
134
100
AcDbEntity
8
0
100
AcDbSpline
70
0
71
3
72
8
73
4
74
0
42
0.000000001
43
0.0000000001
44
0.0000000001
40
0
40
0
40
0
40
0
40
1
40
1
40
1
40
1
10
19.012283572973949
20
-47.367241663965899
30
0
10
19.137248857400149
20
-47.547117754925694
30
0
10
19.283072871674847
20
-47.745965039547791
30
0
10
19.452658891953742
20
-47.962231003858093
30
0
0
SPLINE
5
135
100
AcDbEntity
8
0
100
AcDbSpline
70
0
71
3
72
8
73
4
74
0
42
0.000000001
43
0.0000000001
44
0.0000000001
40
0
40
0
40
0
40
0
40
1
40
1
40
1
40
1
10
22.882347250149149
20
-49.690832432898794
30
0
10
22.87890855259235
20
-48.394532213775399
30
0
10
22.76609588473324
20
-47.348133275116297
30
0
10
22.626514349197056
20
-46.54913951127029
30
0
0
ARC
5
136
100
AcDbEntity
8
0
100
AcDbCircle
10
-3.5527136788005009e-12
20
-7.9936057773011271e-13
30
0
40
54.706312648093117
210
0
220
-0
230
1
100
AcDbArc
50
41.274196984754177
51
42.725803015245774
0
SPLINE
5
137
100
AcDbEntity
8
0
100
AcDbSpline
70
0
71
3
72
8
73
4
74
0
42
0.000000001
43
0.0000000001
44
0.0000000001
40
0
40
0
40
0
40
0
40
1
40
1
40
1
40
1
10
-14.332676889463958
20
-49.732845424493995
30
0
10
-14.186625828054655
20
-49.500037621673094
30
0
10
-14.062385854074542
20
-49.287036883162294
30
0
10
-13.956907313918343
20
-49.095083743106585
30
0
0
SPLINE
5
138
100
AcDbEntity
8
0
100
AcDbSpline
70
0
71
3
72
8
73
4
74
0
42
0.000000001
43
0.0000000001
44
0.0000000001
40
0
40
0
40
0
40
0
40
1
40
1
40
1
40
1
10
39.603590148874659
20
33.321722466790916
30
0
10
40.056084267979756
20
33.994866665237922
30
0
10
40.584752559895264
20
34.904914616710414
30
0
10
41.11514676597308
20
36.087745149330921
30
0
0
SPLINE
5
139
100
AcDbEntity
8
0
100
AcDbSpline
70
0
71
3
72
8
73
4
74
0
42
0.000000001
43
0.0000000001
44
0.0000000001
40
0
40
0
40
0
40
0
40
1
40
1
40
1
40
1
10
-41.115146765980164
20
36.087745149330921
30
0
10
-40.584752559902348
20
34.904914616710414
30
0
10
-40.056084267986861
20
33.994866665237922
30
0
10
-39.603590148881658
20
33.321722466790916
30
0
0
ARC
5
140
100
AcDbEntity
8
0
100
AcDbCircle
10
-28.174048359901249
20
-42.673510353886186
30
0
40
0.39999999999999825
210
0
220
-0
230
1
100
AcDbArc
50
56.563565317750026
51
132.64362697527358
0
ARC
5
141
100
AcDbEntity
8
0
100
AcDbCircle
10
18.68605611538305
20
47.598705799229002
30
0
40
0.40000000000000374
210
0
220
0
230
1
100
AcDbArc
50
248.56356531774753
51
324.64362697528139
0
ARC
5
142
100
AcDbEntity
8
0
100
AcDbCircle
10
47.876143973059285
20
17.963304962605015
30
0
40
0.40000000000006153
210
0
220
0
230
1
100
AcDbArc
50
200.56356531774614
51
276.64362697527383
0
SPLINE
5
143
100
AcDbEntity
8
0
100
AcDbSpline
70
0
71
3
72
8
73
4
74
0
42
0.000000001
43
0.0000000001
44
0.0000000001
40
0
40
0
40
0
40
0
40
1
40
1
40
1
40
1
10
-22.47901970426355
20
-45.823751293923394
30
0
10
-22.529075593945453
20
-46.036979196222497
30
0
10
-22.579272613479358
20
-46.278402361993003
30
0
10
-22.626514349204161
20
-46.54913951127029
30
0
0
ARC
5
144
100
AcDbEntity
8
0
100
AcDbCircle
10
-45.384730378255966
20
-23.559111515555692
30
0
40
0.40000000000000213
210
0
220
0
230
1
100
AcDbArc
50
-48.643626975274458
51
27.436434682352989
0
ARC
5
145
100
AcDbEntity
8
0
100
AcDbCircle
10
-3.4816594052244909e-12
20
-9.2370555648813024e-13
30
0
40
54.706312648093103
210
0
220
-0
230
1
100
AcDbArc
50
29.274196984754333
51
30.725803015245958
0
ARC
5
146
100
AcDbEntity
8
0
100
AcDbCircle
10
-4.9737991503207013e-13
20
2.2648549702353193e-12
30
0
40
50.735168787779408
210
0
220
-0
230
1
100
AcDbArc
50
44.56629667499449
51
45.433703325005396
0
SPLINE
5
147
100
AcDbEntity
8
0
100
AcDbSpline
70
0
71
3
72
8
73
4
74
0
42
0.000000001
43
0.0000000001
44
0.0000000001
40
0
40
0
40
0
40
0
40
1
40
1
40
1
40
1
10
40.148741390131079
20
-31.51509280170259
30
0
10
40.346902546515281
20
-31.608387423793992
30
0
10
40.572613489669948
20
-31.707682216612994
30
0
10
40.827612273513324
20
-31.810181025540196
30
0
0
SPLINE
5
148
100
AcDbEntity
8
0
100
AcDbSpline
70
0
71
3
72
8
73
4
74
0
42
0.000000001
43
0.0000000001
44
0.0000000001
40
0
40
0
40
0
40
0
40
1
40
1
40
1
40
1
10
42.869705981132057
20
28.999480166464213
30
0
10
43.390084018728658
20
29.621638295652204
30
0
10
44.01098212429288
20
30.47144002509441
30
0
10
44.662110233294626
20
31.592349597008216
30
0
0
SPLINE
5
149
100
AcDbEntity
8
0
100
AcDbSpline
70
0
71
3
72
8
73
4
74
0
42
0.000000001
43
0.0000000001
44
0.0000000001
40
0
40
0
40
0
40
0
40
1
40
1
40
1
40
1
10
-17.565990978392065
20
-47.922421375166699
30
0
10
-17.593484271719753
20
-48.139713457932494
30
0
10
-17.618170714213264
20
-48.385061099652887
30
0
10
-17.63685391660335
20
-48.659253228536187
30
0
0
SPLINE
5
150
100
AcDbEntity
8
0
100
AcDbSpline
70
0
71
3
72
8
73
4
74
0
42
0.000000001
43
0.0000000001
44
0.0000000001
40
0
40
0
40
0
40
0
40
1
40
1
40
1
40
1
10
40.187755813948684
20
37.117717146788713
30
0
10
38.955963659460053
20
36.713867953548615
30
0
10
37.995640161753244
20
36.283221675719005
30
0
10
37.278885002749931
20
35.903569095364816
30
0
0
SPLINE
5
151
100
AcDbEntity
8
0
100
AcDbSpline
70
0
71
3
72
8
73
4
74
0
42
0.000000001
43
0.0000000001
44
0.0000000001
40
0
40
0
40
0
40
0
40
1
40
1
40
1
40
1
10
50.236245984822418
20
12.453960421739012
30
0
10
49.961602982675743
20
12.464040449758613
30
0
10
49.715018945110344
20
12.465135054135512
30
0
10
49.496043379407965
20
12.460505579437111
30
0
0
SPLINE
5
152
100
AcDbEntity
8
0
100
AcDbSpline
70
0
71
3
72
8
73
4
74
0
42
0.000000001
43
0.0000000001
44
0.0000000001
40
0
40
0
40
0
40
0
40
1
40
1
40
1
40
1
10
-3.6794335301374659
20
-51.625994515666392
30
0
10
-3.5849774987554106
20
-51.367908398781694
30
0
10
-3.5077378099807532
20
-51.133731294395389
30
0
10
-3.4444735309047658
20
-50.924042569367785
30
0
0
ARC
5
153
100
AcDbEntity
8
0
100
AcDbCircle
10
-31.878660351704955
20
39.981952192080513
30
0
40
0.40000000000005331
210
0
220
0
230
1
100
AcDbArc
50
-51.43643468231916
51
24.643626975272909
0
SPLINE
5
154
100
AcDbEntity
8
0
100
AcDbSpline
70
0
71
3
72
8
73
4
74
0
42
0.000000001
43
0.0000000001
44
0.0000000001
40
0
40
0
40
0
40
0
40
1
40
1
40
1
40
1
10
-50.285029810953858
20
-8.7486162576510136
30
0
10
-50.486956921334155
20
-8.8334524085784611
30
0
10
-50.711777433069358
20
-8.9347471431102417
30
0
10
-50.958576383395062
20
-9.0556630796579825
30
0
0
ARC
5
155
100
AcDbEntity
8
0
100
AcDbCircle
10
-49.491550109967655
20
12.860480341803013
30
0
40
0.39999999999998359
210
0
220
0
230
1
100
AcDbArc
50
269.3563730247144
51
345.43643468230147
0
SPLINE
5
156
100
AcDbEntity
8
0
100
AcDbSpline
70
0
71
3
72
8
73
4
74
0
42
0.000000001
43
0.0000000001
44
0.0000000001
40
0
40
0
40
0
40
0
40
1
40
1
40
1
40
1
10
-1.737108663120015
20
51.727787448591407
30
0
10
-1.8040699092903978
20
51.461241810652325
30
0
10
-1.8564082981142604
20
51.220273806975314
30
0
10
-1.8974075686583092
20
51.005120860851925
30
0
0
ARC
5
157
100
AcDbEntity
8
0
100
AcDbCircle
10
-7.6167536071520558
20
-50.564716467088793
30
0
40
0.39999999999999547
210
0
220
-0
230
1
100
AcDbArc
50
5.3563730247259826
51
81.436434682253463
0
SPLINE
5
158
100
AcDbEntity
8
0
100
AcDbSpline
70
0
71
3
72
8
73
4
74
0
42
0.000000001
43
0.0000000001
44
0.0000000001
40
0
40
0
40
0
40
0
40
1
40
1
40
1
40
1
10
-13.956907313918343
20
49.095083743105015
30
0
10
-14.062385854074542
20
49.28703688316071
30
0
10
-14.186625828054655
20
49.50003762167151
30
0
10
-14.332676889463958
20
49.732845424492425
30
0
0
ARC
5
159
100
AcDbEntity
8
0
100
AcDbCircle
10
42.673510353881866
20
-28.174048359898492
30
0
40
0.3999999999999958
210
0
220
0
230
1
100
AcDbArc
50
146.56356531774821
51
222.64362697527042
0
ARC
5
160
100
AcDbEntity
8
0
100
AcDbCircle
10
-42.67351035388895
20
28.174048359896915
30
0
40
0.40000000000006863
210
0
220
0
230
1
100
AcDbArc
50
-33.436434682285878
51
42.643626975272682
0
SPLINE
5
161
100
AcDbEntity
8
0
100
AcDbSpline
70
0
71
3
72
8
73
4
74
0
42
0.000000001
43
0.0000000001
44
0.0000000001
40
0
40
0
40
0
40
0
40
1
40
1
40
1
40
1
10
9.0556630796536197
20
-50.958576383392298
30
0
10
9.4123759963662224
20
-51.687019884823897
30
0
10
9.936166495045704
20
-52.599884031534295
30
0
10
10.695330681627944
20
-53.650634154327996
30
0
0
SPLINE
5
162
100
AcDbEntity
8
0
100
AcDbSpline
70
0
71
3
72
8
73
4
74
0
42
0.000000001
43
0.0000000001
44
0.0000000001
40
0
40
0
40
0
40
0
40
1
40
1
40
1
40
1
10
43.929023680480967
20
-27.368273955689794
30
0
10
44.709050229478379
20
-27.59060843926499
30
0
10
45.737924750456415
20
-27.812181580548692
30
0
10
47.026764259574122
20
-27.951101710398987
30
0
0
SPLINE
5
163
100
AcDbEntity
8
0
100
AcDbSpline
70
0
71
3
72
8
73
4
74
0
42
0.000000001
43
0.0000000001
44
0.0000000001
40
0
40
0
40
0
40
0
40
1
40
1
40
1
40
1
10
-28.999480166468565
20
42.869705981134807
30
0
10
-29.621638295656556
20
43.390084018731407
30
0
10
-30.471440025098762
20
44.010982124295609
30
0
10
-31.59234959701255
20
44.662110233297412
30
0
0
SPLINE
5
164
100
AcDbEntity
8
0
100
AcDbSpline
70
0
71
3
72
8
73
4
74
0
42
0.000000001
43
0.0000000001
44
0.0000000001
40
0
40
0
40
0
40
0
40
1
40
1
40
1
40
1
10
22.626514349197056
20
46.54913951126872
30
0
10
22.76609588473324
20
47.348133275114819
30
0
10
22.87890855259235
20
48.394532213773829
30
0
10
22.882347250149149
20
49.690832432897203
30
0
0
SPLINE
5
165
100
AcDbEntity
8
0
100
AcDbSpline
70
0
71
3
72
8
73
4
74
0
42
0.000000001
43
0.0000000001
44
0.0000000001
40
0
40
0
40
0
40
0
40
1
40
1
40
1
40
1
10
-37.117717146793048
20
40.187755813951412
30
0
10
-36.713867953552949
20
38.95596365946281
30
0
10
-36.283221675723354
20
37.995640161756015
30
0
10
-35.90356909536915
20
37.278885002752702
30
0
0
SPLINE
5
166
100
AcDbEntity
8
0
100
AcDbSpline
70
0
71
3
72
8
73
4
74
0
42
0.000000001
43
0.0000000001
44
0.0000000001
40
0
40
0
40
0
40
0
40
1
40
1
40
1
40
1
10
31.515092801698259
20
40.148741390133807
30
0
10
31.608387423789637
20
40.34690254651801
30
0
10
31.707682216608646
20
40.572613489672719
30
0
10
31.810181025535869
20
40.82761227351611
30
0
0
ARC
5
167
100
AcDbEntity
8
0
100
AcDbCircle
10
28.174048359894144
20
-42.673510353886186
30
0
40
0.39999999999995955
210
0
220
-0
230
1
100
AcDbArc
50
47.356373024738552
51
123.43643468224997
0
SPLINE
5
168
100
AcDbEntity
8
0
100
AcDbSpline
70
0
71
3
72
8
73
4
74
0
42
0.000000001
43
0.0000000001
44
0.0000000001
40
0
40
0
40
0
40
0
40
1
40
1
40
1
40
1
10
31.810181025535869
20
40.82761227351611
30
0
10
32.112832514021363
20
41.580125473563108
30
0
10
32.440738527026625
20
42.580203012302604
30
0
10
32.71361805115685
20
43.847461016045614
30
0
0
ARC
5
169
100
AcDbEntity
8
0
100
AcDbCircle
10
-3.6237679523765109e-12
20
-9.1482377229112899e-13
30
0
40
54.706312648093089
210
0
220
0
230
1
100
AcDbArc
50
335.27419698475398
51
336.72580301524596
0
ARC
5
170
100
AcDbEntity
8
0
100
AcDbCircle
10
-4.5136308763067667
20
-11.118774047195368
30
0
40
1.9999999999998979
210
0
220
-0
230
1
100
AcDbArc
50
67.905463805945018
51
127.45128339114956
0
ARC
5
171
100
AcDbEntity
8
0
100
AcDbCircle
10
-37.697713960361128
20
-24.283961293964815
30
0
40
47.714992266409055
210
0
220
0
230
1
100
AcDbArc
50
-24.459280235741247
51
19.451283391148948
0
ARC
5
172
100
AcDbEntity
8
0
100
AcDbCircle
10
-3.5527136788005009e-12
20
-7.9047879353311146e-13
30
0
40
54.706312648093089
210
0
220
0
230
1
100
AcDbArc
50
131.27419698475401
51
132.72580301524582
0
ARC
5
173
100
AcDbEntity
8
0
100
AcDbCircle
10
-12.860480341807357
20
49.49155010996332
30
0
40
0.40000000000001379
210
0
220
0
230
1
100
AcDbArc
50
-75.436434682251502
51
0.6436269752851167
0
ARC
5
174
100
AcDbEntity
8
0
100
AcDbCircle
10
-2.6290081223123707e-12
20
-2.2648549702353193e-12
30
0
40
50.735168787782001
210
0
220
0
230
1
100
AcDbArc
50
290.56629667499402
51
291.43370332500501
0
ARC
5
175
100
AcDbEntity
8
0
100
AcDbCircle
10
-3.8902214782865485e-12
20
3.0642155479654321e-12
30
0
40
50.735168787779862
210
0
220
0
230
1
100
AcDbArc
50
92.566296674994348
51
93.433703325005339
0
ARC
5
176
100
AcDbEntity
8
0
100
AcDbCircle
10
-3.6770586575585185e-12
20
-7.1054273576010019e-13
30
0
40
54.706312648093125
210
0
220
-0
230
1
100
AcDbArc
50
59.274196984754042
51
60.725803015245674
0
ARC
5
177
100
AcDbEntity
8
0
100
AcDbCircle
10
-3.5527136788005009e-12
20
-7.9936057773011271e-13
30
0
40
54.70631264809316
210
0
220
-0
230
1
100
AcDbArc
50
17.274196984754177
51
18.725803015245472
0
SPLINE
5
178
100
AcDbEntity
8
0
100
AcDbSpline
70
0
71
3
72
8
73
4
74
0
42
0.000000001
43
0.0000000001
44
0.0000000001
40
0
40
0
40
0
40
0
40
1
40
1
40
1
40
1
10
-7.1346187303439379
20
51.26283991749581
30
0
10
-7.173351549877065
20
50.990755088289816
30
0
10
-7.2002152084096416
20
50.745636281196212
30
0
10
-7.2185002738340565
20
50.527376374678425
30
0
0
SPLINE
5
179
100
AcDbEntity
8
0
100
AcDbSpline
70
0
71
3
72
8
73
4
74
0
42
0.000000001
43
0.0000000001
44
0.0000000001
40
0
40
0
40
0
40
0
40
1
40
1
40
1
40
1
10
27.951101710394557
20
-47.026764259578499
30
0
10
27.812181580544344
20
-45.737924750460792
30
0
10
27.590608439260649
20
-44.709050229482692
30
0
10
27.368273955685449
20
-43.929023680485301
30
0
0
ARC
5
180
100
AcDbEntity
8
0
100
AcDbCircle
10
32.480304434607241
20
39.494750420074318
30
0
40
0.39999999999999702
210
0
220
0
230
1
100
AcDbArc
50
230.56356531775219
51
306.64362697525905
0
SPLINE
5
181
100
AcDbEntity
8
0
100
AcDbSpline
70
0
71
3
72
8
73
4
74
0
42
0.000000001
43
0.0000000001
44
0.0000000001
40
0
40
0
40
0
40
0
40
1
40
1
40
1
40
1
10
-49.496043379415049
20
12.460505579437111
30
0
10
-49.715018945117457
20
12.465135054135512
30
0
10
-49.961602982682862
20
12.464040449758613
30
0
10
-50.236245984829552
20
12.453960421739012
30
0
0
SPLINE
5
182
100
AcDbEntity
8
0
100
AcDbSpline
70
0
71
3
72
8
73
4
74
0
42
0.000000001
43
0.0000000001
44
0.0000000001
40
0
40
0
40
0
40
0
40
1
40
1
40
1
40
1
10
41.11514676597308
20
-36.087745149332491
30
0
10
40.584752559895264
20
-34.904914616711984
30
0
10
40.056084267979756
20
-33.994866665239492
30
0
10
39.603590148874659
20
-33.321722466792487
30
0
0
ARC
5
183
100
AcDbEntity
8
0
100
AcDbCircle
10
-7.7271522513910895e-12
20
-3.0508928716699302e-12
30
0
40
47.499999999999993
210
0
220
0
230
1
100
AcDbArc
50
207.55870793547115
51
267.1740849975958
0
ARC
5
184
100
AcDbEntity
8
0
100
AcDbCircle
10
22.869319855170644
20
45.736196784064603
30
0
40
0.39999999999997871
210
0
220
0
230
1
100
AcDbArc
50
167.35637302473367
51
243.43643468226864
0
ARC
5
185
100
AcDbEntity
8
0
100
AcDbCircle
10
36.430699496994023
20
35.88327773585371
30
0
40
0.39999999999999286
210
0
220
0
230
1
100
AcDbArc
50
224.56356531774429
51
300.64362697527474
0
ARC
5
186
100
AcDbEntity
8
0
100
AcDbCircle
10
-2.8244073746463982e-12
20
-5.2136073236397351e-12
30
0
40
47.5
210
0
220
0
230
1
100
AcDbArc
50
279.5587079354712
51
339.17408499759586
0
SPLINE
5
187
100
AcDbEntity
8
0
100
AcDbSpline
70
0
71
3
72
8
73
4
74
0
42
0.000000001
43
0.0000000001
44
0.0000000001
40
0
40
0
40
0
40
0
40
1
40
1
40
1
40
1
10
48.659253228531853
20
-17.636853916600593
30
0
10
49.468460264349531
20
-17.69215321958519
30
0
10
50.520919054944557
20
-17.694969414823092
30
0
10
51.810477447604683
20
-17.562889004996293
30
0
0
ARC
5
188
100
AcDbEntity
8
0
100
AcDbCircle
10
-7.7271522513910895e-12
20
-3.0508928716699302e-12
30
0
40
9.9999999999999964
210
0
220
0
230
1
100
AcDbArc
50
247.90546380594728
51
270
0
SPLINE
5
189
100
AcDbEntity
8
0
100
AcDbSpline
70
0
71
3
72
8
73
4
74
0
42
0.000000001
43
0.0000000001
44
0.0000000001
40
0
40
0
40
0
40
0
40
1
40
1
40
1
40
1
10
-27.951101710401662
20
47.026764259576908
30
0
10
-27.812181580551449
20
45.7379247504592
30
0
10
-27.590608439267648
20
44.709050229481107
30
0
10
-27.368273955692555
20
43.929023680483716
30
0
0
SPLINE
5
190
100
AcDbEntity
8
0
100
AcDbSpline
70
0
71
3
72
8
73
4
74
0
42
0.000000001
43
0.0000000001
44
0.0000000001
40
0
40
0
40
0
40
0
40
1
40
1
40
1
40
1
10
27.368273955685449
20
-43.929023680485301
30
0
10
27.29299127696855
20
-43.664707763676887
30
0
10
27.217833649444643
20
-43.429854156581399
30
0
10
27.145763586210752
20
-43.223026604267496
30
0
0
SPLINE
5
191
100
AcDbEntity
8
0
100
AcDbSpline
70
0
71
3
72
8
73
4
74
0
42
0.000000001
43
0.0000000001
44
0.0000000001
40
0
40
0
40
0
40
0
40
1
40
1
40
1
40
1
10
17.636853916596245
20
-48.659253228536187
30
0
10
17.618170714206158
20
-48.385061099652887
30
0
10
17.593484271712647
20
-48.139713457932494
30
0
10
17.56599097838496
20
-47.922421375166699
30
0
0
SPLINE
5
192
100
AcDbEntity
8
0
100
AcDbSpline
70
0
71
3
72
8
73
4
74
0
42
0.000000001
43
0.0000000001
44
0.0000000001
40
0
40
0
40
0
40
0
40
1
40
1
40
1
40
1
10
3.6794335301303427
20
-51.625994515666392
30
0
10
3.9580492563797698
20
-52.387734180390495
30
0
10
4.3835500894746104
20
-53.350348577691889
30
0
10
5.0287221995962028
20
-54.474696847162498
30
0
0
SPLINE
5
193
100
AcDbEntity
8
0
100
AcDbSpline
70
0
71
3
72
8
73
4
74
0
42
0.000000001
43
0.0000000001
44
0.0000000001
40
0
40
0
40
0
40
0
40
1
40
1
40
1
40
1
10
-12.051008072632357
20
53.362476029362327
30
0
10
-12.317160489232961
20
52.093788134772808
30
0
10
-12.424371621440748
20
51.046800450992826
30
0
10
-12.453960421743258
20
50.236245984825203
30
0
0
SPLINE
5
194
100
AcDbEntity
8
0
100
AcDbSpline
70
0
71
3
72
8
73
4
74
0
42
0.000000001
43
0.0000000001
44
0.0000000001
40
0
40
0
40
0
40
0
40
1
40
1
40
1
40
1
10
-45.823751293926165
20
22.479019704259215
30
0
10
-46.036979196225261
20
22.529075593941101
30
0
10
-46.278402361995759
20
22.579272613475005
30
0
10
-46.549139511273054
20
22.626514349199809
30
0
0
ARC
5
195
100
AcDbEntity
8
0
100
AcDbCircle
10
49.491550109960571
20
-12.860480341804594
30
0
40
0.40000000000000419
210
0
220
-0
230
1
100
AcDbArc
50
89.356373024734765
51
165.43643468225591
0
ARC
5
196
100
AcDbEntity
8
0
100
AcDbCircle
10
-3.5527136788005009e-12
20
-7.9047879353311146e-13
30
0
40
54.706312648093117
210
0
220
0
230
1
100
AcDbArc
50
341.27419698475427
51
342.72580301524602
0
ARC
5
197
100
AcDbEntity
8
0
100
AcDbCircle
10
19.027585181222246
20
-34.476068688674921
30
0
40
32.797077767002165
210
0
220
-0
230
1
100
AcDbArc
50
41.31166776869788
51
106.86866693142278
0
SPLINE
5
198
100
AcDbEntity
8
0
100
AcDbSpline
70
0
71
3
72
8
73
4
74
0
42
0.000000001
43
0.0000000001
44
0.0000000001
40
0
40
0
40
0
40
0
40
1
40
1
40
1
40
1
10
13.956907313911238
20
-49.095083743106585
30
0
10
14.062385854067454
20
-49.287036883162294
30
0
10
14.18662582804755
20
-49.500037621673094
30
0
10
14.332676889456852
20
-49.732845424493995
30
0
0
ARC
5
199
100
AcDbEntity
8
0
100
AcDbCircle
10
31.878660351697832
20
39.981952192080513
30
0
40
0.39999999999997338
210
0
220
0
230
1
100
AcDbArc
50
155.35637302472711
51
231.4364346822509
0
SPLINE
5
200
100
AcDbEntity
8
0
100
AcDbSpline
70
0
71
3
72
8
73
4
74
0
42
0.000000001
43
0.0000000001
44
0.0000000001
40
0
40
0
40
0
40
0
40
1
40
1
40
1
40
1
10
-3.4444735309047658
20
50.924042569366215
30
0
10
-3.5077378099807532
20
51.133731294393812
30
0
10
-3.5849774987554106
20
51.367908398780102
30
0
10
-3.6794335301374659
20
51.625994515664821
30
0
0
ARC
5
201
100
AcDbEntity
8
0
100
AcDbCircle
10
9.1797938636809739
20
-7.7286081942579719
30
0
40
1.9999999999999007
210
0
220
0
230
1
100
AcDbArc
50
139.90546380594492
51
199.45128339114953
0
ARC
5
202
100
AcDbEntity
8
0
100
AcDbCircle
10
-3.5527136788005009e-12
20
-7.9047879353311146e-13
30
0
40
54.706312648093103
210
0
220
-0
230
1
100
AcDbArc
50
47.27419698475412
51
48.725803015245788
0
ARC
5
203
100
AcDbEntity
8
0
100
AcDbCircle
10
-26.908842599690885
20
-28.750000000005205
30
0
40
32.797077767002143
210
0
220
0
230
1
100
AcDbArc
50
-30.688332231302144
51
34.868666931422794
0
SPLINE
5
204
100
AcDbEntity
8
0
100
AcDbSpline
70
0
71
3
72
8
73
4
74
0
42
0.000000001
43
0.0000000001
44
0.0000000001
40
0
40
0
40
0
40
0
40
1
40
1
40
1
40
1
10
22.479019704256444
20
45.823751293921816
30
0
10
22.529075593938348
20
46.036979196220926
30
0
10
22.579272613472252
20
46.278402361991411
30
0
10
22.626514349197056
20
46.54913951126872
30
0
0
ARC
5
205
100
AcDbEntity
8
0
100
AcDbCircle
10
-34.744653892923694
20
28.348499780849551
30
0
40
47.714992266409048
210
0
220
0
230
1
100
AcDbArc
50
263.54071976425871
51
307.45128339114893
0
ARC
5
206
100
AcDbEntity
8
0
100
AcDbCircle
10
45.384730378248847
20
-23.559111515555692
30
0
40
0.40000000000001179
210
0
220
0
230
1
100
AcDbArc
50
152.56356531777396
51
228.64362697526295
0
ARC
5
207
100
AcDbEntity
8
0
100
AcDbCircle
10
-1.2434497875801753e-12
20
-5.3557158707917552e-12
30
0
40
50.735168787778697
210
0
220
0
230
1
100
AcDbArc
50
302.56629667499499
51
303.43370332500615
0
ARC
5
208
100
AcDbEntity
8
0
100
AcDbCircle
10
-32.485555785499294
20
31.858102035554865
30
0
40
1.9999999999999953
210
0
220
-0
230
1
100
AcDbArc
50
11.54071976425862
51
135.55870793547112
0
ARC
5
209
100
AcDbEntity
8
0
100
AcDbCircle
10
3.0626864301764023
20
-51.04336821507259
30
0
40
0.40000000000000269
210
0
220
-0
230
1
100
AcDbArc
50
17.356373024726782
51
93.436434682250862
0
SPLINE
5
210
100
AcDbEntity
8
0
100
AcDbSpline
70
0
71
3
72
8
73
4
74
0
42
0.000000001
43
0.0000000001
44
0.0000000001
40
0
40
0
40
0
40
0
40
1
40
1
40
1
40
1
10
-3.6794335301374659
20
51.625994515664821
30
0
10
-3.9580492563869107
20
52.387734180388925
30
0
10
-4.3835500894817336
20
53.350348577690312
30
0
10
-5.028722199603326
20
54.474696847160914
30
0
0
ARC
5
211
100
AcDbEntity
8
0
100
AcDbCircle
10
27.52477369369295
20
-43.095154252187996
30
0
40
0.39999999999997626
210
0
220
0
230
1
100
AcDbArc
50
122.56356531777335
51
198.64362697527517
0
SPLINE
5
212
100
AcDbEntity
8
0
100
AcDbSpline
70
0
71
3
72
8
73
4
74
0
42
0.000000001
43
0.0000000001
44
0.0000000001
40
0
40
0
40
0
40
0
40
1
40
1
40
1
40
1
10
24.359513492899652
20
45.666132343600111
30
0
10
24.168250533677558
20
45.468777672962105
30
0
10
24.002440157524347
20
45.286262454690501
30
0
10
23.859357274634956
20
45.12043417292071
30
0
0
ARC
5
213
100
AcDbEntity
8
0
100
AcDbCircle
10
-3.6770586575585185e-12
20
-8.7041485130612273e-13
30
0
40
54.706312648093103
210
0
220
0
230
1
100
AcDbArc
50
299.27419698475398
51
300.72580301524602
0
SPLINE
5
214
100
AcDbEntity
8
0
100
AcDbSpline
70
0
71
3
72
8
73
4
74
0
42
0.000000001
43
0.0000000001
44
0.0000000001
40
0
40
0
40
0
40
0
40
1
40
1
40
1
40
1
10
-0.69298201518215308
20
54.701923361774618
30
0
10
-1.2170934081936302
20
53.516295540552612
30
0
10
-1.5396426995346602
20
52.514477497437113
30
0
10
-1.737108663120015
20
51.727787448591407
30
0
0
SPLINE
5
215
100
AcDbEntity
8
0
100
AcDbSpline
70
0
71
3
72
8
73
4
74
0
42
0.000000001
43
0.0000000001
44
0.0000000001
40
0
40
0
40
0
40
0
40
1
40
1
40
1
40
1
10
47.922421375162386
20
-17.565990978389294
30
0
10
48.139713457928138
20
-17.593484271716989
30
0
10
48.385061099648524
20
-17.618170714210493
30
0
10
48.659253228531853
20
-17.636853916600593
30
0
0
ARC
5
216
100
AcDbEntity
8
0
100
AcDbCircle
10
-3.4283687000424834e-12
20
-8.5265128291212022e-13
30
0
40
54.706312648093167
210
0
220
-0
230
1
100
AcDbArc
50
65.274196984754298
51
66.725803015245987
0
ARC
5
217
100
AcDbEntity
8
0
100
AcDbCircle
10
-35.658164505757526
20
16.707591512111183
30
0
40
32.79707776700215
210
0
220
0
230
1
100
AcDbArc
50
257.31166776869782
51
322.86866693142275
0
ARC
5
218
100
AcDbEntity
8
0
100
AcDbCircle
10
-6.5547567373869242e-12
20
-1.5720758028692217e-12
30
0
40
50.735168787780637
210
0
220
0
230
1
100
AcDbArc
50
188.56629667499413
51
189.43370332500513
0
ARC
5
219
100
AcDbEntity
8
0
100
AcDbCircle
10
-36.430699497001143
20
35.88327773585371
30
0
40
0.39999999999990599
210
0
220
0
230
1
100
AcDbArc
50
239.35637302472898
51
315.43643468232563
0
SPLINE
5
220
100
AcDbEntity
8
0
100
AcDbSpline
70
0
71
3
72
8
73
4
74
0
42
0.000000001
43
0.0000000001
44
0.0000000001
40
0
40
0
40
0
40
0
40
1
40
1
40
1
40
1
10
47.719746274752723
20
-26.750821651378093
30
0
10
46.955018158646581
20
-25.704113960006289
30
0
10
46.248692929009451
20
-24.923869058174589
30
0
10
45.66613234359734
20
-24.359513492904092
30
0
0
SPLINE
5
221
100
AcDbEntity
8
0
100
AcDbSpline
70
0
71
3
72
8
73
4
74
0
42
0.000000001
43
0.0000000001
44
0.0000000001
40
0
40
0
40
0
40
0
40
1
40
1
40
1
40
1
10
28.445022865103446
20
-42.379277763022188
30
0
10
28.604655700449158
20
-42.529241386245289
30
0
10
28.788635785301544
20
-42.693424863241198
30
0
10
28.99948016646146
20
-42.869705981136399
30
0
0
SPLINE
5
222
100
AcDbEntity
8
0
100
AcDbSpline
70
0
71
3
72
8
73
4
74
0
42
0.000000001
43
0.0000000001
44
0.0000000001
40
0
40
0
40
0
40
0
40
1
40
1
40
1
40
1
10
45.66613234359734
20
-24.359513492904092
30
0
10
45.468777672959376
20
-24.168250533681896
30
0
10
45.286262454687773
20
-24.002440157528792
30
0
10
45.12043417291784
20
-23.859357274639294
30
0
0
SPLINE
5
223
100
AcDbEntity
8
0
100
AcDbSpline
70
0
71
3
72
8
73
4
74
0
42
0.000000001
43
0.0000000001
44
0.0000000001
40
0
40
0
40
0
40
0
40
1
40
1
40
1
40
1
10
-32.713618051163955
20
43.847461016045614
30
0
10
-32.440738527033744
20
42.580203012302604
30
0
10
-32.112832514028455
20
41.580125473563108
30
0
10
-31.810181025542956
20
40.82761227351611
30
0
0
ARC
5
224
100
AcDbEntity
8
0
100
AcDbCircle
10
27.52477369369295
20
43.095154252186418
30
0
40
0.40000000000000929
210
0
220
0
230
1
100
AcDbArc
50
161.35637302472676
51
237.43643468225321
0
SPLINE
5
225
100
AcDbEntity
8
0
100
AcDbSpline
70
0
71
3
72
8
73
4
74
0
42
0.000000001
43
0.0000000001
44
0.0000000001
40
0
40
0
40
0
40
0
40
1
40
1
40
1
40
1
10
47.962231003853745
20
19.452658891956514
30
0
10
48.60059148139888
20
19.953028695637514
30
0
10
49.384605188084819
20
20.655168243437512
30
0
10
50.254554790025722
20
21.616206105763016
30
0
0
ARC
5
226
100
AcDbEntity
8
0
100
AcDbCircle
10
-6.3948846218409017e-12
20
2.2204460492503131e-13
30
0
40
50.735168787780793
210
0
220
0
230
1
100
AcDbArc
50
146.56629667499399
51
147.43370332500402
0
ARC
5
227
100
AcDbEntity
8
0
100
AcDbCircle
10
-4.3165471197426086e-12
20
3.0375701953744283e-12
30
0
40
50.735168787779791
210
0
220
0
230
1
100
AcDbArc
50
98.566296674994334
51
99.433703325004785
0
SPLINE
5
228
100
AcDbEntity
8
0
100
AcDbSpline
70
0
71
3
72
8
73
4
74
0
42
0.000000001
43
0.0000000001
44
0.0000000001
40
0
40
0
40
0
40
0
40
1
40
1
40
1
40
1
10
-52.238763886584564
20
16.244758882572814
30
0
10
-51.27312414869656
20
15.37992018122341
30
0
10
-50.420011783197552
20
14.763578775273007
30
0
10
-49.732845424496759
20
14.332676889459615
30
0
0
SPLINE
5
229
100
AcDbEntity
8
0
100
AcDbSpline
70
0
71
3
72
8
73
4
74
0
42
0.000000001
43
0.0000000001
44
0.0000000001
40
0
40
0
40
0
40
0
40
1
40
1
40
1
40
1
10
23.859357274634956
20
-45.120434172922295
30
0
10
24.002440157524347
20
-45.286262454692086
30
0
10
24.168250533677558
20
-45.468777672963689
30
0
10
24.359513492899652
20
-45.666132343601689
30
0
0
SPLINE
5
230
100
AcDbEntity
8
0
100
AcDbSpline
70
0
71
3
72
8
73
4
74
0
42
0.000000001
43
0.0000000001
44
0.0000000001
40
0
40
0
40
0
40
0
40
1
40
1
40
1
40
1
10
19.452658891953742
20
-47.962231003858093
30
0
10
19.953028695634742
20
-48.600591481403193
30
0
10
20.655168243434758
20
-49.384605188089196
30
0
10
21.616206105760245
20
-50.254554790030085
30
0
0
SPLINE
5
231
100
AcDbEntity
8
0
100
AcDbSpline
70
0
71
3
72
8
73
4
74
0
42
0.000000001
43
0.0000000001
44
0.0000000001
40
0
40
0
40
0
40
0
40
1
40
1
40
1
40
1
10
12.453960421736152
20
-50.236245984826795
30
0
10
12.464040449755842
20
-49.961602982680098
30
0
10
12.465135054132759
20
-49.715018945114693
30
0
10
12.460505579434251
20
-49.496043379412285
30
0
0
SPLINE
5
232
100
AcDbEntity
8
0
100
AcDbSpline
70
0
71
3
72
8
73
4
74
0
42
0.000000001
43
0.0000000001
44
0.0000000001
40
0
40
0
40
0
40
0
40
1
40
1
40
1
40
1
10
17.562889004991948
20
-51.810477447609003
30
0
10
17.694969414818651
20
-50.520919054948898
30
0
10
17.692153219580842
20
-49.468460264353894
30
0
10
17.636853916596245
20
-48.659253228536187
30
0
0
SPLINE
5
233
100
AcDbEntity
8
0
100
AcDbSpline
70
0
71
3
72
8
73
4
74
0
42
0.000000001
43
0.0000000001
44
0.0000000001
40
0
40
0
40
0
40
0
40
1
40
1
40
1
40
1
10
-7.2185002738340565
20
-50.527376374679996
30
0
10
-7.2002152084096416
20
-50.745636281197797
30
0
10
-7.173351549877065
20
-50.990755088291394
30
0
10
-7.1346187303439379
20
-51.262839917497402
30
0
0
ARC
5
234
100
AcDbEntity
8
0
100
AcDbCircle
10
-5.0093262871087063e-12
20
2.4691360067663481e-12
30
0
40
50.735168787780218
210
0
220
0
230
1
100
AcDbArc
50
116.56629667499472
51
117.43370332500574
0
ARC
5
235
100
AcDbEntity
8
0
100
AcDbCircle
10
-23.55911151555846
20
45.384730378251618
30
0
40
0.40000000000000047
210
0
220
0
230
1
100
AcDbArc
50
221.35637302472952
51
297.4364346822511
0
SPLINE
5
236
100
AcDbEntity
8
0
100
AcDbSpline
70
0
71
3
72
8
73
4
74
0
42
0.000000001
43
0.0000000001
44
0.0000000001
40
0
40
0
40
0
40
0
40
1
40
1
40
1
40
1
10
-40.827612273520444
20
31.810181025538604
30
0
10
-41.580125473567463
20
32.112832514024099
30
0
10
-42.580203012306953
20
32.44073852702941
30
0
10
-43.847461016049962
20
32.7136180511596
30
0
0
SPLINE
5
237
100
AcDbEntity
8
0
100
AcDbSpline
70
0
71
3
72
8
73
4
74
0
42
0.000000001
43
0.0000000001
44
0.0000000001
40
0
40
0
40
0
40
0
40
1
40
1
40
1
40
1
10
-47.719746274759842
20
26.750821651376508
30
0
10
-46.955018158653665
20
25.704113960004705
30
0
10
-46.24869292901657
20
24.923869058173011
30
0
10
-45.66613234360446
20
24.359513492902416
30
0
0
SPLINE
5
238
100
AcDbEntity
8
0
100
AcDbSpline
70
0
71
3
72
8
73
4
74
0
42
0.000000001
43
0.0000000001
44
0.0000000001
40
0
40
0
40
0
40
0
40
1
40
1
40
1
40
1
10
36.08774514932815
20
41.115146765975808
30
0
10
34.904914616707643
20
40.584752559898014
30
0
10
33.994866665235151
20
40.056084267982506
30
0
10
33.32172246678816
20
39.603590148877416
30
0
0
ARC
5
239
100
AcDbEntity
8
0
100
AcDbCircle
10
-18.686056115390155
20
-47.598705799230586
30
0
40
0.3999999999999837
210
0
220
-0
230
1
100
AcDbArc
50
68.563565317779691
51
144.64362697527235
0
ARC
5
240
100
AcDbEntity
8
0
100
AcDbCircle
10
-22.86931985517775
20
-45.736196784066188
30
0
40
0.39999999999997871
210
0
220
0
230
1
100
AcDbArc
50
-12.643626975265354
51
63.436434682400204
0
ARC
5
241
100
AcDbEntity
8
0
100
AcDbCircle
10
-39.494750420078653
20
32.480304434610012
30
0
40
0.40000000000002633
210
0
220
0
230
1
100
AcDbArc
50
-39.436434682204847
51
36.643626975259075
0
SPLINE
5
242
100
AcDbEntity
8
0
100
AcDbSpline
70
0
71
3
72
8
73
4
74
0
42
0.000000001
43
0.0000000001
44
0.0000000001
40
0
40
0
40
0
40
0
40
1
40
1
40
1
40
1
10
26.750821651373755
20
47.719746274755508
30
0
10
25.704113960001944
20
46.95501815864931
30
0
10
24.923869058170247
20
46.248692929012222
30
0
10
24.359513492899652
20
45.666132343600111
30
0
0
SPLINE
5
243
100
AcDbEntity
8
0
100
AcDbSpline
70
0
71
3
72
8
73
4
74
0
42
0.000000001
43
0.0000000001
44
0.0000000001
40
0
40
0
40
0
40
0
40
1
40
1
40
1
40
1
10
-8.7486162576537829
20
50.285029810949524
30
0
10
-8.8334524085812305
20
50.486956921329806
30
0
10
-8.9347471431129932
20
50.711777433065009
30
0
10
-9.0556630796607429
20
50.958576383390728
30
0
0
ARC
5
244
100
AcDbEntity
8
0
100
AcDbCircle
10
-3.0198066269804258e-13
20
1.1457501614131615e-12
30
0
40
50.735168787779976
210
0
220
-0
230
1
100
AcDbArc
50
26.566296674994227
51
27.433703325004707
0
SPLINE
5
245
100
AcDbEntity
8
0
100
AcDbSpline
70
0
71
3
72
8
73
4
74
0
42
0.000000001
43
0.0000000001
44
0.0000000001
40
0
40
0
40
0
40
0
40
1
40
1
40
1
40
1
10
47.367241663961565
20
19.012283572976713
30
0
10
47.547117754921317
20
19.137248857402909
30
0
10
47.745965039543478
20
19.283072871677511
30
0
10
47.962231003853745
20
19.452658891956514
30
0
0
ARC
5
246
100
AcDbEntity
8
0
100
AcDbCircle
10
-5.6488147492927965e-12
20
1.758593271006248e-12
30
0
40
50.735168787780395
210
0
220
0
230
1
100
AcDbArc
50
128.56629667499502
51
129.43370332500498
0
SPLINE
5
247
100
AcDbEntity
8
0
100
AcDbSpline
70
0
71
3
72
8
73
4
74
0
42
0.000000001
43
0.0000000001
44
0.0000000001
40
0
40
0
40
0
40
0
40
1
40
1
40
1
40
1
10
-47.962231003860865
20
19.452658891956514
30
0
10
-47.745965039550562
20
19.283072871677611
30
0
10
-47.54711775492845
20
19.137248857402909
30
0
10
-47.367241663968649
20
19.012283572976713
30
0
0
ARC
5
248
100
AcDbEntity
8
0
100
AcDbCircle
10
-3.9968028886505635e-12
20
-2.2026824808563106e-12
30
0
40
50.735168787782328
210
0
220
0
230
1
100
AcDbArc
50
242.56629667499425
51
243.43370332500405
0
ARC
5
249
100
AcDbEntity
8
0
100
AcDbCircle
10
-2.1446164207859653
20
-43.447101403983169
30
0
40
3.9999999999999747
210
0
220
0
230
1
100
AcDbArc
50
267.1740849975958
51
329.31166776869821
0
ARC
5
250
100
AcDbEntity
8
0
100
AcDbCircle
10
23.559111515551354
20
-45.384730378253195
30
0
40
0.39999999999999469
210
0
220
-0
230
1
100
AcDbArc
50
41.356373024728001
51
117.436434682311
0
SPLINE
5
251
100
AcDbEntity
8
0
100
AcDbSpline
70
0
71
3
72
8
73
4
74
0
42
0.000000001
43
0.0000000001
44
0.0000000001
40
0
40
0
40
0
40
0
40
1
40
1
40
1
40
1
10
37.278885002749931
20
-35.903569095366386
30
0
10
37.995640161753244
20
-36.283221675720583
30
0
10
38.955963659460053
20
-36.713867953550185
30
0
10
40.187755813948684
20
-37.117717146790284
30
0
0
ARC
5
252
100
AcDbEntity
8
0
100
AcDbCircle
10
23.559111515551354
20
45.384730378251618
30
0
40
0.40000000000004166
210
0
220
0
230
1
100
AcDbArc
50
242.56356531775489
51
318.64362697527048
0
SPLINE
5
253
100
AcDbEntity
8
0
100
AcDbSpline
70
0
71
3
72
8
73
4
74
0
42
0.000000001
43
0.0000000001
44
0.0000000001
40
0
40
0
40
0
40
0
40
1
40
1
40
1
40
1
10
-31.810181025542956
20
40.82761227351611
30
0
10
-31.707682216615751
20
40.572613489672719
30
0
10
-31.60838742379676
20
40.34690254651801
30
0
10
-31.515092801705347
20
40.148741390133807
30
0
0
SPLINE
5
254
100
AcDbEntity
8
0
100
AcDbSpline
70
0
71
3
72
8
73
4
74
0
42
0.000000001
43
0.0000000001
44
0.0000000001
40
0
40
0
40
0
40
0
40
1
40
1
40
1
40
1
10
12.051008072625251
20
-53.362476029363897
30
0
10
12.317160489225856
20
-52.093788134774393
30
0
10
12.424371621433554
20
-51.046800450994397
30
0
10
12.453960421736152
20
-50.236245984826795
30
0
0
ARC
5
255
100
AcDbEntity
8
0
100
AcDbCircle
10
-47.87614397306637
20
17.963304962605015
30
0
40
0.40000000000004637
210
0
220
0
230
1
100
AcDbArc
50
263.35637302472617
51
339.43643468223138
0
ARC
5
256
100
AcDbEntity
8
0
100
AcDbCircle
10
-8.381393552991323
20
-50.443609397217287
30
0
40
0.40000000000000147
210
0
220
-0
230
1
100
AcDbArc
50
80.563565317749038
51
156.64362697527446
0
SPLINE
5
257
100
AcDbEntity
8
0
100
AcDbSpline
70
0
71
3
72
8
73
4
74
0
42
0.000000001
43
0.0000000001
44
0.0000000001
40
0
40
0
40
0
40
0
40
1
40
1
40
1
40
1
10
-12.453960421743258
20
50.236245984825203
30
0
10
-12.464040449762948
20
49.961602982678528
30
0
10
-12.465135054139864
20
49.715018945113115
30
0
10
-12.460505579441445
20
49.496043379410715
30
0
0
ARC
5
258
100
AcDbEntity
8
0
100
AcDbCircle
10
-27.524773693699949
20
43.095154252186418
30
0
40
0.39999999999993097
210
0
220
0
230
1
100
AcDbArc
50
-57.436434682256241
51
18.643626975271182
0
ARC
5
259
100
AcDbEntity
8
0
100
AcDbCircle
10
-49.29117983880495
20
13.608272374108807
30
0
40
0.39999999999999469
210
0
220
0
230
1
100
AcDbArc
50
-15.436434682250455
51
60.64362697526709
0
ARC
5
260
100
AcDbEntity
8
0
100
AcDbCircle
10
-4.9915627187147038e-12
20
-5.1780801868517301e-12
30
0
40
50.735168787779102
210
0
220
0
230
1
100
AcDbArc
50
248.56629667499405
51
249.43370332500518
0
ARC
5
261
100
AcDbEntity
8
0
100
AcDbCircle
10
13.608272374106054
20
-49.291179838802194
30
0
40
0.40000000000000197
210
0
220
-0
230
1
100
AcDbArc
50
29.356373024727066
51
105.43643468225142
0
SPLINE
5
262
100
AcDbEntity
8
0
100
AcDbSpline
70
0
71
3
72
8
73
4
74
0
42
0.000000001
43
0.0000000001
44
0.0000000001
40
0
40
0
40
0
40
0
40
1
40
1
40
1
40
1
10
45.120434172917982
20
23.859357274637709
30
0
10
45.286262454687773
20
24.002440157527111
30
0
10
45.468777672959376
20
24.168250533680215
30
0
10
45.66613234359734
20
24.359513492902416
30
0
0
ARC
5
263
100
AcDbEntity
8
0
100
AcDbCircle
10
39.494750420071547
20
-32.480304434611597
30
0
40
0.40000000000001118
210
0
220
0
230
1
100
AcDbArc
50
140.56356531774904
51
216.64362697527085
0
SPLINE
5
264
100
AcDbEntity
8
0
100
AcDbSpline
70
0
71
3
72
8
73
4
74
0
42
0.000000001
43
0.0000000001
44
0.0000000001
40
0
40
0
40
0
40
0
40
1
40
1
40
1
40
1
10
31.592349597005445
20
44.662110233297412
30
0
10
30.471440025091656
20
44.010982124295609
30
0
10
29.621638295649451
20
43.390084018731407
30
0
10
28.99948016646146
20
42.869705981134807
30
0
0
ARC
5
265
100
AcDbEntity
8
0
100
AcDbCircle
10
12.860480341800251
20
-49.491550109964997
30
0
40
0.40000000000000524
210
0
220
0
230
1
100
AcDbArc
50
104.56356531774875
51
180.64362697527039
0
SPLINE
5
266
100
AcDbEntity
8
0
100
AcDbSpline
70
0
71
3
72
8
73
4
74
0
42
0.000000001
43
0.0000000001
44
0.0000000001
40
0
40
0
40
0
40
0
40
1
40
1
40
1
40
1
10
49.690832432894453
20
22.882347250151902
30
0
10
48.394532213771043
20
22.878908552595103
30
0
10
47.348133275112033
20
22.766095884736011
30
0
10
46.549139511265935
20
22.626514349199809
30
0
0
SPLINE
5
267
100
AcDbEntity
8
0
100
AcDbSpline
70
0
71
3
72
8
73
4
74
0
42
0.000000001
43
0.0000000001
44
0.0000000001
40
0
40
0
40
0
40
0
40
1
40
1
40
1
40
1
10
32.71903883255824
20
-39.173805117516494
30
0
10
32.893472649610835
20
-39.306261049354788
30
0
10
33.093606718852548
20
-39.450313956543496
30
0
10
33.32172246678816
20
-39.603590148878993
30
0
0
SPLINE
5
268
100
AcDbEntity
8
0
100
AcDbSpline
70
0
71
3
72
8
73
4
74
0
42
0.000000001
43
0.0000000001
44
0.0000000001
40
0
40
0
40
0
40
0
40
1
40
1
40
1
40
1
10
28.99948016646146
20
42.869705981134807
30
0
10
28.788635785301651
20
42.693424863239606
30
0
10
28.604655700449246
20
42.529241386243712
30
0
10
28.445022865103553
20
42.379277763020617
30
0
0
SPLINE
5
269
100
AcDbEntity
8
0
100
AcDbSpline
70
0
71
3
72
8
73
4
74
0
42
0.000000001
43
0.0000000001
44
0.0000000001
40
0
40
0
40
0
40
0
40
1
40
1
40
1
40
1
10
-48.659253228538937
20
-17.636853916600593
30
0
10
-48.385061099655644
20
-17.618170714210493
30
0
10
-48.139713457935258
20
-17.593484271716989
30
0
10
-47.922421375169471
20
-17.565990978389294
30
0
0
ARC
5
270
100
AcDbEntity
8
0
100
AcDbCircle
10
-4.7428727611986687e-12
20
2.2026824808563106e-12
30
0
40
50.735168787780502
210
0
220
0
230
1
100
AcDbArc
50
104.56629667499411
51
105.43370332500507
0
SPLINE
5
271
100
AcDbEntity
8
0
100
AcDbSpline
70
0
71
3
72
8
73
4
74
0
42
0.000000001
43
0.0000000001
44
0.0000000001
40
0
40
0
40
0
40
0
40
1
40
1
40
1
40
1
10
46.549139511265935
20
22.626514349199809
30
0
10
46.278402361988626
20
22.579272613475005
30
0
10
46.036979196218141
20
22.529075593941101
30
0
10
45.823751293919045
20
22.479019704259215
30
0
0
ARC
5
272
100
AcDbEntity
8
0
100
AcDbCircle
10
-6.1817218011128716e-12
20
-4.8405723873656825e-12
30
0
40
50.73516878777896
210
0
220
0
230
1
100
AcDbArc
50
236.56629667499448
51
237.43370332500501
0
SPLINE
5
273
100
AcDbEntity
8
0
100
AcDbSpline
70
0
71
3
72
8
73
4
74
0
42
0.000000001
43
0.0000000001
44
0.0000000001
40
0
40
0
40
0
40
0
40
1
40
1
40
1
40
1
10
-14.332676889463958
20
49.732845424492425
30
0
10
-14.76357877527736
20
50.42001178319321
30
0
10
-15.379920181227646
20
51.273124148692219
30
0
10
-16.244758882577148
20
52.238763886580216
30
0
0
SPLINE
5
274
100
AcDbEntity
8
0
100
AcDbSpline
70
0
71
3
72
8
73
4
74
0
42
0.000000001
43
0.0000000001
44
0.0000000001
40
0
40
0
40
0
40
0
40
1
40
1
40
1
40
1
10
-9.0556630796607784
20
-50.958576383392298
30
0
10
-8.9347471431130465
20
-50.711777433066594
30
0
10
-8.8334524085812482
20
-50.486956921331398
30
0
10
-8.7486162576538185
20
-50.285029810951094
30
0
0
SPLINE
5
275
100
AcDbEntity
8
0
100
AcDbSpline
70
0
71
3
72
8
73
4
74
0
42
0.000000001
43
0.0000000001
44
0.0000000001
40
0
40
0
40
0
40
0
40
1
40
1
40
1
40
1
10
-6.4070937739864497
20
54.329824156923401
30
0
10
-6.8044021757885886
20
53.095906770467707
30
0
10
-7.0204660078421099
20
52.065861209662501
30
0
10
-7.1346187303439379
20
51.26283991749581
30
0
0
SPLINE
5
276
100
AcDbEntity
8
0
100
AcDbSpline
70
0
71
3
72
8
73
4
74
0
42
0.000000001
43
0.0000000001
44
0.0000000001
40
0
40
0
40
0
40
0
40
1
40
1
40
1
40
1
10
49.095083743102265
20
13.956907313914009
30
0
10
49.287036883157981
20
14.062385854070207
30
0
10
49.500037621668781
20
14.186625828050312
30
0
10
49.732845424489639
20
14.332676889459615
30
0
0
SPLINE
5
277
100
AcDbEntity
8
0
100
AcDbSpline
70
0
71
3
72
8
73
4
74
0
42
0.000000001
43
0.0000000001
44
0.0000000001
40
0
40
0
40
0
40
0
40
1
40
1
40
1
40
1
10
-53.362476029366661
20
-12.051008072629594
30
0
10
-52.093788134777157
20
-12.31716048923019
30
0
10
-51.046800450997161
20
-12.424371621437889
30
0
10
-50.236245984829552
20
-12.45396042174049
30
0
0
ARC
5
278
100
AcDbEntity
8
0
100
AcDbCircle
10
-39.981952192084847
20
31.878660351700603
30
0
40
0.39999999999996461
210
0
220
0
230
1
100
AcDbArc
50
245.35637302472321
51
321.43643468225093
0
SPLINE
5
279
100
AcDbEntity
8
0
100
AcDbSpline
70
0
71
3
72
8
73
4
74
0
42
0.000000001
43
0.0000000001
44
0.0000000001
40
0
40
0
40
0
40
0
40
1
40
1
40
1
40
1
10
42.869705981132057
20
-28.999480166465894
30
0
10
42.693424863236856
20
-28.788635785305992
30
0
10
42.52924138624094
20
-28.604655700453591
30
0
10
42.379277763017868
20
-28.445022865107894
30
0
0
ARC
5
280
100
AcDbEntity
8
0
100
AcDbCircle
10
-40.337444347148349
20
-21.050904577748195
30
0
40
2.0000000000000098
210
0
220
-0
230
1
100
AcDbArc
50
83.54071976425918
51
207.55870793547115
0
ARC
5
281
100
AcDbEntity
8
0
100
AcDbCircle
10
-45.736196784068852
20
22.869319855173408
30
0
40
0.39999999999999514
210
0
220
0
230
1
100
AcDbArc
50
257.35637302473003
51
333.43643468221632
0
SPLINE
5
282
100
AcDbEntity
8
0
100
AcDbSpline
70
0
71
3
72
8
73
4
74
0
42
0.000000001
43
0.0000000001
44
0.0000000001
40
0
40
0
40
0
40
0
40
1
40
1
40
1
40
1
10
-28.999480166468654
20
-42.869705981136399
30
0
10
-28.788635785308756
20
-42.693424863241198
30
0
10
-28.604655700456352
20
-42.529241386245289
30
0
10
-28.445022865110658
20
-42.379277763022188
30
0
0
SPLINE
5
283
100
AcDbEntity
8
0
100
AcDbSpline
70
0
71
3
72
8
73
4
74
0
42
0.000000001
43
0.0000000001
44
0.0000000001
40
0
40
0
40
0
40
0
40
1
40
1
40
1
40
1
10
14.332676889456852
20
-49.732845424493995
30
0
10
14.763578775270148
20
-50.420011783194795
30
0
10
15.379920181220541
20
-51.273124148693796
30
0
10
16.244758882570043
20
-52.2387638865818
30
0
0
ARC
5
284
100
AcDbEntity
8
0
100
AcDbCircle
10
17.963304962602145
20
-47.876143973063598
30
0
40
0.40000000000002822
210
0
220
0
230
1
100
AcDbArc
50
110.5635653177589
51
186.64362697527571
0
ARC
5
285
100
AcDbEntity
8
0
100
AcDbCircle
10
-3.5704772471945034e-12
20
-7.9047879353311146e-13
30
0
40
54.706312648093132
210
0
220
0
230
1
100
AcDbArc
50
287.27419698475416
51
288.72580301524584
0
SPLINE
5
286
100
AcDbEntity
8
0
100
AcDbSpline
70
0
71
3
72
8
73
4
74
0
42
0.000000001
43
0.0000000001
44
0.0000000001
40
0
40
0
40
0
40
0
40
1
40
1
40
1
40
1
10
3.4444735308976426
20
-50.924042569367785
30
0
10
3.50773780997363
20
-51.133731294395389
30
0
10
3.5849774987482697
20
-51.367908398781694
30
0
10
3.6794335301303427
20
-51.625994515666392
30
0
0
ARC
5
287
100
AcDbEntity
8
0
100
AcDbCircle
10
-2.3980817331903381e-12
20
-1.971756091734278e-12
30
0
40
50.735168787782086
210
0
220
0
230
1
100
AcDbArc
50
314.56629667499499
51
315.43370332500558
0
ARC
5
288
100
AcDbEntity
8
0
100
AcDbCircle
10
22.869319855170644
20
-45.736196784066081
30
0
40
0.3999999999999978
210
0
220
0
230
1
100
AcDbArc
50
116.56356531780736
51
192.64362697528023
0
SPLINE
5
289
100
AcDbEntity
8
0
100
AcDbSpline
70
0
71
3
72
8
73
4
74
0
42
0.000000001
43
0.0000000001
44
0.0000000001
40
0
40
0
40
0
40
0
40
1
40
1
40
1
40
1
10
-43.22302660427026
20
27.145763586213512
30
0
10
-43.429854156584149
20
27.217833649447314
30
0
10
-43.664707763679651
20
27.292991276971215
30
0
10
-43.929023680488051
20
27.36827395568821
30
0
0
SPLINE
5
290
100
AcDbEntity
8
0
100
AcDbSpline
70
0
71
3
72
8
73
4
74
0
42
0.000000001
43
0.0000000001
44
0.0000000001
40
0
40
0
40
0
40
0
40
1
40
1
40
1
40
1
10
36.634578163664351
20
-35.539136065497487
30
0
10
36.821901829021648
20
-35.652633091043697
30
0
10
37.035997171909329
20
-35.774977154628893
30
0
10
37.278885002749931
20
-35.903569095366386
30
0
0
ARC
5
291
100
AcDbEntity
8
0
100
AcDbCircle
10
-3.7125857943465235e-12
20
-7.5495165674510645e-13
30
0
40
54.706312648093188
210
0
220
-0
230
1
100
AcDbArc
50
77.274196984753971
51
78.725803015245631
0
SPLINE
5
292
100
AcDbEntity
8
0
100
AcDbSpline
70
0
71
3
72
8
73
4
74
0
42
0.000000001
43
0.0000000001
44
0.0000000001
40
0
40
0
40
0
40
0
40
1
40
1
40
1
40
1
10
-43.929023680488051
20
27.36827395568821
30
0
10
-44.709050229485463
20
27.590608439263313
30
0
10
-45.737924750463549
20
27.812181580547115
30
0
10
-47.026764259581256
20
27.95110171039731
30
0
0
ARC
5
293
100
AcDbEntity
8
0
100
AcDbCircle
10
-3.5527136788005009e-12
20
-7.815970093361102e-13
30
0
40
54.706312648093146
210
0
220
0
230
1
100
AcDbArc
50
143.27419698475421
51
144.72580301524599
0
ARC
5
294
100
AcDbEntity
8
0
100
AcDbCircle
10
-6.3948846218409017e-13
20
1.4122036873231991e-12
30
0
40
50.735168787780125
210
0
220
-0
230
1
100
AcDbArc
50
38.566296674994575
51
39.433703325004714
0
ARC
5
295
100
AcDbEntity
8
0
100
AcDbCircle
10
-3.4106051316484809e-12
20
-7.1942451995710144e-13
30
0
40
54.70631264809316
210
0
220
0
230
1
100
AcDbArc
50
293.27419698475404
51
294.72580301524567
0
SPLINE
5
296
100
AcDbEntity
8
0
100
AcDbSpline
70
0
71
3
72
8
73
4
74
0
42
0.000000001
43
0.0000000001
44
0.0000000001
40
0
40
0
40
0
40
0
40
1
40
1
40
1
40
1
10
-17.63685391660335
20
48.659253228534602
30
0
10
-17.618170714213264
20
48.38506109965131
30
0
10
-17.593484271719753
20
48.139713457930924
30
0
10
-17.565990978392065
20
47.922421375165115
30
0
0
ARC
5
297
100
AcDbEntity
8
0
100
AcDbCircle
10
-32.480304434614347
20
39.494750420074318
30
0
40
0.40000000000004471
210
0
220
0
230
1
100
AcDbArc
50
233.35637302474092
51
309.43643468231437
0
SPLINE
5
298
100
AcDbEntity
8
0
100
AcDbSpline
70
0
71
3
72
8
73
4
74
0
42
0.000000001
43
0.0000000001
44
0.0000000001
40
0
40
0
40
0
40
0
40
1
40
1
40
1
40
1
10
-21.61620610576735
20
-50.254554790030085
30
0
10
-20.655168243441864
20
-49.384605188089196
30
0
10
-19.953028695641848
20
-48.600591481403193
30
0
10
-19.452658891960848
20
-47.962231003858093
30
0
0
ARC
5
299
100
AcDbEntity
8
0
100
AcDbCircle
10
-35.883277735858044
20
36.430699496996809
30
0
40
0.39999999999997143
210
0
220
0
230
1
100
AcDbArc
50
-45.436434682324112
51
30.64362697527454
0
ARC
5
300
100
AcDbEntity
8
0
100
AcDbCircle
10
-13.608272374113142
20
-49.291179838802194
30
0
40
0.40000000000000857
210
0
220
-0
230
1
100
AcDbArc
50
74.563565317756485
51
150.64362697526622
0
ARC
5
301
100
AcDbEntity
8
0
100
AcDbCircle
10
39.494750420071547
20
32.480304434610012
30
0
40
0.40000000000004471
210
0
220
0
230
1
100
AcDbArc
50
143.35637302474092
51
219.43643468237008
0
SPLINE
5
302
100
AcDbEntity
8
0
100
AcDbSpline
70
0
71
3
72
8
73
4
74
0
42
0.000000001
43
0.0000000001
44
0.0000000001
40
0
40
0
40
0
40
0
40
1
40
1
40
1
40
1
10
-10.695330681635156
20
-53.650634154327996
30
0
10
-9.9361664950528805
20
-52.599884031534295
30
0
10
-9.4123759963733988
20
-51.687019884823897
30
0
10
-9.0556630796607784
20
-50.958576383392298
30
0
0
SPLINE
5
303
100
AcDbEntity
8
0
100
AcDbSpline
70
0
71
3
72
8
73
4
74
0
42
0.000000001
43
0.0000000001
44
0.0000000001
40
0
40
0
40
0
40
0
40
1
40
1
40
1
40
1
10
51.810477447604683
20
17.562889004994709
30
0
10
50.520919054944557
20
17.694969414821511
30
0
10
49.468460264349531
20
17.692153219583613
30
0
10
48.659253228531853
20
17.636853916599016
30
0
0
ARC
5
304
100
AcDbEntity
8
0
100
AcDbCircle
10
-49.29117983880495
20
-13.608272374110388
30
0
40
0.4000000000000436
210
0
220
0
230
1
100
AcDbArc
50
-60.643626975267104
51
15.436434682272951
0
ARC
5
305
100
AcDbEntity
8
0
100
AcDbCircle
10
27.272596590941021
20
33.888869488192483
30
0
40
4.0000000000000879
210
0
220
-0
230
1
100
AcDbArc
50
51.174084997596289
51
113.31166776869719
0
ARC
5
306
100
AcDbEntity
8
0
100
AcDbCircle
10
-1.7053025658242404e-12
20
3.0642155479654321e-12
30
0
40
50.735168787779557
210
0
220
-0
230
1
100
AcDbArc
50
56.566296674993836
51
57.433703325004814
0
ARC
5
307
100
AcDbEntity
8
0
100
AcDbCircle
10
-13.608272374113142
20
49.291179838800616
30
0
40
0.40000000000001745
210
0
220
0
230
1
100
AcDbArc
50
209.35637302472671
51
285.43643468224923
0
ARC
5
308
100
AcDbEntity
8
0
100
AcDbCircle
10
-4.3520742565306136e-12
20
-2.4069635173873394e-12
30
0
40
50.735168787782015
210
0
220
0
230
1
100
AcDbArc
50
260.56629667499504
51
261.43370332500604
0
SPLINE
5
309
100
AcDbEntity
8
0
100
AcDbSpline
70
0
71
3
72
8
73
4
74
0
42
0.000000001
43
0.0000000001
44
0.0000000001
40
0
40
0
40
0
40
0
40
1
40
1
40
1
40
1
10
6.4070937739793266
20
-54.329824156924992
30
0
10
6.8044021757814654
20
-53.095906770469298
30
0
10
7.020466007834969
20
-52.065861209664092
30
0
10
7.1346187303368147
20
-51.262839917497402
30
0
0
SPLINE
5
310
100
AcDbEntity
8
0
100
AcDbSpline
70
0
71
3
72
8
73
4
74
0
42
0.000000001
43
0.0000000001
44
0.0000000001
40
0
40
0
40
0
40
0
40
1
40
1
40
1
40
1
10
33.32172246678816
20
-39.603590148878993
30
0
10
33.994866665235044
20
-40.056084267984097
30
0
10
34.904914616707643
20
-40.584752559899584
30
0
10
36.08774514932815
20
-41.115146765977499
30
0
0
SPLINE
5
311
100
AcDbEntity
8
0
100
AcDbSpline
70
0
71
3
72
8
73
4
74
0
42
0.000000001
43
0.0000000001
44
0.0000000001
40
0
40
0
40
0
40
0
40
1
40
1
40
1
40
1
10
33.32172246678816
20
39.603590148877416
30
0
10
33.093606718852548
20
39.450313956541905
30
0
10
32.893472649610835
20
39.306261049353211
30
0
10
32.71903883255824
20
39.173805117514817
30
0
0
ARC
5
312
100
AcDbEntity
8
0
100
AcDbCircle
10
-2.1316282072803006e-13
20
-6.2172489379008766e-14
30
0
40
50.735168787780282
210
0
220
-0
230
1
100
AcDbArc
50
14.566296674994712
51
15.433703325005217
0
SPLINE
5
313
100
AcDbEntity
8
0
100
AcDbSpline
70
0
71
3
72
8
73
4
74
0
42
0.000000001
43
0.0000000001
44
0.0000000001
40
0
40
0
40
0
40
0
40
1
40
1
40
1
40
1
10
-45.66613234360446
20
24.359513492902416
30
0
10
-45.468777672966461
20
24.168250533680215
30
0
10
-45.286262454694857
20
24.002440157527111
30
0
10
-45.120434172925066
20
23.859357274637709
30
0
0
ARC
5
314
100
AcDbEntity
8
0
100
AcDbCircle
10
18.686056115383138
20
-47.598705799230586
30
0
40
0.40000000000000252
210
0
220
-0
230
1
100
AcDbArc
50
35.356373024728477
51
111.43643468227326
0
SPLINE
5
315
100
AcDbEntity
8
0
100
AcDbSpline
70
0
71
3
72
8
73
4
74
0
42
0.000000001
43
0.0000000001
44
0.0000000001
40
0
40
0
40
0
40
0
40
1
40
1
40
1
40
1
10
24.359513492899652
20
-45.666132343601689
30
0
10
24.923869058170247
20
-46.248692929013799
30
0
10
25.704113960001944
20
-46.955018158650894
30
0
10
26.750821651373755
20
-47.719746274757085
30
0
0
SPLINE
5
316
100
AcDbEntity
8
0
100
AcDbSpline
70
0
71
3
72
8
73
4
74
0
42
0.000000001
43
0.0000000001
44
0.0000000001
40
0
40
0
40
0
40
0
40
1
40
1
40
1
40
1
10
-48.659253228538937
20
17.636853916599016
30
0
10
-49.468460264356658
20
17.692153219583613
30
0
10
-50.520919054951662
20
17.694969414821511
30
0
10
-51.810477447611767
20
17.562889004994709
30
0
0
ARC
5
317
100
AcDbEntity
8
0
100
AcDbCircle
10
-3.3395508580724709e-12
20
-7.638334409421077e-13
30
0
40
54.706312648093096
210
0
220
0
230
1
100
AcDbArc
50
275.27419698475398
51
276.72580301524556
0
ARC
5
318
100
AcDbEntity
8
0
100
AcDbCircle
10
-47.87614397306637
20
-17.963304962606593
30
0
40
0.39999999999998925
210
0
220
-0
230
1
100
AcDbArc
50
20.563565317732685
51
96.643626975273861
0
ARC
5
319
100
AcDbEntity
8
0
100
AcDbCircle
10
-3.5527136788005009e-12
20
-7.9047879353311146e-13
30
0
40
54.706312648093117
210
0
220
-0
230
1
100
AcDbArc
50
35.27419698475417
51
36.725803015245489
0
ARC
5
320
100
AcDbEntity
8
0
100
AcDbCircle
10
-1.5987211554602254e-12
20
-4.5030645878796349e-12
30
0
40
50.735168787779507
210
0
220
0
230
1
100
AcDbArc
50
296.56629667499408
51
297.43370332500496
0
SPLINE
5
321
100
AcDbEntity
8
0
100
AcDbSpline
70
0
71
3
72
8
73
4
74
0
42
0.000000001
43
0.0000000001
44
0.0000000001
40
0
40
0
40
0
40
0
40
1
40
1
40
1
40
1
10
17.636853916596245
20
48.659253228534602
30
0
10
17.692153219580842
20
49.468460264352316
30
0
10
17.694969414818758
20
50.520919054947306
30
0
10
17.562889004991948
20
51.810477447607433
30
0
0
SPLINE
5
322
100
AcDbEntity
8
0
100
AcDbSpline
70
0
71
3
72
8
73
4
74
0
42
0.000000001
43
0.0000000001
44
0.0000000001
40
0
40
0
40
0
40
0
40
1
40
1
40
1
40
1
10
7.1346187303368147
20
-51.262839917497402
30
0
10
7.1733515498699418
20
-50.990755088291394
30
0
10
7.2002152084025184
20
-50.745636281197797
30
0
10
7.2185002738269333
20
-50.527376374679996
30
0
0
ARC
5
323
100
AcDbEntity
8
0
100
AcDbCircle
10
17.963304962602251
20
47.876143973062014
30
0
40
0.40000000000003755
210
0
220
0
230
1
100
AcDbArc
50
173.35637302472605
51
249.43643468225102
0
ARC
5
324
100
AcDbEntity
8
0
100
AcDbCircle
10
-6.8389738316909643e-12
20
2.5046631435543532e-12
30
0
40
50.735168787779102
210
0
220
0
230
1
100
AcDbArc
50
134.56629667499502
51
135.43370332500498
0
ARC
5
325
100
AcDbEntity
8
0
100
AcDbCircle
10
-3.5527136788005009e-12
20
-7.7271522513910895e-13
30
0
40
54.706312648093103
210
0
220
0
230
1
100
AcDbArc
50
317.27419698475398
51
318.72580301524602
0
ARC
5
326
100
AcDbEntity
8
0
100
AcDbCircle
10
-18.686056115390155
20
47.598705799229002
30
0
40
0.39999999999999225
210
0
220
0
230
1
100
AcDbArc
50
215.356373024726
51
291.4364346822324
0
ARC
5
327
100
AcDbEntity
8
0
100
AcDbCircle
10
-23.55911151555846
20
-45.384730378253195
30
0
40
0.40000000000000252
210
0
220
-0
230
1
100
AcDbArc
50
62.56356531774891
51
138.64362697527199
0
SPLINE
5
328
100
AcDbEntity
8
0
100
AcDbSpline
70
0
71
3
72
8
73
4
74
0
42
0.000000001
43
0.0000000001
44
0.0000000001
40
0
40
0
40
0
40
0
40
1
40
1
40
1
40
1
10
-27.368273955692555
20
-43.929023680485301
30
0
10
-27.590608439267754
20
-44.709050229482692
30
0
10
-27.812181580551449
20
-45.737924750460792
30
0
10
-27.951101710401751
20
-47.026764259578499
30
0
0
ARC
5
329
100
AcDbEntity
8
0
100
AcDbCircle
10
-7.744915819785092e-12
20
1.6253665080512292e-12
30
0
40
50.735168787778917
210
0
220
0
230
1
100
AcDbArc
50
152.56629667499502
51
153.43370332500601
0
ARC
5
330
100
AcDbEntity
8
0
100
AcDbCircle
10
-3.5882408155885059e-12
20
-8.0824236192711396e-13
30
0
40
54.706312648093188
210
0
220
0
230
1
100
AcDbArc
50
311.27419698475416
51
312.72580301524579
0
ARC
5
331
100
AcDbEntity
8
0
100
AcDbCircle
10
-3.6237679523765109e-12
20
-6.6613381477509392e-13
30
0
40
54.706312648093125
210
0
220
-0
230
1
100
AcDbArc
50
23.274196984753988
51
24.725803015245678
0
SPLINE
5
332
100
AcDbEntity
8
0
100
AcDbSpline
70
0
71
3
72
8
73
4
74
0
42
0.000000001
43
0.0000000001
44
0.0000000001
40
0
40
0
40
0
40
0
40
1
40
1
40
1
40
1
10
-40.148741390138163
20
31.515092801701012
30
0
10
-40.346902546522365
20
31.608387423792408
30
0
10
-40.572613489677067
20
31.707682216611417
30
0
10
-40.827612273520444
20
31.810181025538604
30
0
0
SPLINE
5
333
100
AcDbEntity
8
0
100
AcDbSpline
70
0
71
3
72
8
73
4
74
0
42
0.000000001
43
0.0000000001
44
0.0000000001
40
0
40
0
40
0
40
0
40
1
40
1
40
1
40
1
10
-45.66613234360446
20
-24.359513492903993
30
0
10
-46.24869292901657
20
-24.923869058174589
30
0
10
-46.955018158653665
20
-25.704113960006289
30
0
10
-47.719746274759842
20
-26.750821651378093
30
0
0
ARC
5
334
100
AcDbEntity
8
0
100
AcDbCircle
10
50.564716467084438
20
7.6167536071477304
30
0
40
0.39999999999997693
210
0
220
0
230
1
100
AcDbArc
50
188.56356531775324
51
264.64362697527616
0
SPLINE
5
335
100
AcDbEntity
8
0
100
AcDbSpline
70
0
71
3
72
8
73
4
74
0
42
0.000000001
43
0.0000000001
44
0.0000000001
40
0
40
0
40
0
40
0
40
1
40
1
40
1
40
1
10
50.958576383387978
20
9.0556630796564086
30
0
10
51.687019884819549
20
9.412375996369029
30
0
10
52.599884031529939
20
9.9361664950485107
30
0
10
53.650634154323654
20
10.695330681630812
30
0
0
ARC
5
336
100
AcDbEntity
8
0
100
AcDbCircle
10
50.443609397212924
20
8.3813935529869532
30
0
40
0.39999999999999114
210
0
220
0
230
1
100
AcDbArc
50
113.35637302472463
51
189.43643468226591
0
ARC
5
337
100
AcDbEntity
8
0
100
AcDbCircle
10
-3.5882408155885059e-12
20
-5.5067062021407764e-13
30
0
40
54.706312648093125
210
0
220
-0
230
1
100
AcDbArc
50
5.2741969847538899
51
6.7258030152455595
0
ARC
5
338
100
AcDbEntity
8
0
100
AcDbCircle
10
51.083885209247754
20
2.289576126064361
30
0
40
0.40000000000002395
210
0
220
0
230
1
100
AcDbArc
50
182.56356531774924
51
258.64362697527571
0
SPLINE
5
339
100
AcDbEntity
8
0
100
AcDbSpline
70
0
71
3
72
8
73
4
74
0
42
0.000000001
43
0.0000000001
44
0.0000000001
40
0
40
0
40
0
40
0
40
1
40
1
40
1
40
1
10
51.727787448588657
20
1.7371086631156718
30
0
10
51.46124181064954
20
1.8040699092860635
30
0
10
51.220273806972529
20
1.8564082981099084
30
0
10
51.005120860849175
20
1.897407568653966
30
0
0
ARC
5
340
100
AcDbEntity
8
0
100
AcDbCircle
10
0
20
0
30
0
40
50.73516878778009
210
0
220
-0
230
1
100
AcDbArc
50
8.5662966749942235
51
9.4337033250051192
0
ARC
5
341
100
AcDbEntity
8
0
100
AcDbCircle
10
-2.8244073746463982e-12
20
-5.2136073236397351e-12
30
0
40
9.9999999999999982
210
0
220
0
230
1
100
AcDbArc
50
319.90546380594725
51
342
0
ARC
5
342
100
AcDbEntity
8
0
100
AcDbCircle
10
51.083885209247754
20
-2.289576126065942
30
0
40
0.40000000000000374
210
0
220
0
230
1
100
AcDbArc
50
101.35637302472429
51
177.43643468225076
0
ARC
5
343
100
AcDbEntity
8
0
100
AcDbCircle
10
50.564716467084438
20
-7.6167536071493123
30
0
40
0.40000000000000263
210
0
220
0
230
1
100
AcDbArc
50
95.356373024723865
51
171.43643468226182
0
ARC
5
344
100
AcDbEntity
8
0
100
AcDbCircle
10
-3.5882408155885059e-12
20
-1.021405182655144e-12
30
0
40
54.706312648093117
210
0
220
0
230
1
100
AcDbArc
50
353.27419698475404
51
354.72580301524602
0
SPLINE
5
345
100
AcDbEntity
8
0
100
AcDbSpline
70
0
71
3
72
8
73
4
74
0
42
0.000000001
43
0.0000000001
44
0.0000000001
40
0
40
0
40
0
40
0
40
1
40
1
40
1
40
1
10
51.727787448588657
20
-1.7371086631172528
30
0
10
52.514477497434328
20
-1.539642699531889
30
0
10
53.516295540549862
20
-1.217093408190868
30
0
10
54.701923361771833
20
-0.69298201517939972
30
0
0
ARC
5
346
100
AcDbEntity
8
0
100
AcDbCircle
10
-7.1764816311770119e-12
20
2.2726265314076954e-12
30
0
40
9.9999999999999982
210
0
220
0
230
1
100
AcDbArc
50
175.90546380594722
51
197.99999999999994
0
ARC
5
347
100
AcDbEntity
8
0
100
AcDbCircle
10
-3.5171865420124959e-12
20
-9.50350909079134e-13
30
0
40
54.706312648093096
210
0
220
-0
230
1
100
AcDbArc
50
11.27419698475436
51
12.725803015246031
0
ARC
5
348
100
AcDbEntity
8
0
100
AcDbCircle
10
-11.969371157914761
20
0.85682791985995266
30
0
40
1.9999999999999021
210
0
220
0
230
1
100
AcDbArc
50
-4.0945361940550269
51
55.451283391149737
0
ARC
5
349
100
AcDbEntity
8
0
100
AcDbCircle
10
-1.936228954946273e-12
20
3.3995029014022293e-12
30
0
40
10.000000000000002
210
0
220
0
230
1
100
AcDbArc
50
103.90546380594733
51
126
0
ARC
5
350
100
AcDbEntity
8
0
100
AcDbCircle
10
-3.5527136788005009e-12
20
-7.9047879353311146e-13
30
0
40
54.706312648093075
210
0
220
0
230
1
100
AcDbArc
50
-0.72580301524572199
51
0.72580301524572255
0
ARC
5
351
100
AcDbEntity
8
0
100
AcDbCircle
10
-2.8838473232524642
20
11.648322824177633
30
0
40
1.9999999999998974
210
0
220
0
230
1
100
AcDbArc
50
283.90546380594475
51
343.45128339114962
0
ARC
5
352
100
AcDbEntity
8
0
100
AcDbCircle
10
51.043368215068256
20
-3.062686430180781
30
0
40
0.40000000000001806
210
0
220
0
230
1
100
AcDbArc
50
176.56356531774927
51
252.64362697526735
0
SPLINE
5
353
100
AcDbEntity
8
0
100
AcDbSpline
70
0
71
3
72
8
73
4
74
0
42
0.000000001
43
0.0000000001
44
0.0000000001
40
0
40
0
40
0
40
0
40
1
40
1
40
1
40
1
10
54.329824156920651
20
6.4070937739820977
30
0
10
53.095906770464921
20
6.8044021757842632
30
0
10
52.065861209659715
20
7.0204660078377579
30
0
10
51.262839917493025
20
7.1346187303396036
30
0
0
SPLINE
5
354
100
AcDbEntity
8
0
100
AcDbSpline
70
0
71
3
72
8
73
4
74
0
42
0.000000001
43
0.0000000001
44
0.0000000001
40
0
40
0
40
0
40
0
40
1
40
1
40
1
40
1
10
50.924042569363465
20
3.4444735309004404
30
0
10
51.133731294391026
20
3.5077378099764189
30
0
10
51.367908398777317
20
3.5849774987510585
30
0
10
51.625994515662072
20
3.6794335301331405
30
0
0
ARC
5
355
100
AcDbEntity
8
0
100
AcDbCircle
10
7.1054273576010019e-14
20
-4.4408920985006262e-13
30
0
40
50.735168787780069
210
0
220
-0
230
1
100
AcDbArc
50
2.5662966749942973
51
3.4337033250047462
0
ARC
5
356
100
AcDbEntity
8
0
100
AcDbCircle
10
10.1870554937741
20
6.34223149741194
30
0
40
1.9999999999998919
210
0
220
0
230
1
100
AcDbArc
50
211.90546380594512
51
271.45128339114956
0
ARC
5
357
100
AcDbEntity
8
0
100
AcDbCircle
10
16.22433692717772
20
41.804297688597728
30
0
40
47.714992266409084
210
0
220
0
230
1
100
AcDbArc
50
191.54071976425871
51
235.45128339114891
0
ARC
5
358
100
AcDbEntity
8
0
100
AcDbCircle
10
-7.1764816311770119e-12
20
2.2726265314076954e-12
30
0
40
47.5
210
0
220
0
230
1
100
AcDbArc
50
135.55870793547115
51
195.17408499759574
0
SPLINE
5
359
100
AcDbEntity
8
0
100
AcDbSpline
70
0
71
3
72
8
73
4
74
0
42
0.000000001
43
0.0000000001
44
0.0000000001
40
0
40
0
40
0
40
0
40
1
40
1
40
1
40
1
10
-54.474696847165262
20
5.0287221995990095
30
0
10
-53.350348577694653
20
4.3835500894774082
30
0
10
-52.387734180393259
20
3.9580492563825764
30
0
10
-51.625994515669156
20
3.6794335301331493
30
0
0
SPLINE
5
360
100
AcDbEntity
8
0
100
AcDbSpline
70
0
71
3
72
8
73
4
74
0
42
0.000000001
43
0.0000000001
44
0.0000000001
40
0
40
0
40
0
40
0
40
1
40
1
40
1
40
1
10
-53.65063415433076
20
10.695330681630812
30
0
10
-52.599884031537059
20
9.9361664950485107
30
0
10
-51.687019884826661
20
9.412375996369029
30
0
10
-50.958576383395062
20
9.0556630796564086
30
0
0
ARC
5
361
100
AcDbEntity
8
0
100
AcDbCircle
10
-51.043368215075347
20
3.0626864301792089
30
0
40
0.40000000000000036
210
0
220
0
230
1
100
AcDbArc
50
-3.4364346822508471
51
72.643626975272241
0
SPLINE
5
362
100
AcDbEntity
8
0
100
AcDbSpline
70
0
71
3
72
8
73
4
74
0
42
0.000000001
43
0.0000000001
44
0.0000000001
40
0
40
0
40
0
40
0
40
1
40
1
40
1
40
1
10
-54.329824156927756
20
-6.4070937739836618
30
0
10
-53.095906770472055
20
-6.8044021757858184
30
0
10
-52.065861209666849
20
-7.020466007839322
30
0
10
-51.262839917500159
20
-7.1346187303411588
30
0
0
ARC
5
363
100
AcDbEntity
8
0
100
AcDbCircle
10
44.771845558844333
20
-2.5120229334785407
30
0
40
47.714992266409048
210
0
220
0
230
1
100
AcDbArc
50
119.54071976425878
51
163.45128339114896
0
CIRCLE
5
364
100
AcDbEntity
8
0
100
AcDbCircle
10
-3.5527136788005009e-12
20
-7.9047879353311146e-13
30
0
40
2.4249999999999998
210
0
220
0
230
1
0
SPLINE
5
365
100
AcDbEntity
8
0
100
AcDbSpline
70
0
71
3
72
8
73
4
74
0
42
0.000000001
43
0.0000000001
44
0.0000000001
40
0
40
0
40
0
40
0
40
1
40
1
40
1
40
1
10
49.732845424489639
20
-14.332676889461196
30
0
10
49.500037621668781
20
-14.186625828051893
30
0
10
49.287036883157981
20
-14.062385854071788
30
0
10
49.095083743102265
20
-13.95690731391559
30
0
0
ARC
5
366
100
AcDbEntity
8
0
100
AcDbCircle
10
-2.0961010704922955e-12
20
-1.5987211554602254e-12
30
0
40
50.735168787782214
210
0
220
0
230
1
100
AcDbArc
50
350.56629667499499
51
351.43370332500604
0
SPLINE
5
367
100
AcDbEntity
8
0
100
AcDbSpline
70
0
71
3
72
8
73
4
74
0
42
0.000000001
43
0.0000000001
44
0.0000000001
40
0
40
0
40
0
40
0
40
1
40
1
40
1
40
1
10
50.236245984822418
20
-12.453960421740593
30
0
10
51.046800450990077
20
-12.424371621437992
30
0
10
52.09378813477008
20
-12.317160489230293
30
0
10
53.362476029359541
20
-12.051008072629692
30
0
0
ARC
5
368
100
AcDbEntity
8
0
100
AcDbCircle
10
-3.5171865420124959e-12
20
-6.5725203057809267e-13
30
0
40
54.706312648093146
210
0
220
0
230
1
100
AcDbArc
50
347.27419698475404
51
348.72580301524596
0
SPLINE
5
369
100
AcDbEntity
8
0
100
AcDbSpline
70
0
71
3
72
8
73
4
74
0
42
0.000000001
43
0.0000000001
44
0.0000000001
40
0
40
0
40
0
40
0
40
1
40
1
40
1
40
1
10
46.549139511265935
20
-22.626514349201393
30
0
10
47.348133275112033
20
-22.766095884737592
30
0
10
48.394532213771043
20
-22.878908552596688
30
0
10
49.690832432894453
20
-22.882347250153487
30
0
0
ARC
5
370
100
AcDbEntity
8
0
100
AcDbCircle
10
47.876143973059285
20
-17.963304962606593
30
0
40
0.39999999999999847
210
0
220
-0
230
1
100
AcDbArc
50
83.356373024735618
51
159.43643468225386
0
SPLINE
5
371
100
AcDbEntity
8
0
100
AcDbSpline
70
0
71
3
72
8
73
4
74
0
42
0.000000001
43
0.0000000001
44
0.0000000001
40
0
40
0
40
0
40
0
40
1
40
1
40
1
40
1
10
49.496043379407823
20
-12.460505579438692
30
0
10
49.715018945110344
20
-12.465135054137093
30
0
10
49.961602982675743
20
-12.464040449760292
30
0
10
50.236245984822418
20
-12.453960421740593
30
0
0
ARC
5
372
100
AcDbEntity
8
0
100
AcDbCircle
10
11.446185367243888
20
-43.356813242007732
30
0
40
47.71499226640907
210
0
220
-0
230
1
100
AcDbArc
50
47.540719764258725
51
91.451283391148948
0
ARC
5
373
100
AcDbEntity
8
0
100
AcDbCircle
10
-1.9539925233402755e-12
20
-1.3322676295501878e-12
30
0
40
50.735168787782101
210
0
220
0
230
1
100
AcDbArc
50
332.56629667499402
51
333.43370332500501
0
ARC
5
374
100
AcDbEntity
8
0
100
AcDbCircle
10
45.007089244705924
20
-6.6792153520576711
30
0
40
2.0000000000000093
210
0
220
0
230
1
100
AcDbArc
50
227.54071976425857
51
351.55870793547132
0
ARC
5
375
100
AcDbEntity
8
0
100
AcDbCircle
10
7.815970093361102e-13
20
-2.3803181647963356e-12
30
0
40
50.735168787779074
210
0
220
0
230
1
100
AcDbArc
50
338.56629667499448
51
339.43370332500541
0
SPLINE
5
376
100
AcDbEntity
8
0
100
AcDbSpline
70
0
71
3
72
8
73
4
74
0
42
0.000000001
43
0.0000000001
44
0.0000000001
40
0
40
0
40
0
40
0
40
1
40
1
40
1
40
1
10
50.958576383387978
20
-9.0556630796580269
30
0
10
50.711777433062281
20
-8.9347471431102861
30
0
10
50.486956921327021
20
-8.8334524085785056
30
0
10
50.285029810946739
20
-8.7486162576510669
30
0
0
ARC
5
377
100
AcDbEntity
8
0
100
AcDbCircle
10
-3.5527136788005009e-12
20
-7.9936057773011271e-13
30
0
40
54.706312648093117
210
0
220
-0
230
1
100
AcDbArc
50
89.27419698475417
51
90.725803015245816
0
SPLINE
5
378
100
AcDbEntity
8
0
100
AcDbSpline
70
0
71
3
72
8
73
4
74
0
42
0.000000001
43
0.0000000001
44
0.0000000001
40
0
40
0
40
0
40
0
40
1
40
1
40
1
40
1
10
47.962231003853745
20
-19.452658891958091
30
0
10
47.745965039543478
20
-19.283072871679092
30
0
10
47.547117754921317
20
-19.137248857404494
30
0
10
47.367241663961565
20
-19.012283572978291
30
0
0
SPLINE
5
379
100
AcDbEntity
8
0
100
AcDbSpline
70
0
71
3
72
8
73
4
74
0
42
0.000000001
43
0.0000000001
44
0.0000000001
40
0
40
0
40
0
40
0
40
1
40
1
40
1
40
1
10
45.823751293919045
20
-22.479019704260793
30
0
10
46.036979196218141
20
-22.529075593942686
30
0
10
46.278402361988626
20
-22.57927261347659
30
0
10
46.549139511265935
20
-22.626514349201393
30
0
0
ARC
5
380
100
AcDbEntity
8
0
100
AcDbCircle
10
40.65792598395268
20
-15.465544112101433
30
0
40
4.0000000000000266
210
-0
220
0
230
1
100
AcDbArc
50
-20.825915002403971
51
41.31166776869776
0
ARC
5
381
100
AcDbEntity
8
0
100
AcDbCircle
10
49.291179838797831
20
-13.608272374110388
30
0
40
0.40000000000001235
210
0
220
0
230
1
100
AcDbArc
50
164.56356531775947
51
240.6436269752794
0
ARC
5
382
100
AcDbEntity
8
0
100
AcDbCircle
10
47.598705799226252
20
-18.686056115387395
30
0
40
0.40000000000001706
210
0
220
0
230
1
100
AcDbArc
50
158.56356531774961
51
234.64362697528105
0
ARC
5
383
100
AcDbEntity
8
0
100
AcDbCircle
10
-1.936228954946273e-12
20
3.3995029014022293e-12
30
0
40
47.5
210
0
220
-0
230
1
100
AcDbArc
50
63.558707935471148
51
123.17408499759577
0
ARC
5
384
100
AcDbEntity
8
0
100
AcDbCircle
10
45.736196784061875
20
-22.869319855174986
30
0
40
0.39999999999999514
210
0
220
-0
230
1
100
AcDbArc
50
77.356373024729919
51
153.43643468228143
0
ARC
5
385
100
AcDbEntity
8
0
100
AcDbCircle
10
1.0658141036401503e-12
20
-1.5898393712632242e-12
30
0
40
50.735168787779074
210
0
220
0
230
1
100
AcDbArc
50
344.56629667499391
51
345.43370332500501
0
SPLINE
5
386
100
AcDbEntity
8
0
100
AcDbSpline
70
0
71
3
72
8
73
4
74
0
42
0.000000001
43
0.0000000001
44
0.0000000001
40
0
40
0
40
0
40
0
40
1
40
1
40
1
40
1
10
52.238763886577487
20
-16.244758882574391
30
0
10
51.273124148689448
20
-15.379920181224991
30
0
10
50.420011783190461
20
-14.763578775274588
30
0
10
49.732845424489639
20
-14.332676889461196
30
0
0
SPLINE
5
387
100
AcDbEntity
8
0
100
AcDbSpline
70
0
71
3
72
8
73
4
74
0
42
0.000000001
43
0.0000000001
44
0.0000000001
40
0
40
0
40
0
40
0
40
1
40
1
40
1
40
1
10
27.145763586210752
20
43.223026604265904
30
0
10
27.217833649444643
20
43.429854156579815
30
0
10
27.29299127696855
20
43.664707763675317
30
0
10
27.368273955685449
20
43.929023680483716
30
0
0
SPLINE
5
388
100
AcDbEntity
8
0
100
AcDbSpline
70
0
71
3
72
8
73
4
74
0
42
0.000000001
43
0.0000000001
44
0.0000000001
40
0
40
0
40
0
40
0
40
1
40
1
40
1
40
1
10
35.903569095362045
20
37.278885002752702
30
0
10
36.283221675716248
20
37.995640161756015
30
0
10
36.713867953545858
20
38.95596365946281
30
0
10
37.117717146785942
20
40.187755813951313
30
0
0
ARC
5
389
100
AcDbEntity
8
0
100
AcDbCircle
10
50.443609397212924
20
-8.3813935529885626
30
0
40
0.39999999999992997
210
0
220
0
230
1
100
AcDbArc
50
170.56356531776419
51
246.64362697527588
0
SPLINE
5
390
100
AcDbEntity
8
0
100
AcDbSpline
70
0
71
3
72
8
73
4
74
0
42
0.000000001
43
0.0000000001
44
0.0000000001
40
0
40
0
40
0
40
0
40
1
40
1
40
1
40
1
10
53.650634154323654
20
-10.695330681632393
30
0
10
52.599884031529939
20
-9.9361664950501201
30
0
10
51.687019884819549
20
-9.4123759963706473
30
0
10
50.958576383387978
20
-9.0556630796580269
30
0
0
SPLINE
5
391
100
AcDbEntity
8
0
100
AcDbSpline
70
0
71
3
72
8
73
4
74
0
42
0.000000001
43
0.0000000001
44
0.0000000001
40
0
40
0
40
0
40
0
40
1
40
1
40
1
40
1
10
50.254554790025722
20
-21.616206105764594
30
0
10
49.384605188084819
20
-20.655168243439093
30
0
10
48.60059148139888
20
-19.953028695639095
30
0
10
47.962231003853745
20
-19.452658891958091
30
0
0
ARC
5
392
100
AcDbEntity
8
0
100
AcDbCircle
10
7.460698725481052e-13
20
-1.226796442210798e-12
30
0
40
47.500000000000036
210
0
220
0
230
1
100
AcDbArc
50
-8.4412920645287759
51
51.174084997595756
0
SPLINE
5
393
100
AcDbEntity
8
0
100
AcDbSpline
70
0
71
3
72
8
73
4
74
0
42
0.000000001
43
0.0000000001
44
0.0000000001
40
0
40
0
40
0
40
0
40
1
40
1
40
1
40
1
10
50.52737637467564
20
-7.218500273831304
30
0
10
50.745636281193484
20
-7.2002152084068891
30
0
10
50.990755088287031
20
-7.1733515498743037
30
0
10
51.262839917493025
20
-7.1346187303411854
30
0
0
SPLINE
5
394
100
AcDbEntity
8
0
100
AcDbSpline
70
0
71
3
72
8
73
4
74
0
42
0.000000001
43
0.0000000001
44
0.0000000001
40
0
40
0
40
0
40
0
40
1
40
1
40
1
40
1
10
51.262839917493025
20
-7.1346187303411854
30
0
10
52.065861209659715
20
-7.0204660078393397
30
0
10
53.095906770464921
20
-6.8044021757858451
30
0
10
54.329824156920651
20
-6.4070937739836795
30
0
0
ARC
5
395
100
AcDbEntity
8
0
100
AcDbCircle
10
1.7763568394002505e-13
20
-1.1368683772161603e-12
30
0
40
50.735168787779955
210
0
220
0
230
1
100
AcDbArc
50
356.56629667499459
51
357.43370332500569
0
SPLINE
5
396
100
AcDbEntity
8
0
100
AcDbSpline
70
0
71
3
72
8
73
4
74
0
42
0.000000001
43
0.0000000001
44
0.0000000001
40
0
40
0
40
0
40
0
40
1
40
1
40
1
40
1
10
51.005120860849175
20
-1.8974075686555469
30
0
10
51.220273806972529
20
-1.8564082981114893
30
0
10
51.46124181064954
20
-1.8040699092876444
30
0
10
51.727787448588657
20
-1.7371086631172528
30
0
0
SPLINE
5
397
100
AcDbEntity
8
0
100
AcDbSpline
70
0
71
3
72
8
73
4
74
0
42
0.000000001
43
0.0000000001
44
0.0000000001
40
0
40
0
40
0
40
0
40
1
40
1
40
1
40
1
10
51.625994515662072
20
-3.6794335301347214
30
0
10
51.367908398777317
20
-3.5849774987526395
30
0
10
51.133731294391026
20
-3.507737809977991
30
0
10
50.924042569363465
20
-3.4444735309020125
30
0
0
SPLINE
5
398
100
AcDbEntity
8
0
100
AcDbSpline
70
0
71
3
72
8
73
4
74
0
42
0.000000001
43
0.0000000001
44
0.0000000001
40
0
40
0
40
0
40
0
40
1
40
1
40
1
40
1
10
54.474696847158185
20
-5.0287221996005735
30
0
10
53.350348577687527
20
-4.3835500894789803
30
0
10
52.387734180386175
20
-3.9580492563841396
30
0
10
51.625994515662072
20
-3.6794335301347214
30
0
0
SPLINE
5
399
100
AcDbEntity
8
0
100
AcDbSpline
70
0
71
3
72
8
73
4
74
0
42
0.000000001
43
0.0000000001
44
0.0000000001
40
0
40
0
40
0
40
0
40
1
40
1
40
1
40
1
10
-51.727787448595762
20
1.7371086631156807
30
0
10
-52.514477497441447
20
1.539642699530317
30
0
10
-53.516295540556953
20
1.2170934081892959
30
0
10
-54.701923361778952
20
0.69298201517782765
30
0
0
SPLINE
5
400
100
AcDbEntity
8
0
100
AcDbSpline
70
0
71
3
72
8
73
4
74
0
42
0.000000001
43
0.0000000001
44
0.0000000001
40
0
40
0
40
0
40
0
40
1
40
1
40
1
40
1
10
-51.727787448595762
20
-1.7371086631172439
30
0
10
-51.461241810656659
20
-1.8040699092876444
30
0
10
-51.220273806979655
20
-1.8564082981114893
30
0
10
-51.005120860856259
20
-1.8974075686555469
30
0
0
SPLINE
5
401
100
AcDbEntity
8
0
100
AcDbSpline
70
0
71
3
72
8
73
4
74
0
42
0.000000001
43
0.0000000001
44
0.0000000001
40
0
40
0
40
0
40
0
40
1
40
1
40
1
40
1
10
-50.958576383395062
20
9.0556630796564086
30
0
10
-50.711777433069358
20
8.9347471431086767
30
0
10
-50.486956921334155
20
8.8334524085768873
30
0
10
-50.285029810953858
20
8.7486162576494486
30
0
0
SPLINE
5
402
100
AcDbEntity
8
0
100
AcDbSpline
70
0
71
3
72
8
73
4
74
0
42
0.000000001
43
0.0000000001
44
0.0000000001
40
0
40
0
40
0
40
0
40
1
40
1
40
1
40
1
10
-51.262839917500159
20
7.1346187303396125
30
0
10
-52.065861209666757
20
7.0204660078377756
30
0
10
-53.095906770472055
20
6.8044021757842721
30
0
10
-54.329824156927756
20
6.4070937739821154
30
0
0
ARC
5
403
100
AcDbEntity
8
0
100
AcDbCircle
10
-8.0291329140891321e-12
20
8.8817841970012523e-15
30
0
40
50.735168787779195
210
0
220
0
230
1
100
AcDbArc
50
170.56629667499459
51
171.43370332500558
0
SPLINE
5
404
100
AcDbEntity
8
0
100
AcDbSpline
70
0
71
3
72
8
73
4
74
0
42
0.000000001
43
0.0000000001
44
0.0000000001
40
0
40
0
40
0
40
0
40
1
40
1
40
1
40
1
10
-51.005120860856259
20
1.8974075686539837
30
0
10
-51.220273806979655
20
1.8564082981099173
30
0
10
-51.461241810656659
20
1.8040699092860724
30
0
10
-51.727787448595762
20
1.7371086631156807
30
0
0
ARC
5
405
100
AcDbEntity
8
0
100
AcDbCircle
10
-3.5171865420124959e-12
20
-5.4178883601707639e-13
30
0
40
54.706312648093139
210
0
220
0
230
1
100
AcDbArc
50
173.27419698475447
51
174.72580301524613
0
SPLINE
5
406
100
AcDbEntity
8
0
100
AcDbSpline
70
0
71
3
72
8
73
4
74
0
42
0.000000001
43
0.0000000001
44
0.0000000001
40
0
40
0
40
0
40
0
40
1
40
1
40
1
40
1
10
-51.262839917500159
20
-7.1346187303411588
30
0
10
-50.990755088294158
20
-7.173351549874277
30
0
10
-50.745636281200561
20
-7.2002152084068713
30
0
10
-50.52737637468276
20
-7.2185002738312862
30
0
0
ARC
5
407
100
AcDbEntity
8
0
100
AcDbCircle
10
4.8708849586924252
20
39.075859424638111
30
0
40
32.797077767002165
210
0
220
0
230
1
100
AcDbArc
50
185.31166776869782
51
250.86866693142272
0
ARC
5
408
100
AcDbEntity
8
0
100
AcDbCircle
10
-3.5882408155885059e-12
20
-9.50350909079134e-13
30
0
40
54.706312648093103
210
0
220
0
230
1
100
AcDbArc
50
167.27419698475404
51
168.72580301524602
0
SPLINE
5
409
100
AcDbEntity
8
0
100
AcDbSpline
70
0
71
3
72
8
73
4
74
0
42
0.000000001
43
0.0000000001
44
0.0000000001
40
0
40
0
40
0
40
0
40
1
40
1
40
1
40
1
10
-54.701923361778952
20
-0.69298201517939084
30
0
10
-53.516295540556953
20
-1.2170934081908591
30
0
10
-52.514477497441447
20
-1.539642699531889
30
0
10
-51.727787448595762
20
-1.7371086631172439
30
0
0
ARC
5
410
100
AcDbEntity
8
0
100
AcDbCircle
10
7.460698725481052e-13
20
-1.226796442210798e-12
30
0
40
10.000000000000004
210
0
220
-0
230
1
100
AcDbArc
50
31.905463805947232
51
53.999999999999986
0
SPLINE
5
411
100
AcDbEntity
8
0
100
AcDbSpline
70
0
71
3
72
8
73
4
74
0
42
0.000000001
43
0.0000000001
44
0.0000000001
40
0
40
0
40
0
40
0
40
1
40
1
40
1
40
1
10
51.625994515662072
20
3.6794335301331405
30
0
10
52.387734180386175
20
3.9580492563825675
30
0
10
53.350348577687527
20
4.3835500894773993
30
0
10
54.474696847158185
20
5.0287221995989917
30
0
0
ARC
5
412
100
AcDbEntity
8
0
100
AcDbCircle
10
51.043368215068256
20
3.0626864301792001
30
0
40
0.40000000000001595
210
0
220
0
230
1
100
AcDbArc
50
107.35637302473262
51
183.43643468231866
0
ARC
5
413
100
AcDbEntity
8
0
100
AcDbCircle
10
-3.5171865420124959e-12
20
-1.0036416142611415e-12
30
0
40
54.706312648093174
210
0
220
0
230
1
100
AcDbArc
50
185.27419698475387
51
186.72580301524556
0
SPLINE
5
414
100
AcDbEntity
8
0
100
AcDbSpline
70
0
71
3
72
8
73
4
74
0
42
0.000000001
43
0.0000000001
44
0.0000000001
40
0
40
0
40
0
40
0
40
1
40
1
40
1
40
1
10
-50.52737637468276
20
7.2185002738297399
30
0
10
-50.745636281200461
20
7.200215208405325
30
0
10
-50.990755088294158
20
7.1733515498727396
30
0
10
-51.262839917500159
20
7.1346187303396125
30
0
0
ARC
5
415
100
AcDbEntity
8
0
100
AcDbCircle
10
-50.443609397220051
20
8.3813935529869532
30
0
40
0.40000000000000291
210
0
220
0
230
1
100
AcDbArc
50
-9.4364346822522034
51
66.643626975274429
0
ARC
5
416
100
AcDbEntity
8
0
100
AcDbCircle
10
-50.564716467091557
20
-7.6167536071492945
30
0
40
0.39999999999999925
210
0
220
-0
230
1
100
AcDbArc
50
8.5635653177488571
51
84.643626975274131
0
ARC
5
417
100
AcDbEntity
8
0
100
AcDbCircle
10
-51.043368215075347
20
-3.0626864301807633
30
0
40
0.39999999999999736
210
0
220
0
230
1
100
AcDbArc
50
-72.643626975276121
51
3.4364346822522247
0
ARC
5
418
100
AcDbEntity
8
0
100
AcDbCircle
10
-51.083885209254859
20
2.2895761260643699
30
0
40
0.39999999999999858
210
0
220
0
230
1
100
AcDbArc
50
281.35637302472753
51
357.43643468234603
0
SPLINE
5
419
100
AcDbEntity
8
0
100
AcDbSpline
70
0
71
3
72
8
73
4
74
0
42
0.000000001
43
0.0000000001
44
0.0000000001
40
0
40
0
40
0
40
0
40
1
40
1
40
1
40
1
10
-51.625994515669156
20
3.6794335301331493
30
0
10
-51.367908398784451
20
3.5849774987510763
30
0
10
-51.133731294398153
20
3.5077378099764278
30
0
10
-50.924042569370549
20
3.4444735309004493
30
0
0
SPLINE
5
420
100
AcDbEntity
8
0
100
AcDbSpline
70
0
71
3
72
8
73
4
74
0
42
0.000000001
43
0.0000000001
44
0.0000000001
40
0
40
0
40
0
40
0
40
1
40
1
40
1
40
1
10
-51.625994515669156
20
-3.6794335301347036
30
0
10
-52.387734180393259
20
-3.9580492563841219
30
0
10
-53.350348577694653
20
-4.3835500894789625
30
0
10
-54.474696847165262
20
-5.0287221996005558
30
0
0
ARC
5
421
100
AcDbEntity
8
0
100
AcDbCircle
10
-50.564716467091557
20
7.6167536071477393
30
0
40
0.3999999999999938
210
0
220
0
230
1
100
AcDbArc
50
275.35637302472395
51
351.43643468225116
0
SPLINE
5
422
100
AcDbEntity
8
0
100
AcDbSpline
70
0
71
3
72
8
73
4
74
0
42
0.000000001
43
0.0000000001
44
0.0000000001
40
0
40
0
40
0
40
0
40
1
40
1
40
1
40
1
10
-50.924042569370549
20
-3.4444735309020036
30
0
10
-51.133731294398153
20
-3.5077378099779821
30
0
10
-51.367908398784451
20
-3.5849774987526217
30
0
10
-51.625994515669156
20
-3.6794335301347036
30
0
0
ARC
5
423
100
AcDbEntity
8
0
100
AcDbCircle
10
-51.083885209254859
20
-2.289576126065942
30
0
40
0.40000000000000585
210
0
220
-0
230
1
100
AcDbArc
50
2.5635653177482403
51
78.643626975272468
0
ARC
5
424
100
AcDbEntity
8
0
100
AcDbCircle
10
-6.6435745793569367e-12
20
-4.2632564145606011e-13
30
0
40
50.735168787780609
210
0
220
0
230
1
100
AcDbArc
50
176.56629667499476
51
177.43370332500498
0
ARC
5
425
100
AcDbEntity
8
0
100
AcDbCircle
10
-8.1357143244531471e-12
20
-1.127986593019159e-12
30
0
40
50.735168787779124
210
0
220
0
230
1
100
AcDbArc
50
182.56629667499431
51
183.43370332500541
0
ARC
5
426
100
AcDbEntity
8
0
100
AcDbCircle
10
-3.5527136788005009e-12
20
-7.815970093361102e-13
30
0
40
54.706312648093096
210
0
220
0
230
1
100
AcDbArc
50
179.2741969847543
51
180.7258030152457
0
ARC
5
427
100
AcDbEntity
8
0
100
AcDbCircle
10
38.668536965514839
20
7.4426177519270258
30
0
40
32.797077767002158
210
0
220
0
230
1
100
AcDbArc
50
113.31166776869784
51
178.86866693142278
0
SPLINE
5
428
100
AcDbEntity
8
0
100
AcDbSpline
70
0
71
3
72
8
73
4
74
0
42
0.000000001
43
0.0000000001
44
0.0000000001
40
0
40
0
40
0
40
0
40
1
40
1
40
1
40
1
10
-35.539136065500259
20
-36.634578163668685
30
0
10
-35.652633091046454
20
-36.82190182902599
30
0
10
-35.774977154631657
20
-37.035997171913692
30
0
10
-35.90356909536915
20
-37.278885002754294
30
0
0
ARC
5
429
100
AcDbEntity
8
0
100
AcDbCircle
10
-6.8567374000849668e-12
20
-4.5474735088646412e-12
30
0
40
50.73516878777874
210
0
220
0
230
1
100
AcDbArc
50
224.56629667499408
51
225.43370332500513
0
ARC
5
430
100
AcDbEntity
8
0
100
AcDbCircle
10
-36.430699497001143
20
-35.883277735855287
30
0
40
0.39999999999999269
210
0
220
-0
230
1
100
AcDbArc
50
44.56356531774933
51
120.64362697527096
0
ARC
5
431
100
AcDbEntity
8
0
100
AcDbCircle
10
-6.0929039591428591e-12
20
-2.4158453015843406e-12
30
0
40
50.735168787780736
210
0
220
0
230
1
100
AcDbArc
50
218.5662966749949
51
219.43370332500592
0
ARC
5
432
100
AcDbEntity
8
0
100
AcDbCircle
10
-7.815970093361102e-12
20
-3.2063240951174521e-12
30
0
40
50.73516878777891
210
0
220
0
230
1
100
AcDbArc
50
212.56629667499496
51
213.43370332500584
0
ARC
5
433
100
AcDbEntity
8
0
100
AcDbCircle
10
-42.67351035388895
20
-28.174048359898492
30
0
40
0.39999999999999358
210
0
220
0
230
1
100
AcDbArc
50
-42.643626975274273
51
33.436434682251807
0
SPLINE
5
434
100
AcDbEntity
8
0
100
AcDbSpline
70
0
71
3
72
8
73
4
74
0
42
0.000000001
43
0.0000000001
44
0.0000000001
40
0
40
0
40
0
40
0
40
1
40
1
40
1
40
1
10
-43.929023680488051
20
-27.368273955689794
30
0
10
-43.664707763679651
20
-27.292991276972892
30
0
10
-43.429854156584149
20
-27.217833649448991
30
0
10
-43.22302660427026
20
-27.145763586215097
30
0
0
ARC
5
435
100
AcDbEntity
8
0
100
AcDbCircle
10
-39.981952192084847
20
-31.878660351702194
30
0
40
0.3999999999999998
210
0
220
-0
230
1
100
AcDbArc
50
38.563565317749088
51
114.64362697527399
0
ARC
5
436
100
AcDbEntity
8
0
100
AcDbCircle
10
-31.878660351704955
20
-39.98195219208209
30
0
40
0.39999999999999319
210
0
220
0
230
1
100
AcDbArc
50
-24.643626975272749
51
51.436434682251544
0
SPLINE
5
437
100
AcDbEntity
8
0
100
AcDbSpline
70
0
71
3
72
8
73
4
74
0
42
0.000000001
43
0.0000000001
44
0.0000000001
40
0
40
0
40
0
40
0
40
1
40
1
40
1
40
1
10
-37.27888500275705
20
-35.903569095366386
30
0
10
-37.035997171916449
20
-35.774977154628893
30
0
10
-36.821901829028754
20
-35.652633091043697
30
0
10
-36.634578163671456
20
-35.539136065497487
30
0
0
SPLINE
5
438
100
AcDbEntity
8
0
100
AcDbSpline
70
0
71
3
72
8
73
4
74
0
42
0.000000001
43
0.0000000001
44
0.0000000001
40
0
40
0
40
0
40
0
40
1
40
1
40
1
40
1
10
-31.515092801705347
20
-40.148741390135392
30
0
10
-31.60838742379676
20
-40.346902546519594
30
0
10
-31.707682216615751
20
-40.572613489674296
30
0
10
-31.810181025542956
20
-40.827612273517687
30
0
0
SPLINE
5
439
100
AcDbEntity
8
0
100
AcDbSpline
70
0
71
3
72
8
73
4
74
0
42
0.000000001
43
0.0000000001
44
0.0000000001
40
0
40
0
40
0
40
0
40
1
40
1
40
1
40
1
10
-31.810181025542956
20
-40.827612273517687
30
0
10
-32.112832514028455
20
-41.580125473564699
30
0
10
-32.440738527033744
20
-42.580203012304196
30
0
10
-32.713618051163955
20
-43.847461016047191
30
0
0
ARC
5
440
100
AcDbEntity
8
0
100
AcDbCircle
10
-39.494750420078653
20
-32.480304434611597
30
0
40
0.40000000000004471
210
0
220
0
230
1
100
AcDbArc
50
-36.643626975258265
51
39.436434682243778
0
SPLINE
5
441
100
AcDbEntity
8
0
100
AcDbSpline
70
0
71
3
72
8
73
4
74
0
42
0.000000001
43
0.0000000001
44
0.0000000001
40
0
40
0
40
0
40
0
40
1
40
1
40
1
40
1
10
-42.379277763024952
20
-28.445022865107795
30
0
10
-42.52924138624806
20
-28.604655700453591
30
0
10
-42.693424863243962
20
-28.788635785305992
30
0
10
-42.869705981139163
20
-28.999480166465794
30
0
0
SPLINE
5
442
100
AcDbEntity
8
0
100
AcDbSpline
70
0
71
3
72
8
73
4
74
0
42
0.000000001
43
0.0000000001
44
0.0000000001
40
0
40
0
40
0
40
0
40
1
40
1
40
1
40
1
10
-33.321722466795251
20
-39.603590148878894
30
0
10
-33.093606718859654
20
-39.45031395654339
30
0
10
-32.893472649617941
20
-39.306261049354788
30
0
10
-32.719038832565346
20
-39.173805117516387
30
0
0
ARC
5
443
100
AcDbEntity
8
0
100
AcDbCircle
10
-3.5527136788005009e-12
20
-7.815970093361102e-13
30
0
40
54.706312648093117
210
0
220
0
230
1
100
AcDbArc
50
227.27419698475413
51
228.72580301524582
0
SPLINE
5
444
100
AcDbEntity
8
0
100
AcDbSpline
70
0
71
3
72
8
73
4
74
0
42
0.000000001
43
0.0000000001
44
0.0000000001
40
0
40
0
40
0
40
0
40
1
40
1
40
1
40
1
10
-40.187755813955768
20
-37.117717146790284
30
0
10
-38.955963659467159
20
-36.713867953550185
30
0
10
-37.995640161760349
20
-36.283221675720583
30
0
10
-37.27888500275705
20
-35.903569095366386
30
0
0
ARC
5
445
100
AcDbEntity
8
0
100
AcDbCircle
10
-3.5527136788005009e-12
20
-7.815970093361102e-13
30
0
40
54.706312648093103
210
0
220
0
230
1
100
AcDbArc
50
221.27419698475398
51
222.72580301524582
0
SPLINE
5
446
100
AcDbEntity
8
0
100
AcDbSpline
70
0
71
3
72
8
73
4
74
0
42
0.000000001
43
0.0000000001
44
0.0000000001
40
0
40
0
40
0
40
0
40
1
40
1
40
1
40
1
10
-43.847461016049962
20
-32.713618051161191
30
0
10
-42.580203012306953
20
-32.440738527030987
30
0
10
-41.580125473567463
20
-32.112832514025691
30
0
10
-40.827612273520444
20
-31.810181025540196
30
0
0
ARC
5
447
100
AcDbEntity
8
0
100
AcDbCircle
10
20.260266728273777
20
40.740294452782251
30
0
40
2.0000000000000058
210
0
220
0
230
1
100
AcDbArc
50
-60.459280235741446
51
63.558707935471283
0
SPLINE
5
448
100
AcDbEntity
8
0
100
AcDbSpline
70
0
71
3
72
8
73
4
74
0
42
0.000000001
43
0.0000000001
44
0.0000000001
40
0
40
0
40
0
40
0
40
1
40
1
40
1
40
1
10
7.218500273826951
20
50.527376374678425
30
0
10
7.2002152084025539
20
50.745636281196212
30
0
10
7.1733515498699596
20
50.990755088289816
30
0
10
7.1346187303368325
20
51.26283991749581
30
0
0
SPLINE
5
449
100
AcDbEntity
8
0
100
AcDbSpline
70
0
71
3
72
8
73
4
74
0
42
0.000000001
43
0.0000000001
44
0.0000000001
40
0
40
0
40
0
40
0
40
1
40
1
40
1
40
1
10
-22.626514349204161
20
-46.54913951127029
30
0
10
-22.766095884740345
20
-47.348133275116396
30
0
10
-22.878908552599455
20
-48.394532213775399
30
0
10
-22.882347250156254
20
-49.690832432898794
30
0
0
SPLINE
5
450
100
AcDbEntity
8
0
100
AcDbSpline
70
0
71
3
72
8
73
4
74
0
42
0.000000001
43
0.0000000001
44
0.0000000001
40
0
40
0
40
0
40
0
40
1
40
1
40
1
40
1
10
-50.236245984829552
20
12.453960421739012
30
0
10
-51.046800450997161
20
12.424371621436414
30
0
10
-52.093788134777157
20
12.317160489228609
30
0
10
-53.362476029366661
20
12.051008072628111
30
0
0
SPLINE
5
451
100
AcDbEntity
8
0
100
AcDbSpline
70
0
71
3
72
8
73
4
74
0
42
0.000000001
43
0.0000000001
44
0.0000000001
40
0
40
0
40
0
40
0
40
1
40
1
40
1
40
1
10
-22.626514349204161
20
46.54913951126872
30
0
10
-22.579272613479251
20
46.278402361991411
30
0
10
-22.529075593945365
20
46.036979196220926
30
0
10
-22.47901970426355
20
45.823751293921816
30
0
0
ARC
5
452
100
AcDbEntity
8
0
100
AcDbCircle
10
-2.1671553440683056e-12
20
2.0339285811132868e-12
30
0
40
50.735168787780609
210
0
220
-0
230
1
100
AcDbArc
50
62.566296674994398
51
63.43370332500529
0
ARC
5
453
100
AcDbEntity
8
0
100
AcDbCircle
10
-3.6770586575585185e-12
20
-7.2830630415410269e-13
30
0
40
54.706312648093096
210
0
220
0
230
1
100
AcDbArc
50
245.27419698475393
51
246.72580301524599
0
ARC
5
454
100
AcDbEntity
8
0
100
AcDbCircle
10
-22.86931985517775
20
45.736196784064603
30
0
40
0.40000000000001368
210
0
220
0
230
1
100
AcDbArc
50
-63.436434682250479
51
12.643626975266329
0
SPLINE
5
455
100
AcDbEntity
8
0
100
AcDbSpline
70
0
71
3
72
8
73
4
74
0
42
0.000000001
43
0.0000000001
44
0.0000000001
40
0
40
0
40
0
40
0
40
1
40
1
40
1
40
1
10
-7.1346187303439379
20
-51.262839917497402
30
0
10
-7.0204660078421099
20
-52.065861209664092
30
0
10
-6.8044021757885886
20
-53.095906770469298
30
0
10
-6.4070937739864497
20
-54.329824156924992
30
0
0
ARC
5
456
100
AcDbEntity
8
0
100
AcDbCircle
10
-45.384730378255966
20
23.559111515554108
30
0
40
0.40000000000004526
210
0
220
0
230
1
100
AcDbArc
50
-27.436434682279685
51
48.643626975274444
0
ARC
5
457
100
AcDbEntity
8
0
100
AcDbCircle
10
-45.736196784068959
20
-22.869319855174986
30
0
40
0.40000000000002561
210
0
220
-0
230
1
100
AcDbArc
50
26.563565317729527
51
102.64362697526235
0
ARC
5
458
100
AcDbEntity
8
0
100
AcDbCircle
10
-3.6237679523765109e-12
20
-9.2370555648813024e-13
30
0
40
54.706312648093103
210
0
220
0
230
1
100
AcDbArc
50
149.27419698475401
51
150.72580301524567
0
ARC
5
459
100
AcDbEntity
8
0
100
AcDbCircle
10
49.491550109960571
20
12.860480341803013
30
0
40
0.40000000000002872
210
0
220
0
230
1
100
AcDbArc
50
194.56356531774645
51
270.64362697526525
0
SPLINE
5
460
100
AcDbEntity
8
0
100
AcDbSpline
70
0
71
3
72
8
73
4
74
0
42
0.000000001
43
0.0000000001
44
0.0000000001
40
0
40
0
40
0
40
0
40
1
40
1
40
1
40
1
10
-12.453960421743346
20
-50.236245984826795
30
0
10
-12.424371621440748
20
-51.046800450994397
30
0
10
-12.317160489232961
20
-52.093788134774393
30
0
10
-12.051008072632463
20
-53.362476029363897
30
0
0
SPLINE
5
461
100
AcDbEntity
8
0
100
AcDbSpline
70
0
71
3
72
8
73
4
74
0
42
0.000000001
43
0.0000000001
44
0.0000000001
40
0
40
0
40
0
40
0
40
1
40
1
40
1
40
1
10
-1.737108663120015
20
-51.727787448592998
30
0
10
-1.5396426995346602
20
-52.514477497438683
30
0
10
-1.217093408193648
20
-53.516295540554196
30
0
10
-0.69298201518217084
20
-54.701923361776188
30
0
0
ARC
5
462
100
AcDbEntity
8
0
100
AcDbCircle
10
-8.3813935529912875
20
50.44360939721571
30
0
40
0.39999999999999813
210
0
220
0
230
1
100
AcDbArc
50
203.35637302472648
51
279.43643468231988
0
SPLINE
5
463
100
AcDbEntity
8
0
100
AcDbSpline
70
0
71
3
72
8
73
4
74
0
42
0.000000001
43
0.0000000001
44
0.0000000001
40
0
40
0
40
0
40
0
40
1
40
1
40
1
40
1
10
-24.359513492906757
20
45.666132343600111
30
0
10
-24.923869058177353
20
46.248692929012222
30
0
10
-25.70411396000905
20
46.95501815864931
30
0
10
-26.750821651380861
20
47.719746274755508
30
0
0
ARC
5
464
100
AcDbEntity
8
0
100
AcDbCircle
10
-1.5276668818842154e-12
20
1.900701818158268e-12
30
0
40
50.735168787780445
210
0
220
-0
230
1
100
AcDbArc
50
50.566296674994341
51
51.433703325005361
0
SPLINE
5
465
100
AcDbEntity
8
0
100
AcDbSpline
70
0
71
3
72
8
73
4
74
0
42
0.000000001
43
0.0000000001
44
0.0000000001
40
0
40
0
40
0
40
0
40
1
40
1
40
1
40
1
10
-19.012283572980948
20
47.367241663964315
30
0
10
-19.137248857407254
20
47.547117754924102
30
0
10
-19.283072871681846
20
47.745965039546206
30
0
10
-19.452658891960848
20
47.962231003856516
30
0
0
ARC
5
466
100
AcDbEntity
8
0
100
AcDbCircle
10
-41.983371824834776
20
-11.38624126822438
30
0
40
4.0000000000000737
210
0
220
0
230
1
100
AcDbArc
50
195.17408499759645
51
257.31166776869753
0
SPLINE
5
467
100
AcDbEntity
8
0
100
AcDbSpline
70
0
71
3
72
8
73
4
74
0
42
0.000000001
43
0.0000000001
44
0.0000000001
40
0
40
0
40
0
40
0
40
1
40
1
40
1
40
1
10
53.362476029359541
20
12.051008072628111
30
0
10
52.09378813477008
20
12.317160489228609
30
0
10
51.046800450990077
20
12.424371621436414
30
0
10
50.236245984822418
20
12.453960421739012
30
0
0
ARC
5
468
100
AcDbEntity
8
0
100
AcDbCircle
10
-6.0929039591428591e-12
20
1.127986593019159e-12
30
0
40
50.735168787780609
210
0
220
0
230
1
100
AcDbArc
50
140.56629667499402
51
141.43370332500538
0
SPLINE
5
469
100
AcDbEntity
8
0
100
AcDbSpline
70
0
71
3
72
8
73
4
74
0
42
0.000000001
43
0.0000000001
44
0.0000000001
40
0
40
0
40
0
40
0
40
1
40
1
40
1
40
1
10
-24.359513492906864
20
-45.666132343601689
30
0
10
-24.168250533684663
20
-45.468777672963689
30
0
10
-24.002440157531559
20
-45.286262454692086
30
0
10
-23.859357274642061
20
-45.120434172922188
30
0
0
ARC
5
470
100
AcDbEntity
8
0
100
AcDbCircle
10
-3.5349501104064984e-12
20
-7.9936057773011271e-13
30
0
40
54.706312648093139
210
0
220
0
230
1
100
AcDbArc
50
107.2741969847542
51
108.72580301524597
0
ARC
5
471
100
AcDbEntity
8
0
100
AcDbCircle
10
39.981952192077728
20
31.878660351700603
30
0
40
0.39999999999994146
210
0
220
0
230
1
100
AcDbArc
50
218.56356531775867
51
294.64362697528134
0
SPLINE
5
472
100
AcDbEntity
8
0
100
AcDbSpline
70
0
71
3
72
8
73
4
74
0
42
0.000000001
43
0.0000000001
44
0.0000000001
40
0
40
0
40
0
40
0
40
1
40
1
40
1
40
1
10
9.0556630796536552
20
50.958576383390728
30
0
10
8.9347471431059233
20
50.711777433065009
30
0
10
8.8334524085741251
20
50.486956921329806
30
0
10
8.7486162576466953
20
50.285029810949524
30
0
0
ARC
5
473
100
AcDbEntity
8
0
100
AcDbCircle
10
-2.7355895326763857e-12
20
2.993161274389422e-12
30
0
40
50.735168787779898
210
0
220
-0
230
1
100
AcDbArc
50
74.566296674994291
51
75.433703325005283
0
ARC
5
474
100
AcDbEntity
8
0
100
AcDbCircle
10
-2.8244073746463982e-12
20
-5.2136073236397351e-12
30
0
40
50.735168787779301
210
0
220
0
230
1
100
AcDbArc
50
278.56629667499402
51
279.43370332500501
0
SPLINE
5
475
100
AcDbEntity
8
0
100
AcDbSpline
70
0
71
3
72
8
73
4
74
0
42
0.000000001
43
0.0000000001
44
0.0000000001
40
0
40
0
40
0
40
0
40
1
40
1
40
1
40
1
10
-47.922421375169471
20
17.565990978387713
30
0
10
-48.139713457935258
20
17.593484271715411
30
0
10
-48.385061099655644
20
17.618170714208912
30
0
10
-48.659253228538937
20
17.636853916599016
30
0
0
ARC
5
476
100
AcDbEntity
8
0
100
AcDbCircle
10
43.095154252183633
20
27.524773693695614
30
0
40
0.39999999999992014
210
0
220
0
230
1
100
AcDbArc
50
212.56356531775074
51
288.64362697527804
0
ARC
5
477
100
AcDbEntity
8
0
100
AcDbCircle
10
7.6167536071449682
20
50.564716467087223
30
0
40
0.39999999999999714
210
0
220
0
230
1
100
AcDbArc
50
185.35637302472907
51
261.43643468225122
0
ARC
5
478
100
AcDbEntity
8
0
100
AcDbCircle
10
42.673510353881866
20
28.174048359896915
30
0
40
0.40000000000001973
210
0
220
0
230
1
100
AcDbArc
50
137.35637302472918
51
213.43643468225264
0
ARC
5
479
100
AcDbEntity
8
0
100
AcDbCircle
10
-49.491550109967655
20
-12.860480341804594
30
0
40
0.39999999999999669
210
0
220
-0
230
1
100
AcDbArc
50
14.563565317748981
51
90.643626975272369
0
ARC
5
480
100
AcDbEntity
8
0
100
AcDbCircle
10
-17.963304962609357
20
-47.876143973063598
30
0
40
0.40000000000000024
210
0
220
0
230
1
100
AcDbArc
50
-6.6436269752714772
51
69.436434682250635
0
SPLINE
5
481
100
AcDbEntity
8
0
100
AcDbSpline
70
0
71
3
72
8
73
4
74
0
42
0.000000001
43
0.0000000001
44
0.0000000001
40
0
40
0
40
0
40
0
40
1
40
1
40
1
40
1
10
40.827612273513324
20
-31.810181025540196
30
0
10
41.580125473560358
20
-32.112832514025797
30
0
10
42.580203012299819
20
-32.440738527030987
30
0
10
43.847461016042843
20
-32.713618051161191
30
0
0
SPLINE
5
482
100
AcDbEntity
8
0
100
AcDbSpline
70
0
71
3
72
8
73
4
74
0
42
0.000000001
43
0.0000000001
44
0.0000000001
40
0
40
0
40
0
40
0
40
1
40
1
40
1
40
1
10
48.659253228531853
20
17.636853916599016
30
0
10
48.385061099648524
20
17.618170714208912
30
0
10
48.139713457928138
20
17.593484271715411
30
0
10
47.922421375162386
20
17.565990978387713
30
0
0
SPLINE
5
483
100
AcDbEntity
8
0
100
AcDbSpline
70
0
71
3
72
8
73
4
74
0
42
0.000000001
43
0.0000000001
44
0.0000000001
40
0
40
0
40
0
40
0
40
1
40
1
40
1
40
1
10
-19.452658891960848
20
47.962231003856516
30
0
10
-19.953028695641848
20
48.600591481401608
30
0
10
-20.655168243441864
20
49.384605188087605
30
0
10
-21.61620610576735
20
50.254554790028507
30
0
0
SPLINE
5
484
100
AcDbEntity
8
0
100
AcDbSpline
70
0
71
3
72
8
73
4
74
0
42
0.000000001
43
0.0000000001
44
0.0000000001
40
0
40
0
40
0
40
0
40
1
40
1
40
1
40
1
10
-50.254554790032849
20
21.616206105763016
30
0
10
-49.384605188091953
20
20.655168243437512
30
0
10
-48.600591481405964
20
19.953028695637514
30
0
10
-47.962231003860865
20
19.452658891956514
30
0
0
ARC
5
485
100
AcDbEntity
8
0
100
AcDbCircle
10
4.4408920985006262e-13
20
-3.5882408155885059e-12
30
0
40
50.735168787778939
210
0
220
0
230
1
100
AcDbArc
50
320.56629667499408
51
321.43370332500501
0
ARC
5
486
100
AcDbEntity
8
0
100
AcDbCircle
10
-4.3520742565306136e-12
20
-5.2935433814127464e-12
30
0
40
50.735168787779216
210
0
220
0
230
1
100
AcDbArc
50
254.56629667499402
51
255.43370332500501
0
ARC
5
487
100
AcDbEntity
8
0
100
AcDbCircle
10
-50.443609397220051
20
-8.3813935529885271
30
0
40
0.40000000000000158
210
0
220
0
230
1
100
AcDbArc
50
-66.643626975272582
51
9.4364346822522194
0
SPLINE
5
488
100
AcDbEntity
8
0
100
AcDbSpline
70
0
71
3
72
8
73
4
74
0
42
0.000000001
43
0.0000000001
44
0.0000000001
40
0
40
0
40
0
40
0
40
1
40
1
40
1
40
1
10
-26.750821651380861
20
-47.719746274757085
30
0
10
-25.70411396000905
20
-46.955018158650894
30
0
10
-24.923869058177353
20
-46.248692929013799
30
0
10
-24.359513492906864
20
-45.666132343601689
30
0
0
SPLINE
5
489
100
AcDbEntity
8
0
100
AcDbSpline
70
0
71
3
72
8
73
4
74
0
42
0.000000001
43
0.0000000001
44
0.0000000001
40
0
40
0
40
0
40
0
40
1
40
1
40
1
40
1
10
-47.367241663968649
20
-19.012283572978191
30
0
10
-47.54711775492845
20
-19.137248857404494
30
0
10
-47.745965039550562
20
-19.283072871679092
30
0
10
-47.962231003860865
20
-19.452658891957988
30
0
0
ARC
5
490
100
AcDbEntity
8
0
100
AcDbCircle
10
28.174048359894144
20
42.673510353884616
30
0
40
0.40000000000000568
210
0
220
0
230
1
100
AcDbArc
50
236.56356531775111
51
312.64362697527292
0
ARC
5
491
100
AcDbEntity
8
0
100
AcDbCircle
10
47.598705799226252
20
18.68605611538581
30
0
40
0.39999999999999225
210
0
220
0
230
1
100
AcDbArc
50
125.35637302472601
51
201.43643468226065
0
ARC
5
492
100
AcDbEntity
8
0
100
AcDbCircle
10
-47.598705799233336
20
18.686056115385909
30
0
40
0.39999999999996655
210
0
220
0
230
1
100
AcDbArc
50
-21.436434682273493
51
54.643626975273406
0
ARC
5
493
100
AcDbEntity
8
0
100
AcDbCircle
10
3.5527136788005009e-14
20
-3.4194869158454821e-12
30
0
40
50.735168787779372
210
0
220
0
230
1
100
AcDbArc
50
326.56629667499476
51
327.43370332500575
0
ARC
5
494
100
AcDbEntity
8
0
100
AcDbCircle
10
-3.907985046680551e-12
20
-5.3468340865947539e-12
30
0
40
50.735168787779216
210
0
220
0
230
1
100
AcDbArc
50
266.56629667499499
51
267.43370332500501
0
SPLINE
5
495
100
AcDbEntity
8
0
100
AcDbSpline
70
0
71
3
72
8
73
4
74
0
42
0.000000001
43
0.0000000001
44
0.0000000001
40
0
40
0
40
0
40
0
40
1
40
1
40
1
40
1
10
7.1346187303368325
20
51.26283991749581
30
0
10
7.0204660078350045
20
52.065861209662501
30
0
10
6.804402175781501
20
53.095906770467707
30
0
10
6.4070937739793443
20
54.329824156923401
30
0
0
SPLINE
5
496
100
AcDbEntity
8
0
100
AcDbSpline
70
0
71
3
72
8
73
4
74
0
42
0.000000001
43
0.0000000001
44
0.0000000001
40
0
40
0
40
0
40
0
40
1
40
1
40
1
40
1
10
-17.63685391660335
20
-48.659253228536187
30
0
10
-17.692153219587947
20
-49.468460264353894
30
0
10
-17.694969414825863
20
-50.520919054948898
30
0
10
-17.562889004999054
20
-51.810477447609003
30
0
0
SPLINE
5
497
100
AcDbEntity
8
0
100
AcDbSpline
70
0
71
3
72
8
73
4
74
0
42
0.000000001
43
0.0000000001
44
0.0000000001
40
0
40
0
40
0
40
0
40
1
40
1
40
1
40
1
10
0.69298201517504765
20
-54.701923361776188
30
0
10
1.2170934081865248
20
-53.516295540554196
30
0
10
1.539642699527537
20
-52.514477497438683
30
0
10
1.7371086631128918
20
-51.727787448592998
30
0
0
SPLINE
5
498
100
AcDbEntity
8
0
100
AcDbSpline
70
0
71
3
72
8
73
4
74
0
42
0.000000001
43
0.0000000001
44
0.0000000001
40
0
40
0
40
0
40
0
40
1
40
1
40
1
40
1
10
-32.719038832565346
20
39.173805117514817
30
0
10
-32.893472649617941
20
39.306261049353211
30
0
10
-33.093606718859654
20
39.450313956541905
30
0
10
-33.321722466795251
20
39.603590148877416
30
0
0
ARC
5
499
100
AcDbEntity
8
0
100
AcDbCircle
10
7.6167536071449327
20
-50.564716467088793
30
0
40
0.39999999999992653
210
0
220
0
230
1
100
AcDbArc
50
98.56356531779943
51
174.64362697527301
0
ARC
5
500
100
AcDbEntity
8
0
100
AcDbCircle
10
-3.5527136788005009e-12
20
-7.815970093361102e-13
30
0
40
54.706312648093103
210
0
220
0
230
1
100
AcDbArc
50
251.27419698475398
51
252.72580301524584
0
SPLINE
5
501
100
AcDbEntity
8
0
100
AcDbSpline
70
0
71
3
72
8
73
4
74
0
42
0.000000001
43
0.0000000001
44
0.0000000001
40
0
40
0
40
0
40
0
40
1
40
1
40
1
40
1
10
47.026764259574122
20
27.95110171039731
30
0
10
45.737924750456415
20
27.812181580547115
30
0
10
44.709050229478379
20
27.590608439263313
30
0
10
43.929023680480967
20
27.36827395568821
30
0
0
SPLINE
5
502
100
AcDbEntity
8
0
100
AcDbSpline
70
0
71
3
72
8
73
4
74
0
42
0.000000001
43
0.0000000001
44
0.0000000001
40
0
40
0
40
0
40
0
40
1
40
1
40
1
40
1
10
8.748616257646642
20
-50.285029810951094
30
0
10
8.8334524085740895
20
-50.486956921331398
30
0
10
8.93474714310587
20
-50.711777433066594
30
0
10
9.0556630796536197
20
-50.958576383392298
30
0
0
SPLINE
5
503
100
AcDbEntity
8
0
100
AcDbSpline
70
0
71
3
72
8
73
4
74
0
42
0.000000001
43
0.0000000001
44
0.0000000001
40
0
40
0
40
0
40
0
40
1
40
1
40
1
40
1
10
49.732845424489639
20
14.332676889459615
30
0
10
50.420011783190461
20
14.763578775273007
30
0
10
51.273124148689448
20
15.379920181223312
30
0
10
52.238763886577487
20
16.244758882572814
30
0
0
ARC
5
504
100
AcDbEntity
8
0
100
AcDbCircle
10
-3.5527136788005009e-12
20
-7.9047879353311146e-13
30
0
40
54.706312648093125
210
0
220
0
230
1
100
AcDbArc
50
137.27419698475416
51
138.72580301524599
0
SPLINE
5
505
100
AcDbEntity
8
0
100
AcDbSpline
70
0
71
3
72
8
73
4
74
0
42
0.000000001
43
0.0000000001
44
0.0000000001
40
0
40
0
40
0
40
0
40
1
40
1
40
1
40
1
10
-27.145763586217857
20
-43.223026604267496
30
0
10
-27.217833649451748
20
-43.429854156581399
30
0
10
-27.292991276975656
20
-43.664707763676802
30
0
10
-27.368273955692555
20
-43.929023680485301
30
0
0
SPLINE
5
506
100
AcDbEntity
8
0
100
AcDbSpline
70
0
71
3
72
8
73
4
74
0
42
0.000000001
43
0.0000000001
44
0.0000000001
40
0
40
0
40
0
40
0
40
1
40
1
40
1
40
1
10
-44.66211023330176
20
31.592349597008216
30
0
10
-44.010982124299964
20
30.47144002509441
30
0
10
-43.390084018735763
20
29.621638295652204
30
0
10
-42.869705981139163
20
28.999480166464302
30
0
0
ARC
5
507
100
AcDbEntity
8
0
100
AcDbCircle
10
-12.860480341807357
20
-49.491550109964891
30
0
40
0.39999999999999147
210
0
220
0
230
1
100
AcDbArc
50
-0.64362697527322454
51
75.43643468225882
0
SPLINE
5
508
100
AcDbEntity
8
0
100
AcDbSpline
70
0
71
3
72
8
73
4
74
0
42
0.000000001
43
0.0000000001
44
0.0000000001
40
0
40
0
40
0
40
0
40
1
40
1
40
1
40
1
10
31.810181025535869
20
-40.827612273517687
30
0
10
31.707682216608646
20
-40.572613489674296
30
0
10
31.608387423789637
20
-40.346902546519594
30
0
10
31.515092801698152
20
-40.148741390135392
30
0
0
ARC
5
509
100
AcDbEntity
8
0
100
AcDbCircle
10
45.736196784061875
20
22.869319855173408
30
0
40
0.4000000000000653
210
0
220
0
230
1
100
AcDbArc
50
206.56356531774725
51
282.64362697526064
0
ARC
5
510
100
AcDbEntity
8
0
100
AcDbCircle
10
-4.0856207306205761e-13
20
5.6843418860808015e-13
30
0
40
50.735168787780395
210
0
220
-0
230
1
100
AcDbArc
50
32.566296674995101
51
33.433703325006128
0
SPLINE
5
511
100
AcDbEntity
8
0
100
AcDbSpline
70
0
71
3
72
8
73
4
74
0
42
0.000000001
43
0.0000000001
44
0.0000000001
40
0
40
0
40
0
40
0
40
1
40
1
40
1
40
1
10
5.0287221995962206
20
54.474696847160914
30
0
10
4.383550089474646
20
53.350348577690312
30
0
10
3.9580492563798053
20
52.387734180388925
30
0
10
3.6794335301303782
20
51.625994515664821
30
0
0
ARC
5
512
100
AcDbEntity
8
0
100
AcDbCircle
10
-6.1817218011128716e-12
20
6.1284310959308641e-13
30
0
40
50.735168787780793
210
0
220
0
230
1
100
AcDbArc
50
158.56629667499504
51
159.43370332500604
0
SPLINE
5
513
100
AcDbEntity
8
0
100
AcDbSpline
70
0
71
3
72
8
73
4
74
0
42
0.000000001
43
0.0000000001
44
0.0000000001
40
0
40
0
40
0
40
0
40
1
40
1
40
1
40
1
10
-49.690832432901558
20
-22.882347250153394
30
0
10
-48.394532213778163
20
-22.878908552596688
30
0
10
-47.348133275119153
20
-22.766095884737592
30
0
10
-46.549139511273054
20
-22.626514349201294
30
0
0
ARC
5
514
100
AcDbEntity
8
0
100
AcDbCircle
10
31.878660351697832
20
-39.98195219208209
30
0
40
0.3999999999999998
210
0
220
0
230
1
100
AcDbArc
50
128.56356531774847
51
204.64362697526957
0
SPLINE
5
515
100
AcDbEntity
8
0
100
AcDbSpline
70
0
71
3
72
8
73
4
74
0
42
0.000000001
43
0.0000000001
44
0.0000000001
40
0
40
0
40
0
40
0
40
1
40
1
40
1
40
1
10
-47.962231003860865
20
-19.452658891957988
30
0
10
-48.600591481405964
20
-19.953028695639095
30
0
10
-49.384605188091953
20
-20.655168243439093
30
0
10
-50.254554790032849
20
-21.616206105764594
30
0
0
ARC
5
516
100
AcDbEntity
8
0
100
AcDbCircle
10
-3.5704772471945034e-12
20
-7.9936057773011271e-13
30
0
40
54.706312648093139
210
0
220
0
230
1
100
AcDbArc
50
305.27419698475416
51
306.72580301524584
0
SPLINE
5
517
100
AcDbEntity
8
0
100
AcDbSpline
70
0
71
3
72
8
73
4
74
0
42
0.000000001
43
0.0000000001
44
0.0000000001
40
0
40
0
40
0
40
0
40
1
40
1
40
1
40
1
10
-35.90356909536915
20
37.278885002752702
30
0
10
-35.774977154631657
20
37.035997171912101
30
0
10
-35.652633091046454
20
36.821901829024419
30
0
10
-35.539136065500259
20
36.634578163667101
30
0
0
ARC
5
518
100
AcDbEntity
8
0
100
AcDbCircle
10
-7.6167536071520558
20
50.564716467087223
30
0
40
0.40000000000002561
210
0
220
0
230
1
100
AcDbArc
50
278.56356531774833
51
354.64362697527605
0
ARC
5
519
100
AcDbEntity
8
0
100
AcDbCircle
10
-3.0626864301835255
20
-51.04336821507259
30
0
40
0.3999999999999298
210
0
220
-0
230
1
100
AcDbArc
50
86.56356531770524
51
162.6436269752752
0
SPLINE
5
520
100
AcDbEntity
8
0
100
AcDbSpline
70
0
71
3
72
8
73
4
74
0
42
0.000000001
43
0.0000000001
44
0.0000000001
40
0
40
0
40
0
40
0
40
1
40
1
40
1
40
1
10
14.332676889456852
20
49.732845424492425
30
0
10
14.18662582804755
20
49.50003762167151
30
0
10
14.062385854067454
20
49.28703688316071
30
0
10
13.956907313911238
20
49.095083743105015
30
0
0
ARC
5
521
100
AcDbEntity
8
0
100
AcDbCircle
10
-5.4711790653527714e-12
20
-2.8688162956314045e-12
30
0
40
50.7351687877809
210
0
220
0
230
1
100
AcDbArc
50
230.56629667499502
51
231.43370332500567
0
ARC
5
522
100
AcDbEntity
8
0
100
AcDbCircle
10
8.3813935529841999
20
50.44360939721571
30
0
40
0.40000000000000435
210
0
220
0
230
1
100
AcDbArc
50
260.56356531774668
51
336.64362697527537
0
SPLINE
5
523
100
AcDbEntity
8
0
100
AcDbSpline
70
0
71
3
72
8
73
4
74
0
42
0.000000001
43
0.0000000001
44
0.0000000001
40
0
40
0
40
0
40
0
40
1
40
1
40
1
40
1
10
-23.859357274642061
20
45.12043417292071
30
0
10
-24.002440157531453
20
45.286262454690501
30
0
10
-24.168250533684557
20
45.468777672962105
30
0
10
-24.359513492906757
20
45.666132343600111
30
0
0
ARC
5
524
100
AcDbEntity
8
0
100
AcDbCircle
10
-3.4106051316484809e-12
20
-7.1054273576010019e-13
30
0
40
54.706312648093132
210
0
220
0
230
1
100
AcDbArc
50
119.27419698475435
51
120.72580301524597
0
ARC
5
525
100
AcDbEntity
8
0
100
AcDbCircle
10
39.981952192077728
20
-31.878660351702194
30
0
40
0.39999999999999153
210
0
220
-0
230
1
100
AcDbArc
50
65.356373024719488
51
141.43643468226
0
ARC
5
526
100
AcDbEntity
8
0
100
AcDbCircle
10
-4.6718184876226587e-12
20
3.0819791163594346e-12
30
0
40
50.735168787779713
210
0
220
0
230
1
100
AcDbArc
50
110.56629667499503
51
111.43370332500602
0
SPLINE
5
527
100
AcDbEntity
8
0
100
AcDbSpline
70
0
71
3
72
8
73
4
74
0
42
0.000000001
43
0.0000000001
44
0.0000000001
40
0
40
0
40
0
40
0
40
1
40
1
40
1
40
1
10
-36.634578163671456
20
35.53913606549591
30
0
10
-36.821901829028754
20
35.652633091042105
30
0
10
-37.035997171916449
20
35.774977154627322
30
0
10
-37.27888500275705
20
35.903569095364816
30
0
0
ARC
5
528
100
AcDbEntity
8
0
100
AcDbCircle
10
-3.5527136788005009e-12
20
-7.815970093361102e-13
30
0
40
54.706312648093125
210
0
220
0
230
1
100
AcDbArc
50
125.27419698475417
51
126.72580301524583
0
SPLINE
5
529
100
AcDbEntity
8
0
100
AcDbSpline
70
0
71
3
72
8
73
4
74
0
42
0.000000001
43
0.0000000001
44
0.0000000001
40
0
40
0
40
0
40
0
40
1
40
1
40
1
40
1
10
21.616206105760245
20
50.254554790028507
30
0
10
20.655168243434758
20
49.384605188087605
30
0
10
19.953028695634742
20
48.600591481401608
30
0
10
19.452658891953742
20
47.962231003856516
30
0
0
ARC
5
530
100
AcDbEntity
8
0
100
AcDbCircle
10
-3.3750779948604759e-12
20
-7.460698725481052e-13
30
0
40
54.706312648093075
210
0
220
0
230
1
100
AcDbArc
50
101.2741969847544
51
102.72580301524602
0
SPLINE
5
531
100
AcDbEntity
8
0
100
AcDbSpline
70
0
71
3
72
8
73
4
74
0
42
0.000000001
43
0.0000000001
44
0.0000000001
40
0
40
0
40
0
40
0
40
1
40
1
40
1
40
1
10
-50.236245984829552
20
-12.45396042174049
30
0
10
-49.961602982682862
20
-12.464040449760194
30
0
10
-49.715018945117457
20
-12.465135054137093
30
0
10
-49.496043379415049
20
-12.460505579438692
30
0
0
SPLINE
5
532
100
AcDbEntity
8
0
100
AcDbSpline
70
0
71
3
72
8
73
4
74
0
42
0.000000001
43
0.0000000001
44
0.0000000001
40
0
40
0
40
0
40
0
40
1
40
1
40
1
40
1
10
35.539136065493153
20
36.634578163667101
30
0
10
35.652633091039334
20
36.821901829024419
30
0
10
35.774977154624565
20
37.035997171912101
30
0
10
35.903569095362045
20
37.278885002752702
30
0
0
ARC
5
533
100
AcDbEntity
8
0
100
AcDbCircle
10
-3.4106051316484809e-12
20
-8.2600593032111647e-13
30
0
40
54.706312648093096
210
0
220
0
230
1
100
AcDbArc
50
257.27419698475398
51
258.72580301524596
0
SPLINE
5
534
100
AcDbEntity
8
0
100
AcDbSpline
70
0
71
3
72
8
73
4
74
0
42
0.000000001
43
0.0000000001
44
0.0000000001
40
0
40
0
40
0
40
0
40
1
40
1
40
1
40
1
10
12.453960421736241
20
50.236245984825203
30
0
10
12.424371621433643
20
51.046800450992826
30
0
10
12.317160489225856
20
52.093788134772808
30
0
10
12.051008072625358
20
53.362476029362327
30
0
0
ARC
5
535
100
AcDbEntity
8
0
100
AcDbCircle
10
2.2895761260615899
20
-51.083885209252095
30
0
40
0.39999999999999492
210
0
220
0
230
1
100
AcDbArc
50
92.563565317741947
51
168.64362697527244
0
ARC
5
536
100
AcDbEntity
8
0
100
AcDbCircle
10
3.0626864301764378
20
51.043368215071006
30
0
40
0.39999999999998476
210
0
220
0
230
1
100
AcDbArc
50
266.56356531774384
51
342.64362697527713
0
ARC
5
537
100
AcDbEntity
8
0
100
AcDbCircle
10
-3.7836400679225335e-12
20
-8.1712414612411521e-13
30
0
40
54.706312648093089
210
0
220
0
230
1
100
AcDbArc
50
95.274196984753928
51
96.725803015244978
0
ARC
5
538
100
AcDbEntity
8
0
100
AcDbCircle
10
-17.963304962609357
20
47.876143973062014
30
0
40
0.40000000000004282
210
0
220
0
230
1
100
AcDbArc
50
-69.436434682260995
51
6.6436269752739632
0
SPLINE
5
539
100
AcDbEntity
8
0
100
AcDbSpline
70
0
71
3
72
8
73
4
74
0
42
0.000000001
43
0.0000000001
44
0.0000000001
40
0
40
0
40
0
40
0
40
1
40
1
40
1
40
1
10
-22.882347250156254
20
49.690832432897203
30
0
10
-22.878908552599455
20
48.394532213773829
30
0
10
-22.766095884740345
20
47.348133275114819
30
0
10
-22.626514349204161
20
46.54913951126872
30
0
0
ARC
5
540
100
AcDbEntity
8
0
100
AcDbCircle
10
43.095154252183633
20
-27.524773693697291
30
0
40
0.40000000000001645
210
0
220
-0
230
1
100
AcDbArc
50
71.356373024721591
51
147.43643468225045
0
SPLINE
5
541
100
AcDbEntity
8
0
100
AcDbSpline
70
0
71
3
72
8
73
4
74
0
42
0.000000001
43
0.0000000001
44
0.0000000001
40
0
40
0
40
0
40
0
40
1
40
1
40
1
40
1
10
-1.8974075686583269
20
-51.005120860853495
30
0
10
-1.8564082981142604
20
-51.220273806976891
30
0
10
-1.8040699092904156
20
-51.461241810653895
30
0
10
-1.737108663120015
20
-51.727787448592998
30
0
0
SPLINE
5
542
100
AcDbEntity
8
0
100
AcDbSpline
70
0
71
3
72
8
73
4
74
0
42
0.000000001
43
0.0000000001
44
0.0000000001
40
0
40
0
40
0
40
0
40
1
40
1
40
1
40
1
10
42.379277763017868
20
28.445022865106324
30
0
10
42.52924138624094
20
28.604655700452
30
0
10
42.693424863236856
20
28.788635785304422
30
0
10
42.869705981132057
20
28.999480166464213
30
0
0
SPLINE
5
543
100
AcDbEntity
8
0
100
AcDbSpline
70
0
71
3
72
8
73
4
74
0
42
0.000000001
43
0.0000000001
44
0.0000000001
40
0
40
0
40
0
40
0
40
1
40
1
40
1
40
1
10
39.173805117512046
20
32.719038832561012
30
0
10
39.306261049350439
20
32.893472649613607
30
0
10
39.450313956539134
20
33.09360671885532
30
0
10
39.603590148874659
20
33.321722466790916
30
0
0
ARC
5
544
100
AcDbEntity
8
0
100
AcDbCircle
10
-3.5704772471945034e-12
20
-7.815970093361102e-13
30
0
40
54.706312648093103
210
0
220
0
230
1
100
AcDbArc
50
269.27419698475416
51
270.72580301524584
0
ARC
5
545
100
AcDbEntity
8
0
100
AcDbCircle
10
-5.0093262871087063e-12
20
-1.5187850976872141e-12
30
0
40
50.735168787782115
210
0
220
0
230
1
100
AcDbArc
50
194.56629667499416
51
195.43370332500493
0
ARC
5
546
100
AcDbEntity
8
0
100
AcDbCircle
10
8.3813935529841466
20
-50.443609397217287
30
0
40
0.39999999999999813
210
0
220
-0
230
1
100
AcDbArc
50
23.35637302472648
51
99.436434682309013
0
ARC
5
547
100
AcDbEntity
8
0
100
AcDbCircle
10
-23.802534329291802
20
36.410017296112635
30
0
40
4.0000000000000568
210
0
220
0
230
1
100
AcDbArc
50
123.17408499759614
51
185.31166776869759
0
SPLINE
5
548
100
AcDbEntity
8
0
100
AcDbSpline
70
0
71
3
72
8
73
4
74
0
42
0.000000001
43
0.0000000001
44
0.0000000001
40
0
40
0
40
0
40
0
40
1
40
1
40
1
40
1
10
-33.321722466795251
20
39.603590148877416
30
0
10
-33.994866665242256
20
40.056084267982506
30
0
10
-34.904914616714748
20
40.584752559898014
30
0
10
-36.087745149335255
20
41.115146765975808
30
0
0
ARC
5
549
100
AcDbEntity
8
0
100
AcDbCircle
10
-3.5527136788005009e-12
20
-7.9936057773011271e-13
30
0
40
54.706312648093125
210
0
220
0
230
1
100
AcDbArc
50
197.27419698475416
51
198.72580301524576
0
ARC
5
550
100
AcDbEntity
8
0
100
AcDbCircle
10
-7.815970093361102e-13
20
-3.979039320256561e-12
30
0
40
50.735168787779514
210
0
220
0
230
1
100
AcDbArc
50
308.56629667499431
51
309.43370332500501
0
ARC
5
551
100
AcDbEntity
8
0
100
AcDbCircle
10
-3.5527136788005009e-12
20
-7.9047879353311146e-13
30
0
40
54.706312648093103
210
0
220
0
230
1
100
AcDbArc
50
161.27419698475424
51
162.72580301524582
0
SPLINE
5
552
100
AcDbEntity
8
0
100
AcDbSpline
70
0
71
3
72
8
73
4
74
0
42
0.000000001
43
0.0000000001
44
0.0000000001
40
0
40
0
40
0
40
0
40
1
40
1
40
1
40
1
10
28.99948016646146
20
-42.869705981136399
30
0
10
29.621638295649451
20
-43.390084018732999
30
0
10
30.471440025091656
20
-44.010982124297193
30
0
10
31.592349597005445
20
-44.662110233299003
30
0
0
SPLINE
5
553
100
AcDbEntity
8
0
100
AcDbSpline
70
0
71
3
72
8
73
4
74
0
42
0.000000001
43
0.0000000001
44
0.0000000001
40
0
40
0
40
0
40
0
40
1
40
1
40
1
40
1
10
-47.026764259581256
20
-27.951101710398895
30
0
10
-45.737924750463549
20
-27.812181580548692
30
0
10
-44.709050229485463
20
-27.59060843926499
30
0
10
-43.929023680488051
20
-27.368273955689794
30
0
0
SPLINE
5
554
100
AcDbEntity
8
0
100
AcDbSpline
70
0
71
3
72
8
73
4
74
0
42
0.000000001
43
0.0000000001
44
0.0000000001
40
0
40
0
40
0
40
0
40
1
40
1
40
1
40
1
10
40.827612273513324
20
31.810181025538604
30
0
10
40.572613489669948
20
31.707682216611417
30
0
10
40.346902546515281
20
31.608387423792408
30
0
10
40.148741390131079
20
31.515092801701012
30
0
0
SPLINE
5
555
100
AcDbEntity
8
0
100
AcDbSpline
70
0
71
3
72
8
73
4
74
0
42
0.000000001
43
0.0000000001
44
0.0000000001
40
0
40
0
40
0
40
0
40
1
40
1
40
1
40
1
10
-16.244758882577148
20
-52.2387638865818
30
0
10
-15.379920181227753
20
-51.273124148693796
30
0
10
-14.76357877527736
20
-50.420011783194795
30
0
10
-14.332676889463958
20
-49.732845424493995
30
0
0
SPLINE
5
556
100
AcDbEntity
8
0
100
AcDbSpline
70
0
71
3
72
8
73
4
74
0
42
0.000000001
43
0.0000000001
44
0.0000000001
40
0
40
0
40
0
40
0
40
1
40
1
40
1
40
1
10
37.278885002749931
20
35.903569095364816
30
0
10
37.035997171909329
20
35.774977154627322
30
0
10
36.821901829021648
20
35.652633091042105
30
0
10
36.634578163664351
20
35.53913606549591
30
0
0
ARC
5
557
100
AcDbEntity
8
0
100
AcDbCircle
10
2.2895761260616077
20
51.083885209250504
30
0
40
0.39999999999999508
210
0
220
0
230
1
100
AcDbArc
50
191.35637302472452
51
267.43643468225036
0
ARC
5
558
100
AcDbEntity
8
0
100
AcDbCircle
10
-3.7481129311345285e-12
20
-8.4376949871511897e-13
30
0
40
54.706312648093103
210
0
220
0
230
1
100
AcDbArc
50
281.27419698475398
51
282.72580301524596
0
ARC
5
559
100
AcDbEntity
8
0
100
AcDbCircle
10
-3.5527136788005009e-12
20
-7.9936057773011271e-13
30
0
40
54.706312648093117
210
0
220
0
230
1
100
AcDbArc
50
323.27419698475398
51
324.72580301524602
0
SPLINE
5
560
100
AcDbEntity
8
0
100
AcDbSpline
70
0
71
3
72
8
73
4
74
0
42
0.000000001
43
0.0000000001
44
0.0000000001
40
0
40
0
40
0
40
0
40
1
40
1
40
1
40
1
10
-9.0556630796607429
20
50.958576383390728
30
0
10
-9.4123759963733633
20
51.68701988482232
30
0
10
-9.936166495052845
20
52.599884031532724
30
0
10
-10.695330681635156
20
53.650634154326404
30
0
0
ARC
5
561
100
AcDbEntity
8
0
100
AcDbCircle
10
7.1054273576010019e-14
20
3.2862601528904634e-13
30
0
40
50.735168787779948
210
0
220
-0
230
1
100
AcDbArc
50
20.566296674994835
51
21.433703325005688
0
SPLINE
5
562
100
AcDbEntity
8
0
100
AcDbSpline
70
0
71
3
72
8
73
4
74
0
42
0.000000001
43
0.0000000001
44
0.0000000001
40
0
40
0
40
0
40
0
40
1
40
1
40
1
40
1
10
39.603590148874659
20
-33.321722466792487
30
0
10
39.450313956539134
20
-33.09360671885689
30
0
10
39.306261049350439
20
-32.893472649615191
30
0
10
39.173805117512046
20
-32.719038832562589
30
0
0
ARC
5
563
100
AcDbEntity
8
0
100
AcDbCircle
10
-43.095154252190753
20
27.524773693695614
30
0
40
0.40000000000000929
210
0
220
0
230
1
100
AcDbArc
50
251.35637302472674
51
327.4364346823437
0
SPLINE
5
564
100
AcDbEntity
8
0
100
AcDbSpline
70
0
71
3
72
8
73
4
74
0
42
0.000000001
43
0.0000000001
44
0.0000000001
40
0
40
0
40
0
40
0
40
1
40
1
40
1
40
1
10
-46.549139511273054
20
22.626514349199809
30
0
10
-47.348133275119046
20
22.766095884736011
30
0
10
-48.394532213778163
20
22.878908552595103
30
0
10
-49.690832432901558
20
22.882347250151902
30
0
0
SPLINE
5
565
100
AcDbEntity
8
0
100
AcDbSpline
70
0
71
3
72
8
73
4
74
0
42
0.000000001
43
0.0000000001
44
0.0000000001
40
0
40
0
40
0
40
0
40
1
40
1
40
1
40
1
10
43.847461016042843
20
32.7136180511596
30
0
10
42.580203012299819
20
32.44073852702941
30
0
10
41.580125473560358
20
32.112832514024099
30
0
10
40.827612273513324
20
31.810181025538604
30
0
0
ARC
5
566
100
AcDbEntity
8
0
100
AcDbCircle
10
-2.5934809855243657e-12
20
2.6645352591003757e-12
30
0
40
50.735168787780125
210
0
220
-0
230
1
100
AcDbArc
50
68.566296674994149
51
69.433703325005069
0
SPLINE
5
567
100
AcDbEntity
8
0
100
AcDbSpline
70
0
71
3
72
8
73
4
74
0
42
0.000000001
43
0.0000000001
44
0.0000000001
40
0
40
0
40
0
40
0
40
1
40
1
40
1
40
1
10
45.66613234359734
20
24.359513492902416
30
0
10
46.248692929009451
20
24.923869058173011
30
0
10
46.955018158646581
20
25.704113960004705
30
0
10
47.719746274752723
20
26.750821651376508
30
0
0
ARC
5
568
100
AcDbEntity
8
0
100
AcDbCircle
10
-32.480304434614347
20
-39.494750420075889
30
0
40
0.40000000000007963
210
0
220
-0
230
1
100
AcDbArc
50
50.563565317715636
51
126.64362697525908
0
SPLINE
5
569
100
AcDbEntity
8
0
100
AcDbSpline
70
0
71
3
72
8
73
4
74
0
42
0.000000001
43
0.0000000001
44
0.0000000001
40
0
40
0
40
0
40
0
40
1
40
1
40
1
40
1
10
37.117717146785836
20
-40.187755813952997
30
0
10
36.713867953545858
20
-38.955963659464388
30
0
10
36.283221675716248
20
-37.995640161757585
30
0
10
35.903569095362045
20
-37.278885002754294
30
0
0
ARC
5
570
100
AcDbEntity
8
0
100
AcDbCircle
10
-3.4994229736184934e-12
20
-8.9706020389712648e-13
30
0
40
54.70631264809316
210
0
220
0
230
1
100
AcDbArc
50
203.27419698475407
51
204.72580301524596
0
SPLINE
5
571
100
AcDbEntity
8
0
100
AcDbSpline
70
0
71
3
72
8
73
4
74
0
42
0.000000001
43
0.0000000001
44
0.0000000001
40
0
40
0
40
0
40
0
40
1
40
1
40
1
40
1
10
-49.095083743109349
20
-13.95690731391559
30
0
10
-49.287036883165065
20
-14.062385854071788
30
0
10
-49.500037621675858
20
-14.186625828051893
30
0
10
-49.732845424496759
20
-14.332676889461196
30
0
0
SPLINE
5
572
100
AcDbEntity
8
0
100
AcDbSpline
70
0
71
3
72
8
73
4
74
0
42
0.000000001
43
0.0000000001
44
0.0000000001
40
0
40
0
40
0
40
0
40
1
40
1
40
1
40
1
10
-27.368273955692555
20
43.929023680483716
30
0
10
-27.292991276975549
20
43.664707763675317
30
0
10
-27.217833649451659
20
43.429854156579815
30
0
10
-27.14576358621775
20
43.223026604265904
30
0
0
ARC
5
573
100
AcDbEntity
8
0
100
AcDbCircle
10
-2.2895761260686953
20
51.083885209250504
30
0
40
0.39999999999998764
210
0
220
0
230
1
100
AcDbArc
50
272.56356531774708
51
348.64362697527542
0
SPLINE
5
574
100
AcDbEntity
8
0
100
AcDbSpline
70
0
71
3
72
8
73
4
74
0
42
0.000000001
43
0.0000000001
44
0.0000000001
40
0
40
0
40
0
40
0
40
1
40
1
40
1
40
1
10
44.662110233294626
20
-31.592349597009793
30
0
10
44.01098212429288
20
-30.471440025095994
30
0
10
43.390084018728658
20
-29.621638295653796
30
0
10
42.869705981132057
20
-28.999480166465894
30
0
0
SPLINE
5
575
100
AcDbEntity
8
0
100
AcDbSpline
70
0
71
3
72
8
73
4
74
0
42
0.000000001
43
0.0000000001
44
0.0000000001
40
0
40
0
40
0
40
0
40
1
40
1
40
1
40
1
10
-39.173805117519152
20
-32.719038832562589
30
0
10
-39.306261049357545
20
-32.893472649615191
30
0
10
-39.450313956546253
20
-33.09360671885689
30
0
10
-39.603590148881764
20
-33.321722466792487
30
0
0
SPLINE
5
576
100
AcDbEntity
8
0
100
AcDbSpline
70
0
71
3
72
8
73
4
74
0
42
0.000000001
43
0.0000000001
44
0.0000000001
40
0
40
0
40
0
40
0
40
1
40
1
40
1
40
1
10
17.56599097838496
20
47.922421375165115
30
0
10
17.593484271712647
20
48.139713457930924
30
0
10
17.618170714206158
20
48.38506109965131
30
0
10
17.636853916596245
20
48.659253228534602
30
0
0
ARC
5
577
100
AcDbEntity
8
0
100
AcDbCircle
10
-4.9737991503207013e-12
20
-1.2168044349891716e-12
30
0
40
50.735168787782314
210
0
220
0
230
1
100
AcDbArc
50
206.56629667499499
51
207.43370332500496
0
ARC
5
578
100
AcDbEntity
8
0
100
AcDbCircle
10
35.883277735850925
20
-36.430699496998386
30
0
40
0.39999999999997099
210
0
220
0
230
1
100
AcDbArc
50
134.56356531768381
51
210.64362697527574
0
SPLINE
5
579
100
AcDbEntity
8
0
100
AcDbSpline
70
0
71
3
72
8
73
4
74
0
42
0.000000001
43
0.0000000001
44
0.0000000001
40
0
40
0
40
0
40
0
40
1
40
1
40
1
40
1
10
-40.827612273520444
20
-31.810181025540196
30
0
10
-40.572613489677067
20
-31.707682216612994
30
0
10
-40.346902546522365
20
-31.608387423793992
30
0
10
-40.148741390138163
20
-31.51509280170259
30
0
0
SPLINE
5
580
100
AcDbEntity
8
0
100
AcDbSpline
70
0
71
3
72
8
73
4
74
0
42
0.000000001
43
0.0000000001
44
0.0000000001
40
0
40
0
40
0
40
0
40
1
40
1
40
1
40
1
10
-12.460505579441445
20
-49.4960433794122
30
0
10
-12.465135054139864
20
-49.715018945114693
30
0
10
-12.464040449763054
20
-49.961602982680098
30
0
10
-12.453960421743346
20
-50.236245984826795
30
0
0
SPLINE
5
581
100
AcDbEntity
8
0
100
AcDbSpline
70
0
71
3
72
8
73
4
74
0
42
0.000000001
43
0.0000000001
44
0.0000000001
40
0
40
0
40
0
40
0
40
1
40
1
40
1
40
1
10
-39.603590148881764
20
-33.321722466792487
30
0
10
-40.056084267986861
20
-33.994866665239492
30
0
10
-40.584752559902348
20
-34.904914616711984
30
0
10
-41.115146765980164
20
-36.087745149332491
30
0
0
SPLINE
5
582
100
AcDbEntity
8
0
100
AcDbSpline
70
0
71
3
72
8
73
4
74
0
42
0.000000001
43
0.0000000001
44
0.0000000001
40
0
40
0
40
0
40
0
40
1
40
1
40
1
40
1
10
-35.90356909536915
20
-37.278885002754294
30
0
10
-36.28322167572346
20
-37.995640161757585
30
0
10
-36.713867953553049
20
-38.955963659464388
30
0
10
-37.117717146793048
20
-40.18775581395289
30
0
0
SPLINE
5
583
100
AcDbEntity
8
0
100
AcDbSpline
70
0
71
3
72
8
73
4
74
0
42
0.000000001
43
0.0000000001
44
0.0000000001
40
0
40
0
40
0
40
0
40
1
40
1
40
1
40
1
10
-46.549139511273054
20
-22.626514349201294
30
0
10
-46.278402361995759
20
-22.579272613476491
30
0
10
-46.036979196225261
20
-22.529075593942594
30
0
10
-45.823751293926165
20
-22.47901970426069
30
0
0
ARC
5
584
100
AcDbEntity
8
0
100
AcDbCircle
10
-47.598705799233336
20
-18.686056115387395
30
0
40
0.39999999999998137
210
0
220
0
230
1
100
AcDbArc
50
-54.643626975272824
51
21.436434682253189
0
ARC
5
585
100
AcDbEntity
8
0
100
AcDbCircle
10
-3.6770586575585185e-12
20
-8.4376949871511897e-13
30
0
40
54.706312648093103
210
0
220
0
230
1
100
AcDbArc
50
113.27419698475401
51
114.7258030152457
0
ARC
5
586
100
AcDbEntity
8
0
100
AcDbCircle
10
-3.3217872896784684e-12
20
-8.2600593032111647e-13
30
0
40
54.706312648093132
210
0
220
-0
230
1
100
AcDbArc
50
83.274196984754425
51
84.725803015245489
0
SPLINE
5
587
100
AcDbEntity
8
0
100
AcDbSpline
70
0
71
3
72
8
73
4
74
0
42
0.000000001
43
0.0000000001
44
0.0000000001
40
0
40
0
40
0
40
0
40
1
40
1
40
1
40
1
10
-51.810477447611767
20
-17.562889004996293
30
0
10
-50.520919054951662
20
-17.694969414823092
30
0
10
-49.468460264356658
20
-17.69215321958519
30
0
10
-48.659253228538937
20
-17.636853916600593
30
0
0
SPLINE
5
588
100
AcDbEntity
8
0
100
AcDbSpline
70
0
71
3
72
8
73
4
74
0
42
0.000000001
43
0.0000000001
44
0.0000000001
40
0
40
0
40
0
40
0
40
1
40
1
40
1
40
1
10
-31.59234959701255
20
-44.662110233299003
30
0
10
-30.471440025098762
20
-44.010982124297193
30
0
10
-29.621638295656556
20
-43.390084018732999
30
0
10
-28.999480166468654
20
-42.869705981136399
30
0
0
ARC
5
589
100
AcDbEntity
8
0
100
AcDbCircle
10
-3.7836400679225335e-12
20
-7.638334409421077e-13
30
0
40
54.706312648093132
210
0
220
0
230
1
100
AcDbArc
50
263.27419698475444
51
264.72580301524607
0
SPLINE
5
590
100
AcDbEntity
8
0
100
AcDbSpline
70
0
71
3
72
8
73
4
74
0
42
0.000000001
43
0.0000000001
44
0.0000000001
40
0
40
0
40
0
40
0
40
1
40
1
40
1
40
1
10
-50.958576383395062
20
-9.0556630796579825
30
0
10
-51.687019884826661
20
-9.4123759963706028
30
0
10
-52.599884031537059
20
-9.9361664950500845
30
0
10
-53.65063415433076
20
-10.695330681632393
30
0
0
SPLINE
5
591
100
AcDbEntity
8
0
100
AcDbSpline
70
0
71
3
72
8
73
4
74
0
42
0.000000001
43
0.0000000001
44
0.0000000001
40
0
40
0
40
0
40
0
40
1
40
1
40
1
40
1
10
19.452658891953742
20
47.962231003856516
30
0
10
19.28307287167474
20
47.745965039546206
30
0
10
19.137248857400149
20
47.547117754924102
30
0
10
19.012283572973949
20
47.367241663964315
30
0
0
SPLINE
5
592
100
AcDbEntity
8
0
100
AcDbSpline
70
0
71
3
72
8
73
4
74
0
42
0.000000001
43
0.0000000001
44
0.0000000001
40
0
40
0
40
0
40
0
40
1
40
1
40
1
40
1
10
43.223026604263154
20
-27.145763586215097
30
0
10
43.429854156577065
20
-27.217833649448991
30
0
10
43.664707763672425
20
-27.292991276972892
30
0
10
43.929023680480967
20
-27.368273955689794
30
0
0
ARC
5
593
100
AcDbEntity
8
0
100
AcDbCircle
10
-3.5882408155885059e-12
20
-6.1284310959308641e-13
30
0
40
54.706312648093103
210
0
220
0
230
1
100
AcDbArc
50
191.27419698475441
51
192.72580301524593
0
ARC
5
594
100
AcDbEntity
8
0
100
AcDbCircle
10
-3.5527136788005009e-12
20
-7.7271522513910895e-13
30
0
40
54.706312648093146
210
0
220
0
230
1
100
AcDbArc
50
215.27419698475413
51
216.72580301524599
0
ARC
5
595
100
AcDbEntity
8
0
100
AcDbCircle
10
-3.6237679523765109e-12
20
-6.6613381477509392e-13
30
0
40
54.706312648093125
210
0
220
0
230
1
100
AcDbArc
50
209.2741969847543
51
210.72580301524602
0
ARC
5
596
100
AcDbEntity
8
0
100
AcDbCircle
10
-43.095154252190753
20
-27.524773693697291
30
0
40
0.39999999999995917
210
0
220
-0
230
1
100
AcDbArc
50
32.563565317736035
51
108.64362697527631
0
SPLINE
5
597
100
AcDbEntity
8
0
100
AcDbSpline
70
0
71
3
72
8
73
4
74
0
42
0.000000001
43
0.0000000001
44
0.0000000001
40
0
40
0
40
0
40
0
40
1
40
1
40
1
40
1
10
1.8974075686512215
20
51.005120860851925
30
0
10
1.856408298107155
20
51.220273806975314
30
0
10
1.8040699092833101
20
51.461241810652325
30
0
10
1.7371086631129096
20
51.727787448591407
30
0
0
SPLINE
5
598
100
AcDbEntity
8
0
100
AcDbSpline
70
0
71
3
72
8
73
4
74
0
42
0.000000001
43
0.0000000001
44
0.0000000001
40
0
40
0
40
0
40
0
40
1
40
1
40
1
40
1
10
12.46050557943434
20
49.496043379410608
30
0
10
12.465135054132759
20
49.715018945113115
30
0
10
12.464040449755949
20
49.961602982678528
30
0
10
12.453960421736241
20
50.236245984825203
30
0
0
ARC
5
599
100
AcDbEntity
8
0
100
AcDbCircle
10
-35.883277735858158
20
-36.430699496998386
30
0
40
0.39999999999999875
210
0
220
0
230
1
100
AcDbArc
50
-30.643626975271719
51
45.436434682251388
0
ARC
5
600
100
AcDbEntity
8
0
100
AcDbCircle
10
12.860480341800251
20
49.49155010996332
30
0
40
0.3999999999999912
210
0
220
0
230
1
100
AcDbArc
50
179.35637302472963
51
255.4364346822515
0
SPLINE
5
601
100
AcDbEntity
8
0
100
AcDbSpline
70
0
71
3
72
8
73
4
74
0
42
0.000000001
43
0.0000000001
44
0.0000000001
40
0
40
0
40
0
40
0
40
1
40
1
40
1
40
1
10
32.71361805115685
20
-43.847461016047191
30
0
10
32.440738527026625
20
-42.580203012304196
30
0
10
32.112832514021363
20
-41.580125473564699
30
0
10
31.810181025535869
20
-40.827612273517687
30
0
0
SPLINE
5
602
100
AcDbEntity
8
0
100
AcDbSpline
70
0
71
3
72
8
73
4
74
0
42
0.000000001
43
0.0000000001
44
0.0000000001
40
0
40
0
40
0
40
0
40
1
40
1
40
1
40
1
10
3.6794335301303782
20
51.625994515664821
30
0
10
3.5849774987483052
20
51.367908398780102
30
0
10
3.5077378099736656
20
51.133731294393812
30
0
10
3.4444735308976782
20
50.924042569366215
30
0
0
ARC
5
603
100
AcDbEntity
8
0
100
AcDbCircle
10
-2.7533531010703882e-12
20
2.2026824808563106e-12
30
0
40
50.735168787780651
210
0
220
-0
230
1
100
AcDbArc
50
80.566296674994874
51
81.433703325005851
0
ARC
5
604
100
AcDbEntity
8
0
100
AcDbCircle
10
32.480304434607135
20
-39.494750420075889
30
0
40
0.40000000000002278
210
0
220
-0
230
1
100
AcDbArc
50
53.356373024719566
51
129.43643468228498
0
SPLINE
5
605
100
AcDbEntity
8
0
100
AcDbSpline
70
0
71
3
72
8
73
4
74
0
42
0.000000001
43
0.0000000001
44
0.0000000001
40
0
40
0
40
0
40
0
40
1
40
1
40
1
40
1
10
-36.087745149335255
20
-41.115146765977393
30
0
10
-34.904914616714748
20
-40.584752559899584
30
0
10
-33.994866665242256
20
-40.056084267984097
30
0
10
-33.321722466795251
20
-39.603590148878894
30
0
0
SPLINE
5
606
100
AcDbEntity
8
0
100
AcDbSpline
70
0
71
3
72
8
73
4
74
0
42
0.000000001
43
0.0000000001
44
0.0000000001
40
0
40
0
40
0
40
0
40
1
40
1
40
1
40
1
10
35.903569095362045
20
-37.278885002754294
30
0
10
35.774977154624565
20
-37.035997171913692
30
0
10
35.652633091039334
20
-36.82190182902599
30
0
10
35.539136065493047
20
-36.634578163668785
30
0
0
SPLINE
5
607
100
AcDbEntity
8
0
100
AcDbSpline
70
0
71
3
72
8
73
4
74
0
42
0.000000001
43
0.0000000001
44
0.0000000001
40
0
40
0
40
0
40
0
40
1
40
1
40
1
40
1
10
-42.869705981139163
20
-28.999480166465794
30
0
10
-43.390084018735763
20
-29.621638295653796
30
0
10
-44.010982124299964
20
-30.471440025095994
30
0
10
-44.66211023330176
20
-31.592349597009793
30
0
0
SPLINE
5
608
100
AcDbEntity
8
0
100
AcDbSpline
70
0
71
3
72
8
73
4
74
0
42
0.000000001
43
0.0000000001
44
0.0000000001
40
0
40
0
40
0
40
0
40
1
40
1
40
1
40
1
10
-49.732845424496759
20
-14.332676889461196
30
0
10
-50.420011783197552
20
-14.763578775274588
30
0
10
-51.27312414869656
20
-15.379920181224991
30
0
10
-52.238763886584564
20
-16.244758882574391
30
0
0
ARC
5
609
100
AcDbEntity
8
0
100
AcDbCircle
10
-3.5527136788005009e-12
20
-7.9047879353311146e-13
30
0
40
54.706312648093103
210
0
220
0
230
1
100
AcDbArc
50
233.27419698475396
51
234.72580301524604
0
SPLINE
5
610
100
AcDbEntity
8
0
100
AcDbSpline
70
0
71
3
72
8
73
4
74
0
42
0.000000001
43
0.0000000001
44
0.0000000001
40
0
40
0
40
0
40
0
40
1
40
1
40
1
40
1
10
-5.028722199603326
20
-54.474696847162498
30
0
10
-4.3835500894817336
20
-53.350348577691889
30
0
10
-3.9580492563869107
20
-52.387734180390495
30
0
10
-3.6794335301374659
20
-51.625994515666392
30
0
0
SPLINE
5
611
100
AcDbEntity
8
0
100
AcDbSpline
70
0
71
3
72
8
73
4
74
0
42
0.000000001
43
0.0000000001
44
0.0000000001
40
0
40
0
40
0
40
0
40
1
40
1
40
1
40
1
10
10.69533068162805
20
53.650634154326404
30
0
10
9.9361664950457573
20
52.599884031532724
30
0
10
9.4123759963662756
20
51.68701988482232
30
0
10
9.0556630796536552
20
50.958576383390728
30
0
0
ARC
5
612
100
AcDbEntity
8
0
100
AcDbCircle
10
13.608272374106054
20
49.291179838800616
30
0
40
0.40000000000001418
210
0
220
0
230
1
100
AcDbArc
50
254.56356531774907
51
330.64362697526587
0
SPLINE
5
613
100
AcDbEntity
8
0
100
AcDbSpline
70
0
71
3
72
8
73
4
74
0
42
0.000000001
43
0.0000000001
44
0.0000000001
40
0
40
0
40
0
40
0
40
1
40
1
40
1
40
1
10
54.701923361771833
20
0.69298201517781877
30
0
10
53.516295540549862
20
1.217093408189287
30
0
10
52.514477497434328
20
1.5396426995303081
30
0
10
51.727787448588657
20
1.7371086631156718
30
0
0
SPLINE
5
614
100
AcDbEntity
8
0
100
AcDbSpline
70
0
71
3
72
8
73
4
74
0
42
0.000000001
43
0.0000000001
44
0.0000000001
40
0
40
0
40
0
40
0
40
1
40
1
40
1
40
1
10
50.285029810946739
20
8.7486162576494486
30
0
10
50.486956921327021
20
8.8334524085768873
30
0
10
50.711777433062281
20
8.9347471431086767
30
0
10
50.958576383387978
20
9.0556630796564086
30
0
0
SPLINE
5
615
100
AcDbEntity
8
0
100
AcDbSpline
70
0
71
3
72
8
73
4
74
0
42
0.000000001
43
0.0000000001
44
0.0000000001
40
0
40
0
40
0
40
0
40
1
40
1
40
1
40
1
10
51.262839917493025
20
7.1346187303396036
30
0
10
50.990755088287031
20
7.1733515498727218
30
0
10
50.745636281193484
20
7.2002152084053073
30
0
10
50.52737637467564
20
7.2185002738297221
30
0
0
ENDSEC
0
SECTION
2
OBJECTS
0
DICTIONARY
5
C
100
AcDbDictionary
3
ACAD_GROUP
350
D
3
ACAD_MLINESTYLE
350
17
0
DICTIONARY
5
D
100
AcDbDictionary
0
DICTIONARY
5
1A
330
C
100
AcDbDictionary
0
DICTIONARY
5
17
100
AcDbDictionary
0
ENDSEC
0
EOF
