0
SECTION
2
HEADER
9
$INSUNITS
70
4
9
$ACADVER
1
AC1014
9
$HANDSEED
5
FFFF
0
ENDSEC
0
SECTION
2
TABLES
0
TABLE
2
VPORT
5
8
100
AcDbSymbolTable
0
ENDTAB
0
TABLE
2
LTYPE
5
5
100
AcDbSymbolTable
0
LTYPE
5
14
100
AcDbSymbolTableRecord
100
AcDbLinetypeTableRecord
2
BYBLOCK
70
0
0
LTYPE
5
15
100
AcDbSymbolTableRecord
100
AcDbLinetypeTableRecord
2
BYLAYER
70
0
0
ENDTAB
0
TABLE
2
LAYER
5
2
100
AcDbSymbolTable
70
2
0
LAYER
5
50
100
AcDbSymbolTableRecord
100
AcDbLayerTableRecord
2
0
70
0
6
CONTINUOUS
0
ENDTAB
0
TABLE
2
STYLE
5
3
100
AcDbSymbolTable
70
1
0
STYLE
5
11
100
AcDbSymbolTableRecord
100
AcDbTextStyleTableRecord
2
STANDARD
70
0
0
ENDTAB
0
TABLE
2
VIEW
5
6
100
AcDbSymbolTable
70
0
0
ENDTAB
0
TABLE
2
UCS
5
7
100
AcDbSymbolTable
70
0
0
ENDTAB
0
TABLE
2
APPID
5
9
100
AcDbSymbolTable
70
2
0
APPID
5
12
100
AcDbSymbolTableRecord
100
AcDbRegAppTableRecord
2
ACAD
70
0
0
ENDTAB
0
TABLE
2
DIMSTYLE
5
A
100
AcDbSymbolTable
70
1
0
ENDTAB
0
TABLE
2
BLOCK_RECORD
5
1
100
AcDbSymbolTable
70
1
0
BLOCK_RECORD
5
1F
100
AcDbSymbolTableRecord
100
AcDbBlockTableRecord
2
*MODEL_SPACE
0
BLOCK_RECORD
5
1B
100
AcDbSymbolTableRecord
100
AcDbBlockTableRecord
2
*PAPER_SPACE
0
ENDTAB
0
ENDSEC
0
SECTION
2
BLOCKS
0
BLOCK
5
20
100
AcDbEntity
100
AcDbBlockBegin
2
*MODEL_SPACE
0
ENDBLK
5
21
100
AcDbEntity
100
AcDbBlockEnd
0
BLOCK
5
1C
100
AcDbEntity
100
AcDbBlockBegin
2
*PAPER_SPACE
0
ENDBLK
5
1D
100
AcDbEntity
100
AcDbBlockEnd
0
ENDSEC
0
SECTION
2
ENTITIES
0
SPLINE
5
100
100
AcDbEntity
8
0
100
AcDbSpline
70
0
71
2
72
6
73
3
74
0
42
0.000000001
43
0.0000000001
44
0.0000000001
40
0
40
0
40
0
40
1
40
1
40
1
10
-99.306739419698715
20
1.1939489841461359
30
0
10
-99.862448424100876
20
1.4305365085601984
30
0
10
-100.62173292040825
20
1.4305365085601984
30
0
0
SPLINE
5
101
100
AcDbEntity
8
0
100
AcDbSpline
70
0
71
2
72
6
73
3
74
0
42
0.000000001
43
0.0000000001
44
0.0000000001
40
0
40
0
40
0
40
1
40
1
40
1
10
-100.62173292040825
20
1.4305365085601984
30
0
10
-101.79917439818382
20
1.4305365085601984
30
0
10
-102.69050881266594
20
0.84731817245485175
30
0
0
SPLINE
5
102
100
AcDbEntity
8
0
100
AcDbSpline
70
0
71
2
72
6
73
3
74
0
42
0.000000001
43
0.0000000001
44
0.0000000001
40
0
40
0
40
0
40
1
40
1
40
1
10
-102.69050881266594
20
0.84731817245485175
30
0
10
-103.58184322714806
20
0.26409983634950507
30
0
10
-104.07702878117561
20
-0.79779863357542169
30
0
0
SPLINE
5
103
100
AcDbEntity
8
0
100
AcDbSpline
70
0
71
2
72
6
73
3
74
0
42
0.000000001
43
0.0000000001
44
0.0000000001
40
0
40
0
40
0
40
1
40
1
40
1
10
-104.07702878117561
20
-0.79779863357542169
30
0
10
-104.57221433520317
20
-1.8596971035003484
30
0
10
-104.57221433520317
20
-3.2572209835052313
30
0
0
LINE
5
104
100
AcDbEntity
8
0
100
AcDbLine
10
-104.57221433520317
20
-3.2572209835052313
30
0
11
-104.57221433520317
21
-3.2682251930236639
31
0
0
SPLINE
5
105
100
AcDbEntity
8
0
100
AcDbSpline
70
0
71
2
72
6
73
3
74
0
42
0.000000001
43
0.0000000001
44
0.0000000001
40
0
40
0
40
0
40
1
40
1
40
1
10
-104.57221433520317
20
-3.2682251930236639
30
0
10
-104.57221433520317
20
-4.8198068141937078
30
0
10
-104.03301224112511
20
-5.920219421386701
30
0
0
SPLINE
5
106
100
AcDbEntity
8
0
100
AcDbSpline
70
0
71
2
72
6
73
3
74
0
42
0.000000001
43
0.0000000001
44
0.0000000001
40
0
40
0
40
0
40
1
40
1
40
1
10
-104.03301224112511
20
-5.920219421386701
30
0
10
-103.49381014704704
20
-7.0206320285796942
30
0
10
-102.46492430567741
20
-7.5928473472595037
30
0
0
SPLINE
5
107
100
AcDbEntity
8
0
100
AcDbSpline
70
0
71
2
72
6
73
3
74
0
42
0.000000001
43
0.0000000001
44
0.0000000001
40
0
40
0
40
0
40
1
40
1
40
1
10
-102.46492430567741
20
-7.5928473472595037
30
0
10
-101.43603846430779
20
-8.1650614738464178
30
0
10
-99.994497746229172
20
-8.1650614738464178
30
0
0
SPLINE
5
108
100
AcDbEntity
8
0
100
AcDbSpline
70
0
71
2
72
6
73
3
74
0
42
0.000000001
43
0.0000000001
44
0.0000000001
40
0
40
0
40
0
40
1
40
1
40
1
10
-99.994497746229172
20
-8.1650614738464178
30
0
10
-98.552957028150558
20
-8.1650614738464178
30
0
10
-97.52407118678093
20
-7.5818431377410711
30
0
0
SPLINE
5
109
100
AcDbEntity
8
0
100
AcDbSpline
70
0
71
2
72
6
73
3
74
0
42
0.000000001
43
0.0000000001
44
0.0000000001
40
0
40
0
40
0
40
1
40
1
40
1
10
-97.52407118678093
20
-7.5818431377410711
30
0
10
-96.495185345411301
20
-6.9986236095428289
30
0
10
-95.961485356092453
20
-5.8872067928314031
30
0
0
SPLINE
5
110
100
AcDbEntity
8
0
100
AcDbSpline
70
0
71
2
72
6
73
3
74
0
42
0.000000001
43
0.0000000001
44
0.0000000001
40
0
40
0
40
0
40
1
40
1
40
1
10
-95.961485356092453
20
-5.8872067928314031
30
0
10
-95.427785366773605
20
-4.7757911682128729
30
0
10
-95.427785366773605
20
-3.2132041454315008
30
0
0
LINE
5
111
100
AcDbEntity
8
0
100
AcDbLine
10
-95.427785366773605
20
-3.2132041454315008
30
0
11
-95.427785366773605
21
-3.2021999359130682
31
0
0
SPLINE
5
112
100
AcDbEntity
8
0
100
AcDbSpline
70
0
71
2
72
6
73
3
74
0
42
0.000000001
43
0.0000000001
44
0.0000000001
40
0
40
0
40
0
40
1
40
1
40
1
10
-95.427785366773605
20
-3.2021999359130682
30
0
10
-95.427785366773605
20
-2.3768913745879949
30
0
10
-95.653369873762131
20
-1.4250338077544988
30
0
0
SPLINE
5
113
100
AcDbEntity
8
0
100
AcDbSpline
70
0
71
2
72
6
73
3
74
0
42
0.000000001
43
0.0000000001
44
0.0000000001
40
0
40
0
40
0
40
1
40
1
40
1
10
-95.653369873762131
20
-1.4250338077544988
30
0
10
-95.878954380750656
20
-0.47317624092100274
30
0
10
-96.286106556653976
20
0.5502068996429621
30
0
0
SPLINE
5
114
100
AcDbEntity
8
0
100
AcDbSpline
70
0
71
2
72
6
73
3
74
0
42
0.000000001
43
0.0000000001
44
0.0000000001
40
0
40
0
40
0
40
1
40
1
40
1
10
-96.286106556653976
20
0.5502068996429621
30
0
10
-96.352131813764572
20
0.69326043128969062
30
0
10
-96.412654370069504
20
0.84731817245485175
30
0
0
SPLINE
5
115
100
AcDbEntity
8
0
100
AcDbSpline
70
0
71
2
72
6
73
3
74
0
42
0.000000001
43
0.0000000001
44
0.0000000001
40
0
40
0
40
0
40
1
40
1
40
1
10
-96.412654370069504
20
0.84731817245485175
30
0
10
-96.473176926374435
20
1.0013759136200129
30
0
10
-96.550205200910568
20
1.1444294452667414
30
0
0
LINE
5
116
100
AcDbEntity
8
0
100
AcDbLine
10
-96.550205200910568
20
1.1444294452667416
30
0
11
-99.686382263898849
21
8.0000007152557551
31
0
0
LINE
5
117
100
AcDbEntity
8
0
100
AcDbLine
10
-99.686382263898849
20
8.0000007152557551
30
0
11
-102.49243423342705
21
8.0000007152557551
31
0
0
LINE
5
118
100
AcDbEntity
8
0
100
AcDbLine
10
-102.49243423342705
20
8.0000007152557551
30
0
11
-99.270444258868679
21
1.1780746035628615
31
0
0
SPLINE
5
119
100
AcDbEntity
8
0
100
AcDbSpline
70
0
71
2
72
6
73
3
74
0
42
0.000000001
43
0.0000000001
44
0.0000000001
40
0
40
0
40
0
40
1
40
1
40
1
10
-99.994497746229172
20
-1.0013759136199774
30
0
10
-99.070150703191757
20
-1.0013759136199774
30
0
10
-98.563961237668991
20
-1.6176068782806219
30
0
0
SPLINE
5
120
100
AcDbEntity
8
0
100
AcDbSpline
70
0
71
2
72
6
73
3
74
0
42
0.000000001
43
0.0000000001
44
0.0000000001
40
0
40
0
40
0
40
1
40
1
40
1
10
-98.563961237668991
20
-1.6176068782806219
30
0
10
-98.057771176099777
20
-2.2338378429412664
30
0
10
-98.057771176099777
20
-3.3452546596526922
30
0
0
LINE
5
121
100
AcDbEntity
8
0
100
AcDbLine
10
-98.057771176099777
20
-3.3452546596526922
30
0
11
-98.057771176099777
21
-3.3562576770782293
31
0
0
SPLINE
5
122
100
AcDbEntity
8
0
100
AcDbSpline
70
0
71
2
72
6
73
3
74
0
42
0.000000001
43
0.0000000001
44
0.0000000001
40
0
40
0
40
0
40
1
40
1
40
1
10
-98.057771176099777
20
-3.3562576770782293
30
0
10
-98.057771176099777
20
-4.4456672668456854
30
0
10
-98.563961237668991
20
-5.0343871116638006
30
0
0
SPLINE
5
123
100
AcDbEntity
8
0
100
AcDbSpline
70
0
71
2
72
6
73
3
74
0
42
0.000000001
43
0.0000000001
44
0.0000000001
40
0
40
0
40
0
40
1
40
1
40
1
10
-98.563961237668991
20
-5.0343871116638006
30
0
10
-99.070150703191757
20
-5.6231081485748113
30
0
10
-99.994497746229172
20
-5.6231081485748113
30
0
0
SPLINE
5
124
100
AcDbEntity
8
0
100
AcDbSpline
70
0
71
2
72
6
73
3
74
0
42
0.000000001
43
0.0000000001
44
0.0000000001
40
0
40
0
40
0
40
1
40
1
40
1
10
-99.994497746229172
20
-5.6231081485748113
30
0
10
-100.92984840273857
20
-5.6231081485748113
30
0
10
-101.43603846430779
20
-5.028885602951032
30
0
0
SPLINE
5
125
100
AcDbEntity
8
0
100
AcDbSpline
70
0
71
2
72
6
73
3
74
0
42
0.000000001
43
0.0000000001
44
0.0000000001
40
0
40
0
40
0
40
1
40
1
40
1
10
-101.43603846430779
20
-5.028885602951032
30
0
10
-101.94222792983055
20
-4.4346630573272527
30
0
10
-101.94222792983055
20
-3.3452546596526922
30
0
0
LINE
5
126
100
AcDbEntity
8
0
100
AcDbLine
10
-101.94222792983055
20
-3.3452546596526922
30
0
11
-101.94222792983055
21
-3.3342504501342596
31
0
0
SPLINE
5
127
100
AcDbEntity
8
0
100
AcDbSpline
70
0
71
2
72
6
73
3
74
0
42
0.000000001
43
0.0000000001
44
0.0000000001
40
0
40
0
40
0
40
1
40
1
40
1
10
-101.94222792983055
20
-3.3342504501342596
30
0
10
-101.94222792983055
20
-2.2228336334228338
30
0
10
-101.43603846430779
20
-1.6121041774749578
30
0
0
SPLINE
5
128
100
AcDbEntity
8
0
100
AcDbSpline
70
0
71
2
72
6
73
3
74
0
42
0.000000001
43
0.0000000001
44
0.0000000001
40
0
40
0
40
0
40
1
40
1
40
1
10
-101.43603846430779
20
-1.6121041774749578
30
0
10
-100.92984840273857
20
-1.0013759136199774
30
0
10
-99.994497746229172
20
-1.0013759136199774
30
0
0
LWPOLYLINE
5
129
100
AcDbEntity
8
0
100
AcDbPolyline
90
7
70
1
43
0.0
10
-90.613544275037953
20
-41.999999284744192
10
-93.243530382387348
20
-41.999999284744192
10
-93.243530382387348
20
-55.006877183914114
10
-95.356322889201351
20
-53.939477205276418
10
-95.356322889201351
20
-56.701512336730886
10
-93.023447980158039
20
-57.999999523162771
10
-90.613544275037953
20
-57.999999523162771
0
SPLINE
5
130
100
AcDbEntity
8
0
100
AcDbSpline
70
0
71
2
72
6
73
3
74
0
42
0.000000001
43
0.0000000001
44
0.0000000001
40
0
40
0
40
0
40
1
40
1
40
1
10
-82.525510479681202
20
-41.834937334060598
30
0
10
-84.814369370214649
20
-41.834937334060598
30
0
10
-86.008317162267872
20
-43.039890527725149
30
0
0
SPLINE
5
131
100
AcDbEntity
8
0
100
AcDbSpline
70
0
71
2
72
6
73
3
74
0
42
0.000000001
43
0.0000000001
44
0.0000000001
40
0
40
0
40
0
40
1
40
1
40
1
10
-86.008317162267872
20
-43.039890527725149
30
0
10
-87.202264954321095
20
-44.244841337203908
30
0
10
-87.202264954321095
20
-46.379641294479299
30
0
0
LINE
5
132
100
AcDbEntity
8
0
100
AcDbLine
10
-87.202264954321095
20
-46.379641294479299
30
0
11
-87.202264954321095
21
-53.653370141982961
31
0
0
SPLINE
5
133
100
AcDbEntity
8
0
100
AcDbSpline
70
0
71
2
72
6
73
3
74
0
42
0.000000001
43
0.0000000001
44
0.0000000001
40
0
40
0
40
0
40
1
40
1
40
1
10
-87.202264954321095
20
-53.653370141982961
30
0
10
-87.202264954321095
20
-55.810178518295217
30
0
10
-86.002815653555103
20
-57.00412631034844
30
0
0
SPLINE
5
134
100
AcDbEntity
8
0
100
AcDbSpline
70
0
71
2
72
6
73
3
74
0
42
0.000000001
43
0.0000000001
44
0.0000000001
40
0
40
0
40
0
40
1
40
1
40
1
10
-86.002815653555103
20
-57.00412631034844
30
0
10
-84.803365160696217
20
-58.198074102401662
30
0
10
-82.525510479681202
20
-58.198074102401662
30
0
0
SPLINE
5
135
100
AcDbEntity
8
0
100
AcDbSpline
70
0
71
2
72
6
73
3
74
0
42
0.000000001
43
0.0000000001
44
0.0000000001
40
0
40
0
40
0
40
1
40
1
40
1
10
-82.525510479681202
20
-58.198074102401662
30
0
10
-80.225648571722218
20
-58.198074102401662
30
0
10
-79.037203480474659
20
-57.009627819061208
30
0
0
SPLINE
5
136
100
AcDbEntity
8
0
100
AcDbSpline
70
0
71
2
72
6
73
3
74
0
42
0.000000001
43
0.0000000001
44
0.0000000001
40
0
40
0
40
0
40
1
40
1
40
1
10
-79.037203480474659
20
-57.009627819061208
30
0
10
-77.848757197134205
20
-55.82118272781365
30
0
10
-77.848757197134205
20
-53.653370141982961
30
0
0
LINE
5
137
100
AcDbEntity
8
0
100
AcDbLine
10
-77.848757197134205
20
-53.653370141982961
30
0
11
-77.848757197134205
21
-46.379641294479299
31
0
0
SPLINE
5
138
100
AcDbEntity
8
0
100
AcDbSpline
70
0
71
2
72
6
73
3
74
0
42
0.000000001
43
0.0000000001
44
0.0000000001
40
0
40
0
40
0
40
1
40
1
40
1
10
-77.848757197134205
20
-46.379641294479299
30
0
10
-77.848757197134205
20
-44.222832918167043
30
0
10
-79.042704989187428
20
-43.028885126113821
30
0
0
SPLINE
5
139
100
AcDbEntity
8
0
100
AcDbSpline
70
0
71
2
72
6
73
3
74
0
42
0.000000001
43
0.0000000001
44
0.0000000001
40
0
40
0
40
0
40
1
40
1
40
1
10
-79.042704989187428
20
-43.028885126113821
30
0
10
-80.23665278124065
20
-41.834937334060598
30
0
10
-82.525510479681202
20
-41.834937334060598
30
0
0
SPLINE
5
140
100
AcDbEntity
8
0
100
AcDbSpline
70
0
71
2
72
6
73
3
74
0
42
0.000000001
43
0.0000000001
44
0.0000000001
40
0
40
0
40
0
40
1
40
1
40
1
10
-82.525510479681202
20
-44.354883432388235
30
0
10
-81.469114710561939
20
-44.354883432388235
30
0
10
-80.973928858511158
20
-44.976614713668752
30
0
0
SPLINE
5
141
100
AcDbEntity
8
0
100
AcDbSpline
70
0
71
2
72
6
73
3
74
0
42
0.000000001
43
0.0000000001
44
0.0000000001
40
0
40
0
40
0
40
1
40
1
40
1
10
-80.973928858511158
20
-44.976614713668752
30
0
10
-80.478744198553272
20
-45.598348379135061
30
0
10
-80.478744198553272
20
-46.76478624343865
30
0
0
LINE
5
142
100
AcDbEntity
8
0
100
AcDbLine
10
-80.478744198553272
20
-46.76478624343865
30
0
11
-80.478744198553272
21
-53.268225193023611
31
0
0
SPLINE
5
143
100
AcDbEntity
8
0
100
AcDbSpline
70
0
71
2
72
6
73
3
74
0
42
0.000000001
43
0.0000000001
44
0.0000000001
40
0
40
0
40
0
40
1
40
1
40
1
10
-80.478744198553272
20
-53.268225193023611
30
0
10
-80.478744198553272
20
-54.434663057327199
30
0
10
-80.973928858511158
20
-55.056395530700613
30
0
0
SPLINE
5
144
100
AcDbEntity
8
0
100
AcDbSpline
70
0
71
2
72
6
73
3
74
0
42
0.000000001
43
0.0000000001
44
0.0000000001
40
0
40
0
40
0
40
1
40
1
40
1
10
-80.973928858511158
20
-55.056395530700613
30
0
10
-81.469114710561939
20
-55.678129196166921
30
0
10
-82.525510479681202
20
-55.678129196166921
30
0
0
SPLINE
5
145
100
AcDbEntity
8
0
100
AcDbSpline
70
0
71
2
72
6
73
3
74
0
42
0.000000001
43
0.0000000001
44
0.0000000001
40
0
40
0
40
0
40
1
40
1
40
1
10
-82.525510479681202
20
-55.678129196166921
30
0
10
-83.58190744089336
20
-55.678129196166921
30
0
10
-84.077093292944141
20
-55.056395530700613
30
0
0
SPLINE
5
146
100
AcDbEntity
8
0
100
AcDbSpline
70
0
71
2
72
6
73
3
74
0
42
0.000000001
43
0.0000000001
44
0.0000000001
40
0
40
0
40
0
40
1
40
1
40
1
10
-84.077093292944141
20
-55.056395530700613
30
0
10
-84.572279144994923
20
-54.434663057327199
30
0
10
-84.572279144994923
20
-53.268225193023611
30
0
0
LINE
5
147
100
AcDbEntity
8
0
100
AcDbLine
10
-84.572279144994923
20
-53.268225193023611
30
0
11
-84.572279144994923
21
-46.76478624343865
31
0
0
SPLINE
5
148
100
AcDbEntity
8
0
100
AcDbSpline
70
0
71
2
72
6
73
3
74
0
42
0.000000001
43
0.0000000001
44
0.0000000001
40
0
40
0
40
0
40
1
40
1
40
1
10
-84.572279144994923
20
-46.76478624343865
30
0
10
-84.572279144994923
20
-45.598348379135061
30
0
10
-84.071590592138477
20
-44.976614713668752
30
0
0
SPLINE
5
149
100
AcDbEntity
8
0
100
AcDbSpline
70
0
71
2
72
6
73
3
74
0
42
0.000000001
43
0.0000000001
44
0.0000000001
40
0
40
0
40
0
40
1
40
1
40
1
10
-84.071590592138477
20
-44.976614713668752
30
0
10
-83.570903231374928
20
-44.354883432388235
30
0
10
-82.525510479681202
20
-44.354883432388235
30
0
0
LWPOLYLINE
5
150
100
AcDbEntity
8
0
100
AcDbPolyline
90
7
70
1
43
0.0
10
-51.375515982508702
20
-78.602539663188097
10
-54.005502089858098
20
-78.602539663188097
10
-54.005502089858098
20
-91.609417562358018
10
-56.118294522166295
20
-90.542017583720323
10
-56.118294522166295
20
-93.304052715174791
10
-53.785419687628789
20
-94.602539901606676
10
-51.375515982508702
20
-94.602539901606676
0
LWPOLYLINE
5
151
100
AcDbEntity
8
0
100
AcDbPolyline
90
7
70
1
43
0.0
10
-43.881705328822179
20
-78.602539663188097
10
-46.51169113814835
20
-78.602539663188097
10
-46.51169113814835
20
-91.609417562358018
10
-48.624483868479771
20
-90.542017583720323
10
-48.624483868479771
20
-93.304052715174791
10
-46.291609331965489
20
-94.602539901606676
10
-43.881705328822179
20
-94.602539901606676
0
LWPOLYLINE
5
152
100
AcDbEntity
8
0
100
AcDbPolyline
90
7
70
1
43
0.0
10
-3.8349377363920212
20
-91.999999284744263
10
-6.4649238437414169
20
-91.999999284744263
10
-6.4649238437414169
20
-105.00687718391418
10
-8.5777163505554199
20
-103.93947720527649
10
-8.5777163505554199
20
-106.70151233673096
10
-6.2448414415121078
20
-107.99999952316284
10
-3.8349377363920212
20
-107.99999952316284
0
LINE
5
153
100
AcDbEntity
8
0
100
AcDbLine
10
-0.66574864089488983
20
-94.33287501335144
30
0
11
4.8693270236253738
21
-101.66162252426147
31
0
0
SPLINE
5
154
100
AcDbEntity
8
0
100
AcDbSpline
70
0
71
2
72
6
73
3
74
0
42
0.000000001
43
0.0000000001
44
0.0000000001
40
0
40
0
40
0
40
1
40
1
40
1
10
4.8693270236253738
20
-101.66162252426147
30
0
10
5.2984876185655594
20
-102.22283363342285
30
0
10
5.5350763350725174
20
-102.8225576877594
30
0
0
SPLINE
5
155
100
AcDbEntity
8
0
100
AcDbSpline
70
0
71
2
72
6
73
3
74
0
42
0.000000001
43
0.0000000001
44
0.0000000001
40
0
40
0
40
0
40
1
40
1
40
1
10
5.5350763350725174
20
-102.8225576877594
30
0
10
5.7716650515794754
20
-103.42228293418884
30
0
10
5.7716650515794754
20
-103.93947720527649
30
0
0
LINE
5
156
100
AcDbEntity
8
0
100
AcDbLine
10
5.7716650515794754
20
-103.93947720527649
30
0
11
5.7716650515794754
21
-103.96148562431335
31
0
0
SPLINE
5
157
100
AcDbEntity
8
0
100
AcDbSpline
70
0
71
2
72
6
73
3
74
0
42
0.000000001
43
0.0000000001
44
0.0000000001
40
0
40
0
40
0
40
1
40
1
40
1
10
5.7716650515794754
20
-103.96148562431335
30
0
10
5.7716650515794754
20
-104.76478695869446
30
0
10
5.2819819003343582
20
-105.20495176315308
30
0
0
SPLINE
5
158
100
AcDbEntity
8
0
100
AcDbSpline
70
0
71
2
72
6
73
3
74
0
42
0.000000001
43
0.0000000001
44
0.0000000001
40
0
40
0
40
0
40
1
40
1
40
1
10
5.2819819003343582
20
-105.20495176315308
30
0
10
4.792298749089241
20
-105.64511656761169
30
0
10
3.889959529042244
20
-105.64511656761169
30
0
0
SPLINE
5
159
100
AcDbEntity
8
0
100
AcDbSpline
70
0
71
2
72
6
73
3
74
0
42
0.000000001
43
0.0000000001
44
0.0000000001
40
0
40
0
40
0
40
1
40
1
40
1
10
3.889959529042244
20
-105.64511656761169
30
0
10
3.0316371470689774
20
-105.64511656761169
30
0
10
2.4979371577501297
20
-105.11141657829285
30
0
0
SPLINE
5
160
100
AcDbEntity
8
0
100
AcDbSpline
70
0
71
2
72
6
73
3
74
0
42
0.000000001
43
0.0000000001
44
0.0000000001
40
0
40
0
40
0
40
1
40
1
40
1
10
2.4979371577501297
20
-105.11141657829285
30
0
10
1.964237168431282
20
-104.577716588974
30
0
10
1.8431920558214188
20
-103.59834909439087
30
0
0
LINE
5
161
100
AcDbEntity
8
0
100
AcDbLine
10
1.8431920558214188
20
-103.59834909439085
30
0
11
1.8431920558214188
21
-103.58734488487244
31
0
0
LINE
5
162
100
AcDbEntity
8
0
100
AcDbLine
10
1.8431920558214188
20
-103.58734488487244
30
0
11
-0.86382322013378143
21
-103.58734488487244
31
0
0
LINE
5
163
100
AcDbEntity
8
0
100
AcDbLine
10
-0.86382322013378143
20
-103.58734488487244
30
0
11
-0.86382322013378143
21
-103.59834909439087
31
0
0
SPLINE
5
164
100
AcDbEntity
8
0
100
AcDbSpline
70
0
71
2
72
6
73
3
74
0
42
0.000000001
43
0.0000000001
44
0.0000000001
40
0
40
0
40
0
40
1
40
1
40
1
10
-0.86382322013378143
20
-103.59834909439087
30
0
10
-0.7097654789686203
20
-105.03988981246948
30
0
10
-0.093534514307975769
20
-106.06327295303345
30
0
0
SPLINE
5
165
100
AcDbEntity
8
0
100
AcDbSpline
70
0
71
2
72
6
73
3
74
0
42
0.000000001
43
0.0000000001
44
0.0000000001
40
0
40
0
40
0
40
1
40
1
40
1
10
-0.093534514307975769
20
-106.06327295303345
30
0
10
0.52269645035266876
20
-107.08665728569031
30
0
10
1.5350765734910965
20
-107.62585997581482
30
0
0
SPLINE
5
166
100
AcDbEntity
8
0
100
AcDbSpline
70
0
71
2
72
6
73
3
74
0
42
0.000000001
43
0.0000000001
44
0.0000000001
40
0
40
0
40
0
40
1
40
1
40
1
10
1.5350765734910965
20
-107.62585997581482
30
0
10
2.5474566966295242
20
-108.16506147384644
30
0
10
3.8679511100053787
20
-108.16506147384644
30
0
0
SPLINE
5
167
100
AcDbEntity
8
0
100
AcDbSpline
70
0
71
2
72
6
73
3
74
0
42
0.000000001
43
0.0000000001
44
0.0000000001
40
0
40
0
40
0
40
1
40
1
40
1
10
3.8679511100053787
20
-108.16506147384644
30
0
10
5.3315002471208572
20
-108.16506147384644
30
0
10
6.3713902980089188
20
-107.67537832260132
30
0
0
SPLINE
5
168
100
AcDbEntity
8
0
100
AcDbSpline
70
0
71
2
72
6
73
3
74
0
42
0.000000001
43
0.0000000001
44
0.0000000001
40
0
40
0
40
0
40
1
40
1
40
1
10
6.3713902980089188
20
-107.67537832260132
30
0
10
7.4112803488969803
20
-107.18569397926331
30
0
10
7.9504818469285965
20
-106.25034332275391
30
0
0
SPLINE
5
169
100
AcDbEntity
8
0
100
AcDbSpline
70
0
71
2
72
6
73
3
74
0
42
0.000000001
43
0.0000000001
44
0.0000000001
40
0
40
0
40
0
40
1
40
1
40
1
10
7.9504818469285965
20
-106.25034332275391
30
0
10
8.4896845370531082
20
-105.31499266624451
30
0
10
8.4896845370531082
20
-103.99449706077576
30
0
0
LINE
5
170
100
AcDbEntity
8
0
100
AcDbLine
10
8.4896845370531082
20
-103.99449706077576
30
0
11
8.4896845370531082
21
-103.98349285125732
31
0
0
SPLINE
5
171
100
AcDbEntity
8
0
100
AcDbSpline
70
0
71
2
72
6
73
3
74
0
42
0.000000001
43
0.0000000001
44
0.0000000001
40
0
40
0
40
0
40
1
40
1
40
1
10
8.4896845370531082
20
-103.98349285125732
30
0
10
8.4896845370531082
20
-103.01513075828552
30
0
10
8.1265491992235184
20
-102.0192563533783
30
0
0
SPLINE
5
172
100
AcDbEntity
8
0
100
AcDbSpline
70
0
71
2
72
6
73
3
74
0
42
0.000000001
43
0.0000000001
44
0.0000000001
40
0
40
0
40
0
40
1
40
1
40
1
10
8.1265491992235184
20
-102.0192563533783
30
0
10
7.7634114772081375
20
-101.02338314056396
30
0
10
7.103164866566658
20
-100.15405774116516
30
0
0
LINE
5
173
100
AcDbEntity
8
0
100
AcDbLine
10
7.103164866566658
20
-100.15405774116518
30
0
11
2.8225595504045486
21
-94.519945383071899
31
0
0
LINE
5
174
100
AcDbEntity
8
0
100
AcDbLine
10
2.8225595504045486
20
-94.519945383071899
30
0
11
8.5777182132005692
21
-94.519945383071899
31
0
0
LINE
5
175
100
AcDbEntity
8
0
100
AcDbLine
10
8.5777182132005692
20
-94.519945383071899
30
0
11
8.5777182132005692
21
-91.999999284744263
31
0
0
LINE
5
176
100
AcDbEntity
8
0
100
AcDbLine
10
8.5777182132005692
20
-91.999999284744263
30
0
11
-0.66574864089488983
21
-91.999999284744263
31
0
0
LINE
5
177
100
AcDbEntity
8
0
100
AcDbLine
10
-0.66574864089488983
20
-91.999999284744263
30
0
11
-0.66574864089488983
21
-94.33287501335144
31
0
0
LWPOLYLINE
5
178
100
AcDbEntity
8
0
100
AcDbPolyline
90
7
70
1
43
0.0
10
52.371389344334595
20
-78.602539663188139
10
49.741403535008423
20
-78.602539663188139
10
49.741403535008423
20
-91.609417562358061
10
47.628610804677002
20
-90.542017583720366
10
47.628610804677002
20
-93.304052715174834
10
49.961485341191285
20
-94.602539901606718
10
52.371389344334595
20
-94.602539901606718
0
LINE
5
179
100
AcDbEntity
8
0
100
AcDbLine
10
82.079843868486535
20
-44.332875013351448
30
0
11
87.614919831030022
21
-51.661622524261482
31
0
0
SPLINE
5
180
100
AcDbEntity
8
0
100
AcDbSpline
70
0
71
2
72
6
73
3
74
0
42
0.000000001
43
0.0000000001
44
0.0000000001
40
0
40
0
40
0
40
1
40
1
40
1
10
87.614919831030022
20
-51.661622524261482
30
0
10
88.04407982992376
20
-52.222833633422859
30
0
10
88.280669738523613
20
-52.822557687759407
30
0
0
SPLINE
5
181
100
AcDbEntity
8
0
100
AcDbSpline
70
0
71
2
72
6
73
3
74
0
42
0.000000001
43
0.0000000001
44
0.0000000001
40
0
40
0
40
0
40
1
40
1
40
1
10
88.280669738523613
20
-52.822557687759407
30
0
10
88.517257262937676
20
-53.42228293418885
30
0
10
88.517257262937676
20
-53.939477205276496
30
0
0
LINE
5
182
100
AcDbEntity
8
0
100
AcDbLine
10
88.517257262937676
20
-53.939477205276496
30
0
11
88.517257262937676
21
-53.961485624313362
31
0
0
SPLINE
5
183
100
AcDbEntity
8
0
100
AcDbSpline
70
0
71
2
72
6
73
3
74
0
42
0.000000001
43
0.0000000001
44
0.0000000001
40
0
40
0
40
0
40
1
40
1
40
1
10
88.517257262937676
20
-53.961485624313362
30
0
10
88.517257262937676
20
-54.764786958694465
30
0
10
88.027574111692559
20
-55.204951763153083
30
0
0
SPLINE
5
184
100
AcDbEntity
8
0
100
AcDbSpline
70
0
71
2
72
6
73
3
74
0
42
0.000000001
43
0.0000000001
44
0.0000000001
40
0
40
0
40
0
40
1
40
1
40
1
10
88.027574111692559
20
-55.204951763153083
30
0
10
87.537890960447442
20
-55.645116567611701
30
0
10
86.635552336446892
20
-55.645116567611701
30
0
0
SPLINE
5
185
100
AcDbEntity
8
0
100
AcDbSpline
70
0
71
2
72
6
73
3
74
0
42
0.000000001
43
0.0000000001
44
0.0000000001
40
0
40
0
40
0
40
1
40
1
40
1
10
86.635552336446892
20
-55.645116567611701
30
0
10
85.777230550520073
20
-55.645116567611701
30
0
10
85.243530561201226
20
-55.111416578292854
30
0
0
SPLINE
5
186
100
AcDbEntity
8
0
100
AcDbSpline
70
0
71
2
72
6
73
3
74
0
42
0.000000001
43
0.0000000001
44
0.0000000001
40
0
40
0
40
0
40
1
40
1
40
1
10
85.243530561201226
20
-55.111416578292854
30
0
10
84.709830571882378
20
-54.577716588974006
30
0
10
84.588784863226067
20
-53.598349094390876
30
0
0
LINE
5
187
100
AcDbEntity
8
0
100
AcDbLine
10
84.588784863226067
20
-53.598349094390876
30
0
11
84.588784863226067
21
-53.587344884872444
31
0
0
LINE
5
188
100
AcDbEntity
8
0
100
AcDbLine
10
84.588784863226067
20
-53.587344884872444
30
0
11
81.881769587270867
21
-53.587344884872444
31
0
0
LINE
5
189
100
AcDbEntity
8
0
100
AcDbLine
10
81.881769587270867
20
-53.587344884872444
30
0
11
81.881769587270867
21
-53.598349094390876
31
0
0
SPLINE
5
190
100
AcDbEntity
8
0
100
AcDbSpline
70
0
71
2
72
6
73
3
74
0
42
0.000000001
43
0.0000000001
44
0.0000000001
40
0
40
0
40
0
40
1
40
1
40
1
10
81.881769587270867
20
-53.598349094390876
30
0
10
82.035827328436028
20
-55.03988981246949
30
0
10
82.652058591119896
20
-56.063272953033454
30
0
0
SPLINE
5
191
100
AcDbEntity
8
0
100
AcDbSpline
70
0
71
2
72
6
73
3
74
0
42
0.000000001
43
0.0000000001
44
0.0000000001
40
0
40
0
40
0
40
1
40
1
40
1
10
82.652058591119896
20
-56.063272953033454
30
0
10
83.268289853803765
20
-57.086657285690315
30
0
10
84.280669380895745
20
-57.625859975814826
30
0
0
SPLINE
5
192
100
AcDbEntity
8
0
100
AcDbSpline
70
0
71
2
72
6
73
3
74
0
42
0.000000001
43
0.0000000001
44
0.0000000001
40
0
40
0
40
0
40
1
40
1
40
1
10
84.280669380895745
20
-57.625859975814826
30
0
10
85.293048907987725
20
-58.165061473846443
30
0
10
86.613544513456475
20
-58.165061473846443
30
0
0
SPLINE
5
193
100
AcDbEntity
8
0
100
AcDbSpline
70
0
71
2
72
6
73
3
74
0
42
0.000000001
43
0.0000000001
44
0.0000000001
40
0
40
0
40
0
40
1
40
1
40
1
10
86.613544513456475
20
-58.165061473846443
30
0
10
88.077093650571953
20
-58.165061473846443
30
0
10
89.116982509367119
20
-57.675378322601325
30
0
0
SPLINE
5
194
100
AcDbEntity
8
0
100
AcDbSpline
70
0
71
2
72
6
73
3
74
0
42
0.000000001
43
0.0000000001
44
0.0000000001
40
0
40
0
40
0
40
1
40
1
40
1
10
89.116982509367119
20
-57.675378322601325
30
0
10
90.156873752348076
20
-57.185693979263313
30
0
10
90.696075250379693
20
-56.250343322753913
30
0
0
SPLINE
5
195
100
AcDbEntity
8
0
100
AcDbSpline
70
0
71
2
72
6
73
3
74
0
42
0.000000001
43
0.0000000001
44
0.0000000001
40
0
40
0
40
0
40
1
40
1
40
1
10
90.696075250379693
20
-56.250343322753913
30
0
10
91.235276748411309
20
-55.314992666244514
30
0
10
91.235276748411309
20
-53.994497060775764
30
0
0
LINE
5
196
100
AcDbEntity
8
0
100
AcDbLine
10
91.235276748411309
20
-53.994497060775764
30
0
11
91.235276748411309
21
-53.983492851257331
31
0
0
SPLINE
5
197
100
AcDbEntity
8
0
100
AcDbSpline
70
0
71
2
72
6
73
3
74
0
42
0.000000001
43
0.0000000001
44
0.0000000001
40
0
40
0
40
0
40
1
40
1
40
1
10
91.235276748411309
20
-53.983492851257331
30
0
10
91.235276748411309
20
-53.01513075828553
30
0
10
90.872141410581719
20
-52.019256353378303
30
0
0
SPLINE
5
198
100
AcDbEntity
8
0
100
AcDbSpline
70
0
71
2
72
6
73
3
74
0
42
0.000000001
43
0.0000000001
44
0.0000000001
40
0
40
0
40
0
40
1
40
1
40
1
10
90.872141410581719
20
-52.019256353378303
30
0
10
90.509004880659234
20
-51.023383140563972
30
0
10
89.848758270017754
20
-50.154057741165168
30
0
0
LINE
5
199
100
AcDbEntity
8
0
100
AcDbLine
10
89.848758270017754
20
-50.154057741165168
30
0
11
85.568151761762749
21
-44.519945383071907
31
0
0
LINE
5
200
100
AcDbEntity
8
0
100
AcDbLine
10
85.568151761762749
20
-44.519945383071907
30
0
11
91.32331042455877
21
-44.519945383071907
31
0
0
LINE
5
201
100
AcDbEntity
8
0
100
AcDbLine
10
91.32331042455877
20
-44.519945383071907
30
0
11
91.32331042455877
21
-41.99999928474427
31
0
0
LINE
5
202
100
AcDbEntity
8
0
100
AcDbLine
10
91.32331042455877
20
-41.99999928474427
30
0
11
82.079843868486535
21
-41.99999928474427
31
0
0
LINE
5
203
100
AcDbEntity
8
0
100
AcDbLine
10
82.079843868486535
20
-41.99999928474427
30
0
11
82.079843868486535
21
-44.332875013351448
31
0
0
SPLINE
5
204
100
AcDbEntity
8
0
100
AcDbSpline
70
0
71
2
72
6
73
3
74
0
42
0.000000001
43
0.0000000001
44
0.0000000001
40
0
40
0
40
0
40
1
40
1
40
1
10
100.15955932438375
20
8.1650626659393488
30
0
10
98.762035444378867
20
8.1650626659393488
30
0
10
97.683630660176291
20
7.6533710956573664
30
0
0
SPLINE
5
205
100
AcDbEntity
8
0
100
AcDbSpline
70
0
71
2
72
6
73
3
74
0
42
0.000000001
43
0.0000000001
44
0.0000000001
40
0
40
0
40
0
40
1
40
1
40
1
10
97.683630660176291
20
7.6533710956573664
30
0
10
96.605226472020163
20
7.141679525375384
30
0
10
95.961484983563437
20
6.1733162403106867
30
0
0
SPLINE
5
206
100
AcDbEntity
8
0
100
AcDbSpline
70
0
71
2
72
6
73
3
74
0
42
0.000000001
43
0.0000000001
44
0.0000000001
40
0
40
0
40
0
40
1
40
1
40
1
10
95.961484983563437
20
6.1733162403106867
30
0
10
95.317743793129935
20
5.2049529552459894
30
0
10
95.196698382496848
20
3.8514459133148371
30
0
0
LINE
5
207
100
AcDbEntity
8
0
100
AcDbLine
10
95.196698382496848
20
3.8514459133148367
30
0
11
97.903713658452048
21
3.8514459133148371
31
0
0
SPLINE
5
208
100
AcDbEntity
8
0
100
AcDbSpline
70
0
71
2
72
6
73
3
74
0
42
0.000000001
43
0.0000000001
44
0.0000000001
40
0
40
0
40
0
40
1
40
1
40
1
10
97.903713658452048
20
3.8514459133148371
30
0
10
97.980742529034629
20
4.4346630573272883
30
0
10
98.261347487568869
20
4.8308122158050715
30
0
0
SPLINE
5
209
100
AcDbEntity
8
0
100
AcDbSpline
70
0
71
2
72
6
73
3
74
0
42
0.000000001
43
0.0000000001
44
0.0000000001
40
0
40
0
40
0
40
1
40
1
40
1
10
98.261347487568869
20
4.8308122158050715
30
0
10
98.541953042149558
20
5.2269613742828547
30
0
10
98.976616337895408
20
5.4250347614288508
30
0
0
SPLINE
5
210
100
AcDbEntity
8
0
100
AcDbSpline
70
0
71
2
72
6
73
3
74
0
42
0.000000001
43
0.0000000001
44
0.0000000001
40
0
40
0
40
0
40
1
40
1
40
1
10
98.976616337895408
20
5.4250347614288508
30
0
10
99.411279037594809
20
5.6231105327606379
30
0
10
99.994497373700156
20
5.6231105327606379
30
0
0
SPLINE
5
211
100
AcDbEntity
8
0
100
AcDbSpline
70
0
71
2
72
6
73
3
74
0
42
0.000000001
43
0.0000000001
44
0.0000000001
40
0
40
0
40
0
40
1
40
1
40
1
10
99.994497373700156
20
5.6231105327606379
30
0
10
100.98486907780172
20
5.6231105327606379
30
0
10
101.52407117187978
20
5.0839078426361262
30
0
0
SPLINE
5
212
100
AcDbEntity
8
0
100
AcDbSpline
70
0
71
2
72
6
73
3
74
0
42
0.000000001
43
0.0000000001
44
0.0000000001
40
0
40
0
40
0
40
1
40
1
40
1
10
101.52407117187978
20
5.0839078426361262
30
0
10
102.06327386200429
20
4.5447051525116144
30
0
10
102.06327386200429
20
3.5763418674469172
30
0
0
LINE
5
213
100
AcDbEntity
8
0
100
AcDbLine
10
102.06327386200429
20
3.5763418674469172
30
0
11
102.06327386200429
21
3.1471812725067316
31
0
0
SPLINE
5
214
100
AcDbEntity
8
0
100
AcDbSpline
70
0
71
2
72
6
73
3
74
0
42
0.000000001
43
0.0000000001
44
0.0000000001
40
0
40
0
40
0
40
1
40
1
40
1
10
102.06327386200429
20
3.1471812725067316
30
0
10
102.06327386200429
20
2.0907843112945734
30
0
10
101.58459432423116
20
1.5130674839019953
30
0
0
SPLINE
5
215
100
AcDbEntity
8
0
100
AcDbSpline
70
0
71
2
72
6
73
3
74
0
42
0.000000001
43
0.0000000001
44
0.0000000001
40
0
40
0
40
0
40
1
40
1
40
1
10
101.58459432423116
20
1.5130674839019953
30
0
10
101.10591478645803
20
0.93535065650941718
30
0
10
100.21458037197591
20
0.93535065650941718
30
0
0
LINE
5
216
100
AcDbEntity
8
0
100
AcDbLine
10
100.21458037197593
20
0.93535065650941718
30
0
11
98.971113637089744
21
0.93535065650941718
31
0
0
LINE
5
217
100
AcDbEntity
8
0
100
AcDbLine
10
98.971113637089744
20
0.93535065650941718
30
0
11
98.971113637089744
21
-1.5845930576324285
31
0
0
LINE
5
218
100
AcDbEntity
8
0
100
AcDbLine
10
98.971113637089744
20
-1.5845930576324285
30
0
11
100.21458037197591
21
-1.5845930576324285
31
0
0
SPLINE
5
219
100
AcDbEntity
8
0
100
AcDbSpline
70
0
71
2
72
6
73
3
74
0
42
0.000000001
43
0.0000000001
44
0.0000000001
40
0
40
0
40
0
40
1
40
1
40
1
10
100.21458037197591
20
-1.5845930576324285
30
0
10
100.97386486828329
20
-1.5845930576324285
30
0
10
101.38651974499227
20
-2.0797789096832098
30
0
0
SPLINE
5
220
100
AcDbEntity
8
0
100
AcDbSpline
70
0
71
2
72
6
73
3
74
0
42
0.000000001
43
0.0000000001
44
0.0000000001
40
0
40
0
40
0
40
1
40
1
40
1
10
101.38651974499227
20
-2.0797789096832098
30
0
10
101.7991752177477
20
-2.574964761733991
30
0
10
101.7991752177477
20
-3.4773039817809881
30
0
0
LINE
5
221
100
AcDbEntity
8
0
100
AcDbLine
10
101.7991752177477
20
-3.4773039817809885
30
0
11
101.7991752177477
21
-3.8624477386474432
31
0
0
SPLINE
5
222
100
AcDbEntity
8
0
100
AcDbSpline
70
0
71
2
72
6
73
3
74
0
42
0.000000001
43
0.0000000001
44
0.0000000001
40
0
40
0
40
0
40
1
40
1
40
1
10
101.7991752177477
20
-3.8624477386474432
30
0
10
101.7991752177477
20
-4.7097659111022772
30
0
10
101.35350711643697
20
-5.1664364337920965
30
0
0
SPLINE
5
223
100
AcDbEntity
8
0
100
AcDbSpline
70
0
71
2
72
6
73
3
74
0
42
0.000000001
43
0.0000000001
44
0.0000000001
40
0
40
0
40
0
40
1
40
1
40
1
10
101.35350711643697
20
-5.1664364337920965
30
0
10
100.90784020721914
20
-5.6231081485748113
30
0
10
100.0935346633196
20
-5.6231081485748113
30
0
0
SPLINE
5
224
100
AcDbEntity
8
0
100
AcDbSpline
70
0
71
2
72
6
73
3
74
0
42
0.000000001
43
0.0000000001
44
0.0000000001
40
0
40
0
40
0
40
1
40
1
40
1
10
100.0935346633196
20
-5.6231081485748113
30
0
10
99.609353020787253
20
-5.6231081485748113
30
0
10
99.213205054402366
20
-5.4140293598174871
30
0
0
SPLINE
5
225
100
AcDbEntity
8
0
100
AcDbSpline
70
0
71
2
72
6
73
3
74
0
42
0.000000001
43
0.0000000001
44
0.0000000001
40
0
40
0
40
0
40
1
40
1
40
1
10
99.213205054402366
20
-5.4140293598174871
30
0
10
98.817055895924582
20
-5.2049517631530584
30
0
10
98.547455146908774
20
-4.7812926769256414
30
0
0
SPLINE
5
226
100
AcDbEntity
8
0
100
AcDbSpline
70
0
71
2
72
6
73
3
74
0
42
0.000000001
43
0.0000000001
44
0.0000000001
40
0
40
0
40
0
40
1
40
1
40
1
10
98.547455146908774
20
-4.7812926769256414
30
0
10
98.277853801846518
20
-4.3576335906982244
30
0
10
98.156808093190207
20
-3.7414026260375799
30
0
0
LINE
5
227
100
AcDbEntity
8
0
100
AcDbLine
10
98.156808093190207
20
-3.7414026260375803
30
0
11
95.460797324776664
21
-3.7414026260375799
31
0
0
SPLINE
5
228
100
AcDbEntity
8
0
100
AcDbSpline
70
0
71
2
72
6
73
3
74
0
42
0.000000001
43
0.0000000001
44
0.0000000001
40
0
40
0
40
0
40
1
40
1
40
1
10
95.460797324776664
20
-3.7414026260375799
30
0
10
95.636863186955466
20
-5.1279222965240301
30
0
10
96.269600763916984
20
-6.1292982101440252
30
0
0
SPLINE
5
229
100
AcDbEntity
8
0
100
AcDbSpline
70
0
71
2
72
6
73
3
74
0
42
0.000000001
43
0.0000000001
44
0.0000000001
40
0
40
0
40
0
40
1
40
1
40
1
10
96.269600763916984
20
-6.1292982101440252
30
0
10
96.902337744832053
20
-7.1306741237640203
30
0
10
97.898211553692832
20
-7.6478672027587713
30
0
0
SPLINE
5
230
100
AcDbEntity
8
0
100
AcDbSpline
70
0
71
2
72
6
73
3
74
0
42
0.000000001
43
0.0000000001
44
0.0000000001
40
0
40
0
40
0
40
1
40
1
40
1
10
97.898211553692832
20
-7.6478672027587713
30
0
10
98.894085362553611
20
-8.1650614738464178
30
0
10
100.14855511486532
20
-8.1650614738464178
30
0
0
SPLINE
5
231
100
AcDbEntity
8
0
100
AcDbSpline
70
0
71
2
72
6
73
3
74
0
42
0.000000001
43
0.0000000001
44
0.0000000001
40
0
40
0
40
0
40
1
40
1
40
1
10
100.14855511486532
20
-8.1650614738464178
30
0
10
102.25034423172475
20
-8.1650614738464178
30
0
10
103.39477248489858
20
-7.0811545848846258
30
0
0
SPLINE
5
232
100
AcDbEntity
8
0
100
AcDbSpline
70
0
71
2
72
6
73
3
74
0
42
0.000000001
43
0.0000000001
44
0.0000000001
40
0
40
0
40
0
40
1
40
1
40
1
10
103.39477248489858
20
-7.0811545848846258
30
0
10
104.53920073807241
20
-5.9972488880157293
30
0
10
104.53920073807241
20
-4.0055012702941717
30
0
0
LINE
5
233
100
AcDbEntity
8
0
100
AcDbLine
10
104.53920073807241
20
-4.0055012702941726
30
0
11
104.53920073807241
21
-3.6313617229461492
31
0
0
SPLINE
5
234
100
AcDbEntity
8
0
100
AcDbSpline
70
0
71
2
72
6
73
3
74
0
42
0.000000001
43
0.0000000001
44
0.0000000001
40
0
40
0
40
0
40
1
40
1
40
1
10
104.53920073807241
20
-3.6313617229461492
30
0
10
104.53920073807241
20
-2.475928068160993
30
0
10
103.93397517502309
20
-1.6176068782806219
30
0
0
SPLINE
5
235
100
AcDbEntity
8
0
100
AcDbSpline
70
0
71
2
72
6
73
3
74
0
42
0.000000001
43
0.0000000001
44
0.0000000001
40
0
40
0
40
0
40
1
40
1
40
1
10
103.93397517502309
20
-1.6176068782806219
30
0
10
103.32874841988088
20
-0.75928449630735528
30
0
10
102.21733160316946
20
-0.35213112831113946
30
0
0
SPLINE
5
236
100
AcDbEntity
8
0
100
AcDbSpline
70
0
71
2
72
6
73
3
74
0
42
0.000000001
43
0.0000000001
44
0.0000000001
40
0
40
0
40
0
40
1
40
1
40
1
10
102.21733160316946
20
-0.35213112831113946
30
0
10
103.44979353249074
20
-0.077028274536115049
30
0
10
104.12654705345632
20
0.89683651924135077
30
0
0
SPLINE
5
237
100
AcDbEntity
8
0
100
AcDbSpline
70
0
71
2
72
6
73
3
74
0
42
0.000000001
43
0.0000000001
44
0.0000000001
40
0
40
0
40
0
40
1
40
1
40
1
10
104.12654705345632
20
0.89683651924135077
30
0
10
104.80330176651479
20
1.8707025051117121
30
0
10
104.80330176651479
20
3.3782672882080256
30
0
0
LINE
5
238
100
AcDbEntity
8
0
100
AcDbLine
10
104.80330176651479
20
3.3782672882080256
30
0
11
104.80330176651479
21
3.752406835556048
31
0
0
SPLINE
5
239
100
AcDbEntity
8
0
100
AcDbSpline
70
0
71
2
72
6
73
3
74
0
42
0.000000001
43
0.0000000001
44
0.0000000001
40
0
40
0
40
0
40
1
40
1
40
1
10
104.80330176651479
20
3.752406835556048
30
0
10
104.80330176651479
20
5.1499307155609308
30
0
10
104.25859637558462
20
6.1403024196624933
30
0
0
SPLINE
5
240
100
AcDbEntity
8
0
100
AcDbSpline
70
0
71
2
72
6
73
3
74
0
42
0.000000001
43
0.0000000001
44
0.0000000001
40
0
40
0
40
0
40
1
40
1
40
1
10
104.25859637558462
20
6.1403024196624933
30
0
10
103.71389336884023
20
7.1306741237640558
30
0
10
102.67400212585927
20
7.6478683948517023
30
0
0
SPLINE
5
241
100
AcDbEntity
8
0
100
AcDbSpline
70
0
71
2
72
6
73
3
74
0
42
0.000000001
43
0.0000000001
44
0.0000000001
40
0
40
0
40
0
40
1
40
1
40
1
10
102.67400212585927
20
7.6478683948517023
30
0
10
101.63411326706411
20
8.1650626659393488
30
0
10
100.15955932438375
20
8.1650626659393488
30
0
0
LWPOLYLINE
5
242
100
AcDbEntity
8
0
100
AcDbPolyline
90
15
70
1
43
0.0
10
81.348069523446256
20
53.174691200256333
10
86.498000835053617
20
42.005503177642808
10
89.359074448220426
20
42.005503177642808
10
84.341192458741361
20
53.042641878128038
10
88.027574633233243
20
53.042641878128038
10
88.027574633233243
20
48.585970401763902
10
90.635553215615445
20
48.585970401763902
10
90.635553215615445
20
53.042641878128038
10
91.857012127511197
20
53.042641878128038
10
91.857012127511197
20
55.540578365325914
10
90.635553215615445
20
55.540578365325914
10
90.635553215615445
20
58.005502223968492
10
88.027574633233243
20
58.005502223968492
10
88.027574633233243
20
55.540578365325914
10
81.348069523446256
20
55.540578365325914
0
SPLINE
5
243
100
AcDbEntity
8
0
100
AcDbSpline
70
0
71
2
72
6
73
3
74
0
42
0.000000001
43
0.0000000001
44
0.0000000001
40
0
40
0
40
0
40
1
40
1
40
1
10
49.983493387699163
20
94.767603044383151
30
0
10
48.740026652812993
20
94.767603044383151
30
0
10
47.755157649517095
20
94.24490607248984
30
0
0
SPLINE
5
244
100
AcDbEntity
8
0
100
AcDbSpline
70
0
71
2
72
6
73
3
74
0
42
0.000000001
43
0.0000000001
44
0.0000000001
40
0
40
0
40
0
40
1
40
1
40
1
10
47.755157649517095
20
94.24490607248984
30
0
10
46.770288050174749
20
93.722211484782321
30
0
10
46.165061295032537
20
92.731839780680758
30
0
0
SPLINE
5
245
100
AcDbEntity
8
0
100
AcDbSpline
70
0
71
2
72
6
73
3
74
0
42
0.000000001
43
0.0000000001
44
0.0000000001
40
0
40
0
40
0
40
1
40
1
40
1
10
46.165061295032537
20
92.731839780680758
30
0
10
45.559834241867101
20
91.741468076579196
30
0
10
45.40577650070194
20
90.365952615611178
30
0
0
LINE
5
246
100
AcDbEntity
8
0
100
AcDbLine
10
45.40577650070194
20
90.365952615611178
30
0
11
45.40577650070194
21
90.35494721399985
31
0
0
LINE
5
247
100
AcDbEntity
8
0
100
AcDbLine
10
45.40577650070194
20
90.35494721399985
30
0
11
48.035763204097783
21
90.35494721399985
31
0
0
LINE
5
248
100
AcDbEntity
8
0
100
AcDbLine
10
48.035763204097783
20
90.35494721399985
30
0
11
48.035763204097783
21
90.365952615611178
31
0
0
SPLINE
5
249
100
AcDbEntity
8
0
100
AcDbSpline
70
0
71
2
72
6
73
3
74
0
42
0.000000001
43
0.0000000001
44
0.0000000001
40
0
40
0
40
0
40
1
40
1
40
1
10
48.035763204097783
20
90.365952615611178
30
0
10
48.145804107189214
20
91.246282224528414
30
0
10
48.66299837827686
20
91.735965375773532
30
0
0
SPLINE
5
250
100
AcDbEntity
8
0
100
AcDbSpline
70
0
71
2
72
6
73
3
74
0
42
0.000000001
43
0.0000000001
44
0.0000000001
40
0
40
0
40
0
40
1
40
1
40
1
10
48.66299837827686
20
91.735965375773532
30
0
10
49.180192053318059
20
92.22565091120444
30
0
10
50.00550121068958
20
92.22565091120444
30
0
0
SPLINE
5
251
100
AcDbEntity
8
0
100
AcDbSpline
70
0
71
2
72
6
73
3
74
0
42
0.000000001
43
0.0000000001
44
0.0000000001
40
0
40
0
40
0
40
1
40
1
40
1
10
50.00550121068958
20
92.22565091120444
30
0
10
50.94085186719898
20
92.22565091120444
30
0
10
51.452544629573858
20
91.603917245738131
30
0
0
SPLINE
5
252
100
AcDbEntity
8
0
100
AcDbSpline
70
0
71
2
72
6
73
3
74
0
42
0.000000001
43
0.0000000001
44
0.0000000001
40
0
40
0
40
0
40
1
40
1
40
1
10
51.452544629573858
20
91.603917245738131
30
0
10
51.96423619985584
20
90.982183580271823
30
0
10
51.96423619985584
20
89.859762554041964
30
0
0
LINE
5
253
100
AcDbEntity
8
0
100
AcDbLine
10
51.96423619985584
20
89.859762554041964
30
0
11
51.96423619985584
21
88.517259721629244
31
0
0
SPLINE
5
254
100
AcDbEntity
8
0
100
AcDbSpline
70
0
71
2
72
6
73
3
74
0
42
0.000000001
43
0.0000000001
44
0.0000000001
40
0
40
0
40
0
40
1
40
1
40
1
10
51.96423619985584
20
88.517259721629244
30
0
10
51.96423619985584
20
87.394837503306491
30
0
10
51.474553048610723
20
86.778606538645846
30
0
0
SPLINE
5
255
100
AcDbEntity
8
0
100
AcDbSpline
70
0
71
2
72
6
73
3
74
0
42
0.000000001
43
0.0000000001
44
0.0000000001
40
0
40
0
40
0
40
1
40
1
40
1
10
51.474553048610723
20
86.778606538645846
30
0
10
50.98486870527271
20
86.162375573985202
30
0
10
50.093534886837041
20
86.162375573985202
30
0
0
SPLINE
5
256
100
AcDbEntity
8
0
100
AcDbSpline
70
0
71
2
72
6
73
3
74
0
42
0.000000001
43
0.0000000001
44
0.0000000001
40
0
40
0
40
0
40
1
40
1
40
1
10
50.093534886837041
20
86.162375573985202
30
0
10
49.477303326129949
20
86.162375573985202
30
0
10
48.982118070125615
20
86.492499475352389
30
0
0
SPLINE
5
257
100
AcDbEntity
8
0
100
AcDbSpline
70
0
71
2
72
6
73
3
74
0
42
0.000000001
43
0.0000000001
44
0.0000000001
40
0
40
0
40
0
40
1
40
1
40
1
10
48.982118070125615
20
86.492499475352389
30
0
10
48.486932218074834
20
86.822623376719577
30
0
10
48.189820945262944
20
87.416845922343356
30
0
0
LINE
5
258
100
AcDbEntity
8
0
100
AcDbLine
10
48.189820945262944
20
87.416845922343356
30
0
11
45.757908523082769
21
87.416845922343356
31
0
0
LINE
5
259
100
AcDbEntity
8
0
100
AcDbLine
10
45.757908523082769
20
87.416845922343356
30
0
11
45.757908523082769
21
78.602540855280978
31
0
0
LINE
5
260
100
AcDbEntity
8
0
100
AcDbLine
10
45.757908523082769
20
78.602540855280978
30
0
11
54.132048785686528
21
78.602540855280978
31
0
0
LINE
5
261
100
AcDbEntity
8
0
100
AcDbLine
10
54.132048785686528
20
78.602540855280978
30
0
11
54.132048785686528
21
81.122485761515719
31
0
0
LINE
5
262
100
AcDbEntity
8
0
100
AcDbLine
10
54.132048785686528
20
81.122485761515719
30
0
11
48.387894928455388
21
81.122485761515719
31
0
0
LINE
5
263
100
AcDbEntity
8
0
100
AcDbLine
10
48.387894928455388
20
81.122485761515719
30
0
11
48.387894928455388
21
84.335691099040133
31
0
0
SPLINE
5
264
100
AcDbEntity
8
0
100
AcDbSpline
70
0
71
2
72
6
73
3
74
0
42
0.000000001
43
0.0000000001
44
0.0000000001
40
0
40
0
40
0
40
1
40
1
40
1
10
48.387894928455388
20
84.335691099040133
30
0
10
48.773039281368291
20
83.994562988154513
30
0
10
49.323245584964788
20
83.807492618434054
30
0
0
SPLINE
5
265
100
AcDbEntity
8
0
100
AcDbSpline
70
0
71
2
72
6
73
3
74
0
42
0.000000001
43
0.0000000001
44
0.0000000001
40
0
40
0
40
0
40
1
40
1
40
1
10
49.323245584964788
20
83.807492618434054
30
0
10
49.873451888561284
20
83.620422248713595
30
0
10
50.434662997722661
20
83.620422248713595
30
0
0
SPLINE
5
266
100
AcDbEntity
8
0
100
AcDbSpline
70
0
71
2
72
6
73
3
74
0
42
0.000000001
43
0.0000000001
44
0.0000000001
40
0
40
0
40
0
40
1
40
1
40
1
10
50.434662997722661
20
83.620422248713595
30
0
10
51.755157411098516
20
83.620422248713595
30
0
10
52.690508067607915
20
84.192637567393405
30
0
0
SPLINE
5
267
100
AcDbEntity
8
0
100
AcDbSpline
70
0
71
2
72
6
73
3
74
0
42
0.000000001
43
0.0000000001
44
0.0000000001
40
0
40
0
40
0
40
1
40
1
40
1
10
52.690508067607915
20
84.192637567393405
30
0
10
53.625858724117315
20
84.764851693980319
30
0
10
54.110040366649663
20
85.865264301173312
30
0
0
SPLINE
5
268
100
AcDbEntity
8
0
100
AcDbSpline
70
0
71
2
72
6
73
3
74
0
42
0.000000001
43
0.0000000001
44
0.0000000001
40
0
40
0
40
0
40
1
40
1
40
1
10
54.110040366649663
20
85.865264301173312
30
0
10
54.594222009182012
20
86.965676908366305
30
0
10
54.594222009182012
20
88.517259721629244
30
0
0
LINE
5
269
100
AcDbEntity
8
0
100
AcDbLine
10
54.594222009182012
20
88.517259721629244
30
0
11
54.594222009182012
21
89.859762554041964
31
0
0
SPLINE
5
270
100
AcDbEntity
8
0
100
AcDbSpline
70
0
71
2
72
6
73
3
74
0
42
0.000000001
43
0.0000000001
44
0.0000000001
40
0
40
0
40
0
40
1
40
1
40
1
10
54.594222009182012
20
89.859762554041964
30
0
10
54.594222009182012
20
91.411344175212008
30
0
10
54.055020511150396
20
92.511757974497897
30
0
0
SPLINE
5
271
100
AcDbEntity
8
0
100
AcDbSpline
70
0
71
2
72
6
73
3
74
0
42
0.000000001
43
0.0000000001
44
0.0000000001
40
0
40
0
40
0
40
1
40
1
40
1
10
54.055020511150396
20
92.511757974497897
30
0
10
53.515817821025884
20
93.612169389597994
30
0
10
52.481430470943486
20
94.189886216990573
30
0
0
SPLINE
5
272
100
AcDbEntity
8
0
100
AcDbSpline
70
0
71
2
72
6
73
3
74
0
42
0.000000001
43
0.0000000001
44
0.0000000001
40
0
40
0
40
0
40
1
40
1
40
1
10
52.481430470943486
20
94.189886216990573
30
0
10
51.447041928768193
20
94.767603044383151
30
0
10
49.983493387699163
20
94.767603044383151
30
0
0
SPLINE
5
273
100
AcDbEntity
8
0
100
AcDbSpline
70
0
71
2
72
6
73
3
74
0
42
0.000000001
43
0.0000000001
44
0.0000000001
40
0
40
0
40
0
40
1
40
1
40
1
10
-0.0055019557475921577
20
108.16506266593933
30
0
10
-1.4470426738262054
20
108.16506266593933
30
0
10
-2.4704264104366178
20
107.59835124015808
30
0
0
SPLINE
5
274
100
AcDbEntity
8
0
100
AcDbSpline
70
0
71
2
72
6
73
3
74
0
42
0.000000001
43
0.0000000001
44
0.0000000001
40
0
40
0
40
0
40
1
40
1
40
1
10
-2.4704264104366178
20
107.59835124015808
30
0
10
-3.4938101470470304
20
107.03163743019104
30
0
10
-4.0330122411250944
20
105.94773173332214
30
0
0
SPLINE
5
275
100
AcDbEntity
8
0
100
AcDbSpline
70
0
71
2
72
6
73
3
74
0
42
0.000000001
43
0.0000000001
44
0.0000000001
40
0
40
0
40
0
40
1
40
1
40
1
10
-4.0330122411250944
20
105.94773173332214
30
0
10
-4.5722143352031583
20
104.86382365226746
30
0
10
-4.5722143352031583
20
103.33425164222717
30
0
0
LINE
5
276
100
AcDbEntity
8
0
100
AcDbLine
10
-4.5722143352031583
20
103.33425164222717
30
0
11
-4.5722143352031583
21
103.32324624061584
31
0
0
SPLINE
5
277
100
AcDbEntity
8
0
100
AcDbSpline
70
0
71
2
72
6
73
3
74
0
42
0.000000001
43
0.0000000001
44
0.0000000001
40
0
40
0
40
0
40
1
40
1
40
1
10
-4.5722143352031583
20
103.32324624061584
30
0
10
-4.5722143352031583
20
102.44291663169861
30
0
10
-4.3576340377330656
20
101.46905064582825
30
0
0
SPLINE
5
278
100
AcDbEntity
8
0
100
AcDbSpline
70
0
71
2
72
6
73
3
74
0
42
0.000000001
43
0.0000000001
44
0.0000000001
40
0
40
0
40
0
40
1
40
1
40
1
10
-4.3576340377330656
20
101.46905064582825
30
0
10
-4.1430537402629728
20
100.49518704414368
30
0
10
-3.7469048798084135
20
99.526823759078979
30
0
0
SPLINE
5
279
100
AcDbEntity
8
0
100
AcDbSpline
70
0
71
2
72
6
73
3
74
0
42
0.000000001
43
0.0000000001
44
0.0000000001
40
0
40
0
40
0
40
1
40
1
40
1
10
-3.7469048798084135
20
99.526823759078979
30
0
10
-3.6808805167674894
20
99.361761808395386
30
0
10
-3.6093537509441251
20
99.202201366424561
30
0
0
SPLINE
5
280
100
AcDbEntity
8
0
100
AcDbSpline
70
0
71
2
72
6
73
3
74
0
42
0.000000001
43
0.0000000001
44
0.0000000001
40
0
40
0
40
0
40
1
40
1
40
1
10
-3.6093537509441251
20
99.202201366424561
30
0
10
-3.5378263890743131
20
99.042640924453735
30
0
10
-3.4607975184917326
20
98.88858437538147
30
0
0
LINE
5
281
100
AcDbEntity
8
0
100
AcDbLine
10
-3.4607975184917321
20
98.888584375381484
30
0
11
-0.093535035848605341
21
92.000000476837158
31
0
0
LINE
5
282
100
AcDbEntity
8
0
100
AcDbLine
10
-0.093535035848605341
20
92.000000476837158
30
0
11
2.8225584328174715
21
92.000000476837158
31
0
0
LINE
5
283
100
AcDbEntity
8
0
100
AcDbLine
10
2.8225584328174715
20
92.000000476837158
30
0
11
-0.50113587270173976
21
98.675011092006528
31
0
0
SPLINE
5
284
100
AcDbEntity
8
0
100
AcDbSpline
70
0
71
2
72
6
73
3
74
0
42
0.000000001
43
0.0000000001
44
0.0000000001
40
0
40
0
40
0
40
1
40
1
40
1
10
0.51169231534005433
20
98.492435216903687
30
0
10
1.7991752922535065
20
98.492435216903687
30
0
10
2.7125175297260409
20
99.053646326065063
30
0
0
SPLINE
5
285
100
AcDbEntity
8
0
100
AcDbSpline
70
0
71
2
72
6
73
3
74
0
42
0.000000001
43
0.0000000001
44
0.0000000001
40
0
40
0
40
0
40
1
40
1
40
1
10
2.7125175297260409
20
99.053646326065063
30
0
10
3.6258597671985751
20
99.614856243133545
30
0
10
4.0990372002124911
20
100.68775773048401
30
0
0
SPLINE
5
286
100
AcDbEntity
8
0
100
AcDbSpline
70
0
71
2
72
6
73
3
74
0
42
0.000000001
43
0.0000000001
44
0.0000000001
40
0
40
0
40
0
40
1
40
1
40
1
10
4.0990372002124911
20
100.68775773048401
30
0
10
4.5722146332264071
20
101.76066040992737
30
0
10
4.5722146332264071
20
103.26822638511658
30
0
0
LINE
5
287
100
AcDbEntity
8
0
100
AcDbLine
10
4.5722146332264071
20
103.26822638511656
30
0
11
4.5722146332264071
21
103.27923059463501
31
0
0
SPLINE
5
288
100
AcDbEntity
8
0
100
AcDbSpline
70
0
71
2
72
6
73
3
74
0
42
0.000000001
43
0.0000000001
44
0.0000000001
40
0
40
0
40
0
40
1
40
1
40
1
10
4.5722146332264071
20
103.27923059463501
30
0
10
4.5722146332264071
20
104.81980681419373
30
0
10
4.0385146439075594
20
105.92022061347961
30
0
0
SPLINE
5
289
100
AcDbEntity
8
0
100
AcDbSpline
70
0
71
2
72
6
73
3
74
0
42
0.000000001
43
0.0000000001
44
0.0000000001
40
0
40
0
40
0
40
1
40
1
40
1
10
4.0385146439075594
20
105.92022061347961
30
0
10
3.5048146545887118
20
107.0206344127655
30
0
10
2.4759288132190829
20
107.59284853935242
30
0
0
SPLINE
5
290
100
AcDbEntity
8
0
100
AcDbSpline
70
0
71
2
72
6
73
3
74
0
42
0.000000001
43
0.0000000001
44
0.0000000001
40
0
40
0
40
0
40
1
40
1
40
1
10
2.4759288132190829
20
107.59284853935242
30
0
10
1.4470429718494537
20
108.16506266593933
30
0
10
-0.0055019557475921577
20
108.16506266593933
30
0
0
SPLINE
5
291
100
AcDbEntity
8
0
100
AcDbSpline
70
0
71
2
72
6
73
3
74
0
42
0.000000001
43
0.0000000001
44
0.0000000001
40
0
40
0
40
0
40
1
40
1
40
1
10
-0.0055019557475921577
20
105.63411355018616
30
0
10
0.92984929680825501
20
105.63411355018616
30
0
10
1.4360387623310211
20
105.06739974021912
30
0
0
SPLINE
5
292
100
AcDbEntity
8
0
100
AcDbSpline
70
0
71
2
72
6
73
3
74
0
42
0.000000001
43
0.0000000001
44
0.0000000001
40
0
40
0
40
0
40
1
40
1
40
1
10
1.4360387623310211
20
105.06739974021912
30
0
10
1.942228823900235
20
104.50068831443787
30
0
10
1.942228823900235
20
103.46629977226257
30
0
0
LINE
5
293
100
AcDbEntity
8
0
100
AcDbLine
10
1.942228823900235
20
103.46629977226257
30
0
11
1.942228823900235
21
103.45529675483704
31
0
0
SPLINE
5
294
100
AcDbEntity
8
0
100
AcDbSpline
70
0
71
2
72
6
73
3
74
0
42
0.000000001
43
0.0000000001
44
0.0000000001
40
0
40
0
40
0
40
1
40
1
40
1
10
1.942228823900235
20
103.45529675483704
30
0
10
1.942228823900235
20
102.28885889053345
30
0
10
1.4250345528125885
20
101.65612101554871
30
0
0
SPLINE
5
295
100
AcDbEntity
8
0
100
AcDbSpline
70
0
71
2
72
6
73
3
74
0
42
0.000000001
43
0.0000000001
44
0.0000000001
40
0
40
0
40
0
40
1
40
1
40
1
10
1.4250345528125885
20
101.65612101554871
30
0
10
0.90784087777138978
20
101.02338433265686
30
0
10
-0.06052240729330749
20
101.02338433265686
30
0
0
SPLINE
5
296
100
AcDbEntity
8
0
100
AcDbSpline
70
0
71
2
72
6
73
3
74
0
42
0.000000001
43
0.0000000001
44
0.0000000001
40
0
40
0
40
0
40
1
40
1
40
1
10
-0.06052240729330749
20
101.02338433265686
30
0
10
-0.95185682177542419
20
101.02338433265686
30
0
10
-1.4470426738262054
20
101.66162371635437
30
0
0
SPLINE
5
297
100
AcDbEntity
8
0
100
AcDbSpline
70
0
71
2
72
6
73
3
74
0
42
0.000000001
43
0.0000000001
44
0.0000000001
40
0
40
0
40
0
40
1
40
1
40
1
10
-1.4470426738262054
20
101.66162371635437
30
0
10
-1.9422279298305389
20
102.29986310005188
30
0
10
-1.9422279298305389
20
103.46629977226257
30
0
0
LINE
5
298
100
AcDbEntity
8
0
100
AcDbLine
10
-1.9422279298305389
20
103.46629977226257
30
0
11
-1.9422279298305389
21
103.4773051738739
31
0
0
SPLINE
5
299
100
AcDbEntity
8
0
100
AcDbSpline
70
0
71
2
72
6
73
3
74
0
42
0.000000001
43
0.0000000001
44
0.0000000001
40
0
40
0
40
0
40
1
40
1
40
1
10
-1.9422279298305389
20
103.4773051738739
30
0
10
-1.9422279298305389
20
104.51169371604919
30
0
10
-1.4360384643077728
20
105.07290244102478
30
0
0
SPLINE
5
300
100
AcDbEntity
8
0
100
AcDbSpline
70
0
71
2
72
6
73
3
74
0
42
0.000000001
43
0.0000000001
44
0.0000000001
40
0
40
0
40
0
40
1
40
1
40
1
10
-1.4360384643077728
20
105.07290244102478
30
0
10
-0.92984840273855895
20
105.63411355018616
30
0
10
-0.0055019557475921577
20
105.63411355018616
30
0
0
LWPOLYLINE
5
301
100
AcDbEntity
8
0
100
AcDbPolyline
90
9
70
1
43
0.0
10
-45.537825897335992
20
80.605291490428144
10
-49.400275424122796
20
94.602541093699628
10
-52.22833581268786
20
94.602541093699628
10
-48.420907333493219
20
81.12248576151579
10
-51.832187250256524
20
81.12248576151579
10
-51.832187250256524
20
83.477368717066938
10
-54.462173655629144
20
83.477368717066938
10
-54.462173655629144
20
78.602540855281049
10
-45.537825897335992
20
78.602540855281049
0
SPLINE
5
302
100
AcDbEntity
8
0
100
AcDbSpline
70
0
71
2
72
6
73
3
74
0
42
0.000000001
43
0.0000000001
44
0.0000000001
40
0
40
0
40
0
40
1
40
1
40
1
10
-86.602540229432222
20
58.165062665939345
30
0
10
-88.088097189538118
20
58.165062665939345
30
0
10
-89.210518215767976
20
57.614856958389296
30
0
0
SPLINE
5
303
100
AcDbEntity
8
0
100
AcDbSpline
70
0
71
2
72
6
73
3
74
0
42
0.000000001
43
0.0000000001
44
0.0000000001
40
0
40
0
40
0
40
1
40
1
40
1
10
-89.210518215767976
20
57.614856958389296
30
0
10
-90.332939241997835
20
57.064648866653457
30
0
10
-90.949170206658479
20
56.057771444320693
30
0
0
SPLINE
5
304
100
AcDbEntity
8
0
100
AcDbSpline
70
0
71
2
72
6
73
3
74
0
42
0.000000001
43
0.0000000001
44
0.0000000001
40
0
40
0
40
0
40
1
40
1
40
1
10
-90.949170206658479
20
56.057771444320693
30
0
10
-91.565401171319124
20
55.050894021987929
30
0
10
-91.565401171319124
20
53.719395399093642
30
0
0
LINE
5
305
100
AcDbEntity
8
0
100
AcDbLine
10
-91.565401171319124
20
53.719395399093642
30
0
11
-91.565401171319124
21
53.45529675483705
31
0
0
SPLINE
5
306
100
AcDbEntity
8
0
100
AcDbSpline
70
0
71
2
72
6
73
3
74
0
42
0.000000001
43
0.0000000001
44
0.0000000001
40
0
40
0
40
0
40
1
40
1
40
1
10
-91.565401171319124
20
53.45529675483705
30
0
10
-91.565401171319124
20
52.255846261978164
30
0
10
-90.93266389238083
20
51.199450492858901
30
0
0
SPLINE
5
307
100
AcDbEntity
8
0
100
AcDbSpline
70
0
71
2
72
6
73
3
74
0
42
0.000000001
43
0.0000000001
44
0.0000000001
40
0
40
0
40
0
40
1
40
1
40
1
10
-90.93266389238083
20
51.199450492858901
30
0
10
-90.299926613442537
20
50.143054723739638
30
0
10
-89.254534457795259
20
49.603852033615127
30
0
0
SPLINE
5
308
100
AcDbEntity
8
0
100
AcDbSpline
70
0
71
2
72
6
73
3
74
0
42
0.000000001
43
0.0000000001
44
0.0000000001
40
0
40
0
40
0
40
1
40
1
40
1
10
-89.254534457795259
20
49.603852033615127
30
0
10
-90.145868872277376
20
49.141678810119643
30
0
10
-90.690573071114656
20
48.272353410720839
30
0
0
SPLINE
5
309
100
AcDbEntity
8
0
100
AcDbSpline
70
0
71
2
72
6
73
3
74
0
42
0.000000001
43
0.0000000001
44
0.0000000001
40
0
40
0
40
0
40
1
40
1
40
1
10
-90.690573071114656
20
48.272353410720839
30
0
10
-91.23527756797516
20
47.40302681922914
30
0
10
-91.23527756797516
20
46.434663534164443
30
0
0
LINE
5
310
100
AcDbEntity
8
0
100
AcDbLine
10
-91.23527756797516
20
46.434663534164457
30
0
11
-91.23527756797516
21
46.03851437568666
31
0
0
SPLINE
5
311
100
AcDbEntity
8
0
100
AcDbSpline
70
0
71
2
72
6
73
3
74
0
42
0.000000001
43
0.0000000001
44
0.0000000001
40
0
40
0
40
0
40
1
40
1
40
1
10
-91.23527756797516
20
46.03851437568666
30
0
10
-91.23527756797516
20
44.784044027328505
30
0
10
-90.657561038605806
20
43.832187652587905
30
0
0
SPLINE
5
312
100
AcDbEntity
8
0
100
AcDbSpline
70
0
71
2
72
6
73
3
74
0
42
0.000000001
43
0.0000000001
44
0.0000000001
40
0
40
0
40
0
40
1
40
1
40
1
10
-90.657561038605806
20
43.832187652587905
30
0
10
-90.079844211213228
20
42.880330085754409
30
0
10
-89.03445205556595
20
42.357634305953994
30
0
0
SPLINE
5
313
100
AcDbEntity
8
0
100
AcDbSpline
70
0
71
2
72
6
73
3
74
0
42
0.000000001
43
0.0000000001
44
0.0000000001
40
0
40
0
40
0
40
1
40
1
40
1
10
-89.03445205556595
20
42.357634305953994
30
0
10
-87.989059899918672
20
41.834938526153579
30
0
10
-86.602540229432222
20
41.834938526153579
30
0
0
SPLINE
5
314
100
AcDbEntity
8
0
100
AcDbSpline
70
0
71
2
72
6
73
3
74
0
42
0.000000001
43
0.0000000001
44
0.0000000001
40
0
40
0
40
0
40
1
40
1
40
1
10
-86.602540229432222
20
41.834938526153579
30
0
10
-85.216019962899324
20
41.834938526153579
30
0
10
-84.16512570249283
20
42.357634305953994
30
0
0
SPLINE
5
315
100
AcDbEntity
8
0
100
AcDbSpline
70
0
71
2
72
6
73
3
74
0
42
0.000000001
43
0.0000000001
44
0.0000000001
40
0
40
0
40
0
40
1
40
1
40
1
10
-84.16512570249283
20
42.357634305953994
30
0
10
-83.114231442086336
20
42.880330085754409
30
0
10
-82.542017315499422
20
43.832187652587905
30
0
0
SPLINE
5
316
100
AcDbEntity
8
0
100
AcDbSpline
70
0
71
2
72
6
73
3
74
0
42
0.000000001
43
0.0000000001
44
0.0000000001
40
0
40
0
40
0
40
1
40
1
40
1
10
-82.542017315499422
20
43.832187652587905
30
0
10
-81.969803188912508
20
44.784044027328505
30
0
10
-81.969803188912508
20
46.03851437568666
30
0
0
LINE
5
317
100
AcDbEntity
8
0
100
AcDbLine
10
-81.969803188912508
20
46.03851437568666
30
0
11
-81.969803188912508
21
46.434663534164443
31
0
0
SPLINE
5
318
100
AcDbEntity
8
0
100
AcDbSpline
70
0
71
2
72
6
73
3
74
0
42
0.000000001
43
0.0000000001
44
0.0000000001
40
0
40
0
40
0
40
1
40
1
40
1
10
-81.969803188912508
20
46.434663534164443
30
0
10
-81.969803188912508
20
47.425035238266005
30
0
10
-82.520008896462556
20
48.288859128952041
30
0
0
SPLINE
5
319
100
AcDbEntity
8
0
100
AcDbSpline
70
0
71
2
72
6
73
3
74
0
42
0.000000001
43
0.0000000001
44
0.0000000001
40
0
40
0
40
0
40
1
40
1
40
1
10
-82.520008896462556
20
48.288859128952041
30
0
10
-83.070214604012605
20
49.152683019638076
30
0
10
-83.983558033578035
20
49.603852033615127
30
0
0
SPLINE
5
320
100
AcDbEntity
8
0
100
AcDbSpline
70
0
71
2
72
6
73
3
74
0
42
0.000000001
43
0.0000000001
44
0.0000000001
40
0
40
0
40
0
40
1
40
1
40
1
10
-83.983558033578035
20
49.603852033615127
30
0
10
-82.91615805494034
20
50.154057741165175
30
0
10
-82.27791867124283
20
51.204952001571669
30
0
0
SPLINE
5
321
100
AcDbEntity
8
0
100
AcDbSpline
70
0
71
2
72
6
73
3
74
0
42
0.000000001
43
0.0000000001
44
0.0000000001
40
0
40
0
40
0
40
1
40
1
40
1
10
-82.27791867124283
20
51.204952001571669
30
0
10
-81.63967928754532
20
52.255846261978164
30
0
10
-81.63967928754532
20
53.45529675483705
30
0
0
LINE
5
322
100
AcDbEntity
8
0
100
AcDbLine
10
-81.63967928754532
20
53.455296754837043
30
0
11
-81.63967928754532
21
53.719395399093642
31
0
0
SPLINE
5
323
100
AcDbEntity
8
0
100
AcDbSpline
70
0
71
2
72
6
73
3
74
0
42
0.000000001
43
0.0000000001
44
0.0000000001
40
0
40
0
40
0
40
1
40
1
40
1
10
-81.63967928754532
20
53.719395399093642
30
0
10
-81.63967928754532
20
55.050894021987929
30
0
10
-82.250407551400301
20
56.057771444320693
30
0
0
SPLINE
5
324
100
AcDbEntity
8
0
100
AcDbSpline
70
0
71
2
72
6
73
3
74
0
42
0.000000001
43
0.0000000001
44
0.0000000001
40
0
40
0
40
0
40
1
40
1
40
1
10
-82.250407551400301
20
56.057771444320693
30
0
10
-82.861138199441072
20
57.064648866653457
30
0
10
-83.989059542290804
20
57.614856958389296
30
0
0
SPLINE
5
325
100
AcDbEntity
8
0
100
AcDbSpline
70
0
71
2
72
6
73
3
74
0
42
0.000000001
43
0.0000000001
44
0.0000000001
40
0
40
0
40
0
40
1
40
1
40
1
10
-83.989059542290804
20
57.614856958389296
30
0
10
-85.116983269326326
20
58.165062665939345
30
0
10
-86.602540229432222
20
58.165062665939345
30
0
0
SPLINE
5
326
100
AcDbEntity
8
0
100
AcDbSpline
70
0
71
2
72
6
73
3
74
0
42
0.000000001
43
0.0000000001
44
0.0000000001
40
0
40
0
40
0
40
1
40
1
40
1
10
-86.602540229432222
20
55.634113550186171
30
0
10
-85.909279798142549
20
55.634113550186171
30
0
10
-85.375579212777254
20
55.353509187698378
30
0
0
SPLINE
5
327
100
AcDbEntity
8
0
100
AcDbSpline
70
0
71
2
72
6
73
3
74
0
42
0.000000001
43
0.0000000001
44
0.0000000001
40
0
40
0
40
0
40
1
40
1
40
1
10
-85.375579212777254
20
55.353509187698378
30
0
10
-84.841879223458406
20
55.072902441024794
30
0
10
-84.550269459359285
20
54.57221627235414
30
0
0
SPLINE
5
328
100
AcDbEntity
8
0
100
AcDbSpline
70
0
71
2
72
6
73
3
74
0
42
0.000000001
43
0.0000000001
44
0.0000000001
40
0
40
0
40
0
40
1
40
1
40
1
10
-84.550269459359285
20
54.57221627235414
30
0
10
-84.258660887353059
20
54.071527719497695
30
0
10
-84.258660887353059
20
53.41127991676332
30
0
0
LINE
5
329
100
AcDbEntity
8
0
100
AcDbLine
10
-84.258660887353059
20
53.41127991676332
30
0
11
-84.258660887353059
21
53.257222175598159
31
0
0
SPLINE
5
330
100
AcDbEntity
8
0
100
AcDbSpline
70
0
71
2
72
6
73
3
74
0
42
0.000000001
43
0.0000000001
44
0.0000000001
40
0
40
0
40
0
40
1
40
1
40
1
10
-84.258660887353059
20
53.257222175598159
30
0
10
-84.258660887353059
20
52.618982791900649
30
0
10
-84.550269459359285
20
52.140303850173964
30
0
0
SPLINE
5
331
100
AcDbEntity
8
0
100
AcDbSpline
70
0
71
2
72
6
73
3
74
0
42
0.000000001
43
0.0000000001
44
0.0000000001
40
0
40
0
40
0
40
1
40
1
40
1
10
-84.550269459359285
20
52.140303850173964
30
0
10
-84.841879223458406
20
51.661623716354384
30
0
10
-85.370077704064485
20
51.392022371292128
30
0
0
SPLINE
5
332
100
AcDbEntity
8
0
100
AcDbSpline
70
0
71
2
72
6
73
3
74
0
42
0.000000001
43
0.0000000001
44
0.0000000001
40
0
40
0
40
0
40
1
40
1
40
1
10
-85.370077704064485
20
51.392022371292128
30
0
10
-85.898275588624116
20
51.122421026229873
30
0
10
-86.602540229432222
20
51.122421026229873
30
0
0
SPLINE
5
333
100
AcDbEntity
8
0
100
AcDbSpline
70
0
71
2
72
6
73
3
74
0
42
0.000000001
43
0.0000000001
44
0.0000000001
40
0
40
0
40
0
40
1
40
1
40
1
10
-86.602540229432222
20
51.122421026229873
30
0
10
-87.295800064675447
20
51.122421026229873
30
0
10
-87.823997949235078
20
51.392022371292128
30
0
0
SPLINE
5
334
100
AcDbEntity
8
0
100
AcDbSpline
70
0
71
2
72
6
73
3
74
0
42
0.000000001
43
0.0000000001
44
0.0000000001
40
0
40
0
40
0
40
1
40
1
40
1
10
-87.823997949235078
20
51.392022371292128
30
0
10
-88.352196429841158
20
51.661623716354384
30
0
10
-88.643805597893831
20
52.145805358886733
30
0
0
SPLINE
5
335
100
AcDbEntity
8
0
100
AcDbSpline
70
0
71
2
72
6
73
3
74
0
42
0.000000001
43
0.0000000001
44
0.0000000001
40
0
40
0
40
0
40
1
40
1
40
1
10
-88.643805597893831
20
52.145805358886733
30
0
10
-88.935414765946504
20
52.629987001419082
30
0
10
-88.935414765946504
20
53.268226385116591
30
0
0
LINE
5
336
100
AcDbEntity
8
0
100
AcDbLine
10
-88.935414765946504
20
53.268226385116591
30
0
11
-88.935414765946504
21
53.433288335800185
31
0
0
SPLINE
5
337
100
AcDbEntity
8
0
100
AcDbSpline
70
0
71
2
72
6
73
3
74
0
42
0.000000001
43
0.0000000001
44
0.0000000001
40
0
40
0
40
0
40
1
40
1
40
1
10
-88.935414765946504
20
53.433288335800185
30
0
10
-88.935414765946504
20
54.09353613853456
30
0
10
-88.643805597893831
20
54.588721990585341
30
0
0
SPLINE
5
338
100
AcDbEntity
8
0
100
AcDbSpline
70
0
71
2
72
6
73
3
74
0
42
0.000000001
43
0.0000000001
44
0.0000000001
40
0
40
0
40
0
40
1
40
1
40
1
10
-88.643805597893831
20
54.588721990585341
30
0
10
-88.352196429841158
20
55.083907842636123
30
0
10
-87.823997949235078
20
55.359009504318252
30
0
0
SPLINE
5
339
100
AcDbEntity
8
0
100
AcDbSpline
70
0
71
2
72
6
73
3
74
0
42
0.000000001
43
0.0000000001
44
0.0000000001
40
0
40
0
40
0
40
1
40
1
40
1
10
-87.823997949235078
20
55.359009504318252
30
0
10
-87.295800064675447
20
55.634113550186171
30
0
10
-86.602540229432222
20
55.634113550186171
30
0
0
SPLINE
5
340
100
AcDbEntity
8
0
100
AcDbSpline
70
0
71
2
72
6
73
3
74
0
42
0.000000001
43
0.0000000001
44
0.0000000001
40
0
40
0
40
0
40
1
40
1
40
1
10
-86.602540229432222
20
48.580468893051162
30
0
10
-86.008317087761995
20
48.580468893051162
30
0
10
-85.551645969025728
20
48.321870565414443
30
0
0
SPLINE
5
341
100
AcDbEntity
8
0
100
AcDbSpline
70
0
71
2
72
6
73
3
74
0
42
0.000000001
43
0.0000000001
44
0.0000000001
40
0
40
0
40
0
40
1
40
1
40
1
10
-85.551645969025728
20
48.321870565414443
30
0
10
-85.094974850289461
20
48.063274621963515
30
0
10
-84.84738192426407
20
47.590097188949599
30
0
0
SPLINE
5
342
100
AcDbEntity
8
0
100
AcDbSpline
70
0
71
2
72
6
73
3
74
0
42
0.000000001
43
0.0000000001
44
0.0000000001
40
0
40
0
40
0
40
1
40
1
40
1
10
-84.84738192426407
20
47.590097188949599
30
0
10
-84.599788998238679
20
47.116919755935683
30
0
10
-84.599788998238679
20
46.489684581756606
30
0
0
LINE
5
343
100
AcDbEntity
8
0
100
AcDbLine
10
-84.599788998238679
20
46.489684581756606
30
0
11
-84.599788998238679
21
46.335626840591445
31
0
0
SPLINE
5
344
100
AcDbEntity
8
0
100
AcDbSpline
70
0
71
2
72
6
73
3
74
0
42
0.000000001
43
0.0000000001
44
0.0000000001
40
0
40
0
40
0
40
1
40
1
40
1
10
-84.599788998238679
20
46.335626840591445
30
0
10
-84.599788998238679
20
45.752407312393203
30
0
10
-84.84738192426407
20
45.301238298416152
30
0
0
SPLINE
5
345
100
AcDbEntity
8
0
100
AcDbSpline
70
0
71
2
72
6
73
3
74
0
42
0.000000001
43
0.0000000001
44
0.0000000001
40
0
40
0
40
0
40
1
40
1
40
1
10
-84.84738192426407
20
45.301238298416152
30
0
10
-85.094974850289461
20
44.850069284439101
30
0
10
-85.551645969025728
20
44.607977867126479
30
0
0
SPLINE
5
346
100
AcDbEntity
8
0
100
AcDbSpline
70
0
71
2
72
6
73
3
74
0
42
0.000000001
43
0.0000000001
44
0.0000000001
40
0
40
0
40
0
40
1
40
1
40
1
10
-85.551645969025728
20
44.607977867126479
30
0
10
-86.008317087761995
20
44.365887641906752
30
0
10
-86.602540229432222
20
44.365887641906752
30
0
0
SPLINE
5
347
100
AcDbEntity
8
0
100
AcDbSpline
70
0
71
2
72
6
73
3
74
0
42
0.000000001
43
0.0000000001
44
0.0000000001
40
0
40
0
40
0
40
1
40
1
40
1
10
-86.602540229432222
20
44.365887641906752
30
0
10
-87.196762775056001
20
44.365887641906752
30
0
10
-87.6479323850795
20
44.607977867126479
30
0
0
SPLINE
5
348
100
AcDbEntity
8
0
100
AcDbSpline
70
0
71
2
72
6
73
3
74
0
42
0.000000001
43
0.0000000001
44
0.0000000001
40
0
40
0
40
0
40
1
40
1
40
1
10
-87.6479323850795
20
44.607977867126479
30
0
10
-88.099101399056551
20
44.850069284439101
30
0
10
-88.352196429841158
20
45.301238298416152
30
0
0
SPLINE
5
349
100
AcDbEntity
8
0
100
AcDbSpline
70
0
71
2
72
6
73
3
74
0
42
0.000000001
43
0.0000000001
44
0.0000000001
40
0
40
0
40
0
40
1
40
1
40
1
10
-88.352196429841158
20
45.301238298416152
30
0
10
-88.605291460625764
20
45.752407312393203
30
0
10
-88.605291460625764
20
46.346629858016982
30
0
0
LINE
5
350
100
AcDbEntity
8
0
100
AcDbLine
10
-88.605291460625764
20
46.346629858016982
30
0
11
-88.605291460625764
21
46.511691808700576
31
0
0
SPLINE
5
351
100
AcDbEntity
8
0
100
AcDbSpline
70
0
71
2
72
6
73
3
74
0
42
0.000000001
43
0.0000000001
44
0.0000000001
40
0
40
0
40
0
40
1
40
1
40
1
10
-88.605291460625764
20
46.511691808700576
30
0
10
-88.605291460625764
20
47.127923965454116
30
0
10
-88.352196429841158
20
47.595598697662368
30
0
0
SPLINE
5
352
100
AcDbEntity
8
0
100
AcDbSpline
70
0
71
2
72
6
73
3
74
0
42
0.000000001
43
0.0000000001
44
0.0000000001
40
0
40
0
40
0
40
1
40
1
40
1
10
-88.352196429841158
20
47.595598697662368
30
0
10
-88.099101399056551
20
48.063274621963515
30
0
10
-87.6479323850795
20
48.321870565414443
30
0
0
SPLINE
5
353
100
AcDbEntity
8
0
100
AcDbSpline
70
0
71
2
72
6
73
3
74
0
42
0.000000001
43
0.0000000001
44
0.0000000001
40
0
40
0
40
0
40
1
40
1
40
1
10
-87.6479323850795
20
48.321870565414443
30
0
10
-87.196762775056001
20
48.580468893051162
30
0
10
-86.602540229432222
20
48.580468893051162
30
0
0
SPLINE
5
354
100
AcDbEntity
8
0
100
AcDbSpline
70
0
71
2
72
6
73
3
74
0
42
0.000000001
43
0.0000000001
44
0.0000000001
40
0.96706955154891705
40
0.96706955154891705
40
0.96706955154891705
40
1
40
1
40
1
10
-99.270444258868679
20
1.1780746035628615
30
0
10
-99.288439692603532
20
1.1861579723569422
30
0
10
-99.306739419698715
20
1.1939489841461359
30
0
0
SPLINE
5
355
100
AcDbEntity
8
0
100
AcDbSpline
70
0
71
2
72
6
73
3
74
0
42
0.000000001
43
0.0000000001
44
0.0000000001
40
0.20116440965548413
40
0.20116440965548413
40
0.20116440965548413
40
1
40
1
40
1
10
-0.50113587270173976
20
98.675011092006528
30
0
10
-0.050898868615541062
20
98.492435216903687
30
0
10
0.51169231534005433
20
98.492435216903687
30
0
0
ENDSEC
0
SECTION
2
OBJECTS
0
DICTIONARY
5
C
100
AcDbDictionary
3
ACAD_GROUP
350
D
3
ACAD_MLINESTYLE
350
17
0
DICTIONARY
5
D
100
AcDbDictionary
0
DICTIONARY
5
1A
330
C
100
AcDbDictionary
0
DICTIONARY
5
17
100
AcDbDictionary
0
ENDSEC
0
EOF
