0
SECTION
2
HEADER
9
$INSUNITS
70
4
9
$ACADVER
1
AC1014
9
$HANDSEED
5
FFFF
0
ENDSEC
0
SECTION
2
TABLES
0
TABLE
2
VPORT
5
8
100
AcDbSymbolTable
0
ENDTAB
0
TABLE
2
LTYPE
5
5
100
AcDbSymbolTable
0
LTYPE
5
14
100
AcDbSymbolTableRecord
100
AcDbLinetypeTableRecord
2
BYBLOCK
70
0
0
LTYPE
5
15
100
AcDbSymbolTableRecord
100
AcDbLinetypeTableRecord
2
BYLAYER
70
0
0
ENDTAB
0
TABLE
2
LAYER
5
2
100
AcDbSymbolTable
70
2
0
LAYER
5
50
100
AcDbSymbolTableRecord
100
AcDbLayerTableRecord
2
0
70
0
6
CONTINUOUS
0
ENDTAB
0
TABLE
2
STYLE
5
3
100
AcDbSymbolTable
70
1
0
STYLE
5
11
100
AcDbSymbolTableRecord
100
AcDbTextStyleTableRecord
2
STANDARD
70
0
0
ENDTAB
0
TABLE
2
VIEW
5
6
100
AcDbSymbolTable
70
0
0
ENDTAB
0
TABLE
2
UCS
5
7
100
AcDbSymbolTable
70
0
0
ENDTAB
0
TABLE
2
APPID
5
9
100
AcDbSymbolTable
70
2
0
APPID
5
12
100
AcDbSymbolTableRecord
100
AcDbRegAppTableRecord
2
ACAD
70
0
0
ENDTAB
0
TABLE
2
DIMSTYLE
5
A
100
AcDbSymbolTable
70
1
0
ENDTAB
0
TABLE
2
BLOCK_RECORD
5
1
100
AcDbSymbolTable
70
1
0
BLOCK_RECORD
5
1F
100
AcDbSymbolTableRecord
100
AcDbBlockTableRecord
2
*MODEL_SPACE
0
BLOCK_RECORD
5
1B
100
AcDbSymbolTableRecord
100
AcDbBlockTableRecord
2
*PAPER_SPACE
0
ENDTAB
0
ENDSEC
0
SECTION
2
BLOCKS
0
BLOCK
5
20
100
AcDbEntity
100
AcDbBlockBegin
2
*MODEL_SPACE
0
ENDBLK
5
21
100
AcDbEntity
100
AcDbBlockEnd
0
BLOCK
5
1C
100
AcDbEntity
100
AcDbBlockBegin
2
*PAPER_SPACE
0
ENDBLK
5
1D
100
AcDbEntity
100
AcDbBlockEnd
0
ENDSEC
0
SECTION
2
ENTITIES
0
CIRCLE
5
100
100
AcDbEntity
8
0
100
AcDbCircle
10
0
20
-100.00000149011612
30
0
40
2.4249999999999998
210
0
220
-0
230
1
0
LINE
5
101
100
AcDbEntity
8
0
100
AcDbLine
10
2.4999999999999627
20
222.50000000000003
30
0
11
2.4999999999999614
21
227.50000000000003
31
0
0
LINE
5
102
100
AcDbEntity
8
0
100
AcDbLine
10
-2.5000000000000373
20
222.50000000000003
30
0
11
2.4999999999999627
21
222.50000000000003
31
0
0
LINE
5
103
100
AcDbEntity
8
0
100
AcDbLine
10
-2.500000000000036
20
227.50000000000003
30
0
11
-2.5000000000000373
21
222.50000000000003
31
0
0
LINE
5
104
100
AcDbEntity
8
0
100
AcDbLine
10
2.4999999999999614
20
227.50000000000003
30
0
11
-2.5000000000000364
21
227.50000000000003
31
0
0
CIRCLE
5
105
100
AcDbEntity
8
0
100
AcDbCircle
10
0
20
-80.000001192092896
30
0
40
1.3500000000000001
210
0
220
-0
230
1
0
LWPOLYLINE
5
106
100
AcDbEntity
8
0
100
AcDbPolyline
90
28
70
1
43
0.0
10
-2.7499999999999853
20
119.20000193715096
10
-2.7499999999999853
20
116.80000193715097
10
-1.500000000000135
20
116.80000193715097
10
-1.5000000000001281
20
115.33326859858101
10
1.4999999999998725
20
115.33326859858101
10
1.4999999999998654
20
116.80000193715097
10
2.7499999999999996
20
116.80000193715097
10
2.7499999999999996
20
119.20000193715096
10
1.4999999999998654
20
119.20000193715096
10
1.4999999999998654
20
125.00000201165678
10
9.0000001490117789
20
125.00000201165678
10
9.0000001490117985
20
193.00000289082527
10
1.499999999999879
20
193.00000289082527
10
1.4999999999998801
20
196.13326859858103
10
2.7500000000000435
20
196.13326859858103
10
2.7500000000000435
20
198.533268598581
10
1.4999999999998803
20
198.533268598581
10
1.4999999999998803
20
200.033268598581
10
-1.5000000000001279
20
200.033268598581
10
-1.5000000000001283
20
198.533268598581
10
-2.7499999999999569
20
198.533268598581
10
-2.7499999999999569
20
196.13326859858103
10
-1.5000000000001299
20
196.13326859858103
10
-1.5000000000001312
20
193.00000289082527
10
-9.0000001490116492
20
193.00000289082527
10
-9.0000001490116368
20
125.00000201165678
10
-1.500000000000135
20
125.00000201165676
10
-1.500000000000135
20
119.20000193715096
0
LINE
5
107
100
AcDbEntity
8
0
100
AcDbLine
10
1.4999999999998805
20
200.033268598581
30
0
11
-1.5000000000001279
21
200.033268598581
31
0
0
LWPOLYLINE
5
108
100
AcDbEntity
8
0
100
AcDbPolyline
90
16
70
1
43
0.0
10
17.999999776482593
20
116.00000178813934
10
17.999999776482593
20
197.00000178813934
42
0.41421356237309476
10
12.999999776482589
20
202.00000178813934
10
5.6054126952900063
20
202.00000178813934
42
-0.23936599371079101
10
6.5190059180384434
20
221.29155533402749
42
1.7193487483970766
10
-6.5190059180384718
20
221.29155533402749
42
-0.2393659937107917
10
-5.6054126952900081
20
202.00000178813934
10
-13.000000223517421
20
202.00000178813934
42
0.41421356237309492
10
-18.000000223517418
20
197.00000178813934
10
-18.000000223517407
20
116.00000178813934
42
0.41421356237309503
10
-13.000000223517414
20
111.00000178813934
10
-6.0000000894069672
20
111.00000178813934
10
-6.0000000894069672
20
-92.000001557171345
42
2.999999944120642
10
6.0000000894069681
20
-92.000001557171359
10
6.0000000894069672
20
111.00000178813934
10
12.999999776482593
20
111.00000178813934
42
0.41421356237309503
0
CIRCLE
5
109
100
AcDbEntity
8
0
100
AcDbCircle
10
-13.000000201165676
20
118.00000193715096
30
0
40
0.80000000000000016
210
0
220
0
230
1
0
CIRCLE
5
110
100
AcDbEntity
8
0
100
AcDbCircle
10
-13.000000201165676
20
197.00000193715096
30
0
40
0.80000000000000016
210
0
220
0
230
1
0
CIRCLE
5
111
100
AcDbEntity
8
0
100
AcDbCircle
10
13.000000201165401
20
118.00000193715096
30
0
40
0.80000000000000016
210
0
220
0
230
1
0
CIRCLE
5
112
100
AcDbEntity
8
0
100
AcDbCircle
10
13.000000201165324
20
197.00000193715096
30
0
40
0.80000000000000016
210
0
220
0
230
1
0
ENDSEC
0
SECTION
2
OBJECTS
0
DICTIONARY
5
C
100
AcDbDictionary
3
ACAD_GROUP
350
D
3
ACAD_MLINESTYLE
350
17
0
DICTIONARY
5
D
100
AcDbDictionary
0
DICTIONARY
5
1A
330
C
100
AcDbDictionary
0
DICTIONARY
5
17
100
AcDbDictionary
0
ENDSEC
0
EOF
