0
SECTION
2
HEADER
9
$INSUNITS
70
4
9
$ACADVER
1
AC1014
9
$HANDSEED
5
FFFF
0
ENDSEC
0
SECTION
2
TABLES
0
TABLE
2
VPORT
5
8
100
AcDbSymbolTable
0
ENDTAB
0
TABLE
2
LTYPE
5
5
100
AcDbSymbolTable
0
LTYPE
5
14
100
AcDbSymbolTableRecord
100
AcDbLinetypeTableRecord
2
BYBLOCK
70
0
0
LTYPE
5
15
100
AcDbSymbolTableRecord
100
AcDbLinetypeTableRecord
2
BYLAYER
70
0
0
ENDTAB
0
TABLE
2
LAYER
5
2
100
AcDbSymbolTable
70
2
0
LAYER
5
50
100
AcDbSymbolTableRecord
100
AcDbLayerTableRecord
2
0
70
0
6
CONTINUOUS
0
ENDTAB
0
TABLE
2
STYLE
5
3
100
AcDbSymbolTable
70
1
0
STYLE
5
11
100
AcDbSymbolTableRecord
100
AcDbTextStyleTableRecord
2
STANDARD
70
0
0
ENDTAB
0
TABLE
2
VIEW
5
6
100
AcDbSymbolTable
70
0
0
ENDTAB
0
TABLE
2
UCS
5
7
100
AcDbSymbolTable
70
0
0
ENDTAB
0
TABLE
2
APPID
5
9
100
AcDbSymbolTable
70
2
0
APPID
5
12
100
AcDbSymbolTableRecord
100
AcDbRegAppTableRecord
2
ACAD
70
0
0
ENDTAB
0
TABLE
2
DIMSTYLE
5
A
100
AcDbSymbolTable
70
1
0
ENDTAB
0
TABLE
2
BLOCK_RECORD
5
1
100
AcDbSymbolTable
70
1
0
BLOCK_RECORD
5
1F
100
AcDbSymbolTableRecord
100
AcDbBlockTableRecord
2
*MODEL_SPACE
0
BLOCK_RECORD
5
1B
100
AcDbSymbolTableRecord
100
AcDbBlockTableRecord
2
*PAPER_SPACE
0
ENDTAB
0
ENDSEC
0
SECTION
2
BLOCKS
0
BLOCK
5
20
100
AcDbEntity
100
AcDbBlockBegin
2
*MODEL_SPACE
0
ENDBLK
5
21
100
AcDbEntity
100
AcDbBlockEnd
0
BLOCK
5
1C
100
AcDbEntity
100
AcDbBlockBegin
2
*PAPER_SPACE
0
ENDBLK
5
1D
100
AcDbEntity
100
AcDbBlockEnd
0
ENDSEC
0
SECTION
2
ENTITIES
0
LINE
5
100
100
AcDbEntity
8
0
100
AcDbLine
10
-11.947311246219348
20
113.67125652650151
30
0
11
-11.698680772377282
21
113.69738864231842
31
0
0
LWPOLYLINE
5
101
100
AcDbEntity
8
0
100
AcDbPolyline
90
5
70
1
43
0.0
10
-111.01552950210106
20
-0.1021744538556814
10
-111.01552452594856
20
0.39819928873219396
10
-114.02027014565397
20
0.39785542627821158
10
-114.02030129842632
20
0.14785542821920189
10
-114.0203037846436
20
-0.10214457176843562
0
LINE
5
102
100
AcDbEntity
8
0
100
AcDbLine
10
113.53398037494577
20
-11.535276440129874
30
0
11
110.55357631409663
21
-11.222023350531812
31
0
0
LWPOLYLINE
5
103
100
AcDbEntity
8
0
100
AcDbPolyline
90
5
70
1
43
0.0
10
-0.015501562897121856
20
-113.85689340531553
10
0.23449843709051565
20
-113.85689589153282
10
0.23452831917721459
20
-110.85212160899019
10
-0.26584542341011436
20
-110.85211663283884
10
-0.26550156095613142
20
-113.85686225254318
0
LINE
5
104
100
AcDbEntity
8
0
100
AcDbLine
10
-92.363758215219377
20
67.242802351023684
30
0
11
-92.216811902146233
21
67.44505659961743
31
0
0
LINE
5
105
100
AcDbEntity
8
0
100
AcDbLine
10
-84.677253256041993
20
76.714054250273463
30
0
11
-82.447818779609861
21
74.706662431196861
31
0
0
LINE
5
106
100
AcDbEntity
8
0
100
AcDbLine
10
84.813486338273819
20
76.528263092315015
30
0
11
84.98076898986352
21
76.342476885945672
31
0
0
LINE
5
107
100
AcDbEntity
8
0
100
AcDbLine
10
74.543254538086032
20
82.580172644931906
30
0
11
74.173807027783255
21
82.917102498136884
31
0
0
LWPOLYLINE
5
108
100
AcDbEntity
8
0
100
AcDbPolyline
90
5
70
1
43
0.0
10
-57.017936197370496
20
98.878898836833415
10
-56.801414271719153
20
99.003871856770672
10
-55.298743668246829
20
96.401857749424366
10
-55.732082528789732
20
96.151675187603246
10
-57.234443791414535
20
98.753900989966908
0
LINE
5
109
100
AcDbEntity
8
0
100
AcDbLine
10
74.17167717375834
20
-82.618980648109243
30
0
11
74.545379070483889
21
-82.286775769708328
31
0
0
LINE
5
110
100
AcDbEntity
8
0
100
AcDbLine
10
92.479654416928824
20
67.040542711933256
30
0
11
90.052603433803938
21
65.277186955055853
31
0
0
LINE
5
111
100
AcDbEntity
8
0
100
AcDbLine
10
-44.995384199258908
20
101.7889507272271
30
0
11
-45.453452776331744
21
101.58848534979725
31
0
0
LINE
5
112
100
AcDbEntity
8
0
100
AcDbLine
10
67.079394457912869
20
92.496112080541451
30
0
11
67.281648706506601
21
92.349165767468293
31
0
0
LWPOLYLINE
5
113
100
AcDbEntity
8
0
100
AcDbPolyline
90
5
70
1
43
0.0
10
98.715516394719828
20
-56.854484221839392
10
98.590489416598089
20
-57.070974994718391
10
95.988131446796174
20
-55.568899978486222
10
96.238322627564429
20
-55.135566094094742
10
98.840518547840972
20
-56.637979114012637
0
LINE
5
114
100
AcDbEntity
8
0
100
AcDbLine
10
92.332705999303755
20
-66.947038098761411
30
0
11
92.479652312376871
21
-66.744783850167622
31
0
0
LWPOLYLINE
5
115
100
AcDbEntity
8
0
100
AcDbPolyline
90
5
70
1
43
0.0
10
95.988267294492431
20
55.864436394111856
10
96.238449856313537
20
55.431097533568881
10
98.840463963659857
20
56.933768137041227
10
98.715490943722585
20
57.150290062692562
10
98.590493096856093
20
57.366797656736601
0
LINE
5
116
100
AcDbEntity
8
0
100
AcDbLine
10
-76.210123020623598
20
85.144176882974335
30
0
11
-74.202731201547053
21
82.914742406542118
31
0
0
LINE
5
117
100
AcDbEntity
8
0
100
AcDbLine
10
-23.992915102719575
20
-111.45441146025556
30
0
11
-23.36918003026625
21
-108.51996865805415
31
0
0
LINE
5
118
100
AcDbEntity
8
0
100
AcDbLine
10
23.717321159565646
20
111.80215178228954
30
0
11
23.472784259382177
21
111.85412970499397
31
0
0
LINE
5
119
100
AcDbEntity
8
0
100
AcDbLine
10
23.961861074930816
20
111.75017321868845
30
0
11
23.338126002477495
21
108.81573041648706
31
0
0
LINE
5
120
100
AcDbEntity
8
0
100
AcDbLine
10
-23.748375187354402
20
-111.50639002385667
30
0
11
-23.503838287170936
21
-111.55836794656108
31
0
0
LINE
5
121
100
AcDbEntity
8
0
100
AcDbLine
10
111.63874388917874
20
-23.584967294243558
30
0
11
111.69072181188318
21
-23.340430394060089
31
0
0
LWPOLYLINE
5
122
100
AcDbEntity
8
0
100
AcDbPolyline
90
5
70
1
43
0.0
10
-98.746570422508569
20
57.15024598027231
10
-98.621543444386816
20
57.366736753151301
10
-96.019185474584887
20
55.864661736919132
10
-96.269376655353298
20
55.431327852527573
10
-98.871572575629699
20
56.933740872445533
0
LINE
5
123
100
AcDbEntity
8
0
100
AcDbLine
10
-76.581697724137911
20
84.809609517171239
30
0
11
-74.576433098272602
21
82.582537528141245
31
0
0
LINE
5
124
100
AcDbEntity
8
0
100
AcDbLine
10
-35.52717717212925
20
108.63248576044367
30
0
11
-34.60110856650482
21
105.78233965861912
31
0
0
LWPOLYLINE
5
125
100
AcDbEntity
8
0
100
AcDbPolyline
90
5
70
1
43
0.0
10
56.98683808716148
20
98.878924287830628
10
57.203328860040479
20
98.75389730970889
10
55.701253843808388
20
96.151539339907089
10
55.267919959416759
20
96.401730520675329
10
56.770332979334711
20
99.003926440951773
0
LINE
5
126
100
AcDbEntity
8
0
100
AcDbLine
10
-23.36918003026625
20
-108.51996865805415
30
0
11
-22.880764174376669
21
-108.62703471507166
31
0
0
LINE
5
127
100
AcDbEntity
8
0
100
AcDbLine
10
76.550643696349169
20
-84.513847758738336
30
0
11
74.545379070483889
21
-82.286775769708328
31
0
0
LINE
5
128
100
AcDbEntity
8
0
100
AcDbLine
10
92.332708103855708
20
67.242796960527002
30
0
11
92.479654416928824
21
67.040542711933256
31
0
0
LINE
5
129
100
AcDbEntity
8
0
100
AcDbLine
10
92.332704187430664
20
-66.94704059259081
30
0
11
92.18575787435752
21
-67.149294841184528
31
0
0
LINE
5
130
100
AcDbEntity
8
0
100
AcDbLine
10
82.751334513431345
20
74.335085066869112
30
0
11
82.419129635030401
21
74.708786963594662
31
0
0
LINE
5
131
100
AcDbEntity
8
0
100
AcDbLine
10
65.518292949629142
20
89.922114784343492
30
0
11
65.115650551659257
21
90.218581120049038
31
0
0
LINE
5
132
100
AcDbEntity
8
0
100
AcDbLine
10
35.258359488831061
20
108.70973985516706
30
0
11
35.020595359757259
21
108.78699410376073
31
0
0
LINE
5
133
100
AcDbEntity
8
0
100
AcDbLine
10
-11.385095382574356
20
110.71382295621359
30
0
11
-11.882691696119139
21
110.66472002762202
31
0
0
LINE
5
134
100
AcDbEntity
8
0
100
AcDbLine
10
67.079391561245586
20
-92.200352426660544
30
0
11
67.281645809839318
21
-92.053406113587386
31
0
0
LWPOLYLINE
5
135
100
AcDbEntity
8
0
100
AcDbPolyline
90
5
70
1
43
0.0
10
56.986882169581762
20
-98.58313707840054
10
56.770360243930433
20
-98.708110098337755
10
55.267689640457704
20
-96.106095990990809
10
55.701028501001062
20
-95.855913429170386
10
57.203389763625808
20
-98.45813923153402
0
LINE
5
136
100
AcDbEntity
8
0
100
AcDbLine
10
45.421108987263352
20
101.5855796955947
30
0
11
44.965626474608307
21
101.79185346880664
31
0
0
LINE
5
137
100
AcDbEntity
8
0
100
AcDbLine
10
76.179071653648279
20
85.144174487167106
30
0
11
74.173807027783255
21
82.917102498136884
31
0
0
LINE
5
138
100
AcDbEntity
8
0
100
AcDbLine
10
12.164890757928857
20
-113.34936233003825
30
0
11
11.851637668330412
21
-110.36895826918915
31
0
0
LINE
5
139
100
AcDbEntity
8
0
100
AcDbLine
10
-104.29554761775245
20
46.576337629148121
30
0
11
-104.39723177852139
21
46.347951264737468
31
0
0
LINE
5
140
100
AcDbEntity
8
0
100
AcDbLine
10
-84.844537970255359
20
76.52826575312848
30
0
11
-85.011820621845033
21
76.342479546759108
31
0
0
LINE
5
141
100
AcDbEntity
8
0
100
AcDbLine
10
-23.992911600483907
20
111.75017396311159
30
0
11
-23.369837487689264
21
108.81884073162219
31
0
0
LINE
5
142
100
AcDbEntity
8
0
100
AcDbLine
10
89.758706891232691
20
-65.385939084307054
30
0
11
90.055173226938223
21
-64.983296686337184
31
0
0
LINE
5
143
100
AcDbEntity
8
0
100
AcDbLine
10
-11.698680772377282
20
113.69738864231842
30
0
11
-11.385095382574356
21
110.71382295621359
31
0
0
LINE
5
144
100
AcDbEntity
8
0
100
AcDbLine
10
-108.68337655116498
20
23.50153389558831
30
0
11
-108.79044260818247
21
23.013118039698721
31
0
0
LINE
5
145
100
AcDbEntity
8
0
100
AcDbLine
10
76.364860150793291
20
84.976889772953768
30
0
11
76.55064635716262
21
84.809607121364067
31
0
0
LINE
5
146
100
AcDbEntity
8
0
100
AcDbLine
10
35.258359015266734
20
-108.41397825060454
30
0
11
35.496123144340515
21
-108.3367240020108
31
0
0
LINE
5
147
100
AcDbEntity
8
0
100
AcDbLine
10
-12.195944785717586
20
113.64512408847112
30
0
11
-11.882691696119139
21
110.66472002762202
31
0
0
LINE
5
148
100
AcDbEntity
8
0
100
AcDbLine
10
-92.216811902146233
20
67.44505659961743
30
0
11
-89.78976091902139
21
65.681700842739943
31
0
0
LINE
5
149
100
AcDbEntity
8
0
100
AcDbLine
10
76.364857860017651
20
84.976891835577405
30
0
11
76.179071653648279
21
85.144174487167106
31
0
0
LINE
5
150
100
AcDbEntity
8
0
100
AcDbLine
10
67.281645809839318
20
-92.053406113587386
30
0
11
65.520158646008554
21
-89.628927028148993
31
0
0
LINE
5
151
100
AcDbEntity
8
0
100
AcDbLine
10
104.16280817541175
20
-46.508965051168715
30
0
11
101.42217180248393
21
-45.288755121941264
31
0
0
LINE
5
152
100
AcDbEntity
8
0
100
AcDbLine
10
11.916260284086789
20
-113.37549444585517
30
0
11
12.164890757928857
21
-113.34936233003825
31
0
0
LINE
5
153
100
AcDbEntity
8
0
100
AcDbLine
10
23.717317657330021
20
-111.50639076827984
30
0
11
23.472780757146559
21
-111.55836869098425
31
0
0
LINE
5
154
100
AcDbEntity
8
0
100
AcDbLine
10
23.338126002477495
20
108.81573041648706
30
0
11
22.849710146587903
21
108.9227964735045
31
0
0
LINE
5
155
100
AcDbEntity
8
0
100
AcDbLine
10
-111.61781935336636
20
24.125268968041635
30
0
11
-108.68337655116498
21
23.50153389558831
31
0
0
LINE
5
156
100
AcDbEntity
8
0
100
AcDbLine
10
-101.45322583027267
20
45.584516880374167
30
0
11
-101.65949960348458
21
45.129034367719136
31
0
0
LINE
5
157
100
AcDbEntity
8
0
100
AcDbLine
10
-46.672369673350431
20
104.32621752483396
30
0
11
-45.453452776331744
21
101.58848534979725
31
0
0
LINE
5
158
100
AcDbEntity
8
0
100
AcDbLine
10
35.258356083594457
20
-108.41397920316263
30
0
11
35.020591954520661
21
-108.49123345175639
31
0
0
LINE
5
159
100
AcDbEntity
8
0
100
AcDbLine
10
11.916257218430623
20
-113.37549476806863
30
0
11
11.667626744588553
21
-113.40162688388554
31
0
0
LWPOLYLINE
5
160
100
AcDbEntity
8
0
100
AcDbPolyline
90
5
70
1
43
0.0
10
-0.26555246487924422
20
114.15265764996568
10
-0.26558234696620536
20
111.14788336742305
10
0.23479139562138543
20
111.14787839127109
10
0.23444753316740286
20
114.15262401097604
10
-0.015552464891606711
20
114.15265516374842
0
LINE
5
161
100
AcDbEntity
8
0
100
AcDbLine
10
101.42217180248393
20
-45.288755121941264
30
0
11
101.62844557569584
21
-44.833272609286226
31
0
0
LINE
5
162
100
AcDbEntity
8
0
100
AcDbLine
10
-11.947314311875514
20
113.67125620428806
30
0
11
-12.195944785717586
21
113.64512408847112
31
0
0
LINE
5
163
100
AcDbEntity
8
0
100
AcDbLine
10
-11.882362956778039
20
-110.36579626967162
30
0
11
-11.385431243642651
21
-110.42122244877454
31
0
0
LINE
5
164
100
AcDbEntity
8
0
100
AcDbLine
10
76.36485748997984
20
-84.681130410328109
30
0
11
76.550643696349169
21
-84.513847758738336
31
0
0
LINE
5
165
100
AcDbEntity
8
0
100
AcDbLine
10
92.185759978909488
20
67.445053702950105
30
0
11
89.761280893471067
21
65.683566539119354
31
0
0
LINE
5
166
100
AcDbEntity
8
0
100
AcDbLine
10
-111.72177583967189
20
23.636192152492992
30
0
11
-108.79044260818247
21
23.013118039698721
31
0
0
LINE
5
167
100
AcDbEntity
8
0
100
AcDbLine
10
-46.443980492896948
20
104.42790293938599
30
0
11
-46.215594128486288
21
104.52958710015494
31
0
0
LINE
5
168
100
AcDbEntity
8
0
100
AcDbLine
10
-89.78976091902139
20
65.681700842739943
30
0
11
-90.086227254726978
21
65.279058444770072
31
0
0
LINE
5
169
100
AcDbEntity
8
0
100
AcDbLine
10
104.26449233618071
20
-46.280578686758069
30
0
11
104.16280817541175
21
-46.508965051168715
31
0
0
LINE
5
170
100
AcDbEntity
8
0
100
AcDbLine
10
-105.64696123980774
20
34.73248345956307
30
0
11
-105.80449413661405
21
34.257934647243992
31
0
0
LINE
5
171
100
AcDbEntity
8
0
100
AcDbLine
10
66.877134818822469
20
-92.34730055160675
30
0
11
65.113779061945067
21
-89.920249568481864
31
0
0
LINE
5
172
100
AcDbEntity
8
0
100
AcDbLine
10
-104.19386220320047
20
46.804726809601618
30
0
11
-101.45322583027267
21
45.584516880374167
31
0
0
LINE
5
173
100
AcDbEntity
8
0
100
AcDbLine
10
-85.011820621845033
20
76.342479546759108
30
0
11
-82.784748632814811
21
74.33721492089407
31
0
0
LINE
5
174
100
AcDbEntity
8
0
100
AcDbLine
10
-12.195948346581044
20
-113.34936195577646
30
0
11
-11.882362956778039
21
-110.36579626967162
31
0
0
LINE
5
175
100
AcDbEntity
8
0
100
AcDbLine
10
-92.363760027092468
20
67.242799857194285
30
0
11
-92.510706340165584
21
67.040545608600524
31
0
0
LINE
5
176
100
AcDbEntity
8
0
100
AcDbLine
10
90.052603433803938
20
65.277186955055853
30
0
11
89.761280893471067
21
65.683566539119354
31
0
0
LINE
5
177
100
AcDbEntity
8
0
100
AcDbLine
10
84.813484275650168
20
76.528265383090627
30
0
11
84.646201624060424
21
76.71405158945997
31
0
0
LINE
5
178
100
AcDbEntity
8
0
100
AcDbLine
10
44.964330171470188
20
-101.49318896879423
30
0
11
45.422398748543024
21
-101.29272359136439
31
0
0
LINE
5
179
100
AcDbEntity
8
0
100
AcDbLine
10
23.961857572695177
20
-111.4544122046787
30
0
11
23.338783459900529
21
-108.52307897318931
31
0
0
LINE
5
180
100
AcDbEntity
8
0
100
AcDbLine
10
-23.748378202536117
20
-111.50638938296001
30
0
11
-23.992915102719575
21
-111.45441146025556
31
0
0
LINE
5
181
100
AcDbEntity
8
0
100
AcDbLine
10
67.07939196408347
20
92.496113892414527
30
0
11
66.877137715489695
21
92.643060205487643
31
0
0
LINE
5
182
100
AcDbEntity
8
0
100
AcDbLine
10
-66.908188846611182
20
92.643062310039625
30
0
11
-65.144833089733794
21
90.216011326914753
31
0
0
LINE
5
183
100
AcDbEntity
8
0
100
AcDbLine
10
92.479652312376871
20
-66.744783850167622
30
0
11
90.055173226938223
21
-64.983296686337184
31
0
0
LINE
5
184
100
AcDbEntity
8
0
100
AcDbLine
10
-108.50013078869317
20
35.659534442687935
30
0
11
-105.64696123980774
21
34.73248345956307
31
0
0
LINE
5
185
100
AcDbEntity
8
0
100
AcDbLine
10
-23.748371685118748
20
111.80215252671269
30
0
11
-23.5038347849353
21
111.85413044941714
31
0
0
LINE
5
186
100
AcDbEntity
8
0
100
AcDbLine
10
34.093540971395853
20
-105.6380639028709
30
0
11
34.570054538716093
21
-105.48657790018626
31
0
0
LINE
5
187
100
AcDbEntity
8
0
100
AcDbLine
10
111.63874324828213
20
-23.58497030942527
30
0
11
111.58676532557764
21
-23.829507209608728
31
0
0
LINE
5
188
100
AcDbEntity
8
0
100
AcDbLine
10
84.980766594056334
20
-76.04671778832622
30
0
11
82.753694605026112
21
-74.041453162461195
31
0
0
LINE
5
189
100
AcDbEntity
8
0
100
AcDbLine
10
66.877137715489695
20
92.643060205487643
30
0
11
65.115650551659257
21
90.218581120049038
31
0
0
LINE
5
190
100
AcDbEntity
8
0
100
AcDbLine
10
-108.57738598984498
20
35.421767381941876
30
0
11
-108.65464023843867
21
35.184003252868074
31
0
0
LINE
5
191
100
AcDbEntity
8
0
100
AcDbLine
10
-84.844535907631723
20
76.52826804390412
30
0
11
-84.677253256041993
21
76.714054250273463
31
0
0
LINE
5
192
100
AcDbEntity
8
0
100
AcDbLine
10
46.412929736037313
20
104.42790148307454
30
0
11
46.184543371626638
21
104.52958564384348
31
0
0
LINE
5
193
100
AcDbEntity
8
0
100
AcDbLine
10
108.65232252337627
20
-23.205772137155407
30
0
11
108.75938858039375
21
-22.717356281265815
31
0
0
LINE
5
194
100
AcDbEntity
8
0
100
AcDbLine
10
-11.69868433324072
20
-113.40162650962368
30
0
11
-11.385431243642651
21
-110.42122244877454
31
0
0
LINE
5
195
100
AcDbEntity
8
0
100
AcDbLine
10
-108.5773850372869
20
35.421770313614161
30
0
11
-108.50013078869317
21
35.659534442687935
31
0
0
LINE
5
196
100
AcDbEntity
8
0
100
AcDbLine
10
-104.29554636396942
20
46.576340445190979
30
0
11
-104.19386220320047
21
46.804726809601618
31
0
0
LINE
5
197
100
AcDbEntity
8
0
100
AcDbLine
10
-82.447818779609861
20
74.706662431196861
30
0
11
-82.784748632814811
21
74.33721492089407
31
0
0
LINE
5
198
100
AcDbEntity
8
0
100
AcDbLine
10
-11.94731480708281
20
-113.3754943938068
30
0
11
-11.69868433324072
21
-113.40162650962368
31
0
0
LINE
5
199
100
AcDbEntity
8
0
100
AcDbLine
10
-23.503838287170936
20
-111.55836794656108
30
0
11
-22.880764174376669
21
-108.62703471507166
31
0
0
LINE
5
200
100
AcDbEntity
8
0
100
AcDbLine
10
104.26449358996373
20
-46.280575870715225
30
0
11
104.3661777507327
21
-46.052189506304558
31
0
0
LINE
5
201
100
AcDbEntity
8
0
100
AcDbLine
10
-11.947317872738974
20
-113.37549407159337
30
0
11
-12.195948346581044
21
-113.34936195577646
31
0
0
LINE
5
202
100
AcDbEntity
8
0
100
AcDbLine
10
-108.65464023843867
20
35.184003252868074
30
0
11
-105.80449413661405
21
34.257934647243992
31
0
0
LINE
5
203
100
AcDbEntity
8
0
100
AcDbLine
10
84.81348187984301
20
-76.232506285471231
30
0
11
84.646199228253266
21
-76.418292491840575
31
0
0
LINE
5
204
100
AcDbEntity
8
0
100
AcDbLine
10
111.58676532557764
20
-23.829507209608728
30
0
11
108.65232252337627
21
-23.205772137155407
31
0
0
LINE
5
205
100
AcDbEntity
8
0
100
AcDbLine
10
111.69072181188318
20
-23.340430394060089
30
0
11
108.75938858039375
21
-22.717356281265815
31
0
0
LINE
5
206
100
AcDbEntity
8
0
100
AcDbLine
10
108.62358621064996
20
-34.888241494435171
30
0
11
105.77344010882533
21
-33.962172888811097
31
0
0
LINE
5
207
100
AcDbEntity
8
0
100
AcDbLine
10
84.646201624060424
20
76.71405158945997
30
0
11
82.419129635030401
21
74.708786963594662
31
0
0
LINE
5
208
100
AcDbEntity
8
0
100
AcDbLine
10
46.641318916490803
20
104.32621606852251
30
0
11
45.421108987263352
21
101.5855796955947
31
0
0
LINE
5
209
100
AcDbEntity
8
0
100
AcDbLine
10
46.412932552080164
20
104.42790022929148
30
0
11
46.641318916490803
21
104.32621606852251
31
0
0
LINE
5
210
100
AcDbEntity
8
0
100
AcDbLine
10
67.281648706506601
20
92.349165767468293
30
0
11
65.518292949629142
21
89.922114784343492
31
0
0
LINE
5
211
100
AcDbEntity
8
0
100
AcDbLine
10
-111.66979727607084
20
23.880732067858172
30
0
11
-111.61781935336636
21
24.125268968041635
31
0
0
LINE
5
212
100
AcDbEntity
8
0
100
AcDbLine
10
76.55064635716262
20
84.809607121364067
30
0
11
74.543254538086032
21
82.580172644931906
31
0
0
LINE
5
213
100
AcDbEntity
8
0
100
AcDbLine
10
-92.510706340165584
20
67.040545608600524
30
0
11
-90.086227254726978
21
65.279058444770072
31
0
0
LINE
5
214
100
AcDbEntity
8
0
100
AcDbLine
10
-67.110443095204914
20
92.496115996966523
30
0
11
-66.908188846611182
21
92.643062310039625
31
0
0
LINE
5
215
100
AcDbEntity
8
0
100
AcDbLine
10
-46.443983308939785
20
104.42790168560293
30
0
11
-46.672369673350431
21
104.32621752483396
31
0
0
LINE
5
216
100
AcDbEntity
8
0
100
AcDbLine
10
-110.58146909089152
20
-11.221687489463548
30
0
11
-110.53236616229995
21
-11.719283803008331
31
0
0
LINE
5
217
100
AcDbEntity
8
0
100
AcDbLine
10
23.717324174747354
20
111.80215114139293
30
0
11
23.961861074930816
21
111.75017321868845
31
0
0
LINE
5
218
100
AcDbEntity
8
0
100
AcDbLine
10
113.50784863339071
20
12.079665111541416
30
0
11
113.53398074920761
21
11.83103463769935
31
0
0
LINE
5
219
100
AcDbEntity
8
0
100
AcDbLine
10
-67.312699837628045
20
92.34916787202026
30
0
11
-65.551212673797295
21
89.924688786581882
31
0
0
LINE
5
220
100
AcDbEntity
8
0
100
AcDbLine
10
46.412926465108207
20
-104.13214118095313
30
0
11
46.184540100697554
21
-104.23382534172207
31
0
0
LWPOLYLINE
5
221
100
AcDbEntity
8
0
100
AcDbPolyline
90
5
70
1
43
0.0
10
113.98924975685487
20
0.39790633020131028
10
110.98447547431222
20
0.39793621228994819
10
110.9844704981617
20
-0.10243753029931947
10
113.98921611786523
20
-0.10209366784533683
10
113.98924727063761
20
0.14790633021367278
0
LINE
5
222
100
AcDbEntity
8
0
100
AcDbLine
10
113.4817158210985
20
-12.032540453470201
30
0
11
110.49815013499369
21
-11.718955063667195
31
0
0
LINE
5
223
100
AcDbEntity
8
0
100
AcDbLine
10
11.354041354785627
20
-110.41806119778072
30
0
11
11.851637668330412
21
-110.36895826918915
31
0
0
LINE
5
224
100
AcDbEntity
8
0
100
AcDbLine
10
67.079389067416201
20
-92.200354238533635
30
0
11
66.877134818822469
21
-92.34730055160675
31
0
0
LINE
5
225
100
AcDbEntity
8
0
100
AcDbLine
10
-110.52920416278243
20
12.014716822100091
30
0
11
-110.58463034188536
21
11.517785108964709
31
0
0
LINE
5
226
100
AcDbEntity
8
0
100
AcDbLine
10
84.646199228253266
20
-76.418292491840575
30
0
11
82.41676475182112
21
-74.410900672763972
31
0
0
LINE
5
227
100
AcDbEntity
8
0
100
AcDbLine
10
11.66763030545196
20
113.69738826805656
30
0
11
11.354377215853894
21
110.71698420720742
31
0
0
LINE
5
228
100
AcDbEntity
8
0
100
AcDbLine
10
-76.395911517768567
20
84.976892168760983
30
0
11
-76.581697724137911
21
84.809609517171239
31
0
0
LINE
5
229
100
AcDbEntity
8
0
100
AcDbLine
10
108.75627975410492
20
23.012453577804116
30
0
11
108.6554328385114
21
23.502191353011327
31
0
0
LINE
5
230
100
AcDbEntity
8
0
100
AcDbLine
10
108.54633196205627
20
-35.126005623508973
30
0
11
108.62358621064996
21
-34.888241494435171
31
0
0
LINE
5
231
100
AcDbEntity
8
0
100
AcDbLine
10
35.49612654957712
20
108.63248465401524
30
0
11
34.569075566452256
21
105.77931510512981
31
0
0
LINE
5
232
100
AcDbEntity
8
0
100
AcDbLine
10
104.3661777507327
20
-46.052189506304558
30
0
11
101.62844557569584
21
-44.833272609286226
31
0
0
LINE
5
233
100
AcDbEntity
8
0
100
AcDbLine
10
105.77041776819297
20
34.256948864506654
30
0
11
105.61893176550832
21
34.733462431826887
31
0
0
LINE
5
234
100
AcDbEntity
8
0
100
AcDbLine
10
76.179068992834885
20
-84.848415124541447
30
0
11
74.17167717375834
21
-82.618980648109243
31
0
0
LINE
5
235
100
AcDbEntity
8
0
100
AcDbLine
10
-113.53890196470418
20
12.079671738061027
30
0
11
-113.51276984888727
21
12.328302211903097
31
0
0
LINE
5
236
100
AcDbEntity
8
0
100
AcDbLine
10
-113.51277022314903
20
-12.032536892606775
30
0
11
-110.53236616229995
21
-11.719283803008331
31
0
0
LINE
5
237
100
AcDbEntity
8
0
100
AcDbLine
10
101.6255428341163
20
45.127738064580988
30
0
11
101.42507745668645
21
45.585806641653825
31
0
0
LINE
5
238
100
AcDbEntity
8
0
100
AcDbLine
10
104.26449379249215
20
46.576337174261852
30
0
11
104.16280963172315
21
46.804723538672505
31
0
0
LINE
5
239
100
AcDbEntity
8
0
100
AcDbLine
10
-113.56503477699634
20
-11.535272879266472
30
0
11
-110.58146909089152
21
-11.221687489463548
31
0
0
LINE
5
240
100
AcDbEntity
8
0
100
AcDbLine
10
22.849045684693323
20
-108.62392588878285
30
0
11
23.338783459900529
21
-108.52307897318931
31
0
0
LINE
5
241
100
AcDbEntity
8
0
100
AcDbLine
10
-35.289413043055468
20
108.7097400090374
30
0
11
-35.52717717212925
21
108.63248576044367
31
0
0
LINE
5
242
100
AcDbEntity
8
0
100
AcDbLine
10
46.184540100697554
20
-104.23382534172207
30
0
11
44.964330171470188
21
-101.49318896879423
31
0
0
LINE
5
243
100
AcDbEntity
8
0
100
AcDbLine
10
12.164894318792287
20
113.6451237142093
30
0
11
11.85130892898928
21
110.66155802810448
31
0
0
LINE
5
244
100
AcDbEntity
8
0
100
AcDbLine
10
111.6387446336019
20
23.880725550440815
30
0
11
111.69072255630635
21
23.63618865025736
31
0
0
LINE
5
245
100
AcDbEntity
8
0
100
AcDbLine
10
108.46907786733286
20
35.659531037451316
30
0
11
105.61893176550832
21
34.733462431826887
31
0
0
LINE
5
246
100
AcDbEntity
8
0
100
AcDbLine
10
76.364855199204214
20
-84.681132472951759
30
0
11
76.179068992834885
21
-84.848415124541447
31
0
0
LINE
5
247
100
AcDbEntity
8
0
100
AcDbLine
10
-65.144833089733794
20
90.216011326914753
30
0
11
-65.551212673797295
21
89.924688786581882
31
0
0
LINE
5
248
100
AcDbEntity
8
0
100
AcDbLine
10
35.496123144340515
20
-108.3367240020108
30
0
11
34.570054538716093
21
-105.48657790018626
31
0
0
LINE
5
249
100
AcDbEntity
8
0
100
AcDbLine
10
-113.53890233896595
20
-11.783906418764708
30
0
11
-113.51277022314903
21
-12.032536892606775
31
0
0
LINE
5
250
100
AcDbEntity
8
0
100
AcDbLine
10
46.64131564556169
20
-104.0304557664011
30
0
11
45.422398748543024
21
-101.29272359136439
31
0
0
LINE
5
251
100
AcDbEntity
8
0
100
AcDbLine
10
-34.124594999184595
20
105.93382566130376
30
0
11
-34.60110856650482
21
105.78233965861912
31
0
0
LINE
5
252
100
AcDbEntity
8
0
100
AcDbLine
10
108.54633211592662
20
35.421766908377535
30
0
11
108.46907786733286
21
35.659531037451316
31
0
0
LINE
5
253
100
AcDbEntity
8
0
100
AcDbLine
10
11.85130892898928
20
110.66155802810448
30
0
11
11.354377215853894
21
110.71698420720742
31
0
0
LINE
5
254
100
AcDbEntity
8
0
100
AcDbLine
10
35.020591954520661
20
-108.49123345175639
30
0
11
34.093540971395853
21
-105.6380639028709
31
0
0
LINE
5
255
100
AcDbEntity
8
0
100
AcDbLine
10
111.58676607000078
20
24.125265465805974
30
0
11
108.6554328385114
21
23.502191353011327
31
0
0
LINE
5
256
100
AcDbEntity
8
0
100
AcDbLine
10
23.472784259382177
20
111.85412970499397
30
0
11
22.849710146587903
21
108.9227964735045
31
0
0
LINE
5
257
100
AcDbEntity
8
0
100
AcDbLine
10
108.46907676090446
20
-35.363772684255039
30
0
11
105.61590721201901
21
-34.436721701130175
31
0
0
LINE
5
258
100
AcDbEntity
8
0
100
AcDbLine
10
-46.215594128486288
20
104.52958710015494
30
0
11
-44.995384199258908
21
101.7889507272271
31
0
0
LINE
5
259
100
AcDbEntity
8
0
100
AcDbLine
10
82.41676475182112
20
-74.410900672763972
30
0
11
82.753694605026112
21
-74.041453162461195
31
0
0
LINE
5
260
100
AcDbEntity
8
0
100
AcDbLine
10
104.36617920704414
20
46.347947993808354
30
0
11
101.6255428341163
21
45.127738064580988
31
0
0
LINE
5
261
100
AcDbEntity
8
0
100
AcDbLine
10
104.2644950462752
20
46.576334358219007
30
0
11
104.36617920704414
21
46.347947993808354
31
0
0
LINE
5
262
100
AcDbEntity
8
0
100
AcDbLine
10
11.916263844950215
20
113.67125583002624
30
0
11
12.164894318792287
21
113.6451237142093
31
0
0
LINE
5
263
100
AcDbEntity
8
0
100
AcDbLine
10
65.113779061945067
20
-89.920249568481864
30
0
11
65.520158646008554
21
-89.628927028148993
31
0
0
LINE
5
264
100
AcDbEntity
8
0
100
AcDbLine
10
111.69072255630635
20
23.63618865025736
30
0
11
108.75627975410492
21
23.012453577804116
31
0
0
LINE
5
265
100
AcDbEntity
8
0
100
AcDbLine
10
104.16280963172315
20
46.804723538672505
30
0
11
101.42507745668645
21
45.585806641653825
31
0
0
LINE
5
266
100
AcDbEntity
8
0
100
AcDbLine
10
35.258362420503346
20
108.70973890260898
30
0
11
35.49612654957712
21
108.63248465401524
31
0
0
LINE
5
267
100
AcDbEntity
8
0
100
AcDbLine
10
108.54633306848471
20
35.42176397670525
30
0
11
108.62358731707845
21
35.183999847631455
31
0
0
LINE
5
268
100
AcDbEntity
8
0
100
AcDbLine
10
105.61590721201901
20
-34.436721701130175
30
0
11
105.77344010882533
21
-33.962172888811097
31
0
0
LINE
5
269
100
AcDbEntity
8
0
100
AcDbLine
10
-67.110445589034313
20
92.496114185093404
30
0
11
-67.312699837628045
21
92.34916787202026
31
0
0
LINE
5
270
100
AcDbEntity
8
0
100
AcDbLine
10
46.184543371626638
20
104.52958564384348
30
0
11
44.965626474608307
21
101.79185346880664
31
0
0
LINE
5
271
100
AcDbEntity
8
0
100
AcDbLine
10
-23.5038347849353
20
111.85413044941714
30
0
11
-22.88009971248205
21
108.91968764721574
31
0
0
LINE
5
272
100
AcDbEntity
8
0
100
AcDbLine
10
23.717320672511725
20
-111.50639012738318
30
0
11
23.961857572695177
21
-111.4544122046787
31
0
0
LINE
5
273
100
AcDbEntity
8
0
100
AcDbLine
10
-104.39723177852139
20
46.347951264737468
30
0
11
-101.65949960348458
21
45.129034367719136
31
0
0
LINE
5
274
100
AcDbEntity
8
0
100
AcDbLine
10
-111.66979791696747
20
23.880729052676465
30
0
11
-111.72177583967189
21
23.636192152492992
31
0
0
LINE
5
275
100
AcDbEntity
8
0
100
AcDbLine
10
111.63874399270524
20
23.880728565622519
30
0
11
111.58676607000078
21
24.125265465805974
31
0
0
LINE
5
276
100
AcDbEntity
8
0
100
AcDbLine
10
11.667626744588553
20
-113.40162688388554
30
0
11
11.354041354785627
21
-110.41806119778072
31
0
0
LINE
5
277
100
AcDbEntity
8
0
100
AcDbLine
10
-74.202731201547053
20
82.914742406542118
30
0
11
-74.576433098272602
21
82.582537528141245
31
0
0
LINE
5
278
100
AcDbEntity
8
0
100
AcDbLine
10
108.62358731707845
20
35.183999847631455
30
0
11
105.77041776819297
21
34.256948864506654
31
0
0
LINE
5
279
100
AcDbEntity
8
0
100
AcDbLine
10
92.18575787435752
20
-67.149294841184528
30
0
11
89.758706891232691
21
-65.385939084307054
31
0
0
LINE
5
280
100
AcDbEntity
8
0
100
AcDbLine
10
23.472780757146559
20
-111.55836869098425
30
0
11
22.849045684693323
21
-108.62392588878285
31
0
0
LINE
5
281
100
AcDbEntity
8
0
100
AcDbLine
10
11.916260779294047
20
113.67125615223968
30
0
11
11.66763030545196
21
113.69738826805656
31
0
0
LINE
5
282
100
AcDbEntity
8
0
100
AcDbLine
10
84.813483942466632
20
-76.232503994695577
30
0
11
84.980766594056334
21
-76.04671778832622
31
0
0
LINE
5
283
100
AcDbEntity
8
0
100
AcDbLine
10
-35.289413516619831
20
-108.41397809673418
30
0
11
-35.051649387546014
21
-108.49123234532786
31
0
0
LINE
5
284
100
AcDbEntity
8
0
100
AcDbLine
10
-111.66979802049397
20
-23.584966807189648
30
0
11
-111.61782009778949
21
-23.829503707373103
31
0
0
LINE
5
285
100
AcDbEntity
8
0
100
AcDbLine
10
-46.672372944279559
20
-104.03045431008964
30
0
11
-45.452163015052108
21
-101.28981793716184
31
0
0
LINE
5
286
100
AcDbEntity
8
0
100
AcDbLine
10
-111.66979866139064
20
-23.584963792007944
30
0
11
-111.72177658409507
21
-23.340426891824492
31
0
0
LINE
5
287
100
AcDbEntity
8
0
100
AcDbLine
10
-35.051645982309395
20
108.78699521018925
30
0
11
-34.124594999184595
21
105.93382566130376
31
0
0
LINE
5
288
100
AcDbEntity
8
0
100
AcDbLine
10
35.020595359757259
20
108.78699410376073
30
0
11
34.094526754133177
21
105.93684800193613
31
0
0
LINE
5
289
100
AcDbEntity
8
0
100
AcDbLine
10
-46.215597399415401
20
-104.23382388541057
30
0
11
-44.996680502397084
21
-101.49609171037376
31
0
0
LINE
5
290
100
AcDbEntity
8
0
100
AcDbLine
10
-35.051649387546014
20
-108.49123234532786
30
0
11
-34.125580781921933
21
-105.64108624350324
31
0
0
LINE
5
291
100
AcDbEntity
8
0
100
AcDbLine
10
-35.289410111383191
20
108.7097409615955
30
0
11
-35.051645982309395
21
108.78699521018925
31
0
0
LINE
5
292
100
AcDbEntity
8
0
100
AcDbLine
10
-76.395909226992956
20
84.97689423138462
30
0
11
-76.210123020623598
21
85.144176882974335
31
0
0
LINE
5
293
100
AcDbEntity
8
0
100
AcDbLine
10
-105.80147179598168
20
-33.961187106073787
30
0
11
-105.64998579329708
21
-34.437700673394019
31
0
0
LINE
5
294
100
AcDbEntity
8
0
100
AcDbLine
10
-82.782388541220115
20
-74.039323308436209
30
0
11
-82.450183662819171
21
-74.413025205161759
31
0
0
LINE
5
295
100
AcDbEntity
8
0
100
AcDbLine
10
84.98076898986352
20
76.342476885945672
30
0
11
82.751334513431345
21
74.335085066869112
31
0
0
LINE
5
296
100
AcDbEntity
8
0
100
AcDbLine
10
-35.289416448292108
20
-108.4139771441761
30
0
11
-35.52718057736589
21
-108.33672289558237
31
0
0
LINE
5
297
100
AcDbEntity
8
0
100
AcDbLine
10
108.54633100949819
20
-35.126008555181258
30
0
11
108.46907676090446
21
-35.363772684255039
31
0
0
LINE
5
298
100
AcDbEntity
8
0
100
AcDbLine
10
-46.443986579868913
20
-104.13213847085862
30
0
11
-46.672372944279559
21
-104.03045431008964
31
0
0
LWPOLYLINE
5
299
100
AcDbEntity
8
0
100
AcDbPolyline
90
5
70
1
43
0.0
10
-55.298973987205514
20
-96.105968762242483
10
-55.732307871597079
20
-95.855777581474086
10
-57.234382887829227
20
-98.45813555127603
10
-57.01789211495025
20
-98.583162529397754
10
-56.801387007123473
20
-98.708164682518884
0
LINE
5
300
100
AcDbEntity
8
0
100
AcDbLine
10
-104.19386365951189
20
-46.508961780239616
30
0
11
-101.45613148447521
21
-45.290044883220943
31
0
0
LINE
5
301
100
AcDbEntity
8
0
100
AcDbLine
10
34.569075566452256
20
105.77931510512981
30
0
11
34.094526754133177
21
105.93684800193613
31
0
0
LINE
5
302
100
AcDbEntity
8
0
100
AcDbLine
10
92.332706291982603
20
67.242799454356387
30
0
11
92.185759978909488
21
67.445053702950105
31
0
0
LINE
5
303
100
AcDbEntity
8
0
100
AcDbLine
10
-34.600129594241025
20
-105.48355334669694
30
0
11
-34.125580781921933
21
-105.64108624350324
31
0
0
LWPOLYLINE
5
304
100
AcDbEntity
8
0
100
AcDbPolyline
90
5
70
1
43
0.0
10
-98.746544971511383
20
-56.854528304259645
10
-98.621547124644849
20
-57.071035898303677
10
-96.019321322281215
20
-55.568674635679088
10
-96.269503884101496
20
-55.135335775135474
10
-98.871517991448599
20
-56.63800637860831
0
LINE
5
305
100
AcDbEntity
8
0
100
AcDbLine
10
-104.3972332348329
20
-46.052186235375473
30
0
11
-101.65659686190502
21
-44.8319763061481
31
0
0
LINE
5
306
100
AcDbEntity
8
0
100
AcDbLine
10
-108.65464134486717
20
-34.888238089198595
30
0
11
-105.80147179598168
21
-33.961187106073787
31
0
0
LINE
5
307
100
AcDbEntity
8
0
100
AcDbLine
10
-84.677255651849194
20
-76.418289831027067
30
0
11
-82.450183662819171
21
-74.413025205161759
31
0
0
LINE
5
308
100
AcDbEntity
8
0
100
AcDbLine
10
-111.61782009778949
20
-23.829503707373103
30
0
11
-108.68648686630013
21
-23.206429594578459
31
0
0
LINE
5
309
100
AcDbEntity
8
0
100
AcDbLine
10
-76.210125681437077
20
-84.848412728734218
30
0
11
-74.204861055572053
21
-82.621340739703996
31
0
0
LINE
5
310
100
AcDbEntity
8
0
100
AcDbLine
10
-45.452163015052108
20
-101.28981793716184
30
0
11
-44.996680502397084
21
-101.49609171037376
31
0
0
LINE
5
311
100
AcDbEntity
8
0
100
AcDbLine
10
-92.216814006698229
20
-67.149291944517188
30
0
11
-89.792334921259823
21
-65.387804780686437
31
0
0
LINE
5
312
100
AcDbEntity
8
0
100
AcDbLine
10
-76.581700384951446
20
-84.513845362931178
30
0
11
-74.574308565874816
21
-82.284410886499003
31
0
0
LINE
5
313
100
AcDbEntity
8
0
100
AcDbLine
10
-84.844538303438966
20
-76.23250362465771
30
0
11
-84.677255651849194
21
-76.418289831027067
31
0
0
LINE
5
314
100
AcDbEntity
8
0
100
AcDbLine
10
-74.574308565874816
20
-82.284410886499003
30
0
11
-74.204861055572053
21
-82.621340739703996
31
0
0
LINE
5
315
100
AcDbEntity
8
0
100
AcDbLine
10
-101.65659686190502
20
-44.8319763061481
30
0
11
-101.45613148447521
21
-45.290044883220943
31
0
0
LINE
5
316
100
AcDbEntity
8
0
100
AcDbLine
10
-67.110445991872268
20
-92.200352133981639
30
0
11
-66.908191743278508
21
-92.347298447054769
31
0
0
LINE
5
317
100
AcDbEntity
8
0
100
AcDbLine
10
-46.443983763826068
20
-104.13213972464163
30
0
11
-46.215597399415401
21
-104.23382388541057
31
0
0
LINE
5
318
100
AcDbEntity
8
0
100
AcDbLine
10
-35.52718057736589
20
-108.33672289558237
30
0
11
-34.600129594241025
21
-105.48355334669694
31
0
0
LINE
5
319
100
AcDbEntity
8
0
100
AcDbLine
10
-67.110448485701667
20
-92.20035032210852
30
0
11
-67.312702734295399
21
-92.05340400903539
31
0
0
LINE
5
320
100
AcDbEntity
8
0
100
AcDbLine
10
-108.50013189512157
20
-35.363769279018442
30
0
11
-105.64998579329708
21
-34.437700673394019
31
0
0
LINE
5
321
100
AcDbEntity
8
0
100
AcDbLine
10
-76.395914178582075
20
-84.68112801452088
30
0
11
-76.581700384951446
21
-84.513845362931178
31
0
0
LINE
5
322
100
AcDbEntity
8
0
100
AcDbLine
10
-108.78733378189365
20
-22.716691819371242
30
0
11
-108.68648686630013
21
-23.206429594578459
31
0
0
LINE
5
323
100
AcDbEntity
8
0
100
AcDbLine
10
-22.88009971248205
20
108.91968764721574
30
0
11
-23.369837487689264
21
108.81884073162219
31
0
0
LINE
5
324
100
AcDbEntity
8
0
100
AcDbLine
10
-65.549346977417912
20
-89.626353025910561
30
0
11
-65.146704579448041
21
-89.922819361616121
31
0
0
LINE
5
325
100
AcDbEntity
8
0
100
AcDbLine
10
-104.29554782028089
20
-46.28057541582897
30
0
11
-104.19386365951189
21
-46.508961780239616
31
0
0
LINE
5
326
100
AcDbEntity
8
0
100
AcDbLine
10
-90.083657461592722
20
-64.981425196622951
30
0
11
-89.792334921259823
21
-65.387804780686437
31
0
0
LINE
5
327
100
AcDbEntity
8
0
100
AcDbLine
10
-108.57738709627343
20
-35.126002218272376
30
0
11
-108.65464134486717
21
-34.888238089198595
31
0
0
LINE
5
328
100
AcDbEntity
8
0
100
AcDbLine
10
-104.29554907406396
20
-46.280572599786126
30
0
11
-104.3972332348329
21
-46.052186235375473
31
0
0
LINE
5
329
100
AcDbEntity
8
0
100
AcDbLine
10
-108.57738614371534
20
-35.12600514994466
30
0
11
-108.50013189512157
21
-35.363769279018442
31
0
0
LINE
5
330
100
AcDbEntity
8
0
100
AcDbLine
10
-111.72177658409507
20
-23.340426891824492
30
0
11
-108.78733378189365
21
-22.716691819371242
31
0
0
LINE
5
331
100
AcDbEntity
8
0
100
AcDbLine
10
-85.01182301765229
20
-76.046715127512755
30
0
11
-82.782388541220115
21
-74.039323308436209
31
0
0
LINE
5
332
100
AcDbEntity
8
0
100
AcDbLine
10
-92.363762131644464
20
-66.947035202094085
30
0
11
-92.510708444717579
21
-66.744780953500339
31
0
0
LINE
5
333
100
AcDbEntity
8
0
100
AcDbLine
10
-76.395911887806434
20
-84.681130077144516
30
0
11
-76.210125681437077
21
-84.848412728734218
31
0
0
LINE
5
334
100
AcDbEntity
8
0
100
AcDbLine
10
-92.510708444717579
20
-66.744780953500339
30
0
11
-90.083657461592722
21
-64.981425196622951
31
0
0
LINE
5
335
100
AcDbEntity
8
0
100
AcDbLine
10
-67.312702734295399
20
-92.05340400903539
30
0
11
-65.549346977417912
21
-89.626353025910561
31
0
0
LINE
5
336
100
AcDbEntity
8
0
100
AcDbLine
10
-66.908191743278508
20
-92.347298447054769
30
0
11
-65.146704579448041
21
-89.922819361616121
31
0
0
LINE
5
337
100
AcDbEntity
8
0
100
AcDbLine
10
-84.844540366062603
20
-76.232501333882098
30
0
11
-85.01182301765229
21
-76.046715127512755
31
0
0
LINE
5
338
100
AcDbEntity
8
0
100
AcDbLine
10
-92.363760319771373
20
-66.94703769592347
30
0
11
-92.216814006698229
21
-67.149291944517188
31
0
0
LINE
5
339
100
AcDbEntity
8
0
100
AcDbLine
10
113.53398074920761
20
11.83103463769935
30
0
11
110.55041506310278
21
11.517449247896421
31
0
0
LINE
5
340
100
AcDbEntity
8
0
100
AcDbLine
10
113.50784831117724
20
12.079668177197583
30
0
11
113.48171619536032
21
12.328298651039651
31
0
0
LINE
5
341
100
AcDbEntity
8
0
100
AcDbLine
10
-23.748374700300459
20
111.80215188581604
30
0
11
-23.992911600483907
21
111.75017396311159
31
0
0
LINE
5
342
100
AcDbEntity
8
0
100
AcDbLine
10
-113.5389022869176
20
12.079668672404862
30
0
11
-113.5650344027345
21
11.831038198562776
31
0
0
LINE
5
343
100
AcDbEntity
8
0
100
AcDbLine
10
113.50784793691545
20
-11.783909979628131
30
0
11
113.4817158210985
21
-12.032540453470201
31
0
0
LINE
5
344
100
AcDbEntity
8
0
100
AcDbLine
10
-113.5650344027345
20
11.831038198562776
30
0
11
-110.58463034188536
21
11.517785108964709
31
0
0
LINE
5
345
100
AcDbEntity
8
0
100
AcDbLine
10
113.48171619536032
20
12.328298651039651
30
0
11
110.50131213451122
21
12.015045561441207
31
0
0
LINE
5
346
100
AcDbEntity
8
0
100
AcDbLine
10
-113.51276984888727
20
12.328302211903097
30
0
11
-110.52920416278243
21
12.014716822100091
31
0
0
LINE
5
347
100
AcDbEntity
8
0
100
AcDbLine
10
113.50784825912888
20
-11.783906913971965
30
0
11
113.53398037494577
21
-11.535276440129874
31
0
0
LINE
5
348
100
AcDbEntity
8
0
100
AcDbLine
10
-113.53890266117943
20
-11.783903353108546
30
0
11
-113.56503477699634
21
-11.535272879266472
31
0
0
LINE
5
349
100
AcDbEntity
8
0
100
AcDbLine
10
110.49815013499369
20
-11.718955063667195
30
0
11
110.55357631409663
21
-11.222023350531812
31
0
0
LINE
5
350
100
AcDbEntity
8
0
100
AcDbLine
10
110.55041506310278
20
11.517449247896421
30
0
11
110.50131213451122
21
12.015045561441207
31
0
0
LINE
5
351
100
AcDbEntity
8
0
100
AcDbLine
10
46.412929281151051
20
-104.13213992717006
30
0
11
46.64131564556169
21
-104.0304557664011
31
0
0
ENDSEC
0
SECTION
2
OBJECTS
0
DICTIONARY
5
C
100
AcDbDictionary
3
ACAD_GROUP
350
D
3
ACAD_MLINESTYLE
350
17
0
DICTIONARY
5
D
100
AcDbDictionary
0
DICTIONARY
5
1A
330
C
100
AcDbDictionary
0
DICTIONARY
5
17
100
AcDbDictionary
0
ENDSEC
0
EOF
