0
SECTION
2
HEADER
9
$INSUNITS
70
4
9
$ACADVER
1
AC1014
9
$HANDSEED
5
FFFF
0
ENDSEC
0
SECTION
2
TABLES
0
TABLE
2
VPORT
5
8
100
AcDbSymbolTable
0
ENDTAB
0
TABLE
2
LTYPE
5
5
100
AcDbSymbolTable
0
LTYPE
5
14
100
AcDbSymbolTableRecord
100
AcDbLinetypeTableRecord
2
BYBLOCK
70
0
0
LTYPE
5
15
100
AcDbSymbolTableRecord
100
AcDbLinetypeTableRecord
2
BYLAYER
70
0
0
ENDTAB
0
TABLE
2
LAYER
5
2
100
AcDbSymbolTable
70
2
0
LAYER
5
50
100
AcDbSymbolTableRecord
100
AcDbLayerTableRecord
2
0
70
0
6
CONTINUOUS
0
ENDTAB
0
TABLE
2
STYLE
5
3
100
AcDbSymbolTable
70
1
0
STYLE
5
11
100
AcDbSymbolTableRecord
100
AcDbTextStyleTableRecord
2
STANDARD
70
0
0
ENDTAB
0
TABLE
2
VIEW
5
6
100
AcDbSymbolTable
70
0
0
ENDTAB
0
TABLE
2
UCS
5
7
100
AcDbSymbolTable
70
0
0
ENDTAB
0
TABLE
2
APPID
5
9
100
AcDbSymbolTable
70
2
0
APPID
5
12
100
AcDbSymbolTableRecord
100
AcDbRegAppTableRecord
2
ACAD
70
0
0
ENDTAB
0
TABLE
2
DIMSTYLE
5
A
100
AcDbSymbolTable
70
1
0
ENDTAB
0
TABLE
2
BLOCK_RECORD
5
1
100
AcDbSymbolTable
70
1
0
BLOCK_RECORD
5
1F
100
AcDbSymbolTableRecord
100
AcDbBlockTableRecord
2
*MODEL_SPACE
0
BLOCK_RECORD
5
1B
100
AcDbSymbolTableRecord
100
AcDbBlockTableRecord
2
*PAPER_SPACE
0
ENDTAB
0
ENDSEC
0
SECTION
2
BLOCKS
0
BLOCK
5
20
100
AcDbEntity
100
AcDbBlockBegin
2
*MODEL_SPACE
0
ENDBLK
5
21
100
AcDbEntity
100
AcDbBlockEnd
0
BLOCK
5
1C
100
AcDbEntity
100
AcDbBlockBegin
2
*PAPER_SPACE
0
ENDBLK
5
1D
100
AcDbEntity
100
AcDbBlockEnd
0
ENDSEC
0
SECTION
2
ENTITIES
0
LINE
5
100
100
AcDbEntity
8
0
100
AcDbLine
10
0.34714281338076269
20
-53.732788144278452
30
0
11
4.9587291294995683
21
-49.958723556729403
31
0
0
LINE
5
101
100
AcDbEntity
8
0
100
AcDbLine
10
5.2842921305598445
20
-50.092517706056512
30
0
11
5.6207993100525799
21
-53.282442000641083
31
0
0
CIRCLE
5
102
100
AcDbEntity
8
0
100
AcDbCircle
10
0
20
0
30
0
40
1.925
210
0
220
0
230
1
0
LWPOLYLINE
5
103
100
AcDbEntity
8
0
100
AcDbPolyline
90
8
70
1
43
0.0
10
11.029296379534113
20
-45.687576946099114
42
0.25004291766919307
10
44.088220765062466
20
-16.285848323143828
42
0.23062228841385751
10
43.740279142560745
20
-12.799556771622331
42
0.39152159659356955
10
10.275213303766979
20
-3.4782794309160185
42
0.14335143668663114
10
8.6453574523964747
20
-5.0257133344730729
42
-0.018535100152522653
10
8.2493882830107115
20
-5.6522201793749414
42
0.28191152924661012
10
8.0357861717704786
20
-9.8252587703323044
42
-0.24281773015885005
10
8.7629251878871113
20
-42.865558454182107
42
0.6346667959273633
0
LWPOLYLINE
5
104
100
AcDbEntity
8
0
100
AcDbPolyline
90
8
70
1
43
0.0
10
1.3433877204141687
20
-45.554758065999579
42
0.39152159659356872
10
-0.13282478657651753
20
-10.847156024208131
42
0.14335143668661743
10
-2.1081750405454396
20
-9.7752543700115009
42
-0.018535100152523097
10
-2.8263796604816283
20
-9.5922665733820942
42
0.28191152924660995
10
-6.8611818875703845
20
-10.678658736380964
42
-0.24281773015885016
10
-38.059675888987321
20
-21.580223137461914
42
0.63466679592737019
10
-40.043227751049656
20
-24.607721900064131
42
0.25004291766919329
10
-1.8647527029616473
20
-46.962993550136112
42
0.2306222884138634
0
LWPOLYLINE
5
105
100
AcDbEntity
8
0
100
AcDbPolyline
90
8
70
1
43
0.0
10
46.859707785597919
20
-3.6287535162512179
42
0.2500429176691929
10
29.112771639279188
20
36.89778575080777
42
0.23062228841386009
10
25.689591467096516
20
37.64419694020313
42
0.39152159659356983
10
6.4832558499596349
20
8.6974611135323592
42
0.14335143668662823
10
7.4512997910186618
20
6.6691927115935847
42
-0.018535100152523097
10
7.924782005777379
20
6.0990023906303561
42
0.28191152924661017
10
11.827570868050937
20
4.6063148680526078
42
-0.24281773015885005
10
43.475461495974102
20
-4.912148933968016
42
0.63466679592736164
0
LWPOLYLINE
5
106
100
AcDbEntity
8
0
100
AcDbPolyline
90
8
70
1
43
0.0
10
17.93159573485346
20
43.444883936260112
42
0.25004291766919357
10
-26.095538385273972
20
39.08993402675452
42
0.23062228841385973
10
-27.863238458795824
20
36.064949959862581
42
0.39152159659356844
10
-6.2683408307303363
20
8.853606014909543
42
0.14335143668663008
10
-4.0402009211819623
20
9.1475011077609754
42
-0.018535100152523097
10
-3.3516036500067252
20
9.4216109542513689
42
0.28191152924660995
10
-0.72594537096689837
20
12.672117921672823
42
-0.24281773015885005
10
18.106387693212252
20
39.829683455188317
42
0.63466679592735986
0
LWPOLYLINE
5
107
100
AcDbEntity
8
0
100
AcDbPolyline
90
8
70
1
43
0.0
10
-35.777372148935797
20
30.47916842615431
42
0.25004291766919329
10
-45.240701316105984
20
-12.738877904282424
42
0.23062228841386057
10
-42.910019871275495
20
-15.354832062443863
42
0.39152159659356955
10
-10.357303536419709
20
-3.2256316733177015
42
0.14335143668664574
10
-9.9482812816877555
20
-1.015726114869941
42
-0.018535100152521987
10
-9.9961869782997468
20
-0.27612659212467566
42
0.28191152924660984
10
-12.276229781284131
20
3.2254847169878698
42
-0.24281773015885005
10
-32.285098488086128
20
29.528247070423745
42
0.63466679592736253
0
ARC
5
108
100
AcDbEntity
8
0
100
AcDbCircle
10
0.22047618723752599
20
-53.578012287564654
30
0
40
0.20000000000000212
210
0
220
0
230
1
100
AcDbArc
50
180.02189700895596
51
309.29646523799903
0
ARC
5
109
100
AcDbEntity
8
0
100
AcDbCircle
10
5.0853957556428053
20
-50.113499413443201
30
0
40
0.1999999999999999
210
0
220
-0
230
1
100
AcDbArc
50
6.0218970089627062
51
129.29646523799906
0
ARC
5
110
100
AcDbEntity
8
0
100
AcDbCircle
10
10.295824508251325
20
-49.307403816749193
30
0
40
0.20000000000000087
210
0
220
-0
230
1
100
AcDbArc
50
12.021897008963764
51
135.29646523800096
0
LINE
5
111
100
AcDbEntity
8
0
100
AcDbLine
10
5.9618469005347263
20
-53.402148003852588
30
0
11
10.153673292686221
21
-49.166716106151
31
0
0
LINE
5
112
100
AcDbEntity
8
0
100
AcDbLine
10
10.491438122385837
20
-49.265746716931332
30
0
11
11.15953976479306
21
-52.403021694111978
31
0
0
ARC
5
113
100
AcDbEntity
8
0
100
AcDbCircle
10
5.8196956849696226
20
-53.261460293254387
30
0
40
0.20000000000000209
210
0
220
0
230
1
100
AcDbArc
50
186.02189700896056
51
315.29646523799948
0
ARC
5
114
100
AcDbEntity
8
0
100
AcDbCircle
10
15.393450053007653
20
-47.961085985601287
30
0
40
0.19999999999999948
210
0
220
-0
230
1
100
AcDbArc
50
18.021897008962021
51
141.29646523800048
0
LINE
5
115
100
AcDbEntity
8
0
100
AcDbLine
10
11.511231745449759
20
-52.486422754778623
30
0
11
15.237371686485467
21
-47.836027825116794
31
0
0
LINE
5
116
100
AcDbEntity
8
0
100
AcDbLine
10
15.583637722668398
20
-47.899209897255176
30
0
11
16.576013966586643
21
-50.949462915864913
31
0
0
ARC
5
117
100
AcDbEntity
8
0
100
AcDbCircle
10
11.355153378927573
20
-52.361364594294116
30
0
40
0.20000000000000306
210
0
220
0
230
1
100
AcDbArc
50
192.02189700896363
51
321.29646523799732
0
ARC
5
118
100
AcDbEntity
8
0
100
AcDbCircle
10
20.322421737696715
20
-46.089296459892651
30
0
40
0.20000000000000284
210
0
220
-0
230
1
100
AcDbArc
50
24.021897008962444
51
147.29646523800025
0
LINE
5
119
100
AcDbEntity
8
0
100
AcDbLine
10
16.934497126481546
20
-50.995645274513208
30
0
11
20.15412624746256
21
-45.981238012898231
31
0
0
LINE
5
120
100
AcDbEntity
8
0
100
AcDbLine
10
20.505099726975562
20
-46.007879310390607
30
0
11
21.810877890608378
21
-48.937691160051045
31
0
0
ARC
5
121
100
AcDbEntity
8
0
100
AcDbCircle
10
16.766201636247395
20
-50.887586827518788
30
0
40
0.20000000000000367
210
0
220
0
230
1
100
AcDbArc
50
198.02189700895946
51
327.29646523799971
0
ARC
5
122
100
AcDbEntity
8
0
100
AcDbCircle
10
25.028736717087416
20
-43.7125429573641
30
0
40
0.19999999999999918
210
0
220
-0
230
1
100
AcDbArc
50
30.021897008962576
51
153.2964652379998
0
LINE
5
123
100
AcDbEntity
8
0
100
AcDbLine
10
22.172224613224245
20
-48.9461488330954
30
0
11
24.850067983750396
21
-43.622668134817708
31
0
0
LINE
5
124
100
AcDbEntity
8
0
100
AcDbLine
10
25.201903567705997
20
-43.612476770033702
30
0
11
26.806777272240975
21
-46.389747819017437
31
0
0
ARC
5
125
100
AcDbEntity
8
0
100
AcDbCircle
10
21.993555879887225
20
-48.856274010549001
30
0
40
0.20000000000000284
210
0
220
0
230
1
100
AcDbArc
50
204.02189700896244
51
333.29646523799795
0
ARC
5
126
100
AcDbEntity
8
0
100
AcDbCircle
10
29.460831619405823
20
-40.856865686756983
30
0
40
0.20000000000000653
210
0
220
-0
230
1
100
AcDbArc
50
36.021897008963883
51
159.29646523799914
0
LINE
5
127
100
AcDbEntity
8
0
100
AcDbLine
10
27.167028567268162
20
-46.360388142422067
30
0
11
29.273747174997219
21
-40.786159176021954
31
0
0
LINE
5
128
100
AcDbEntity
8
0
100
AcDbLine
10
29.622590079111273
20
-40.739246807686811
30
0
11
31.508975992400114
21
-43.333548693199837
31
0
0
ARC
5
129
100
AcDbEntity
8
0
100
AcDbCircle
10
26.979944122859557
20
-46.289681631687039
30
0
40
0.19999999999999857
210
0
220
0
230
1
100
AcDbArc
50
210.02189700896031
51
339.29646523799909
0
ARC
5
130
100
AcDbEntity
8
0
100
AcDbCircle
10
33.570147485426666
20
-37.553552045836931
30
0
40
0.19999999999999987
210
0
220
-0
230
1
100
AcDbArc
50
42.021897008962384
51
165.29646523800207
0
LINE
5
131
100
AcDbEntity
8
0
100
AcDbLine
10
31.864184871262886
20
-43.266693337725435
30
0
11
33.376697066269344
21
-37.502788522241175
31
0
0
LINE
5
132
100
AcDbEntity
8
0
100
AcDbLine
10
33.718725294684312
20
-37.419669132079427
30
0
11
35.865955777909392
21
-39.802578139771491
31
0
0
ARC
5
133
100
AcDbEntity
8
0
100
AcDbCircle
10
31.670734452105563
20
-43.215929814129666
30
0
40
0.20000000000000129
210
0
220
0
230
1
100
AcDbArc
50
216.02189700896224
51
345.29646523799806
0
ARC
5
134
100
AcDbEntity
8
0
100
AcDbCircle
10
37.311661790592183
20
-33.838793830116714
30
0
40
0.20000000000000207
210
0
220
-0
230
1
100
AcDbArc
50
48.021897008963265
51
171.29646523799838
0
LINE
5
135
100
AcDbEntity
8
0
100
AcDbLine
10
36.212230497798686
20
-39.698959586683017
30
0
11
37.113964879960541
21
-33.808529469447677
31
0
0
LINE
5
136
100
AcDbEntity
8
0
100
AcDbLine
10
37.445431099831893
20
-33.690113730891795
30
0
11
39.829980646482134
21
-35.835522211018862
31
0
0
ARC
5
137
100
AcDbEntity
8
0
100
AcDbCircle
10
36.014533587167044
20
-39.668695226013988
30
0
40
0.20000000000000018
210
0
220
0
230
1
100
AcDbArc
50
222.02189700895951
51
351.29646523800045
0
ARC
5
138
100
AcDbEntity
8
0
100
AcDbCircle
10
40.644381721212774
20
-29.75329070797088
30
0
40
0.20000000000000495
210
0
220
-0
230
1
100
AcDbArc
50
54.021897008962078
51
177.29646523799886
0
LINE
5
139
100
AcDbEntity
8
0
100
AcDbLine
10
40.163527349104193
20
-35.696275726867526
30
0
11
40.444604327830433
21
-29.74385709289729
31
0
0
LINE
5
140
100
AcDbEntity
8
0
100
AcDbLine
10
40.761876925889496
20
-29.591442393558971
30
0
11
43.357619912132733
21
-31.475844801857178
31
0
0
ARC
5
141
100
AcDbEntity
8
0
100
AcDbCircle
10
39.963749955721852
20
-35.686842111793943
30
0
40
0.20000000000000207
210
0
220
0
230
1
100
AcDbArc
50
228.02189700896039
51
357.29646523800085
0
ARC
5
142
100
AcDbEntity
8
0
100
AcDbCircle
10
43.531793300312088
20
-25.341804306552156
30
0
40
0.19999999999999599
210
0
220
-0
230
1
100
AcDbArc
50
60.021897008964146
51
183.29646523799957
0
LINE
5
143
100
AcDbEntity
8
0
100
AcDbLine
10
43.674784190014492
20
-31.302496000262551
30
0
11
43.332124227107045
21
-25.353304793734871
31
0
0
LINE
5
144
100
AcDbEntity
8
0
100
AcDbLine
10
43.631727098375919
20
-25.16856102095489
30
0
11
46.410224020860724
21
-26.77131145030237
31
0
0
ARC
5
145
100
AcDbEntity
8
0
100
AcDbCircle
10
43.475115116809448
20
-31.313996487445266
30
0
40
0.20000000000000134
210
0
220
0
230
1
100
AcDbArc
50
-125.97810299104016
51
3.2964652379995432
0
ARC
5
146
100
AcDbEntity
8
0
100
AcDbCircle
10
45.942261442399783
20
-20.652667794037374
30
0
40
0.19999999999999724
210
0
220
-0
230
1
100
AcDbArc
50
66.021897008966249
51
189.29646523799894
0
LINE
5
147
100
AcDbEntity
8
0
100
AcDbLine
10
46.707530955802817
20
-26.56575957701029
30
0
11
45.744888305521513
21
-20.684976381732184
31
0
0
LINE
5
148
100
AcDbEntity
8
0
100
AcDbLine
10
46.023538938246645
20
-20.469927626945239
30
0
11
48.954348003252413
21
-21.773466008240966
31
0
0
ARC
5
149
100
AcDbEntity
8
0
100
AcDbCircle
10
46.510157818924547
20
-26.598068164705101
30
0
40
0.1999999999999954
210
0
220
0
230
1
100
AcDbArc
50
-119.97810299103361
51
9.2964652379989623
0
ARC
5
150
100
AcDbEntity
8
0
100
AcDbCircle
10
47.849376554088245
20
-15.737256331322538
30
0
40
0.20000000000000068
210
0
220
-0
230
1
100
AcDbArc
50
72.021897008961048
51
195.29646523800011
0
LINE
5
151
100
AcDbEntity
8
0
100
AcDbLine
10
49.228540238260152
20
-21.53796313258972
30
0
11
47.656461814927383
21
-15.790019039881656
31
0
0
LINE
5
152
100
AcDbEntity
8
0
100
AcDbLine
10
47.911107254465257
20
-15.547021422247038
30
0
11
50.962117904564543
21
-16.537065916202593
31
0
0
ARC
5
153
100
AcDbEntity
8
0
100
AcDbCircle
10
49.035625499099282
20
-21.590725841148839
30
0
40
0.20000000000000445
210
0
220
0
230
1
100
AcDbArc
50
-113.97810299103934
51
15.296465237999564
0
ARC
5
154
100
AcDbEntity
8
0
100
AcDbCircle
10
49.232243883124369
20
-10.649424195009104
30
0
40
0.20000000000000023
210
0
220
-0
230
1
100
AcDbArc
50
78.021897008961204
51
201.29646523799934
0
LINE
5
155
100
AcDbEntity
8
0
100
AcDbLine
10
51.21019133213278
20
-16.27419225697993
30
0
11
49.045901155933151
21
-10.722062945156246
31
0
0
LINE
5
156
100
AcDbEntity
8
0
100
AcDbLine
10
49.273751453560202
20
-10.453778797423281
30
0
11
52.41153617760552
21
-11.119482269382761
31
0
0
ARC
5
157
100
AcDbEntity
8
0
100
AcDbCircle
10
51.023848604941563
20
-16.346831007127072
30
0
40
0.20000000000000001
210
0
220
0
230
1
100
AcDbArc
50
-107.97810299103476
51
21.296465237999342
0
ARC
5
158
100
AcDbEntity
8
0
100
AcDbCircle
10
50.075712445667591
20
-5.4449147386798868
30
0
40
0.19999999999999929
210
0
220
-0
230
1
100
AcDbArc
50
84.02189700896416
51
207.2964652379994
0
LINE
5
159
100
AcDbEntity
8
0
100
AcDbLine
10
52.630772853349072
20
-10.832117925409019
30
0
11
49.897983340359851
21
-5.536633685067808
31
0
0
LINE
5
160
100
AcDbEntity
8
0
100
AcDbLine
10
50.096542120534522
20
-5.2460023845011241
30
0
11
53.28672269246556
21
-5.5800712479183314
31
0
0
ARC
5
161
100
AcDbEntity
8
0
100
AcDbCircle
10
52.453043748041324
20
-10.92383687179694
30
0
40
0.20000000000000059
210
0
220
0
230
1
100
AcDbArc
50
-101.97810299103682
51
27.29646523799849
0
ARC
5
162
100
AcDbEntity
8
0
100
AcDbCircle
10
50.370541023639575
20
-0.1807496570520295
30
0
40
0.20000000000000015
210
0
220
0
230
1
100
AcDbArc
50
90.021897008960877
51
213.29646523800028
0
LINE
5
163
100
AcDbEntity
8
0
100
AcDbLine
10
53.474720613486795
20
-5.2713646430809202
30
0
11
50.203372777485278
21
-0.29054390771067806
31
0
0
LINE
5
164
100
AcDbEntity
8
0
100
AcDbLine
10
50.370464588660894
20
0.019250328342205192
30
0
11
53.578088722543349
21
0.020476201843272479
31
0
0
ARC
5
165
100
AcDbEntity
8
0
100
AcDbCircle
10
53.307552367332498
20
-5.3811588937395696
30
0
40
0.20000000000000129
210
0
220
0
230
1
100
AcDbArc
50
-95.978102991037858
51
33.296465238000472
0
ARC
5
166
100
AcDbEntity
8
0
100
AcDbCircle
10
50.113499413443208
20
5.0853957556428178
30
0
40
0.1999999999999999
210
0
220
0
230
1
100
AcDbArc
50
96.021897008962725
51
219.29646523799909
0
LINE
5
167
100
AcDbEntity
8
0
100
AcDbLine
10
53.732788144278459
20
0.34714281338077468
30
0
11
49.95872355672941
21
4.9587291294995808
31
0
0
LINE
5
168
100
AcDbEntity
8
0
100
AcDbLine
10
50.092517706056519
20
5.2842921305598569
30
0
11
53.28244200064109
21
5.6207993100525933
31
0
0
ARC
5
169
100
AcDbEntity
8
0
100
AcDbCircle
10
53.578012287564661
20
0.22047618723753792
30
0
40
0.20000000000000215
210
0
220
0
230
1
100
AcDbArc
50
-89.97810299103709
51
39.29646523799903
0
ARC
5
170
100
AcDbEntity
8
0
100
AcDbCircle
10
49.307403816749193
20
10.295824508251306
30
0
40
0.20000000000000087
210
0
220
0
230
1
100
AcDbArc
50
102.02189700896386
51
225.29646523800056
0
LINE
5
171
100
AcDbEntity
8
0
100
AcDbLine
10
53.402148003852588
20
5.9618469005347059
30
0
11
49.166716106151
21
10.153673292686204
31
0
0
LINE
5
172
100
AcDbEntity
8
0
100
AcDbLine
10
49.265746716931332
20
10.491438122385816
30
0
11
52.403021694111985
21
11.159539764793042
31
0
0
ARC
5
173
100
AcDbEntity
8
0
100
AcDbCircle
10
53.261460293254387
20
5.8196956849696022
30
0
40
0.20000000000000209
210
0
220
0
230
1
100
AcDbArc
50
-83.978102991039364
51
45.296465237999499
0
ARC
5
174
100
AcDbEntity
8
0
100
AcDbCircle
10
47.961085985601287
20
15.393450053007635
30
0
40
0.20000000000000223
210
0
220
0
230
1
100
AcDbArc
50
108.02189700896396
51
231.29646523799889
0
LINE
5
175
100
AcDbEntity
8
0
100
AcDbLine
10
52.486422754778616
20
11.511231745449741
30
0
11
47.836027825116787
21
15.237371686485449
31
0
0
LINE
5
176
100
AcDbEntity
8
0
100
AcDbLine
10
47.899209897255169
20
15.58363772266838
30
0
11
50.949462915864899
21
16.576013966586626
31
0
0
ARC
5
177
100
AcDbEntity
8
0
100
AcDbCircle
10
52.361364594294109
20
11.355153378927556
30
0
40
0.20000000000000306
210
0
220
0
230
1
100
AcDbArc
50
-77.978102991036323
51
51.296465237997303
0
ARC
5
178
100
AcDbEntity
8
0
100
AcDbCircle
10
46.089296459892665
20
20.322421737696715
30
0
40
0.20000000000000284
210
0
220
0
230
1
100
AcDbArc
50
114.02189700896432
51
237.29646523799627
0
LINE
5
179
100
AcDbEntity
8
0
100
AcDbLine
10
50.995645274513215
20
16.934497126481546
30
0
11
45.981238012898231
21
20.154126247462564
31
0
0
LINE
5
180
100
AcDbEntity
8
0
100
AcDbLine
10
46.007879310390614
20
20.505099726975562
30
0
11
48.93769116005106
21
21.810877890608378
31
0
0
ARC
5
181
100
AcDbEntity
8
0
100
AcDbCircle
10
50.887586827518788
20
16.766201636247395
30
0
40
0.20000000000000642
210
0
220
0
230
1
100
AcDbArc
50
-71.978102991038625
51
57.296465237997985
0
ARC
5
182
100
AcDbEntity
8
0
100
AcDbCircle
10
43.712542957364107
20
25.028736717087405
30
0
40
0.20000000000000362
210
0
220
0
230
1
100
AcDbArc
50
120.02189700896486
51
243.29646523799795
0
LINE
5
183
100
AcDbEntity
8
0
100
AcDbLine
10
48.9461488330954
20
22.172224613224223
30
0
11
43.622668134817708
21
24.850067983750385
31
0
0
LINE
5
184
100
AcDbEntity
8
0
100
AcDbLine
10
43.612476770033702
20
25.201903567705983
30
0
11
46.389747819017444
21
26.806777272240964
31
0
0
ARC
5
185
100
AcDbEntity
8
0
100
AcDbCircle
10
48.856274010549008
20
21.993555879887211
30
0
40
0.20000000000000284
210
0
220
0
230
1
100
AcDbArc
50
-65.978102991035698
51
63.296465237998859
0
ARC
5
186
100
AcDbEntity
8
0
100
AcDbCircle
10
40.856865686756983
20
29.460831619405816
30
0
40
0.20000000000000129
210
0
220
0
230
1
100
AcDbArc
50
126.0218970089612
51
249.29646523800108
0
LINE
5
187
100
AcDbEntity
8
0
100
AcDbLine
10
46.360388142422067
20
27.167028567268154
30
0
11
40.786159176021961
21
29.273747174997212
31
0
0
LINE
5
188
100
AcDbEntity
8
0
100
AcDbLine
10
40.739246807686825
20
29.622590079111262
30
0
11
43.333548693199845
21
31.50897599240011
31
0
0
ARC
5
189
100
AcDbEntity
8
0
100
AcDbCircle
10
46.289681631687046
20
26.979944122859546
30
0
40
0.19999999999999857
210
0
220
0
230
1
100
AcDbArc
50
-59.978102991039172
51
69.296465238001403
0
ARC
5
190
100
AcDbEntity
8
0
100
AcDbCircle
10
37.553552045836923
20
33.570147485426666
30
0
40
0.19999999999999393
210
0
220
0
230
1
100
AcDbArc
50
132.02189700896224
51
255.29646523800008
0
LINE
5
191
100
AcDbEntity
8
0
100
AcDbLine
10
43.266693337725428
20
31.864184871262875
30
0
11
37.502788522241161
21
33.376697066269344
31
0
0
LINE
5
192
100
AcDbEntity
8
0
100
AcDbLine
10
37.419669132079427
20
33.718725294684305
30
0
11
39.802578139771491
21
35.865955777909392
31
0
0
ARC
5
193
100
AcDbEntity
8
0
100
AcDbCircle
10
43.215929814129666
20
31.670734452105552
30
0
40
0.19999999999999246
210
0
220
0
230
1
100
AcDbArc
50
-53.97810299103822
51
75.296465238000067
0
ARC
5
194
100
AcDbEntity
8
0
100
AcDbCircle
10
33.838793830116728
20
37.311661790592183
30
0
40
0.19999999999999907
210
0
220
0
230
1
100
AcDbArc
50
138.02189700896326
51
261.2964652379984
0
LINE
5
195
100
AcDbEntity
8
0
100
AcDbLine
10
39.698959586683031
20
36.212230497798679
30
0
11
33.808529469447691
21
37.113964879960541
31
0
0
LINE
5
196
100
AcDbEntity
8
0
100
AcDbLine
10
33.690113730891809
20
37.445431099831893
30
0
11
35.835522211018876
21
39.829980646482134
31
0
0
ARC
5
197
100
AcDbEntity
8
0
100
AcDbCircle
10
39.668695226013995
20
36.014533587167037
30
0
40
0.20000000000000318
210
0
220
0
230
1
100
AcDbArc
50
-47.97810299103763
51
81.296465237998405
0
ARC
5
198
100
AcDbEntity
8
0
100
AcDbCircle
10
29.753290707970894
20
40.644381721212781
30
0
40
0.19999999999999973
210
0
220
0
230
1
100
AcDbArc
50
144.02189700896375
51
267.29646523799875
0
LINE
5
199
100
AcDbEntity
8
0
100
AcDbLine
10
35.69627572686754
20
40.1635273491042
30
0
11
29.743857092897304
21
40.44460432783044
31
0
0
LINE
5
200
100
AcDbEntity
8
0
100
AcDbLine
10
29.591442393558985
20
40.761876925889496
30
0
11
31.475844801857193
21
43.357619912132733
31
0
0
ARC
5
201
100
AcDbEntity
8
0
100
AcDbCircle
10
35.686842111793958
20
39.963749955721859
30
0
40
0.20000000000000503
210
0
220
0
230
1
100
AcDbArc
50
-41.978102991039577
51
87.296465238000792
0
ARC
5
202
100
AcDbEntity
8
0
100
AcDbCircle
10
25.341804306552159
20
43.531793300312074
30
0
40
0.19999999999999984
210
0
220
0
230
1
100
AcDbArc
50
150.0218970089629
51
273.29646523799858
0
LINE
5
203
100
AcDbEntity
8
0
100
AcDbLine
10
31.302496000262551
20
43.674784190014478
30
0
11
25.353304793734871
21
43.33212422710703
31
0
0
LINE
5
204
100
AcDbEntity
8
0
100
AcDbLine
10
25.16856102095489
20
43.631727098375912
30
0
11
26.77131145030237
21
46.410224020860717
31
0
0
ARC
5
205
100
AcDbEntity
8
0
100
AcDbCircle
10
31.313996487445266
20
43.475115116809434
30
0
40
0.19999999999999615
210
0
220
0
230
1
100
AcDbArc
50
-35.978102991036849
51
93.296465237999556
0
ARC
5
206
100
AcDbEntity
8
0
100
AcDbCircle
10
20.652667794037388
20
45.942261442399769
30
0
40
0.19999999999999724
210
0
220
0
230
1
100
AcDbArc
50
156.02189700896437
51
279.29646523799903
0
LINE
5
207
100
AcDbEntity
8
0
100
AcDbLine
10
26.565759577010301
20
46.70753095580281
30
0
11
20.684976381732199
21
45.744888305521499
31
0
0
LINE
5
208
100
AcDbEntity
8
0
100
AcDbLine
10
20.469927626945253
20
46.023538938246638
30
0
11
21.77346600824098
21
48.954348003252399
31
0
0
ARC
5
209
100
AcDbEntity
8
0
100
AcDbCircle
10
26.598068164705111
20
46.51015781892454
30
0
40
0.19999999999999984
210
0
220
0
230
1
100
AcDbArc
50
-29.978102991035339
51
99.296465237998987
0
ARC
5
210
100
AcDbEntity
8
0
100
AcDbCircle
10
15.737256331322534
20
47.849376554088245
30
0
40
0.20000000000000068
210
0
220
0
230
1
100
AcDbArc
50
162.02189700896108
51
285.29646523799966
0
LINE
5
211
100
AcDbEntity
8
0
100
AcDbLine
10
21.53796313258972
20
49.228540238260152
30
0
11
15.790019039881651
21
47.656461814927383
31
0
0
LINE
5
212
100
AcDbEntity
8
0
100
AcDbLine
10
15.547021422247035
20
47.911107254465257
30
0
11
16.537065916202593
21
50.962117904564543
31
0
0
ARC
5
213
100
AcDbEntity
8
0
100
AcDbCircle
10
21.590725841148831
20
49.035625499099282
30
0
40
0.20000000000000445
210
0
220
0
230
1
100
AcDbArc
50
-23.978102991039325
51
105.29646523799761
0
ARC
5
214
100
AcDbEntity
8
0
100
AcDbCircle
10
10.649424195009107
20
49.232243883124369
30
0
40
0.20000000000000023
210
0
220
0
230
1
100
AcDbArc
50
168.0218970089611
51
291.29646523800028
0
LINE
5
215
100
AcDbEntity
8
0
100
AcDbLine
10
16.274192256979937
20
51.21019133213278
30
0
11
10.722062945156253
21
49.045901155933151
31
0
0
LINE
5
216
100
AcDbEntity
8
0
100
AcDbLine
10
10.453778797423286
20
49.273751453560202
30
0
11
11.119482269382765
21
52.41153617760552
31
0
0
ARC
5
217
100
AcDbEntity
8
0
100
AcDbCircle
10
16.346831007127079
20
51.023848604941563
30
0
40
0.20000000000000212
210
0
220
0
230
1
100
AcDbArc
50
-17.97810299103476
51
111.29646523799936
0
ARC
5
218
100
AcDbEntity
8
0
100
AcDbCircle
10
5.4449147386798993
20
50.075712445667584
30
0
40
0.20000000000000018
210
0
220
0
230
1
100
AcDbArc
50
174.02189700896221
51
297.2964652379992
0
LINE
5
219
100
AcDbEntity
8
0
100
AcDbLine
10
10.832117925409033
20
52.630772853349058
30
0
11
5.5366336850678195
21
49.897983340359843
31
0
0
LINE
5
220
100
AcDbEntity
8
0
100
AcDbLine
10
5.2460023845011357
20
50.096542120534522
30
0
11
5.5800712479183421
21
53.286722692465545
31
0
0
ARC
5
221
100
AcDbEntity
8
0
100
AcDbCircle
10
10.923836871796953
20
52.453043748041324
30
0
40
0.20000000000000243
210
0
220
0
230
1
100
AcDbArc
50
-11.978102991038696
51
117.29646523799991
0
ARC
5
222
100
AcDbEntity
8
0
100
AcDbCircle
10
0.18074965705203061
20
50.370541023639561
30
0
40
0.19999999999999904
210
0
220
0
230
1
100
AcDbArc
50
180.02189700895596
51
303.29646523799903
0
LINE
5
223
100
AcDbEntity
8
0
100
AcDbLine
10
5.2713646430809193
20
53.474720613486781
30
0
11
0.29054390771067862
21
50.203372777485257
31
0
0
LINE
5
224
100
AcDbEntity
8
0
100
AcDbLine
10
-0.019250328342202971
20
50.370464588660873
30
0
11
-0.020476201843271369
21
53.578088722543328
31
0
0
ARC
5
225
100
AcDbEntity
8
0
100
AcDbCircle
10
5.3811588937395687
20
53.307552367332477
30
0
40
0.20000000000000129
210
0
220
0
230
1
100
AcDbArc
50
-5.9781029910377974
51
123.29646523799936
0
ARC
5
226
100
AcDbEntity
8
0
100
AcDbCircle
10
-5.0853957556427982
20
50.113499413443201
30
0
40
0.1999999999999999
210
0
220
0
230
1
100
AcDbArc
50
186.0218970089627
51
309.29646523799886
0
LINE
5
227
100
AcDbEntity
8
0
100
AcDbLine
10
-0.34714281338075609
20
53.732788144278452
30
0
11
-4.9587291294995621
21
49.958723556729403
31
0
0
LINE
5
228
100
AcDbEntity
8
0
100
AcDbLine
10
-5.2842921305598374
20
50.092517706056512
30
0
11
-5.6207993100525737
21
53.282442000641083
31
0
0
ARC
5
229
100
AcDbEntity
8
0
100
AcDbCircle
10
-0.22047618723751941
20
53.578012287564654
30
0
40
0.20000000000000212
210
0
220
-0
230
1
100
AcDbArc
50
0.021897008955992225
51
129.29646523799903
0
ARC
5
230
100
AcDbEntity
8
0
100
AcDbCircle
10
-10.295824508251304
20
49.307403816749186
30
0
40
0.19999999999999873
210
0
220
0
230
1
100
AcDbArc
50
192.02189700896392
51
315.2964652379984
0
LINE
5
231
100
AcDbEntity
8
0
100
AcDbLine
10
-5.9618469005347041
20
53.402148003852574
30
0
11
-10.153673292686198
21
49.166716106150979
31
0
0
LINE
5
232
100
AcDbEntity
8
0
100
AcDbLine
10
-10.491438122385812
20
49.265746716931325
30
0
11
-11.159539764793038
21
52.40302169411197
31
0
0
ARC
5
233
100
AcDbEntity
8
0
100
AcDbCircle
10
-5.8196956849696004
20
53.261460293254373
30
0
40
0.20000000000000209
210
0
220
-0
230
1
100
AcDbArc
50
6.0218970089626458
51
135.29646523799951
0
ARC
5
234
100
AcDbEntity
8
0
100
AcDbCircle
10
-15.393450053007642
20
47.961085985601308
30
0
40
0.20000000000000223
210
0
220
0
230
1
100
AcDbArc
50
198.02189700896395
51
321.29646523799732
0
LINE
5
235
100
AcDbEntity
8
0
100
AcDbLine
10
-11.511231745449745
20
52.48642275477863
30
0
11
-15.237371686485456
21
47.836027825116801
31
0
0
LINE
5
236
100
AcDbEntity
8
0
100
AcDbLine
10
-15.583637722668387
20
47.89920989725519
30
0
11
-16.576013966586629
21
50.94946291586492
31
0
0
ARC
5
237
100
AcDbEntity
8
0
100
AcDbCircle
10
-11.355153378927563
20
52.36136459429413
30
0
40
0.20000000000000306
210
0
220
-0
230
1
100
AcDbArc
50
12.021897008961627
51
141.29646523799826
0
ARC
5
238
100
AcDbEntity
8
0
100
AcDbCircle
10
-20.322421737696708
20
46.089296459892665
30
0
40
0.20000000000000284
210
0
220
0
230
1
100
AcDbArc
50
204.02189700896471
51
327.29646523799573
0
LINE
5
239
100
AcDbEntity
8
0
100
AcDbLine
10
-16.934497126481538
20
50.995645274513215
30
0
11
-20.15412624746256
21
45.981238012898231
31
0
0
LINE
5
240
100
AcDbEntity
8
0
100
AcDbLine
10
-20.505099726975551
20
46.007879310390614
30
0
11
-21.810877890608374
21
48.93769116005106
31
0
0
ARC
5
241
100
AcDbEntity
8
0
100
AcDbCircle
10
-16.766201636247388
20
50.887586827518788
30
0
40
0.20000000000000434
210
0
220
-0
230
1
100
AcDbArc
50
18.021897008961691
51
147.29646523799801
0
ARC
5
242
100
AcDbEntity
8
0
100
AcDbCircle
10
-25.028736717087394
20
43.712542957364121
30
0
40
0.20000000000000301
210
0
220
0
230
1
100
AcDbArc
50
210.02189700896204
51
333.29646523799926
0
LINE
5
243
100
AcDbEntity
8
0
100
AcDbLine
10
-22.17222461322422
20
48.946148833095421
30
0
11
-24.850067983750378
21
43.622668134817729
31
0
0
LINE
5
244
100
AcDbEntity
8
0
100
AcDbLine
10
-25.20190356770598
20
43.612476770033723
30
0
11
-26.806777272240954
21
46.389747819017451
31
0
0
ARC
5
245
100
AcDbEntity
8
0
100
AcDbCircle
10
-21.993555879887204
20
48.856274010549015
30
0
40
0.20000000000000284
210
0
220
-0
230
1
100
AcDbArc
50
24.021897008964711
51
153.2964652379957
0
ARC
5
246
100
AcDbEntity
8
0
100
AcDbCircle
10
-29.460831619405816
20
40.856865686756983
30
0
40
0.20000000000000129
210
0
220
0
230
1
100
AcDbArc
50
216.02189700896119
51
339.29646523800108
0
LINE
5
247
100
AcDbEntity
8
0
100
AcDbLine
10
-27.167028567268154
20
46.360388142422067
30
0
11
-29.273747174997212
21
40.786159176021961
31
0
0
LINE
5
248
100
AcDbEntity
8
0
100
AcDbLine
10
-29.622590079111262
20
40.739246807686825
30
0
11
-31.50897599240011
21
43.333548693199845
31
0
0
ARC
5
249
100
AcDbEntity
8
0
100
AcDbCircle
10
-26.979944122859546
20
46.289681631687046
30
0
40
0.19999999999999857
210
0
220
-0
230
1
100
AcDbArc
50
30.02189700896081
51
159.29646523800142
0
ARC
5
250
100
AcDbEntity
8
0
100
AcDbCircle
10
-33.570147485426666
20
37.553552045836945
30
0
40
0.19999999999999724
210
0
220
0
230
1
100
AcDbArc
50
222.02189700895951
51
345.29646523800011
0
LINE
5
251
100
AcDbEntity
8
0
100
AcDbLine
10
-31.864184871262886
20
43.266693337725442
30
0
11
-33.376697066269344
21
37.502788522241183
31
0
0
LINE
5
252
100
AcDbEntity
8
0
100
AcDbLine
10
-33.718725294684319
20
37.419669132079449
30
0
11
-35.865955777909392
21
39.802578139771512
31
0
0
ARC
5
253
100
AcDbEntity
8
0
100
AcDbCircle
10
-31.670734452105563
20
43.215929814129687
30
0
40
0.19999999999999607
210
0
220
-0
230
1
100
AcDbArc
50
36.021897008958959
51
165.29646523800207
0
ARC
5
254
100
AcDbEntity
8
0
100
AcDbCircle
10
-37.311661790592169
20
33.838793830116735
30
0
40
0.20000000000000503
210
0
220
0
230
1
100
AcDbArc
50
228.02189700896025
51
351.29646523799806
0
LINE
5
255
100
AcDbEntity
8
0
100
AcDbLine
10
-36.212230497798672
20
39.698959586683046
30
0
11
-37.113964879960534
21
33.808529469447699
31
0
0
LINE
5
256
100
AcDbEntity
8
0
100
AcDbLine
10
-37.445431099831893
20
33.690113730891817
30
0
11
-39.829980646482127
21
35.83552221101889
31
0
0
ARC
5
257
100
AcDbEntity
8
0
100
AcDbCircle
10
-36.01453358716703
20
39.668695226014009
30
0
40
0.20000000000000318
210
0
220
-0
230
1
100
AcDbArc
50
42.021897008962384
51
171.29646523799838
0
ARC
5
258
100
AcDbEntity
8
0
100
AcDbCircle
10
-40.644381721212774
20
29.753290707970894
30
0
40
0.20000000000000495
210
0
220
0
230
1
100
AcDbArc
50
234.02189700896207
51
357.2964652379988
0
LINE
5
259
100
AcDbEntity
8
0
100
AcDbLine
10
-40.163527349104193
20
35.69627572686754
30
0
11
-40.444604327830433
21
29.743857092897304
31
0
0
LINE
5
260
100
AcDbEntity
8
0
100
AcDbLine
10
-40.761876925889496
20
29.591442393558985
30
0
11
-43.357619912132733
21
31.475844801857193
31
0
0
ARC
5
261
100
AcDbEntity
8
0
100
AcDbCircle
10
-39.963749955721852
20
35.686842111793958
30
0
40
0.20000000000000207
210
0
220
-0
230
1
100
AcDbArc
50
48.021897008960401
51
177.29646523800088
0
ARC
5
262
100
AcDbEntity
8
0
100
AcDbCircle
10
-43.531793300312088
20
25.341804306552174
30
0
40
0.19999999999999984
210
0
220
0
230
1
100
AcDbArc
50
-119.97810299103533
51
3.2964652379985475
0
LINE
5
263
100
AcDbEntity
8
0
100
AcDbLine
10
-43.674784190014492
20
31.302496000262565
30
0
11
-43.332124227107045
21
25.353304793734885
31
0
0
LINE
5
264
100
AcDbEntity
8
0
100
AcDbLine
10
-43.631727098375919
20
25.168561020954904
30
0
11
-46.410224020860724
21
26.771311450302377
31
0
0
ARC
5
265
100
AcDbEntity
8
0
100
AcDbCircle
10
-43.475115116809448
20
31.31399648744528
30
0
40
0.20000000000000134
210
0
220
-0
230
1
100
AcDbArc
50
54.021897008959833
51
183.29646523799957
0
ARC
5
266
100
AcDbEntity
8
0
100
AcDbCircle
10
-45.942261442399769
20
20.652667794037384
30
0
40
0.19999999999999724
210
0
220
0
230
1
100
AcDbArc
50
-113.9781029910356
51
9.2964652379979782
0
LINE
5
267
100
AcDbEntity
8
0
100
AcDbLine
10
-46.70753095580281
20
26.565759577010297
30
0
11
-45.744888305521499
21
20.684976381732191
31
0
0
LINE
5
268
100
AcDbEntity
8
0
100
AcDbLine
10
-46.023538938246638
20
20.46992762694525
30
0
11
-48.954348003252399
21
21.773466008240977
31
0
0
ARC
5
269
100
AcDbEntity
8
0
100
AcDbCircle
10
-46.51015781892454
20
26.598068164705108
30
0
40
0.19999999999999984
210
0
220
-0
230
1
100
AcDbArc
50
60.021897008964665
51
189.29646523799894
0
ARC
5
270
100
AcDbEntity
8
0
100
AcDbCircle
10
-47.849376554088252
20
15.737256331322564
30
0
40
0.1999999999999979
210
0
220
0
230
1
100
AcDbArc
50
-107.97810299103701
51
15.296465237999517
0
LINE
5
271
100
AcDbEntity
8
0
100
AcDbLine
10
-49.228540238260138
20
21.537963132589752
30
0
11
-47.656461814927376
21
15.790019039881685
31
0
0
LINE
5
272
100
AcDbEntity
8
0
100
AcDbLine
10
-47.911107254465257
20
15.547021422247065
30
0
11
-50.96211790456455
21
16.537065916202621
31
0
0
ARC
5
273
100
AcDbEntity
8
0
100
AcDbCircle
10
-49.035625499099282
20
21.590725841148867
30
0
40
0.2000000000000004
210
0
220
-0
230
1
100
AcDbArc
50
66.021897008960252
51
195.29646523799963
0
ARC
5
274
100
AcDbEntity
8
0
100
AcDbCircle
10
-49.232243883124355
20
10.649424195009104
30
0
40
0.20000000000000023
210
0
220
0
230
1
100
AcDbArc
50
-101.97810299104079
51
21.296465238000081
0
LINE
5
275
100
AcDbEntity
8
0
100
AcDbLine
10
-51.210191332132766
20
16.27419225697993
30
0
11
-49.045901155933144
21
10.722062945156246
31
0
0
LINE
5
276
100
AcDbEntity
8
0
100
AcDbLine
10
-49.273751453560195
20
10.453778797423281
30
0
11
-52.411536177605498
21
11.119482269382761
31
0
0
ARC
5
277
100
AcDbEntity
8
0
100
AcDbCircle
10
-51.023848604941556
20
16.346831007127072
30
0
40
0.20000000000000279
210
0
220
-0
230
1
100
AcDbArc
50
72.021897008961361
51
201.29646523800008
0
ARC
5
278
100
AcDbEntity
8
0
100
AcDbCircle
10
-50.075712445667591
20
5.4449147386799019
30
0
40
0.19999999999999929
210
0
220
0
230
1
100
AcDbArc
50
-95.978102991035868
51
27.296465237999421
0
LINE
5
279
100
AcDbEntity
8
0
100
AcDbLine
10
-52.630772853349072
20
10.832117925409037
30
0
11
-49.897983340359851
21
5.5366336850678231
31
0
0
LINE
5
280
100
AcDbEntity
8
0
100
AcDbLine
10
-50.096542120534522
20
5.2460023845011392
30
0
11
-53.28672269246556
21
5.5800712479183492
31
0
0
ARC
5
281
100
AcDbEntity
8
0
100
AcDbCircle
10
-52.453043748041324
20
10.923836871796958
30
0
40
0.20000000000000059
210
0
220
-0
230
1
100
AcDbArc
50
78.021897008963208
51
207.29646523799849
0
ARC
5
282
100
AcDbEntity
8
0
100
AcDbCircle
10
-50.370541023639575
20
0.18074965705205281
30
0
40
0.20000000000000015
210
0
220
0
230
1
100
AcDbArc
50
-89.978102991039137
51
33.296465237999165
0
LINE
5
283
100
AcDbEntity
8
0
100
AcDbLine
10
-53.474720613486788
20
5.2713646430809433
30
0
11
-50.203372777485271
21
0.29054390771070138
31
0
0
LINE
5
284
100
AcDbEntity
8
0
100
AcDbLine
10
-50.370464588660894
20
-0.019250328342181877
30
0
11
-53.578088722543342
21
-0.020476201843246944
31
0
0
ARC
5
285
100
AcDbEntity
8
0
100
AcDbCircle
10
-53.307552367332477
20
5.3811588937395927
30
0
40
0.20000000000000129
210
0
220
-0
230
1
100
AcDbArc
50
84.021897008962156
51
213.29646523799823
0
ARC
5
286
100
AcDbEntity
8
0
100
AcDbCircle
10
-50.113499413443201
20
-5.0853957556427947
30
0
40
0.1999999999999999
210
0
220
0
230
1
100
AcDbArc
50
-83.978102991037275
51
39.296465237999058
0
LINE
5
287
100
AcDbEntity
8
0
100
AcDbLine
10
-53.732788144278452
20
-0.34714281338075076
30
0
11
-49.958723556729403
21
-4.9587291294995577
31
0
0
LINE
5
288
100
AcDbEntity
8
0
100
AcDbLine
10
-50.092517706056512
20
-5.2842921305598338
30
0
11
-53.282442000641083
21
-5.6207993100525675
31
0
0
ARC
5
289
100
AcDbEntity
8
0
100
AcDbCircle
10
-53.578012287564654
20
-0.22047618723751408
30
0
40
0.20000000000000212
210
0
220
0
230
1
100
AcDbArc
50
90.021897008962924
51
219.296465237999
0
ARC
5
290
100
AcDbEntity
8
0
100
AcDbCircle
10
-49.307403816749201
20
-10.295824508251306
30
0
40
0.20000000000000087
210
0
220
0
230
1
100
AcDbArc
50
-77.978102991038156
51
45.296465237999151
0
LINE
5
291
100
AcDbEntity
8
0
100
AcDbLine
10
-53.402148003852588
20
-5.9618469005347059
30
0
11
-49.166716106151
21
-10.153673292686204
31
0
0
LINE
5
292
100
AcDbEntity
8
0
100
AcDbLine
10
-49.265746716931346
20
-10.491438122385816
30
0
11
-52.403021694111985
21
-11.159539764793042
31
0
0
ARC
5
293
100
AcDbEntity
8
0
100
AcDbCircle
10
-53.261460293254395
20
-5.8196956849696022
30
0
40
0.20000000000000209
210
0
220
0
230
1
100
AcDbArc
50
96.021897008962668
51
225.29646523800093
0
ARC
5
294
100
AcDbEntity
8
0
100
AcDbCircle
10
-47.961085985601301
20
-15.393450053007619
30
0
40
0.19999999999999948
210
0
220
0
230
1
100
AcDbArc
50
-71.978102991037957
51
51.296465237996983
0
LINE
5
295
100
AcDbEntity
8
0
100
AcDbLine
10
-52.486422754778623
20
-11.511231745449724
30
0
11
-47.836027825116794
21
-15.237371686485435
31
0
0
LINE
5
296
100
AcDbEntity
8
0
100
AcDbLine
10
-47.89920989725519
20
-15.583637722668364
30
0
11
-50.949462915864913
21
-16.576013966586608
31
0
0
ARC
5
297
100
AcDbEntity
8
0
100
AcDbCircle
10
-52.36136459429413
20
-11.355153378927538
30
0
40
0.20000000000000118
210
0
220
0
230
1
100
AcDbArc
50
102.02189700895968
51
231.29646523800045
0
ARC
5
298
100
AcDbEntity
8
0
100
AcDbCircle
10
-46.089296459892665
20
-20.3224217376967
30
0
40
0.19999999999999921
210
0
220
0
230
1
100
AcDbArc
50
-65.978102991037176
51
57.296465237998547
0
LINE
5
299
100
AcDbEntity
8
0
100
AcDbLine
10
-50.995645274513215
20
-16.934497126481528
30
0
11
-45.981238012898238
21
-20.154126247462546
31
0
0
LINE
5
300
100
AcDbEntity
8
0
100
AcDbLine
10
-46.007879310390621
20
-20.505099726975544
30
0
11
-48.937691160051067
21
-21.81087789060836
31
0
0
ARC
5
301
100
AcDbEntity
8
0
100
AcDbCircle
10
-50.887586827518788
20
-16.766201636247374
30
0
40
0.20000000000000642
210
0
220
0
230
1
100
AcDbArc
50
108.0218970089617
51
237.29646523799855
0
ARC
5
302
100
AcDbEntity
8
0
100
AcDbCircle
10
-43.712542957364121
20
-25.028736717087394
30
0
40
0.19999999999999474
210
0
220
0
230
1
100
AcDbArc
50
-59.978102991039172
51
63.296465237999776
0
LINE
5
303
100
AcDbEntity
8
0
100
AcDbLine
10
-48.946148833095421
20
-22.172224613224216
30
0
11
-43.622668134817729
21
-24.850067983750375
31
0
0
LINE
5
304
100
AcDbEntity
8
0
100
AcDbLine
10
-43.61247677003373
20
-25.201903567705976
30
0
11
-46.389747819017451
21
-26.806777272240954
31
0
0
ARC
5
305
100
AcDbEntity
8
0
100
AcDbCircle
10
-48.856274010549015
20
-21.993555879887197
30
0
40
0.20000000000000284
210
0
220
0
230
1
100
AcDbArc
50
114.02189700896473
51
243.29646523799613
0
ARC
5
306
100
AcDbEntity
8
0
100
AcDbCircle
10
-40.85686568675699
20
-29.460831619405798
30
0
40
0.19999999999999771
210
0
220
0
230
1
100
AcDbArc
50
-53.97810299103822
51
69.296465238000692
0
LINE
5
307
100
AcDbEntity
8
0
100
AcDbLine
10
-46.360388142422089
20
-27.167028567268133
30
0
11
-40.786159176021968
21
-29.273747174997197
31
0
0
LINE
5
308
100
AcDbEntity
8
0
100
AcDbLine
10
-40.739246807686833
20
-29.622590079111241
30
0
11
-43.333548693199859
21
-31.508975992400089
31
0
0
ARC
5
309
100
AcDbEntity
8
0
100
AcDbCircle
10
-46.28968163168706
20
-26.979944122859525
30
0
40
0.19999999999999857
210
0
220
0
230
1
100
AcDbArc
50
120.02189700895853
51
249.29646523799948
0
ARC
5
310
100
AcDbEntity
8
0
100
AcDbCircle
10
-37.553552045836931
20
-33.570147485426666
30
0
40
0.19999999999999987
210
0
220
0
230
1
100
AcDbArc
50
-47.97810299103763
51
75.296465238002042
0
LINE
5
311
100
AcDbEntity
8
0
100
AcDbLine
10
-43.266693337725435
20
-31.864184871262886
30
0
11
-37.502788522241175
21
-33.376697066269344
31
0
0
LINE
5
312
100
AcDbEntity
8
0
100
AcDbLine
10
-37.419669132079427
20
-33.718725294684312
30
0
11
-39.802578139771491
21
-35.865955777909392
31
0
0
ARC
5
313
100
AcDbEntity
8
0
100
AcDbCircle
10
-43.215929814129666
20
-31.670734452105563
30
0
40
0.20000000000000129
210
0
220
0
230
1
100
AcDbArc
50
126.02189700896226
51
255.29646523799809
0
ARC
5
314
100
AcDbEntity
8
0
100
AcDbCircle
10
-33.838793830116728
20
-37.311661790592169
30
0
40
0.19999999999999907
210
0
220
0
230
1
100
AcDbArc
50
-41.978102991036728
51
81.296465238000422
0
LINE
5
315
100
AcDbEntity
8
0
100
AcDbLine
10
-39.698959586683038
20
-36.212230497798664
30
0
11
-33.808529469447699
21
-37.113964879960527
31
0
0
LINE
5
316
100
AcDbEntity
8
0
100
AcDbLine
10
-33.690113730891809
20
-37.445431099831879
30
0
11
-35.835522211018883
21
-39.829980646482127
31
0
0
ARC
5
317
100
AcDbEntity
8
0
100
AcDbCircle
10
-39.668695226014002
20
-36.014533587167023
30
0
40
0.20000000000000018
210
0
220
0
230
1
100
AcDbArc
50
132.02189700896241
51
261.2964652379984
0
ARC
5
318
100
AcDbEntity
8
0
100
AcDbCircle
10
-29.753290707970912
20
-40.644381721212753
30
0
40
0.19999999999999615
210
0
220
0
230
1
100
AcDbArc
50
-35.978102991036849
51
87.296465237999769
0
LINE
5
319
100
AcDbEntity
8
0
100
AcDbLine
10
-35.696275726867562
20
-40.163527349104172
30
0
11
-29.743857092897326
21
-40.444604327830412
31
0
0
LINE
5
320
100
AcDbEntity
8
0
100
AcDbLine
10
-29.591442393559007
20
-40.761876925889467
30
0
11
-31.47584480185721
21
-43.357619912132705
31
0
0
ARC
5
321
100
AcDbEntity
8
0
100
AcDbCircle
10
-35.686842111793972
20
-39.963749955721831
30
0
40
0.20000000000000503
210
0
220
0
230
1
100
AcDbArc
50
138.02189700896176
51
267.29646523799875
0
ARC
5
322
100
AcDbEntity
8
0
100
AcDbCircle
10
-25.341804306552163
20
-43.531793300312088
30
0
40
0.19999999999999599
210
0
220
0
230
1
100
AcDbArc
50
-29.978102991036355
51
93.296465237999556
0
LINE
5
323
100
AcDbEntity
8
0
100
AcDbLine
10
-31.302496000262554
20
-43.674784190014492
30
0
11
-25.353304793734878
21
-43.332124227107045
31
0
0
LINE
5
324
100
AcDbEntity
8
0
100
AcDbLine
10
-25.1685610209549
20
-43.631727098375919
30
0
11
-26.771311450302374
21
-46.410224020860724
31
0
0
ARC
5
325
100
AcDbEntity
8
0
100
AcDbCircle
10
-31.313996487445273
20
-43.475115116809448
30
0
40
0.20000000000000134
210
0
220
0
230
1
100
AcDbArc
50
144.02189700895985
51
273.29646523800056
0
ARC
5
326
100
AcDbEntity
8
0
100
AcDbCircle
10
-20.652667794037392
20
-45.942261442399769
30
0
40
0.19999999999999724
210
0
220
0
230
1
100
AcDbArc
50
-23.978102991035612
51
99.296465237998987
0
LINE
5
327
100
AcDbEntity
8
0
100
AcDbLine
10
-26.565759577010304
20
-46.70753095580281
30
0
11
-20.684976381732202
21
-45.744888305521499
31
0
0
LINE
5
328
100
AcDbEntity
8
0
100
AcDbLine
10
-20.469927626945257
20
-46.023538938246638
30
0
11
-21.773466008240984
21
-48.954348003252406
31
0
0
ARC
5
329
100
AcDbEntity
8
0
100
AcDbCircle
10
-26.598068164705118
20
-46.51015781892454
30
0
40
0.19999999999999984
210
0
220
0
230
1
100
AcDbArc
50
150.02189700896415
51
279.29646523800005
0
ARC
5
330
100
AcDbEntity
8
0
100
AcDbCircle
10
-15.737256331322559
20
-47.849376554088245
30
0
40
0.1999999999999979
210
0
220
0
230
1
100
AcDbArc
50
-17.978102991037002
51
105.29646523800008
0
LINE
5
331
100
AcDbEntity
8
0
100
AcDbLine
10
-21.537963132589745
20
-49.228540238260138
30
0
11
-15.790019039881679
21
-47.656461814927376
31
0
0
LINE
5
332
100
AcDbEntity
8
0
100
AcDbLine
10
-15.54702142224706
20
-47.91110725446525
30
0
11
-16.537065916202618
21
-50.962117904564543
31
0
0
ARC
5
333
100
AcDbEntity
8
0
100
AcDbCircle
10
-21.59072584114886
20
-49.035625499099275
30
0
40
0.20000000000000445
210
0
220
0
230
1
100
AcDbArc
50
156.02189700896068
51
285.29646523799914
0
ARC
5
334
100
AcDbEntity
8
0
100
AcDbCircle
10
-10.649424195009111
20
-49.232243883124355
30
0
40
0.20000000000000243
210
0
220
0
230
1
100
AcDbArc
50
-11.978102991040782
51
111.2964652380013
0
LINE
5
335
100
AcDbEntity
8
0
100
AcDbLine
10
-16.274192256979937
20
-51.210191332132773
30
0
11
-10.722062945156255
21
-49.045901155933151
31
0
0
LINE
5
336
100
AcDbEntity
8
0
100
AcDbLine
10
-10.453778797423288
20
-49.273751453560195
30
0
11
-11.11948226938277
21
-52.411536177605512
31
0
0
ARC
5
337
100
AcDbEntity
8
0
100
AcDbCircle
10
-16.346831007127083
20
-51.023848604941563
30
0
40
0.20000000000000279
210
0
220
0
230
1
100
AcDbArc
50
162.02189700896139
51
291.29646523800102
0
ARC
5
338
100
AcDbEntity
8
0
100
AcDbCircle
10
-5.4449147386799019
20
-50.075712445667591
30
0
40
0.19999999999999929
210
0
220
0
230
1
100
AcDbArc
50
-5.9781029910358638
51
117.29646523799944
0
LINE
5
339
100
AcDbEntity
8
0
100
AcDbLine
10
-10.832117925409037
20
-52.630772853349072
30
0
11
-5.5366336850678231
21
-49.897983340359851
31
0
0
LINE
5
340
100
AcDbEntity
8
0
100
AcDbLine
10
-5.2460023845011392
20
-50.096542120534522
30
0
11
-5.5800712479183492
21
-53.28672269246556
31
0
0
ARC
5
341
100
AcDbEntity
8
0
100
AcDbCircle
10
-10.923836871796958
20
-52.453043748041324
30
0
40
0.20000000000000059
210
0
220
0
230
1
100
AcDbArc
50
168.02189700896324
51
297.29646523799846
0
ARC
5
342
100
AcDbEntity
8
0
100
AcDbCircle
10
-0.18074965705205726
20
-50.370541023639575
30
0
40
0.20000000000000015
210
0
220
-0
230
1
100
AcDbArc
50
0.021897008955992225
51
123.29646523800044
0
LINE
5
343
100
AcDbEntity
8
0
100
AcDbLine
10
-5.2713646430809504
20
-53.474720613486795
30
0
11
-0.29054390771070637
21
-50.203372777485278
31
0
0
LINE
5
344
100
AcDbEntity
8
0
100
AcDbLine
10
0.019250328342177436
20
-50.370464588660894
30
0
11
0.020476201843242503
21
-53.578088722543349
31
0
0
ARC
5
345
100
AcDbEntity
8
0
100
AcDbCircle
10
-5.381158893739598
20
-53.307552367332491
30
0
40
0.2000000000000024
210
0
220
0
230
1
100
AcDbArc
50
174.02189700896017
51
303.29646523799892
0
ENDSEC
0
SECTION
2
OBJECTS
0
DICTIONARY
5
C
100
AcDbDictionary
3
ACAD_GROUP
350
D
3
ACAD_MLINESTYLE
350
17
0
DICTIONARY
5
D
100
AcDbDictionary
0
DICTIONARY
5
1A
330
C
100
AcDbDictionary
0
DICTIONARY
5
17
100
AcDbDictionary
0
ENDSEC
0
EOF
