%TF.GenerationSoftware,KiCad,Pcbnew,(5.1.6)-1*%
%TF.CreationDate,2024-01-06T07:46:22-05:00*%
%TF.ProjectId,pcb,7063622e-6b69-4636-9164-5f7063625858,rev?*%
%TF.SameCoordinates,Original*%
%TF.FileFunction,Copper,L2,Bot*%
%TF.FilePolarity,Positive*%
%FSLAX46Y46*%
G04 Gerber Fmt 4.6, Leading zero omitted, Abs format (unit mm)*
G04 Created by KiCad (PCBNEW (5.1.6)-1) date 2024-01-06 07:46:22*
%MOMM*%
%LPD*%
G01*
G04 APERTURE LIST*
%TA.AperFunction,ComponentPad*%
%ADD10C,2.200000*%
%TD*%
%TA.AperFunction,ComponentPad*%
%ADD11C,2.000000*%
%TD*%
%TA.AperFunction,ViaPad*%
%ADD12C,2.200000*%
%TD*%
%TA.AperFunction,Conductor*%
%ADD13C,2.200000*%
%TD*%
%TA.AperFunction,Conductor*%
%ADD14C,1.500000*%
%TD*%
%TA.AperFunction,Conductor*%
%ADD15C,0.250000*%
%TD*%
G04 APERTURE END LIST*
D10*
%TO.P,Q4,2*%
%TO.N,Net-(Q4-Pad2)*%
X24130000Y67310000D03*
%TO.P,Q4,3*%
%TO.N,GND*%
X21590000Y67310000D03*
%TO.P,Q4,1*%
%TO.N,Net-(Q3-Pad1)*%
X26670000Y67310000D03*
%TD*%
%TO.P,U2,30*%
%TO.N,+3V3*%
X34274000Y11398000D03*
%TO.P,U2,29*%
%TO.N,GND*%
X34274000Y13938000D03*
%TO.P,U2,28*%
%TO.N,Net-(U2-Pad28)*%
X34274000Y16478000D03*
%TO.P,U2,27*%
%TO.N,Net-(U2-Pad27)*%
X34274000Y19018000D03*
%TO.P,U2,26*%
%TO.N,Net-(U2-Pad26)*%
X34274000Y21558000D03*
%TO.P,U2,25*%
%TO.N,SW1*%
X34274000Y24098000D03*
%TO.P,U2,24*%
%TO.N,SW2*%
X34274000Y26638000D03*
%TO.P,U2,23*%
%TO.N,Net-(U2-Pad23)*%
X34274000Y29178000D03*
%TO.P,U2,22*%
%TO.N,Net-(U2-Pad22)*%
X34274000Y31718000D03*
%TO.P,U2,21*%
%TO.N,Net-(U2-Pad21)*%
X34274000Y34258000D03*
%TO.P,U2,20*%
%TO.N,SDA*%
X34274000Y36798000D03*
%TO.P,U2,19*%
%TO.N,Net-(U2-Pad19)*%
X34274000Y39338000D03*
%TO.P,U2,18*%
%TO.N,Net-(U2-Pad18)*%
X34274000Y41878000D03*
%TO.P,U2,17*%
%TO.N,SCL*%
X34274000Y44418000D03*
%TO.P,U2,16*%
%TO.N,LEDS*%
X34274000Y46958000D03*
%TO.P,U2,15*%
%TO.N,Net-(U2-Pad15)*%
X8874000Y46958000D03*
%TO.P,U2,14*%
%TO.N,Net-(U2-Pad14)*%
X8874000Y44418000D03*
%TO.P,U2,13*%
%TO.N,S5V*%
X8874000Y41878000D03*
%TO.P,U2,12*%
%TO.N,SBUS*%
X8874000Y39338000D03*
%TO.P,U2,11*%
%TO.N,SBAT*%
X8874000Y36798000D03*
%TO.P,U2,10*%
%TO.N,Net-(U2-Pad10)*%
X8874000Y34258000D03*
%TO.P,U2,9*%
%TO.N,Net-(U2-Pad9)*%
X8874000Y31718000D03*
%TO.P,U2,8*%
%TO.N,Net-(U2-Pad8)*%
X8874000Y29178000D03*
%TO.P,U2,7*%
%TO.N,PWM1*%
X8874000Y26638000D03*
%TO.P,U2,6*%
%TO.N,PWM2*%
X8874000Y24098000D03*
%TO.P,U2,5*%
%TO.N,Net-(U2-Pad5)*%
X8874000Y21558000D03*
%TO.P,U2,4*%
%TO.N,Net-(U2-Pad4)*%
X8874000Y19018000D03*
%TO.P,U2,3*%
%TO.N,Net-(U2-Pad3)*%
X8874000Y16478000D03*
%TO.P,U2,2*%
%TO.N,GND*%
X8874000Y13938000D03*
%TO.P,U2,1*%
%TO.N,+5V*%
X8874000Y11398000D03*
%TD*%
%TO.P,R1,1*%
%TO.N,SBAT*%
X12700000Y36830000D03*
%TO.P,R1,2*%
%TO.N,VBAT*%
X12700000Y44450000D03*
%TD*%
%TO.P,R4,1*%
%TO.N,S5V*%
X17764000Y36798000D03*
%TO.P,R4,2*%
%TO.N,+5V*%
X17764000Y44418000D03*
%TD*%
%TO.P,R6,1*%
%TO.N,SBUS*%
X15240000Y36830000D03*
%TO.P,R6,2*%
%TO.N,VBUS*%
X15240000Y44450000D03*
%TD*%
%TO.P,J5,4*%
%TO.N,SDA*%
X44450000Y59690000D03*
%TO.P,J5,3*%
%TO.N,SCL*%
X41910000Y59690000D03*
%TO.P,J5,2*%
%TO.N,GND*%
X39370000Y59690000D03*
%TO.P,J5,1*%
%TO.N,+3V3*%
X36830000Y59690000D03*
%TD*%
%TO.P,C1,1*%
%TO.N,+5V*%
X21590000Y80010000D03*
%TO.P,C1,2*%
%TO.N,GND*%
X25390000Y80010000D03*
%TD*%
%TO.P,J8,1*%
%TO.N,GND*%
X39370000Y67310000D03*
%TO.P,J8,2*%
%TO.N,LEDS*%
X36830000Y67310000D03*
%TO.P,J8,3*%
%TO.N,+5V*%
X34290000Y67310000D03*
%TD*%
%TO.P,R3,2*%
%TO.N,GND*%
X12700000Y25400000D03*
%TO.P,R3,1*%
%TO.N,SBAT*%
X12700000Y33020000D03*
%TD*%
%TO.P,R5,2*%
%TO.N,GND*%
X17764000Y25368000D03*
%TO.P,R5,1*%
%TO.N,S5V*%
X17764000Y32988000D03*
%TD*%
%TO.P,R7,2*%
%TO.N,GND*%
X15240000Y25368000D03*
%TO.P,R7,1*%
%TO.N,SBUS*%
X15240000Y32988000D03*
%TD*%
%TO.P,J1,1*%
%TO.N,GND*%
X10160000Y59690000D03*
%TO.P,J1,2*%
%TO.N,VBAT*%
X12700000Y59690000D03*
%TO.P,J1,3*%
%TO.N,VBUS*%
X15240000Y59690000D03*
%TO.P,J1,4*%
%TO.N,+5V*%
X17780000Y59690000D03*
%TD*%
D11*
%TO.P,SW1,*%
%TO.N,*%
X41644000Y38048000D03*
X41644000Y31038000D03*
X42244000Y38048000D03*
D10*
%TO.P,SW1,1*%
%TO.N,SW1*%
X44434000Y36798000D03*
%TO.P,SW1,2*%
%TO.N,GND*%
X44434000Y32298000D03*
D11*
%TO.P,SW1,*%
%TO.N,*%
X42244000Y31038000D03*
%TD*%
%TO.P,SW2,*%
%TO.N,*%
X42244000Y43103000D03*
D10*
%TO.P,SW2,2*%
%TO.N,SW2*%
X44434000Y44363000D03*
%TO.P,SW2,1*%
%TO.N,GND*%
X44434000Y48863000D03*
D11*
%TO.P,SW2,*%
%TO.N,*%
X42244000Y50113000D03*
X41644000Y43103000D03*
X41644000Y50113000D03*
%TD*%
D10*
%TO.P,D1,1*%
%TO.N,COIL1+*%
X20320000Y86360000D03*
%TO.P,D1,2*%
%TO.N,GND*%
X27940000Y86360000D03*
%TD*%
%TO.P,Q1,2*%
%TO.N,Net-(Q1-Pad2)*%
X7620000Y71120000D03*
%TO.P,Q1,3*%
%TO.N,GND*%
X7620000Y68580000D03*
%TO.P,Q1,1*%
%TO.N,Net-(Q1-Pad1)*%
X7620000Y73660000D03*
%TD*%
%TO.P,Q2,1*%
%TO.N,Net-(Q1-Pad1)*%
X8890000Y77470000D03*
%TO.P,Q2,2*%
%TO.N,COIL1+*%
X8890000Y80010000D03*
%TO.P,Q2,3*%
%TO.N,+5V*%
X8890000Y82550000D03*
%TD*%
%TO.P,R2,1*%
%TO.N,+5V*%
X22860000Y44450000D03*
%TO.P,R2,2*%
%TO.N,SCL*%
X30480000Y44450000D03*
%TD*%
%TO.P,R8,2*%
%TO.N,Net-(Q1-Pad2)*%
X13970000Y73660000D03*
%TO.P,R8,1*%
%TO.N,PWM1*%
X13970000Y66040000D03*
%TD*%
%TO.P,R9,1*%
%TO.N,Net-(Q1-Pad1)*%
X11430000Y74930000D03*
%TO.P,R9,2*%
%TO.N,+5V*%
X11430000Y82550000D03*
%TD*%
%TO.P,C2,1*%
%TO.N,+3V3*%
X30480000Y11430000D03*
%TO.P,C2,2*%
%TO.N,GND*%
X26680000Y11430000D03*
%TD*%
%TO.P,J4,1*%
%TO.N,GND*%
X24130000Y90170000D03*
%TO.P,J4,2*%
%TO.N,Net-(J4-Pad2)*%
X24130000Y92710000D03*
%TD*%
%TO.P,J6,2*%
%TO.N,COIL1+*%
X21590000Y90170000D03*
%TO.P,J6,1*%
%TO.N,Net-(J4-Pad2)*%
X21590000Y92710000D03*
%TD*%
%TO.P,D2,1*%
%TO.N,COIL2+*%
X30480000Y90170000D03*
%TO.P,D2,2*%
%TO.N,GND*%
X30480000Y82550000D03*
%TD*%
%TO.P,J2,1*%
%TO.N,GND*%
X26670000Y90170000D03*
%TO.P,J2,2*%
%TO.N,COIL2+*%
X26670000Y92710000D03*
%TD*%
%TO.P,Q3,1*%
%TO.N,Net-(Q3-Pad1)*%
X38100000Y76200000D03*
%TO.P,Q3,2*%
%TO.N,COIL2+*%
X38100000Y78740000D03*
%TO.P,Q3,3*%
%TO.N,+5V*%
X38100000Y81280000D03*
%TD*%
%TO.P,R10,1*%
%TO.N,Net-(Q3-Pad1)*%
X26670000Y71120000D03*
%TO.P,R10,2*%
%TO.N,+5V*%
X19050000Y71120000D03*
%TD*%
%TO.P,R11,2*%
%TO.N,Net-(Q4-Pad2)*%
X24130000Y62230000D03*
%TO.P,R11,1*%
%TO.N,PWM2*%
X24130000Y54610000D03*
%TD*%
D12*
%TO.N,+3V3*%
X27940000Y48260000D03*
X36830000Y53488328D03*
%TO.N,COIL1+*%
X16510000Y90170000D03*
X16510000Y76200000D03*
X16510000Y76200000D03*
X16510000Y76200000D03*
%TO.N,PWM1*%
X10160000Y66040000D03*
X6382000Y26638000D03*
%TO.N,COIL2+*%
X34290000Y78740000D03*
X33020000Y90170000D03*
%TO.N,PWM2*%
X12700000Y21827634D03*
X20320000Y50800000D03*
%TD*%
D13*
%TO.N,+5V*%
X8874000Y11398000D02*
X10429634Y11398000D01*
X10429634Y11398000D02*
X20180009Y21148375D01*
X20008018Y44418000D02*
X20180009Y44589991D01*
X17764000Y44418000D02*
X20008018Y44418000D01*
X20180009Y21148375D02*
X20180009Y44589991D01*
X20180009Y44589991D02*
X22720009Y44589991D01*
X22720009Y44589991D02*
X22860000Y44450000D01*
X17780000Y59690000D02*
X17780000Y44450000D01*
X17780000Y59690000D02*
X18910001Y60820001D01*
X19050000Y80010000D02*
X18910001Y79870001D01*
X21590000Y80010000D02*
X19050000Y80010000D01*
X38100000Y81280000D02*
X33020000Y81280000D01*
X25260001Y73520001D02*
X18910001Y73520001D01*
X33020000Y81280000D02*
X25260001Y73520001D01*
X18910001Y60820001D02*
X18910001Y73520001D01*
X34290000Y68865634D02*
X40640000Y75215634D01*
X34290000Y67310000D02*
X34290000Y68865634D01*
X40640000Y80295634D02*
X39655634Y81280000D01*
X40640000Y75215634D02*
X40640000Y80295634D01*
X39655634Y81280000D02*
X38100000Y81280000D01*
X11430000Y82550000D02*
X15240000Y78740000D01*
X17780000Y78740000D02*
X18910001Y77609999D01*
X15240000Y78740000D02*
X17780000Y78740000D01*
X18910001Y73520001D02*
X18910001Y77609999D01*
X18910001Y77609999D02*
X18910001Y79870001D01*
X8890000Y82550000D02*
X11430000Y82550000D01*
%TO.N,+3V3*%
X27940000Y46990000D02*
X27940000Y40640000D01*
X34274000Y11398000D02*
X30512000Y11398000D01*
X30512000Y11398000D02*
X30480000Y11430000D01*
X30480000Y38100000D02*
X27940000Y40640000D01*
X30480000Y11430000D02*
X30480000Y38100000D01*
X27940000Y46990000D02*
X27940000Y48260000D01*
X36830000Y59690000D02*
X36830000Y53488328D01*
X27940000Y48260000D02*
X27940000Y48260000D01*
X36830000Y53488328D02*
X36830000Y53488328D01*
D14*
%TO.N,SDA*%
X38530010Y44714199D02*
X37529644Y43713833D01*
X37529644Y43713833D02*
X36324001Y42508190D01*
X36324001Y38353999D02*
X34800002Y36830000D01*
X36324001Y42508190D02*
X36324001Y38353999D01*
X34800002Y36830000D02*
X34290000Y36830000D01*
X38530010Y44714199D02*
X38530010Y44880010D01*
X38530010Y44880010D02*
X39370000Y45720000D01*
X39370000Y50725002D02*
X44450000Y55805002D01*
X39370000Y45720000D02*
X39370000Y50725002D01*
X44450000Y55805002D02*
X44450000Y59690000D01*
D13*
%TO.N,SCL*%
X30480000Y44450000D02*
X34290000Y44450000D01*
D14*
X35829634Y44418000D02*
X36830000Y45418366D01*
X34274000Y44418000D02*
X35829634Y44418000D01*
X41910000Y59690000D02*
X41910000Y55880000D01*
X41910000Y55669178D02*
X37669991Y51429169D01*
X41910000Y55880000D02*
X41910000Y55669178D01*
X37669991Y51429169D02*
X37669991Y46424168D01*
X37669991Y46424168D02*
X35695823Y44450000D01*
X35695823Y44450000D02*
X34290000Y44450000D01*
D13*
%TO.N,LEDS*%
X34274000Y46958000D02*
X34274000Y53356000D01*
X34274000Y53356000D02*
X34290000Y53372000D01*
X34290000Y53372000D02*
X34290000Y60702002D01*
X34290000Y60702002D02*
X34290000Y60960000D01*
X34290000Y60960000D02*
X36830000Y63500000D01*
X36830000Y63500000D02*
X36830000Y67310000D01*
D14*
%TO.N,SW1*%
X35829634Y24098000D02*
X36324001Y24592367D01*
X34274000Y24098000D02*
X35829634Y24098000D01*
X36324001Y25789822D02*
X38024011Y27489832D01*
X36324001Y24592367D02*
X36324001Y25789822D01*
X38024011Y27489832D02*
X38024011Y32944011D01*
X38024011Y32944011D02*
X39370000Y34290000D01*
X39370000Y34290000D02*
X41910000Y34290000D01*
X41910000Y34290000D02*
X44450000Y36830000D01*
%TO.N,SW2*%
X44434000Y44363000D02*
X44434000Y41926000D01*
X43937002Y41910000D02*
X42667002Y40640000D01*
X44434000Y41926000D02*
X44418000Y41910000D01*
X44418000Y41910000D02*
X43937002Y41910000D01*
X41014179Y40640000D02*
X37028168Y36653989D01*
X42667002Y40640000D02*
X41014179Y40640000D01*
X37028168Y36653989D02*
X36324001Y35949823D01*
X36324001Y28193999D02*
X34800002Y26670000D01*
X36324001Y35949823D02*
X36324001Y28193999D01*
X34800002Y26670000D02*
X34290000Y26670000D01*
D13*
%TO.N,VBUS*%
X15240000Y44450000D02*
X15240000Y59690000D01*
%TO.N,VBAT*%
X12700000Y44450000D02*
X12700000Y59690000D01*
D14*
%TO.N,SBUS*%
X8922000Y39338000D02*
X8874000Y39338000D01*
D13*
X15240000Y32988000D02*
X15240000Y36830000D01*
D14*
X8922000Y39338000D02*
X9411990Y38848010D01*
X9411990Y38848010D02*
X11684008Y38848010D01*
X11715999Y38880001D02*
X13684001Y38880001D01*
X11684008Y38848010D02*
X11715999Y38880001D01*
X13684001Y38880001D02*
X15240000Y37324002D01*
X15240000Y37324002D02*
X15240000Y36830000D01*
%TO.N,S5V*%
X17780000Y37189151D02*
X17780000Y36830000D01*
D13*
X17764000Y33036000D02*
X17780000Y33020000D01*
X17764000Y32988000D02*
X17764000Y36814000D01*
X17764000Y36814000D02*
X17780000Y36830000D01*
D14*
X8874000Y41878000D02*
X9368002Y41878000D01*
X9368002Y41878000D02*
X10697982Y40548020D01*
X10697982Y40548020D02*
X10789962Y40640000D01*
X10769600Y40551100D02*
X13949638Y40551100D01*
X14329151Y40640000D02*
X17780000Y37189151D01*
X13970000Y40640000D02*
X14329151Y40640000D01*
D13*
%TO.N,SBAT*%
X8874000Y36798000D02*
X12668000Y36798000D01*
X12668000Y36798000D02*
X12700000Y36830000D01*
X12700000Y36830000D02*
X12700000Y33020000D01*
%TO.N,Net-(Q1-Pad2)*%
X12284126Y71120000D02*
X13830010Y72665884D01*
X7620000Y71120000D02*
X12284126Y71120000D01*
%TO.N,Net-(Q1-Pad1)*%
X11430000Y73660000D02*
X11430000Y74930000D01*
X8890000Y74930000D02*
X10160000Y73660000D01*
X7620000Y73660000D02*
X10160000Y73660000D01*
X8890000Y77470000D02*
X8890000Y74930000D01*
X10160000Y73660000D02*
X11430000Y73660000D01*
%TO.N,Net-(J4-Pad2)*%
X21590000Y92710000D02*
X24130000Y92710000D01*
%TO.N,COIL1+*%
X8890000Y80010000D02*
X10160000Y80010000D01*
X10160000Y80010000D02*
X13970000Y76200000D01*
X13970000Y76200000D02*
X16510000Y76200000D01*
X16510000Y90170000D02*
X21590000Y90170000D01*
X20320000Y88900000D02*
X21590000Y90170000D01*
X20320000Y86360000D02*
X20320000Y88900000D01*
X16510000Y76200000D02*
X16510000Y76200000D01*
X16510000Y76200000D02*
X16510000Y76200000D01*
X16510000Y76200000D02*
X16510000Y76200000D01*
%TO.N,PWM1*%
X8874000Y26638000D02*
X8874000Y26686000D01*
X8874000Y26638000D02*
X6382000Y26638000D01*
X6382000Y26638000D02*
X6382000Y26638000D01*
X13970000Y66040000D02*
X10160000Y66040000D01*
%TO.N,COIL2+*%
X38100000Y78740000D02*
X34290000Y78740000D01*
X26670000Y92710000D02*
X29210000Y92710000D01*
X29210000Y92710000D02*
X30480000Y91440000D01*
X30480000Y91440000D02*
X30480000Y90170000D01*
X30480000Y90170000D02*
X33020000Y90170000D01*
X34290000Y78740000D02*
X34290000Y78740000D01*
X33020000Y90170000D02*
X33020000Y90170000D01*
%TO.N,Net-(Q3-Pad1)*%
X26670000Y67310000D02*
X26670000Y71120000D01*
X26670000Y71120000D02*
X31750000Y76200000D01*
X31750000Y76200000D02*
X38100000Y76200000D01*
%TO.N,Net-(Q4-Pad2)*%
X24130000Y62230000D02*
X24130000Y67310000D01*
%TO.N,PWM2*%
X10429634Y24098000D02*
X12700000Y21827634D01*
X8874000Y24098000D02*
X10429634Y24098000D01*
X12700000Y21827634D02*
X12700000Y21827634D01*
X24130000Y54610000D02*
X20320000Y50800000D01*
X20320000Y50800000D02*
X20320000Y50800000D01*
%TD*%
D15*
%TO.N,GND*%
G36*
X47860001Y400000D02*
G01*
X400000Y400000D01*
X400000Y4004521D01*
X1835000Y4004521D01*
X1835000Y3615479D01*
X1910898Y3233914D01*
X2059778Y2874487D01*
X2275917Y2551011D01*
X2551011Y2275917D01*
X2874487Y2059778D01*
X3233914Y1910898D01*
X3615479Y1835000D01*
X4004521Y1835000D01*
X4386086Y1910898D01*
X4745513Y2059778D01*
X5068989Y2275917D01*
X5344083Y2551011D01*
X5560222Y2874487D01*
X5709102Y3233914D01*
X5785000Y3615479D01*
X5785000Y4004521D01*
X42475000Y4004521D01*
X42475000Y3615479D01*
X42550898Y3233914D01*
X42699778Y2874487D01*
X42915917Y2551011D01*
X43191011Y2275917D01*
X43514487Y2059778D01*
X43873914Y1910898D01*
X44255479Y1835000D01*
X44644521Y1835000D01*
X45026086Y1910898D01*
X45385513Y2059778D01*
X45708989Y2275917D01*
X45984083Y2551011D01*
X46200222Y2874487D01*
X46349102Y3233914D01*
X46425000Y3615479D01*
X46425000Y4004521D01*
X46349102Y4386086D01*
X46200222Y4745513D01*
X45984083Y5068989D01*
X45708989Y5344083D01*
X45385513Y5560222D01*
X45026086Y5709102D01*
X44644521Y5785000D01*
X44255479Y5785000D01*
X43873914Y5709102D01*
X43514487Y5560222D01*
X43191011Y5344083D01*
X42915917Y5068989D01*
X42699778Y4745513D01*
X42550898Y4386086D01*
X42475000Y4004521D01*
X5785000Y4004521D01*
X5709102Y4386086D01*
X5560222Y4745513D01*
X5344083Y5068989D01*
X5068989Y5344083D01*
X4745513Y5560222D01*
X4386086Y5709102D01*
X4004521Y5785000D01*
X3615479Y5785000D01*
X3233914Y5709102D01*
X2874487Y5560222D01*
X2551011Y5344083D01*
X2275917Y5068989D01*
X2059778Y4745513D01*
X1910898Y4386086D01*
X1835000Y4004521D01*
X400000Y4004521D01*
X400000Y26638000D01*
X4899864Y26638000D01*
X4907000Y26565549D01*
X4907000Y26492725D01*
X4921207Y26421300D01*
X4928343Y26348850D01*
X4949475Y26279187D01*
X4963683Y26207758D01*
X4991553Y26140474D01*
X5012685Y26070811D01*
X5047003Y26006606D01*
X5074872Y25939325D01*
X5115330Y25878776D01*
X5149649Y25814569D01*
X5195835Y25758291D01*
X5236293Y25697742D01*
X5287788Y25646247D01*
X5333972Y25589972D01*
X5390247Y25543788D01*
X5441742Y25492293D01*
X5502291Y25451835D01*
X5558569Y25405649D01*
X5622776Y25371330D01*
X5683325Y25330872D01*
X5750606Y25303003D01*
X5814811Y25268685D01*
X5884474Y25247553D01*
X5951758Y25219683D01*
X6023187Y25205475D01*
X6092850Y25184343D01*
X6165299Y25177207D01*
X6236725Y25163000D01*
X7846652Y25163000D01*
X7825972Y25146028D01*
X7779788Y25089753D01*
X7728293Y25038258D01*
X7687835Y24977709D01*
X7641649Y24921431D01*
X7607330Y24857224D01*
X7566872Y24796675D01*
X7539003Y24729394D01*
X7504685Y24665189D01*
X7483553Y24595526D01*
X7455683Y24528242D01*
X7441475Y24456813D01*
X7420343Y24387150D01*
X7413207Y24314700D01*
X7399000Y24243275D01*
X7399000Y24170452D01*
X7391864Y24098000D01*
X7399000Y24025548D01*
X7399000Y23952725D01*
X7413207Y23881300D01*
X7420343Y23808850D01*
X7441475Y23739187D01*
X7455683Y23667758D01*
X7483553Y23600474D01*
X7504685Y23530811D01*
X7539003Y23466606D01*
X7566872Y23399325D01*
X7607330Y23338776D01*
X7641649Y23274569D01*
X7687835Y23218291D01*
X7728293Y23157742D01*
X7779786Y23106249D01*
X7825972Y23049972D01*
X7882247Y23003788D01*
X7933742Y22952293D01*
X7994291Y22911835D01*
X8050569Y22865649D01*
X8114776Y22831330D01*
X8119759Y22828000D01*
X7933742Y22703707D01*
X7728293Y22498258D01*
X7566872Y22256675D01*
X7455683Y21988242D01*
X7399000Y21703275D01*
X7399000Y21412725D01*
X7455683Y21127758D01*
X7566872Y20859325D01*
X7728293Y20617742D01*
X7933742Y20412293D01*
X8119759Y20288000D01*
X7933742Y20163707D01*
X7728293Y19958258D01*
X7566872Y19716675D01*
X7455683Y19448242D01*
X7399000Y19163275D01*
X7399000Y18872725D01*
X7455683Y18587758D01*
X7566872Y18319325D01*
X7728293Y18077742D01*
X7933742Y17872293D01*
X8119759Y17748000D01*
X7933742Y17623707D01*
X7728293Y17418258D01*
X7566872Y17176675D01*
X7455683Y16908242D01*
X7399000Y16623275D01*
X7399000Y16332725D01*
X7455683Y16047758D01*
X7566872Y15779325D01*
X7728293Y15537742D01*
X7933742Y15332293D01*
X8175325Y15170872D01*
X8443758Y15059683D01*
X8728725Y15003000D01*
X9019275Y15003000D01*
X9304242Y15059683D01*
X9572675Y15170872D01*
X9814258Y15332293D01*
X10019707Y15537742D01*
X10181128Y15779325D01*
X10292317Y16047758D01*
X10349000Y16332725D01*
X10349000Y16623275D01*
X10292317Y16908242D01*
X10181128Y17176675D01*
X10019707Y17418258D01*
X9814258Y17623707D01*
X9628241Y17748000D01*
X9814258Y17872293D01*
X10019707Y18077742D01*
X10181128Y18319325D01*
X10292317Y18587758D01*
X10349000Y18872725D01*
X10349000Y19163275D01*
X10292317Y19448242D01*
X10181128Y19716675D01*
X10019707Y19958258D01*
X9814258Y20163707D01*
X9628241Y20288000D01*
X9814258Y20412293D01*
X10019707Y20617742D01*
X10181128Y20859325D01*
X10292317Y21127758D01*
X10349000Y21412725D01*
X10349000Y21703275D01*
X10292317Y21988242D01*
X10181128Y22256675D01*
X10173342Y22268328D01*
X11554293Y20887376D01*
X11605788Y20835881D01*
X11651972Y20779606D01*
X11708247Y20733422D01*
X11759742Y20681927D01*
X11820291Y20641469D01*
X11876569Y20595283D01*
X11940776Y20560964D01*
X12001325Y20520506D01*
X12068606Y20492637D01*
X12132811Y20458319D01*
X12202474Y20437187D01*
X12269758Y20409317D01*
X12341186Y20395109D01*
X12410849Y20373977D01*
X12441279Y20370980D01*
X12483299Y20366841D01*
X12554725Y20352634D01*
X12627554Y20352634D01*
X12699999Y20345499D01*
X12772444Y20352634D01*
X12845275Y20352634D01*
X12916701Y20366841D01*
X12989150Y20373977D01*
X13058813Y20395109D01*
X13130242Y20409317D01*
X13197526Y20437187D01*
X13267189Y20458319D01*
X13331394Y20492637D01*
X13398675Y20520506D01*
X13459224Y20560964D01*
X13523431Y20595283D01*
X13579709Y20641469D01*
X13640258Y20681927D01*
X13691753Y20733422D01*
X13748028Y20779606D01*
X13794212Y20835881D01*
X13845707Y20887376D01*
X13886165Y20947925D01*
X13932351Y21004203D01*
X13966670Y21068410D01*
X14007128Y21128959D01*
X14034997Y21196240D01*
X14069315Y21260445D01*
X14090447Y21330108D01*
X14118317Y21397392D01*
X14132525Y21468821D01*
X14153657Y21538484D01*
X14160793Y21610934D01*
X14175000Y21682359D01*
X14175000Y21755182D01*
X14182136Y21827634D01*
X14175000Y21900086D01*
X14175000Y21972909D01*
X14160793Y22044334D01*
X14153657Y22116784D01*
X14132525Y22186447D01*
X14118317Y22257876D01*
X14090447Y22325160D01*
X14069315Y22394823D01*
X14034997Y22459028D01*
X14007128Y22526309D01*
X13966670Y22586858D01*
X13932351Y22651065D01*
X13886165Y22707343D01*
X13845707Y22767892D01*
X13794212Y22819387D01*
X13748028Y22875662D01*
X13691753Y22921846D01*
X13640258Y22973341D01*
X11523850Y25089748D01*
X11477662Y25146028D01*
X11253065Y25330351D01*
X10996823Y25467315D01*
X10718784Y25551657D01*
X10502086Y25573000D01*
X10502079Y25573000D01*
X10429634Y25580135D01*
X10357189Y25573000D01*
X9901348Y25573000D01*
X9922028Y25589972D01*
X9968212Y25646247D01*
X10019707Y25697742D01*
X10060165Y25758291D01*
X10106351Y25814569D01*
X10140670Y25878776D01*
X10181128Y25939325D01*
X10208997Y26006606D01*
X10243315Y26070811D01*
X10264447Y26140474D01*
X10292317Y26207758D01*
X10306525Y26279187D01*
X10327657Y26348850D01*
X10334793Y26421300D01*
X10349000Y26492725D01*
X10349000Y26565549D01*
X10356136Y26638000D01*
X10349000Y26710452D01*
X10349000Y26783275D01*
X10344157Y26807623D01*
X10327657Y26975149D01*
X10243315Y27253188D01*
X10106351Y27509430D01*
X9922028Y27734028D01*
X9697431Y27918351D01*
X9667597Y27934297D01*
X9814258Y28032293D01*
X10019707Y28237742D01*
X10181128Y28479325D01*
X10292317Y28747758D01*
X10349000Y29032725D01*
X10349000Y29323275D01*
X10292317Y29608242D01*
X10181128Y29876675D01*
X10019707Y30118258D01*
X9814258Y30323707D01*
X9628241Y30448000D01*
X9814258Y30572293D01*
X10019707Y30777742D01*
X10181128Y31019325D01*
X10292317Y31287758D01*
X10349000Y31572725D01*
X10349000Y31863275D01*
X10292317Y32148242D01*
X10181128Y32416675D01*
X10019707Y32658258D01*
X9814258Y32863707D01*
X9628241Y32988000D01*
X9814258Y33112293D01*
X10019707Y33317742D01*
X10181128Y33559325D01*
X10292317Y33827758D01*
X10349000Y34112725D01*
X10349000Y34403275D01*
X10292317Y34688242D01*
X10181128Y34956675D01*
X10019707Y35198258D01*
X9894965Y35323000D01*
X11225000Y35323000D01*
X11225001Y33165280D01*
X11225000Y33165275D01*
X11225000Y32874725D01*
X11239209Y32803289D01*
X11246344Y32730850D01*
X11267473Y32661196D01*
X11281683Y32589758D01*
X11309557Y32522465D01*
X11330686Y32452811D01*
X11365000Y32388615D01*
X11392872Y32321325D01*
X11433335Y32260768D01*
X11467650Y32196569D01*
X11513831Y32140298D01*
X11554293Y32079742D01*
X11605794Y32028241D01*
X11651973Y31971972D01*
X11708242Y31925793D01*
X11759742Y31874293D01*
X11820297Y31833831D01*
X11876570Y31787649D01*
X11940772Y31753333D01*
X12001325Y31712872D01*
X12068611Y31685001D01*
X12132812Y31650685D01*
X12202472Y31629554D01*
X12269758Y31601683D01*
X12341190Y31587474D01*
X12410851Y31566343D01*
X12483299Y31559207D01*
X12554725Y31545000D01*
X12627548Y31545000D01*
X12700000Y31537864D01*
X12772452Y31545000D01*
X12845275Y31545000D01*
X12916700Y31559207D01*
X12989150Y31566343D01*
X13058813Y31587475D01*
X13130242Y31601683D01*
X13197526Y31629553D01*
X13267189Y31650685D01*
X13331394Y31685003D01*
X13398675Y31712872D01*
X13459224Y31753330D01*
X13523431Y31787649D01*
X13579709Y31833835D01*
X13640258Y31874293D01*
X13691753Y31925788D01*
X13748028Y31971972D01*
X13794212Y32028247D01*
X13845707Y32079742D01*
X13886165Y32140291D01*
X13932351Y32196569D01*
X13960127Y32248535D01*
X13973333Y32228772D01*
X14007649Y32164570D01*
X14053831Y32108297D01*
X14094293Y32047742D01*
X14145793Y31996242D01*
X14191972Y31939973D01*
X14248243Y31893792D01*
X14299742Y31842293D01*
X14360293Y31801834D01*
X14416569Y31755649D01*
X14480776Y31721330D01*
X14541325Y31680872D01*
X14608606Y31653003D01*
X14672811Y31618685D01*
X14742474Y31597553D01*
X14809758Y31569683D01*
X14881187Y31555475D01*
X14950850Y31534343D01*
X15023300Y31527207D01*
X15094725Y31513000D01*
X15167548Y31513000D01*
X15240000Y31505864D01*
X15312452Y31513000D01*
X15385275Y31513000D01*
X15456701Y31527207D01*
X15529149Y31534343D01*
X15598810Y31555474D01*
X15670242Y31569683D01*
X15737528Y31597554D01*
X15807188Y31618685D01*
X15871389Y31653001D01*
X15938675Y31680872D01*
X15999228Y31721333D01*
X16063430Y31755649D01*
X16119703Y31801831D01*
X16180258Y31842293D01*
X16231758Y31893793D01*
X16288027Y31939972D01*
X16334208Y31996243D01*
X16385707Y32047742D01*
X16426166Y32108293D01*
X16472351Y32164569D01*
X16502000Y32220039D01*
X16531649Y32164570D01*
X16577831Y32108297D01*
X16618293Y32047742D01*
X16669793Y31996242D01*
X16715972Y31939973D01*
X16772243Y31893792D01*
X16823742Y31842293D01*
X16884293Y31801834D01*
X16940569Y31755649D01*
X17004776Y31721330D01*
X17065325Y31680872D01*
X17132606Y31653003D01*
X17196811Y31618685D01*
X17266474Y31597553D01*
X17333758Y31569683D01*
X17405187Y31555475D01*
X17474850Y31534343D01*
X17547300Y31527207D01*
X17618725Y31513000D01*
X17691548Y31513000D01*
X17764000Y31505864D01*
X17836452Y31513000D01*
X17909275Y31513000D01*
X17980701Y31527207D01*
X18053149Y31534343D01*
X18122810Y31555474D01*
X18194242Y31569683D01*
X18261528Y31597554D01*
X18331188Y31618685D01*
X18395389Y31653001D01*
X18462675Y31680872D01*
X18523228Y31721333D01*
X18587430Y31755649D01*
X18643703Y31801831D01*
X18704258Y31842293D01*
X18705009Y31843044D01*
X18705009Y21759340D01*
X9818670Y12873000D01*
X8728725Y12873000D01*
X8657299Y12858793D01*
X8584850Y12851657D01*
X8515187Y12830525D01*
X8443758Y12816317D01*
X8376474Y12788447D01*
X8306811Y12767315D01*
X8242606Y12732997D01*
X8175325Y12705128D01*
X8114776Y12664670D01*
X8050569Y12630351D01*
X7994291Y12584165D01*
X7933742Y12543707D01*
X7882247Y12492212D01*
X7825972Y12446028D01*
X7779788Y12389753D01*
X7728293Y12338258D01*
X7687835Y12277709D01*
X7641649Y12221431D01*
X7607330Y12157224D01*
X7566872Y12096675D01*
X7539003Y12029394D01*
X7504685Y11965189D01*
X7483553Y11895526D01*
X7455683Y11828242D01*
X7441475Y11756813D01*
X7420343Y11687150D01*
X7413207Y11614700D01*
X7399000Y11543275D01*
X7399000Y11470452D01*
X7391864Y11398000D01*
X7399000Y11325548D01*
X7399000Y11252725D01*
X7413207Y11181300D01*
X7420343Y11108850D01*
X7441475Y11039187D01*
X7455683Y10967758D01*
X7483553Y10900474D01*
X7504685Y10830811D01*
X7539003Y10766606D01*
X7566872Y10699325D01*
X7607330Y10638776D01*
X7641649Y10574569D01*
X7687835Y10518291D01*
X7728293Y10457742D01*
X7779788Y10406247D01*
X7825972Y10349972D01*
X7882247Y10303788D01*
X7933742Y10252293D01*
X7994291Y10211835D01*
X8050569Y10165649D01*
X8114776Y10131330D01*
X8175325Y10090872D01*
X8242606Y10063003D01*
X8306811Y10028685D01*
X8376474Y10007553D01*
X8443758Y9979683D01*
X8515187Y9965475D01*
X8584850Y9944343D01*
X8657299Y9937207D01*
X8728725Y9923000D01*
X10357189Y9923000D01*
X10429634Y9915865D01*
X10502079Y9923000D01*
X10502086Y9923000D01*
X10718784Y9944343D01*
X10996823Y10028685D01*
X11253065Y10165649D01*
X11477662Y10349972D01*
X11523850Y10406252D01*
X21171767Y20054168D01*
X21228036Y20100347D01*
X21274217Y20156618D01*
X21274223Y20156624D01*
X21351570Y20250872D01*
X21412360Y20324944D01*
X21549324Y20581186D01*
X21633666Y20859225D01*
X21655009Y21075923D01*
X21655009Y21075930D01*
X21662144Y21148375D01*
X21655009Y21220820D01*
X21655009Y43114991D01*
X22228632Y43114991D01*
X22292812Y43080686D01*
X22362466Y43059557D01*
X22429758Y43031683D01*
X22501190Y43017474D01*
X22570850Y42996343D01*
X22643297Y42989208D01*
X22714725Y42975000D01*
X22787554Y42975000D01*
X22859999Y42967865D01*
X22932444Y42975000D01*
X23005275Y42975000D01*
X23076704Y42989208D01*
X23149149Y42996343D01*
X23218808Y43017474D01*
X23290242Y43031683D01*
X23357535Y43059557D01*
X23427188Y43080686D01*
X23491381Y43114998D01*
X23558675Y43142872D01*
X23619236Y43183338D01*
X23683430Y43217650D01*
X23739700Y43263829D01*
X23800258Y43304293D01*
X23851756Y43355791D01*
X23908028Y43401972D01*
X23954209Y43458244D01*
X24005707Y43509742D01*
X24046171Y43570300D01*
X24092350Y43626570D01*
X24126662Y43690764D01*
X24167128Y43751325D01*
X24195002Y43818619D01*
X24229314Y43882812D01*
X24250443Y43952465D01*
X24278317Y44019758D01*
X24292526Y44091192D01*
X24313657Y44160851D01*
X24320792Y44233296D01*
X24335000Y44304725D01*
X24335000Y44377556D01*
X24342135Y44450001D01*
X24335000Y44522446D01*
X24335000Y44595275D01*
X24320792Y44666703D01*
X24313657Y44739150D01*
X24292526Y44808810D01*
X24278317Y44880242D01*
X24250443Y44947534D01*
X24229314Y45017188D01*
X24195002Y45081381D01*
X24167128Y45148675D01*
X24126662Y45209236D01*
X24092350Y45273430D01*
X24046171Y45329699D01*
X24005707Y45390258D01*
X23814221Y45581744D01*
X23768037Y45638019D01*
X23543440Y45822342D01*
X23287198Y45959306D01*
X23009159Y46043648D01*
X22792461Y46064991D01*
X22792454Y46064991D01*
X22720009Y46072126D01*
X22647564Y46064991D01*
X20252461Y46064991D01*
X20180009Y46072127D01*
X20107557Y46064991D01*
X19890859Y46043648D01*
X19612820Y45959306D01*
X19488770Y45893000D01*
X19255000Y45893000D01*
X19255000Y49772652D01*
X19271972Y49751972D01*
X19328247Y49705788D01*
X19379742Y49654293D01*
X19440291Y49613835D01*
X19496569Y49567649D01*
X19560776Y49533330D01*
X19621325Y49492872D01*
X19688606Y49465003D01*
X19752811Y49430685D01*
X19822474Y49409553D01*
X19889758Y49381683D01*
X19961187Y49367475D01*
X20030850Y49346343D01*
X20103299Y49339207D01*
X20174725Y49325000D01*
X20247555Y49325000D01*
X20320000Y49317865D01*
X20392445Y49325000D01*
X20465275Y49325000D01*
X20536701Y49339207D01*
X20609150Y49346343D01*
X20678813Y49367475D01*
X20750242Y49381683D01*
X20817526Y49409553D01*
X20887189Y49430685D01*
X20951394Y49465003D01*
X21018675Y49492872D01*
X21079224Y49533330D01*
X21143431Y49567649D01*
X21199709Y49613835D01*
X21260258Y49654293D01*
X21311753Y49705788D01*
X21368028Y49751972D01*
X21414212Y49808247D01*
X21465707Y49859742D01*
X21465709Y49859745D01*
X25224214Y53618249D01*
X25275707Y53669742D01*
X25316167Y53730295D01*
X25362350Y53786569D01*
X25396666Y53850770D01*
X25437128Y53911325D01*
X25464998Y53978608D01*
X25499315Y54042811D01*
X25520447Y54112474D01*
X25548317Y54179758D01*
X25562525Y54251187D01*
X25583657Y54320850D01*
X25590792Y54393297D01*
X25605000Y54464725D01*
X25605000Y54537555D01*
X25612135Y54610000D01*
X25605000Y54682445D01*
X25605000Y54755275D01*
X25590792Y54826703D01*
X25583657Y54899150D01*
X25562525Y54968812D01*
X25548317Y55040242D01*
X25520446Y55107528D01*
X25499315Y55177188D01*
X25464999Y55241388D01*
X25437128Y55308675D01*
X25396666Y55369231D01*
X25362350Y55433431D01*
X25316168Y55489704D01*
X25275707Y55550258D01*
X25224210Y55601755D01*
X25178028Y55658028D01*
X25121755Y55704210D01*
X25070258Y55755707D01*
X25009704Y55796168D01*
X24953431Y55842350D01*
X24889231Y55876666D01*
X24828675Y55917128D01*
X24761388Y55944999D01*
X24697188Y55979315D01*
X24627528Y56000446D01*
X24560242Y56028317D01*
X24488812Y56042525D01*
X24419150Y56063657D01*
X24346703Y56070792D01*
X24275275Y56085000D01*
X24202445Y56085000D01*
X24130000Y56092135D01*
X24057555Y56085000D01*
X23984725Y56085000D01*
X23913297Y56070792D01*
X23840850Y56063657D01*
X23771187Y56042525D01*
X23699758Y56028317D01*
X23632474Y56000447D01*
X23562811Y55979315D01*
X23498608Y55944998D01*
X23431325Y55917128D01*
X23370770Y55876666D01*
X23306569Y55842350D01*
X23250295Y55796167D01*
X23189742Y55755707D01*
X23138249Y55704214D01*
X19379745Y51945709D01*
X19379742Y51945707D01*
X19328247Y51894212D01*
X19271972Y51848028D01*
X19255000Y51827348D01*
X19255000Y59079036D01*
X19901758Y59725793D01*
X19958028Y59771973D01*
X20004209Y59828244D01*
X20004214Y59828249D01*
X20072923Y59911972D01*
X20142352Y59996570D01*
X20279316Y60252812D01*
X20363658Y60530851D01*
X20385001Y60747549D01*
X20385001Y60747556D01*
X20392136Y60820001D01*
X20385001Y60892446D01*
X20385001Y70488616D01*
X20468317Y70689758D01*
X20525000Y70974725D01*
X20525000Y71265275D01*
X20468317Y71550242D01*
X20385001Y71751384D01*
X20385001Y72045001D01*
X25187556Y72045001D01*
X25260001Y72037866D01*
X25332446Y72045001D01*
X25332453Y72045001D01*
X25528328Y72064293D01*
X25524293Y72060258D01*
X25483831Y71999702D01*
X25437650Y71943431D01*
X25403335Y71879232D01*
X25362872Y71818675D01*
X25335000Y71751387D01*
X25300685Y71687188D01*
X25279554Y71617528D01*
X25251683Y71550242D01*
X25237475Y71478812D01*
X25216343Y71409150D01*
X25209208Y71336703D01*
X25195000Y71265275D01*
X25195000Y71192445D01*
X25187865Y71120000D01*
X25195000Y71047555D01*
X25195000Y70974725D01*
X25195001Y70974720D01*
X25195000Y68337347D01*
X25178028Y68358028D01*
X25121753Y68404212D01*
X25070258Y68455707D01*
X25009709Y68496165D01*
X24953431Y68542351D01*
X24889224Y68576670D01*
X24828675Y68617128D01*
X24761394Y68644997D01*
X24697189Y68679315D01*
X24627526Y68700447D01*
X24560242Y68728317D01*
X24488813Y68742525D01*
X24419150Y68763657D01*
X24346700Y68770793D01*
X24275275Y68785000D01*
X24202452Y68785000D01*
X24130000Y68792136D01*
X24057548Y68785000D01*
X23984725Y68785000D01*
X23913299Y68770793D01*
X23840851Y68763657D01*
X23771190Y68742526D01*
X23699758Y68728317D01*
X23632472Y68700446D01*
X23562812Y68679315D01*
X23498611Y68644999D01*
X23431325Y68617128D01*
X23370772Y68576667D01*
X23306570Y68542351D01*
X23250297Y68496169D01*
X23189742Y68455707D01*
X23138242Y68404207D01*
X23081973Y68358028D01*
X23035794Y68301759D01*
X22984293Y68250258D01*
X22943831Y68189702D01*
X22897650Y68133431D01*
X22863335Y68069232D01*
X22822872Y68008675D01*
X22795000Y67941385D01*
X22760686Y67877189D01*
X22739557Y67807535D01*
X22711683Y67740242D01*
X22697473Y67668804D01*
X22676344Y67599150D01*
X22669209Y67526711D01*
X22655000Y67455275D01*
X22655000Y67164725D01*
X22655001Y67164720D01*
X22655000Y62375275D01*
X22655000Y62084725D01*
X22669208Y62013298D01*
X22676343Y61940851D01*
X22697474Y61871190D01*
X22711683Y61799758D01*
X22739554Y61732472D01*
X22760685Y61662812D01*
X22795001Y61598611D01*
X22822872Y61531325D01*
X22863333Y61470772D01*
X22897649Y61406570D01*
X22943831Y61350297D01*
X22984293Y61289742D01*
X23035793Y61238242D01*
X23081972Y61181973D01*
X23138243Y61135792D01*
X23189742Y61084293D01*
X23250293Y61043834D01*
X23306569Y60997649D01*
X23370776Y60963330D01*
X23431325Y60922872D01*
X23498606Y60895003D01*
X23562811Y60860685D01*
X23632474Y60839553D01*
X23699758Y60811683D01*
X23771187Y60797475D01*
X23840850Y60776343D01*
X23913300Y60769207D01*
X23984725Y60755000D01*
X24057548Y60755000D01*
X24130000Y60747864D01*
X24202452Y60755000D01*
X24275275Y60755000D01*
X24346701Y60769207D01*
X24419149Y60776343D01*
X24488810Y60797474D01*
X24560242Y60811683D01*
X24627528Y60839554D01*
X24697188Y60860685D01*
X24761389Y60895001D01*
X24828675Y60922872D01*
X24889228Y60963333D01*
X24953430Y60997649D01*
X25009703Y61043831D01*
X25070258Y61084293D01*
X25121758Y61135793D01*
X25178027Y61181972D01*
X25224208Y61238243D01*
X25275707Y61289742D01*
X25316166Y61350293D01*
X25362351Y61406569D01*
X25396670Y61470776D01*
X25437128Y61531325D01*
X25464997Y61598606D01*
X25499315Y61662811D01*
X25520447Y61732474D01*
X25548317Y61799758D01*
X25562525Y61871187D01*
X25583657Y61940850D01*
X25590793Y62013299D01*
X25605000Y62084725D01*
X25605000Y66282653D01*
X25621972Y66261973D01*
X25678243Y66215792D01*
X25729742Y66164293D01*
X25790293Y66123834D01*
X25846569Y66077649D01*
X25910776Y66043330D01*
X25971325Y66002872D01*
X26038606Y65975003D01*
X26102811Y65940685D01*
X26172474Y65919553D01*
X26239758Y65891683D01*
X26311187Y65877475D01*
X26380850Y65856343D01*
X26453300Y65849207D01*
X26524725Y65835000D01*
X26597548Y65835000D01*
X26670000Y65827864D01*
X26742452Y65835000D01*
X26815275Y65835000D01*
X26886701Y65849207D01*
X26959149Y65856343D01*
X27028810Y65877474D01*
X27100242Y65891683D01*
X27167528Y65919554D01*
X27237188Y65940685D01*
X27301389Y65975001D01*
X27368675Y66002872D01*
X27429228Y66043333D01*
X27493430Y66077649D01*
X27549703Y66123831D01*
X27610258Y66164293D01*
X27661758Y66215793D01*
X27718027Y66261972D01*
X27764208Y66318243D01*
X27815707Y66369742D01*
X27856166Y66430293D01*
X27902351Y66486569D01*
X27936670Y66550776D01*
X27977128Y66611325D01*
X28004997Y66678606D01*
X28039315Y66742811D01*
X28060447Y66812474D01*
X28088317Y66879758D01*
X28102525Y66951187D01*
X28123657Y67020850D01*
X28130793Y67093299D01*
X28145000Y67164725D01*
X28145000Y70509036D01*
X32360965Y74725000D01*
X38063401Y74725000D01*
X33298248Y69959846D01*
X33241973Y69913662D01*
X33057650Y69689065D01*
X33045505Y69666343D01*
X32920685Y69432822D01*
X32836343Y69154784D01*
X32815000Y68938086D01*
X32815000Y68938079D01*
X32807865Y68865634D01*
X32815000Y68793189D01*
X32815000Y67164725D01*
X32829208Y67093298D01*
X32836343Y67020851D01*
X32857474Y66951190D01*
X32871683Y66879758D01*
X32899554Y66812472D01*
X32920685Y66742812D01*
X32955001Y66678611D01*
X32982872Y66611325D01*
X33023333Y66550772D01*
X33057649Y66486570D01*
X33103831Y66430297D01*
X33144293Y66369742D01*
X33195793Y66318242D01*
X33241972Y66261973D01*
X33298243Y66215792D01*
X33349742Y66164293D01*
X33410293Y66123834D01*
X33466569Y66077649D01*
X33530776Y66043330D01*
X33591325Y66002872D01*
X33658606Y65975003D01*
X33722811Y65940685D01*
X33792474Y65919553D01*
X33859758Y65891683D01*
X33931187Y65877475D01*
X34000850Y65856343D01*
X34073300Y65849207D01*
X34144725Y65835000D01*
X34217548Y65835000D01*
X34290000Y65827864D01*
X34362452Y65835000D01*
X34435275Y65835000D01*
X34506701Y65849207D01*
X34579149Y65856343D01*
X34648810Y65877474D01*
X34720242Y65891683D01*
X34787528Y65919554D01*
X34857188Y65940685D01*
X34921389Y65975001D01*
X34988675Y66002872D01*
X35049228Y66043333D01*
X35113430Y66077649D01*
X35169703Y66123831D01*
X35230258Y66164293D01*
X35281758Y66215793D01*
X35338027Y66261972D01*
X35355001Y66282654D01*
X35355000Y64110965D01*
X33298248Y62054212D01*
X33241973Y62008028D01*
X33057649Y61783431D01*
X32920685Y61527189D01*
X32836343Y61249150D01*
X32815000Y61032452D01*
X32815000Y61032445D01*
X32807865Y60960000D01*
X32815000Y60887555D01*
X32815000Y60629551D01*
X32815001Y60629541D01*
X32815000Y53590901D01*
X32791865Y53356000D01*
X32799001Y53283545D01*
X32799000Y47103275D01*
X32799000Y46812725D01*
X32813208Y46741298D01*
X32820343Y46668851D01*
X32841474Y46599190D01*
X32855683Y46527758D01*
X32883554Y46460472D01*
X32904685Y46390812D01*
X32939001Y46326611D01*
X32966872Y46259325D01*
X33007333Y46198772D01*
X33041649Y46134570D01*
X33087831Y46078297D01*
X33128293Y46017742D01*
X33179793Y45966242D01*
X33213640Y45925000D01*
X30334725Y45925000D01*
X30263299Y45910793D01*
X30190850Y45903657D01*
X30121187Y45882525D01*
X30049758Y45868317D01*
X29982474Y45840447D01*
X29912811Y45819315D01*
X29848606Y45784997D01*
X29781325Y45757128D01*
X29720776Y45716670D01*
X29656569Y45682351D01*
X29600291Y45636165D01*
X29539742Y45595707D01*
X29488247Y45544212D01*
X29431972Y45498028D01*
X29415000Y45477348D01*
X29415000Y48187548D01*
X29422136Y48260000D01*
X29415000Y48332452D01*
X29415000Y48405275D01*
X29400793Y48476700D01*
X29393657Y48549150D01*
X29372525Y48618813D01*
X29358317Y48690242D01*
X29330447Y48757526D01*
X29309315Y48827189D01*
X29274997Y48891394D01*
X29247128Y48958675D01*
X29206670Y49019224D01*
X29172351Y49083431D01*
X29126165Y49139709D01*
X29085707Y49200258D01*
X29034212Y49251753D01*
X28988028Y49308028D01*
X28931753Y49354212D01*
X28880258Y49405707D01*
X28819709Y49446165D01*
X28763431Y49492351D01*
X28699224Y49526670D01*
X28638675Y49567128D01*
X28571394Y49594997D01*
X28507189Y49629315D01*
X28437526Y49650447D01*
X28370242Y49678317D01*
X28298813Y49692525D01*
X28229150Y49713657D01*
X28156701Y49720793D01*
X28085275Y49735000D01*
X28012452Y49735000D01*
X27940000Y49742136D01*
X27867548Y49735000D01*
X27794725Y49735000D01*
X27723299Y49720793D01*
X27650850Y49713657D01*
X27581187Y49692525D01*
X27509758Y49678317D01*
X27442474Y49650447D01*
X27372811Y49629315D01*
X27308606Y49594997D01*
X27241325Y49567128D01*
X27180776Y49526670D01*
X27116569Y49492351D01*
X27060291Y49446165D01*
X26999742Y49405707D01*
X26948247Y49354212D01*
X26891972Y49308028D01*
X26845788Y49251753D01*
X26794293Y49200258D01*
X26753835Y49139709D01*
X26707649Y49083431D01*
X26673330Y49019224D01*
X26632872Y48958675D01*
X26605003Y48891394D01*
X26570685Y48827189D01*
X26549553Y48757526D01*
X26521683Y48690242D01*
X26507475Y48618813D01*
X26486343Y48549150D01*
X26479207Y48476700D01*
X26465000Y48405275D01*
X26465000Y48332452D01*
X26457864Y48260000D01*
X26465000Y48187548D01*
X26465000Y47062451D01*
X26465001Y40712455D01*
X26457865Y40640000D01*
X26486343Y40350850D01*
X26570685Y40072812D01*
X26570686Y40072811D01*
X26707650Y39816569D01*
X26891973Y39591972D01*
X26948248Y39545788D01*
X29005001Y37489034D01*
X29005000Y11575275D01*
X29005000Y11502445D01*
X28997865Y11430000D01*
X29005000Y11357555D01*
X29005000Y11284725D01*
X29019208Y11213298D01*
X29026343Y11140851D01*
X29047474Y11071190D01*
X29061683Y10999758D01*
X29089554Y10932472D01*
X29110685Y10862812D01*
X29145001Y10798611D01*
X29172872Y10731325D01*
X29213333Y10670772D01*
X29247649Y10606570D01*
X29293831Y10550297D01*
X29334293Y10489742D01*
X29385793Y10438242D01*
X29431972Y10381973D01*
X29449546Y10367551D01*
X29463972Y10349972D01*
X29520247Y10303788D01*
X29539742Y10284293D01*
X29562665Y10268976D01*
X29688569Y10165649D01*
X29944811Y10028685D01*
X30222850Y9944343D01*
X30439548Y9923000D01*
X30439555Y9923000D01*
X30512000Y9915865D01*
X30584445Y9923000D01*
X34419275Y9923000D01*
X34490701Y9937207D01*
X34563150Y9944343D01*
X34632813Y9965475D01*
X34704242Y9979683D01*
X34771526Y10007553D01*
X34841189Y10028685D01*
X34905394Y10063003D01*
X34972675Y10090872D01*
X35033224Y10131330D01*
X35097431Y10165649D01*
X35153709Y10211835D01*
X35214258Y10252293D01*
X35265753Y10303788D01*
X35322028Y10349972D01*
X35368212Y10406247D01*
X35419707Y10457742D01*
X35460165Y10518291D01*
X35506351Y10574569D01*
X35540670Y10638776D01*
X35581128Y10699325D01*
X35608997Y10766606D01*
X35643315Y10830811D01*
X35664447Y10900474D01*
X35692317Y10967758D01*
X35706525Y11039187D01*
X35727657Y11108850D01*
X35734793Y11181300D01*
X35749000Y11252725D01*
X35749000Y11325548D01*
X35756136Y11398000D01*
X35749000Y11470452D01*
X35749000Y11543275D01*
X35734793Y11614700D01*
X35727657Y11687150D01*
X35706525Y11756813D01*
X35692317Y11828242D01*
X35664447Y11895526D01*
X35643315Y11965189D01*
X35608997Y12029394D01*
X35581128Y12096675D01*
X35540670Y12157224D01*
X35506351Y12221431D01*
X35460165Y12277709D01*
X35419707Y12338258D01*
X35368212Y12389753D01*
X35322028Y12446028D01*
X35265753Y12492212D01*
X35214258Y12543707D01*
X35153709Y12584165D01*
X35097431Y12630351D01*
X35033224Y12664670D01*
X34972675Y12705128D01*
X34905394Y12732997D01*
X34841189Y12767315D01*
X34771526Y12788447D01*
X34704242Y12816317D01*
X34632813Y12830525D01*
X34563150Y12851657D01*
X34490701Y12858793D01*
X34419275Y12873000D01*
X31955000Y12873000D01*
X31955000Y38027556D01*
X31962135Y38100001D01*
X31955000Y38172446D01*
X31955000Y38172452D01*
X31933657Y38389150D01*
X31925692Y38415409D01*
X31888305Y38538656D01*
X31849315Y38667189D01*
X31712351Y38923431D01*
X31528028Y39148028D01*
X31471753Y39194212D01*
X29415000Y41250964D01*
X29415000Y43422652D01*
X29431972Y43401972D01*
X29488247Y43355788D01*
X29539742Y43304293D01*
X29600291Y43263835D01*
X29656569Y43217649D01*
X29720776Y43183330D01*
X29781325Y43142872D01*
X29848606Y43115003D01*
X29912811Y43080685D01*
X29982474Y43059553D01*
X30049758Y43031683D01*
X30121187Y43017475D01*
X30190850Y42996343D01*
X30263299Y42989207D01*
X30334725Y42975000D01*
X33285035Y42975000D01*
X33128293Y42818258D01*
X32966872Y42576675D01*
X32855683Y42308242D01*
X32799000Y42023275D01*
X32799000Y41732725D01*
X32855683Y41447758D01*
X32966872Y41179325D01*
X33128293Y40937742D01*
X33333742Y40732293D01*
X33519759Y40608000D01*
X33333742Y40483707D01*
X33128293Y40278258D01*
X32966872Y40036675D01*
X32855683Y39768242D01*
X32799000Y39483275D01*
X32799000Y39192725D01*
X32855683Y38907758D01*
X32966872Y38639325D01*
X33128293Y38397742D01*
X33333742Y38192293D01*
X33519759Y38068000D01*
X33333742Y37943707D01*
X33128293Y37738258D01*
X32966872Y37496675D01*
X32855683Y37228242D01*
X32799000Y36943275D01*
X32799000Y36652725D01*
X32855683Y36367758D01*
X32966872Y36099325D01*
X33128293Y35857742D01*
X33333742Y35652293D01*
X33519759Y35528000D01*
X33333742Y35403707D01*
X33128293Y35198258D01*
X32966872Y34956675D01*
X32855683Y34688242D01*
X32799000Y34403275D01*
X32799000Y34112725D01*
X32855683Y33827758D01*
X32966872Y33559325D01*
X33128293Y33317742D01*
X33333742Y33112293D01*
X33519759Y32988000D01*
X33333742Y32863707D01*
X33128293Y32658258D01*
X32966872Y32416675D01*
X32855683Y32148242D01*
X32799000Y31863275D01*
X32799000Y31572725D01*
X32855683Y31287758D01*
X32966872Y31019325D01*
X33128293Y30777742D01*
X33333742Y30572293D01*
X33519759Y30448000D01*
X33333742Y30323707D01*
X33128293Y30118258D01*
X32966872Y29876675D01*
X32855683Y29608242D01*
X32799000Y29323275D01*
X32799000Y29032725D01*
X32855683Y28747758D01*
X32966872Y28479325D01*
X33128293Y28237742D01*
X33333742Y28032293D01*
X33519759Y27908000D01*
X33333742Y27783707D01*
X33128293Y27578258D01*
X32966872Y27336675D01*
X32855683Y27068242D01*
X32799000Y26783275D01*
X32799000Y26492725D01*
X32855683Y26207758D01*
X32966872Y25939325D01*
X33128293Y25697742D01*
X33333742Y25492293D01*
X33519759Y25368000D01*
X33333742Y25243707D01*
X33128293Y25038258D01*
X32966872Y24796675D01*
X32855683Y24528242D01*
X32799000Y24243275D01*
X32799000Y23952725D01*
X32855683Y23667758D01*
X32966872Y23399325D01*
X33128293Y23157742D01*
X33333742Y22952293D01*
X33519759Y22828000D01*
X33333742Y22703707D01*
X33128293Y22498258D01*
X32966872Y22256675D01*
X32855683Y21988242D01*
X32799000Y21703275D01*
X32799000Y21412725D01*
X32855683Y21127758D01*
X32966872Y20859325D01*
X33128293Y20617742D01*
X33333742Y20412293D01*
X33519759Y20288000D01*
X33333742Y20163707D01*
X33128293Y19958258D01*
X32966872Y19716675D01*
X32855683Y19448242D01*
X32799000Y19163275D01*
X32799000Y18872725D01*
X32855683Y18587758D01*
X32966872Y18319325D01*
X33128293Y18077742D01*
X33333742Y17872293D01*
X33519759Y17748000D01*
X33333742Y17623707D01*
X33128293Y17418258D01*
X32966872Y17176675D01*
X32855683Y16908242D01*
X32799000Y16623275D01*
X32799000Y16332725D01*
X32855683Y16047758D01*
X32966872Y15779325D01*
X33128293Y15537742D01*
X33333742Y15332293D01*
X33575325Y15170872D01*
X33843758Y15059683D01*
X34128725Y15003000D01*
X34419275Y15003000D01*
X34704242Y15059683D01*
X34972675Y15170872D01*
X35214258Y15332293D01*
X35419707Y15537742D01*
X35581128Y15779325D01*
X35692317Y16047758D01*
X35749000Y16332725D01*
X35749000Y16623275D01*
X35692317Y16908242D01*
X35581128Y17176675D01*
X35419707Y17418258D01*
X35214258Y17623707D01*
X35028241Y17748000D01*
X35214258Y17872293D01*
X35419707Y18077742D01*
X35581128Y18319325D01*
X35692317Y18587758D01*
X35749000Y18872725D01*
X35749000Y19163275D01*
X35692317Y19448242D01*
X35581128Y19716675D01*
X35419707Y19958258D01*
X35214258Y20163707D01*
X35028241Y20288000D01*
X35214258Y20412293D01*
X35419707Y20617742D01*
X35581128Y20859325D01*
X35692317Y21127758D01*
X35749000Y21412725D01*
X35749000Y21703275D01*
X35692317Y21988242D01*
X35581128Y22256675D01*
X35419707Y22498258D01*
X35214258Y22703707D01*
X35028241Y22828000D01*
X35214258Y22952293D01*
X35234965Y22973000D01*
X35774373Y22973000D01*
X35829634Y22967557D01*
X35884895Y22973000D01*
X35884898Y22973000D01*
X36050172Y22989278D01*
X36262236Y23053607D01*
X36457674Y23158071D01*
X36628978Y23298656D01*
X36664212Y23341589D01*
X37080416Y23757793D01*
X37123345Y23793023D01*
X37263930Y23964327D01*
X37368394Y24159765D01*
X37432723Y24371829D01*
X37449001Y24537103D01*
X37449001Y24537105D01*
X37454444Y24592367D01*
X37449001Y24647629D01*
X37449001Y25323833D01*
X38780427Y26655258D01*
X38823355Y26690488D01*
X38899503Y26783275D01*
X38963939Y26861790D01*
X39068404Y27057230D01*
X39096426Y27149606D01*
X39132733Y27269294D01*
X39149011Y27434568D01*
X39149011Y27434577D01*
X39154453Y27489831D01*
X39149011Y27545085D01*
X39149011Y31173426D01*
X40269000Y31173426D01*
X40269000Y30902574D01*
X40321841Y30636927D01*
X40425491Y30386693D01*
X40575968Y30161489D01*
X40767489Y29969968D01*
X40992693Y29819491D01*
X41242927Y29715841D01*
X41508574Y29663000D01*
X41779426Y29663000D01*
X41944000Y29695736D01*
X42108574Y29663000D01*
X42379426Y29663000D01*
X42645073Y29715841D01*
X42895307Y29819491D01*
X43120511Y29969968D01*
X43312032Y30161489D01*
X43462509Y30386693D01*
X43566159Y30636927D01*
X43619000Y30902574D01*
X43619000Y31173426D01*
X43566159Y31439073D01*
X43462509Y31689307D01*
X43312032Y31914511D01*
X43120511Y32106032D01*
X42895307Y32256509D01*
X42645073Y32360159D01*
X42379426Y32413000D01*
X42108574Y32413000D01*
X41944000Y32380264D01*
X41779426Y32413000D01*
X41508574Y32413000D01*
X41242927Y32360159D01*
X40992693Y32256509D01*
X40767489Y32106032D01*
X40575968Y31914511D01*
X40425491Y31689307D01*
X40321841Y31439073D01*
X40269000Y31173426D01*
X39149011Y31173426D01*
X39149011Y32478022D01*
X39835990Y33165000D01*
X41854739Y33165000D01*
X41910000Y33159557D01*
X41965261Y33165000D01*
X41965264Y33165000D01*
X42130538Y33181278D01*
X42342602Y33245607D01*
X42538040Y33350071D01*
X42709344Y33490656D01*
X42744578Y33533589D01*
X44533990Y35323000D01*
X44579275Y35323000D01*
X44864242Y35379683D01*
X45132675Y35490872D01*
X45374258Y35652293D01*
X45579707Y35857742D01*
X45741128Y36099325D01*
X45852317Y36367758D01*
X45909000Y36652725D01*
X45909000Y36943275D01*
X45852317Y37228242D01*
X45741128Y37496675D01*
X45579707Y37738258D01*
X45374258Y37943707D01*
X45132675Y38105128D01*
X44864242Y38216317D01*
X44579275Y38273000D01*
X44288725Y38273000D01*
X44003758Y38216317D01*
X43735325Y38105128D01*
X43619000Y38027402D01*
X43619000Y38183426D01*
X43566159Y38449073D01*
X43462509Y38699307D01*
X43312032Y38924511D01*
X43120511Y39116032D01*
X42895307Y39266509D01*
X42645073Y39370159D01*
X42379426Y39423000D01*
X42108574Y39423000D01*
X41944000Y39390264D01*
X41779426Y39423000D01*
X41508574Y39423000D01*
X41358272Y39393103D01*
X41480169Y39515000D01*
X42611741Y39515000D01*
X42667002Y39509557D01*
X42722263Y39515000D01*
X42722266Y39515000D01*
X42887540Y39531278D01*
X43099604Y39595607D01*
X43295042Y39700071D01*
X43466346Y39840656D01*
X43501580Y39883589D01*
X44399382Y40781391D01*
X44418000Y40779557D01*
X44473261Y40785000D01*
X44473264Y40785000D01*
X44638538Y40801278D01*
X44850602Y40865607D01*
X45046040Y40970071D01*
X45217344Y41110656D01*
X45224556Y41119444D01*
X45233344Y41126656D01*
X45373929Y41297960D01*
X45478393Y41493398D01*
X45542722Y41705462D01*
X45559000Y41870736D01*
X45559000Y41870745D01*
X45564442Y41925999D01*
X45559000Y41981253D01*
X45559000Y43402035D01*
X45579707Y43422742D01*
X45741128Y43664325D01*
X45852317Y43932758D01*
X45909000Y44217725D01*
X45909000Y44508275D01*
X45852317Y44793242D01*
X45741128Y45061675D01*
X45579707Y45303258D01*
X45374258Y45508707D01*
X45132675Y45670128D01*
X44864242Y45781317D01*
X44579275Y45838000D01*
X44288725Y45838000D01*
X44003758Y45781317D01*
X43735325Y45670128D01*
X43493742Y45508707D01*
X43288293Y45303258D01*
X43126872Y45061675D01*
X43015683Y44793242D01*
X42959000Y44508275D01*
X42959000Y44278951D01*
X42895307Y44321509D01*
X42645073Y44425159D01*
X42379426Y44478000D01*
X42108574Y44478000D01*
X41944000Y44445264D01*
X41779426Y44478000D01*
X41508574Y44478000D01*
X41242927Y44425159D01*
X40992693Y44321509D01*
X40767489Y44171032D01*
X40575968Y43979511D01*
X40425491Y43754307D01*
X40321841Y43504073D01*
X40269000Y43238426D01*
X40269000Y42967574D01*
X40321841Y42701927D01*
X40425491Y42451693D01*
X40575968Y42226489D01*
X40767489Y42034968D01*
X40992693Y41884491D01*
X41242927Y41780841D01*
X41322564Y41765000D01*
X41069440Y41765000D01*
X41014179Y41770443D01*
X40958917Y41765000D01*
X40958915Y41765000D01*
X40793641Y41748722D01*
X40581577Y41684393D01*
X40386139Y41579929D01*
X40214835Y41439344D01*
X40179606Y41396417D01*
X37449001Y38665811D01*
X37449001Y42042201D01*
X38364216Y42957415D01*
X38364220Y42957420D01*
X39286426Y43879625D01*
X39329354Y43914855D01*
X39415445Y44019758D01*
X39469938Y44086157D01*
X39574403Y44281597D01*
X39586510Y44321509D01*
X39596966Y44355976D01*
X40126416Y44885426D01*
X40169344Y44920656D01*
X40239462Y45006095D01*
X40309928Y45091958D01*
X40414393Y45287398D01*
X40451508Y45409751D01*
X40478722Y45499462D01*
X40495000Y45664736D01*
X40495000Y45664745D01*
X40500442Y45719999D01*
X40495000Y45775253D01*
X40495000Y49357666D01*
X40575968Y49236489D01*
X40767489Y49044968D01*
X40992693Y48894491D01*
X41242927Y48790841D01*
X41508574Y48738000D01*
X41779426Y48738000D01*
X41944000Y48770736D01*
X42108574Y48738000D01*
X42379426Y48738000D01*
X42645073Y48790841D01*
X42895307Y48894491D01*
X43120511Y49044968D01*
X43312032Y49236489D01*
X43462509Y49461693D01*
X43566159Y49711927D01*
X43619000Y49977574D01*
X43619000Y50248426D01*
X43566159Y50514073D01*
X43462509Y50764307D01*
X43312032Y50989511D01*
X43120511Y51181032D01*
X42895307Y51331509D01*
X42645073Y51435159D01*
X42379426Y51488000D01*
X42108574Y51488000D01*
X41944000Y51455264D01*
X41779426Y51488000D01*
X41723987Y51488000D01*
X45206416Y54970428D01*
X45249344Y55005658D01*
X45389929Y55176962D01*
X45494393Y55372400D01*
X45558722Y55584464D01*
X45575000Y55749738D01*
X45575000Y55749740D01*
X45580443Y55805002D01*
X45575000Y55860263D01*
X45575000Y58729035D01*
X45595707Y58749742D01*
X45757128Y58991325D01*
X45868317Y59259758D01*
X45925000Y59544725D01*
X45925000Y59835275D01*
X45868317Y60120242D01*
X45757128Y60388675D01*
X45595707Y60630258D01*
X45390258Y60835707D01*
X45148675Y60997128D01*
X44880242Y61108317D01*
X44595275Y61165000D01*
X44304725Y61165000D01*
X44019758Y61108317D01*
X43751325Y60997128D01*
X43509742Y60835707D01*
X43304293Y60630258D01*
X43180000Y60444241D01*
X43055707Y60630258D01*
X42850258Y60835707D01*
X42608675Y60997128D01*
X42340242Y61108317D01*
X42055275Y61165000D01*
X41764725Y61165000D01*
X41479758Y61108317D01*
X41211325Y60997128D01*
X40969742Y60835707D01*
X40764293Y60630258D01*
X40602872Y60388675D01*
X40491683Y60120242D01*
X40435000Y59835275D01*
X40435000Y59544725D01*
X40491683Y59259758D01*
X40602872Y58991325D01*
X40764293Y58749742D01*
X40785000Y58729035D01*
X40785001Y56135169D01*
X38305000Y53655167D01*
X38305000Y59835275D01*
X38290793Y59906701D01*
X38283657Y59979150D01*
X38262525Y60048813D01*
X38248317Y60120242D01*
X38220447Y60187526D01*
X38199315Y60257189D01*
X38164997Y60321394D01*
X38137128Y60388675D01*
X38096670Y60449224D01*
X38062351Y60513431D01*
X38016166Y60569707D01*
X37975707Y60630258D01*
X37924208Y60681757D01*
X37878027Y60738028D01*
X37821758Y60784207D01*
X37770258Y60835707D01*
X37709703Y60876169D01*
X37653430Y60922351D01*
X37589228Y60956667D01*
X37528675Y60997128D01*
X37461389Y61024999D01*
X37397188Y61059315D01*
X37327528Y61080446D01*
X37260242Y61108317D01*
X37188810Y61122526D01*
X37119149Y61143657D01*
X37046701Y61150793D01*
X36975275Y61165000D01*
X36902452Y61165000D01*
X36830000Y61172136D01*
X36757548Y61165000D01*
X36684725Y61165000D01*
X36613300Y61150793D01*
X36561672Y61145708D01*
X37821758Y62405793D01*
X37878027Y62451972D01*
X37924208Y62508243D01*
X37924213Y62508248D01*
X38062350Y62676568D01*
X38062351Y62676569D01*
X38199315Y62932811D01*
X38283657Y63210850D01*
X38305000Y63427548D01*
X38305000Y63427554D01*
X38312135Y63499999D01*
X38305000Y63572444D01*
X38305000Y67455275D01*
X38290793Y67526701D01*
X38283657Y67599150D01*
X38262525Y67668813D01*
X38248317Y67740242D01*
X38220447Y67807526D01*
X38199315Y67877189D01*
X38164997Y67941394D01*
X38137128Y68008675D01*
X38096670Y68069224D01*
X38062351Y68133431D01*
X38016165Y68189709D01*
X37975707Y68250258D01*
X37924212Y68301753D01*
X37878028Y68358028D01*
X37821753Y68404212D01*
X37770258Y68455707D01*
X37709709Y68496165D01*
X37653431Y68542351D01*
X37589224Y68576670D01*
X37528675Y68617128D01*
X37461394Y68644997D01*
X37397189Y68679315D01*
X37327526Y68700447D01*
X37260242Y68728317D01*
X37188813Y68742525D01*
X37119150Y68763657D01*
X37046700Y68770793D01*
X36975275Y68785000D01*
X36902452Y68785000D01*
X36830000Y68792136D01*
X36757548Y68785000D01*
X36684725Y68785000D01*
X36613299Y68770793D01*
X36540851Y68763657D01*
X36471190Y68742526D01*
X36399758Y68728317D01*
X36332472Y68700446D01*
X36262812Y68679315D01*
X36198611Y68644999D01*
X36131325Y68617128D01*
X36119671Y68609341D01*
X41631758Y74121427D01*
X41688027Y74167606D01*
X41734208Y74223877D01*
X41734213Y74223882D01*
X41832325Y74343432D01*
X41872351Y74392203D01*
X42009315Y74648445D01*
X42072746Y74857548D01*
X42093657Y74926483D01*
X42097711Y74967649D01*
X42115000Y75143182D01*
X42115000Y75143188D01*
X42122135Y75215633D01*
X42115000Y75288078D01*
X42115000Y80223189D01*
X42122135Y80295634D01*
X42115000Y80368079D01*
X42115000Y80368086D01*
X42093657Y80584784D01*
X42009315Y80862823D01*
X41872351Y81119065D01*
X41688028Y81343662D01*
X41631748Y81389850D01*
X40749850Y82271748D01*
X40703662Y82328028D01*
X40479065Y82512351D01*
X40222823Y82649315D01*
X39944784Y82733657D01*
X39728086Y82755000D01*
X39728079Y82755000D01*
X39655634Y82762135D01*
X39583189Y82755000D01*
X33092445Y82755000D01*
X33020000Y82762135D01*
X32947555Y82755000D01*
X32947548Y82755000D01*
X32730850Y82733657D01*
X32452811Y82649315D01*
X32196569Y82512351D01*
X31971972Y82328028D01*
X31925788Y82271753D01*
X24649037Y74995001D01*
X20385001Y74995001D01*
X20385001Y77537554D01*
X20392136Y77609999D01*
X20385001Y77682444D01*
X20385001Y78535000D01*
X21735275Y78535000D01*
X21806701Y78549207D01*
X21879150Y78556343D01*
X21948813Y78577475D01*
X22020242Y78591683D01*
X22087526Y78619553D01*
X22157189Y78640685D01*
X22221394Y78675003D01*
X22288675Y78702872D01*
X22349224Y78743330D01*
X22413431Y78777649D01*
X22469709Y78823835D01*
X22530258Y78864293D01*
X22581753Y78915788D01*
X22638028Y78961972D01*
X22684214Y79018249D01*
X22735707Y79069742D01*
X22776165Y79130291D01*
X22822351Y79186569D01*
X22856670Y79250776D01*
X22897128Y79311325D01*
X22924997Y79378606D01*
X22959315Y79442811D01*
X22980447Y79512474D01*
X23008317Y79579758D01*
X23022525Y79651187D01*
X23043657Y79720850D01*
X23050793Y79793300D01*
X23065000Y79864725D01*
X23065000Y79937548D01*
X23072136Y80010000D01*
X23065000Y80082452D01*
X23065000Y80155275D01*
X23050793Y80226700D01*
X23043657Y80299150D01*
X23022525Y80368813D01*
X23008317Y80440242D01*
X22980447Y80507526D01*
X22959315Y80577189D01*
X22924997Y80641394D01*
X22897128Y80708675D01*
X22856670Y80769224D01*
X22822351Y80833431D01*
X22776165Y80889709D01*
X22735707Y80950258D01*
X22684212Y81001753D01*
X22638028Y81058028D01*
X22581752Y81104213D01*
X22530258Y81155707D01*
X22469709Y81196165D01*
X22413431Y81242351D01*
X22349224Y81276670D01*
X22288675Y81317128D01*
X22221394Y81344997D01*
X22157189Y81379315D01*
X22087526Y81400447D01*
X22020242Y81428317D01*
X21948813Y81442525D01*
X21879150Y81463657D01*
X21806701Y81470793D01*
X21735275Y81485000D01*
X19122444Y81485000D01*
X19049999Y81492135D01*
X18977554Y81485000D01*
X18977548Y81485000D01*
X18760850Y81463657D01*
X18482811Y81379315D01*
X18226569Y81242351D01*
X18001972Y81058028D01*
X17955784Y81001748D01*
X17918249Y80964213D01*
X17861974Y80918029D01*
X17677651Y80693432D01*
X17619578Y80584784D01*
X17540686Y80437189D01*
X17473286Y80215000D01*
X15850965Y80215000D01*
X12575709Y83490255D01*
X12575707Y83490258D01*
X12524212Y83541753D01*
X12478028Y83598028D01*
X12421752Y83644213D01*
X12370258Y83695707D01*
X12309709Y83736165D01*
X12253431Y83782351D01*
X12189224Y83816670D01*
X12128675Y83857128D01*
X12061394Y83884997D01*
X11997189Y83919315D01*
X11927526Y83940447D01*
X11860242Y83968317D01*
X11788813Y83982525D01*
X11719150Y84003657D01*
X11646701Y84010793D01*
X11575275Y84025000D01*
X11502445Y84025000D01*
X11430000Y84032135D01*
X11357555Y84025000D01*
X8744725Y84025000D01*
X8673299Y84010793D01*
X8600850Y84003657D01*
X8531187Y83982525D01*
X8459758Y83968317D01*
X8392474Y83940447D01*
X8322811Y83919315D01*
X8258606Y83884997D01*
X8191325Y83857128D01*
X8130776Y83816670D01*
X8066569Y83782351D01*
X8010291Y83736165D01*
X7949742Y83695707D01*
X7898248Y83644213D01*
X7841972Y83598028D01*
X7795788Y83541753D01*
X7744293Y83490258D01*
X7703835Y83429709D01*
X7657649Y83373431D01*
X7623330Y83309224D01*
X7582872Y83248675D01*
X7555003Y83181394D01*
X7520685Y83117189D01*
X7499553Y83047526D01*
X7471683Y82980242D01*
X7457475Y82908813D01*
X7436343Y82839150D01*
X7429207Y82766700D01*
X7415000Y82695275D01*
X7415000Y82622452D01*
X7407864Y82550000D01*
X7415000Y82477548D01*
X7415000Y82404725D01*
X7429207Y82333300D01*
X7436343Y82260850D01*
X7457475Y82191187D01*
X7471683Y82119758D01*
X7499553Y82052474D01*
X7520685Y81982811D01*
X7555003Y81918606D01*
X7582872Y81851325D01*
X7623330Y81790776D01*
X7657649Y81726569D01*
X7703835Y81670291D01*
X7744293Y81609742D01*
X7795786Y81558249D01*
X7841972Y81501972D01*
X7898247Y81455788D01*
X7949742Y81404293D01*
X8010291Y81363835D01*
X8066569Y81317649D01*
X8130776Y81283330D01*
X8135759Y81280000D01*
X8130776Y81276670D01*
X8066569Y81242351D01*
X8010291Y81196165D01*
X7949742Y81155707D01*
X7898248Y81104213D01*
X7841972Y81058028D01*
X7795788Y81001753D01*
X7744293Y80950258D01*
X7703835Y80889709D01*
X7657649Y80833431D01*
X7623330Y80769224D01*
X7582872Y80708675D01*
X7555003Y80641394D01*
X7520685Y80577189D01*
X7499553Y80507526D01*
X7471683Y80440242D01*
X7457475Y80368813D01*
X7436343Y80299150D01*
X7429207Y80226700D01*
X7415000Y80155275D01*
X7415000Y80082452D01*
X7407864Y80010000D01*
X7415000Y79937548D01*
X7415000Y79864725D01*
X7429207Y79793300D01*
X7436343Y79720850D01*
X7457475Y79651187D01*
X7471683Y79579758D01*
X7499553Y79512474D01*
X7520685Y79442811D01*
X7555003Y79378606D01*
X7582872Y79311325D01*
X7623330Y79250776D01*
X7657649Y79186569D01*
X7703835Y79130291D01*
X7744293Y79069742D01*
X7795786Y79018249D01*
X7841972Y78961972D01*
X7898247Y78915788D01*
X7949742Y78864293D01*
X8010291Y78823835D01*
X8066569Y78777649D01*
X8130776Y78743330D01*
X8135759Y78740000D01*
X8130776Y78736670D01*
X8066569Y78702351D01*
X8010293Y78656166D01*
X7949742Y78615707D01*
X7898243Y78564208D01*
X7841972Y78518027D01*
X7795793Y78461758D01*
X7744293Y78410258D01*
X7703831Y78349703D01*
X7657649Y78293430D01*
X7623333Y78229228D01*
X7582872Y78168675D01*
X7555001Y78101389D01*
X7520685Y78037188D01*
X7499554Y77967528D01*
X7471683Y77900242D01*
X7457474Y77828810D01*
X7436343Y77759149D01*
X7429208Y77686702D01*
X7415000Y77615275D01*
X7415000Y77542451D01*
X7415001Y75123120D01*
X7403299Y75120793D01*
X7330850Y75113657D01*
X7261187Y75092525D01*
X7189758Y75078317D01*
X7122474Y75050447D01*
X7052811Y75029315D01*
X6988606Y74994997D01*
X6921325Y74967128D01*
X6860776Y74926670D01*
X6796569Y74892351D01*
X6740291Y74846165D01*
X6679742Y74805707D01*
X6628247Y74754212D01*
X6571972Y74708028D01*
X6525788Y74651753D01*
X6474293Y74600258D01*
X6433835Y74539709D01*
X6387649Y74483431D01*
X6353330Y74419224D01*
X6312872Y74358675D01*
X6285003Y74291394D01*
X6250685Y74227189D01*
X6229553Y74157526D01*
X6201683Y74090242D01*
X6187475Y74018813D01*
X6166343Y73949150D01*
X6159207Y73876700D01*
X6145000Y73805275D01*
X6145000Y73732452D01*
X6137864Y73660000D01*
X6145000Y73587549D01*
X6145000Y73514725D01*
X6159207Y73443300D01*
X6166343Y73370850D01*
X6187475Y73301187D01*
X6201683Y73229758D01*
X6229553Y73162474D01*
X6250685Y73092811D01*
X6285003Y73028606D01*
X6312872Y72961325D01*
X6353330Y72900776D01*
X6387649Y72836569D01*
X6433835Y72780291D01*
X6474293Y72719742D01*
X6525788Y72668247D01*
X6571972Y72611972D01*
X6628247Y72565788D01*
X6679742Y72514293D01*
X6740291Y72473835D01*
X6796569Y72427649D01*
X6860776Y72393330D01*
X6865759Y72390000D01*
X6860776Y72386670D01*
X6796569Y72352351D01*
X6740291Y72306165D01*
X6679742Y72265707D01*
X6628247Y72214212D01*
X6571972Y72168028D01*
X6525788Y72111753D01*
X6474293Y72060258D01*
X6433835Y71999709D01*
X6387649Y71943431D01*
X6353330Y71879224D01*
X6312872Y71818675D01*
X6285003Y71751394D01*
X6250685Y71687189D01*
X6229553Y71617526D01*
X6201683Y71550242D01*
X6187475Y71478813D01*
X6166343Y71409150D01*
X6159207Y71336700D01*
X6145000Y71265275D01*
X6145000Y71192452D01*
X6137864Y71120000D01*
X6145000Y71047548D01*
X6145000Y70974725D01*
X6159207Y70903300D01*
X6166343Y70830850D01*
X6187475Y70761187D01*
X6201683Y70689758D01*
X6229553Y70622474D01*
X6250685Y70552811D01*
X6285003Y70488606D01*
X6312872Y70421325D01*
X6353330Y70360776D01*
X6387649Y70296569D01*
X6433835Y70240291D01*
X6474293Y70179742D01*
X6525788Y70128247D01*
X6571972Y70071972D01*
X6628247Y70025788D01*
X6679742Y69974293D01*
X6740291Y69933835D01*
X6796569Y69887649D01*
X6860776Y69853330D01*
X6921325Y69812872D01*
X6988606Y69785003D01*
X7052811Y69750685D01*
X7122474Y69729553D01*
X7189758Y69701683D01*
X7261187Y69687475D01*
X7330850Y69666343D01*
X7403299Y69659207D01*
X7474725Y69645000D01*
X12211681Y69645000D01*
X12284126Y69637865D01*
X12356571Y69645000D01*
X12356578Y69645000D01*
X12573276Y69666343D01*
X12851315Y69750685D01*
X13107557Y69887649D01*
X13332154Y70071972D01*
X13378342Y70128252D01*
X14924223Y71674132D01*
X15062360Y71842453D01*
X15199325Y72098695D01*
X15283667Y72376733D01*
X15312145Y72665883D01*
X15283667Y72955034D01*
X15279801Y72967778D01*
X15388317Y73229758D01*
X15445000Y73514725D01*
X15445000Y73805275D01*
X15388317Y74090242D01*
X15277128Y74358675D01*
X15115707Y74600258D01*
X14990965Y74725000D01*
X16655275Y74725000D01*
X16726701Y74739207D01*
X16799150Y74746343D01*
X16868813Y74767475D01*
X16940242Y74781683D01*
X17007526Y74809553D01*
X17077189Y74830685D01*
X17141394Y74865003D01*
X17208675Y74892872D01*
X17269224Y74933330D01*
X17333431Y74967649D01*
X17389709Y75013835D01*
X17435001Y75044099D01*
X17435001Y73592454D01*
X17427865Y73520001D01*
X17435002Y73447538D01*
X17435001Y61430966D01*
X16839745Y60835709D01*
X16839742Y60835707D01*
X16788243Y60784208D01*
X16731972Y60738027D01*
X16685793Y60681758D01*
X16634293Y60630258D01*
X16593831Y60569703D01*
X16547649Y60513430D01*
X16513333Y60449228D01*
X16510000Y60444241D01*
X16506670Y60449224D01*
X16472351Y60513431D01*
X16426165Y60569709D01*
X16385707Y60630258D01*
X16334212Y60681753D01*
X16288028Y60738028D01*
X16231753Y60784212D01*
X16180258Y60835707D01*
X16119709Y60876165D01*
X16063431Y60922351D01*
X15999224Y60956670D01*
X15938675Y60997128D01*
X15871394Y61024997D01*
X15807189Y61059315D01*
X15737526Y61080447D01*
X15670242Y61108317D01*
X15598813Y61122525D01*
X15529150Y61143657D01*
X15456700Y61150793D01*
X15385275Y61165000D01*
X15312452Y61165000D01*
X15240000Y61172136D01*
X15167548Y61165000D01*
X15094725Y61165000D01*
X15023299Y61150793D01*
X14950851Y61143657D01*
X14881190Y61122526D01*
X14809758Y61108317D01*
X14742472Y61080446D01*
X14672812Y61059315D01*
X14608611Y61024999D01*
X14541325Y60997128D01*
X14480772Y60956667D01*
X14416570Y60922351D01*
X14360297Y60876169D01*
X14299742Y60835707D01*
X14248242Y60784207D01*
X14191973Y60738028D01*
X14145794Y60681759D01*
X14094293Y60630258D01*
X14053831Y60569702D01*
X14007650Y60513431D01*
X13973335Y60449232D01*
X13970000Y60444241D01*
X13966670Y60449224D01*
X13932351Y60513431D01*
X13886165Y60569709D01*
X13845707Y60630258D01*
X13794212Y60681753D01*
X13748028Y60738028D01*
X13691753Y60784212D01*
X13640258Y60835707D01*
X13579709Y60876165D01*
X13523431Y60922351D01*
X13459224Y60956670D01*
X13398675Y60997128D01*
X13331394Y61024997D01*
X13267189Y61059315D01*
X13197526Y61080447D01*
X13130242Y61108317D01*
X13058813Y61122525D01*
X12989150Y61143657D01*
X12916700Y61150793D01*
X12845275Y61165000D01*
X12772452Y61165000D01*
X12700000Y61172136D01*
X12627548Y61165000D01*
X12554725Y61165000D01*
X12483299Y61150793D01*
X12410851Y61143657D01*
X12341190Y61122526D01*
X12269758Y61108317D01*
X12202472Y61080446D01*
X12132812Y61059315D01*
X12068611Y61024999D01*
X12001325Y60997128D01*
X11940772Y60956667D01*
X11876570Y60922351D01*
X11820297Y60876169D01*
X11759742Y60835707D01*
X11708242Y60784207D01*
X11651973Y60738028D01*
X11605794Y60681759D01*
X11554293Y60630258D01*
X11513831Y60569702D01*
X11467650Y60513431D01*
X11433335Y60449232D01*
X11392872Y60388675D01*
X11365000Y60321385D01*
X11330686Y60257189D01*
X11309557Y60187535D01*
X11281683Y60120242D01*
X11267473Y60048804D01*
X11246344Y59979150D01*
X11239209Y59906711D01*
X11225000Y59835275D01*
X11225000Y59544725D01*
X11225001Y59544720D01*
X11225000Y44595275D01*
X11225000Y44304725D01*
X11239208Y44233298D01*
X11246343Y44160851D01*
X11267474Y44091190D01*
X11281683Y44019758D01*
X11309554Y43952472D01*
X11330685Y43882812D01*
X11365001Y43818611D01*
X11392872Y43751325D01*
X11433333Y43690772D01*
X11467649Y43626570D01*
X11513831Y43570297D01*
X11554293Y43509742D01*
X11605793Y43458242D01*
X11651972Y43401973D01*
X11708243Y43355792D01*
X11759742Y43304293D01*
X11820293Y43263834D01*
X11876569Y43217649D01*
X11940776Y43183330D01*
X12001325Y43142872D01*
X12068606Y43115003D01*
X12132811Y43080685D01*
X12202474Y43059553D01*
X12269758Y43031683D01*
X12341187Y43017475D01*
X12410850Y42996343D01*
X12483300Y42989207D01*
X12554725Y42975000D01*
X12627548Y42975000D01*
X12700000Y42967864D01*
X12772452Y42975000D01*
X12845275Y42975000D01*
X12916701Y42989207D01*
X12989149Y42996343D01*
X13058810Y43017474D01*
X13130242Y43031683D01*
X13197528Y43059554D01*
X13267188Y43080685D01*
X13331389Y43115001D01*
X13398675Y43142872D01*
X13459228Y43183333D01*
X13523430Y43217649D01*
X13579703Y43263831D01*
X13640258Y43304293D01*
X13691758Y43355793D01*
X13748027Y43401972D01*
X13794208Y43458243D01*
X13845707Y43509742D01*
X13886166Y43570293D01*
X13932351Y43626569D01*
X13966670Y43690776D01*
X13970000Y43695759D01*
X13973333Y43690772D01*
X14007649Y43626570D01*
X14053831Y43570297D01*
X14094293Y43509742D01*
X14145793Y43458242D01*
X14191972Y43401973D01*
X14248243Y43355792D01*
X14299742Y43304293D01*
X14360293Y43263834D01*
X14416569Y43217649D01*
X14480776Y43183330D01*
X14541325Y43142872D01*
X14608606Y43115003D01*
X14672811Y43080685D01*
X14742474Y43059553D01*
X14809758Y43031683D01*
X14881187Y43017475D01*
X14950850Y42996343D01*
X15023300Y42989207D01*
X15094725Y42975000D01*
X15167548Y42975000D01*
X15240000Y42967864D01*
X15312452Y42975000D01*
X15385275Y42975000D01*
X15456701Y42989207D01*
X15529149Y42996343D01*
X15598810Y43017474D01*
X15670242Y43031683D01*
X15737528Y43059554D01*
X15807188Y43080685D01*
X15871389Y43115001D01*
X15938675Y43142872D01*
X15999228Y43183333D01*
X16063430Y43217649D01*
X16119703Y43263831D01*
X16180258Y43304293D01*
X16231758Y43355793D01*
X16288027Y43401972D01*
X16334208Y43458243D01*
X16385707Y43509742D01*
X16426166Y43570293D01*
X16472351Y43626569D01*
X16493016Y43665231D01*
X16497330Y43658776D01*
X16531649Y43594569D01*
X16577835Y43538291D01*
X16618293Y43477742D01*
X16669788Y43426247D01*
X16715972Y43369972D01*
X16772247Y43323788D01*
X16823742Y43272293D01*
X16884291Y43231835D01*
X16940569Y43185649D01*
X17004776Y43151330D01*
X17065325Y43110872D01*
X17132606Y43083003D01*
X17196811Y43048685D01*
X17266474Y43027553D01*
X17333758Y42999683D01*
X17405187Y42985475D01*
X17474850Y42964343D01*
X17547299Y42957207D01*
X17618725Y42943000D01*
X18705010Y42943000D01*
X18705010Y37978986D01*
X18603430Y38062350D01*
X18376488Y38183653D01*
X15163729Y41396411D01*
X15128495Y41439344D01*
X14957191Y41579929D01*
X14761753Y41684393D01*
X14549689Y41748722D01*
X14384415Y41765000D01*
X14384412Y41765000D01*
X14329151Y41770443D01*
X14273890Y41765000D01*
X13914736Y41765000D01*
X13749462Y41748722D01*
X13537398Y41684393D01*
X13521883Y41676100D01*
X11238076Y41676100D01*
X11222563Y41684392D01*
X11122135Y41714857D01*
X10202580Y42634411D01*
X10167346Y42677344D01*
X10048927Y42774528D01*
X10019707Y42818258D01*
X9814258Y43023707D01*
X9628241Y43148000D01*
X9814258Y43272293D01*
X10019707Y43477742D01*
X10181128Y43719325D01*
X10292317Y43987758D01*
X10349000Y44272725D01*
X10349000Y44563275D01*
X10292317Y44848242D01*
X10181128Y45116675D01*
X10019707Y45358258D01*
X9814258Y45563707D01*
X9628241Y45688000D01*
X9814258Y45812293D01*
X10019707Y46017742D01*
X10181128Y46259325D01*
X10292317Y46527758D01*
X10349000Y46812725D01*
X10349000Y47103275D01*
X10292317Y47388242D01*
X10181128Y47656675D01*
X10019707Y47898258D01*
X9814258Y48103707D01*
X9572675Y48265128D01*
X9304242Y48376317D01*
X9019275Y48433000D01*
X8728725Y48433000D01*
X8443758Y48376317D01*
X8175325Y48265128D01*
X7933742Y48103707D01*
X7728293Y47898258D01*
X7566872Y47656675D01*
X7455683Y47388242D01*
X7399000Y47103275D01*
X7399000Y46812725D01*
X7455683Y46527758D01*
X7566872Y46259325D01*
X7728293Y46017742D01*
X7933742Y45812293D01*
X8119759Y45688000D01*
X7933742Y45563707D01*
X7728293Y45358258D01*
X7566872Y45116675D01*
X7455683Y44848242D01*
X7399000Y44563275D01*
X7399000Y44272725D01*
X7455683Y43987758D01*
X7566872Y43719325D01*
X7728293Y43477742D01*
X7933742Y43272293D01*
X8119759Y43148000D01*
X7933742Y43023707D01*
X7728293Y42818258D01*
X7566872Y42576675D01*
X7455683Y42308242D01*
X7399000Y42023275D01*
X7399000Y41732725D01*
X7455683Y41447758D01*
X7566872Y41179325D01*
X7728293Y40937742D01*
X7933742Y40732293D01*
X8119759Y40608000D01*
X7933742Y40483707D01*
X7728293Y40278258D01*
X7566872Y40036675D01*
X7455683Y39768242D01*
X7399000Y39483275D01*
X7399000Y39192725D01*
X7455683Y38907758D01*
X7566872Y38639325D01*
X7728293Y38397742D01*
X7933742Y38192293D01*
X8119759Y38068000D01*
X8114776Y38064670D01*
X8050569Y38030351D01*
X7994291Y37984165D01*
X7933742Y37943707D01*
X7882247Y37892212D01*
X7825972Y37846028D01*
X7779788Y37789753D01*
X7728293Y37738258D01*
X7687835Y37677709D01*
X7641649Y37621431D01*
X7607330Y37557224D01*
X7566872Y37496675D01*
X7539003Y37429394D01*
X7504685Y37365189D01*
X7483553Y37295526D01*
X7455683Y37228242D01*
X7441475Y37156813D01*
X7420343Y37087150D01*
X7413207Y37014700D01*
X7399000Y36943275D01*
X7399000Y36870452D01*
X7391864Y36798000D01*
X7399000Y36725548D01*
X7399000Y36652725D01*
X7413207Y36581300D01*
X7420343Y36508850D01*
X7441475Y36439187D01*
X7455683Y36367758D01*
X7483553Y36300474D01*
X7504685Y36230811D01*
X7539003Y36166606D01*
X7566872Y36099325D01*
X7607330Y36038776D01*
X7641649Y35974569D01*
X7687835Y35918291D01*
X7728293Y35857742D01*
X7779788Y35806247D01*
X7825972Y35749972D01*
X7882247Y35703788D01*
X7933742Y35652293D01*
X7994291Y35611835D01*
X8050569Y35565649D01*
X8114776Y35531330D01*
X8119759Y35528000D01*
X7933742Y35403707D01*
X7728293Y35198258D01*
X7566872Y34956675D01*
X7455683Y34688242D01*
X7399000Y34403275D01*
X7399000Y34112725D01*
X7455683Y33827758D01*
X7566872Y33559325D01*
X7728293Y33317742D01*
X7933742Y33112293D01*
X8119759Y32988000D01*
X7933742Y32863707D01*
X7728293Y32658258D01*
X7566872Y32416675D01*
X7455683Y32148242D01*
X7399000Y31863275D01*
X7399000Y31572725D01*
X7455683Y31287758D01*
X7566872Y31019325D01*
X7728293Y30777742D01*
X7933742Y30572293D01*
X8119759Y30448000D01*
X7933742Y30323707D01*
X7728293Y30118258D01*
X7566872Y29876675D01*
X7455683Y29608242D01*
X7399000Y29323275D01*
X7399000Y29032725D01*
X7455683Y28747758D01*
X7566872Y28479325D01*
X7728293Y28237742D01*
X7853035Y28113000D01*
X6236725Y28113000D01*
X6165299Y28098793D01*
X6092850Y28091657D01*
X6023187Y28070525D01*
X5951758Y28056317D01*
X5884474Y28028447D01*
X5814811Y28007315D01*
X5750606Y27972997D01*
X5683325Y27945128D01*
X5622776Y27904670D01*
X5558569Y27870351D01*
X5502291Y27824165D01*
X5441742Y27783707D01*
X5390247Y27732212D01*
X5333972Y27686028D01*
X5287788Y27629753D01*
X5236293Y27578258D01*
X5195835Y27517709D01*
X5149649Y27461431D01*
X5115330Y27397224D01*
X5074872Y27336675D01*
X5047003Y27269394D01*
X5012685Y27205189D01*
X4991553Y27135526D01*
X4963683Y27068242D01*
X4949475Y26996813D01*
X4928343Y26927150D01*
X4921207Y26854700D01*
X4907000Y26783275D01*
X4907000Y26710452D01*
X4899864Y26638000D01*
X400000Y26638000D01*
X400000Y66040000D01*
X8677864Y66040000D01*
X8685000Y65967548D01*
X8685000Y65894725D01*
X8699207Y65823300D01*
X8706343Y65750850D01*
X8727475Y65681187D01*
X8741683Y65609758D01*
X8769553Y65542474D01*
X8790685Y65472811D01*
X8825003Y65408606D01*
X8852872Y65341325D01*
X8893330Y65280776D01*
X8927649Y65216569D01*
X8973835Y65160291D01*
X9014293Y65099742D01*
X9065788Y65048247D01*
X9111972Y64991972D01*
X9168247Y64945788D01*
X9219742Y64894293D01*
X9280291Y64853835D01*
X9336569Y64807649D01*
X9400776Y64773330D01*
X9461325Y64732872D01*
X9528606Y64705003D01*
X9592811Y64670685D01*
X9662474Y64649553D01*
X9729758Y64621683D01*
X9801187Y64607475D01*
X9870850Y64586343D01*
X9943299Y64579207D01*
X10014725Y64565000D01*
X14115275Y64565000D01*
X14186701Y64579207D01*
X14259150Y64586343D01*
X14328813Y64607475D01*
X14400242Y64621683D01*
X14467526Y64649553D01*
X14537189Y64670685D01*
X14601394Y64705003D01*
X14668675Y64732872D01*
X14729224Y64773330D01*
X14793431Y64807649D01*
X14849709Y64853835D01*
X14910258Y64894293D01*
X14961753Y64945788D01*
X15018028Y64991972D01*
X15064212Y65048247D01*
X15115707Y65099742D01*
X15156165Y65160291D01*
X15202351Y65216569D01*
X15236670Y65280776D01*
X15277128Y65341325D01*
X15304997Y65408606D01*
X15339315Y65472811D01*
X15360447Y65542474D01*
X15388317Y65609758D01*
X15402525Y65681187D01*
X15423657Y65750850D01*
X15430793Y65823300D01*
X15445000Y65894725D01*
X15445000Y65967548D01*
X15452136Y66040000D01*
X15445000Y66112452D01*
X15445000Y66185275D01*
X15430793Y66256700D01*
X15423657Y66329150D01*
X15402525Y66398813D01*
X15388317Y66470242D01*
X15360447Y66537526D01*
X15339315Y66607189D01*
X15304997Y66671394D01*
X15277128Y66738675D01*
X15236670Y66799224D01*
X15202351Y66863431D01*
X15156165Y66919709D01*
X15115707Y66980258D01*
X15064212Y67031753D01*
X15018028Y67088028D01*
X14961753Y67134212D01*
X14910258Y67185707D01*
X14849709Y67226165D01*
X14793431Y67272351D01*
X14729224Y67306670D01*
X14668675Y67347128D01*
X14601394Y67374997D01*
X14537189Y67409315D01*
X14467526Y67430447D01*
X14400242Y67458317D01*
X14328813Y67472525D01*
X14259150Y67493657D01*
X14186701Y67500793D01*
X14115275Y67515000D01*
X10014725Y67515000D01*
X9943299Y67500793D01*
X9870850Y67493657D01*
X9801187Y67472525D01*
X9729758Y67458317D01*
X9662474Y67430447D01*
X9592811Y67409315D01*
X9528606Y67374997D01*
X9461325Y67347128D01*
X9400776Y67306670D01*
X9336569Y67272351D01*
X9280291Y67226165D01*
X9219742Y67185707D01*
X9168247Y67134212D01*
X9111972Y67088028D01*
X9065788Y67031753D01*
X9014293Y66980258D01*
X8973835Y66919709D01*
X8927649Y66863431D01*
X8893330Y66799224D01*
X8852872Y66738675D01*
X8825003Y66671394D01*
X8790685Y66607189D01*
X8769553Y66537526D01*
X8741683Y66470242D01*
X8727475Y66398813D01*
X8706343Y66329150D01*
X8699207Y66256700D01*
X8685000Y66185275D01*
X8685000Y66112452D01*
X8677864Y66040000D01*
X400000Y66040000D01*
X400000Y90170000D01*
X15027864Y90170000D01*
X15035000Y90097548D01*
X15035000Y90024725D01*
X15049207Y89953300D01*
X15056343Y89880850D01*
X15077475Y89811187D01*
X15091683Y89739758D01*
X15119553Y89672474D01*
X15140685Y89602811D01*
X15175003Y89538606D01*
X15202872Y89471325D01*
X15243330Y89410776D01*
X15277649Y89346569D01*
X15323835Y89290291D01*
X15364293Y89229742D01*
X15415787Y89178248D01*
X15461972Y89121972D01*
X15518247Y89075788D01*
X15569742Y89024293D01*
X15630291Y88983835D01*
X15686569Y88937649D01*
X15750776Y88903330D01*
X15811325Y88862872D01*
X15878606Y88835003D01*
X15942811Y88800685D01*
X16012474Y88779553D01*
X16079758Y88751683D01*
X16151187Y88737475D01*
X16220850Y88716343D01*
X16293299Y88709207D01*
X16364725Y88695000D01*
X18845001Y88695000D01*
X18845000Y86505275D01*
X18845000Y86214725D01*
X18859208Y86143298D01*
X18866343Y86070851D01*
X18887474Y86001190D01*
X18901683Y85929758D01*
X18929554Y85862472D01*
X18950685Y85792812D01*
X18985001Y85728611D01*
X19012872Y85661325D01*
X19053333Y85600772D01*
X19087649Y85536570D01*
X19133831Y85480297D01*
X19174293Y85419742D01*
X19225793Y85368242D01*
X19271972Y85311973D01*
X19328243Y85265792D01*
X19379742Y85214293D01*
X19440293Y85173834D01*
X19496569Y85127649D01*
X19560776Y85093330D01*
X19621325Y85052872D01*
X19688606Y85025003D01*
X19752811Y84990685D01*
X19822474Y84969553D01*
X19889758Y84941683D01*
X19961187Y84927475D01*
X20030850Y84906343D01*
X20103300Y84899207D01*
X20174725Y84885000D01*
X20247548Y84885000D01*
X20320000Y84877864D01*
X20392452Y84885000D01*
X20465275Y84885000D01*
X20536701Y84899207D01*
X20609149Y84906343D01*
X20678810Y84927474D01*
X20750242Y84941683D01*
X20817528Y84969554D01*
X20887188Y84990685D01*
X20951389Y85025001D01*
X21018675Y85052872D01*
X21079228Y85093333D01*
X21143430Y85127649D01*
X21199703Y85173831D01*
X21260258Y85214293D01*
X21311758Y85265793D01*
X21368027Y85311972D01*
X21414208Y85368243D01*
X21465707Y85419742D01*
X21506166Y85480293D01*
X21552351Y85536569D01*
X21586670Y85600776D01*
X21627128Y85661325D01*
X21654997Y85728606D01*
X21689315Y85792811D01*
X21710447Y85862474D01*
X21738317Y85929758D01*
X21752525Y86001187D01*
X21773657Y86070850D01*
X21780793Y86143299D01*
X21795000Y86214725D01*
X21795000Y88289036D01*
X22581753Y89075788D01*
X22638028Y89121972D01*
X22684213Y89178248D01*
X22735707Y89229742D01*
X22776165Y89290291D01*
X22822351Y89346569D01*
X22856670Y89410776D01*
X22897128Y89471325D01*
X22924997Y89538606D01*
X22959315Y89602811D01*
X22980447Y89672474D01*
X23008317Y89739758D01*
X23022525Y89811187D01*
X23043657Y89880850D01*
X23050793Y89953300D01*
X23065000Y90024725D01*
X23065000Y90097548D01*
X23072136Y90170000D01*
X23065000Y90242452D01*
X23065000Y90315275D01*
X23050793Y90386700D01*
X23043657Y90459150D01*
X23022525Y90528813D01*
X23008317Y90600242D01*
X22980447Y90667526D01*
X22959315Y90737189D01*
X22924997Y90801394D01*
X22897128Y90868675D01*
X22856670Y90929224D01*
X22822351Y90993431D01*
X22776165Y91049709D01*
X22735707Y91110258D01*
X22684212Y91161753D01*
X22638028Y91218028D01*
X22617348Y91235000D01*
X24275275Y91235000D01*
X24346701Y91249207D01*
X24419150Y91256343D01*
X24488813Y91277475D01*
X24560242Y91291683D01*
X24627526Y91319553D01*
X24697189Y91340685D01*
X24761394Y91375003D01*
X24828675Y91402872D01*
X24889224Y91443330D01*
X24953431Y91477649D01*
X25009709Y91523835D01*
X25070258Y91564293D01*
X25121753Y91615788D01*
X25178028Y91661972D01*
X25224214Y91718249D01*
X25275707Y91769742D01*
X25316165Y91830291D01*
X25362351Y91886569D01*
X25396670Y91950776D01*
X25400000Y91955759D01*
X25403330Y91950776D01*
X25437649Y91886569D01*
X25483835Y91830291D01*
X25524293Y91769742D01*
X25575786Y91718249D01*
X25621972Y91661972D01*
X25678247Y91615788D01*
X25729742Y91564293D01*
X25790291Y91523835D01*
X25846569Y91477649D01*
X25910776Y91443330D01*
X25971325Y91402872D01*
X26038606Y91375003D01*
X26102811Y91340685D01*
X26172474Y91319553D01*
X26239758Y91291683D01*
X26311187Y91277475D01*
X26380850Y91256343D01*
X26453299Y91249207D01*
X26524725Y91235000D01*
X28599036Y91235000D01*
X29005000Y90829035D01*
X29005000Y90242452D01*
X28997864Y90170000D01*
X29005000Y90097548D01*
X29005000Y90024725D01*
X29019207Y89953300D01*
X29026343Y89880850D01*
X29047475Y89811187D01*
X29061683Y89739758D01*
X29089553Y89672474D01*
X29110685Y89602811D01*
X29145003Y89538606D01*
X29172872Y89471325D01*
X29213330Y89410776D01*
X29247649Y89346569D01*
X29293835Y89290291D01*
X29334293Y89229742D01*
X29385787Y89178248D01*
X29431972Y89121972D01*
X29488247Y89075788D01*
X29539742Y89024293D01*
X29600291Y88983835D01*
X29656569Y88937649D01*
X29720776Y88903330D01*
X29781325Y88862872D01*
X29848606Y88835003D01*
X29912811Y88800685D01*
X29982474Y88779553D01*
X30049758Y88751683D01*
X30121187Y88737475D01*
X30190850Y88716343D01*
X30263299Y88709207D01*
X30334725Y88695000D01*
X30407548Y88695000D01*
X30480000Y88687864D01*
X30552452Y88695000D01*
X33165275Y88695000D01*
X33236701Y88709207D01*
X33309150Y88716343D01*
X33378813Y88737475D01*
X33450242Y88751683D01*
X33517526Y88779553D01*
X33587189Y88800685D01*
X33651394Y88835003D01*
X33718675Y88862872D01*
X33779224Y88903330D01*
X33843431Y88937649D01*
X33899709Y88983835D01*
X33960258Y89024293D01*
X34011753Y89075788D01*
X34068028Y89121972D01*
X34114213Y89178248D01*
X34165707Y89229742D01*
X34206165Y89290291D01*
X34252351Y89346569D01*
X34286670Y89410776D01*
X34327128Y89471325D01*
X34354997Y89538606D01*
X34389315Y89602811D01*
X34410447Y89672474D01*
X34438317Y89739758D01*
X34452525Y89811187D01*
X34473657Y89880850D01*
X34480793Y89953300D01*
X34495000Y90024725D01*
X34495000Y90097548D01*
X34502136Y90170000D01*
X34495000Y90242452D01*
X34495000Y90315275D01*
X34480793Y90386700D01*
X34473657Y90459150D01*
X34452525Y90528813D01*
X34438317Y90600242D01*
X34410447Y90667526D01*
X34389315Y90737189D01*
X34354997Y90801394D01*
X34327128Y90868675D01*
X34286670Y90929224D01*
X34252351Y90993431D01*
X34206165Y91049709D01*
X34165707Y91110258D01*
X34114212Y91161753D01*
X34068028Y91218028D01*
X34011752Y91264213D01*
X33960258Y91315707D01*
X33899709Y91356165D01*
X33843431Y91402351D01*
X33779224Y91436670D01*
X33718675Y91477128D01*
X33651394Y91504997D01*
X33587189Y91539315D01*
X33517526Y91560447D01*
X33450242Y91588317D01*
X33378813Y91602525D01*
X33309150Y91623657D01*
X33236701Y91630793D01*
X33165275Y91645000D01*
X31941945Y91645000D01*
X31933657Y91729150D01*
X31849315Y92007189D01*
X31712351Y92263431D01*
X31642507Y92348535D01*
X31574213Y92431752D01*
X31574208Y92431757D01*
X31528027Y92488028D01*
X31471757Y92534207D01*
X31101443Y92904521D01*
X42475000Y92904521D01*
X42475000Y92515479D01*
X42550898Y92133914D01*
X42699778Y91774487D01*
X42915917Y91451011D01*
X43191011Y91175917D01*
X43514487Y90959778D01*
X43873914Y90810898D01*
X44255479Y90735000D01*
X44644521Y90735000D01*
X45026086Y90810898D01*
X45385513Y90959778D01*
X45708989Y91175917D01*
X45984083Y91451011D01*
X46200222Y91774487D01*
X46349102Y92133914D01*
X46425000Y92515479D01*
X46425000Y92904521D01*
X46349102Y93286086D01*
X46200222Y93645513D01*
X45984083Y93968989D01*
X45708989Y94244083D01*
X45385513Y94460222D01*
X45026086Y94609102D01*
X44644521Y94685000D01*
X44255479Y94685000D01*
X43873914Y94609102D01*
X43514487Y94460222D01*
X43191011Y94244083D01*
X42915917Y93968989D01*
X42699778Y93645513D01*
X42550898Y93286086D01*
X42475000Y92904521D01*
X31101443Y92904521D01*
X30304216Y93701748D01*
X30258028Y93758028D01*
X30033431Y93942351D01*
X29777189Y94079315D01*
X29499150Y94163657D01*
X29282452Y94185000D01*
X29282445Y94185000D01*
X29210000Y94192135D01*
X29137555Y94185000D01*
X26524725Y94185000D01*
X26453299Y94170793D01*
X26380850Y94163657D01*
X26311187Y94142525D01*
X26239758Y94128317D01*
X26172474Y94100447D01*
X26102811Y94079315D01*
X26038606Y94044997D01*
X25971325Y94017128D01*
X25910776Y93976670D01*
X25846569Y93942351D01*
X25790291Y93896165D01*
X25729742Y93855707D01*
X25678248Y93804213D01*
X25621972Y93758028D01*
X25575788Y93701753D01*
X25524293Y93650258D01*
X25483835Y93589709D01*
X25437649Y93533431D01*
X25403330Y93469224D01*
X25400000Y93464241D01*
X25396670Y93469224D01*
X25362351Y93533431D01*
X25316165Y93589709D01*
X25275707Y93650258D01*
X25224212Y93701753D01*
X25178028Y93758028D01*
X25121752Y93804213D01*
X25070258Y93855707D01*
X25009709Y93896165D01*
X24953431Y93942351D01*
X24889224Y93976670D01*
X24828675Y94017128D01*
X24761394Y94044997D01*
X24697189Y94079315D01*
X24627526Y94100447D01*
X24560242Y94128317D01*
X24488813Y94142525D01*
X24419150Y94163657D01*
X24346701Y94170793D01*
X24275275Y94185000D01*
X21444725Y94185000D01*
X21373299Y94170793D01*
X21300850Y94163657D01*
X21231187Y94142525D01*
X21159758Y94128317D01*
X21092474Y94100447D01*
X21022811Y94079315D01*
X20958606Y94044997D01*
X20891325Y94017128D01*
X20830776Y93976670D01*
X20766569Y93942351D01*
X20710291Y93896165D01*
X20649742Y93855707D01*
X20598248Y93804213D01*
X20541972Y93758028D01*
X20495788Y93701753D01*
X20444293Y93650258D01*
X20403835Y93589709D01*
X20357649Y93533431D01*
X20323330Y93469224D01*
X20282872Y93408675D01*
X20255003Y93341394D01*
X20220685Y93277189D01*
X20199553Y93207526D01*
X20171683Y93140242D01*
X20157475Y93068813D01*
X20136343Y92999150D01*
X20129207Y92926700D01*
X20115000Y92855275D01*
X20115000Y92782452D01*
X20107864Y92710000D01*
X20115000Y92637548D01*
X20115000Y92564725D01*
X20129207Y92493300D01*
X20136343Y92420850D01*
X20157475Y92351187D01*
X20171683Y92279758D01*
X20199553Y92212474D01*
X20220685Y92142811D01*
X20255003Y92078606D01*
X20282872Y92011325D01*
X20323330Y91950776D01*
X20357649Y91886569D01*
X20403835Y91830291D01*
X20444293Y91769742D01*
X20495786Y91718249D01*
X20541972Y91661972D01*
X20562652Y91645000D01*
X16364725Y91645000D01*
X16293299Y91630793D01*
X16220850Y91623657D01*
X16151187Y91602525D01*
X16079758Y91588317D01*
X16012474Y91560447D01*
X15942811Y91539315D01*
X15878606Y91504997D01*
X15811325Y91477128D01*
X15750776Y91436670D01*
X15686569Y91402351D01*
X15630291Y91356165D01*
X15569742Y91315707D01*
X15518248Y91264213D01*
X15461972Y91218028D01*
X15415788Y91161753D01*
X15364293Y91110258D01*
X15323835Y91049709D01*
X15277649Y90993431D01*
X15243330Y90929224D01*
X15202872Y90868675D01*
X15175003Y90801394D01*
X15140685Y90737189D01*
X15119553Y90667526D01*
X15091683Y90600242D01*
X15077475Y90528813D01*
X15056343Y90459150D01*
X15049207Y90386700D01*
X15035000Y90315275D01*
X15035000Y90242452D01*
X15027864Y90170000D01*
X400000Y90170000D01*
X400000Y92904521D01*
X1835000Y92904521D01*
X1835000Y92515479D01*
X1910898Y92133914D01*
X2059778Y91774487D01*
X2275917Y91451011D01*
X2551011Y91175917D01*
X2874487Y90959778D01*
X3233914Y90810898D01*
X3615479Y90735000D01*
X4004521Y90735000D01*
X4386086Y90810898D01*
X4745513Y90959778D01*
X5068989Y91175917D01*
X5344083Y91451011D01*
X5560222Y91774487D01*
X5709102Y92133914D01*
X5785000Y92515479D01*
X5785000Y92904521D01*
X5709102Y93286086D01*
X5560222Y93645513D01*
X5344083Y93968989D01*
X5068989Y94244083D01*
X4745513Y94460222D01*
X4386086Y94609102D01*
X4004521Y94685000D01*
X3615479Y94685000D01*
X3233914Y94609102D01*
X2874487Y94460222D01*
X2551011Y94244083D01*
X2275917Y93968989D01*
X2059778Y93645513D01*
X1910898Y93286086D01*
X1835000Y92904521D01*
X400000Y92904521D01*
X400000Y96120000D01*
X47860000Y96120000D01*
X47860001Y400000D01*
G37*
X47860001Y400000D02*
X400000Y400000D01*
X400000Y4004521D01*
X1835000Y4004521D01*
X1835000Y3615479D01*
X1910898Y3233914D01*
X2059778Y2874487D01*
X2275917Y2551011D01*
X2551011Y2275917D01*
X2874487Y2059778D01*
X3233914Y1910898D01*
X3615479Y1835000D01*
X4004521Y1835000D01*
X4386086Y1910898D01*
X4745513Y2059778D01*
X5068989Y2275917D01*
X5344083Y2551011D01*
X5560222Y2874487D01*
X5709102Y3233914D01*
X5785000Y3615479D01*
X5785000Y4004521D01*
X42475000Y4004521D01*
X42475000Y3615479D01*
X42550898Y3233914D01*
X42699778Y2874487D01*
X42915917Y2551011D01*
X43191011Y2275917D01*
X43514487Y2059778D01*
X43873914Y1910898D01*
X44255479Y1835000D01*
X44644521Y1835000D01*
X45026086Y1910898D01*
X45385513Y2059778D01*
X45708989Y2275917D01*
X45984083Y2551011D01*
X46200222Y2874487D01*
X46349102Y3233914D01*
X46425000Y3615479D01*
X46425000Y4004521D01*
X46349102Y4386086D01*
X46200222Y4745513D01*
X45984083Y5068989D01*
X45708989Y5344083D01*
X45385513Y5560222D01*
X45026086Y5709102D01*
X44644521Y5785000D01*
X44255479Y5785000D01*
X43873914Y5709102D01*
X43514487Y5560222D01*
X43191011Y5344083D01*
X42915917Y5068989D01*
X42699778Y4745513D01*
X42550898Y4386086D01*
X42475000Y4004521D01*
X5785000Y4004521D01*
X5709102Y4386086D01*
X5560222Y4745513D01*
X5344083Y5068989D01*
X5068989Y5344083D01*
X4745513Y5560222D01*
X4386086Y5709102D01*
X4004521Y5785000D01*
X3615479Y5785000D01*
X3233914Y5709102D01*
X2874487Y5560222D01*
X2551011Y5344083D01*
X2275917Y5068989D01*
X2059778Y4745513D01*
X1910898Y4386086D01*
X1835000Y4004521D01*
X400000Y4004521D01*
X400000Y26638000D01*
X4899864Y26638000D01*
X4907000Y26565549D01*
X4907000Y26492725D01*
X4921207Y26421300D01*
X4928343Y26348850D01*
X4949475Y26279187D01*
X4963683Y26207758D01*
X4991553Y26140474D01*
X5012685Y26070811D01*
X5047003Y26006606D01*
X5074872Y25939325D01*
X5115330Y25878776D01*
X5149649Y25814569D01*
X5195835Y25758291D01*
X5236293Y25697742D01*
X5287788Y25646247D01*
X5333972Y25589972D01*
X5390247Y25543788D01*
X5441742Y25492293D01*
X5502291Y25451835D01*
X5558569Y25405649D01*
X5622776Y25371330D01*
X5683325Y25330872D01*
X5750606Y25303003D01*
X5814811Y25268685D01*
X5884474Y25247553D01*
X5951758Y25219683D01*
X6023187Y25205475D01*
X6092850Y25184343D01*
X6165299Y25177207D01*
X6236725Y25163000D01*
X7846652Y25163000D01*
X7825972Y25146028D01*
X7779788Y25089753D01*
X7728293Y25038258D01*
X7687835Y24977709D01*
X7641649Y24921431D01*
X7607330Y24857224D01*
X7566872Y24796675D01*
X7539003Y24729394D01*
X7504685Y24665189D01*
X7483553Y24595526D01*
X7455683Y24528242D01*
X7441475Y24456813D01*
X7420343Y24387150D01*
X7413207Y24314700D01*
X7399000Y24243275D01*
X7399000Y24170452D01*
X7391864Y24098000D01*
X7399000Y24025548D01*
X7399000Y23952725D01*
X7413207Y23881300D01*
X7420343Y23808850D01*
X7441475Y23739187D01*
X7455683Y23667758D01*
X7483553Y23600474D01*
X7504685Y23530811D01*
X7539003Y23466606D01*
X7566872Y23399325D01*
X7607330Y23338776D01*
X7641649Y23274569D01*
X7687835Y23218291D01*
X7728293Y23157742D01*
X7779786Y23106249D01*
X7825972Y23049972D01*
X7882247Y23003788D01*
X7933742Y22952293D01*
X7994291Y22911835D01*
X8050569Y22865649D01*
X8114776Y22831330D01*
X8119759Y22828000D01*
X7933742Y22703707D01*
X7728293Y22498258D01*
X7566872Y22256675D01*
X7455683Y21988242D01*
X7399000Y21703275D01*
X7399000Y21412725D01*
X7455683Y21127758D01*
X7566872Y20859325D01*
X7728293Y20617742D01*
X7933742Y20412293D01*
X8119759Y20288000D01*
X7933742Y20163707D01*
X7728293Y19958258D01*
X7566872Y19716675D01*
X7455683Y19448242D01*
X7399000Y19163275D01*
X7399000Y18872725D01*
X7455683Y18587758D01*
X7566872Y18319325D01*
X7728293Y18077742D01*
X7933742Y17872293D01*
X8119759Y17748000D01*
X7933742Y17623707D01*
X7728293Y17418258D01*
X7566872Y17176675D01*
X7455683Y16908242D01*
X7399000Y16623275D01*
X7399000Y16332725D01*
X7455683Y16047758D01*
X7566872Y15779325D01*
X7728293Y15537742D01*
X7933742Y15332293D01*
X8175325Y15170872D01*
X8443758Y15059683D01*
X8728725Y15003000D01*
X9019275Y15003000D01*
X9304242Y15059683D01*
X9572675Y15170872D01*
X9814258Y15332293D01*
X10019707Y15537742D01*
X10181128Y15779325D01*
X10292317Y16047758D01*
X10349000Y16332725D01*
X10349000Y16623275D01*
X10292317Y16908242D01*
X10181128Y17176675D01*
X10019707Y17418258D01*
X9814258Y17623707D01*
X9628241Y17748000D01*
X9814258Y17872293D01*
X10019707Y18077742D01*
X10181128Y18319325D01*
X10292317Y18587758D01*
X10349000Y18872725D01*
X10349000Y19163275D01*
X10292317Y19448242D01*
X10181128Y19716675D01*
X10019707Y19958258D01*
X9814258Y20163707D01*
X9628241Y20288000D01*
X9814258Y20412293D01*
X10019707Y20617742D01*
X10181128Y20859325D01*
X10292317Y21127758D01*
X10349000Y21412725D01*
X10349000Y21703275D01*
X10292317Y21988242D01*
X10181128Y22256675D01*
X10173342Y22268328D01*
X11554293Y20887376D01*
X11605788Y20835881D01*
X11651972Y20779606D01*
X11708247Y20733422D01*
X11759742Y20681927D01*
X11820291Y20641469D01*
X11876569Y20595283D01*
X11940776Y20560964D01*
X12001325Y20520506D01*
X12068606Y20492637D01*
X12132811Y20458319D01*
X12202474Y20437187D01*
X12269758Y20409317D01*
X12341186Y20395109D01*
X12410849Y20373977D01*
X12441279Y20370980D01*
X12483299Y20366841D01*
X12554725Y20352634D01*
X12627554Y20352634D01*
X12699999Y20345499D01*
X12772444Y20352634D01*
X12845275Y20352634D01*
X12916701Y20366841D01*
X12989150Y20373977D01*
X13058813Y20395109D01*
X13130242Y20409317D01*
X13197526Y20437187D01*
X13267189Y20458319D01*
X13331394Y20492637D01*
X13398675Y20520506D01*
X13459224Y20560964D01*
X13523431Y20595283D01*
X13579709Y20641469D01*
X13640258Y20681927D01*
X13691753Y20733422D01*
X13748028Y20779606D01*
X13794212Y20835881D01*
X13845707Y20887376D01*
X13886165Y20947925D01*
X13932351Y21004203D01*
X13966670Y21068410D01*
X14007128Y21128959D01*
X14034997Y21196240D01*
X14069315Y21260445D01*
X14090447Y21330108D01*
X14118317Y21397392D01*
X14132525Y21468821D01*
X14153657Y21538484D01*
X14160793Y21610934D01*
X14175000Y21682359D01*
X14175000Y21755182D01*
X14182136Y21827634D01*
X14175000Y21900086D01*
X14175000Y21972909D01*
X14160793Y22044334D01*
X14153657Y22116784D01*
X14132525Y22186447D01*
X14118317Y22257876D01*
X14090447Y22325160D01*
X14069315Y22394823D01*
X14034997Y22459028D01*
X14007128Y22526309D01*
X13966670Y22586858D01*
X13932351Y22651065D01*
X13886165Y22707343D01*
X13845707Y22767892D01*
X13794212Y22819387D01*
X13748028Y22875662D01*
X13691753Y22921846D01*
X13640258Y22973341D01*
X11523850Y25089748D01*
X11477662Y25146028D01*
X11253065Y25330351D01*
X10996823Y25467315D01*
X10718784Y25551657D01*
X10502086Y25573000D01*
X10502079Y25573000D01*
X10429634Y25580135D01*
X10357189Y25573000D01*
X9901348Y25573000D01*
X9922028Y25589972D01*
X9968212Y25646247D01*
X10019707Y25697742D01*
X10060165Y25758291D01*
X10106351Y25814569D01*
X10140670Y25878776D01*
X10181128Y25939325D01*
X10208997Y26006606D01*
X10243315Y26070811D01*
X10264447Y26140474D01*
X10292317Y26207758D01*
X10306525Y26279187D01*
X10327657Y26348850D01*
X10334793Y26421300D01*
X10349000Y26492725D01*
X10349000Y26565549D01*
X10356136Y26638000D01*
X10349000Y26710452D01*
X10349000Y26783275D01*
X10344157Y26807623D01*
X10327657Y26975149D01*
X10243315Y27253188D01*
X10106351Y27509430D01*
X9922028Y27734028D01*
X9697431Y27918351D01*
X9667597Y27934297D01*
X9814258Y28032293D01*
X10019707Y28237742D01*
X10181128Y28479325D01*
X10292317Y28747758D01*
X10349000Y29032725D01*
X10349000Y29323275D01*
X10292317Y29608242D01*
X10181128Y29876675D01*
X10019707Y30118258D01*
X9814258Y30323707D01*
X9628241Y30448000D01*
X9814258Y30572293D01*
X10019707Y30777742D01*
X10181128Y31019325D01*
X10292317Y31287758D01*
X10349000Y31572725D01*
X10349000Y31863275D01*
X10292317Y32148242D01*
X10181128Y32416675D01*
X10019707Y32658258D01*
X9814258Y32863707D01*
X9628241Y32988000D01*
X9814258Y33112293D01*
X10019707Y33317742D01*
X10181128Y33559325D01*
X10292317Y33827758D01*
X10349000Y34112725D01*
X10349000Y34403275D01*
X10292317Y34688242D01*
X10181128Y34956675D01*
X10019707Y35198258D01*
X9894965Y35323000D01*
X11225000Y35323000D01*
X11225001Y33165280D01*
X11225000Y33165275D01*
X11225000Y32874725D01*
X11239209Y32803289D01*
X11246344Y32730850D01*
X11267473Y32661196D01*
X11281683Y32589758D01*
X11309557Y32522465D01*
X11330686Y32452811D01*
X11365000Y32388615D01*
X11392872Y32321325D01*
X11433335Y32260768D01*
X11467650Y32196569D01*
X11513831Y32140298D01*
X11554293Y32079742D01*
X11605794Y32028241D01*
X11651973Y31971972D01*
X11708242Y31925793D01*
X11759742Y31874293D01*
X11820297Y31833831D01*
X11876570Y31787649D01*
X11940772Y31753333D01*
X12001325Y31712872D01*
X12068611Y31685001D01*
X12132812Y31650685D01*
X12202472Y31629554D01*
X12269758Y31601683D01*
X12341190Y31587474D01*
X12410851Y31566343D01*
X12483299Y31559207D01*
X12554725Y31545000D01*
X12627548Y31545000D01*
X12700000Y31537864D01*
X12772452Y31545000D01*
X12845275Y31545000D01*
X12916700Y31559207D01*
X12989150Y31566343D01*
X13058813Y31587475D01*
X13130242Y31601683D01*
X13197526Y31629553D01*
X13267189Y31650685D01*
X13331394Y31685003D01*
X13398675Y31712872D01*
X13459224Y31753330D01*
X13523431Y31787649D01*
X13579709Y31833835D01*
X13640258Y31874293D01*
X13691753Y31925788D01*
X13748028Y31971972D01*
X13794212Y32028247D01*
X13845707Y32079742D01*
X13886165Y32140291D01*
X13932351Y32196569D01*
X13960127Y32248535D01*
X13973333Y32228772D01*
X14007649Y32164570D01*
X14053831Y32108297D01*
X14094293Y32047742D01*
X14145793Y31996242D01*
X14191972Y31939973D01*
X14248243Y31893792D01*
X14299742Y31842293D01*
X14360293Y31801834D01*
X14416569Y31755649D01*
X14480776Y31721330D01*
X14541325Y31680872D01*
X14608606Y31653003D01*
X14672811Y31618685D01*
X14742474Y31597553D01*
X14809758Y31569683D01*
X14881187Y31555475D01*
X14950850Y31534343D01*
X15023300Y31527207D01*
X15094725Y31513000D01*
X15167548Y31513000D01*
X15240000Y31505864D01*
X15312452Y31513000D01*
X15385275Y31513000D01*
X15456701Y31527207D01*
X15529149Y31534343D01*
X15598810Y31555474D01*
X15670242Y31569683D01*
X15737528Y31597554D01*
X15807188Y31618685D01*
X15871389Y31653001D01*
X15938675Y31680872D01*
X15999228Y31721333D01*
X16063430Y31755649D01*
X16119703Y31801831D01*
X16180258Y31842293D01*
X16231758Y31893793D01*
X16288027Y31939972D01*
X16334208Y31996243D01*
X16385707Y32047742D01*
X16426166Y32108293D01*
X16472351Y32164569D01*
X16502000Y32220039D01*
X16531649Y32164570D01*
X16577831Y32108297D01*
X16618293Y32047742D01*
X16669793Y31996242D01*
X16715972Y31939973D01*
X16772243Y31893792D01*
X16823742Y31842293D01*
X16884293Y31801834D01*
X16940569Y31755649D01*
X17004776Y31721330D01*
X17065325Y31680872D01*
X17132606Y31653003D01*
X17196811Y31618685D01*
X17266474Y31597553D01*
X17333758Y31569683D01*
X17405187Y31555475D01*
X17474850Y31534343D01*
X17547300Y31527207D01*
X17618725Y31513000D01*
X17691548Y31513000D01*
X17764000Y31505864D01*
X17836452Y31513000D01*
X17909275Y31513000D01*
X17980701Y31527207D01*
X18053149Y31534343D01*
X18122810Y31555474D01*
X18194242Y31569683D01*
X18261528Y31597554D01*
X18331188Y31618685D01*
X18395389Y31653001D01*
X18462675Y31680872D01*
X18523228Y31721333D01*
X18587430Y31755649D01*
X18643703Y31801831D01*
X18704258Y31842293D01*
X18705009Y31843044D01*
X18705009Y21759340D01*
X9818670Y12873000D01*
X8728725Y12873000D01*
X8657299Y12858793D01*
X8584850Y12851657D01*
X8515187Y12830525D01*
X8443758Y12816317D01*
X8376474Y12788447D01*
X8306811Y12767315D01*
X8242606Y12732997D01*
X8175325Y12705128D01*
X8114776Y12664670D01*
X8050569Y12630351D01*
X7994291Y12584165D01*
X7933742Y12543707D01*
X7882247Y12492212D01*
X7825972Y12446028D01*
X7779788Y12389753D01*
X7728293Y12338258D01*
X7687835Y12277709D01*
X7641649Y12221431D01*
X7607330Y12157224D01*
X7566872Y12096675D01*
X7539003Y12029394D01*
X7504685Y11965189D01*
X7483553Y11895526D01*
X7455683Y11828242D01*
X7441475Y11756813D01*
X7420343Y11687150D01*
X7413207Y11614700D01*
X7399000Y11543275D01*
X7399000Y11470452D01*
X7391864Y11398000D01*
X7399000Y11325548D01*
X7399000Y11252725D01*
X7413207Y11181300D01*
X7420343Y11108850D01*
X7441475Y11039187D01*
X7455683Y10967758D01*
X7483553Y10900474D01*
X7504685Y10830811D01*
X7539003Y10766606D01*
X7566872Y10699325D01*
X7607330Y10638776D01*
X7641649Y10574569D01*
X7687835Y10518291D01*
X7728293Y10457742D01*
X7779788Y10406247D01*
X7825972Y10349972D01*
X7882247Y10303788D01*
X7933742Y10252293D01*
X7994291Y10211835D01*
X8050569Y10165649D01*
X8114776Y10131330D01*
X8175325Y10090872D01*
X8242606Y10063003D01*
X8306811Y10028685D01*
X8376474Y10007553D01*
X8443758Y9979683D01*
X8515187Y9965475D01*
X8584850Y9944343D01*
X8657299Y9937207D01*
X8728725Y9923000D01*
X10357189Y9923000D01*
X10429634Y9915865D01*
X10502079Y9923000D01*
X10502086Y9923000D01*
X10718784Y9944343D01*
X10996823Y10028685D01*
X11253065Y10165649D01*
X11477662Y10349972D01*
X11523850Y10406252D01*
X21171767Y20054168D01*
X21228036Y20100347D01*
X21274217Y20156618D01*
X21274223Y20156624D01*
X21351570Y20250872D01*
X21412360Y20324944D01*
X21549324Y20581186D01*
X21633666Y20859225D01*
X21655009Y21075923D01*
X21655009Y21075930D01*
X21662144Y21148375D01*
X21655009Y21220820D01*
X21655009Y43114991D01*
X22228632Y43114991D01*
X22292812Y43080686D01*
X22362466Y43059557D01*
X22429758Y43031683D01*
X22501190Y43017474D01*
X22570850Y42996343D01*
X22643297Y42989208D01*
X22714725Y42975000D01*
X22787554Y42975000D01*
X22859999Y42967865D01*
X22932444Y42975000D01*
X23005275Y42975000D01*
X23076704Y42989208D01*
X23149149Y42996343D01*
X23218808Y43017474D01*
X23290242Y43031683D01*
X23357535Y43059557D01*
X23427188Y43080686D01*
X23491381Y43114998D01*
X23558675Y43142872D01*
X23619236Y43183338D01*
X23683430Y43217650D01*
X23739700Y43263829D01*
X23800258Y43304293D01*
X23851756Y43355791D01*
X23908028Y43401972D01*
X23954209Y43458244D01*
X24005707Y43509742D01*
X24046171Y43570300D01*
X24092350Y43626570D01*
X24126662Y43690764D01*
X24167128Y43751325D01*
X24195002Y43818619D01*
X24229314Y43882812D01*
X24250443Y43952465D01*
X24278317Y44019758D01*
X24292526Y44091192D01*
X24313657Y44160851D01*
X24320792Y44233296D01*
X24335000Y44304725D01*
X24335000Y44377556D01*
X24342135Y44450001D01*
X24335000Y44522446D01*
X24335000Y44595275D01*
X24320792Y44666703D01*
X24313657Y44739150D01*
X24292526Y44808810D01*
X24278317Y44880242D01*
X24250443Y44947534D01*
X24229314Y45017188D01*
X24195002Y45081381D01*
X24167128Y45148675D01*
X24126662Y45209236D01*
X24092350Y45273430D01*
X24046171Y45329699D01*
X24005707Y45390258D01*
X23814221Y45581744D01*
X23768037Y45638019D01*
X23543440Y45822342D01*
X23287198Y45959306D01*
X23009159Y46043648D01*
X22792461Y46064991D01*
X22792454Y46064991D01*
X22720009Y46072126D01*
X22647564Y46064991D01*
X20252461Y46064991D01*
X20180009Y46072127D01*
X20107557Y46064991D01*
X19890859Y46043648D01*
X19612820Y45959306D01*
X19488770Y45893000D01*
X19255000Y45893000D01*
X19255000Y49772652D01*
X19271972Y49751972D01*
X19328247Y49705788D01*
X19379742Y49654293D01*
X19440291Y49613835D01*
X19496569Y49567649D01*
X19560776Y49533330D01*
X19621325Y49492872D01*
X19688606Y49465003D01*
X19752811Y49430685D01*
X19822474Y49409553D01*
X19889758Y49381683D01*
X19961187Y49367475D01*
X20030850Y49346343D01*
X20103299Y49339207D01*
X20174725Y49325000D01*
X20247555Y49325000D01*
X20320000Y49317865D01*
X20392445Y49325000D01*
X20465275Y49325000D01*
X20536701Y49339207D01*
X20609150Y49346343D01*
X20678813Y49367475D01*
X20750242Y49381683D01*
X20817526Y49409553D01*
X20887189Y49430685D01*
X20951394Y49465003D01*
X21018675Y49492872D01*
X21079224Y49533330D01*
X21143431Y49567649D01*
X21199709Y49613835D01*
X21260258Y49654293D01*
X21311753Y49705788D01*
X21368028Y49751972D01*
X21414212Y49808247D01*
X21465707Y49859742D01*
X21465709Y49859745D01*
X25224214Y53618249D01*
X25275707Y53669742D01*
X25316167Y53730295D01*
X25362350Y53786569D01*
X25396666Y53850770D01*
X25437128Y53911325D01*
X25464998Y53978608D01*
X25499315Y54042811D01*
X25520447Y54112474D01*
X25548317Y54179758D01*
X25562525Y54251187D01*
X25583657Y54320850D01*
X25590792Y54393297D01*
X25605000Y54464725D01*
X25605000Y54537555D01*
X25612135Y54610000D01*
X25605000Y54682445D01*
X25605000Y54755275D01*
X25590792Y54826703D01*
X25583657Y54899150D01*
X25562525Y54968812D01*
X25548317Y55040242D01*
X25520446Y55107528D01*
X25499315Y55177188D01*
X25464999Y55241388D01*
X25437128Y55308675D01*
X25396666Y55369231D01*
X25362350Y55433431D01*
X25316168Y55489704D01*
X25275707Y55550258D01*
X25224210Y55601755D01*
X25178028Y55658028D01*
X25121755Y55704210D01*
X25070258Y55755707D01*
X25009704Y55796168D01*
X24953431Y55842350D01*
X24889231Y55876666D01*
X24828675Y55917128D01*
X24761388Y55944999D01*
X24697188Y55979315D01*
X24627528Y56000446D01*
X24560242Y56028317D01*
X24488812Y56042525D01*
X24419150Y56063657D01*
X24346703Y56070792D01*
X24275275Y56085000D01*
X24202445Y56085000D01*
X24130000Y56092135D01*
X24057555Y56085000D01*
X23984725Y56085000D01*
X23913297Y56070792D01*
X23840850Y56063657D01*
X23771187Y56042525D01*
X23699758Y56028317D01*
X23632474Y56000447D01*
X23562811Y55979315D01*
X23498608Y55944998D01*
X23431325Y55917128D01*
X23370770Y55876666D01*
X23306569Y55842350D01*
X23250295Y55796167D01*
X23189742Y55755707D01*
X23138249Y55704214D01*
X19379745Y51945709D01*
X19379742Y51945707D01*
X19328247Y51894212D01*
X19271972Y51848028D01*
X19255000Y51827348D01*
X19255000Y59079036D01*
X19901758Y59725793D01*
X19958028Y59771973D01*
X20004209Y59828244D01*
X20004214Y59828249D01*
X20072923Y59911972D01*
X20142352Y59996570D01*
X20279316Y60252812D01*
X20363658Y60530851D01*
X20385001Y60747549D01*
X20385001Y60747556D01*
X20392136Y60820001D01*
X20385001Y60892446D01*
X20385001Y70488616D01*
X20468317Y70689758D01*
X20525000Y70974725D01*
X20525000Y71265275D01*
X20468317Y71550242D01*
X20385001Y71751384D01*
X20385001Y72045001D01*
X25187556Y72045001D01*
X25260001Y72037866D01*
X25332446Y72045001D01*
X25332453Y72045001D01*
X25528328Y72064293D01*
X25524293Y72060258D01*
X25483831Y71999702D01*
X25437650Y71943431D01*
X25403335Y71879232D01*
X25362872Y71818675D01*
X25335000Y71751387D01*
X25300685Y71687188D01*
X25279554Y71617528D01*
X25251683Y71550242D01*
X25237475Y71478812D01*
X25216343Y71409150D01*
X25209208Y71336703D01*
X25195000Y71265275D01*
X25195000Y71192445D01*
X25187865Y71120000D01*
X25195000Y71047555D01*
X25195000Y70974725D01*
X25195001Y70974720D01*
X25195000Y68337347D01*
X25178028Y68358028D01*
X25121753Y68404212D01*
X25070258Y68455707D01*
X25009709Y68496165D01*
X24953431Y68542351D01*
X24889224Y68576670D01*
X24828675Y68617128D01*
X24761394Y68644997D01*
X24697189Y68679315D01*
X24627526Y68700447D01*
X24560242Y68728317D01*
X24488813Y68742525D01*
X24419150Y68763657D01*
X24346700Y68770793D01*
X24275275Y68785000D01*
X24202452Y68785000D01*
X24130000Y68792136D01*
X24057548Y68785000D01*
X23984725Y68785000D01*
X23913299Y68770793D01*
X23840851Y68763657D01*
X23771190Y68742526D01*
X23699758Y68728317D01*
X23632472Y68700446D01*
X23562812Y68679315D01*
X23498611Y68644999D01*
X23431325Y68617128D01*
X23370772Y68576667D01*
X23306570Y68542351D01*
X23250297Y68496169D01*
X23189742Y68455707D01*
X23138242Y68404207D01*
X23081973Y68358028D01*
X23035794Y68301759D01*
X22984293Y68250258D01*
X22943831Y68189702D01*
X22897650Y68133431D01*
X22863335Y68069232D01*
X22822872Y68008675D01*
X22795000Y67941385D01*
X22760686Y67877189D01*
X22739557Y67807535D01*
X22711683Y67740242D01*
X22697473Y67668804D01*
X22676344Y67599150D01*
X22669209Y67526711D01*
X22655000Y67455275D01*
X22655000Y67164725D01*
X22655001Y67164720D01*
X22655000Y62375275D01*
X22655000Y62084725D01*
X22669208Y62013298D01*
X22676343Y61940851D01*
X22697474Y61871190D01*
X22711683Y61799758D01*
X22739554Y61732472D01*
X22760685Y61662812D01*
X22795001Y61598611D01*
X22822872Y61531325D01*
X22863333Y61470772D01*
X22897649Y61406570D01*
X22943831Y61350297D01*
X22984293Y61289742D01*
X23035793Y61238242D01*
X23081972Y61181973D01*
X23138243Y61135792D01*
X23189742Y61084293D01*
X23250293Y61043834D01*
X23306569Y60997649D01*
X23370776Y60963330D01*
X23431325Y60922872D01*
X23498606Y60895003D01*
X23562811Y60860685D01*
X23632474Y60839553D01*
X23699758Y60811683D01*
X23771187Y60797475D01*
X23840850Y60776343D01*
X23913300Y60769207D01*
X23984725Y60755000D01*
X24057548Y60755000D01*
X24130000Y60747864D01*
X24202452Y60755000D01*
X24275275Y60755000D01*
X24346701Y60769207D01*
X24419149Y60776343D01*
X24488810Y60797474D01*
X24560242Y60811683D01*
X24627528Y60839554D01*
X24697188Y60860685D01*
X24761389Y60895001D01*
X24828675Y60922872D01*
X24889228Y60963333D01*
X24953430Y60997649D01*
X25009703Y61043831D01*
X25070258Y61084293D01*
X25121758Y61135793D01*
X25178027Y61181972D01*
X25224208Y61238243D01*
X25275707Y61289742D01*
X25316166Y61350293D01*
X25362351Y61406569D01*
X25396670Y61470776D01*
X25437128Y61531325D01*
X25464997Y61598606D01*
X25499315Y61662811D01*
X25520447Y61732474D01*
X25548317Y61799758D01*
X25562525Y61871187D01*
X25583657Y61940850D01*
X25590793Y62013299D01*
X25605000Y62084725D01*
X25605000Y66282653D01*
X25621972Y66261973D01*
X25678243Y66215792D01*
X25729742Y66164293D01*
X25790293Y66123834D01*
X25846569Y66077649D01*
X25910776Y66043330D01*
X25971325Y66002872D01*
X26038606Y65975003D01*
X26102811Y65940685D01*
X26172474Y65919553D01*
X26239758Y65891683D01*
X26311187Y65877475D01*
X26380850Y65856343D01*
X26453300Y65849207D01*
X26524725Y65835000D01*
X26597548Y65835000D01*
X26670000Y65827864D01*
X26742452Y65835000D01*
X26815275Y65835000D01*
X26886701Y65849207D01*
X26959149Y65856343D01*
X27028810Y65877474D01*
X27100242Y65891683D01*
X27167528Y65919554D01*
X27237188Y65940685D01*
X27301389Y65975001D01*
X27368675Y66002872D01*
X27429228Y66043333D01*
X27493430Y66077649D01*
X27549703Y66123831D01*
X27610258Y66164293D01*
X27661758Y66215793D01*
X27718027Y66261972D01*
X27764208Y66318243D01*
X27815707Y66369742D01*
X27856166Y66430293D01*
X27902351Y66486569D01*
X27936670Y66550776D01*
X27977128Y66611325D01*
X28004997Y66678606D01*
X28039315Y66742811D01*
X28060447Y66812474D01*
X28088317Y66879758D01*
X28102525Y66951187D01*
X28123657Y67020850D01*
X28130793Y67093299D01*
X28145000Y67164725D01*
X28145000Y70509036D01*
X32360965Y74725000D01*
X38063401Y74725000D01*
X33298248Y69959846D01*
X33241973Y69913662D01*
X33057650Y69689065D01*
X33045505Y69666343D01*
X32920685Y69432822D01*
X32836343Y69154784D01*
X32815000Y68938086D01*
X32815000Y68938079D01*
X32807865Y68865634D01*
X32815000Y68793189D01*
X32815000Y67164725D01*
X32829208Y67093298D01*
X32836343Y67020851D01*
X32857474Y66951190D01*
X32871683Y66879758D01*
X32899554Y66812472D01*
X32920685Y66742812D01*
X32955001Y66678611D01*
X32982872Y66611325D01*
X33023333Y66550772D01*
X33057649Y66486570D01*
X33103831Y66430297D01*
X33144293Y66369742D01*
X33195793Y66318242D01*
X33241972Y66261973D01*
X33298243Y66215792D01*
X33349742Y66164293D01*
X33410293Y66123834D01*
X33466569Y66077649D01*
X33530776Y66043330D01*
X33591325Y66002872D01*
X33658606Y65975003D01*
X33722811Y65940685D01*
X33792474Y65919553D01*
X33859758Y65891683D01*
X33931187Y65877475D01*
X34000850Y65856343D01*
X34073300Y65849207D01*
X34144725Y65835000D01*
X34217548Y65835000D01*
X34290000Y65827864D01*
X34362452Y65835000D01*
X34435275Y65835000D01*
X34506701Y65849207D01*
X34579149Y65856343D01*
X34648810Y65877474D01*
X34720242Y65891683D01*
X34787528Y65919554D01*
X34857188Y65940685D01*
X34921389Y65975001D01*
X34988675Y66002872D01*
X35049228Y66043333D01*
X35113430Y66077649D01*
X35169703Y66123831D01*
X35230258Y66164293D01*
X35281758Y66215793D01*
X35338027Y66261972D01*
X35355001Y66282654D01*
X35355000Y64110965D01*
X33298248Y62054212D01*
X33241973Y62008028D01*
X33057649Y61783431D01*
X32920685Y61527189D01*
X32836343Y61249150D01*
X32815000Y61032452D01*
X32815000Y61032445D01*
X32807865Y60960000D01*
X32815000Y60887555D01*
X32815000Y60629551D01*
X32815001Y60629541D01*
X32815000Y53590901D01*
X32791865Y53356000D01*
X32799001Y53283545D01*
X32799000Y47103275D01*
X32799000Y46812725D01*
X32813208Y46741298D01*
X32820343Y46668851D01*
X32841474Y46599190D01*
X32855683Y46527758D01*
X32883554Y46460472D01*
X32904685Y46390812D01*
X32939001Y46326611D01*
X32966872Y46259325D01*
X33007333Y46198772D01*
X33041649Y46134570D01*
X33087831Y46078297D01*
X33128293Y46017742D01*
X33179793Y45966242D01*
X33213640Y45925000D01*
X30334725Y45925000D01*
X30263299Y45910793D01*
X30190850Y45903657D01*
X30121187Y45882525D01*
X30049758Y45868317D01*
X29982474Y45840447D01*
X29912811Y45819315D01*
X29848606Y45784997D01*
X29781325Y45757128D01*
X29720776Y45716670D01*
X29656569Y45682351D01*
X29600291Y45636165D01*
X29539742Y45595707D01*
X29488247Y45544212D01*
X29431972Y45498028D01*
X29415000Y45477348D01*
X29415000Y48187548D01*
X29422136Y48260000D01*
X29415000Y48332452D01*
X29415000Y48405275D01*
X29400793Y48476700D01*
X29393657Y48549150D01*
X29372525Y48618813D01*
X29358317Y48690242D01*
X29330447Y48757526D01*
X29309315Y48827189D01*
X29274997Y48891394D01*
X29247128Y48958675D01*
X29206670Y49019224D01*
X29172351Y49083431D01*
X29126165Y49139709D01*
X29085707Y49200258D01*
X29034212Y49251753D01*
X28988028Y49308028D01*
X28931753Y49354212D01*
X28880258Y49405707D01*
X28819709Y49446165D01*
X28763431Y49492351D01*
X28699224Y49526670D01*
X28638675Y49567128D01*
X28571394Y49594997D01*
X28507189Y49629315D01*
X28437526Y49650447D01*
X28370242Y49678317D01*
X28298813Y49692525D01*
X28229150Y49713657D01*
X28156701Y49720793D01*
X28085275Y49735000D01*
X28012452Y49735000D01*
X27940000Y49742136D01*
X27867548Y49735000D01*
X27794725Y49735000D01*
X27723299Y49720793D01*
X27650850Y49713657D01*
X27581187Y49692525D01*
X27509758Y49678317D01*
X27442474Y49650447D01*
X27372811Y49629315D01*
X27308606Y49594997D01*
X27241325Y49567128D01*
X27180776Y49526670D01*
X27116569Y49492351D01*
X27060291Y49446165D01*
X26999742Y49405707D01*
X26948247Y49354212D01*
X26891972Y49308028D01*
X26845788Y49251753D01*
X26794293Y49200258D01*
X26753835Y49139709D01*
X26707649Y49083431D01*
X26673330Y49019224D01*
X26632872Y48958675D01*
X26605003Y48891394D01*
X26570685Y48827189D01*
X26549553Y48757526D01*
X26521683Y48690242D01*
X26507475Y48618813D01*
X26486343Y48549150D01*
X26479207Y48476700D01*
X26465000Y48405275D01*
X26465000Y48332452D01*
X26457864Y48260000D01*
X26465000Y48187548D01*
X26465000Y47062451D01*
X26465001Y40712455D01*
X26457865Y40640000D01*
X26486343Y40350850D01*
X26570685Y40072812D01*
X26570686Y40072811D01*
X26707650Y39816569D01*
X26891973Y39591972D01*
X26948248Y39545788D01*
X29005001Y37489034D01*
X29005000Y11575275D01*
X29005000Y11502445D01*
X28997865Y11430000D01*
X29005000Y11357555D01*
X29005000Y11284725D01*
X29019208Y11213298D01*
X29026343Y11140851D01*
X29047474Y11071190D01*
X29061683Y10999758D01*
X29089554Y10932472D01*
X29110685Y10862812D01*
X29145001Y10798611D01*
X29172872Y10731325D01*
X29213333Y10670772D01*
X29247649Y10606570D01*
X29293831Y10550297D01*
X29334293Y10489742D01*
X29385793Y10438242D01*
X29431972Y10381973D01*
X29449546Y10367551D01*
X29463972Y10349972D01*
X29520247Y10303788D01*
X29539742Y10284293D01*
X29562665Y10268976D01*
X29688569Y10165649D01*
X29944811Y10028685D01*
X30222850Y9944343D01*
X30439548Y9923000D01*
X30439555Y9923000D01*
X30512000Y9915865D01*
X30584445Y9923000D01*
X34419275Y9923000D01*
X34490701Y9937207D01*
X34563150Y9944343D01*
X34632813Y9965475D01*
X34704242Y9979683D01*
X34771526Y10007553D01*
X34841189Y10028685D01*
X34905394Y10063003D01*
X34972675Y10090872D01*
X35033224Y10131330D01*
X35097431Y10165649D01*
X35153709Y10211835D01*
X35214258Y10252293D01*
X35265753Y10303788D01*
X35322028Y10349972D01*
X35368212Y10406247D01*
X35419707Y10457742D01*
X35460165Y10518291D01*
X35506351Y10574569D01*
X35540670Y10638776D01*
X35581128Y10699325D01*
X35608997Y10766606D01*
X35643315Y10830811D01*
X35664447Y10900474D01*
X35692317Y10967758D01*
X35706525Y11039187D01*
X35727657Y11108850D01*
X35734793Y11181300D01*
X35749000Y11252725D01*
X35749000Y11325548D01*
X35756136Y11398000D01*
X35749000Y11470452D01*
X35749000Y11543275D01*
X35734793Y11614700D01*
X35727657Y11687150D01*
X35706525Y11756813D01*
X35692317Y11828242D01*
X35664447Y11895526D01*
X35643315Y11965189D01*
X35608997Y12029394D01*
X35581128Y12096675D01*
X35540670Y12157224D01*
X35506351Y12221431D01*
X35460165Y12277709D01*
X35419707Y12338258D01*
X35368212Y12389753D01*
X35322028Y12446028D01*
X35265753Y12492212D01*
X35214258Y12543707D01*
X35153709Y12584165D01*
X35097431Y12630351D01*
X35033224Y12664670D01*
X34972675Y12705128D01*
X34905394Y12732997D01*
X34841189Y12767315D01*
X34771526Y12788447D01*
X34704242Y12816317D01*
X34632813Y12830525D01*
X34563150Y12851657D01*
X34490701Y12858793D01*
X34419275Y12873000D01*
X31955000Y12873000D01*
X31955000Y38027556D01*
X31962135Y38100001D01*
X31955000Y38172446D01*
X31955000Y38172452D01*
X31933657Y38389150D01*
X31925692Y38415409D01*
X31888305Y38538656D01*
X31849315Y38667189D01*
X31712351Y38923431D01*
X31528028Y39148028D01*
X31471753Y39194212D01*
X29415000Y41250964D01*
X29415000Y43422652D01*
X29431972Y43401972D01*
X29488247Y43355788D01*
X29539742Y43304293D01*
X29600291Y43263835D01*
X29656569Y43217649D01*
X29720776Y43183330D01*
X29781325Y43142872D01*
X29848606Y43115003D01*
X29912811Y43080685D01*
X29982474Y43059553D01*
X30049758Y43031683D01*
X30121187Y43017475D01*
X30190850Y42996343D01*
X30263299Y42989207D01*
X30334725Y42975000D01*
X33285035Y42975000D01*
X33128293Y42818258D01*
X32966872Y42576675D01*
X32855683Y42308242D01*
X32799000Y42023275D01*
X32799000Y41732725D01*
X32855683Y41447758D01*
X32966872Y41179325D01*
X33128293Y40937742D01*
X33333742Y40732293D01*
X33519759Y40608000D01*
X33333742Y40483707D01*
X33128293Y40278258D01*
X32966872Y40036675D01*
X32855683Y39768242D01*
X32799000Y39483275D01*
X32799000Y39192725D01*
X32855683Y38907758D01*
X32966872Y38639325D01*
X33128293Y38397742D01*
X33333742Y38192293D01*
X33519759Y38068000D01*
X33333742Y37943707D01*
X33128293Y37738258D01*
X32966872Y37496675D01*
X32855683Y37228242D01*
X32799000Y36943275D01*
X32799000Y36652725D01*
X32855683Y36367758D01*
X32966872Y36099325D01*
X33128293Y35857742D01*
X33333742Y35652293D01*
X33519759Y35528000D01*
X33333742Y35403707D01*
X33128293Y35198258D01*
X32966872Y34956675D01*
X32855683Y34688242D01*
X32799000Y34403275D01*
X32799000Y34112725D01*
X32855683Y33827758D01*
X32966872Y33559325D01*
X33128293Y33317742D01*
X33333742Y33112293D01*
X33519759Y32988000D01*
X33333742Y32863707D01*
X33128293Y32658258D01*
X32966872Y32416675D01*
X32855683Y32148242D01*
X32799000Y31863275D01*
X32799000Y31572725D01*
X32855683Y31287758D01*
X32966872Y31019325D01*
X33128293Y30777742D01*
X33333742Y30572293D01*
X33519759Y30448000D01*
X33333742Y30323707D01*
X33128293Y30118258D01*
X32966872Y29876675D01*
X32855683Y29608242D01*
X32799000Y29323275D01*
X32799000Y29032725D01*
X32855683Y28747758D01*
X32966872Y28479325D01*
X33128293Y28237742D01*
X33333742Y28032293D01*
X33519759Y27908000D01*
X33333742Y27783707D01*
X33128293Y27578258D01*
X32966872Y27336675D01*
X32855683Y27068242D01*
X32799000Y26783275D01*
X32799000Y26492725D01*
X32855683Y26207758D01*
X32966872Y25939325D01*
X33128293Y25697742D01*
X33333742Y25492293D01*
X33519759Y25368000D01*
X33333742Y25243707D01*
X33128293Y25038258D01*
X32966872Y24796675D01*
X32855683Y24528242D01*
X32799000Y24243275D01*
X32799000Y23952725D01*
X32855683Y23667758D01*
X32966872Y23399325D01*
X33128293Y23157742D01*
X33333742Y22952293D01*
X33519759Y22828000D01*
X33333742Y22703707D01*
X33128293Y22498258D01*
X32966872Y22256675D01*
X32855683Y21988242D01*
X32799000Y21703275D01*
X32799000Y21412725D01*
X32855683Y21127758D01*
X32966872Y20859325D01*
X33128293Y20617742D01*
X33333742Y20412293D01*
X33519759Y20288000D01*
X33333742Y20163707D01*
X33128293Y19958258D01*
X32966872Y19716675D01*
X32855683Y19448242D01*
X32799000Y19163275D01*
X32799000Y18872725D01*
X32855683Y18587758D01*
X32966872Y18319325D01*
X33128293Y18077742D01*
X33333742Y17872293D01*
X33519759Y17748000D01*
X33333742Y17623707D01*
X33128293Y17418258D01*
X32966872Y17176675D01*
X32855683Y16908242D01*
X32799000Y16623275D01*
X32799000Y16332725D01*
X32855683Y16047758D01*
X32966872Y15779325D01*
X33128293Y15537742D01*
X33333742Y15332293D01*
X33575325Y15170872D01*
X33843758Y15059683D01*
X34128725Y15003000D01*
X34419275Y15003000D01*
X34704242Y15059683D01*
X34972675Y15170872D01*
X35214258Y15332293D01*
X35419707Y15537742D01*
X35581128Y15779325D01*
X35692317Y16047758D01*
X35749000Y16332725D01*
X35749000Y16623275D01*
X35692317Y16908242D01*
X35581128Y17176675D01*
X35419707Y17418258D01*
X35214258Y17623707D01*
X35028241Y17748000D01*
X35214258Y17872293D01*
X35419707Y18077742D01*
X35581128Y18319325D01*
X35692317Y18587758D01*
X35749000Y18872725D01*
X35749000Y19163275D01*
X35692317Y19448242D01*
X35581128Y19716675D01*
X35419707Y19958258D01*
X35214258Y20163707D01*
X35028241Y20288000D01*
X35214258Y20412293D01*
X35419707Y20617742D01*
X35581128Y20859325D01*
X35692317Y21127758D01*
X35749000Y21412725D01*
X35749000Y21703275D01*
X35692317Y21988242D01*
X35581128Y22256675D01*
X35419707Y22498258D01*
X35214258Y22703707D01*
X35028241Y22828000D01*
X35214258Y22952293D01*
X35234965Y22973000D01*
X35774373Y22973000D01*
X35829634Y22967557D01*
X35884895Y22973000D01*
X35884898Y22973000D01*
X36050172Y22989278D01*
X36262236Y23053607D01*
X36457674Y23158071D01*
X36628978Y23298656D01*
X36664212Y23341589D01*
X37080416Y23757793D01*
X37123345Y23793023D01*
X37263930Y23964327D01*
X37368394Y24159765D01*
X37432723Y24371829D01*
X37449001Y24537103D01*
X37449001Y24537105D01*
X37454444Y24592367D01*
X37449001Y24647629D01*
X37449001Y25323833D01*
X38780427Y26655258D01*
X38823355Y26690488D01*
X38899503Y26783275D01*
X38963939Y26861790D01*
X39068404Y27057230D01*
X39096426Y27149606D01*
X39132733Y27269294D01*
X39149011Y27434568D01*
X39149011Y27434577D01*
X39154453Y27489831D01*
X39149011Y27545085D01*
X39149011Y31173426D01*
X40269000Y31173426D01*
X40269000Y30902574D01*
X40321841Y30636927D01*
X40425491Y30386693D01*
X40575968Y30161489D01*
X40767489Y29969968D01*
X40992693Y29819491D01*
X41242927Y29715841D01*
X41508574Y29663000D01*
X41779426Y29663000D01*
X41944000Y29695736D01*
X42108574Y29663000D01*
X42379426Y29663000D01*
X42645073Y29715841D01*
X42895307Y29819491D01*
X43120511Y29969968D01*
X43312032Y30161489D01*
X43462509Y30386693D01*
X43566159Y30636927D01*
X43619000Y30902574D01*
X43619000Y31173426D01*
X43566159Y31439073D01*
X43462509Y31689307D01*
X43312032Y31914511D01*
X43120511Y32106032D01*
X42895307Y32256509D01*
X42645073Y32360159D01*
X42379426Y32413000D01*
X42108574Y32413000D01*
X41944000Y32380264D01*
X41779426Y32413000D01*
X41508574Y32413000D01*
X41242927Y32360159D01*
X40992693Y32256509D01*
X40767489Y32106032D01*
X40575968Y31914511D01*
X40425491Y31689307D01*
X40321841Y31439073D01*
X40269000Y31173426D01*
X39149011Y31173426D01*
X39149011Y32478022D01*
X39835990Y33165000D01*
X41854739Y33165000D01*
X41910000Y33159557D01*
X41965261Y33165000D01*
X41965264Y33165000D01*
X42130538Y33181278D01*
X42342602Y33245607D01*
X42538040Y33350071D01*
X42709344Y33490656D01*
X42744578Y33533589D01*
X44533990Y35323000D01*
X44579275Y35323000D01*
X44864242Y35379683D01*
X45132675Y35490872D01*
X45374258Y35652293D01*
X45579707Y35857742D01*
X45741128Y36099325D01*
X45852317Y36367758D01*
X45909000Y36652725D01*
X45909000Y36943275D01*
X45852317Y37228242D01*
X45741128Y37496675D01*
X45579707Y37738258D01*
X45374258Y37943707D01*
X45132675Y38105128D01*
X44864242Y38216317D01*
X44579275Y38273000D01*
X44288725Y38273000D01*
X44003758Y38216317D01*
X43735325Y38105128D01*
X43619000Y38027402D01*
X43619000Y38183426D01*
X43566159Y38449073D01*
X43462509Y38699307D01*
X43312032Y38924511D01*
X43120511Y39116032D01*
X42895307Y39266509D01*
X42645073Y39370159D01*
X42379426Y39423000D01*
X42108574Y39423000D01*
X41944000Y39390264D01*
X41779426Y39423000D01*
X41508574Y39423000D01*
X41358272Y39393103D01*
X41480169Y39515000D01*
X42611741Y39515000D01*
X42667002Y39509557D01*
X42722263Y39515000D01*
X42722266Y39515000D01*
X42887540Y39531278D01*
X43099604Y39595607D01*
X43295042Y39700071D01*
X43466346Y39840656D01*
X43501580Y39883589D01*
X44399382Y40781391D01*
X44418000Y40779557D01*
X44473261Y40785000D01*
X44473264Y40785000D01*
X44638538Y40801278D01*
X44850602Y40865607D01*
X45046040Y40970071D01*
X45217344Y41110656D01*
X45224556Y41119444D01*
X45233344Y41126656D01*
X45373929Y41297960D01*
X45478393Y41493398D01*
X45542722Y41705462D01*
X45559000Y41870736D01*
X45559000Y41870745D01*
X45564442Y41925999D01*
X45559000Y41981253D01*
X45559000Y43402035D01*
X45579707Y43422742D01*
X45741128Y43664325D01*
X45852317Y43932758D01*
X45909000Y44217725D01*
X45909000Y44508275D01*
X45852317Y44793242D01*
X45741128Y45061675D01*
X45579707Y45303258D01*
X45374258Y45508707D01*
X45132675Y45670128D01*
X44864242Y45781317D01*
X44579275Y45838000D01*
X44288725Y45838000D01*
X44003758Y45781317D01*
X43735325Y45670128D01*
X43493742Y45508707D01*
X43288293Y45303258D01*
X43126872Y45061675D01*
X43015683Y44793242D01*
X42959000Y44508275D01*
X42959000Y44278951D01*
X42895307Y44321509D01*
X42645073Y44425159D01*
X42379426Y44478000D01*
X42108574Y44478000D01*
X41944000Y44445264D01*
X41779426Y44478000D01*
X41508574Y44478000D01*
X41242927Y44425159D01*
X40992693Y44321509D01*
X40767489Y44171032D01*
X40575968Y43979511D01*
X40425491Y43754307D01*
X40321841Y43504073D01*
X40269000Y43238426D01*
X40269000Y42967574D01*
X40321841Y42701927D01*
X40425491Y42451693D01*
X40575968Y42226489D01*
X40767489Y42034968D01*
X40992693Y41884491D01*
X41242927Y41780841D01*
X41322564Y41765000D01*
X41069440Y41765000D01*
X41014179Y41770443D01*
X40958917Y41765000D01*
X40958915Y41765000D01*
X40793641Y41748722D01*
X40581577Y41684393D01*
X40386139Y41579929D01*
X40214835Y41439344D01*
X40179606Y41396417D01*
X37449001Y38665811D01*
X37449001Y42042201D01*
X38364216Y42957415D01*
X38364220Y42957420D01*
X39286426Y43879625D01*
X39329354Y43914855D01*
X39415445Y44019758D01*
X39469938Y44086157D01*
X39574403Y44281597D01*
X39586510Y44321509D01*
X39596966Y44355976D01*
X40126416Y44885426D01*
X40169344Y44920656D01*
X40239462Y45006095D01*
X40309928Y45091958D01*
X40414393Y45287398D01*
X40451508Y45409751D01*
X40478722Y45499462D01*
X40495000Y45664736D01*
X40495000Y45664745D01*
X40500442Y45719999D01*
X40495000Y45775253D01*
X40495000Y49357666D01*
X40575968Y49236489D01*
X40767489Y49044968D01*
X40992693Y48894491D01*
X41242927Y48790841D01*
X41508574Y48738000D01*
X41779426Y48738000D01*
X41944000Y48770736D01*
X42108574Y48738000D01*
X42379426Y48738000D01*
X42645073Y48790841D01*
X42895307Y48894491D01*
X43120511Y49044968D01*
X43312032Y49236489D01*
X43462509Y49461693D01*
X43566159Y49711927D01*
X43619000Y49977574D01*
X43619000Y50248426D01*
X43566159Y50514073D01*
X43462509Y50764307D01*
X43312032Y50989511D01*
X43120511Y51181032D01*
X42895307Y51331509D01*
X42645073Y51435159D01*
X42379426Y51488000D01*
X42108574Y51488000D01*
X41944000Y51455264D01*
X41779426Y51488000D01*
X41723987Y51488000D01*
X45206416Y54970428D01*
X45249344Y55005658D01*
X45389929Y55176962D01*
X45494393Y55372400D01*
X45558722Y55584464D01*
X45575000Y55749738D01*
X45575000Y55749740D01*
X45580443Y55805002D01*
X45575000Y55860263D01*
X45575000Y58729035D01*
X45595707Y58749742D01*
X45757128Y58991325D01*
X45868317Y59259758D01*
X45925000Y59544725D01*
X45925000Y59835275D01*
X45868317Y60120242D01*
X45757128Y60388675D01*
X45595707Y60630258D01*
X45390258Y60835707D01*
X45148675Y60997128D01*
X44880242Y61108317D01*
X44595275Y61165000D01*
X44304725Y61165000D01*
X44019758Y61108317D01*
X43751325Y60997128D01*
X43509742Y60835707D01*
X43304293Y60630258D01*
X43180000Y60444241D01*
X43055707Y60630258D01*
X42850258Y60835707D01*
X42608675Y60997128D01*
X42340242Y61108317D01*
X42055275Y61165000D01*
X41764725Y61165000D01*
X41479758Y61108317D01*
X41211325Y60997128D01*
X40969742Y60835707D01*
X40764293Y60630258D01*
X40602872Y60388675D01*
X40491683Y60120242D01*
X40435000Y59835275D01*
X40435000Y59544725D01*
X40491683Y59259758D01*
X40602872Y58991325D01*
X40764293Y58749742D01*
X40785000Y58729035D01*
X40785001Y56135169D01*
X38305000Y53655167D01*
X38305000Y59835275D01*
X38290793Y59906701D01*
X38283657Y59979150D01*
X38262525Y60048813D01*
X38248317Y60120242D01*
X38220447Y60187526D01*
X38199315Y60257189D01*
X38164997Y60321394D01*
X38137128Y60388675D01*
X38096670Y60449224D01*
X38062351Y60513431D01*
X38016166Y60569707D01*
X37975707Y60630258D01*
X37924208Y60681757D01*
X37878027Y60738028D01*
X37821758Y60784207D01*
X37770258Y60835707D01*
X37709703Y60876169D01*
X37653430Y60922351D01*
X37589228Y60956667D01*
X37528675Y60997128D01*
X37461389Y61024999D01*
X37397188Y61059315D01*
X37327528Y61080446D01*
X37260242Y61108317D01*
X37188810Y61122526D01*
X37119149Y61143657D01*
X37046701Y61150793D01*
X36975275Y61165000D01*
X36902452Y61165000D01*
X36830000Y61172136D01*
X36757548Y61165000D01*
X36684725Y61165000D01*
X36613300Y61150793D01*
X36561672Y61145708D01*
X37821758Y62405793D01*
X37878027Y62451972D01*
X37924208Y62508243D01*
X37924213Y62508248D01*
X38062350Y62676568D01*
X38062351Y62676569D01*
X38199315Y62932811D01*
X38283657Y63210850D01*
X38305000Y63427548D01*
X38305000Y63427554D01*
X38312135Y63499999D01*
X38305000Y63572444D01*
X38305000Y67455275D01*
X38290793Y67526701D01*
X38283657Y67599150D01*
X38262525Y67668813D01*
X38248317Y67740242D01*
X38220447Y67807526D01*
X38199315Y67877189D01*
X38164997Y67941394D01*
X38137128Y68008675D01*
X38096670Y68069224D01*
X38062351Y68133431D01*
X38016165Y68189709D01*
X37975707Y68250258D01*
X37924212Y68301753D01*
X37878028Y68358028D01*
X37821753Y68404212D01*
X37770258Y68455707D01*
X37709709Y68496165D01*
X37653431Y68542351D01*
X37589224Y68576670D01*
X37528675Y68617128D01*
X37461394Y68644997D01*
X37397189Y68679315D01*
X37327526Y68700447D01*
X37260242Y68728317D01*
X37188813Y68742525D01*
X37119150Y68763657D01*
X37046700Y68770793D01*
X36975275Y68785000D01*
X36902452Y68785000D01*
X36830000Y68792136D01*
X36757548Y68785000D01*
X36684725Y68785000D01*
X36613299Y68770793D01*
X36540851Y68763657D01*
X36471190Y68742526D01*
X36399758Y68728317D01*
X36332472Y68700446D01*
X36262812Y68679315D01*
X36198611Y68644999D01*
X36131325Y68617128D01*
X36119671Y68609341D01*
X41631758Y74121427D01*
X41688027Y74167606D01*
X41734208Y74223877D01*
X41734213Y74223882D01*
X41832325Y74343432D01*
X41872351Y74392203D01*
X42009315Y74648445D01*
X42072746Y74857548D01*
X42093657Y74926483D01*
X42097711Y74967649D01*
X42115000Y75143182D01*
X42115000Y75143188D01*
X42122135Y75215633D01*
X42115000Y75288078D01*
X42115000Y80223189D01*
X42122135Y80295634D01*
X42115000Y80368079D01*
X42115000Y80368086D01*
X42093657Y80584784D01*
X42009315Y80862823D01*
X41872351Y81119065D01*
X41688028Y81343662D01*
X41631748Y81389850D01*
X40749850Y82271748D01*
X40703662Y82328028D01*
X40479065Y82512351D01*
X40222823Y82649315D01*
X39944784Y82733657D01*
X39728086Y82755000D01*
X39728079Y82755000D01*
X39655634Y82762135D01*
X39583189Y82755000D01*
X33092445Y82755000D01*
X33020000Y82762135D01*
X32947555Y82755000D01*
X32947548Y82755000D01*
X32730850Y82733657D01*
X32452811Y82649315D01*
X32196569Y82512351D01*
X31971972Y82328028D01*
X31925788Y82271753D01*
X24649037Y74995001D01*
X20385001Y74995001D01*
X20385001Y77537554D01*
X20392136Y77609999D01*
X20385001Y77682444D01*
X20385001Y78535000D01*
X21735275Y78535000D01*
X21806701Y78549207D01*
X21879150Y78556343D01*
X21948813Y78577475D01*
X22020242Y78591683D01*
X22087526Y78619553D01*
X22157189Y78640685D01*
X22221394Y78675003D01*
X22288675Y78702872D01*
X22349224Y78743330D01*
X22413431Y78777649D01*
X22469709Y78823835D01*
X22530258Y78864293D01*
X22581753Y78915788D01*
X22638028Y78961972D01*
X22684214Y79018249D01*
X22735707Y79069742D01*
X22776165Y79130291D01*
X22822351Y79186569D01*
X22856670Y79250776D01*
X22897128Y79311325D01*
X22924997Y79378606D01*
X22959315Y79442811D01*
X22980447Y79512474D01*
X23008317Y79579758D01*
X23022525Y79651187D01*
X23043657Y79720850D01*
X23050793Y79793300D01*
X23065000Y79864725D01*
X23065000Y79937548D01*
X23072136Y80010000D01*
X23065000Y80082452D01*
X23065000Y80155275D01*
X23050793Y80226700D01*
X23043657Y80299150D01*
X23022525Y80368813D01*
X23008317Y80440242D01*
X22980447Y80507526D01*
X22959315Y80577189D01*
X22924997Y80641394D01*
X22897128Y80708675D01*
X22856670Y80769224D01*
X22822351Y80833431D01*
X22776165Y80889709D01*
X22735707Y80950258D01*
X22684212Y81001753D01*
X22638028Y81058028D01*
X22581752Y81104213D01*
X22530258Y81155707D01*
X22469709Y81196165D01*
X22413431Y81242351D01*
X22349224Y81276670D01*
X22288675Y81317128D01*
X22221394Y81344997D01*
X22157189Y81379315D01*
X22087526Y81400447D01*
X22020242Y81428317D01*
X21948813Y81442525D01*
X21879150Y81463657D01*
X21806701Y81470793D01*
X21735275Y81485000D01*
X19122444Y81485000D01*
X19049999Y81492135D01*
X18977554Y81485000D01*
X18977548Y81485000D01*
X18760850Y81463657D01*
X18482811Y81379315D01*
X18226569Y81242351D01*
X18001972Y81058028D01*
X17955784Y81001748D01*
X17918249Y80964213D01*
X17861974Y80918029D01*
X17677651Y80693432D01*
X17619578Y80584784D01*
X17540686Y80437189D01*
X17473286Y80215000D01*
X15850965Y80215000D01*
X12575709Y83490255D01*
X12575707Y83490258D01*
X12524212Y83541753D01*
X12478028Y83598028D01*
X12421752Y83644213D01*
X12370258Y83695707D01*
X12309709Y83736165D01*
X12253431Y83782351D01*
X12189224Y83816670D01*
X12128675Y83857128D01*
X12061394Y83884997D01*
X11997189Y83919315D01*
X11927526Y83940447D01*
X11860242Y83968317D01*
X11788813Y83982525D01*
X11719150Y84003657D01*
X11646701Y84010793D01*
X11575275Y84025000D01*
X11502445Y84025000D01*
X11430000Y84032135D01*
X11357555Y84025000D01*
X8744725Y84025000D01*
X8673299Y84010793D01*
X8600850Y84003657D01*
X8531187Y83982525D01*
X8459758Y83968317D01*
X8392474Y83940447D01*
X8322811Y83919315D01*
X8258606Y83884997D01*
X8191325Y83857128D01*
X8130776Y83816670D01*
X8066569Y83782351D01*
X8010291Y83736165D01*
X7949742Y83695707D01*
X7898248Y83644213D01*
X7841972Y83598028D01*
X7795788Y83541753D01*
X7744293Y83490258D01*
X7703835Y83429709D01*
X7657649Y83373431D01*
X7623330Y83309224D01*
X7582872Y83248675D01*
X7555003Y83181394D01*
X7520685Y83117189D01*
X7499553Y83047526D01*
X7471683Y82980242D01*
X7457475Y82908813D01*
X7436343Y82839150D01*
X7429207Y82766700D01*
X7415000Y82695275D01*
X7415000Y82622452D01*
X7407864Y82550000D01*
X7415000Y82477548D01*
X7415000Y82404725D01*
X7429207Y82333300D01*
X7436343Y82260850D01*
X7457475Y82191187D01*
X7471683Y82119758D01*
X7499553Y82052474D01*
X7520685Y81982811D01*
X7555003Y81918606D01*
X7582872Y81851325D01*
X7623330Y81790776D01*
X7657649Y81726569D01*
X7703835Y81670291D01*
X7744293Y81609742D01*
X7795786Y81558249D01*
X7841972Y81501972D01*
X7898247Y81455788D01*
X7949742Y81404293D01*
X8010291Y81363835D01*
X8066569Y81317649D01*
X8130776Y81283330D01*
X8135759Y81280000D01*
X8130776Y81276670D01*
X8066569Y81242351D01*
X8010291Y81196165D01*
X7949742Y81155707D01*
X7898248Y81104213D01*
X7841972Y81058028D01*
X7795788Y81001753D01*
X7744293Y80950258D01*
X7703835Y80889709D01*
X7657649Y80833431D01*
X7623330Y80769224D01*
X7582872Y80708675D01*
X7555003Y80641394D01*
X7520685Y80577189D01*
X7499553Y80507526D01*
X7471683Y80440242D01*
X7457475Y80368813D01*
X7436343Y80299150D01*
X7429207Y80226700D01*
X7415000Y80155275D01*
X7415000Y80082452D01*
X7407864Y80010000D01*
X7415000Y79937548D01*
X7415000Y79864725D01*
X7429207Y79793300D01*
X7436343Y79720850D01*
X7457475Y79651187D01*
X7471683Y79579758D01*
X7499553Y79512474D01*
X7520685Y79442811D01*
X7555003Y79378606D01*
X7582872Y79311325D01*
X7623330Y79250776D01*
X7657649Y79186569D01*
X7703835Y79130291D01*
X7744293Y79069742D01*
X7795786Y79018249D01*
X7841972Y78961972D01*
X7898247Y78915788D01*
X7949742Y78864293D01*
X8010291Y78823835D01*
X8066569Y78777649D01*
X8130776Y78743330D01*
X8135759Y78740000D01*
X8130776Y78736670D01*
X8066569Y78702351D01*
X8010293Y78656166D01*
X7949742Y78615707D01*
X7898243Y78564208D01*
X7841972Y78518027D01*
X7795793Y78461758D01*
X7744293Y78410258D01*
X7703831Y78349703D01*
X7657649Y78293430D01*
X7623333Y78229228D01*
X7582872Y78168675D01*
X7555001Y78101389D01*
X7520685Y78037188D01*
X7499554Y77967528D01*
X7471683Y77900242D01*
X7457474Y77828810D01*
X7436343Y77759149D01*
X7429208Y77686702D01*
X7415000Y77615275D01*
X7415000Y77542451D01*
X7415001Y75123120D01*
X7403299Y75120793D01*
X7330850Y75113657D01*
X7261187Y75092525D01*
X7189758Y75078317D01*
X7122474Y75050447D01*
X7052811Y75029315D01*
X6988606Y74994997D01*
X6921325Y74967128D01*
X6860776Y74926670D01*
X6796569Y74892351D01*
X6740291Y74846165D01*
X6679742Y74805707D01*
X6628247Y74754212D01*
X6571972Y74708028D01*
X6525788Y74651753D01*
X6474293Y74600258D01*
X6433835Y74539709D01*
X6387649Y74483431D01*
X6353330Y74419224D01*
X6312872Y74358675D01*
X6285003Y74291394D01*
X6250685Y74227189D01*
X6229553Y74157526D01*
X6201683Y74090242D01*
X6187475Y74018813D01*
X6166343Y73949150D01*
X6159207Y73876700D01*
X6145000Y73805275D01*
X6145000Y73732452D01*
X6137864Y73660000D01*
X6145000Y73587549D01*
X6145000Y73514725D01*
X6159207Y73443300D01*
X6166343Y73370850D01*
X6187475Y73301187D01*
X6201683Y73229758D01*
X6229553Y73162474D01*
X6250685Y73092811D01*
X6285003Y73028606D01*
X6312872Y72961325D01*
X6353330Y72900776D01*
X6387649Y72836569D01*
X6433835Y72780291D01*
X6474293Y72719742D01*
X6525788Y72668247D01*
X6571972Y72611972D01*
X6628247Y72565788D01*
X6679742Y72514293D01*
X6740291Y72473835D01*
X6796569Y72427649D01*
X6860776Y72393330D01*
X6865759Y72390000D01*
X6860776Y72386670D01*
X6796569Y72352351D01*
X6740291Y72306165D01*
X6679742Y72265707D01*
X6628247Y72214212D01*
X6571972Y72168028D01*
X6525788Y72111753D01*
X6474293Y72060258D01*
X6433835Y71999709D01*
X6387649Y71943431D01*
X6353330Y71879224D01*
X6312872Y71818675D01*
X6285003Y71751394D01*
X6250685Y71687189D01*
X6229553Y71617526D01*
X6201683Y71550242D01*
X6187475Y71478813D01*
X6166343Y71409150D01*
X6159207Y71336700D01*
X6145000Y71265275D01*
X6145000Y71192452D01*
X6137864Y71120000D01*
X6145000Y71047548D01*
X6145000Y70974725D01*
X6159207Y70903300D01*
X6166343Y70830850D01*
X6187475Y70761187D01*
X6201683Y70689758D01*
X6229553Y70622474D01*
X6250685Y70552811D01*
X6285003Y70488606D01*
X6312872Y70421325D01*
X6353330Y70360776D01*
X6387649Y70296569D01*
X6433835Y70240291D01*
X6474293Y70179742D01*
X6525788Y70128247D01*
X6571972Y70071972D01*
X6628247Y70025788D01*
X6679742Y69974293D01*
X6740291Y69933835D01*
X6796569Y69887649D01*
X6860776Y69853330D01*
X6921325Y69812872D01*
X6988606Y69785003D01*
X7052811Y69750685D01*
X7122474Y69729553D01*
X7189758Y69701683D01*
X7261187Y69687475D01*
X7330850Y69666343D01*
X7403299Y69659207D01*
X7474725Y69645000D01*
X12211681Y69645000D01*
X12284126Y69637865D01*
X12356571Y69645000D01*
X12356578Y69645000D01*
X12573276Y69666343D01*
X12851315Y69750685D01*
X13107557Y69887649D01*
X13332154Y70071972D01*
X13378342Y70128252D01*
X14924223Y71674132D01*
X15062360Y71842453D01*
X15199325Y72098695D01*
X15283667Y72376733D01*
X15312145Y72665883D01*
X15283667Y72955034D01*
X15279801Y72967778D01*
X15388317Y73229758D01*
X15445000Y73514725D01*
X15445000Y73805275D01*
X15388317Y74090242D01*
X15277128Y74358675D01*
X15115707Y74600258D01*
X14990965Y74725000D01*
X16655275Y74725000D01*
X16726701Y74739207D01*
X16799150Y74746343D01*
X16868813Y74767475D01*
X16940242Y74781683D01*
X17007526Y74809553D01*
X17077189Y74830685D01*
X17141394Y74865003D01*
X17208675Y74892872D01*
X17269224Y74933330D01*
X17333431Y74967649D01*
X17389709Y75013835D01*
X17435001Y75044099D01*
X17435001Y73592454D01*
X17427865Y73520001D01*
X17435002Y73447538D01*
X17435001Y61430966D01*
X16839745Y60835709D01*
X16839742Y60835707D01*
X16788243Y60784208D01*
X16731972Y60738027D01*
X16685793Y60681758D01*
X16634293Y60630258D01*
X16593831Y60569703D01*
X16547649Y60513430D01*
X16513333Y60449228D01*
X16510000Y60444241D01*
X16506670Y60449224D01*
X16472351Y60513431D01*
X16426165Y60569709D01*
X16385707Y60630258D01*
X16334212Y60681753D01*
X16288028Y60738028D01*
X16231753Y60784212D01*
X16180258Y60835707D01*
X16119709Y60876165D01*
X16063431Y60922351D01*
X15999224Y60956670D01*
X15938675Y60997128D01*
X15871394Y61024997D01*
X15807189Y61059315D01*
X15737526Y61080447D01*
X15670242Y61108317D01*
X15598813Y61122525D01*
X15529150Y61143657D01*
X15456700Y61150793D01*
X15385275Y61165000D01*
X15312452Y61165000D01*
X15240000Y61172136D01*
X15167548Y61165000D01*
X15094725Y61165000D01*
X15023299Y61150793D01*
X14950851Y61143657D01*
X14881190Y61122526D01*
X14809758Y61108317D01*
X14742472Y61080446D01*
X14672812Y61059315D01*
X14608611Y61024999D01*
X14541325Y60997128D01*
X14480772Y60956667D01*
X14416570Y60922351D01*
X14360297Y60876169D01*
X14299742Y60835707D01*
X14248242Y60784207D01*
X14191973Y60738028D01*
X14145794Y60681759D01*
X14094293Y60630258D01*
X14053831Y60569702D01*
X14007650Y60513431D01*
X13973335Y60449232D01*
X13970000Y60444241D01*
X13966670Y60449224D01*
X13932351Y60513431D01*
X13886165Y60569709D01*
X13845707Y60630258D01*
X13794212Y60681753D01*
X13748028Y60738028D01*
X13691753Y60784212D01*
X13640258Y60835707D01*
X13579709Y60876165D01*
X13523431Y60922351D01*
X13459224Y60956670D01*
X13398675Y60997128D01*
X13331394Y61024997D01*
X13267189Y61059315D01*
X13197526Y61080447D01*
X13130242Y61108317D01*
X13058813Y61122525D01*
X12989150Y61143657D01*
X12916700Y61150793D01*
X12845275Y61165000D01*
X12772452Y61165000D01*
X12700000Y61172136D01*
X12627548Y61165000D01*
X12554725Y61165000D01*
X12483299Y61150793D01*
X12410851Y61143657D01*
X12341190Y61122526D01*
X12269758Y61108317D01*
X12202472Y61080446D01*
X12132812Y61059315D01*
X12068611Y61024999D01*
X12001325Y60997128D01*
X11940772Y60956667D01*
X11876570Y60922351D01*
X11820297Y60876169D01*
X11759742Y60835707D01*
X11708242Y60784207D01*
X11651973Y60738028D01*
X11605794Y60681759D01*
X11554293Y60630258D01*
X11513831Y60569702D01*
X11467650Y60513431D01*
X11433335Y60449232D01*
X11392872Y60388675D01*
X11365000Y60321385D01*
X11330686Y60257189D01*
X11309557Y60187535D01*
X11281683Y60120242D01*
X11267473Y60048804D01*
X11246344Y59979150D01*
X11239209Y59906711D01*
X11225000Y59835275D01*
X11225000Y59544725D01*
X11225001Y59544720D01*
X11225000Y44595275D01*
X11225000Y44304725D01*
X11239208Y44233298D01*
X11246343Y44160851D01*
X11267474Y44091190D01*
X11281683Y44019758D01*
X11309554Y43952472D01*
X11330685Y43882812D01*
X11365001Y43818611D01*
X11392872Y43751325D01*
X11433333Y43690772D01*
X11467649Y43626570D01*
X11513831Y43570297D01*
X11554293Y43509742D01*
X11605793Y43458242D01*
X11651972Y43401973D01*
X11708243Y43355792D01*
X11759742Y43304293D01*
X11820293Y43263834D01*
X11876569Y43217649D01*
X11940776Y43183330D01*
X12001325Y43142872D01*
X12068606Y43115003D01*
X12132811Y43080685D01*
X12202474Y43059553D01*
X12269758Y43031683D01*
X12341187Y43017475D01*
X12410850Y42996343D01*
X12483300Y42989207D01*
X12554725Y42975000D01*
X12627548Y42975000D01*
X12700000Y42967864D01*
X12772452Y42975000D01*
X12845275Y42975000D01*
X12916701Y42989207D01*
X12989149Y42996343D01*
X13058810Y43017474D01*
X13130242Y43031683D01*
X13197528Y43059554D01*
X13267188Y43080685D01*
X13331389Y43115001D01*
X13398675Y43142872D01*
X13459228Y43183333D01*
X13523430Y43217649D01*
X13579703Y43263831D01*
X13640258Y43304293D01*
X13691758Y43355793D01*
X13748027Y43401972D01*
X13794208Y43458243D01*
X13845707Y43509742D01*
X13886166Y43570293D01*
X13932351Y43626569D01*
X13966670Y43690776D01*
X13970000Y43695759D01*
X13973333Y43690772D01*
X14007649Y43626570D01*
X14053831Y43570297D01*
X14094293Y43509742D01*
X14145793Y43458242D01*
X14191972Y43401973D01*
X14248243Y43355792D01*
X14299742Y43304293D01*
X14360293Y43263834D01*
X14416569Y43217649D01*
X14480776Y43183330D01*
X14541325Y43142872D01*
X14608606Y43115003D01*
X14672811Y43080685D01*
X14742474Y43059553D01*
X14809758Y43031683D01*
X14881187Y43017475D01*
X14950850Y42996343D01*
X15023300Y42989207D01*
X15094725Y42975000D01*
X15167548Y42975000D01*
X15240000Y42967864D01*
X15312452Y42975000D01*
X15385275Y42975000D01*
X15456701Y42989207D01*
X15529149Y42996343D01*
X15598810Y43017474D01*
X15670242Y43031683D01*
X15737528Y43059554D01*
X15807188Y43080685D01*
X15871389Y43115001D01*
X15938675Y43142872D01*
X15999228Y43183333D01*
X16063430Y43217649D01*
X16119703Y43263831D01*
X16180258Y43304293D01*
X16231758Y43355793D01*
X16288027Y43401972D01*
X16334208Y43458243D01*
X16385707Y43509742D01*
X16426166Y43570293D01*
X16472351Y43626569D01*
X16493016Y43665231D01*
X16497330Y43658776D01*
X16531649Y43594569D01*
X16577835Y43538291D01*
X16618293Y43477742D01*
X16669788Y43426247D01*
X16715972Y43369972D01*
X16772247Y43323788D01*
X16823742Y43272293D01*
X16884291Y43231835D01*
X16940569Y43185649D01*
X17004776Y43151330D01*
X17065325Y43110872D01*
X17132606Y43083003D01*
X17196811Y43048685D01*
X17266474Y43027553D01*
X17333758Y42999683D01*
X17405187Y42985475D01*
X17474850Y42964343D01*
X17547299Y42957207D01*
X17618725Y42943000D01*
X18705010Y42943000D01*
X18705010Y37978986D01*
X18603430Y38062350D01*
X18376488Y38183653D01*
X15163729Y41396411D01*
X15128495Y41439344D01*
X14957191Y41579929D01*
X14761753Y41684393D01*
X14549689Y41748722D01*
X14384415Y41765000D01*
X14384412Y41765000D01*
X14329151Y41770443D01*
X14273890Y41765000D01*
X13914736Y41765000D01*
X13749462Y41748722D01*
X13537398Y41684393D01*
X13521883Y41676100D01*
X11238076Y41676100D01*
X11222563Y41684392D01*
X11122135Y41714857D01*
X10202580Y42634411D01*
X10167346Y42677344D01*
X10048927Y42774528D01*
X10019707Y42818258D01*
X9814258Y43023707D01*
X9628241Y43148000D01*
X9814258Y43272293D01*
X10019707Y43477742D01*
X10181128Y43719325D01*
X10292317Y43987758D01*
X10349000Y44272725D01*
X10349000Y44563275D01*
X10292317Y44848242D01*
X10181128Y45116675D01*
X10019707Y45358258D01*
X9814258Y45563707D01*
X9628241Y45688000D01*
X9814258Y45812293D01*
X10019707Y46017742D01*
X10181128Y46259325D01*
X10292317Y46527758D01*
X10349000Y46812725D01*
X10349000Y47103275D01*
X10292317Y47388242D01*
X10181128Y47656675D01*
X10019707Y47898258D01*
X9814258Y48103707D01*
X9572675Y48265128D01*
X9304242Y48376317D01*
X9019275Y48433000D01*
X8728725Y48433000D01*
X8443758Y48376317D01*
X8175325Y48265128D01*
X7933742Y48103707D01*
X7728293Y47898258D01*
X7566872Y47656675D01*
X7455683Y47388242D01*
X7399000Y47103275D01*
X7399000Y46812725D01*
X7455683Y46527758D01*
X7566872Y46259325D01*
X7728293Y46017742D01*
X7933742Y45812293D01*
X8119759Y45688000D01*
X7933742Y45563707D01*
X7728293Y45358258D01*
X7566872Y45116675D01*
X7455683Y44848242D01*
X7399000Y44563275D01*
X7399000Y44272725D01*
X7455683Y43987758D01*
X7566872Y43719325D01*
X7728293Y43477742D01*
X7933742Y43272293D01*
X8119759Y43148000D01*
X7933742Y43023707D01*
X7728293Y42818258D01*
X7566872Y42576675D01*
X7455683Y42308242D01*
X7399000Y42023275D01*
X7399000Y41732725D01*
X7455683Y41447758D01*
X7566872Y41179325D01*
X7728293Y40937742D01*
X7933742Y40732293D01*
X8119759Y40608000D01*
X7933742Y40483707D01*
X7728293Y40278258D01*
X7566872Y40036675D01*
X7455683Y39768242D01*
X7399000Y39483275D01*
X7399000Y39192725D01*
X7455683Y38907758D01*
X7566872Y38639325D01*
X7728293Y38397742D01*
X7933742Y38192293D01*
X8119759Y38068000D01*
X8114776Y38064670D01*
X8050569Y38030351D01*
X7994291Y37984165D01*
X7933742Y37943707D01*
X7882247Y37892212D01*
X7825972Y37846028D01*
X7779788Y37789753D01*
X7728293Y37738258D01*
X7687835Y37677709D01*
X7641649Y37621431D01*
X7607330Y37557224D01*
X7566872Y37496675D01*
X7539003Y37429394D01*
X7504685Y37365189D01*
X7483553Y37295526D01*
X7455683Y37228242D01*
X7441475Y37156813D01*
X7420343Y37087150D01*
X7413207Y37014700D01*
X7399000Y36943275D01*
X7399000Y36870452D01*
X7391864Y36798000D01*
X7399000Y36725548D01*
X7399000Y36652725D01*
X7413207Y36581300D01*
X7420343Y36508850D01*
X7441475Y36439187D01*
X7455683Y36367758D01*
X7483553Y36300474D01*
X7504685Y36230811D01*
X7539003Y36166606D01*
X7566872Y36099325D01*
X7607330Y36038776D01*
X7641649Y35974569D01*
X7687835Y35918291D01*
X7728293Y35857742D01*
X7779788Y35806247D01*
X7825972Y35749972D01*
X7882247Y35703788D01*
X7933742Y35652293D01*
X7994291Y35611835D01*
X8050569Y35565649D01*
X8114776Y35531330D01*
X8119759Y35528000D01*
X7933742Y35403707D01*
X7728293Y35198258D01*
X7566872Y34956675D01*
X7455683Y34688242D01*
X7399000Y34403275D01*
X7399000Y34112725D01*
X7455683Y33827758D01*
X7566872Y33559325D01*
X7728293Y33317742D01*
X7933742Y33112293D01*
X8119759Y32988000D01*
X7933742Y32863707D01*
X7728293Y32658258D01*
X7566872Y32416675D01*
X7455683Y32148242D01*
X7399000Y31863275D01*
X7399000Y31572725D01*
X7455683Y31287758D01*
X7566872Y31019325D01*
X7728293Y30777742D01*
X7933742Y30572293D01*
X8119759Y30448000D01*
X7933742Y30323707D01*
X7728293Y30118258D01*
X7566872Y29876675D01*
X7455683Y29608242D01*
X7399000Y29323275D01*
X7399000Y29032725D01*
X7455683Y28747758D01*
X7566872Y28479325D01*
X7728293Y28237742D01*
X7853035Y28113000D01*
X6236725Y28113000D01*
X6165299Y28098793D01*
X6092850Y28091657D01*
X6023187Y28070525D01*
X5951758Y28056317D01*
X5884474Y28028447D01*
X5814811Y28007315D01*
X5750606Y27972997D01*
X5683325Y27945128D01*
X5622776Y27904670D01*
X5558569Y27870351D01*
X5502291Y27824165D01*
X5441742Y27783707D01*
X5390247Y27732212D01*
X5333972Y27686028D01*
X5287788Y27629753D01*
X5236293Y27578258D01*
X5195835Y27517709D01*
X5149649Y27461431D01*
X5115330Y27397224D01*
X5074872Y27336675D01*
X5047003Y27269394D01*
X5012685Y27205189D01*
X4991553Y27135526D01*
X4963683Y27068242D01*
X4949475Y26996813D01*
X4928343Y26927150D01*
X4921207Y26854700D01*
X4907000Y26783275D01*
X4907000Y26710452D01*
X4899864Y26638000D01*
X400000Y26638000D01*
X400000Y66040000D01*
X8677864Y66040000D01*
X8685000Y65967548D01*
X8685000Y65894725D01*
X8699207Y65823300D01*
X8706343Y65750850D01*
X8727475Y65681187D01*
X8741683Y65609758D01*
X8769553Y65542474D01*
X8790685Y65472811D01*
X8825003Y65408606D01*
X8852872Y65341325D01*
X8893330Y65280776D01*
X8927649Y65216569D01*
X8973835Y65160291D01*
X9014293Y65099742D01*
X9065788Y65048247D01*
X9111972Y64991972D01*
X9168247Y64945788D01*
X9219742Y64894293D01*
X9280291Y64853835D01*
X9336569Y64807649D01*
X9400776Y64773330D01*
X9461325Y64732872D01*
X9528606Y64705003D01*
X9592811Y64670685D01*
X9662474Y64649553D01*
X9729758Y64621683D01*
X9801187Y64607475D01*
X9870850Y64586343D01*
X9943299Y64579207D01*
X10014725Y64565000D01*
X14115275Y64565000D01*
X14186701Y64579207D01*
X14259150Y64586343D01*
X14328813Y64607475D01*
X14400242Y64621683D01*
X14467526Y64649553D01*
X14537189Y64670685D01*
X14601394Y64705003D01*
X14668675Y64732872D01*
X14729224Y64773330D01*
X14793431Y64807649D01*
X14849709Y64853835D01*
X14910258Y64894293D01*
X14961753Y64945788D01*
X15018028Y64991972D01*
X15064212Y65048247D01*
X15115707Y65099742D01*
X15156165Y65160291D01*
X15202351Y65216569D01*
X15236670Y65280776D01*
X15277128Y65341325D01*
X15304997Y65408606D01*
X15339315Y65472811D01*
X15360447Y65542474D01*
X15388317Y65609758D01*
X15402525Y65681187D01*
X15423657Y65750850D01*
X15430793Y65823300D01*
X15445000Y65894725D01*
X15445000Y65967548D01*
X15452136Y66040000D01*
X15445000Y66112452D01*
X15445000Y66185275D01*
X15430793Y66256700D01*
X15423657Y66329150D01*
X15402525Y66398813D01*
X15388317Y66470242D01*
X15360447Y66537526D01*
X15339315Y66607189D01*
X15304997Y66671394D01*
X15277128Y66738675D01*
X15236670Y66799224D01*
X15202351Y66863431D01*
X15156165Y66919709D01*
X15115707Y66980258D01*
X15064212Y67031753D01*
X15018028Y67088028D01*
X14961753Y67134212D01*
X14910258Y67185707D01*
X14849709Y67226165D01*
X14793431Y67272351D01*
X14729224Y67306670D01*
X14668675Y67347128D01*
X14601394Y67374997D01*
X14537189Y67409315D01*
X14467526Y67430447D01*
X14400242Y67458317D01*
X14328813Y67472525D01*
X14259150Y67493657D01*
X14186701Y67500793D01*
X14115275Y67515000D01*
X10014725Y67515000D01*
X9943299Y67500793D01*
X9870850Y67493657D01*
X9801187Y67472525D01*
X9729758Y67458317D01*
X9662474Y67430447D01*
X9592811Y67409315D01*
X9528606Y67374997D01*
X9461325Y67347128D01*
X9400776Y67306670D01*
X9336569Y67272351D01*
X9280291Y67226165D01*
X9219742Y67185707D01*
X9168247Y67134212D01*
X9111972Y67088028D01*
X9065788Y67031753D01*
X9014293Y66980258D01*
X8973835Y66919709D01*
X8927649Y66863431D01*
X8893330Y66799224D01*
X8852872Y66738675D01*
X8825003Y66671394D01*
X8790685Y66607189D01*
X8769553Y66537526D01*
X8741683Y66470242D01*
X8727475Y66398813D01*
X8706343Y66329150D01*
X8699207Y66256700D01*
X8685000Y66185275D01*
X8685000Y66112452D01*
X8677864Y66040000D01*
X400000Y66040000D01*
X400000Y90170000D01*
X15027864Y90170000D01*
X15035000Y90097548D01*
X15035000Y90024725D01*
X15049207Y89953300D01*
X15056343Y89880850D01*
X15077475Y89811187D01*
X15091683Y89739758D01*
X15119553Y89672474D01*
X15140685Y89602811D01*
X15175003Y89538606D01*
X15202872Y89471325D01*
X15243330Y89410776D01*
X15277649Y89346569D01*
X15323835Y89290291D01*
X15364293Y89229742D01*
X15415787Y89178248D01*
X15461972Y89121972D01*
X15518247Y89075788D01*
X15569742Y89024293D01*
X15630291Y88983835D01*
X15686569Y88937649D01*
X15750776Y88903330D01*
X15811325Y88862872D01*
X15878606Y88835003D01*
X15942811Y88800685D01*
X16012474Y88779553D01*
X16079758Y88751683D01*
X16151187Y88737475D01*
X16220850Y88716343D01*
X16293299Y88709207D01*
X16364725Y88695000D01*
X18845001Y88695000D01*
X18845000Y86505275D01*
X18845000Y86214725D01*
X18859208Y86143298D01*
X18866343Y86070851D01*
X18887474Y86001190D01*
X18901683Y85929758D01*
X18929554Y85862472D01*
X18950685Y85792812D01*
X18985001Y85728611D01*
X19012872Y85661325D01*
X19053333Y85600772D01*
X19087649Y85536570D01*
X19133831Y85480297D01*
X19174293Y85419742D01*
X19225793Y85368242D01*
X19271972Y85311973D01*
X19328243Y85265792D01*
X19379742Y85214293D01*
X19440293Y85173834D01*
X19496569Y85127649D01*
X19560776Y85093330D01*
X19621325Y85052872D01*
X19688606Y85025003D01*
X19752811Y84990685D01*
X19822474Y84969553D01*
X19889758Y84941683D01*
X19961187Y84927475D01*
X20030850Y84906343D01*
X20103300Y84899207D01*
X20174725Y84885000D01*
X20247548Y84885000D01*
X20320000Y84877864D01*
X20392452Y84885000D01*
X20465275Y84885000D01*
X20536701Y84899207D01*
X20609149Y84906343D01*
X20678810Y84927474D01*
X20750242Y84941683D01*
X20817528Y84969554D01*
X20887188Y84990685D01*
X20951389Y85025001D01*
X21018675Y85052872D01*
X21079228Y85093333D01*
X21143430Y85127649D01*
X21199703Y85173831D01*
X21260258Y85214293D01*
X21311758Y85265793D01*
X21368027Y85311972D01*
X21414208Y85368243D01*
X21465707Y85419742D01*
X21506166Y85480293D01*
X21552351Y85536569D01*
X21586670Y85600776D01*
X21627128Y85661325D01*
X21654997Y85728606D01*
X21689315Y85792811D01*
X21710447Y85862474D01*
X21738317Y85929758D01*
X21752525Y86001187D01*
X21773657Y86070850D01*
X21780793Y86143299D01*
X21795000Y86214725D01*
X21795000Y88289036D01*
X22581753Y89075788D01*
X22638028Y89121972D01*
X22684213Y89178248D01*
X22735707Y89229742D01*
X22776165Y89290291D01*
X22822351Y89346569D01*
X22856670Y89410776D01*
X22897128Y89471325D01*
X22924997Y89538606D01*
X22959315Y89602811D01*
X22980447Y89672474D01*
X23008317Y89739758D01*
X23022525Y89811187D01*
X23043657Y89880850D01*
X23050793Y89953300D01*
X23065000Y90024725D01*
X23065000Y90097548D01*
X23072136Y90170000D01*
X23065000Y90242452D01*
X23065000Y90315275D01*
X23050793Y90386700D01*
X23043657Y90459150D01*
X23022525Y90528813D01*
X23008317Y90600242D01*
X22980447Y90667526D01*
X22959315Y90737189D01*
X22924997Y90801394D01*
X22897128Y90868675D01*
X22856670Y90929224D01*
X22822351Y90993431D01*
X22776165Y91049709D01*
X22735707Y91110258D01*
X22684212Y91161753D01*
X22638028Y91218028D01*
X22617348Y91235000D01*
X24275275Y91235000D01*
X24346701Y91249207D01*
X24419150Y91256343D01*
X24488813Y91277475D01*
X24560242Y91291683D01*
X24627526Y91319553D01*
X24697189Y91340685D01*
X24761394Y91375003D01*
X24828675Y91402872D01*
X24889224Y91443330D01*
X24953431Y91477649D01*
X25009709Y91523835D01*
X25070258Y91564293D01*
X25121753Y91615788D01*
X25178028Y91661972D01*
X25224214Y91718249D01*
X25275707Y91769742D01*
X25316165Y91830291D01*
X25362351Y91886569D01*
X25396670Y91950776D01*
X25400000Y91955759D01*
X25403330Y91950776D01*
X25437649Y91886569D01*
X25483835Y91830291D01*
X25524293Y91769742D01*
X25575786Y91718249D01*
X25621972Y91661972D01*
X25678247Y91615788D01*
X25729742Y91564293D01*
X25790291Y91523835D01*
X25846569Y91477649D01*
X25910776Y91443330D01*
X25971325Y91402872D01*
X26038606Y91375003D01*
X26102811Y91340685D01*
X26172474Y91319553D01*
X26239758Y91291683D01*
X26311187Y91277475D01*
X26380850Y91256343D01*
X26453299Y91249207D01*
X26524725Y91235000D01*
X28599036Y91235000D01*
X29005000Y90829035D01*
X29005000Y90242452D01*
X28997864Y90170000D01*
X29005000Y90097548D01*
X29005000Y90024725D01*
X29019207Y89953300D01*
X29026343Y89880850D01*
X29047475Y89811187D01*
X29061683Y89739758D01*
X29089553Y89672474D01*
X29110685Y89602811D01*
X29145003Y89538606D01*
X29172872Y89471325D01*
X29213330Y89410776D01*
X29247649Y89346569D01*
X29293835Y89290291D01*
X29334293Y89229742D01*
X29385787Y89178248D01*
X29431972Y89121972D01*
X29488247Y89075788D01*
X29539742Y89024293D01*
X29600291Y88983835D01*
X29656569Y88937649D01*
X29720776Y88903330D01*
X29781325Y88862872D01*
X29848606Y88835003D01*
X29912811Y88800685D01*
X29982474Y88779553D01*
X30049758Y88751683D01*
X30121187Y88737475D01*
X30190850Y88716343D01*
X30263299Y88709207D01*
X30334725Y88695000D01*
X30407548Y88695000D01*
X30480000Y88687864D01*
X30552452Y88695000D01*
X33165275Y88695000D01*
X33236701Y88709207D01*
X33309150Y88716343D01*
X33378813Y88737475D01*
X33450242Y88751683D01*
X33517526Y88779553D01*
X33587189Y88800685D01*
X33651394Y88835003D01*
X33718675Y88862872D01*
X33779224Y88903330D01*
X33843431Y88937649D01*
X33899709Y88983835D01*
X33960258Y89024293D01*
X34011753Y89075788D01*
X34068028Y89121972D01*
X34114213Y89178248D01*
X34165707Y89229742D01*
X34206165Y89290291D01*
X34252351Y89346569D01*
X34286670Y89410776D01*
X34327128Y89471325D01*
X34354997Y89538606D01*
X34389315Y89602811D01*
X34410447Y89672474D01*
X34438317Y89739758D01*
X34452525Y89811187D01*
X34473657Y89880850D01*
X34480793Y89953300D01*
X34495000Y90024725D01*
X34495000Y90097548D01*
X34502136Y90170000D01*
X34495000Y90242452D01*
X34495000Y90315275D01*
X34480793Y90386700D01*
X34473657Y90459150D01*
X34452525Y90528813D01*
X34438317Y90600242D01*
X34410447Y90667526D01*
X34389315Y90737189D01*
X34354997Y90801394D01*
X34327128Y90868675D01*
X34286670Y90929224D01*
X34252351Y90993431D01*
X34206165Y91049709D01*
X34165707Y91110258D01*
X34114212Y91161753D01*
X34068028Y91218028D01*
X34011752Y91264213D01*
X33960258Y91315707D01*
X33899709Y91356165D01*
X33843431Y91402351D01*
X33779224Y91436670D01*
X33718675Y91477128D01*
X33651394Y91504997D01*
X33587189Y91539315D01*
X33517526Y91560447D01*
X33450242Y91588317D01*
X33378813Y91602525D01*
X33309150Y91623657D01*
X33236701Y91630793D01*
X33165275Y91645000D01*
X31941945Y91645000D01*
X31933657Y91729150D01*
X31849315Y92007189D01*
X31712351Y92263431D01*
X31642507Y92348535D01*
X31574213Y92431752D01*
X31574208Y92431757D01*
X31528027Y92488028D01*
X31471757Y92534207D01*
X31101443Y92904521D01*
X42475000Y92904521D01*
X42475000Y92515479D01*
X42550898Y92133914D01*
X42699778Y91774487D01*
X42915917Y91451011D01*
X43191011Y91175917D01*
X43514487Y90959778D01*
X43873914Y90810898D01*
X44255479Y90735000D01*
X44644521Y90735000D01*
X45026086Y90810898D01*
X45385513Y90959778D01*
X45708989Y91175917D01*
X45984083Y91451011D01*
X46200222Y91774487D01*
X46349102Y92133914D01*
X46425000Y92515479D01*
X46425000Y92904521D01*
X46349102Y93286086D01*
X46200222Y93645513D01*
X45984083Y93968989D01*
X45708989Y94244083D01*
X45385513Y94460222D01*
X45026086Y94609102D01*
X44644521Y94685000D01*
X44255479Y94685000D01*
X43873914Y94609102D01*
X43514487Y94460222D01*
X43191011Y94244083D01*
X42915917Y93968989D01*
X42699778Y93645513D01*
X42550898Y93286086D01*
X42475000Y92904521D01*
X31101443Y92904521D01*
X30304216Y93701748D01*
X30258028Y93758028D01*
X30033431Y93942351D01*
X29777189Y94079315D01*
X29499150Y94163657D01*
X29282452Y94185000D01*
X29282445Y94185000D01*
X29210000Y94192135D01*
X29137555Y94185000D01*
X26524725Y94185000D01*
X26453299Y94170793D01*
X26380850Y94163657D01*
X26311187Y94142525D01*
X26239758Y94128317D01*
X26172474Y94100447D01*
X26102811Y94079315D01*
X26038606Y94044997D01*
X25971325Y94017128D01*
X25910776Y93976670D01*
X25846569Y93942351D01*
X25790291Y93896165D01*
X25729742Y93855707D01*
X25678248Y93804213D01*
X25621972Y93758028D01*
X25575788Y93701753D01*
X25524293Y93650258D01*
X25483835Y93589709D01*
X25437649Y93533431D01*
X25403330Y93469224D01*
X25400000Y93464241D01*
X25396670Y93469224D01*
X25362351Y93533431D01*
X25316165Y93589709D01*
X25275707Y93650258D01*
X25224212Y93701753D01*
X25178028Y93758028D01*
X25121752Y93804213D01*
X25070258Y93855707D01*
X25009709Y93896165D01*
X24953431Y93942351D01*
X24889224Y93976670D01*
X24828675Y94017128D01*
X24761394Y94044997D01*
X24697189Y94079315D01*
X24627526Y94100447D01*
X24560242Y94128317D01*
X24488813Y94142525D01*
X24419150Y94163657D01*
X24346701Y94170793D01*
X24275275Y94185000D01*
X21444725Y94185000D01*
X21373299Y94170793D01*
X21300850Y94163657D01*
X21231187Y94142525D01*
X21159758Y94128317D01*
X21092474Y94100447D01*
X21022811Y94079315D01*
X20958606Y94044997D01*
X20891325Y94017128D01*
X20830776Y93976670D01*
X20766569Y93942351D01*
X20710291Y93896165D01*
X20649742Y93855707D01*
X20598248Y93804213D01*
X20541972Y93758028D01*
X20495788Y93701753D01*
X20444293Y93650258D01*
X20403835Y93589709D01*
X20357649Y93533431D01*
X20323330Y93469224D01*
X20282872Y93408675D01*
X20255003Y93341394D01*
X20220685Y93277189D01*
X20199553Y93207526D01*
X20171683Y93140242D01*
X20157475Y93068813D01*
X20136343Y92999150D01*
X20129207Y92926700D01*
X20115000Y92855275D01*
X20115000Y92782452D01*
X20107864Y92710000D01*
X20115000Y92637548D01*
X20115000Y92564725D01*
X20129207Y92493300D01*
X20136343Y92420850D01*
X20157475Y92351187D01*
X20171683Y92279758D01*
X20199553Y92212474D01*
X20220685Y92142811D01*
X20255003Y92078606D01*
X20282872Y92011325D01*
X20323330Y91950776D01*
X20357649Y91886569D01*
X20403835Y91830291D01*
X20444293Y91769742D01*
X20495786Y91718249D01*
X20541972Y91661972D01*
X20562652Y91645000D01*
X16364725Y91645000D01*
X16293299Y91630793D01*
X16220850Y91623657D01*
X16151187Y91602525D01*
X16079758Y91588317D01*
X16012474Y91560447D01*
X15942811Y91539315D01*
X15878606Y91504997D01*
X15811325Y91477128D01*
X15750776Y91436670D01*
X15686569Y91402351D01*
X15630291Y91356165D01*
X15569742Y91315707D01*
X15518248Y91264213D01*
X15461972Y91218028D01*
X15415788Y91161753D01*
X15364293Y91110258D01*
X15323835Y91049709D01*
X15277649Y90993431D01*
X15243330Y90929224D01*
X15202872Y90868675D01*
X15175003Y90801394D01*
X15140685Y90737189D01*
X15119553Y90667526D01*
X15091683Y90600242D01*
X15077475Y90528813D01*
X15056343Y90459150D01*
X15049207Y90386700D01*
X15035000Y90315275D01*
X15035000Y90242452D01*
X15027864Y90170000D01*
X400000Y90170000D01*
X400000Y92904521D01*
X1835000Y92904521D01*
X1835000Y92515479D01*
X1910898Y92133914D01*
X2059778Y91774487D01*
X2275917Y91451011D01*
X2551011Y91175917D01*
X2874487Y90959778D01*
X3233914Y90810898D01*
X3615479Y90735000D01*
X4004521Y90735000D01*
X4386086Y90810898D01*
X4745513Y90959778D01*
X5068989Y91175917D01*
X5344083Y91451011D01*
X5560222Y91774487D01*
X5709102Y92133914D01*
X5785000Y92515479D01*
X5785000Y92904521D01*
X5709102Y93286086D01*
X5560222Y93645513D01*
X5344083Y93968989D01*
X5068989Y94244083D01*
X4745513Y94460222D01*
X4386086Y94609102D01*
X4004521Y94685000D01*
X3615479Y94685000D01*
X3233914Y94609102D01*
X2874487Y94460222D01*
X2551011Y94244083D01*
X2275917Y93968989D01*
X2059778Y93645513D01*
X1910898Y93286086D01*
X1835000Y92904521D01*
X400000Y92904521D01*
X400000Y96120000D01*
X47860000Y96120000D01*
X47860001Y400000D01*
%TD*%
M02*
