M48
; DRILL file {KiCad (5.1.6)-1} date 01/06/24 07:46:32
; FORMAT={-:-/ absolute / metric / decimal}
; #@! TF.CreationDate,2024-01-06T07:46:32-05:00
; #@! TF.GenerationSoftware,Kicad,Pcbnew,(5.1.6)-1
FMAT,2
METRIC
T1C0.900
T2C1.000
T3C3.200
%
G90
G05
T1
X6.382Y26.638
X7.62Y68.58
X7.62Y71.12
X7.62Y73.66
X8.874Y46.958
X8.874Y44.418
X8.874Y41.878
X8.874Y39.338
X8.874Y36.798
X8.874Y34.258
X8.874Y31.718
X8.874Y29.178
X8.874Y26.638
X8.874Y24.098
X8.874Y21.558
X8.874Y19.018
X8.874Y16.478
X8.874Y13.938
X8.874Y11.398
X10.16Y66.04
X11.43Y82.55
X11.43Y74.93
X12.7Y21.828
X12.7Y25.4
X12.7Y33.02
X12.7Y36.83
X12.7Y44.45
X13.97Y73.66
X13.97Y66.04
X15.24Y25.368
X15.24Y32.988
X15.24Y36.83
X15.24Y44.45
X16.51Y90.17
X16.51Y76.2
X16.51Y76.2
X16.51Y76.2
X17.764Y25.368
X17.764Y32.988
X17.764Y36.798
X17.764Y44.418
X19.05Y71.12
X20.32Y50.8
X20.32Y86.36
X21.59Y80.01
X21.59Y67.31
X22.86Y44.45
X24.13Y67.31
X24.13Y62.23
X24.13Y54.61
X25.39Y80.01
X26.67Y92.71
X26.67Y90.17
X26.67Y71.12
X26.67Y67.31
X26.68Y11.43
X27.94Y86.36
X27.94Y48.26
X30.48Y11.43
X30.48Y44.45
X30.48Y82.55
X30.48Y90.17
X33.02Y90.17
X34.274Y11.398
X34.274Y13.938
X34.274Y16.478
X34.274Y19.018
X34.274Y21.558
X34.274Y24.098
X34.274Y26.638
X34.274Y29.178
X34.274Y31.718
X34.274Y34.258
X34.274Y36.798
X34.274Y39.338
X34.274Y41.878
X34.274Y44.418
X34.274Y46.958
X34.29Y78.74
X36.83Y53.488
X41.644Y50.113
X41.644Y43.103
X41.644Y38.048
X41.644Y31.038
X42.244Y31.038
X42.244Y38.048
X42.244Y43.103
X42.244Y50.113
X44.434Y48.863
X44.434Y44.363
X44.434Y36.798
X44.434Y32.298
T2
X8.89Y77.47
X8.89Y80.01
X8.89Y82.55
X10.16Y59.69
X12.7Y59.69
X15.24Y59.69
X17.78Y59.69
X21.59Y92.71
X21.59Y90.17
X24.13Y90.17
X24.13Y92.71
X34.29Y67.31
X36.83Y59.69
X36.83Y67.31
X38.1Y81.28
X38.1Y78.74
X38.1Y76.2
X39.37Y59.69
X39.37Y67.31
X41.91Y59.69
X44.45Y59.69
T3
X3.81Y92.71
X3.81Y3.81
X44.45Y3.81
X44.45Y92.71
T0
M30
